G75*
%MOIN*%
%OFA0B0*%
%FSLAX25Y25*%
%IPPOS*%
%LPD*%
%AMOC8*
5,1,8,0,0,1.08239X$1,22.5*
%
%ADD10C,0.00300*%
%ADD11R,0.00100X0.02000*%
%ADD12R,0.00100X0.03500*%
%ADD13R,0.00100X0.04700*%
%ADD14R,0.00100X0.05500*%
%ADD15R,0.00100X0.06300*%
%ADD16R,0.00100X0.06900*%
%ADD17R,0.00100X0.07500*%
%ADD18R,0.00100X0.08000*%
%ADD19R,0.00100X0.08500*%
%ADD20R,0.00100X0.09000*%
%ADD21R,0.00100X0.09500*%
%ADD22R,0.00100X0.09900*%
%ADD23R,0.00100X0.10300*%
%ADD24R,0.00100X0.10700*%
%ADD25R,0.00100X0.11000*%
%ADD26R,0.00100X0.11400*%
%ADD27R,0.00100X0.11700*%
%ADD28R,0.00100X0.12000*%
%ADD29R,0.00100X0.12300*%
%ADD30R,0.00100X0.12700*%
%ADD31R,0.00100X0.12900*%
%ADD32R,0.00100X0.13200*%
%ADD33R,0.00100X0.13500*%
%ADD34R,0.00100X0.13700*%
%ADD35R,0.00100X0.14000*%
%ADD36R,0.00100X0.14300*%
%ADD37R,0.00100X0.14500*%
%ADD38R,0.00100X0.14700*%
%ADD39R,0.00100X0.14900*%
%ADD40R,0.00100X0.15000*%
%ADD41R,0.00100X0.07200*%
%ADD42R,0.00100X0.06600*%
%ADD43R,0.00100X0.06500*%
%ADD44R,0.00100X0.05700*%
%ADD45R,0.00100X0.06100*%
%ADD46R,0.00100X0.05200*%
%ADD47R,0.00100X0.05800*%
%ADD48R,0.00100X0.05600*%
%ADD49R,0.00100X0.04200*%
%ADD50R,0.00100X0.05400*%
%ADD51R,0.00100X0.03800*%
%ADD52R,0.00100X0.05100*%
%ADD53R,0.00100X0.03200*%
%ADD54R,0.00100X0.05000*%
%ADD55R,0.00100X0.02900*%
%ADD56R,0.00100X0.04900*%
%ADD57R,0.00100X0.02600*%
%ADD58R,0.00100X0.00100*%
%ADD59R,0.00100X0.04800*%
%ADD60R,0.00100X0.02300*%
%ADD61R,0.00100X0.00300*%
%ADD62R,0.00100X0.00500*%
%ADD63R,0.00100X0.04600*%
%ADD64R,0.00100X0.01700*%
%ADD65R,0.00100X0.00600*%
%ADD66R,0.00100X0.04500*%
%ADD67R,0.00100X0.01500*%
%ADD68R,0.00100X0.00800*%
%ADD69R,0.00100X0.01200*%
%ADD70R,0.00100X0.01000*%
%ADD71R,0.00100X0.04300*%
%ADD72R,0.00100X0.01400*%
%ADD73R,0.00100X0.04100*%
%ADD74R,0.00100X0.01900*%
%ADD75R,0.00100X0.04000*%
%ADD76R,0.00100X0.02200*%
%ADD77R,0.00100X0.02500*%
%ADD78R,0.00100X0.03900*%
%ADD79R,0.00100X0.02700*%
%ADD80R,0.00100X0.02800*%
%ADD81R,0.00100X0.03000*%
%ADD82R,0.00100X0.03100*%
%ADD83R,0.00100X0.03300*%
%ADD84R,0.00100X0.03700*%
%ADD85R,0.00100X0.03400*%
%ADD86R,0.00100X0.03600*%
%ADD87R,0.00100X0.02400*%
%ADD88R,0.00100X0.05300*%
%ADD89R,0.00100X0.06700*%
%ADD90R,0.00100X0.05900*%
%ADD91R,0.00100X0.06800*%
%ADD92R,0.00100X0.07100*%
%ADD93R,0.00100X0.07300*%
%ADD94R,0.00100X0.07600*%
%ADD95R,0.00100X0.07000*%
%ADD96R,0.00100X0.07800*%
%ADD97R,0.00100X0.07900*%
%ADD98R,0.00100X0.01100*%
%ADD99R,0.00100X0.00900*%
%ADD100R,0.00100X0.00200*%
%ADD101R,0.00100X0.00400*%
%ADD102R,0.00100X0.02100*%
%ADD103R,0.00100X0.06000*%
%ADD104R,0.00100X0.06400*%
%ADD105R,0.00100X0.01300*%
%ADD106R,0.00100X0.04400*%
%ADD107R,0.00100X0.07400*%
%ADD108R,0.00100X0.07700*%
%ADD109R,0.00100X0.08100*%
%ADD110R,0.00100X0.08200*%
%ADD111R,0.00100X0.08300*%
%ADD112R,0.00100X0.08400*%
%ADD113R,0.00100X0.08600*%
%ADD114R,0.00100X0.00700*%
%ADD115R,0.00100X0.01800*%
%ADD116R,0.00100X0.01600*%
%ADD117R,0.00100X0.08700*%
%ADD118R,0.00100X0.06200*%
%ADD119R,0.00680X0.00040*%
%ADD120R,0.01480X0.00040*%
%ADD121R,0.01960X0.00040*%
%ADD122R,0.02360X0.00040*%
%ADD123R,0.02680X0.00040*%
%ADD124R,0.02960X0.00040*%
%ADD125R,0.03240X0.00040*%
%ADD126R,0.03480X0.00040*%
%ADD127R,0.03680X0.00040*%
%ADD128R,0.03920X0.00040*%
%ADD129R,0.04080X0.00040*%
%ADD130R,0.04280X0.00040*%
%ADD131R,0.04440X0.00040*%
%ADD132R,0.04640X0.00040*%
%ADD133R,0.04800X0.00040*%
%ADD134R,0.04960X0.00040*%
%ADD135R,0.05080X0.00040*%
%ADD136R,0.05240X0.00040*%
%ADD137R,0.05360X0.00040*%
%ADD138R,0.05520X0.00040*%
%ADD139R,0.05640X0.00040*%
%ADD140R,0.05760X0.00040*%
%ADD141R,0.05880X0.00040*%
%ADD142R,0.06000X0.00040*%
%ADD143R,0.06120X0.00040*%
%ADD144R,0.06240X0.00040*%
%ADD145R,0.06320X0.00040*%
%ADD146R,0.06440X0.00040*%
%ADD147R,0.06560X0.00040*%
%ADD148R,0.06640X0.00040*%
%ADD149R,0.06720X0.00040*%
%ADD150R,0.06840X0.00040*%
%ADD151R,0.06920X0.00040*%
%ADD152R,0.07000X0.00040*%
%ADD153R,0.07120X0.00040*%
%ADD154R,0.07200X0.00040*%
%ADD155R,0.07280X0.00040*%
%ADD156R,0.07360X0.00040*%
%ADD157R,0.07440X0.00040*%
%ADD158R,0.03280X0.00040*%
%ADD159R,0.03240X0.00040*%
%ADD160R,0.03080X0.00040*%
%ADD161R,0.03040X0.00040*%
%ADD162R,0.02920X0.00040*%
%ADD163R,0.02840X0.00040*%
%ADD164R,0.02800X0.00040*%
%ADD165R,0.02720X0.00040*%
%ADD166R,0.02720X0.00040*%
%ADD167R,0.02640X0.00040*%
%ADD168R,0.02560X0.00040*%
%ADD169R,0.02600X0.00040*%
%ADD170R,0.02520X0.00040*%
%ADD171R,0.02440X0.00040*%
%ADD172R,0.02440X0.00040*%
%ADD173R,0.02400X0.00040*%
%ADD174R,0.02360X0.00040*%
%ADD175R,0.02320X0.00040*%
%ADD176R,0.02280X0.00040*%
%ADD177R,0.02320X0.00040*%
%ADD178R,0.02240X0.00040*%
%ADD179R,0.02240X0.00040*%
%ADD180R,0.02200X0.00040*%
%ADD181R,0.02160X0.00040*%
%ADD182R,0.02120X0.00040*%
%ADD183R,0.02120X0.00040*%
%ADD184R,0.02080X0.00040*%
%ADD185R,0.02040X0.00040*%
%ADD186R,0.02040X0.00040*%
%ADD187R,0.02040X0.00040*%
%ADD188R,0.02040X0.00040*%
%ADD189R,0.02000X0.00040*%
%ADD190R,0.02160X0.00040*%
%ADD191R,0.02440X0.00040*%
%ADD192R,0.02400X0.00040*%
%ADD193R,0.02600X0.00040*%
%ADD194R,0.02760X0.00040*%
%ADD195R,0.02960X0.00040*%
%ADD196R,0.03040X0.00040*%
%ADD197R,0.03120X0.00040*%
%ADD198R,0.03160X0.00040*%
%ADD199R,0.03200X0.00040*%
%ADD200R,0.03320X0.00040*%
%ADD201R,0.03360X0.00040*%
%ADD202R,0.03400X0.00040*%
%ADD203R,0.03440X0.00040*%
%ADD204R,0.03440X0.00040*%
%ADD205R,0.03520X0.00040*%
%ADD206R,0.03560X0.00040*%
%ADD207R,0.03600X0.00040*%
%ADD208R,0.03600X0.00040*%
%ADD209R,0.03640X0.00040*%
%ADD210R,0.03720X0.00040*%
%ADD211R,0.03720X0.00040*%
%ADD212R,0.03800X0.00040*%
%ADD213R,0.03760X0.00040*%
%ADD214R,0.03800X0.00040*%
%ADD215R,0.03880X0.00040*%
%ADD216R,0.03840X0.00040*%
%ADD217R,0.03920X0.00040*%
%ADD218R,0.03960X0.00040*%
%ADD219R,0.03960X0.00040*%
%ADD220R,0.04000X0.00040*%
%ADD221R,0.04040X0.00040*%
%ADD222R,0.04040X0.00040*%
%ADD223R,0.04080X0.00040*%
%ADD224R,0.04120X0.00040*%
%ADD225R,0.04120X0.00040*%
%ADD226R,0.01640X0.00040*%
%ADD227R,0.01600X0.00040*%
%ADD228R,0.02480X0.00040*%
%ADD229R,0.02120X0.00040*%
%ADD230R,0.01600X0.00040*%
%ADD231R,0.01560X0.00040*%
%ADD232R,0.01920X0.00040*%
%ADD233R,0.01880X0.00040*%
%ADD234R,0.01560X0.00040*%
%ADD235R,0.01920X0.00040*%
%ADD236R,0.01880X0.00040*%
%ADD237R,0.01840X0.00040*%
%ADD238R,0.01800X0.00040*%
%ADD239R,0.01760X0.00040*%
%ADD240R,0.01760X0.00040*%
%ADD241R,0.01720X0.00040*%
%ADD242R,0.01680X0.00040*%
%ADD243R,0.01720X0.00040*%
%ADD244R,0.01520X0.00040*%
%ADD245R,0.01640X0.00040*%
%ADD246R,0.01520X0.00040*%
%ADD247R,0.01520X0.00040*%
%ADD248R,0.01480X0.00040*%
%ADD249R,0.01520X0.00040*%
%ADD250R,0.01440X0.00040*%
%ADD251R,0.01440X0.00040*%
%ADD252R,0.01400X0.00040*%
%ADD253R,0.01440X0.00040*%
%ADD254R,0.01400X0.00040*%
%ADD255R,0.01360X0.00040*%
%ADD256R,0.01320X0.00040*%
%ADD257R,0.01360X0.00040*%
%ADD258R,0.01320X0.00040*%
%ADD259R,0.01320X0.00040*%
%ADD260R,0.01320X0.00040*%
%ADD261R,0.01280X0.00040*%
%ADD262R,0.01280X0.00040*%
%ADD263R,0.02800X0.00040*%
%ADD264R,0.03120X0.00040*%
%ADD265R,0.03080X0.00040*%
%ADD266R,0.01240X0.00040*%
%ADD267R,0.01240X0.00040*%
%ADD268R,0.03360X0.00040*%
%ADD269R,0.01240X0.00040*%
%ADD270R,0.04000X0.00040*%
%ADD271R,0.04160X0.00040*%
%ADD272R,0.04200X0.00040*%
%ADD273R,0.04360X0.00040*%
%ADD274R,0.04560X0.00040*%
%ADD275R,0.04520X0.00040*%
%ADD276R,0.04720X0.00040*%
%ADD277R,0.04680X0.00040*%
%ADD278R,0.04880X0.00040*%
%ADD279R,0.04840X0.00040*%
%ADD280R,0.05040X0.00040*%
%ADD281R,0.05000X0.00040*%
%ADD282R,0.05120X0.00040*%
%ADD283R,0.05160X0.00040*%
%ADD284R,0.01200X0.00040*%
%ADD285R,0.05280X0.00040*%
%ADD286R,0.05440X0.00040*%
%ADD287R,0.01240X0.00040*%
%ADD288R,0.05560X0.00040*%
%ADD289R,0.01200X0.00040*%
%ADD290R,0.05680X0.00040*%
%ADD291R,0.05840X0.00040*%
%ADD292R,0.05800X0.00040*%
%ADD293R,0.05920X0.00040*%
%ADD294R,0.05920X0.00040*%
%ADD295R,0.06080X0.00040*%
%ADD296R,0.06040X0.00040*%
%ADD297R,0.06160X0.00040*%
%ADD298R,0.06240X0.00040*%
%ADD299R,0.06280X0.00040*%
%ADD300R,0.06400X0.00040*%
%ADD301R,0.06360X0.00040*%
%ADD302R,0.06480X0.00040*%
%ADD303R,0.06600X0.00040*%
%ADD304R,0.06680X0.00040*%
%ADD305R,0.06800X0.00040*%
%ADD306R,0.06760X0.00040*%
%ADD307R,0.06880X0.00040*%
%ADD308R,0.06960X0.00040*%
%ADD309R,0.07040X0.00040*%
%ADD310R,0.07120X0.00040*%
%ADD311R,0.07160X0.00040*%
%ADD312R,0.07200X0.00040*%
%ADD313R,0.07240X0.00040*%
%ADD314R,0.01160X0.00040*%
%ADD315R,0.07320X0.00040*%
%ADD316R,0.07400X0.00040*%
%ADD317R,0.01160X0.00040*%
%ADD318R,0.03120X0.00040*%
%ADD319R,0.03160X0.00040*%
%ADD320R,0.03000X0.00040*%
%ADD321R,0.02880X0.00040*%
%ADD322R,0.02560X0.00040*%
%ADD323R,0.04840X0.00040*%
%ADD324R,0.03520X0.00040*%
%ADD325R,0.03440X0.00040*%
%ADD326R,0.04520X0.00040*%
%ADD327R,0.03480X0.00040*%
%ADD328R,0.04400X0.00040*%
%ADD329R,0.04240X0.00040*%
%ADD330R,0.04120X0.00040*%
%ADD331R,0.03880X0.00040*%
%ADD332R,0.03040X0.00040*%
%ADD333R,0.03640X0.00040*%
%ADD334R,0.02920X0.00040*%
%ADD335R,0.03320X0.00040*%
%ADD336R,0.02920X0.00040*%
%ADD337R,0.03000X0.00040*%
%ADD338R,0.02880X0.00040*%
%ADD339R,0.03040X0.00040*%
%ADD340R,0.02480X0.00040*%
%ADD341R,0.03200X0.00040*%
%ADD342R,0.03280X0.00040*%
%ADD343R,0.01720X0.00040*%
%ADD344R,0.01680X0.00040*%
%ADD345R,0.01640X0.00040*%
%ADD346R,0.02840X0.00040*%
%ADD347R,0.03320X0.00040*%
%ADD348R,0.03760X0.00040*%
%ADD349R,0.04280X0.00040*%
%ADD350R,0.02240X0.00040*%
%ADD351R,0.04880X0.00040*%
%ADD352R,0.05040X0.00040*%
%ADD353R,0.03640X0.00040*%
%ADD354R,0.05040X0.00040*%
%ADD355R,0.05200X0.00040*%
%ADD356R,0.05320X0.00040*%
%ADD357R,0.05480X0.00040*%
%ADD358R,0.04320X0.00040*%
%ADD359R,0.05440X0.00040*%
%ADD360R,0.05600X0.00040*%
%ADD361R,0.04480X0.00040*%
%ADD362R,0.05720X0.00040*%
%ADD363R,0.04680X0.00040*%
%ADD364R,0.05840X0.00040*%
%ADD365R,0.05960X0.00040*%
%ADD366R,0.06200X0.00040*%
%ADD367R,0.06320X0.00040*%
%ADD368R,0.05520X0.00040*%
%ADD369R,0.05640X0.00040*%
%ADD370R,0.06520X0.00040*%
%ADD371R,0.06720X0.00040*%
%ADD372R,0.06800X0.00040*%
%ADD373R,0.06200X0.00040*%
%ADD374R,0.08280X0.00040*%
%ADD375R,0.08240X0.00040*%
%ADD376R,0.08320X0.00040*%
%ADD377R,0.06680X0.00040*%
%ADD378R,0.08360X0.00040*%
%ADD379R,0.23680X0.00040*%
%ADD380R,0.04320X0.00040*%
%ADD381R,0.13400X0.00040*%
%ADD382R,0.12880X0.00040*%
%ADD383R,0.03840X0.00040*%
%ADD384R,0.12480X0.00040*%
%ADD385R,0.03840X0.00040*%
%ADD386R,0.12160X0.00040*%
%ADD387R,0.11920X0.00040*%
%ADD388R,0.11680X0.00040*%
%ADD389R,0.11480X0.00040*%
%ADD390R,0.11280X0.00040*%
%ADD391R,0.11120X0.00040*%
%ADD392R,0.04920X0.00040*%
%ADD393R,0.04600X0.00040*%
%ADD394R,0.02760X0.00040*%
%ADD395R,0.02520X0.00040*%
%ADD396R,0.03240X0.00040*%
%ADD397R,0.02320X0.00040*%
%ADD398R,0.02120X0.00040*%
%ADD399R,0.01920X0.00040*%
%ADD400R,0.02200X0.00040*%
%ADD401R,0.01960X0.00040*%
%ADD402R,0.01920X0.00040*%
%ADD403R,0.01840X0.00040*%
%ADD404R,0.02080X0.00040*%
%ADD405R,0.01840X0.00040*%
%ADD406R,0.01840X0.00040*%
%ADD407R,0.02000X0.00040*%
%ADD408R,0.01800X0.00040*%
%ADD409R,0.00440X0.00040*%
%ADD410R,0.00400X0.00040*%
%ADD411R,0.00680X0.00040*%
%ADD412R,0.00600X0.00040*%
%ADD413R,0.00640X0.00040*%
%ADD414R,0.01040X0.00040*%
%ADD415R,0.00760X0.00040*%
%ADD416R,0.00800X0.00040*%
%ADD417R,0.01720X0.00040*%
%ADD418R,0.00880X0.00040*%
%ADD419R,0.01000X0.00040*%
%ADD420R,0.00960X0.00040*%
%ADD421R,0.01080X0.00040*%
%ADD422R,0.01040X0.00040*%
%ADD423R,0.01120X0.00040*%
%ADD424R,0.01640X0.00040*%
%ADD425R,0.02640X0.00040*%
%ADD426R,0.02680X0.00040*%
%ADD427R,0.00920X0.00040*%
%ADD428R,0.00480X0.00040*%
%ADD429R,0.01120X0.00040*%
%ADD430R,0.00360X0.00040*%
%ADD431R,0.00320X0.00040*%
%ADD432R,0.00440X0.00040*%
%ADD433R,0.00840X0.00040*%
%ADD434R,0.00880X0.00040*%
%ADD435R,0.00960X0.00040*%
%ADD436R,0.01000X0.00040*%
%ADD437R,0.02440X0.00040*%
%ADD438R,0.04760X0.00040*%
%ADD439R,0.04840X0.00040*%
%ADD440R,0.04920X0.00040*%
%ADD441R,0.04960X0.00040*%
%ADD442R,0.05000X0.00040*%
%ADD443R,0.05120X0.00040*%
%ADD444R,0.04440X0.00040*%
%ADD445R,0.05280X0.00040*%
%ADD446R,0.04480X0.00040*%
%ADD447R,0.05200X0.00040*%
%ADD448R,0.05240X0.00040*%
%ADD449R,0.05240X0.00040*%
%ADD450R,0.05560X0.00040*%
%ADD451R,0.05320X0.00040*%
%ADD452R,0.05640X0.00040*%
%ADD453R,0.05720X0.00040*%
%ADD454R,0.04800X0.00040*%
%ADD455R,0.05400X0.00040*%
%ADD456R,0.02240X0.00040*%
%ADD457R,0.05400X0.00040*%
%ADD458R,0.06040X0.00040*%
%ADD459R,0.05520X0.00040*%
%ADD460R,0.06160X0.00040*%
%ADD461R,0.06320X0.00040*%
%ADD462R,0.02640X0.00040*%
%ADD463R,0.02280X0.00040*%
%ADD464R,0.02320X0.00040*%
%ADD465R,0.02520X0.00040*%
%ADD466R,0.00080X0.00040*%
%ADD467R,0.02720X0.00040*%
%ADD468R,0.07720X0.00040*%
%ADD469R,0.07720X0.00040*%
%ADD470R,0.07720X0.00040*%
%ADD471R,0.07680X0.00040*%
%ADD472R,0.07680X0.00040*%
%ADD473R,0.07720X0.00040*%
%ADD474R,0.04320X0.00040*%
%ADD475R,0.04760X0.00040*%
%ADD476R,0.05040X0.00040*%
%ADD477R,0.04600X0.00040*%
%ADD478R,0.04240X0.00040*%
%ADD479R,0.03840X0.00040*%
%ADD480R,0.03640X0.00040*%
%ADD481R,0.05440X0.00040*%
%ADD482R,0.05640X0.00040*%
%ADD483R,0.03720X0.00040*%
%ADD484R,0.00320X0.00040*%
%ADD485R,0.05720X0.00040*%
%ADD486R,0.05800X0.00040*%
%ADD487R,0.03920X0.00040*%
%ADD488R,0.05920X0.00040*%
%ADD489R,0.00920X0.00040*%
%ADD490R,0.00640X0.00040*%
%ADD491R,0.00440X0.00040*%
%ADD492R,0.05520X0.00040*%
%ADD493R,0.05480X0.00040*%
%ADD494R,0.05360X0.00040*%
%ADD495R,0.05160X0.00040*%
%ADD496R,0.04920X0.00040*%
%ADD497R,0.02840X0.00040*%
%ADD498R,0.00840X0.00040*%
%ADD499R,0.00840X0.00040*%
%ADD500R,0.00800X0.00040*%
%ADD501R,0.00720X0.00040*%
%ADD502R,0.00520X0.00040*%
%ADD503R,0.00520X0.00040*%
%ADD504R,0.00120X0.00040*%
%ADD505R,0.00120X0.00040*%
%ADD506R,0.01120X0.00040*%
%ADD507R,0.00240X0.00040*%
%ADD508R,0.00280X0.00040*%
%ADD509R,0.00160X0.00040*%
%ADD510R,0.00840X0.00040*%
%ADD511R,0.00920X0.00040*%
%ADD512R,0.02520X0.00040*%
%ADD513R,0.05120X0.00040*%
%ADD514R,0.00400X0.00040*%
%ADD515R,0.00720X0.00040*%
%ADD516R,0.00560X0.00040*%
%ADD517R,0.00280X0.00040*%
%ADD518C,0.01000*%
%ADD519C,0.00600*%
%ADD520C,0.00400*%
%ADD521C,0.00500*%
D10*
X0048631Y0077752D02*
X0050566Y0077752D01*
X0051050Y0078236D01*
X0051050Y0079203D01*
X0050566Y0079687D01*
X0049599Y0079687D01*
X0049599Y0078719D01*
X0048631Y0077752D02*
X0048148Y0078236D01*
X0048148Y0079203D01*
X0048631Y0079687D01*
X0048148Y0080698D02*
X0048148Y0082150D01*
X0048631Y0082633D01*
X0049599Y0082633D01*
X0050083Y0082150D01*
X0050083Y0080698D01*
X0051050Y0080698D02*
X0048148Y0080698D01*
X0048148Y0083645D02*
X0048148Y0084612D01*
X0048148Y0084129D02*
X0051050Y0084129D01*
X0051050Y0084612D02*
X0051050Y0083645D01*
X0050566Y0085609D02*
X0051050Y0086093D01*
X0051050Y0087060D01*
X0050566Y0087544D01*
X0048631Y0087544D01*
X0048148Y0087060D01*
X0048148Y0086093D01*
X0048631Y0085609D01*
X0050566Y0085609D01*
X0056917Y0075158D02*
X0056917Y0072256D01*
X0055950Y0072256D02*
X0057885Y0072256D01*
X0058897Y0072739D02*
X0059380Y0072256D01*
X0060348Y0072256D01*
X0060831Y0072739D01*
X0060831Y0074674D01*
X0060348Y0075158D01*
X0059380Y0075158D01*
X0058897Y0074674D01*
X0058897Y0074191D01*
X0059380Y0073707D01*
X0060831Y0073707D01*
X0056917Y0075158D02*
X0055950Y0074191D01*
X0065950Y0074191D02*
X0066917Y0075158D01*
X0066917Y0072256D01*
X0065950Y0072256D02*
X0067885Y0072256D01*
X0068897Y0072739D02*
X0068897Y0073223D01*
X0069380Y0073707D01*
X0070348Y0073707D01*
X0070831Y0073223D01*
X0070831Y0072739D01*
X0070348Y0072256D01*
X0069380Y0072256D01*
X0068897Y0072739D01*
X0069380Y0073707D02*
X0068897Y0074191D01*
X0068897Y0074674D01*
X0069380Y0075158D01*
X0070348Y0075158D01*
X0070831Y0074674D01*
X0070831Y0074191D01*
X0070348Y0073707D01*
X0075950Y0074191D02*
X0076917Y0075158D01*
X0076917Y0072256D01*
X0075950Y0072256D02*
X0077885Y0072256D01*
X0078897Y0072256D02*
X0078897Y0072739D01*
X0080831Y0074674D01*
X0080831Y0075158D01*
X0078897Y0075158D01*
X0085950Y0074191D02*
X0086917Y0075158D01*
X0086917Y0072256D01*
X0085950Y0072256D02*
X0087885Y0072256D01*
X0088897Y0072739D02*
X0089380Y0072256D01*
X0090348Y0072256D01*
X0090831Y0072739D01*
X0090831Y0073223D01*
X0090348Y0073707D01*
X0088897Y0073707D01*
X0088897Y0072739D01*
X0088897Y0073707D02*
X0089864Y0074674D01*
X0090831Y0075158D01*
X0095950Y0074191D02*
X0096917Y0075158D01*
X0096917Y0072256D01*
X0095950Y0072256D02*
X0097885Y0072256D01*
X0098897Y0072739D02*
X0099380Y0072256D01*
X0100348Y0072256D01*
X0100831Y0072739D01*
X0100831Y0073223D01*
X0100348Y0073707D01*
X0099864Y0073707D01*
X0100348Y0073707D02*
X0100831Y0074191D01*
X0100831Y0074674D01*
X0100348Y0075158D01*
X0099380Y0075158D01*
X0098897Y0074674D01*
X0105950Y0074191D02*
X0106917Y0075158D01*
X0106917Y0072256D01*
X0105950Y0072256D02*
X0107885Y0072256D01*
X0108897Y0072256D02*
X0110831Y0074191D01*
X0110831Y0074674D01*
X0110348Y0075158D01*
X0109380Y0075158D01*
X0108897Y0074674D01*
X0108897Y0072256D02*
X0110831Y0072256D01*
X0115950Y0072739D02*
X0117885Y0074674D01*
X0117885Y0072739D01*
X0117401Y0072256D01*
X0116434Y0072256D01*
X0115950Y0072739D01*
X0115950Y0074674D01*
X0116434Y0075158D01*
X0117401Y0075158D01*
X0117885Y0074674D01*
X0118897Y0073707D02*
X0120348Y0073707D01*
X0120831Y0073223D01*
X0120831Y0072739D01*
X0120348Y0072256D01*
X0119380Y0072256D01*
X0118897Y0072739D01*
X0118897Y0073707D01*
X0119864Y0074674D01*
X0120831Y0075158D01*
X0125950Y0074674D02*
X0125950Y0072739D01*
X0127885Y0074674D01*
X0127885Y0072739D01*
X0127401Y0072256D01*
X0126434Y0072256D01*
X0125950Y0072739D01*
X0125950Y0074674D02*
X0126434Y0075158D01*
X0127401Y0075158D01*
X0127885Y0074674D01*
X0128897Y0075158D02*
X0128897Y0073707D01*
X0129864Y0074191D01*
X0130348Y0074191D01*
X0130831Y0073707D01*
X0130831Y0072739D01*
X0130348Y0072256D01*
X0129380Y0072256D01*
X0128897Y0072739D01*
X0128897Y0075158D02*
X0130831Y0075158D01*
X0135950Y0074674D02*
X0135950Y0072739D01*
X0137885Y0074674D01*
X0137885Y0072739D01*
X0137401Y0072256D01*
X0136434Y0072256D01*
X0135950Y0072739D01*
X0135950Y0074674D02*
X0136434Y0075158D01*
X0137401Y0075158D01*
X0137885Y0074674D01*
X0138897Y0073707D02*
X0140831Y0073707D01*
X0140348Y0072256D02*
X0140348Y0075158D01*
X0138897Y0073707D01*
X0139488Y0064477D02*
X0141423Y0064477D01*
X0142390Y0063510D01*
X0141423Y0062542D01*
X0139488Y0062542D01*
X0139488Y0061531D02*
X0139488Y0059596D01*
X0140939Y0059596D01*
X0140455Y0060563D01*
X0140455Y0061047D01*
X0140939Y0061531D01*
X0141906Y0061531D01*
X0142390Y0061047D01*
X0142390Y0060079D01*
X0141906Y0059596D01*
X0142166Y0045584D02*
X0140231Y0045584D01*
X0139748Y0045100D01*
X0139748Y0043649D01*
X0142650Y0043649D01*
X0142650Y0045100D01*
X0142166Y0045584D01*
X0142650Y0042637D02*
X0139748Y0040702D01*
X0142650Y0040702D01*
X0142166Y0039691D02*
X0142650Y0039207D01*
X0142650Y0038239D01*
X0142166Y0037756D01*
X0140231Y0037756D01*
X0139748Y0038239D01*
X0139748Y0039207D01*
X0140231Y0039691D01*
X0141199Y0039691D02*
X0141199Y0038723D01*
X0141199Y0039691D02*
X0142166Y0039691D01*
X0142650Y0042637D02*
X0139748Y0042637D01*
X0093518Y0050596D02*
X0091583Y0050596D01*
X0091583Y0053498D01*
X0090571Y0053014D02*
X0090088Y0053498D01*
X0089120Y0053498D01*
X0088637Y0053014D01*
X0088637Y0051079D01*
X0089120Y0050596D01*
X0090088Y0050596D01*
X0090571Y0051079D01*
X0087625Y0051079D02*
X0087141Y0050596D01*
X0086174Y0050596D01*
X0085690Y0051079D01*
X0086174Y0052047D02*
X0087141Y0052047D01*
X0087625Y0051563D01*
X0087625Y0051079D01*
X0086174Y0052047D02*
X0085690Y0052531D01*
X0085690Y0053014D01*
X0086174Y0053498D01*
X0087141Y0053498D01*
X0087625Y0053014D01*
X0082518Y0052531D02*
X0082518Y0050596D01*
X0082518Y0052047D02*
X0080583Y0052047D01*
X0080583Y0052531D02*
X0081551Y0053498D01*
X0082518Y0052531D01*
X0080583Y0052531D02*
X0080583Y0050596D01*
X0079571Y0051079D02*
X0079571Y0053014D01*
X0079088Y0053498D01*
X0077637Y0053498D01*
X0077637Y0050596D01*
X0079088Y0050596D01*
X0079571Y0051079D01*
X0076625Y0051079D02*
X0076141Y0050596D01*
X0075174Y0050596D01*
X0074690Y0051079D01*
X0075174Y0052047D02*
X0074690Y0052531D01*
X0074690Y0053014D01*
X0075174Y0053498D01*
X0076141Y0053498D01*
X0076625Y0053014D01*
X0076141Y0052047D02*
X0076625Y0051563D01*
X0076625Y0051079D01*
X0076141Y0052047D02*
X0075174Y0052047D01*
X0070571Y0051563D02*
X0070571Y0053498D01*
X0068637Y0053498D02*
X0068637Y0051563D01*
X0069604Y0050596D01*
X0070571Y0051563D01*
X0067625Y0051079D02*
X0067141Y0050596D01*
X0066174Y0050596D01*
X0065690Y0051079D01*
X0065690Y0052047D02*
X0066657Y0052531D01*
X0067141Y0052531D01*
X0067625Y0052047D01*
X0067625Y0051079D01*
X0065690Y0052047D02*
X0065690Y0053498D01*
X0067625Y0053498D01*
X0062018Y0053014D02*
X0061534Y0053498D01*
X0060083Y0053498D01*
X0060083Y0050596D01*
X0061534Y0050596D01*
X0062018Y0051079D01*
X0062018Y0053014D01*
X0059071Y0053498D02*
X0059071Y0050596D01*
X0057137Y0053498D01*
X0057137Y0050596D01*
X0056125Y0051079D02*
X0056125Y0052047D01*
X0055157Y0052047D01*
X0054190Y0053014D02*
X0054190Y0051079D01*
X0054674Y0050596D01*
X0055641Y0050596D01*
X0056125Y0051079D01*
X0056125Y0053014D02*
X0055641Y0053498D01*
X0054674Y0053498D01*
X0054190Y0053014D01*
X0066450Y0096256D02*
X0068385Y0098191D01*
X0068385Y0098674D01*
X0067901Y0099158D01*
X0066934Y0099158D01*
X0066450Y0098674D01*
X0066450Y0096256D02*
X0068385Y0096256D01*
X0069397Y0096739D02*
X0071331Y0098674D01*
X0071331Y0096739D01*
X0070848Y0096256D01*
X0069880Y0096256D01*
X0069397Y0096739D01*
X0069397Y0098674D01*
X0069880Y0099158D01*
X0070848Y0099158D01*
X0071331Y0098674D01*
X0071331Y0106256D02*
X0069397Y0106256D01*
X0070364Y0106256D02*
X0070364Y0109158D01*
X0069397Y0108191D01*
X0068385Y0108191D02*
X0068385Y0108674D01*
X0067901Y0109158D01*
X0066934Y0109158D01*
X0066450Y0108674D01*
X0068385Y0108191D02*
X0066450Y0106256D01*
X0068385Y0106256D01*
X0068385Y0116256D02*
X0066450Y0116256D01*
X0068385Y0118191D01*
X0068385Y0118674D01*
X0067901Y0119158D01*
X0066934Y0119158D01*
X0066450Y0118674D01*
X0069397Y0118674D02*
X0069880Y0119158D01*
X0070848Y0119158D01*
X0071331Y0118674D01*
X0071331Y0118191D01*
X0069397Y0116256D01*
X0071331Y0116256D01*
X0070848Y0126256D02*
X0069880Y0126256D01*
X0069397Y0126739D01*
X0068385Y0126256D02*
X0066450Y0126256D01*
X0068385Y0128191D01*
X0068385Y0128674D01*
X0067901Y0129158D01*
X0066934Y0129158D01*
X0066450Y0128674D01*
X0069397Y0128674D02*
X0069880Y0129158D01*
X0070848Y0129158D01*
X0071331Y0128674D01*
X0071331Y0128191D01*
X0070848Y0127707D01*
X0071331Y0127223D01*
X0071331Y0126739D01*
X0070848Y0126256D01*
X0070848Y0127707D02*
X0070364Y0127707D01*
X0070848Y0136256D02*
X0070848Y0139158D01*
X0069397Y0137707D01*
X0071331Y0137707D01*
X0068385Y0138191D02*
X0068385Y0138674D01*
X0067901Y0139158D01*
X0066934Y0139158D01*
X0066450Y0138674D01*
X0068385Y0138191D02*
X0066450Y0136256D01*
X0068385Y0136256D01*
X0068385Y0146256D02*
X0066450Y0146256D01*
X0068385Y0148191D01*
X0068385Y0148674D01*
X0067901Y0149158D01*
X0066934Y0149158D01*
X0066450Y0148674D01*
X0069397Y0149158D02*
X0069397Y0147707D01*
X0070364Y0148191D01*
X0070848Y0148191D01*
X0071331Y0147707D01*
X0071331Y0146739D01*
X0070848Y0146256D01*
X0069880Y0146256D01*
X0069397Y0146739D01*
X0069397Y0149158D02*
X0071331Y0149158D01*
X0070848Y0156256D02*
X0069880Y0156256D01*
X0069397Y0156739D01*
X0069397Y0157707D01*
X0070848Y0157707D01*
X0071331Y0157223D01*
X0071331Y0156739D01*
X0070848Y0156256D01*
X0069397Y0157707D02*
X0070364Y0158674D01*
X0071331Y0159158D01*
X0068385Y0158674D02*
X0067901Y0159158D01*
X0066934Y0159158D01*
X0066450Y0158674D01*
X0068385Y0158674D02*
X0068385Y0158191D01*
X0066450Y0156256D01*
X0068385Y0156256D01*
X0068385Y0166256D02*
X0066450Y0166256D01*
X0068385Y0168191D01*
X0068385Y0168674D01*
X0067901Y0169158D01*
X0066934Y0169158D01*
X0066450Y0168674D01*
X0069397Y0169158D02*
X0071331Y0169158D01*
X0071331Y0168674D01*
X0069397Y0166739D01*
X0069397Y0166256D01*
X0050810Y0157860D02*
X0050326Y0158344D01*
X0048391Y0158344D01*
X0047908Y0157860D01*
X0047908Y0156893D01*
X0048391Y0156409D01*
X0050326Y0156409D01*
X0050810Y0156893D01*
X0050810Y0157860D01*
X0050810Y0155412D02*
X0050810Y0154445D01*
X0050810Y0154929D02*
X0047908Y0154929D01*
X0047908Y0155412D02*
X0047908Y0154445D01*
X0048391Y0153433D02*
X0047908Y0152950D01*
X0047908Y0151498D01*
X0050810Y0151498D01*
X0049843Y0151498D02*
X0049843Y0152950D01*
X0049359Y0153433D01*
X0048391Y0153433D01*
X0048391Y0150487D02*
X0047908Y0150003D01*
X0047908Y0149036D01*
X0048391Y0148552D01*
X0050326Y0148552D01*
X0050810Y0149036D01*
X0050810Y0150003D01*
X0050326Y0150487D01*
X0049359Y0150487D01*
X0049359Y0149519D01*
X0052958Y0202660D02*
X0053642Y0202660D01*
X0054326Y0203344D01*
X0054326Y0204028D01*
X0053642Y0204712D01*
X0052958Y0204028D01*
X0051590Y0204028D02*
X0052958Y0202660D01*
X0051590Y0204028D02*
X0051590Y0204712D01*
X0052274Y0205396D01*
X0052958Y0205396D01*
X0053331Y0206454D02*
X0055384Y0204401D01*
X0056752Y0205770D02*
X0054699Y0207822D01*
X0055415Y0208537D02*
X0056441Y0209563D01*
X0057125Y0209563D01*
X0058493Y0208195D01*
X0058493Y0207511D01*
X0057467Y0206485D01*
X0055415Y0208537D01*
X0053331Y0206454D02*
X0056752Y0205770D01*
X0061248Y0204370D02*
X0062274Y0203344D01*
X0062616Y0204370D01*
X0062958Y0204712D01*
X0063642Y0204712D01*
X0064326Y0204028D01*
X0064326Y0203344D01*
X0063642Y0202660D01*
X0062958Y0202660D01*
X0061248Y0204370D02*
X0062616Y0205738D01*
X0063331Y0206454D02*
X0064699Y0205085D01*
X0066068Y0205085D01*
X0066068Y0206454D01*
X0064699Y0207822D01*
X0071590Y0204712D02*
X0071590Y0204028D01*
X0072958Y0202660D01*
X0073642Y0202660D01*
X0074326Y0203344D01*
X0074326Y0204028D01*
X0075384Y0204401D02*
X0073331Y0206454D01*
X0074699Y0207822D01*
X0075757Y0208195D02*
X0075757Y0208879D01*
X0076441Y0209563D01*
X0077125Y0209563D01*
X0077125Y0206827D01*
X0077809Y0206827D01*
X0078493Y0207511D01*
X0078493Y0208195D01*
X0077125Y0209563D01*
X0075757Y0208195D02*
X0077125Y0206827D01*
X0076752Y0205770D02*
X0075384Y0204401D01*
X0074357Y0205427D02*
X0075041Y0206112D01*
X0072958Y0205396D02*
X0072274Y0205396D01*
X0071590Y0204712D01*
X0081248Y0204370D02*
X0082616Y0204370D01*
X0082616Y0205738D01*
X0084668Y0203686D01*
X0085041Y0204743D02*
X0085726Y0204743D01*
X0086410Y0205427D01*
X0086410Y0206112D01*
X0085041Y0207480D01*
X0084357Y0207480D01*
X0083673Y0206796D01*
X0083673Y0206112D01*
X0085041Y0204743D01*
X0087125Y0206827D02*
X0087809Y0206827D01*
X0088493Y0207511D01*
X0088493Y0208195D01*
X0088151Y0208537D01*
X0087467Y0208537D01*
X0086783Y0207853D01*
X0086099Y0207853D01*
X0085757Y0208195D01*
X0085757Y0208879D01*
X0086441Y0209563D01*
X0087125Y0209563D01*
X0087498Y0210621D02*
X0088182Y0211305D01*
X0087840Y0210963D02*
X0089893Y0208910D01*
X0089551Y0208568D02*
X0090235Y0209252D01*
X0092831Y0206454D02*
X0093515Y0207138D01*
X0093173Y0206796D02*
X0095226Y0204743D01*
X0094884Y0204401D02*
X0095568Y0205085D01*
X0095930Y0206132D02*
X0096615Y0206132D01*
X0097299Y0206816D01*
X0097299Y0207501D01*
X0096957Y0207843D01*
X0096273Y0207843D01*
X0095588Y0207159D01*
X0094904Y0207159D01*
X0094562Y0207501D01*
X0094562Y0208185D01*
X0095246Y0208869D01*
X0095930Y0208869D01*
X0096646Y0209584D02*
X0098014Y0208216D01*
X0098698Y0208216D01*
X0099382Y0208900D01*
X0099382Y0209584D01*
X0098014Y0210952D01*
X0097330Y0210952D01*
X0096646Y0210268D01*
X0096646Y0209584D01*
X0092116Y0205738D02*
X0092116Y0204370D01*
X0090748Y0204370D01*
X0092800Y0202318D01*
X0094168Y0203686D02*
X0092116Y0205738D01*
X0100590Y0204712D02*
X0100590Y0204028D01*
X0100932Y0203686D01*
X0101616Y0203686D01*
X0102300Y0204370D01*
X0102984Y0204370D01*
X0103326Y0204028D01*
X0103326Y0203344D01*
X0102642Y0202660D01*
X0101958Y0202660D01*
X0100590Y0204712D02*
X0101274Y0205396D01*
X0101958Y0205396D01*
X0102673Y0206112D02*
X0104041Y0204743D01*
X0104726Y0204743D01*
X0105410Y0205427D01*
X0105410Y0206112D01*
X0106467Y0206485D02*
X0104415Y0208537D01*
X0104041Y0207480D02*
X0103357Y0207480D01*
X0102673Y0206796D01*
X0102673Y0206112D01*
X0106467Y0206485D02*
X0107835Y0207853D01*
X0108551Y0208568D02*
X0106498Y0210621D01*
X0107866Y0209937D02*
X0109919Y0209937D01*
X0107866Y0209252D02*
X0107866Y0211989D01*
X0107551Y0224361D02*
X0106934Y0224361D01*
X0107551Y0224361D02*
X0108168Y0224978D01*
X0108168Y0228064D01*
X0109383Y0226213D02*
X0110000Y0226213D01*
X0110000Y0225596D01*
X0109383Y0225596D01*
X0109383Y0226213D01*
X0108168Y0225596D02*
X0106317Y0225596D01*
X0105700Y0226213D01*
X0105700Y0228064D01*
X0103861Y0229299D02*
X0103861Y0225596D01*
X0103244Y0225596D02*
X0104479Y0225596D01*
X0102030Y0226213D02*
X0102030Y0227447D01*
X0101413Y0228064D01*
X0099561Y0228064D01*
X0099561Y0224361D01*
X0099561Y0225596D02*
X0101413Y0225596D01*
X0102030Y0226213D01*
X0103244Y0229299D02*
X0103861Y0229299D01*
X0102023Y0231596D02*
X0101406Y0232213D01*
X0101406Y0234682D01*
X0100789Y0234064D02*
X0102023Y0234064D01*
X0099574Y0234064D02*
X0097723Y0234064D01*
X0097106Y0233447D01*
X0097723Y0232830D01*
X0098957Y0232830D01*
X0099574Y0232213D01*
X0098957Y0231596D01*
X0097106Y0231596D01*
X0095881Y0231596D02*
X0095264Y0231596D01*
X0095264Y0232213D01*
X0095881Y0232213D01*
X0095881Y0231596D01*
X0094050Y0231596D02*
X0094050Y0234064D01*
X0094050Y0231596D02*
X0092198Y0231596D01*
X0091581Y0232213D01*
X0091581Y0234064D01*
X0090363Y0234064D02*
X0089746Y0234064D01*
X0088512Y0232830D01*
X0088512Y0231596D02*
X0088512Y0234064D01*
X0087297Y0234064D02*
X0085446Y0234064D01*
X0084829Y0233447D01*
X0084829Y0232213D01*
X0085446Y0231596D01*
X0087297Y0231596D01*
X0089129Y0228064D02*
X0090980Y0228064D01*
X0092195Y0228064D02*
X0092195Y0226213D01*
X0092812Y0225596D01*
X0094664Y0225596D01*
X0094664Y0228064D01*
X0095878Y0228064D02*
X0097730Y0228064D01*
X0098347Y0227447D01*
X0098347Y0226213D01*
X0097730Y0225596D01*
X0095878Y0225596D01*
X0095878Y0224361D02*
X0095878Y0228064D01*
X0090980Y0226213D02*
X0090363Y0226830D01*
X0089129Y0226830D01*
X0088512Y0227447D01*
X0089129Y0228064D01*
X0087297Y0227447D02*
X0084829Y0227447D01*
X0082990Y0228064D02*
X0082990Y0225596D01*
X0082373Y0225596D02*
X0083608Y0225596D01*
X0081159Y0226213D02*
X0081159Y0227447D01*
X0080542Y0228064D01*
X0078690Y0228064D01*
X0078690Y0224361D01*
X0078690Y0225596D02*
X0080542Y0225596D01*
X0081159Y0226213D01*
X0082373Y0228064D02*
X0082990Y0228064D01*
X0082990Y0229299D02*
X0082990Y0229916D01*
X0082990Y0231596D02*
X0082990Y0234064D01*
X0082373Y0234064D01*
X0081159Y0233447D02*
X0081159Y0232213D01*
X0080542Y0231596D01*
X0078690Y0231596D01*
X0078690Y0230361D02*
X0078690Y0234064D01*
X0080542Y0234064D01*
X0081159Y0233447D01*
X0082373Y0231596D02*
X0083608Y0231596D01*
X0082990Y0235299D02*
X0082990Y0235916D01*
X0088512Y0225596D02*
X0090363Y0225596D01*
X0090980Y0226213D01*
X0081248Y0204370D02*
X0083300Y0202318D01*
X0109950Y0196842D02*
X0109950Y0196224D01*
X0110567Y0195607D01*
X0111802Y0195607D01*
X0112419Y0194990D01*
X0112419Y0194373D01*
X0111802Y0193756D01*
X0110567Y0193756D01*
X0109950Y0194373D01*
X0109950Y0196842D02*
X0110567Y0197459D01*
X0111802Y0197459D01*
X0112419Y0196842D01*
X0113633Y0197459D02*
X0113633Y0193756D01*
X0113633Y0194990D02*
X0115485Y0194990D01*
X0116102Y0195607D01*
X0116102Y0196842D01*
X0115485Y0197459D01*
X0113633Y0197459D01*
X0117316Y0197459D02*
X0118551Y0197459D01*
X0117933Y0197459D02*
X0117933Y0193756D01*
X0117316Y0193756D02*
X0118551Y0193756D01*
X0123455Y0194373D02*
X0125924Y0196842D01*
X0125924Y0194373D01*
X0125306Y0193756D01*
X0124072Y0193756D01*
X0123455Y0194373D01*
X0123455Y0196842D01*
X0124072Y0197459D01*
X0125306Y0197459D01*
X0125924Y0196842D01*
X0125189Y0181959D02*
X0125189Y0178256D01*
X0123955Y0178256D02*
X0126424Y0178256D01*
X0123955Y0180724D02*
X0125189Y0181959D01*
X0119051Y0181959D02*
X0117816Y0181959D01*
X0118433Y0181959D02*
X0118433Y0178256D01*
X0117816Y0178256D02*
X0119051Y0178256D01*
X0116602Y0180107D02*
X0116602Y0181342D01*
X0115985Y0181959D01*
X0114133Y0181959D01*
X0114133Y0178256D01*
X0114133Y0179490D02*
X0115985Y0179490D01*
X0116602Y0180107D01*
X0112919Y0179490D02*
X0112919Y0178873D01*
X0112302Y0178256D01*
X0111067Y0178256D01*
X0110450Y0178873D01*
X0111067Y0180107D02*
X0110450Y0180724D01*
X0110450Y0181342D01*
X0111067Y0181959D01*
X0112302Y0181959D01*
X0112919Y0181342D01*
X0112302Y0180107D02*
X0112919Y0179490D01*
X0112302Y0180107D02*
X0111067Y0180107D01*
X0111842Y0225596D02*
X0113693Y0225596D01*
X0114908Y0226213D02*
X0115525Y0225596D01*
X0116759Y0225596D01*
X0117376Y0226213D01*
X0117376Y0227447D01*
X0116759Y0228064D01*
X0115525Y0228064D01*
X0114908Y0227447D01*
X0114908Y0226213D01*
X0113693Y0228064D02*
X0111842Y0228064D01*
X0111224Y0227447D01*
X0111224Y0226213D01*
X0111842Y0225596D01*
X0118591Y0225596D02*
X0118591Y0228064D01*
X0119208Y0228064D01*
X0119825Y0227447D01*
X0120442Y0228064D01*
X0121059Y0227447D01*
X0121059Y0225596D01*
X0119825Y0225596D02*
X0119825Y0227447D01*
X0121190Y0263096D02*
X0121190Y0265998D01*
X0122641Y0265998D01*
X0123125Y0265514D01*
X0123125Y0264547D01*
X0122641Y0264063D01*
X0121190Y0264063D01*
X0122157Y0264063D02*
X0123125Y0263096D01*
X0124137Y0263096D02*
X0126071Y0265998D01*
X0124137Y0265998D02*
X0126071Y0263096D01*
X0115571Y0263096D02*
X0113637Y0265998D01*
X0112625Y0265998D02*
X0110690Y0265998D01*
X0111657Y0265998D02*
X0111657Y0263096D01*
X0113637Y0263096D02*
X0115571Y0265998D01*
X0106071Y0265998D02*
X0106071Y0264063D01*
X0105104Y0263096D01*
X0104137Y0264063D01*
X0104137Y0265998D01*
X0103125Y0265998D02*
X0101190Y0265998D01*
X0101190Y0264547D01*
X0102157Y0265031D01*
X0102641Y0265031D01*
X0103125Y0264547D01*
X0103125Y0263579D01*
X0102641Y0263096D01*
X0101674Y0263096D01*
X0101190Y0263579D01*
X0097018Y0263579D02*
X0097018Y0265514D01*
X0096534Y0265998D01*
X0095083Y0265998D01*
X0095083Y0263096D01*
X0096534Y0263096D01*
X0097018Y0263579D01*
X0094071Y0263096D02*
X0094071Y0265998D01*
X0092137Y0265998D02*
X0092137Y0263096D01*
X0091125Y0263579D02*
X0091125Y0264547D01*
X0090157Y0264547D01*
X0089190Y0265514D02*
X0089190Y0263579D01*
X0089674Y0263096D01*
X0090641Y0263096D01*
X0091125Y0263579D01*
X0091125Y0265514D02*
X0090641Y0265998D01*
X0089674Y0265998D01*
X0089190Y0265514D01*
X0092137Y0265998D02*
X0094071Y0263096D01*
X0038678Y0275879D02*
X0038195Y0276363D01*
X0037227Y0276363D01*
X0036743Y0276847D01*
X0037227Y0277331D01*
X0038678Y0277331D01*
X0038678Y0275879D02*
X0038195Y0275396D01*
X0036743Y0275396D01*
X0035732Y0275396D02*
X0035732Y0277331D01*
X0033797Y0277331D02*
X0033797Y0275879D01*
X0034281Y0275396D01*
X0035732Y0275396D01*
X0032800Y0275396D02*
X0031833Y0275396D01*
X0032316Y0275396D02*
X0032316Y0278298D01*
X0031833Y0278298D01*
X0030821Y0277814D02*
X0030821Y0276847D01*
X0030337Y0276363D01*
X0028886Y0276363D01*
X0028886Y0275396D02*
X0028886Y0278298D01*
X0030337Y0278298D01*
X0030821Y0277814D01*
X0024943Y0277331D02*
X0023975Y0277331D01*
X0024459Y0277814D02*
X0024459Y0275879D01*
X0024943Y0275396D01*
X0022964Y0275879D02*
X0022480Y0276363D01*
X0021512Y0276363D01*
X0021029Y0276847D01*
X0021512Y0277331D01*
X0022964Y0277331D01*
X0022964Y0275879D02*
X0022480Y0275396D01*
X0021029Y0275396D01*
X0020017Y0275396D02*
X0020017Y0277331D01*
X0018082Y0277331D02*
X0018082Y0275879D01*
X0018566Y0275396D01*
X0020017Y0275396D01*
X0017078Y0277331D02*
X0016594Y0277331D01*
X0015627Y0276363D01*
X0015627Y0275396D02*
X0015627Y0277331D01*
X0014615Y0277814D02*
X0014131Y0278298D01*
X0013164Y0278298D01*
X0012680Y0277814D01*
X0012680Y0275879D01*
X0013164Y0275396D01*
X0014131Y0275396D01*
X0014615Y0275879D01*
X0013695Y0273298D02*
X0014178Y0272814D01*
X0012243Y0270879D01*
X0012727Y0270396D01*
X0013695Y0270396D01*
X0014178Y0270879D01*
X0014178Y0272814D01*
X0013695Y0273298D02*
X0012727Y0273298D01*
X0012243Y0272814D01*
X0012243Y0270879D01*
X0011254Y0270879D02*
X0011254Y0270396D01*
X0010770Y0270396D01*
X0010770Y0270879D01*
X0011254Y0270879D01*
X0009759Y0270396D02*
X0007824Y0270396D01*
X0008791Y0270396D02*
X0008791Y0273298D01*
X0007824Y0272331D01*
X0006812Y0273298D02*
X0006812Y0271363D01*
X0005845Y0270396D01*
X0004877Y0271363D01*
X0004877Y0273298D01*
X0004823Y0275396D02*
X0004823Y0278298D01*
X0006274Y0278298D01*
X0006758Y0277814D01*
X0006758Y0276847D01*
X0006274Y0276363D01*
X0004823Y0276363D01*
X0007769Y0275396D02*
X0008737Y0275396D01*
X0008253Y0275396D02*
X0008253Y0277331D01*
X0007769Y0277331D01*
X0008253Y0278298D02*
X0008253Y0278782D01*
D11*
X0091700Y0149156D03*
X0085600Y0145256D03*
X0085500Y0145256D03*
X0084700Y0115156D03*
X0083200Y0113256D03*
X0081000Y0113556D03*
X0080100Y0110256D03*
X0075900Y0105156D03*
X0093200Y0113556D03*
X0094100Y0110256D03*
X0098300Y0105156D03*
D12*
X0098200Y0105106D03*
X0094600Y0110006D03*
X0091700Y0113606D03*
X0091500Y0113706D03*
X0091400Y0113806D03*
X0091300Y0113806D03*
X0091200Y0113906D03*
X0091100Y0113906D03*
X0082500Y0113606D03*
X0081900Y0113406D03*
X0079600Y0110006D03*
X0076000Y0105106D03*
X0082700Y0096506D03*
X0082800Y0096506D03*
X0082900Y0096406D03*
X0083000Y0096406D03*
X0083100Y0096306D03*
X0091100Y0096306D03*
X0091200Y0096406D03*
X0091300Y0096406D03*
X0091400Y0096506D03*
X0091500Y0096506D03*
X0087400Y0143206D03*
X0091200Y0149206D03*
D13*
X0091300Y0157506D03*
X0088600Y0158106D03*
X0094900Y0109706D03*
X0098100Y0105106D03*
X0094100Y0098706D03*
X0081900Y0103906D03*
X0080100Y0098706D03*
X0076100Y0105106D03*
X0079300Y0109706D03*
D14*
X0076200Y0105106D03*
X0089300Y0104206D03*
X0098000Y0105106D03*
X0091100Y0136806D03*
X0091000Y0157406D03*
D15*
X0090800Y0136806D03*
X0088500Y0123206D03*
X0083100Y0123206D03*
X0076300Y0105106D03*
X0097900Y0105106D03*
D16*
X0097800Y0105106D03*
X0088900Y0104906D03*
X0076400Y0105106D03*
X0083600Y0123506D03*
X0088000Y0123506D03*
X0090500Y0136806D03*
X0090400Y0150406D03*
X0090300Y0150406D03*
X0090200Y0150406D03*
D17*
X0090200Y0136806D03*
X0084100Y0136806D03*
X0084400Y0123806D03*
X0084500Y0123806D03*
X0084600Y0123806D03*
X0087200Y0123806D03*
X0088500Y0105206D03*
X0082700Y0105206D03*
X0076500Y0105106D03*
X0097700Y0105106D03*
D18*
X0097600Y0105156D03*
X0088100Y0105456D03*
X0083100Y0105456D03*
X0076600Y0105156D03*
X0089800Y0136756D03*
D19*
X0087400Y0105706D03*
X0083800Y0105706D03*
X0076700Y0105106D03*
X0097500Y0105106D03*
D20*
X0097400Y0105156D03*
X0076800Y0105156D03*
D21*
X0076900Y0105106D03*
X0097300Y0105106D03*
D22*
X0097200Y0105106D03*
X0077000Y0105106D03*
D23*
X0077100Y0105106D03*
X0097100Y0105106D03*
D24*
X0097000Y0105106D03*
X0077200Y0105106D03*
D25*
X0077300Y0105156D03*
X0096900Y0105156D03*
D26*
X0096800Y0105156D03*
X0077400Y0105156D03*
D27*
X0077500Y0105106D03*
X0096700Y0105106D03*
D28*
X0096600Y0105156D03*
X0077600Y0105156D03*
D29*
X0077700Y0105106D03*
X0096500Y0105106D03*
D30*
X0096400Y0105106D03*
X0077800Y0105106D03*
D31*
X0077900Y0105106D03*
X0096300Y0105106D03*
D32*
X0096200Y0105156D03*
X0078000Y0105156D03*
D33*
X0078100Y0105106D03*
X0096100Y0105106D03*
D34*
X0096000Y0105106D03*
X0078200Y0105106D03*
D35*
X0078300Y0105156D03*
X0095900Y0105156D03*
D36*
X0095800Y0105106D03*
X0078400Y0105106D03*
D37*
X0078500Y0105106D03*
X0095700Y0105106D03*
D38*
X0095600Y0105106D03*
X0078600Y0105106D03*
D39*
X0078700Y0105106D03*
X0095500Y0105106D03*
D40*
X0095400Y0105056D03*
X0095300Y0104956D03*
X0078900Y0104956D03*
X0078800Y0105056D03*
D41*
X0079000Y0100956D03*
X0082500Y0105056D03*
X0088700Y0105056D03*
X0095200Y0100956D03*
X0087700Y0123656D03*
X0087600Y0123656D03*
X0084000Y0123656D03*
X0083900Y0123656D03*
X0083900Y0136856D03*
D42*
X0083600Y0136856D03*
X0083300Y0123356D03*
X0088300Y0123356D03*
X0095200Y0109056D03*
X0089000Y0104756D03*
X0079000Y0109056D03*
D43*
X0082200Y0104706D03*
X0079100Y0100506D03*
X0095100Y0100506D03*
X0090700Y0136806D03*
D44*
X0095100Y0109406D03*
X0082000Y0104306D03*
X0079100Y0109406D03*
D45*
X0079200Y0100206D03*
X0083000Y0123106D03*
X0088600Y0123106D03*
X0090900Y0136806D03*
X0095000Y0100206D03*
D46*
X0094600Y0099356D03*
X0095000Y0109556D03*
X0082700Y0122656D03*
X0079200Y0109556D03*
X0079600Y0099356D03*
X0083100Y0136856D03*
X0091200Y0136756D03*
X0086100Y0157456D03*
X0085900Y0157556D03*
X0085700Y0157656D03*
X0085500Y0157756D03*
X0085400Y0157856D03*
D47*
X0090200Y0157656D03*
X0090300Y0157656D03*
X0090400Y0157556D03*
X0090600Y0157456D03*
X0090900Y0157356D03*
X0091000Y0136756D03*
X0083300Y0136856D03*
X0082900Y0122956D03*
X0079300Y0099956D03*
X0094900Y0099956D03*
D48*
X0094800Y0099756D03*
X0088800Y0122856D03*
X0082800Y0122856D03*
X0083200Y0136856D03*
X0079400Y0099756D03*
D49*
X0080800Y0097856D03*
X0079400Y0109856D03*
X0093400Y0097856D03*
X0094800Y0109856D03*
X0082800Y0136856D03*
X0085000Y0157756D03*
D50*
X0088900Y0122756D03*
X0094700Y0099556D03*
X0079500Y0099556D03*
D51*
X0081700Y0097156D03*
X0081800Y0097056D03*
X0079500Y0109956D03*
X0084700Y0125756D03*
X0094700Y0109956D03*
X0092500Y0097156D03*
X0092400Y0097056D03*
X0091500Y0157556D03*
X0089000Y0158656D03*
X0084900Y0157756D03*
X0090900Y0163956D03*
X0091000Y0163956D03*
D52*
X0085300Y0157906D03*
X0079700Y0099206D03*
X0094500Y0099206D03*
D53*
X0089900Y0095856D03*
X0089600Y0095756D03*
X0089500Y0095756D03*
X0089300Y0095656D03*
X0089200Y0095656D03*
X0089100Y0095656D03*
X0089000Y0095656D03*
X0088800Y0095556D03*
X0088700Y0095556D03*
X0088600Y0095556D03*
X0088500Y0095556D03*
X0088000Y0095456D03*
X0087900Y0095456D03*
X0087800Y0095456D03*
X0087700Y0095456D03*
X0087600Y0095456D03*
X0086600Y0095456D03*
X0086500Y0095456D03*
X0086400Y0095456D03*
X0086300Y0095456D03*
X0086200Y0095456D03*
X0085700Y0095556D03*
X0085600Y0095556D03*
X0085500Y0095556D03*
X0085400Y0095556D03*
X0085200Y0095656D03*
X0085100Y0095656D03*
X0085000Y0095656D03*
X0084900Y0095656D03*
X0084700Y0095756D03*
X0084600Y0095756D03*
X0084300Y0095856D03*
X0084700Y0108656D03*
X0084800Y0108756D03*
X0086700Y0108656D03*
X0086800Y0108556D03*
X0085500Y0114656D03*
X0085400Y0114656D03*
X0085300Y0114656D03*
X0085200Y0114656D03*
X0085100Y0114656D03*
X0085800Y0114756D03*
X0085900Y0114756D03*
X0086000Y0114756D03*
X0086100Y0114756D03*
X0088100Y0114756D03*
X0088200Y0114756D03*
X0088300Y0114756D03*
X0088400Y0114756D03*
X0088700Y0114656D03*
X0088800Y0114656D03*
X0088900Y0114656D03*
X0089000Y0114656D03*
X0089100Y0114656D03*
X0089200Y0114556D03*
X0089300Y0114556D03*
X0089400Y0114556D03*
X0089600Y0114456D03*
X0089700Y0114456D03*
X0094500Y0110056D03*
X0084800Y0126056D03*
X0079700Y0110056D03*
X0087600Y0143056D03*
X0089600Y0152256D03*
X0089200Y0159056D03*
X0091500Y0164156D03*
D54*
X0086600Y0163356D03*
X0086500Y0163356D03*
X0086400Y0163356D03*
X0086300Y0163356D03*
X0086200Y0163356D03*
X0086100Y0163356D03*
X0086000Y0163356D03*
X0085900Y0163356D03*
X0085800Y0163356D03*
X0085700Y0163356D03*
X0085600Y0163356D03*
X0085500Y0163356D03*
X0085400Y0163356D03*
X0085300Y0163356D03*
X0085200Y0163356D03*
X0085100Y0163356D03*
X0085000Y0163356D03*
X0084900Y0163356D03*
X0084800Y0163356D03*
X0084700Y0163356D03*
X0091200Y0157456D03*
X0094400Y0099056D03*
X0079800Y0099056D03*
D55*
X0085300Y0108906D03*
X0085400Y0108906D03*
X0085500Y0108906D03*
X0085600Y0108906D03*
X0085700Y0108906D03*
X0085800Y0108906D03*
X0085900Y0108906D03*
X0086000Y0108906D03*
X0086100Y0108906D03*
X0082900Y0113506D03*
X0085000Y0114706D03*
X0079800Y0110106D03*
X0084900Y0126206D03*
X0085000Y0126306D03*
X0085500Y0133706D03*
X0085400Y0133806D03*
X0088800Y0133706D03*
X0091700Y0136806D03*
X0089500Y0138906D03*
X0088000Y0142906D03*
X0087900Y0142906D03*
X0089400Y0148206D03*
X0089500Y0148306D03*
X0089400Y0152406D03*
X0089300Y0159206D03*
X0094400Y0110106D03*
D56*
X0089000Y0122506D03*
X0091300Y0136806D03*
X0083000Y0136906D03*
X0088000Y0157506D03*
X0088100Y0157606D03*
X0088200Y0157706D03*
X0088300Y0157806D03*
X0094300Y0098906D03*
X0079900Y0098906D03*
D57*
X0079900Y0110156D03*
X0083000Y0113456D03*
X0084900Y0114856D03*
X0084700Y0121356D03*
X0087100Y0121356D03*
X0086500Y0126456D03*
X0086400Y0126456D03*
X0086300Y0126456D03*
X0085800Y0126556D03*
X0085500Y0126456D03*
X0085400Y0126456D03*
X0085300Y0126456D03*
X0083900Y0129756D03*
X0083800Y0129756D03*
X0083700Y0129756D03*
X0083600Y0129756D03*
X0083500Y0129756D03*
X0083400Y0129756D03*
X0083300Y0129756D03*
X0083200Y0129756D03*
X0083100Y0129756D03*
X0083000Y0129756D03*
X0082900Y0129756D03*
X0082800Y0129756D03*
X0082700Y0129756D03*
X0082600Y0129756D03*
X0082500Y0129756D03*
X0082400Y0129756D03*
X0082300Y0129756D03*
X0082200Y0129756D03*
X0086500Y0133356D03*
X0086600Y0133356D03*
X0086700Y0133356D03*
X0086800Y0133356D03*
X0086900Y0133356D03*
X0087400Y0133356D03*
X0087500Y0133356D03*
X0087600Y0133356D03*
X0087700Y0133356D03*
X0087800Y0133356D03*
X0084800Y0138756D03*
X0088600Y0142756D03*
X0088700Y0142756D03*
X0088800Y0142756D03*
X0088900Y0142756D03*
X0089000Y0142756D03*
X0089100Y0142756D03*
X0089000Y0148056D03*
X0088900Y0148056D03*
X0088800Y0148056D03*
X0088700Y0148056D03*
X0088700Y0152556D03*
X0088800Y0152556D03*
X0088900Y0152556D03*
X0089000Y0152556D03*
X0089400Y0159356D03*
X0089400Y0162956D03*
X0089300Y0162956D03*
X0089200Y0162956D03*
X0089100Y0162956D03*
X0089600Y0163056D03*
X0084600Y0162956D03*
X0094300Y0110156D03*
D58*
X0093300Y0110406D03*
X0094300Y0113706D03*
X0084100Y0115906D03*
X0079900Y0113706D03*
X0080900Y0110406D03*
X0085700Y0138806D03*
D59*
X0086000Y0143856D03*
X0086100Y0143856D03*
X0086200Y0143856D03*
X0086300Y0143856D03*
X0086400Y0143856D03*
X0086500Y0143856D03*
X0086600Y0143856D03*
X0086700Y0143856D03*
X0086800Y0143856D03*
X0086900Y0143856D03*
X0087000Y0143856D03*
X0087100Y0143856D03*
X0087900Y0157356D03*
X0088400Y0157856D03*
X0088500Y0157956D03*
X0085200Y0157856D03*
X0080000Y0098756D03*
X0094200Y0098756D03*
D60*
X0094200Y0110206D03*
X0093000Y0113506D03*
X0084800Y0115006D03*
X0083100Y0113306D03*
X0080000Y0110206D03*
X0082500Y0136906D03*
X0086400Y0155906D03*
X0086800Y0155906D03*
X0089600Y0159506D03*
X0089700Y0159506D03*
X0089800Y0159506D03*
X0090000Y0159406D03*
X0091700Y0164106D03*
D61*
X0088600Y0138906D03*
X0094200Y0113706D03*
X0093400Y0110406D03*
X0083900Y0112706D03*
X0080800Y0110406D03*
X0080000Y0113706D03*
D62*
X0080100Y0113706D03*
X0080700Y0110406D03*
X0083800Y0112806D03*
X0093500Y0110406D03*
X0094100Y0113706D03*
X0091900Y0136806D03*
X0088700Y0138906D03*
X0086700Y0159506D03*
D63*
X0087800Y0157256D03*
X0082900Y0136856D03*
X0082600Y0122356D03*
X0080200Y0098556D03*
X0094000Y0098556D03*
D64*
X0094000Y0110306D03*
X0093400Y0113606D03*
X0080800Y0113606D03*
X0080200Y0110306D03*
X0089200Y0139006D03*
X0085200Y0145406D03*
X0085100Y0145406D03*
D65*
X0085500Y0138856D03*
X0089600Y0155456D03*
X0089700Y0165556D03*
X0094000Y0113656D03*
X0080200Y0113656D03*
D66*
X0080300Y0098406D03*
X0080400Y0098306D03*
X0093800Y0098306D03*
X0093900Y0098406D03*
X0091400Y0136806D03*
X0087700Y0157106D03*
X0088700Y0158206D03*
X0085100Y0157806D03*
D67*
X0086400Y0159206D03*
X0089900Y0155706D03*
X0091800Y0164106D03*
X0085000Y0145506D03*
X0089100Y0139006D03*
X0093500Y0113606D03*
X0093900Y0110306D03*
X0083400Y0113106D03*
X0080700Y0113606D03*
X0080300Y0110306D03*
D68*
X0080600Y0110356D03*
X0080300Y0113656D03*
X0083700Y0112856D03*
X0093600Y0110356D03*
X0093900Y0113656D03*
X0082400Y0136956D03*
X0085400Y0138856D03*
X0088800Y0138956D03*
X0084600Y0145856D03*
D69*
X0080500Y0113656D03*
X0080400Y0110356D03*
X0093800Y0110356D03*
X0093700Y0113656D03*
D70*
X0093800Y0113656D03*
X0093700Y0110356D03*
X0084400Y0115556D03*
X0083600Y0112956D03*
X0080400Y0113656D03*
X0080500Y0110356D03*
X0088900Y0138956D03*
D71*
X0087600Y0157006D03*
X0091400Y0157506D03*
X0093700Y0098206D03*
X0093600Y0098106D03*
X0093500Y0098006D03*
X0080700Y0098006D03*
X0080600Y0098106D03*
X0080500Y0098206D03*
D72*
X0080600Y0113656D03*
X0093600Y0113656D03*
X0084900Y0145556D03*
X0091800Y0149156D03*
D73*
X0087500Y0156906D03*
X0088900Y0158506D03*
X0089800Y0163806D03*
X0089900Y0163806D03*
X0090000Y0163806D03*
X0090100Y0163806D03*
X0090200Y0163806D03*
X0090300Y0163806D03*
X0091500Y0136806D03*
X0084700Y0134706D03*
X0080900Y0097806D03*
X0081000Y0097706D03*
X0093200Y0097706D03*
X0093300Y0097806D03*
D74*
X0093300Y0113606D03*
X0080900Y0113606D03*
X0085000Y0138906D03*
X0085400Y0145306D03*
X0090000Y0155806D03*
X0091800Y0157706D03*
X0086300Y0159006D03*
X0084600Y0157606D03*
D75*
X0090400Y0163856D03*
X0090500Y0163856D03*
X0090600Y0163856D03*
X0090900Y0149256D03*
X0087200Y0143456D03*
X0089100Y0122056D03*
X0087100Y0108056D03*
X0081100Y0097656D03*
X0081200Y0097556D03*
X0081300Y0097456D03*
X0092900Y0097456D03*
X0093000Y0097556D03*
X0093100Y0097656D03*
D76*
X0093100Y0113556D03*
X0081100Y0113556D03*
X0091800Y0136756D03*
X0084900Y0138856D03*
X0085900Y0145156D03*
X0086500Y0155856D03*
X0086600Y0155856D03*
X0086700Y0155856D03*
X0089900Y0159456D03*
D77*
X0090100Y0159306D03*
X0089000Y0162906D03*
X0088900Y0162906D03*
X0088800Y0162906D03*
X0088700Y0162906D03*
X0088600Y0162906D03*
X0088500Y0162906D03*
X0088400Y0162906D03*
X0088300Y0162906D03*
X0088200Y0162906D03*
X0088100Y0162906D03*
X0088000Y0162906D03*
X0087900Y0162906D03*
X0087800Y0162906D03*
X0087700Y0162906D03*
X0087600Y0162906D03*
X0087500Y0162906D03*
X0087400Y0162906D03*
X0087300Y0162906D03*
X0087200Y0162906D03*
X0087100Y0162906D03*
X0087000Y0162906D03*
X0086900Y0162906D03*
X0086800Y0162906D03*
X0086700Y0162906D03*
X0084500Y0162906D03*
X0084400Y0162906D03*
X0084300Y0162906D03*
X0084200Y0162906D03*
X0084100Y0162906D03*
X0084000Y0162906D03*
X0083900Y0162906D03*
X0083800Y0162906D03*
X0083700Y0162906D03*
X0083600Y0162906D03*
X0083500Y0162906D03*
X0083400Y0162906D03*
X0083300Y0162906D03*
X0083200Y0162906D03*
X0083100Y0162906D03*
X0083000Y0162906D03*
X0082900Y0162906D03*
X0084700Y0152606D03*
X0084800Y0152606D03*
X0084900Y0152606D03*
X0085000Y0152606D03*
X0085100Y0152606D03*
X0085200Y0152606D03*
X0085300Y0152606D03*
X0085400Y0152606D03*
X0085500Y0152606D03*
X0085600Y0152606D03*
X0085700Y0152606D03*
X0085800Y0152606D03*
X0085900Y0152606D03*
X0086000Y0152606D03*
X0086100Y0152606D03*
X0086200Y0152606D03*
X0086300Y0152606D03*
X0086400Y0152606D03*
X0086500Y0152606D03*
X0086600Y0152606D03*
X0086700Y0152606D03*
X0086800Y0152606D03*
X0086900Y0152606D03*
X0087000Y0152606D03*
X0087100Y0152606D03*
X0087200Y0152606D03*
X0087300Y0152606D03*
X0087400Y0152606D03*
X0087500Y0152606D03*
X0087600Y0152606D03*
X0087700Y0152606D03*
X0087800Y0152606D03*
X0087900Y0152606D03*
X0088000Y0152606D03*
X0088100Y0152606D03*
X0088200Y0152606D03*
X0088300Y0152606D03*
X0088400Y0152606D03*
X0088500Y0152606D03*
X0088600Y0152606D03*
X0090900Y0152606D03*
X0091000Y0152606D03*
X0091100Y0152606D03*
X0091200Y0152606D03*
X0091300Y0152606D03*
X0091400Y0152606D03*
X0091500Y0152606D03*
X0091600Y0152606D03*
X0091700Y0152606D03*
X0088600Y0148006D03*
X0088500Y0148006D03*
X0088400Y0148006D03*
X0088300Y0148006D03*
X0088200Y0148006D03*
X0088100Y0148006D03*
X0088000Y0148006D03*
X0087900Y0148006D03*
X0087800Y0148006D03*
X0087700Y0148006D03*
X0087600Y0148006D03*
X0087500Y0148006D03*
X0087400Y0148006D03*
X0087300Y0148006D03*
X0087200Y0148006D03*
X0087100Y0148006D03*
X0087000Y0148006D03*
X0086900Y0148006D03*
X0086800Y0148006D03*
X0086700Y0148006D03*
X0086600Y0148006D03*
X0086500Y0148006D03*
X0086400Y0148006D03*
X0086300Y0148006D03*
X0086200Y0148006D03*
X0086100Y0148006D03*
X0086000Y0148006D03*
X0085900Y0148006D03*
X0085800Y0148006D03*
X0085700Y0148006D03*
X0085600Y0148006D03*
X0085500Y0148006D03*
X0085400Y0148006D03*
X0085300Y0148006D03*
X0085200Y0148006D03*
X0085100Y0148006D03*
X0085000Y0148006D03*
X0084900Y0148006D03*
X0084800Y0148006D03*
X0084700Y0148006D03*
X0084700Y0142706D03*
X0084800Y0142706D03*
X0084900Y0142706D03*
X0085000Y0142706D03*
X0085100Y0142706D03*
X0085200Y0142706D03*
X0085300Y0142706D03*
X0085400Y0142706D03*
X0085500Y0142706D03*
X0085600Y0142706D03*
X0085700Y0142706D03*
X0085800Y0142706D03*
X0085900Y0142706D03*
X0089200Y0142706D03*
X0089300Y0142706D03*
X0089400Y0142706D03*
X0089500Y0142706D03*
X0089600Y0142706D03*
X0089700Y0142706D03*
X0089800Y0142706D03*
X0089900Y0142706D03*
X0090000Y0142706D03*
X0090100Y0142706D03*
X0090200Y0142706D03*
X0090300Y0142706D03*
X0090400Y0142706D03*
X0090500Y0142706D03*
X0090600Y0142706D03*
X0090700Y0142706D03*
X0090800Y0142706D03*
X0090900Y0142706D03*
X0091000Y0142706D03*
X0091100Y0142706D03*
X0091200Y0142706D03*
X0091300Y0142706D03*
X0091400Y0142706D03*
X0091500Y0142706D03*
X0091600Y0142706D03*
X0091700Y0142706D03*
X0091700Y0129806D03*
X0091600Y0129806D03*
X0091500Y0129806D03*
X0091400Y0129806D03*
X0091300Y0129806D03*
X0091200Y0129806D03*
X0091100Y0129806D03*
X0091000Y0129806D03*
X0090900Y0129806D03*
X0090800Y0129806D03*
X0090700Y0129806D03*
X0090600Y0129806D03*
X0090500Y0129806D03*
X0090400Y0129806D03*
X0090300Y0129806D03*
X0090200Y0129806D03*
X0090100Y0129806D03*
X0090000Y0129806D03*
X0089900Y0129806D03*
X0089800Y0129806D03*
X0089700Y0129806D03*
X0089600Y0129806D03*
X0089500Y0129806D03*
X0089400Y0129806D03*
X0089300Y0129806D03*
X0089200Y0129806D03*
X0089100Y0129806D03*
X0089000Y0129806D03*
X0088900Y0129806D03*
X0088800Y0129806D03*
X0088700Y0129806D03*
X0088600Y0129806D03*
X0088500Y0129806D03*
X0088400Y0129806D03*
X0088300Y0129806D03*
X0088200Y0129806D03*
X0088100Y0129806D03*
X0088000Y0129806D03*
X0087900Y0129806D03*
X0087800Y0129806D03*
X0087700Y0129806D03*
X0087600Y0129806D03*
X0087500Y0129806D03*
X0087400Y0129806D03*
X0087300Y0129806D03*
X0087200Y0129806D03*
X0087100Y0129806D03*
X0087000Y0129806D03*
X0086900Y0129806D03*
X0086800Y0129806D03*
X0086700Y0129806D03*
X0086600Y0129806D03*
X0086500Y0129806D03*
X0086400Y0129806D03*
X0086300Y0129806D03*
X0086200Y0129806D03*
X0086100Y0129806D03*
X0086000Y0129806D03*
X0085900Y0129806D03*
X0085800Y0129806D03*
X0085700Y0129806D03*
X0085600Y0129806D03*
X0085500Y0129806D03*
X0085400Y0129806D03*
X0085300Y0129806D03*
X0085200Y0129806D03*
X0085100Y0129806D03*
X0085000Y0129806D03*
X0084900Y0129806D03*
X0084800Y0129806D03*
X0084700Y0129806D03*
X0085600Y0126506D03*
X0085700Y0126506D03*
X0085900Y0126506D03*
X0086000Y0126506D03*
X0086100Y0126506D03*
X0086200Y0126506D03*
X0086200Y0121306D03*
X0086100Y0121306D03*
X0086000Y0121306D03*
X0085900Y0121306D03*
X0085800Y0121306D03*
X0085700Y0121306D03*
X0085600Y0121306D03*
X0085500Y0121306D03*
X0085400Y0121306D03*
X0085300Y0121306D03*
X0085200Y0121306D03*
X0085100Y0121306D03*
X0085000Y0121306D03*
X0084900Y0121306D03*
X0084800Y0121306D03*
X0086300Y0121306D03*
X0086400Y0121306D03*
X0086500Y0121306D03*
X0086600Y0121306D03*
X0086700Y0121306D03*
X0086800Y0121306D03*
X0086900Y0121306D03*
X0087000Y0121306D03*
X0089200Y0121306D03*
X0089300Y0121306D03*
X0089400Y0121306D03*
X0089500Y0121306D03*
X0089600Y0121306D03*
X0089700Y0121306D03*
X0089800Y0121306D03*
X0089900Y0121306D03*
X0090000Y0121306D03*
X0090100Y0121306D03*
X0090200Y0121306D03*
X0090300Y0121306D03*
X0090400Y0121306D03*
X0090500Y0121306D03*
X0090600Y0121306D03*
X0090700Y0121306D03*
X0090800Y0121306D03*
X0090900Y0121306D03*
X0091000Y0121306D03*
X0091100Y0121306D03*
X0091200Y0121306D03*
X0091300Y0121306D03*
X0091400Y0121306D03*
X0091500Y0121306D03*
X0091600Y0121306D03*
X0091700Y0121306D03*
X0092900Y0113506D03*
X0081300Y0113506D03*
D78*
X0084400Y0108206D03*
X0081400Y0097406D03*
X0081500Y0097306D03*
X0081600Y0097206D03*
X0092600Y0097206D03*
X0092700Y0097306D03*
X0092800Y0097406D03*
X0091000Y0149206D03*
X0087400Y0156706D03*
X0090700Y0163906D03*
X0090800Y0163906D03*
D79*
X0089500Y0163006D03*
X0087000Y0156106D03*
X0089100Y0152506D03*
X0089200Y0152506D03*
X0089200Y0148106D03*
X0089100Y0148106D03*
X0088500Y0142806D03*
X0088400Y0142806D03*
X0088300Y0142806D03*
X0088300Y0133506D03*
X0088100Y0133406D03*
X0088000Y0133406D03*
X0087900Y0133406D03*
X0087300Y0133306D03*
X0087200Y0133306D03*
X0087100Y0133306D03*
X0087000Y0133306D03*
X0086400Y0133406D03*
X0086300Y0133406D03*
X0086200Y0133406D03*
X0086000Y0133506D03*
X0085900Y0133506D03*
X0085200Y0126406D03*
X0086600Y0126406D03*
X0086700Y0126306D03*
X0081400Y0113506D03*
X0092800Y0113506D03*
D80*
X0092700Y0113456D03*
X0092400Y0102956D03*
X0081500Y0113456D03*
X0085100Y0126356D03*
X0086800Y0126256D03*
X0086100Y0133456D03*
X0085800Y0133556D03*
X0085700Y0133656D03*
X0085600Y0133656D03*
X0088200Y0133456D03*
X0088400Y0133556D03*
X0088500Y0133556D03*
X0088600Y0133656D03*
X0088700Y0133656D03*
X0088200Y0142856D03*
X0088100Y0142856D03*
X0089300Y0148156D03*
X0091500Y0149156D03*
X0089300Y0152456D03*
X0091700Y0157656D03*
X0089700Y0163156D03*
X0091600Y0164156D03*
X0084700Y0157656D03*
D81*
X0087100Y0156256D03*
X0089500Y0152356D03*
X0091400Y0149156D03*
X0087800Y0142956D03*
X0089000Y0133856D03*
X0088900Y0133756D03*
X0085300Y0133856D03*
X0086900Y0126156D03*
X0081600Y0113456D03*
X0085100Y0108856D03*
X0085200Y0108856D03*
X0086200Y0108856D03*
X0086300Y0108856D03*
X0086500Y0108756D03*
X0086500Y0102956D03*
X0086400Y0102956D03*
X0086300Y0102956D03*
X0086200Y0102956D03*
X0086100Y0102956D03*
X0086000Y0102956D03*
X0085900Y0102956D03*
X0085800Y0102956D03*
X0085700Y0102956D03*
X0085600Y0102956D03*
X0085500Y0102956D03*
X0085400Y0102956D03*
X0085300Y0102956D03*
X0085200Y0102956D03*
X0085100Y0102956D03*
X0085000Y0102956D03*
X0084900Y0102956D03*
X0084800Y0102956D03*
X0084700Y0102956D03*
X0084600Y0102956D03*
X0084500Y0102956D03*
X0084400Y0102956D03*
X0086600Y0102956D03*
X0086700Y0102956D03*
X0086800Y0102956D03*
X0086900Y0102956D03*
X0087000Y0102956D03*
X0087100Y0102956D03*
X0089400Y0102956D03*
X0089500Y0102956D03*
X0089600Y0102956D03*
X0089700Y0102956D03*
X0089800Y0102956D03*
X0089900Y0102956D03*
X0090000Y0102956D03*
X0090100Y0102956D03*
X0090200Y0102956D03*
X0090300Y0102956D03*
X0090400Y0102956D03*
X0090500Y0102956D03*
X0090600Y0102956D03*
X0090700Y0102956D03*
X0090800Y0102956D03*
X0090900Y0102956D03*
X0091000Y0102956D03*
X0091100Y0102956D03*
X0091200Y0102956D03*
X0091300Y0102956D03*
X0091400Y0102956D03*
X0091500Y0102956D03*
X0091600Y0102956D03*
X0091700Y0102956D03*
X0091800Y0102956D03*
X0091900Y0102956D03*
X0092000Y0102956D03*
X0092100Y0102956D03*
X0092200Y0102956D03*
X0092300Y0102956D03*
X0092600Y0113456D03*
D82*
X0092500Y0113406D03*
X0088600Y0114706D03*
X0088500Y0114706D03*
X0088000Y0114806D03*
X0087900Y0114806D03*
X0087800Y0114806D03*
X0087700Y0114806D03*
X0087600Y0114806D03*
X0087500Y0114806D03*
X0087400Y0114806D03*
X0087300Y0114806D03*
X0087200Y0114806D03*
X0087100Y0114806D03*
X0087000Y0114806D03*
X0086900Y0114806D03*
X0086800Y0114806D03*
X0086700Y0114806D03*
X0086600Y0114806D03*
X0086500Y0114806D03*
X0086400Y0114806D03*
X0086300Y0114806D03*
X0086200Y0114806D03*
X0085700Y0114706D03*
X0085600Y0114706D03*
X0082800Y0113606D03*
X0081700Y0113406D03*
X0084900Y0108806D03*
X0085000Y0108806D03*
X0086400Y0108806D03*
X0086600Y0108706D03*
X0085300Y0095606D03*
X0085800Y0095506D03*
X0085900Y0095506D03*
X0086000Y0095506D03*
X0086100Y0095506D03*
X0086700Y0095406D03*
X0086800Y0095406D03*
X0086900Y0095406D03*
X0087000Y0095406D03*
X0087100Y0095406D03*
X0087200Y0095406D03*
X0087300Y0095406D03*
X0087400Y0095406D03*
X0087500Y0095406D03*
X0088100Y0095506D03*
X0088200Y0095506D03*
X0088300Y0095506D03*
X0088400Y0095506D03*
X0088900Y0095606D03*
X0087000Y0126006D03*
X0085200Y0133906D03*
X0085100Y0134006D03*
X0082600Y0136906D03*
X0089100Y0133906D03*
X0089200Y0134006D03*
X0087700Y0143006D03*
X0089600Y0148406D03*
D83*
X0091300Y0149206D03*
X0087500Y0143106D03*
X0084700Y0138506D03*
X0084900Y0134206D03*
X0085000Y0134106D03*
X0089300Y0134106D03*
X0089500Y0114506D03*
X0089800Y0114406D03*
X0089900Y0114406D03*
X0090000Y0114406D03*
X0090100Y0114306D03*
X0090200Y0114306D03*
X0090400Y0114206D03*
X0090500Y0114206D03*
X0090700Y0114106D03*
X0092400Y0113406D03*
X0081800Y0113406D03*
X0083600Y0096106D03*
X0083800Y0096006D03*
X0083900Y0096006D03*
X0084000Y0095906D03*
X0084100Y0095906D03*
X0084200Y0095906D03*
X0084400Y0095806D03*
X0084500Y0095806D03*
X0084800Y0095706D03*
X0089400Y0095706D03*
X0089700Y0095806D03*
X0089800Y0095806D03*
X0090000Y0095906D03*
X0090100Y0095906D03*
X0090200Y0095906D03*
X0090300Y0096006D03*
X0090400Y0096006D03*
X0090600Y0096106D03*
X0087200Y0156406D03*
X0084800Y0157706D03*
D84*
X0091100Y0164006D03*
X0091100Y0149206D03*
X0087300Y0143306D03*
X0091600Y0136806D03*
X0082700Y0136906D03*
X0091900Y0113506D03*
X0092100Y0113406D03*
X0092300Y0097006D03*
X0092200Y0096906D03*
X0092100Y0096906D03*
X0092000Y0096806D03*
X0082200Y0096806D03*
X0082100Y0096906D03*
X0082000Y0096906D03*
X0081900Y0097006D03*
D85*
X0083200Y0096256D03*
X0083300Y0096256D03*
X0083400Y0096156D03*
X0083500Y0096156D03*
X0083700Y0096056D03*
X0090500Y0096056D03*
X0090700Y0096156D03*
X0090800Y0096156D03*
X0090900Y0096256D03*
X0091000Y0096256D03*
X0086900Y0108456D03*
X0084600Y0108556D03*
X0082700Y0113656D03*
X0090300Y0114256D03*
X0090600Y0114156D03*
X0090800Y0114056D03*
X0090900Y0114056D03*
X0091000Y0113956D03*
X0092300Y0113356D03*
X0089400Y0134256D03*
X0091600Y0157556D03*
X0089100Y0158856D03*
X0091400Y0164156D03*
D86*
X0091300Y0164056D03*
X0091200Y0164056D03*
X0087300Y0156556D03*
X0089500Y0134356D03*
X0084800Y0134356D03*
X0087100Y0125756D03*
X0082600Y0113656D03*
X0082400Y0113556D03*
X0082300Y0113456D03*
X0082200Y0113456D03*
X0082100Y0113356D03*
X0082000Y0113356D03*
X0084500Y0108456D03*
X0087000Y0108356D03*
X0091600Y0113656D03*
X0091800Y0113556D03*
X0092000Y0113456D03*
X0092200Y0113356D03*
X0091900Y0096756D03*
X0091800Y0096656D03*
X0091700Y0096656D03*
X0091600Y0096556D03*
X0082600Y0096556D03*
X0082500Y0096656D03*
X0082400Y0096656D03*
X0082300Y0096756D03*
D87*
X0081200Y0113556D03*
X0089400Y0138956D03*
X0091600Y0149156D03*
X0090100Y0156056D03*
X0086900Y0155956D03*
X0086300Y0155956D03*
X0089500Y0159456D03*
D88*
X0091100Y0157406D03*
X0086200Y0157406D03*
X0086000Y0157506D03*
X0085800Y0157606D03*
X0085600Y0157706D03*
D89*
X0090800Y0150506D03*
X0090600Y0136806D03*
X0088200Y0123406D03*
X0083400Y0123406D03*
D90*
X0088700Y0123006D03*
X0090800Y0157306D03*
X0090700Y0157406D03*
X0090500Y0157506D03*
D91*
X0090500Y0150456D03*
X0090600Y0150456D03*
X0090700Y0150456D03*
X0083700Y0136856D03*
X0083500Y0123456D03*
X0088100Y0123456D03*
X0082300Y0104856D03*
D92*
X0088800Y0105006D03*
X0087800Y0123606D03*
X0083800Y0123606D03*
X0090400Y0136806D03*
D93*
X0090300Y0136806D03*
X0087500Y0123706D03*
X0084100Y0123706D03*
D94*
X0084600Y0136556D03*
X0090100Y0136756D03*
D95*
X0083800Y0136856D03*
X0083700Y0123556D03*
X0087900Y0123556D03*
X0082400Y0104956D03*
X0089700Y0150356D03*
X0089800Y0150356D03*
X0089900Y0150356D03*
X0090000Y0150356D03*
X0090100Y0150356D03*
D96*
X0090000Y0136756D03*
X0089600Y0136556D03*
X0088300Y0105356D03*
X0082900Y0105356D03*
D97*
X0083000Y0105406D03*
X0088200Y0105406D03*
X0089700Y0136606D03*
X0089900Y0136806D03*
D98*
X0085300Y0138906D03*
X0084700Y0145706D03*
X0089800Y0155606D03*
X0086500Y0159306D03*
D99*
X0089700Y0155506D03*
D100*
X0089400Y0155356D03*
X0086800Y0159556D03*
X0084500Y0157556D03*
X0089600Y0165756D03*
D101*
X0089500Y0155356D03*
X0085600Y0138856D03*
X0084200Y0115856D03*
D102*
X0089300Y0139006D03*
X0085800Y0145206D03*
X0085700Y0145206D03*
D103*
X0089200Y0104456D03*
D104*
X0089100Y0104656D03*
X0088400Y0123256D03*
X0083200Y0123256D03*
X0083500Y0136856D03*
D105*
X0085200Y0138906D03*
X0089000Y0139006D03*
X0084800Y0145606D03*
X0084500Y0115406D03*
X0083500Y0113006D03*
D106*
X0088800Y0158356D03*
D107*
X0084000Y0136856D03*
X0084200Y0123756D03*
X0084300Y0123756D03*
X0087300Y0123756D03*
X0087400Y0123756D03*
X0088600Y0105156D03*
X0082600Y0105156D03*
D108*
X0082800Y0105306D03*
X0088400Y0105306D03*
X0084500Y0136606D03*
X0084400Y0136706D03*
X0084300Y0136806D03*
X0084200Y0136806D03*
D109*
X0083200Y0105506D03*
X0088000Y0105506D03*
D110*
X0087900Y0105556D03*
X0083300Y0105556D03*
D111*
X0083400Y0105606D03*
X0083500Y0105606D03*
X0087700Y0105606D03*
X0087800Y0105606D03*
D112*
X0087600Y0105656D03*
X0087500Y0105656D03*
X0083700Y0105656D03*
X0083600Y0105656D03*
D113*
X0083900Y0105756D03*
X0084000Y0105756D03*
X0087200Y0105756D03*
X0087300Y0105756D03*
D114*
X0084300Y0115706D03*
X0086600Y0159406D03*
D115*
X0085300Y0145356D03*
X0083300Y0113156D03*
D116*
X0084600Y0115256D03*
X0085100Y0138856D03*
D117*
X0084300Y0105806D03*
X0084200Y0105806D03*
X0084100Y0105806D03*
D118*
X0082100Y0104556D03*
X0083400Y0136856D03*
D119*
X0059300Y0220986D03*
X0086300Y0245586D03*
X0091700Y0240786D03*
D120*
X0091700Y0240346D03*
X0086300Y0240346D03*
X0086300Y0240306D03*
X0086300Y0240266D03*
X0086300Y0240226D03*
X0086300Y0240146D03*
X0086300Y0240106D03*
X0086300Y0240066D03*
X0086300Y0240026D03*
X0086300Y0239946D03*
X0086300Y0239906D03*
X0086300Y0239866D03*
X0086300Y0239826D03*
X0086300Y0239746D03*
X0086300Y0239706D03*
X0086300Y0239666D03*
X0086300Y0239626D03*
X0086300Y0239546D03*
X0086300Y0239506D03*
X0086300Y0239466D03*
X0086300Y0239426D03*
X0086300Y0239346D03*
X0086300Y0239306D03*
X0086300Y0239266D03*
X0086300Y0239226D03*
X0086300Y0239146D03*
X0086300Y0239106D03*
X0086300Y0239066D03*
X0086300Y0239026D03*
X0086300Y0238946D03*
X0086300Y0238906D03*
X0086300Y0238866D03*
X0086300Y0238826D03*
X0086300Y0238746D03*
X0086300Y0238706D03*
X0086300Y0238666D03*
X0086300Y0238626D03*
X0086300Y0240426D03*
X0086300Y0240466D03*
X0086300Y0240506D03*
X0086300Y0240546D03*
X0086300Y0240626D03*
X0086300Y0240666D03*
X0086300Y0240706D03*
X0086300Y0240746D03*
X0086300Y0240826D03*
X0086300Y0240866D03*
X0086300Y0240906D03*
X0086300Y0240946D03*
X0086300Y0241026D03*
X0086300Y0241066D03*
X0086300Y0241106D03*
X0086300Y0241146D03*
X0086300Y0241226D03*
X0086300Y0241266D03*
X0086300Y0241306D03*
X0086300Y0241346D03*
X0086300Y0241426D03*
X0086300Y0241466D03*
X0086300Y0241506D03*
X0086300Y0241546D03*
X0086300Y0241626D03*
X0086300Y0241666D03*
X0086300Y0241706D03*
X0086300Y0241746D03*
X0086300Y0241826D03*
X0086300Y0241866D03*
X0086300Y0241906D03*
X0086300Y0241946D03*
X0086300Y0242026D03*
X0086300Y0242066D03*
X0086300Y0242106D03*
X0086300Y0242146D03*
X0086300Y0242226D03*
X0086300Y0242266D03*
X0086300Y0242306D03*
X0086300Y0242346D03*
X0086300Y0242426D03*
X0086300Y0242466D03*
X0086300Y0242506D03*
X0086300Y0242546D03*
X0086300Y0242626D03*
X0086300Y0242666D03*
X0086300Y0242706D03*
X0086300Y0242746D03*
X0086300Y0242826D03*
X0086300Y0242866D03*
X0086300Y0242906D03*
X0086300Y0242946D03*
X0086300Y0243026D03*
X0086300Y0243066D03*
X0086300Y0243106D03*
X0086300Y0243146D03*
X0086300Y0243226D03*
X0086300Y0243266D03*
X0086300Y0243306D03*
X0086300Y0243346D03*
X0086300Y0243426D03*
X0086300Y0243466D03*
X0086300Y0243506D03*
X0086300Y0243546D03*
X0086300Y0243626D03*
X0086300Y0243666D03*
X0086300Y0243706D03*
X0086300Y0243746D03*
X0086300Y0243826D03*
X0086300Y0243866D03*
X0086300Y0243906D03*
X0086300Y0243946D03*
X0086300Y0244026D03*
X0086300Y0244066D03*
X0086300Y0244106D03*
X0086300Y0244146D03*
X0086300Y0244226D03*
X0086300Y0244266D03*
X0086300Y0244306D03*
X0086300Y0245946D03*
X0079300Y0238626D03*
X0079300Y0238546D03*
X0069660Y0230946D03*
X0069620Y0230906D03*
X0067180Y0226066D03*
X0067140Y0226026D03*
X0067100Y0225946D03*
X0067060Y0225906D03*
X0059300Y0221026D03*
X0051420Y0226026D03*
X0048980Y0230866D03*
X0048940Y0230906D03*
X0048900Y0230946D03*
X0048860Y0231026D03*
X0056700Y0243226D03*
X0059300Y0247266D03*
X0059300Y0238466D03*
X0099380Y0240346D03*
X0099380Y0240426D03*
X0099380Y0240466D03*
X0099380Y0240506D03*
X0099380Y0240546D03*
X0099380Y0240626D03*
X0099380Y0240666D03*
X0099380Y0240706D03*
X0099380Y0240746D03*
X0099380Y0240826D03*
X0099380Y0240866D03*
X0099380Y0240906D03*
X0099380Y0240946D03*
X0099380Y0241026D03*
X0099380Y0241066D03*
X0099380Y0241106D03*
X0099380Y0241146D03*
X0099380Y0241226D03*
X0099380Y0241266D03*
X0099380Y0241306D03*
X0099380Y0241346D03*
X0099380Y0241426D03*
X0099380Y0241466D03*
X0099380Y0241506D03*
X0099380Y0241546D03*
X0099380Y0241626D03*
X0099380Y0241666D03*
X0099380Y0241706D03*
X0099380Y0241746D03*
X0099380Y0241826D03*
X0099380Y0241866D03*
X0099380Y0241906D03*
X0099380Y0241946D03*
X0099380Y0242026D03*
X0099380Y0242066D03*
X0099380Y0242106D03*
X0099380Y0242146D03*
X0099380Y0242226D03*
X0099380Y0242266D03*
X0099380Y0242306D03*
X0099380Y0242346D03*
X0099380Y0242426D03*
X0099380Y0242466D03*
X0099380Y0242506D03*
X0099380Y0242546D03*
X0099380Y0242626D03*
X0099380Y0242666D03*
X0099380Y0242706D03*
X0099380Y0242746D03*
X0099380Y0242826D03*
X0099380Y0242866D03*
X0099380Y0242906D03*
X0099380Y0242946D03*
X0099380Y0243026D03*
X0099380Y0243066D03*
X0099380Y0243106D03*
X0099380Y0243146D03*
X0099380Y0243226D03*
X0099380Y0243266D03*
X0099380Y0243306D03*
X0099380Y0243346D03*
X0099380Y0243426D03*
X0099380Y0243466D03*
X0099380Y0243506D03*
X0099380Y0243546D03*
X0099380Y0243626D03*
X0099380Y0243666D03*
X0099380Y0243706D03*
X0099380Y0243746D03*
X0099380Y0243826D03*
X0099380Y0243866D03*
X0099380Y0243906D03*
X0099380Y0243946D03*
X0099380Y0244026D03*
X0099380Y0244066D03*
X0099380Y0244106D03*
X0099380Y0244146D03*
X0099380Y0244226D03*
X0099380Y0244266D03*
X0099380Y0244306D03*
X0103500Y0244226D03*
X0105940Y0242106D03*
X0105940Y0242066D03*
X0105940Y0242026D03*
X0105940Y0241946D03*
X0105940Y0241906D03*
X0105940Y0241866D03*
X0105940Y0241826D03*
X0105940Y0241146D03*
X0105940Y0241106D03*
X0105940Y0241066D03*
X0105940Y0241026D03*
X0105940Y0240946D03*
X0105940Y0240906D03*
X0105940Y0240866D03*
X0105940Y0240826D03*
X0105940Y0238346D03*
X0105940Y0238306D03*
X0105940Y0238266D03*
X0105940Y0238226D03*
X0105940Y0238146D03*
X0105940Y0238106D03*
X0105940Y0238066D03*
X0105940Y0238026D03*
X0105940Y0237946D03*
X0105940Y0237906D03*
X0105940Y0237866D03*
X0105940Y0237826D03*
X0105940Y0237746D03*
X0105940Y0237706D03*
X0105940Y0237666D03*
X0105940Y0237626D03*
X0105940Y0237546D03*
X0105940Y0237506D03*
X0105940Y0237466D03*
X0105940Y0237426D03*
X0105940Y0237346D03*
X0105940Y0237306D03*
X0105940Y0237266D03*
X0105940Y0237226D03*
X0105940Y0237146D03*
X0105940Y0237106D03*
X0105940Y0237066D03*
X0105940Y0237026D03*
X0105940Y0236946D03*
X0105940Y0236906D03*
X0105940Y0236866D03*
X0105940Y0236826D03*
X0105940Y0236746D03*
X0105940Y0236706D03*
X0105940Y0236666D03*
X0105940Y0236626D03*
X0105940Y0236546D03*
X0105940Y0236506D03*
X0105940Y0236466D03*
X0105940Y0236426D03*
X0105940Y0236346D03*
X0105940Y0236306D03*
X0105940Y0236266D03*
X0105940Y0236226D03*
X0105940Y0236146D03*
X0105940Y0236106D03*
X0105940Y0236066D03*
X0105940Y0236026D03*
X0108260Y0238026D03*
X0110500Y0240866D03*
X0110500Y0240906D03*
X0110500Y0240946D03*
X0110500Y0242026D03*
X0110500Y0242066D03*
X0112700Y0241906D03*
X0112700Y0241866D03*
X0112700Y0241826D03*
X0112700Y0241746D03*
X0112700Y0241706D03*
X0112700Y0241666D03*
X0112700Y0241626D03*
X0112700Y0241546D03*
X0112700Y0241506D03*
X0112700Y0241466D03*
X0112700Y0241426D03*
X0112700Y0241346D03*
X0112700Y0241306D03*
X0112700Y0241266D03*
X0112700Y0241226D03*
X0112700Y0241146D03*
X0112700Y0241106D03*
X0112700Y0241066D03*
X0112700Y0241026D03*
X0117260Y0240706D03*
X0117300Y0241026D03*
X0117300Y0241066D03*
X0117300Y0241106D03*
X0117300Y0241146D03*
X0117300Y0241226D03*
X0117300Y0241706D03*
X0117300Y0241746D03*
X0117300Y0241826D03*
X0117300Y0241866D03*
X0117300Y0241906D03*
X0117300Y0241946D03*
X0117260Y0242226D03*
X0119380Y0242226D03*
X0119380Y0242266D03*
X0119380Y0242306D03*
X0119380Y0242346D03*
X0119380Y0242426D03*
X0119380Y0242466D03*
X0119380Y0242506D03*
X0119380Y0242546D03*
X0119380Y0242626D03*
X0119380Y0242666D03*
X0119380Y0242706D03*
X0119380Y0242746D03*
X0119380Y0242826D03*
X0119380Y0242866D03*
X0119380Y0242906D03*
X0119380Y0242946D03*
X0119380Y0243026D03*
X0119380Y0243066D03*
X0119380Y0243106D03*
X0119380Y0243146D03*
X0119380Y0243226D03*
X0119380Y0243266D03*
X0119380Y0243306D03*
X0119380Y0243346D03*
X0119380Y0243426D03*
X0119380Y0243466D03*
X0119380Y0243506D03*
X0119380Y0243546D03*
X0119380Y0243626D03*
X0119380Y0243666D03*
X0119380Y0243706D03*
X0119380Y0243746D03*
X0119380Y0243826D03*
X0119380Y0243866D03*
X0119380Y0243906D03*
X0119380Y0243946D03*
X0119380Y0244026D03*
X0119380Y0244066D03*
X0119380Y0244106D03*
X0119380Y0244146D03*
X0119380Y0244226D03*
X0119380Y0244266D03*
X0119380Y0244306D03*
X0119380Y0244346D03*
X0119380Y0244426D03*
X0119380Y0244466D03*
X0119380Y0244506D03*
X0119380Y0244546D03*
X0119380Y0244626D03*
X0119380Y0244666D03*
X0119380Y0244706D03*
X0119380Y0244746D03*
X0119380Y0244826D03*
X0119380Y0244866D03*
X0119380Y0244906D03*
X0119380Y0244946D03*
X0119380Y0245026D03*
X0119380Y0245066D03*
X0119380Y0245106D03*
X0119380Y0245146D03*
X0119380Y0245226D03*
X0119380Y0245266D03*
X0119380Y0245306D03*
X0119380Y0245346D03*
X0119380Y0245426D03*
X0119380Y0245466D03*
X0119380Y0245506D03*
X0119380Y0245546D03*
X0119380Y0245626D03*
X0119380Y0245666D03*
X0119380Y0245706D03*
X0119380Y0245746D03*
X0119380Y0245826D03*
X0119380Y0245866D03*
X0119380Y0245906D03*
X0119380Y0245946D03*
X0119380Y0246026D03*
X0119380Y0246066D03*
X0119380Y0246106D03*
X0119380Y0246146D03*
X0119380Y0246226D03*
X0119380Y0246266D03*
X0119380Y0246306D03*
X0119380Y0246346D03*
X0119380Y0246426D03*
X0119380Y0246466D03*
X0119380Y0246506D03*
X0119380Y0246546D03*
X0119380Y0246626D03*
X0119380Y0246666D03*
X0119380Y0246706D03*
X0119380Y0246746D03*
X0119380Y0246826D03*
X0119380Y0246866D03*
X0119380Y0246906D03*
X0119380Y0246946D03*
X0119380Y0247026D03*
X0119380Y0247066D03*
X0119380Y0247106D03*
X0119380Y0247146D03*
X0119380Y0247226D03*
X0119380Y0247266D03*
X0119380Y0247306D03*
X0119380Y0247346D03*
X0119380Y0247426D03*
X0119380Y0247466D03*
X0119380Y0247506D03*
X0119380Y0247546D03*
X0119380Y0247626D03*
X0121580Y0244346D03*
X0121580Y0244306D03*
X0121580Y0244266D03*
X0119380Y0242146D03*
X0119380Y0242106D03*
X0119380Y0242066D03*
X0119380Y0242026D03*
X0119380Y0241946D03*
X0119380Y0241906D03*
X0119380Y0241866D03*
X0119380Y0241826D03*
X0119380Y0241746D03*
X0119380Y0241706D03*
X0119380Y0241666D03*
X0119380Y0241626D03*
X0119380Y0241546D03*
X0119380Y0241506D03*
X0119380Y0241466D03*
X0119380Y0241426D03*
X0119380Y0241346D03*
X0119380Y0241306D03*
X0119380Y0241266D03*
X0119380Y0241226D03*
X0119380Y0241146D03*
X0119380Y0241106D03*
X0119380Y0241066D03*
X0119380Y0241026D03*
X0119380Y0240946D03*
X0119380Y0240906D03*
X0119380Y0240866D03*
X0119380Y0240826D03*
X0119380Y0240746D03*
X0119380Y0240706D03*
X0119380Y0240666D03*
X0119380Y0240626D03*
X0119380Y0240546D03*
X0119380Y0240506D03*
X0119380Y0240466D03*
X0119380Y0240426D03*
X0119380Y0240346D03*
X0119380Y0240306D03*
X0119380Y0240266D03*
X0119380Y0240226D03*
X0119380Y0240146D03*
X0119380Y0240106D03*
X0119380Y0240066D03*
X0119380Y0240026D03*
X0119380Y0239946D03*
X0119380Y0239906D03*
X0119380Y0239866D03*
X0119380Y0239826D03*
X0119380Y0239746D03*
X0119380Y0239706D03*
X0119380Y0239666D03*
X0119380Y0239626D03*
X0112740Y0236106D03*
X0108260Y0244906D03*
X0103460Y0240426D03*
X0103460Y0240346D03*
X0103460Y0240306D03*
X0103460Y0240266D03*
X0099420Y0240146D03*
X0126140Y0244306D03*
D121*
X0123860Y0239146D03*
X0122900Y0236946D03*
X0121780Y0235746D03*
X0116700Y0239506D03*
X0116700Y0243426D03*
X0112940Y0243146D03*
X0106180Y0239746D03*
X0096780Y0246106D03*
X0092540Y0246266D03*
X0092460Y0244466D03*
X0092500Y0244426D03*
X0091980Y0239826D03*
X0069980Y0240306D03*
X0069940Y0240346D03*
X0069980Y0234946D03*
X0063260Y0235466D03*
X0063220Y0235426D03*
X0062020Y0242946D03*
X0056580Y0242946D03*
X0055340Y0235426D03*
X0048580Y0234946D03*
X0048580Y0240306D03*
X0048620Y0240346D03*
X0052380Y0225106D03*
X0059300Y0221066D03*
X0062780Y0223466D03*
X0062820Y0223506D03*
X0066260Y0225146D03*
D122*
X0065780Y0224866D03*
X0062220Y0222946D03*
X0059300Y0221106D03*
X0056340Y0222946D03*
X0059300Y0229666D03*
X0062700Y0234866D03*
X0063820Y0241106D03*
X0062340Y0242426D03*
X0062300Y0242466D03*
X0062260Y0242506D03*
X0062260Y0242546D03*
X0056300Y0242506D03*
X0056260Y0242466D03*
X0056060Y0242226D03*
X0054740Y0241106D03*
X0055860Y0234866D03*
X0048740Y0234626D03*
X0052820Y0224866D03*
X0069340Y0240946D03*
X0069380Y0240906D03*
X0096460Y0242106D03*
X0106380Y0243466D03*
X0106380Y0239466D03*
X0123860Y0239626D03*
D123*
X0123860Y0240026D03*
X0122020Y0236226D03*
X0096220Y0242266D03*
X0092580Y0239426D03*
X0094500Y0247706D03*
X0069020Y0241146D03*
X0062660Y0234746D03*
X0060740Y0228546D03*
X0057820Y0228546D03*
X0052660Y0228546D03*
X0055900Y0234746D03*
X0065900Y0228546D03*
X0059300Y0221146D03*
D124*
X0059280Y0221186D03*
D125*
X0059300Y0221226D03*
X0059300Y0229226D03*
X0050500Y0230026D03*
X0064100Y0241306D03*
X0068100Y0230066D03*
X0115100Y0244546D03*
D126*
X0101420Y0238346D03*
X0093700Y0243666D03*
X0066860Y0232506D03*
X0064060Y0224066D03*
X0059300Y0221266D03*
X0051740Y0232506D03*
D127*
X0049320Y0234026D03*
X0054280Y0224266D03*
X0054320Y0224226D03*
X0059280Y0221306D03*
X0069280Y0234026D03*
X0093920Y0243546D03*
X0094520Y0247506D03*
D128*
X0094320Y0243306D03*
X0094520Y0238346D03*
X0080480Y0241906D03*
X0062520Y0234426D03*
X0059280Y0221346D03*
D129*
X0059280Y0221386D03*
X0056080Y0234386D03*
X0062480Y0234386D03*
X0080880Y0247586D03*
X0094520Y0247386D03*
X0094520Y0238386D03*
D130*
X0101420Y0238666D03*
X0068980Y0233906D03*
X0059300Y0221426D03*
D131*
X0059300Y0221466D03*
D132*
X0059280Y0221506D03*
X0094520Y0238546D03*
X0101440Y0238866D03*
D133*
X0107600Y0238426D03*
X0107640Y0244466D03*
X0114440Y0244466D03*
X0114360Y0238426D03*
X0059280Y0221546D03*
D134*
X0059280Y0221586D03*
D135*
X0059300Y0221626D03*
X0081060Y0242306D03*
X0094500Y0238706D03*
X0101420Y0239266D03*
X0107740Y0238666D03*
X0107740Y0244266D03*
X0114540Y0244266D03*
X0114500Y0238626D03*
D136*
X0059300Y0221666D03*
D137*
X0059280Y0221706D03*
X0059280Y0233346D03*
X0081200Y0242506D03*
X0094480Y0238826D03*
X0094560Y0246866D03*
X0107880Y0238946D03*
X0114640Y0238946D03*
X0114640Y0238906D03*
X0114640Y0244026D03*
D138*
X0114720Y0239146D03*
X0081280Y0242666D03*
X0081280Y0246946D03*
X0059280Y0221746D03*
D139*
X0059300Y0221786D03*
D140*
X0059280Y0221826D03*
X0081400Y0242946D03*
X0081400Y0246666D03*
X0094600Y0246626D03*
D141*
X0094460Y0239066D03*
X0081460Y0243106D03*
X0081460Y0243146D03*
X0081460Y0246466D03*
X0059300Y0221866D03*
D142*
X0059280Y0221906D03*
X0081520Y0246266D03*
X0094440Y0239146D03*
D143*
X0094460Y0239226D03*
X0059300Y0221946D03*
D144*
X0059280Y0221986D03*
D145*
X0059280Y0222026D03*
X0059280Y0233626D03*
D146*
X0059300Y0233666D03*
X0059300Y0222066D03*
D147*
X0059280Y0222106D03*
X0055240Y0227946D03*
X0059280Y0233706D03*
D148*
X0059280Y0222146D03*
D149*
X0059280Y0222186D03*
D150*
X0059300Y0222226D03*
D151*
X0059300Y0222266D03*
D152*
X0059300Y0222306D03*
X0052180Y0233666D03*
D153*
X0059280Y0222346D03*
D154*
X0059280Y0222386D03*
D155*
X0059280Y0222426D03*
X0055240Y0228266D03*
D156*
X0059280Y0222466D03*
D157*
X0059280Y0222506D03*
D158*
X0057160Y0222546D03*
X0050440Y0230106D03*
X0050400Y0230146D03*
X0050360Y0230226D03*
X0050320Y0230266D03*
X0066960Y0228906D03*
X0068160Y0230146D03*
X0068240Y0230226D03*
X0095680Y0242546D03*
D159*
X0068140Y0230106D03*
X0063820Y0223906D03*
X0061420Y0222546D03*
X0054740Y0223906D03*
X0051620Y0228906D03*
X0050460Y0230066D03*
D160*
X0050900Y0229586D03*
X0057020Y0222586D03*
X0067660Y0229586D03*
X0108300Y0244586D03*
X0115100Y0244586D03*
D161*
X0061560Y0222586D03*
X0054960Y0223786D03*
D162*
X0056900Y0222626D03*
X0061660Y0222626D03*
X0063540Y0223746D03*
X0067100Y0229146D03*
X0051460Y0229146D03*
X0051340Y0229226D03*
X0051300Y0229266D03*
X0094500Y0247666D03*
X0115100Y0238306D03*
X0123860Y0240266D03*
X0123860Y0240306D03*
D163*
X0123860Y0240226D03*
X0122180Y0236506D03*
X0096060Y0242346D03*
X0068860Y0241226D03*
X0062660Y0234706D03*
X0057660Y0228466D03*
X0055140Y0223706D03*
X0056820Y0222666D03*
X0052820Y0228466D03*
X0054620Y0241226D03*
X0063460Y0223706D03*
D164*
X0061760Y0222666D03*
X0065840Y0228506D03*
X0059280Y0229426D03*
X0059280Y0232866D03*
X0055920Y0234706D03*
X0049720Y0241226D03*
X0063960Y0241226D03*
X0108320Y0238266D03*
X0115080Y0238266D03*
X0115080Y0244666D03*
X0122280Y0236666D03*
X0122280Y0236626D03*
X0122200Y0236546D03*
X0122160Y0236466D03*
X0122120Y0236426D03*
X0123840Y0240146D03*
D165*
X0122080Y0236306D03*
X0094520Y0238106D03*
X0069720Y0234426D03*
X0059280Y0229466D03*
X0056720Y0222706D03*
X0048880Y0234426D03*
D166*
X0061840Y0222706D03*
X0063360Y0223666D03*
X0093040Y0244026D03*
X0096240Y0246426D03*
X0122040Y0236266D03*
D167*
X0122480Y0236826D03*
X0123840Y0239946D03*
X0115080Y0238226D03*
X0113280Y0243546D03*
X0115080Y0244706D03*
X0108280Y0244706D03*
X0108320Y0238226D03*
X0101440Y0238146D03*
X0069720Y0234466D03*
X0059280Y0229506D03*
X0056680Y0222746D03*
X0061920Y0222746D03*
X0048840Y0234466D03*
X0049560Y0241146D03*
X0052160Y0242746D03*
D168*
X0062680Y0234786D03*
X0056600Y0222786D03*
D169*
X0061980Y0222786D03*
X0060660Y0228586D03*
X0057900Y0228586D03*
X0055900Y0234786D03*
X0052580Y0228586D03*
X0065980Y0228586D03*
X0106500Y0239386D03*
D170*
X0092860Y0246426D03*
X0069140Y0241066D03*
X0063860Y0241146D03*
X0054700Y0241146D03*
X0063340Y0226946D03*
X0066060Y0228626D03*
X0062060Y0222826D03*
X0056540Y0222826D03*
X0121940Y0236066D03*
X0123860Y0239826D03*
D171*
X0123860Y0239746D03*
X0123860Y0239706D03*
X0122620Y0236866D03*
X0096460Y0246346D03*
X0092860Y0244146D03*
X0092380Y0239506D03*
X0056460Y0222866D03*
D172*
X0059300Y0229626D03*
X0062100Y0222866D03*
X0052900Y0224826D03*
X0094500Y0247746D03*
D173*
X0096400Y0242146D03*
X0096440Y0239466D03*
X0094520Y0238066D03*
X0101440Y0238106D03*
X0113160Y0239466D03*
X0113160Y0243466D03*
X0123840Y0239666D03*
X0069840Y0234626D03*
X0062520Y0242226D03*
X0062480Y0242266D03*
X0062440Y0242306D03*
X0062400Y0242346D03*
X0056240Y0242426D03*
X0056160Y0242346D03*
X0056120Y0242306D03*
X0056080Y0242266D03*
X0049240Y0240946D03*
X0056400Y0222906D03*
X0062160Y0222906D03*
D174*
X0056300Y0222986D03*
X0121900Y0235986D03*
D175*
X0062280Y0222986D03*
D176*
X0063380Y0226906D03*
X0065860Y0224906D03*
X0056260Y0223026D03*
X0055180Y0226906D03*
X0055860Y0234906D03*
X0056380Y0242626D03*
X0049140Y0240866D03*
X0049100Y0240826D03*
X0048700Y0234706D03*
X0069420Y0240866D03*
X0092740Y0244226D03*
X0096540Y0242066D03*
X0096540Y0239506D03*
X0106340Y0239506D03*
X0108300Y0238146D03*
X0109700Y0243546D03*
X0106340Y0243426D03*
X0121860Y0235906D03*
X0123860Y0239506D03*
X0123860Y0239546D03*
D177*
X0121880Y0235946D03*
X0116480Y0243546D03*
X0113120Y0243426D03*
X0113120Y0239506D03*
X0096520Y0246306D03*
X0092320Y0239546D03*
X0062320Y0223026D03*
X0059280Y0229706D03*
X0048720Y0234666D03*
X0056320Y0242546D03*
D178*
X0056400Y0242666D03*
X0063800Y0241066D03*
X0056200Y0223066D03*
X0096600Y0246266D03*
D179*
X0092680Y0244266D03*
X0113080Y0239546D03*
X0115080Y0238146D03*
X0119840Y0239106D03*
X0119880Y0239026D03*
X0119920Y0238906D03*
X0069880Y0234706D03*
X0069480Y0240826D03*
X0062760Y0234946D03*
X0062720Y0234906D03*
X0059280Y0229746D03*
X0056160Y0223106D03*
X0052720Y0224906D03*
X0062360Y0223066D03*
X0054760Y0241066D03*
X0056440Y0242706D03*
X0062160Y0242666D03*
D180*
X0062140Y0242706D03*
X0056460Y0242746D03*
X0055820Y0234946D03*
X0048660Y0234746D03*
X0052660Y0224946D03*
X0055620Y0223546D03*
X0056100Y0223146D03*
X0062420Y0223106D03*
X0062460Y0223146D03*
X0065940Y0224946D03*
X0069900Y0234746D03*
X0069580Y0240746D03*
X0096580Y0242026D03*
X0106300Y0239546D03*
X0119820Y0239146D03*
X0119860Y0239066D03*
X0119900Y0238946D03*
X0119940Y0238866D03*
X0119940Y0238826D03*
X0123860Y0239426D03*
X0123860Y0239466D03*
D181*
X0123840Y0239386D03*
X0119960Y0238786D03*
X0119800Y0239186D03*
X0113040Y0239586D03*
X0106280Y0239586D03*
X0096640Y0241986D03*
X0083480Y0246186D03*
X0069920Y0234786D03*
X0066000Y0224986D03*
X0062520Y0223186D03*
X0059280Y0229786D03*
X0056080Y0223186D03*
X0056480Y0242786D03*
D182*
X0054820Y0241026D03*
X0063780Y0241026D03*
X0062980Y0235146D03*
X0062580Y0223266D03*
X0056020Y0223226D03*
X0055980Y0223266D03*
X0092580Y0244346D03*
X0113020Y0243306D03*
X0113020Y0239626D03*
X0116580Y0239426D03*
X0119780Y0239226D03*
X0119980Y0238706D03*
X0121820Y0235826D03*
X0116580Y0243506D03*
D183*
X0119740Y0239266D03*
X0123860Y0239306D03*
X0123860Y0239346D03*
X0099900Y0239426D03*
X0092140Y0239666D03*
X0092100Y0239706D03*
X0083500Y0243426D03*
X0069940Y0234826D03*
X0069700Y0240626D03*
X0069660Y0240666D03*
X0062940Y0235106D03*
X0059300Y0229826D03*
X0062540Y0223226D03*
X0055660Y0235106D03*
X0056500Y0242826D03*
X0062060Y0242826D03*
D184*
X0062040Y0242866D03*
X0056520Y0242866D03*
X0055520Y0235226D03*
X0055600Y0235146D03*
X0055080Y0226866D03*
X0052520Y0225026D03*
X0055960Y0223306D03*
X0062640Y0223306D03*
X0066080Y0225026D03*
X0048640Y0234826D03*
X0048800Y0240546D03*
X0048880Y0240626D03*
X0083520Y0246146D03*
X0096680Y0241946D03*
X0106240Y0243306D03*
X0108280Y0244826D03*
X0113000Y0243266D03*
X0113000Y0239666D03*
X0109800Y0239426D03*
X0108280Y0238106D03*
X0106240Y0239626D03*
X0119720Y0239306D03*
X0120000Y0238666D03*
X0120000Y0238626D03*
X0122800Y0236906D03*
D185*
X0094500Y0238026D03*
X0063100Y0235266D03*
X0059300Y0229866D03*
X0055900Y0223346D03*
X0063500Y0226866D03*
X0055500Y0235266D03*
D186*
X0055460Y0235306D03*
X0048620Y0234866D03*
X0048740Y0240506D03*
X0062660Y0223346D03*
X0062740Y0223426D03*
X0066140Y0225066D03*
X0069940Y0234866D03*
X0069860Y0240466D03*
X0069820Y0240506D03*
X0069780Y0240546D03*
X0063060Y0235226D03*
X0083540Y0243466D03*
X0092060Y0239746D03*
X0092580Y0246306D03*
X0096740Y0246146D03*
X0106220Y0243266D03*
X0106220Y0239666D03*
X0109860Y0239466D03*
X0112980Y0239706D03*
X0115060Y0238106D03*
X0116660Y0239466D03*
X0116660Y0243466D03*
X0115060Y0244826D03*
X0112980Y0243226D03*
X0109860Y0243466D03*
X0123860Y0239266D03*
X0123860Y0239226D03*
D187*
X0120020Y0238586D03*
X0092540Y0244386D03*
X0063740Y0240986D03*
X0055860Y0223386D03*
D188*
X0062700Y0223386D03*
D189*
X0066200Y0225106D03*
X0059280Y0229906D03*
X0059080Y0232746D03*
X0055400Y0235346D03*
X0048600Y0234906D03*
X0048680Y0240426D03*
X0048720Y0240466D03*
X0056560Y0242906D03*
X0062040Y0242906D03*
X0063160Y0235346D03*
X0063120Y0235306D03*
X0069880Y0240426D03*
X0069960Y0234906D03*
X0083600Y0243506D03*
X0083600Y0246106D03*
X0096720Y0241906D03*
X0096760Y0241866D03*
X0096720Y0239626D03*
X0099800Y0239466D03*
X0103040Y0239466D03*
X0106200Y0239706D03*
X0106200Y0243226D03*
X0109920Y0243426D03*
X0112960Y0239746D03*
X0119680Y0239346D03*
X0120040Y0238546D03*
X0055840Y0223426D03*
X0055800Y0223466D03*
X0055760Y0223506D03*
X0052440Y0225066D03*
D190*
X0055720Y0235026D03*
X0055680Y0235066D03*
X0062120Y0242746D03*
X0062880Y0235066D03*
X0062840Y0235026D03*
X0069600Y0240706D03*
X0062960Y0223546D03*
X0048920Y0240666D03*
X0048960Y0240706D03*
X0049000Y0240746D03*
X0092200Y0239626D03*
X0096600Y0239546D03*
X0101440Y0238066D03*
X0102960Y0239426D03*
X0106280Y0243346D03*
X0109800Y0243506D03*
X0113040Y0243346D03*
X0119960Y0238746D03*
X0121840Y0235866D03*
X0096640Y0246226D03*
X0092640Y0246346D03*
X0092640Y0244306D03*
D191*
X0069820Y0234586D03*
X0055460Y0223586D03*
D192*
X0063120Y0223586D03*
X0069280Y0240986D03*
X0062360Y0242386D03*
X0056200Y0242386D03*
X0092800Y0244186D03*
D193*
X0092980Y0244066D03*
X0096340Y0239426D03*
X0106500Y0243546D03*
X0121980Y0236146D03*
X0123860Y0239906D03*
X0069100Y0241106D03*
X0066420Y0242746D03*
X0063260Y0223626D03*
X0055340Y0223626D03*
X0048820Y0234506D03*
X0049500Y0241106D03*
D194*
X0052740Y0228506D03*
X0055220Y0223666D03*
X0057740Y0228506D03*
X0060820Y0228506D03*
X0096140Y0242306D03*
X0122100Y0236346D03*
X0122340Y0236706D03*
X0122380Y0236746D03*
X0123860Y0240066D03*
X0123860Y0240106D03*
D195*
X0123840Y0240346D03*
X0115080Y0244626D03*
X0108320Y0244626D03*
X0108320Y0238306D03*
X0094520Y0238146D03*
X0069600Y0234306D03*
X0067320Y0229306D03*
X0067280Y0229266D03*
X0067080Y0229106D03*
X0062640Y0234666D03*
X0059280Y0229346D03*
X0057560Y0228426D03*
X0055040Y0223746D03*
X0052920Y0228426D03*
X0051480Y0229106D03*
X0051240Y0229306D03*
X0048960Y0234306D03*
X0049800Y0241266D03*
X0055920Y0234666D03*
X0068760Y0241266D03*
D196*
X0063600Y0223786D03*
D197*
X0063680Y0223826D03*
X0059280Y0232906D03*
X0054880Y0223826D03*
X0051520Y0232426D03*
X0049920Y0241306D03*
X0069520Y0234226D03*
D198*
X0067940Y0229866D03*
X0067900Y0229826D03*
X0067820Y0229746D03*
X0059300Y0229266D03*
X0054820Y0223866D03*
X0050740Y0229746D03*
X0050660Y0229826D03*
X0093420Y0243826D03*
X0094500Y0247626D03*
X0123860Y0240546D03*
D199*
X0108320Y0244546D03*
X0101440Y0238266D03*
X0095760Y0242506D03*
X0080720Y0247706D03*
X0068080Y0230026D03*
X0068000Y0229946D03*
X0067960Y0229906D03*
X0067000Y0228946D03*
X0063760Y0223866D03*
X0051600Y0228946D03*
X0050640Y0229866D03*
X0050600Y0229906D03*
X0050560Y0229946D03*
X0054480Y0241306D03*
X0052160Y0242666D03*
X0066400Y0242666D03*
D200*
X0068500Y0241346D03*
X0069460Y0234146D03*
X0066940Y0232466D03*
X0068300Y0230346D03*
X0068300Y0230306D03*
X0068260Y0230266D03*
X0063340Y0227066D03*
X0063900Y0223946D03*
X0054700Y0223946D03*
X0051660Y0228866D03*
X0050300Y0230306D03*
X0050260Y0230346D03*
X0049140Y0234146D03*
X0050060Y0241346D03*
X0093540Y0243746D03*
X0115100Y0244506D03*
D201*
X0095600Y0242586D03*
X0063960Y0223986D03*
X0054640Y0223986D03*
X0050240Y0230386D03*
D202*
X0051700Y0228826D03*
X0053220Y0228346D03*
X0054580Y0224026D03*
X0059300Y0232946D03*
X0055980Y0234546D03*
X0049180Y0234106D03*
X0066900Y0228826D03*
X0093620Y0243706D03*
D203*
X0069400Y0234106D03*
X0066400Y0242626D03*
X0064000Y0224026D03*
D204*
X0065360Y0228346D03*
X0061320Y0228346D03*
X0059280Y0229146D03*
X0057280Y0228346D03*
X0054520Y0224066D03*
X0052160Y0242626D03*
X0094520Y0238226D03*
X0095520Y0242626D03*
D205*
X0094520Y0247546D03*
X0064120Y0224106D03*
X0059280Y0229106D03*
X0054480Y0224106D03*
D206*
X0054420Y0224146D03*
X0063340Y0227106D03*
X0066820Y0228746D03*
X0069340Y0234066D03*
X0093780Y0243626D03*
D207*
X0095360Y0242706D03*
X0094520Y0238266D03*
X0080800Y0247666D03*
X0064160Y0224146D03*
X0055240Y0227106D03*
X0051800Y0228706D03*
X0051800Y0232546D03*
D208*
X0054360Y0224186D03*
X0064200Y0224186D03*
X0093840Y0243586D03*
X0101440Y0238386D03*
D209*
X0066780Y0232546D03*
X0066780Y0228706D03*
X0064260Y0224226D03*
D210*
X0064300Y0224266D03*
X0064340Y0224306D03*
X0066740Y0228666D03*
X0062540Y0234466D03*
X0051860Y0228666D03*
D211*
X0054220Y0224306D03*
X0056020Y0234466D03*
X0093980Y0243506D03*
X0101420Y0238426D03*
D212*
X0094060Y0243466D03*
X0063340Y0227146D03*
X0054180Y0224346D03*
D213*
X0055240Y0227146D03*
X0059280Y0229026D03*
X0064400Y0224346D03*
X0094520Y0238306D03*
X0095160Y0242826D03*
D214*
X0064420Y0224386D03*
X0054140Y0224386D03*
D215*
X0054100Y0224426D03*
X0054060Y0224466D03*
X0054020Y0224506D03*
X0051940Y0232626D03*
X0056060Y0234426D03*
X0059300Y0233026D03*
X0064500Y0224466D03*
X0066660Y0232626D03*
X0080860Y0247626D03*
X0094260Y0243346D03*
X0094940Y0242946D03*
D216*
X0095080Y0242866D03*
X0094120Y0243426D03*
X0094520Y0247466D03*
X0101440Y0238466D03*
X0064480Y0224426D03*
X0052160Y0242546D03*
D217*
X0064560Y0224506D03*
X0094400Y0243266D03*
X0094800Y0243026D03*
X0101440Y0238506D03*
D218*
X0094740Y0243066D03*
X0094660Y0243106D03*
X0094460Y0243226D03*
X0066580Y0232666D03*
X0064580Y0224546D03*
X0053980Y0224546D03*
D219*
X0053940Y0224586D03*
X0064620Y0224586D03*
X0094540Y0243186D03*
D220*
X0094600Y0243146D03*
X0094520Y0247426D03*
X0059280Y0228946D03*
X0053920Y0224626D03*
X0052000Y0232666D03*
D221*
X0049460Y0233946D03*
X0052180Y0242506D03*
X0053860Y0224666D03*
X0064660Y0224626D03*
X0101420Y0238546D03*
D222*
X0069100Y0233946D03*
X0064700Y0224666D03*
D223*
X0064720Y0224706D03*
X0064760Y0224746D03*
X0066520Y0232706D03*
X0059280Y0233066D03*
X0053840Y0224706D03*
X0052040Y0232706D03*
X0066400Y0242506D03*
D224*
X0053820Y0224746D03*
D225*
X0053780Y0224786D03*
X0064780Y0224786D03*
X0101420Y0238586D03*
D226*
X0099540Y0239746D03*
X0097060Y0240106D03*
X0097060Y0240146D03*
X0097020Y0240026D03*
X0097060Y0241426D03*
X0096940Y0245866D03*
X0092260Y0245906D03*
X0092220Y0245826D03*
X0092220Y0244866D03*
X0092220Y0244826D03*
X0091780Y0240146D03*
X0083940Y0244066D03*
X0083940Y0245506D03*
X0083940Y0245546D03*
X0070660Y0239146D03*
X0070660Y0239106D03*
X0070620Y0239226D03*
X0070580Y0239306D03*
X0070660Y0236146D03*
X0070660Y0236106D03*
X0070620Y0236066D03*
X0070620Y0236026D03*
X0070580Y0235946D03*
X0067620Y0230706D03*
X0067620Y0230666D03*
X0067580Y0230546D03*
X0067540Y0230506D03*
X0067540Y0230466D03*
X0066820Y0225626D03*
X0066740Y0225546D03*
X0063580Y0224906D03*
X0063580Y0224866D03*
X0059180Y0230346D03*
X0059140Y0230426D03*
X0059140Y0230466D03*
X0059060Y0230626D03*
X0059060Y0230666D03*
X0055020Y0224826D03*
X0051020Y0230506D03*
X0051020Y0230546D03*
X0050980Y0230626D03*
X0050940Y0230746D03*
X0049260Y0230546D03*
X0047940Y0236066D03*
X0047940Y0236106D03*
X0047860Y0236306D03*
X0047860Y0238946D03*
X0047940Y0239146D03*
X0047980Y0239266D03*
X0054540Y0240106D03*
X0054540Y0240146D03*
X0054580Y0240226D03*
X0054580Y0240266D03*
X0054620Y0240306D03*
X0054620Y0240346D03*
X0054660Y0240426D03*
X0056660Y0243146D03*
X0054540Y0236866D03*
X0054540Y0236826D03*
X0054580Y0236746D03*
X0054620Y0236666D03*
X0054620Y0236626D03*
X0054660Y0236546D03*
X0063940Y0236626D03*
X0063980Y0236706D03*
X0063980Y0236746D03*
X0064020Y0236826D03*
X0064060Y0236906D03*
X0064060Y0236946D03*
X0064060Y0240026D03*
X0064020Y0240146D03*
X0063980Y0240226D03*
X0063980Y0240266D03*
X0063940Y0240346D03*
X0106020Y0240306D03*
X0106020Y0240266D03*
X0106020Y0242626D03*
X0106020Y0242666D03*
X0110260Y0242946D03*
X0112780Y0242626D03*
X0112780Y0242546D03*
X0112780Y0240346D03*
X0112780Y0240306D03*
X0110260Y0239946D03*
X0110220Y0239906D03*
X0117020Y0239906D03*
X0117060Y0242946D03*
X0117020Y0243026D03*
X0121860Y0243466D03*
X0123860Y0238746D03*
X0123340Y0237506D03*
X0123220Y0237306D03*
D227*
X0123360Y0237546D03*
X0123400Y0237626D03*
X0123400Y0237666D03*
X0123440Y0237706D03*
X0123520Y0237906D03*
X0123600Y0238066D03*
X0123680Y0238266D03*
X0123800Y0238546D03*
X0123040Y0240626D03*
X0123000Y0240706D03*
X0122960Y0240826D03*
X0122920Y0240906D03*
X0122840Y0241106D03*
X0122760Y0241306D03*
X0122680Y0241466D03*
X0122680Y0241506D03*
X0122600Y0241666D03*
X0122600Y0241706D03*
X0122520Y0241866D03*
X0122480Y0241946D03*
X0122440Y0242066D03*
X0122400Y0242146D03*
X0122360Y0242266D03*
X0122320Y0242346D03*
X0122280Y0242426D03*
X0122280Y0242466D03*
X0122240Y0242546D03*
X0122200Y0242626D03*
X0122200Y0242666D03*
X0122160Y0242706D03*
X0122160Y0242746D03*
X0122120Y0242826D03*
X0122120Y0242866D03*
X0122080Y0242906D03*
X0122080Y0242946D03*
X0122040Y0243026D03*
X0122040Y0243066D03*
X0122000Y0243106D03*
X0122000Y0243146D03*
X0121960Y0243226D03*
X0121960Y0243266D03*
X0121920Y0243306D03*
X0121920Y0243346D03*
X0121880Y0243426D03*
X0121840Y0243506D03*
X0121840Y0243546D03*
X0121800Y0243626D03*
X0121760Y0243666D03*
X0121760Y0243706D03*
X0121760Y0243746D03*
X0121720Y0243826D03*
X0121680Y0243866D03*
X0121680Y0243906D03*
X0121680Y0243946D03*
X0121640Y0244026D03*
X0125320Y0242226D03*
X0125360Y0242266D03*
X0125360Y0242306D03*
X0125440Y0242466D03*
X0125440Y0242506D03*
X0125480Y0242546D03*
X0125520Y0242666D03*
X0125520Y0242706D03*
X0125560Y0242746D03*
X0125600Y0242866D03*
X0125600Y0242906D03*
X0125640Y0242946D03*
X0125680Y0243026D03*
X0125680Y0243066D03*
X0125680Y0243106D03*
X0125720Y0243146D03*
X0125760Y0243226D03*
X0125760Y0243266D03*
X0125800Y0243306D03*
X0125800Y0243346D03*
X0125840Y0243426D03*
X0125840Y0243466D03*
X0125880Y0243506D03*
X0125880Y0243546D03*
X0125920Y0243626D03*
X0125920Y0243666D03*
X0125960Y0243706D03*
X0125960Y0243746D03*
X0126000Y0243826D03*
X0126000Y0243866D03*
X0126040Y0243906D03*
X0126040Y0243946D03*
X0126080Y0244026D03*
X0126080Y0244066D03*
X0125280Y0242106D03*
X0125280Y0242066D03*
X0125240Y0242026D03*
X0125200Y0241906D03*
X0125160Y0241826D03*
X0125120Y0241706D03*
X0125080Y0241626D03*
X0125040Y0241506D03*
X0125000Y0241426D03*
X0124960Y0241346D03*
X0124960Y0241306D03*
X0124920Y0241226D03*
X0124880Y0241146D03*
X0124840Y0241026D03*
X0124800Y0240946D03*
X0124760Y0240826D03*
X0124720Y0240746D03*
X0117120Y0240146D03*
X0117120Y0240106D03*
X0117080Y0240066D03*
X0117080Y0240026D03*
X0117040Y0239946D03*
X0117160Y0242666D03*
X0117120Y0242826D03*
X0117080Y0242866D03*
X0117080Y0242906D03*
X0112760Y0242506D03*
X0112760Y0242466D03*
X0112760Y0242426D03*
X0112760Y0240546D03*
X0112760Y0240506D03*
X0112760Y0240466D03*
X0112760Y0240426D03*
X0110320Y0240106D03*
X0110320Y0240066D03*
X0110280Y0240026D03*
X0110360Y0242706D03*
X0110320Y0242826D03*
X0110320Y0242866D03*
X0110280Y0242906D03*
X0106000Y0242546D03*
X0106000Y0242506D03*
X0106000Y0240426D03*
X0106000Y0240346D03*
X0103360Y0239866D03*
X0103360Y0239826D03*
X0099520Y0239826D03*
X0099480Y0239906D03*
X0097120Y0240266D03*
X0097120Y0240306D03*
X0097120Y0240346D03*
X0097080Y0240226D03*
X0097120Y0241266D03*
X0097120Y0241306D03*
X0096960Y0245826D03*
X0092240Y0245866D03*
X0092200Y0245746D03*
X0092200Y0244906D03*
X0086320Y0246106D03*
X0086320Y0246146D03*
X0086320Y0246546D03*
X0086320Y0246626D03*
X0083960Y0245466D03*
X0083960Y0245426D03*
X0084000Y0245306D03*
X0084000Y0245266D03*
X0084000Y0244346D03*
X0084000Y0244306D03*
X0083960Y0244146D03*
X0083960Y0244106D03*
X0083920Y0244026D03*
X0070680Y0239066D03*
X0070680Y0239026D03*
X0070720Y0238946D03*
X0070720Y0238906D03*
X0070720Y0238866D03*
X0070760Y0238826D03*
X0070760Y0238746D03*
X0070800Y0238666D03*
X0070800Y0238626D03*
X0070800Y0236626D03*
X0070760Y0236506D03*
X0070760Y0236466D03*
X0070760Y0236426D03*
X0070720Y0236346D03*
X0070720Y0236306D03*
X0070680Y0236226D03*
X0069400Y0230626D03*
X0067720Y0231026D03*
X0067720Y0231066D03*
X0067760Y0231226D03*
X0067680Y0230906D03*
X0067680Y0230866D03*
X0067680Y0230826D03*
X0067640Y0230746D03*
X0067600Y0230626D03*
X0066920Y0225746D03*
X0066880Y0225706D03*
X0066840Y0225666D03*
X0063720Y0225426D03*
X0063680Y0225266D03*
X0063680Y0225226D03*
X0063640Y0225106D03*
X0063640Y0225066D03*
X0063640Y0225026D03*
X0063600Y0224946D03*
X0063560Y0224826D03*
X0059040Y0230706D03*
X0059040Y0230746D03*
X0059000Y0230826D03*
X0059000Y0230866D03*
X0058960Y0230946D03*
X0058920Y0231146D03*
X0058880Y0232706D03*
X0059280Y0238626D03*
X0054520Y0240026D03*
X0054520Y0240066D03*
X0054480Y0239946D03*
X0054480Y0239906D03*
X0054440Y0239826D03*
X0054400Y0239666D03*
X0054400Y0239626D03*
X0054360Y0239466D03*
X0054360Y0237506D03*
X0054400Y0237346D03*
X0054400Y0237306D03*
X0054440Y0237226D03*
X0054440Y0237146D03*
X0054480Y0237066D03*
X0054480Y0237026D03*
X0054520Y0236946D03*
X0054520Y0236906D03*
X0050840Y0231106D03*
X0050880Y0230946D03*
X0050880Y0230906D03*
X0050920Y0230866D03*
X0050920Y0230826D03*
X0050960Y0230706D03*
X0050960Y0230666D03*
X0049200Y0230626D03*
X0049160Y0230666D03*
X0047880Y0236226D03*
X0047880Y0236266D03*
X0047840Y0236346D03*
X0047840Y0236426D03*
X0047800Y0236466D03*
X0047800Y0236506D03*
X0047800Y0236546D03*
X0047760Y0236666D03*
X0047800Y0238706D03*
X0047800Y0238746D03*
X0047840Y0238826D03*
X0047840Y0238866D03*
X0047840Y0238906D03*
X0047880Y0239026D03*
X0051680Y0225706D03*
X0051720Y0225666D03*
X0051760Y0225626D03*
X0054880Y0225306D03*
X0054920Y0225146D03*
X0054920Y0225106D03*
X0054960Y0225026D03*
X0054960Y0224946D03*
X0055000Y0224906D03*
X0055000Y0224866D03*
X0064040Y0236866D03*
X0064080Y0237026D03*
X0064120Y0237066D03*
X0064120Y0237106D03*
X0064120Y0237146D03*
X0064160Y0237226D03*
X0064160Y0237266D03*
X0064160Y0237306D03*
X0064200Y0237426D03*
X0064200Y0239546D03*
X0064160Y0239666D03*
X0064160Y0239706D03*
X0064160Y0239746D03*
X0064120Y0239826D03*
X0064120Y0239866D03*
X0064120Y0239906D03*
X0064080Y0239946D03*
X0064040Y0240066D03*
X0064040Y0240106D03*
X0059280Y0247146D03*
D228*
X0055880Y0234826D03*
X0059280Y0232826D03*
X0062680Y0234826D03*
X0069200Y0241026D03*
X0065680Y0224826D03*
X0055240Y0226946D03*
X0049360Y0241026D03*
X0083280Y0243346D03*
X0106440Y0243506D03*
X0108280Y0244746D03*
X0113200Y0243506D03*
X0115080Y0244746D03*
X0113200Y0239426D03*
X0106440Y0239426D03*
X0121920Y0236026D03*
D229*
X0052580Y0224986D03*
D230*
X0051800Y0225586D03*
X0054960Y0224986D03*
X0059080Y0230586D03*
X0059000Y0230786D03*
X0058960Y0230986D03*
X0063600Y0224986D03*
X0067640Y0230786D03*
X0069360Y0230586D03*
X0070680Y0236186D03*
X0070720Y0236386D03*
X0070800Y0236586D03*
X0070760Y0238786D03*
X0064080Y0239986D03*
X0064080Y0236986D03*
X0061880Y0243186D03*
X0059280Y0238586D03*
X0056680Y0243186D03*
X0054440Y0239786D03*
X0054440Y0237186D03*
X0050880Y0230986D03*
X0050920Y0230786D03*
X0047840Y0236386D03*
X0047760Y0238586D03*
X0047800Y0238786D03*
X0047880Y0238986D03*
X0083960Y0244186D03*
X0083920Y0245586D03*
X0086320Y0246186D03*
X0086320Y0246586D03*
X0092200Y0245786D03*
X0091760Y0240186D03*
X0097080Y0240186D03*
X0097080Y0241386D03*
X0099520Y0239786D03*
X0103320Y0239786D03*
X0106000Y0240386D03*
X0106000Y0242586D03*
X0110280Y0239986D03*
X0117120Y0242786D03*
X0121640Y0243986D03*
X0121720Y0243786D03*
X0121800Y0243586D03*
X0121880Y0243386D03*
X0121960Y0243186D03*
X0122240Y0242586D03*
X0122320Y0242386D03*
X0122400Y0242186D03*
X0122480Y0241986D03*
X0122560Y0241786D03*
X0122640Y0241586D03*
X0122720Y0241386D03*
X0122800Y0241186D03*
X0125160Y0241786D03*
X0125240Y0241986D03*
X0125320Y0242186D03*
X0125400Y0242386D03*
X0125480Y0242586D03*
X0125560Y0242786D03*
X0125640Y0242986D03*
X0125720Y0243186D03*
X0125800Y0243386D03*
X0125880Y0243586D03*
X0126040Y0243986D03*
X0123560Y0237986D03*
X0123480Y0237786D03*
X0123360Y0237586D03*
D231*
X0123460Y0237746D03*
X0123500Y0237826D03*
X0123500Y0237866D03*
X0123540Y0237946D03*
X0123580Y0238026D03*
X0123620Y0238106D03*
X0123620Y0238146D03*
X0123660Y0238226D03*
X0123700Y0238306D03*
X0123700Y0238346D03*
X0123740Y0238426D03*
X0123780Y0238466D03*
X0123780Y0238506D03*
X0123820Y0238626D03*
X0123860Y0238666D03*
X0123860Y0238706D03*
X0124660Y0240626D03*
X0124700Y0240666D03*
X0124700Y0240706D03*
X0124780Y0240866D03*
X0124780Y0240906D03*
X0124860Y0241066D03*
X0124860Y0241106D03*
X0124940Y0241266D03*
X0125020Y0241466D03*
X0125060Y0241546D03*
X0125100Y0241666D03*
X0125140Y0241746D03*
X0125180Y0241866D03*
X0125220Y0241946D03*
X0125300Y0242146D03*
X0125380Y0242346D03*
X0125420Y0242426D03*
X0125500Y0242626D03*
X0125580Y0242826D03*
X0126100Y0244106D03*
X0126100Y0244146D03*
X0122980Y0240746D03*
X0123020Y0240666D03*
X0122940Y0240866D03*
X0122900Y0240946D03*
X0122860Y0241026D03*
X0122860Y0241066D03*
X0122820Y0241146D03*
X0122780Y0241226D03*
X0122780Y0241266D03*
X0122740Y0241346D03*
X0122700Y0241426D03*
X0122660Y0241546D03*
X0122620Y0241626D03*
X0122580Y0241746D03*
X0122540Y0241826D03*
X0122500Y0241906D03*
X0122460Y0242026D03*
X0122420Y0242106D03*
X0122380Y0242226D03*
X0122340Y0242306D03*
X0122260Y0242506D03*
X0121620Y0244066D03*
X0121620Y0244106D03*
X0121620Y0244146D03*
X0117180Y0242626D03*
X0117140Y0242706D03*
X0117140Y0242746D03*
X0117220Y0242466D03*
X0117220Y0242426D03*
X0117220Y0240506D03*
X0117220Y0240466D03*
X0117180Y0240346D03*
X0117180Y0240306D03*
X0117180Y0240266D03*
X0117140Y0240226D03*
X0119420Y0239466D03*
X0121700Y0235626D03*
X0112740Y0240626D03*
X0112740Y0240666D03*
X0112740Y0240706D03*
X0112740Y0242226D03*
X0112740Y0242266D03*
X0112740Y0242306D03*
X0112740Y0242346D03*
X0110460Y0242306D03*
X0110420Y0242506D03*
X0110420Y0242546D03*
X0110380Y0242626D03*
X0110380Y0242666D03*
X0110340Y0242746D03*
X0110460Y0240626D03*
X0110420Y0240426D03*
X0110380Y0240306D03*
X0110380Y0240266D03*
X0110380Y0240226D03*
X0110340Y0240146D03*
X0105980Y0240466D03*
X0105980Y0240506D03*
X0105980Y0240546D03*
X0105980Y0242346D03*
X0105980Y0242426D03*
X0105980Y0242466D03*
X0103420Y0240026D03*
X0103380Y0239946D03*
X0103380Y0239906D03*
X0099500Y0239866D03*
X0099460Y0239946D03*
X0097140Y0240426D03*
X0097140Y0240466D03*
X0097140Y0240506D03*
X0097180Y0240626D03*
X0097180Y0240666D03*
X0097180Y0240706D03*
X0097180Y0240746D03*
X0097180Y0240826D03*
X0097180Y0240866D03*
X0097180Y0240906D03*
X0097180Y0240946D03*
X0097140Y0241106D03*
X0097140Y0241146D03*
X0097140Y0241226D03*
X0091740Y0240226D03*
X0092180Y0244946D03*
X0092180Y0245026D03*
X0092140Y0245066D03*
X0092140Y0245106D03*
X0092140Y0245146D03*
X0092140Y0245226D03*
X0092140Y0245266D03*
X0092140Y0245306D03*
X0092140Y0245346D03*
X0092140Y0245426D03*
X0092140Y0245466D03*
X0092140Y0245506D03*
X0092140Y0245546D03*
X0092180Y0245626D03*
X0092180Y0245666D03*
X0092180Y0245706D03*
X0086300Y0246066D03*
X0086300Y0246666D03*
X0086300Y0246706D03*
X0083980Y0245346D03*
X0084020Y0245226D03*
X0084020Y0245146D03*
X0084020Y0245106D03*
X0084020Y0245066D03*
X0084020Y0245026D03*
X0084020Y0244946D03*
X0084020Y0244906D03*
X0084020Y0244866D03*
X0084020Y0244826D03*
X0084020Y0244746D03*
X0084020Y0244706D03*
X0084020Y0244666D03*
X0084020Y0244626D03*
X0084020Y0244546D03*
X0084020Y0244506D03*
X0084020Y0244466D03*
X0084020Y0244426D03*
X0083980Y0244266D03*
X0083980Y0244226D03*
X0079300Y0244226D03*
X0079300Y0244266D03*
X0079300Y0244306D03*
X0079300Y0244346D03*
X0079300Y0244426D03*
X0079300Y0244466D03*
X0079300Y0244506D03*
X0079300Y0244546D03*
X0079300Y0244626D03*
X0079300Y0244666D03*
X0079300Y0244706D03*
X0079300Y0244746D03*
X0079300Y0244826D03*
X0079300Y0244866D03*
X0079300Y0244906D03*
X0079300Y0244946D03*
X0079300Y0245026D03*
X0079300Y0245066D03*
X0079300Y0245106D03*
X0079300Y0245146D03*
X0079300Y0245226D03*
X0079300Y0245266D03*
X0079300Y0245306D03*
X0079300Y0245346D03*
X0079300Y0245426D03*
X0079300Y0245466D03*
X0079300Y0245506D03*
X0079300Y0245546D03*
X0079300Y0245626D03*
X0079300Y0245666D03*
X0079300Y0245706D03*
X0079300Y0245746D03*
X0079300Y0245826D03*
X0079300Y0245866D03*
X0079300Y0245906D03*
X0079300Y0245946D03*
X0079300Y0246026D03*
X0079300Y0246066D03*
X0079300Y0246106D03*
X0079300Y0246146D03*
X0079300Y0246226D03*
X0079300Y0244146D03*
X0079300Y0244106D03*
X0079300Y0244066D03*
X0079300Y0244026D03*
X0079300Y0243946D03*
X0079300Y0243906D03*
X0079300Y0243866D03*
X0079300Y0243826D03*
X0079300Y0243746D03*
X0079300Y0243706D03*
X0079300Y0243666D03*
X0079300Y0243626D03*
X0079300Y0243546D03*
X0079300Y0243506D03*
X0079300Y0243466D03*
X0079300Y0243426D03*
X0079300Y0243346D03*
X0079300Y0241866D03*
X0079300Y0241826D03*
X0079300Y0241746D03*
X0079300Y0241706D03*
X0079300Y0241666D03*
X0079300Y0241626D03*
X0079300Y0241546D03*
X0079300Y0241506D03*
X0079300Y0241466D03*
X0079300Y0241426D03*
X0079300Y0241346D03*
X0079300Y0241306D03*
X0079300Y0241266D03*
X0079300Y0241226D03*
X0079300Y0241146D03*
X0079300Y0241106D03*
X0079300Y0241066D03*
X0079300Y0241026D03*
X0079300Y0240946D03*
X0079300Y0240906D03*
X0079300Y0240866D03*
X0079300Y0240826D03*
X0079300Y0240746D03*
X0079300Y0240706D03*
X0079300Y0240666D03*
X0079300Y0240626D03*
X0079300Y0240546D03*
X0079300Y0240506D03*
X0079300Y0240466D03*
X0079300Y0240426D03*
X0079300Y0240346D03*
X0079300Y0240306D03*
X0079300Y0240266D03*
X0079300Y0240226D03*
X0079300Y0240146D03*
X0079300Y0240106D03*
X0079300Y0240066D03*
X0079300Y0240026D03*
X0079300Y0239946D03*
X0079300Y0239906D03*
X0079300Y0239866D03*
X0079300Y0239826D03*
X0079300Y0239746D03*
X0079300Y0239706D03*
X0079300Y0239666D03*
X0079300Y0239626D03*
X0079300Y0239546D03*
X0079300Y0239506D03*
X0079300Y0239466D03*
X0079300Y0239426D03*
X0079300Y0239346D03*
X0079300Y0239306D03*
X0079300Y0239266D03*
X0079300Y0239226D03*
X0079300Y0239146D03*
X0079300Y0239106D03*
X0079300Y0239066D03*
X0079300Y0239026D03*
X0079300Y0238946D03*
X0079300Y0238906D03*
X0079300Y0238866D03*
X0079300Y0238826D03*
X0079300Y0238746D03*
X0079300Y0238706D03*
X0070900Y0238146D03*
X0070900Y0238106D03*
X0070900Y0238066D03*
X0070900Y0238026D03*
X0070900Y0237946D03*
X0070900Y0237906D03*
X0070860Y0238266D03*
X0070860Y0238306D03*
X0070860Y0238346D03*
X0070860Y0238426D03*
X0070820Y0238466D03*
X0070820Y0238506D03*
X0070820Y0238546D03*
X0070780Y0238706D03*
X0070900Y0237346D03*
X0070900Y0237306D03*
X0070900Y0237266D03*
X0070900Y0237226D03*
X0070900Y0237146D03*
X0070900Y0237106D03*
X0070860Y0236946D03*
X0070860Y0236906D03*
X0070860Y0236866D03*
X0070860Y0236826D03*
X0070820Y0236746D03*
X0070820Y0236706D03*
X0070820Y0236666D03*
X0070780Y0236546D03*
X0067820Y0231706D03*
X0067820Y0231666D03*
X0067820Y0231626D03*
X0067820Y0231546D03*
X0067820Y0231506D03*
X0067780Y0231426D03*
X0067780Y0231346D03*
X0067780Y0231306D03*
X0067780Y0231266D03*
X0067740Y0231146D03*
X0067740Y0231106D03*
X0067700Y0230946D03*
X0069420Y0230666D03*
X0069460Y0230706D03*
X0069500Y0230746D03*
X0063780Y0226746D03*
X0063780Y0226706D03*
X0063780Y0226666D03*
X0063780Y0226626D03*
X0063780Y0226546D03*
X0063780Y0225946D03*
X0063780Y0225906D03*
X0063780Y0225866D03*
X0063780Y0225826D03*
X0063780Y0225746D03*
X0063740Y0225626D03*
X0063740Y0225546D03*
X0063740Y0225506D03*
X0063740Y0225466D03*
X0063700Y0225346D03*
X0063700Y0225306D03*
X0063660Y0225146D03*
X0058980Y0230906D03*
X0058940Y0231026D03*
X0058940Y0231066D03*
X0058940Y0231106D03*
X0058900Y0231226D03*
X0058900Y0231266D03*
X0058900Y0231306D03*
X0058860Y0231426D03*
X0058860Y0231466D03*
X0058860Y0231506D03*
X0058860Y0231546D03*
X0058820Y0231826D03*
X0058820Y0231866D03*
X0058820Y0231906D03*
X0058820Y0231946D03*
X0058820Y0232026D03*
X0058820Y0232066D03*
X0058820Y0232106D03*
X0058820Y0232146D03*
X0058820Y0232226D03*
X0058820Y0232266D03*
X0058820Y0232306D03*
X0058820Y0232346D03*
X0058860Y0232626D03*
X0058860Y0232666D03*
X0059300Y0238546D03*
X0064220Y0239346D03*
X0064260Y0239306D03*
X0064260Y0239266D03*
X0064260Y0239226D03*
X0064260Y0239146D03*
X0064260Y0239106D03*
X0064300Y0238946D03*
X0064300Y0238906D03*
X0064300Y0238866D03*
X0064300Y0238826D03*
X0064300Y0238746D03*
X0064300Y0238706D03*
X0064300Y0238266D03*
X0064300Y0238226D03*
X0064300Y0238146D03*
X0064300Y0238106D03*
X0064300Y0238066D03*
X0064300Y0238026D03*
X0064260Y0237866D03*
X0064260Y0237826D03*
X0064260Y0237746D03*
X0064260Y0237706D03*
X0064260Y0237666D03*
X0064220Y0237626D03*
X0064220Y0237546D03*
X0064220Y0237506D03*
X0064220Y0237466D03*
X0064180Y0237346D03*
X0064220Y0239426D03*
X0064220Y0239466D03*
X0064220Y0239506D03*
X0064180Y0239626D03*
X0054460Y0239866D03*
X0054420Y0239746D03*
X0054420Y0239706D03*
X0054380Y0239546D03*
X0054380Y0239506D03*
X0054340Y0239426D03*
X0054340Y0239346D03*
X0054340Y0239306D03*
X0054340Y0239266D03*
X0054300Y0239146D03*
X0054300Y0239106D03*
X0054300Y0239066D03*
X0054300Y0239026D03*
X0054260Y0238706D03*
X0054260Y0238666D03*
X0054260Y0238626D03*
X0054260Y0238546D03*
X0054260Y0238506D03*
X0054260Y0238466D03*
X0054260Y0238426D03*
X0054260Y0238346D03*
X0054260Y0238306D03*
X0054260Y0238266D03*
X0054300Y0237946D03*
X0054300Y0237906D03*
X0054300Y0237866D03*
X0054300Y0237826D03*
X0054340Y0237706D03*
X0054340Y0237666D03*
X0054340Y0237626D03*
X0054340Y0237546D03*
X0054380Y0237466D03*
X0054380Y0237426D03*
X0054420Y0237266D03*
X0054460Y0237106D03*
X0050740Y0232346D03*
X0050740Y0232306D03*
X0050740Y0232266D03*
X0050740Y0232226D03*
X0050740Y0232146D03*
X0050740Y0232026D03*
X0050740Y0231946D03*
X0050740Y0231906D03*
X0050740Y0231866D03*
X0050740Y0231826D03*
X0050740Y0231746D03*
X0050740Y0231706D03*
X0050740Y0231666D03*
X0050780Y0231506D03*
X0050780Y0231466D03*
X0050780Y0231426D03*
X0050780Y0231346D03*
X0050780Y0231306D03*
X0050820Y0231266D03*
X0050820Y0231226D03*
X0050820Y0231146D03*
X0050860Y0231066D03*
X0050860Y0231026D03*
X0049100Y0230706D03*
X0047780Y0236626D03*
X0047740Y0236706D03*
X0047740Y0236746D03*
X0047740Y0236826D03*
X0047740Y0236866D03*
X0047700Y0236906D03*
X0047700Y0236946D03*
X0047700Y0237026D03*
X0047700Y0237066D03*
X0047700Y0237106D03*
X0047660Y0237306D03*
X0047660Y0237346D03*
X0047660Y0237426D03*
X0047660Y0237466D03*
X0047660Y0237506D03*
X0047660Y0237546D03*
X0047660Y0237626D03*
X0047660Y0237666D03*
X0047660Y0237706D03*
X0047660Y0237746D03*
X0047660Y0237826D03*
X0047660Y0237866D03*
X0047660Y0237906D03*
X0047660Y0237946D03*
X0047700Y0238146D03*
X0047700Y0238226D03*
X0047700Y0238266D03*
X0047700Y0238306D03*
X0047700Y0238346D03*
X0047740Y0238426D03*
X0047740Y0238466D03*
X0047740Y0238506D03*
X0047740Y0238546D03*
X0047780Y0238626D03*
X0047780Y0238666D03*
X0054780Y0226546D03*
X0054780Y0226506D03*
X0054780Y0226466D03*
X0054780Y0226426D03*
X0054780Y0226346D03*
X0054780Y0226306D03*
X0054780Y0226266D03*
X0054780Y0226226D03*
X0054780Y0226146D03*
X0054780Y0226106D03*
X0054780Y0226066D03*
X0054780Y0226026D03*
X0054780Y0225946D03*
X0054780Y0225906D03*
X0054820Y0225706D03*
X0054820Y0225666D03*
X0054820Y0225626D03*
X0054820Y0225546D03*
X0054860Y0225466D03*
X0054860Y0225426D03*
X0054860Y0225346D03*
X0054900Y0225266D03*
X0054900Y0225226D03*
X0054940Y0225066D03*
X0051660Y0225746D03*
X0051580Y0225826D03*
D232*
X0052320Y0225146D03*
X0059280Y0229946D03*
X0055320Y0235466D03*
X0055280Y0235506D03*
X0048520Y0235026D03*
X0048520Y0240226D03*
X0063720Y0240946D03*
X0063320Y0235546D03*
X0063280Y0235506D03*
X0070080Y0235066D03*
X0092480Y0246226D03*
X0103120Y0239506D03*
X0109920Y0239506D03*
X0112920Y0239826D03*
X0112920Y0243106D03*
D233*
X0122940Y0236986D03*
X0083660Y0243586D03*
X0061980Y0242986D03*
X0055220Y0235586D03*
X0059300Y0229986D03*
X0052260Y0225186D03*
X0048500Y0240186D03*
D234*
X0047740Y0238386D03*
X0047700Y0238186D03*
X0047660Y0237786D03*
X0047660Y0237586D03*
X0047660Y0237386D03*
X0047700Y0236986D03*
X0047740Y0236786D03*
X0047780Y0236586D03*
X0050740Y0232186D03*
X0050740Y0231986D03*
X0050740Y0231786D03*
X0050780Y0231386D03*
X0050820Y0231186D03*
X0054820Y0226786D03*
X0054780Y0226586D03*
X0054780Y0226386D03*
X0054780Y0226186D03*
X0054780Y0225986D03*
X0054820Y0225586D03*
X0054860Y0225386D03*
X0054900Y0225186D03*
X0051620Y0225786D03*
X0058900Y0231186D03*
X0058860Y0231386D03*
X0058860Y0231586D03*
X0058820Y0231786D03*
X0058820Y0231986D03*
X0058820Y0232186D03*
X0058860Y0232586D03*
X0054380Y0237386D03*
X0054340Y0237586D03*
X0054300Y0237786D03*
X0054260Y0238386D03*
X0054260Y0238586D03*
X0054300Y0239186D03*
X0054340Y0239386D03*
X0054380Y0239586D03*
X0059300Y0247186D03*
X0064140Y0239786D03*
X0064180Y0239586D03*
X0064220Y0239386D03*
X0064260Y0239186D03*
X0064300Y0238786D03*
X0064300Y0238186D03*
X0064260Y0237786D03*
X0064220Y0237586D03*
X0064180Y0237386D03*
X0064140Y0237186D03*
X0067820Y0231586D03*
X0067780Y0231386D03*
X0067740Y0231186D03*
X0067700Y0230986D03*
X0070820Y0236786D03*
X0070860Y0236986D03*
X0070900Y0237186D03*
X0070900Y0237986D03*
X0070860Y0238386D03*
X0070820Y0238586D03*
X0079300Y0238786D03*
X0079300Y0238986D03*
X0079300Y0239186D03*
X0079300Y0239386D03*
X0079300Y0239586D03*
X0079300Y0239786D03*
X0079300Y0239986D03*
X0079300Y0240186D03*
X0079300Y0240386D03*
X0079300Y0240586D03*
X0079300Y0240786D03*
X0079300Y0240986D03*
X0079300Y0241186D03*
X0079300Y0241386D03*
X0079300Y0241586D03*
X0079300Y0241786D03*
X0079300Y0243386D03*
X0079300Y0243586D03*
X0079300Y0243786D03*
X0079300Y0243986D03*
X0079300Y0244186D03*
X0079300Y0244386D03*
X0079300Y0244586D03*
X0079300Y0244786D03*
X0079300Y0244986D03*
X0079300Y0245186D03*
X0079300Y0245386D03*
X0079300Y0245586D03*
X0079300Y0245786D03*
X0079300Y0245986D03*
X0079300Y0246186D03*
X0083980Y0245386D03*
X0084020Y0245186D03*
X0084020Y0244986D03*
X0084020Y0244786D03*
X0084020Y0244586D03*
X0084020Y0244386D03*
X0092140Y0245186D03*
X0092140Y0245386D03*
X0092140Y0245586D03*
X0092180Y0244986D03*
X0096980Y0245786D03*
X0097140Y0241186D03*
X0097180Y0240986D03*
X0097180Y0240786D03*
X0097140Y0240386D03*
X0099460Y0239986D03*
X0105980Y0240586D03*
X0105980Y0242386D03*
X0110340Y0242786D03*
X0110420Y0240386D03*
X0110340Y0240186D03*
X0112740Y0240586D03*
X0112740Y0242386D03*
X0117180Y0242586D03*
X0117140Y0240186D03*
X0122140Y0242786D03*
X0122060Y0242986D03*
X0122900Y0240986D03*
X0122980Y0240786D03*
X0123060Y0240586D03*
X0124660Y0240586D03*
X0124740Y0240786D03*
X0124820Y0240986D03*
X0124900Y0241186D03*
X0124980Y0241386D03*
X0125060Y0241586D03*
X0126100Y0244186D03*
X0123820Y0238586D03*
X0123740Y0238386D03*
X0123660Y0238186D03*
X0063780Y0226786D03*
X0063780Y0226586D03*
X0063780Y0225786D03*
X0063740Y0225586D03*
X0063700Y0225386D03*
X0063660Y0225186D03*
D235*
X0066320Y0225186D03*
X0070080Y0240186D03*
D236*
X0070100Y0240146D03*
X0070140Y0240106D03*
X0070140Y0235146D03*
X0070100Y0235106D03*
X0066420Y0242826D03*
X0063420Y0235666D03*
X0063380Y0235626D03*
X0066380Y0225226D03*
X0055180Y0235626D03*
X0055180Y0235666D03*
X0055140Y0235706D03*
X0054860Y0240946D03*
X0052180Y0242826D03*
X0048460Y0240146D03*
X0048460Y0235106D03*
X0048500Y0235066D03*
X0052220Y0225226D03*
X0083660Y0246026D03*
X0092420Y0244506D03*
X0091900Y0239906D03*
X0106140Y0239866D03*
X0106140Y0239826D03*
X0106140Y0243066D03*
X0106140Y0243106D03*
X0112900Y0243066D03*
X0112900Y0239906D03*
X0112900Y0239866D03*
X0116780Y0243346D03*
X0120060Y0238466D03*
X0123860Y0239026D03*
X0123860Y0239066D03*
D237*
X0121760Y0235706D03*
X0120080Y0238426D03*
X0116840Y0243306D03*
X0112880Y0243026D03*
X0110040Y0243306D03*
X0110040Y0239626D03*
X0112880Y0239946D03*
X0106120Y0239906D03*
X0106120Y0243026D03*
X0103160Y0239546D03*
X0096840Y0239746D03*
X0096880Y0241746D03*
X0096840Y0246026D03*
X0091880Y0239946D03*
X0083720Y0243626D03*
X0070160Y0240066D03*
X0063520Y0235826D03*
X0063480Y0235746D03*
X0063440Y0235706D03*
X0059280Y0230026D03*
X0055120Y0235746D03*
X0055040Y0235826D03*
X0054880Y0240906D03*
X0048440Y0240106D03*
X0048360Y0235266D03*
X0048440Y0235146D03*
X0052160Y0225266D03*
X0061960Y0243026D03*
D238*
X0061940Y0243066D03*
X0063700Y0240906D03*
X0063580Y0235906D03*
X0063540Y0235866D03*
X0070220Y0235266D03*
X0070260Y0235306D03*
X0070260Y0235346D03*
X0070300Y0239866D03*
X0070260Y0239906D03*
X0070260Y0239946D03*
X0066460Y0225306D03*
X0066420Y0225266D03*
X0055020Y0235866D03*
X0054980Y0235946D03*
X0048380Y0235226D03*
X0048340Y0235306D03*
X0048300Y0235346D03*
X0048260Y0235426D03*
X0048300Y0239906D03*
X0048340Y0239946D03*
X0048380Y0240026D03*
X0056620Y0243066D03*
X0052060Y0225346D03*
X0052100Y0225306D03*
X0083740Y0243666D03*
X0083740Y0245946D03*
X0092380Y0246106D03*
X0092420Y0246146D03*
X0092340Y0244626D03*
X0094500Y0247826D03*
X0096900Y0241706D03*
X0096940Y0241666D03*
X0096900Y0239826D03*
X0099700Y0239546D03*
X0101420Y0238026D03*
X0106100Y0239946D03*
X0108260Y0238066D03*
X0106100Y0242946D03*
X0108260Y0244866D03*
X0112860Y0242946D03*
X0112860Y0242906D03*
X0112860Y0240026D03*
X0115060Y0238066D03*
X0116820Y0239626D03*
X0116860Y0239666D03*
X0119580Y0239426D03*
X0116860Y0243266D03*
X0115060Y0244866D03*
X0123860Y0238946D03*
X0123020Y0237066D03*
D239*
X0123080Y0237106D03*
X0123840Y0238906D03*
X0116880Y0239706D03*
X0116880Y0243226D03*
X0112840Y0242866D03*
X0112840Y0242826D03*
X0112840Y0240106D03*
X0112840Y0240066D03*
X0110120Y0239706D03*
X0110080Y0239666D03*
X0110120Y0243226D03*
X0110080Y0243266D03*
X0106080Y0242906D03*
X0106080Y0240026D03*
X0103240Y0239626D03*
X0096960Y0239906D03*
X0096920Y0239866D03*
X0096960Y0241626D03*
X0096880Y0245946D03*
X0092360Y0246066D03*
X0092320Y0244666D03*
X0091840Y0240026D03*
X0083800Y0243746D03*
X0083760Y0243706D03*
X0083800Y0245866D03*
X0083760Y0245906D03*
X0070400Y0239706D03*
X0070360Y0239746D03*
X0070320Y0239826D03*
X0070400Y0235546D03*
X0070360Y0235506D03*
X0070360Y0235466D03*
X0070320Y0235426D03*
X0063760Y0236226D03*
X0063720Y0236146D03*
X0063680Y0236106D03*
X0063680Y0236066D03*
X0063640Y0236026D03*
X0063600Y0235946D03*
X0063760Y0240746D03*
X0063720Y0240826D03*
X0063680Y0240866D03*
X0059280Y0230106D03*
X0059280Y0230066D03*
X0054920Y0226826D03*
X0054920Y0236026D03*
X0054920Y0236066D03*
X0054880Y0236106D03*
X0054880Y0240866D03*
X0048280Y0239866D03*
X0048240Y0239826D03*
X0048200Y0239746D03*
X0048160Y0239666D03*
X0048200Y0235506D03*
X0048240Y0235466D03*
X0063640Y0226826D03*
X0066520Y0225346D03*
D240*
X0066560Y0225386D03*
X0070360Y0239786D03*
X0054840Y0240786D03*
X0054840Y0236186D03*
X0048280Y0235386D03*
X0048160Y0235586D03*
X0048240Y0239786D03*
X0052000Y0225386D03*
X0103200Y0239586D03*
X0116920Y0243186D03*
X0120080Y0238386D03*
D241*
X0112820Y0240146D03*
X0112820Y0242746D03*
X0110180Y0243106D03*
X0099620Y0239626D03*
X0096980Y0239946D03*
X0097020Y0241546D03*
X0091820Y0240066D03*
X0083820Y0245826D03*
X0070420Y0239666D03*
X0070420Y0239626D03*
X0070420Y0235626D03*
X0063820Y0236346D03*
X0063780Y0236266D03*
X0063820Y0240626D03*
X0063780Y0240706D03*
X0054820Y0240746D03*
X0054780Y0240706D03*
X0054780Y0240666D03*
X0054780Y0236306D03*
X0054780Y0236266D03*
X0054820Y0236226D03*
X0048180Y0235546D03*
X0048180Y0239706D03*
X0051980Y0225426D03*
X0066620Y0225426D03*
D242*
X0066680Y0225506D03*
X0069240Y0230466D03*
X0069280Y0230506D03*
X0070520Y0235826D03*
X0070560Y0235866D03*
X0070560Y0235906D03*
X0070600Y0239266D03*
X0070560Y0239346D03*
X0070520Y0239426D03*
X0070520Y0239466D03*
X0070480Y0239546D03*
X0063960Y0240306D03*
X0063920Y0240426D03*
X0063880Y0240466D03*
X0063880Y0240506D03*
X0063800Y0240666D03*
X0063960Y0236666D03*
X0063920Y0236546D03*
X0063880Y0236506D03*
X0063880Y0236466D03*
X0063800Y0236306D03*
X0059280Y0238706D03*
X0059280Y0238746D03*
X0059280Y0238826D03*
X0054760Y0240626D03*
X0054720Y0240546D03*
X0054680Y0240506D03*
X0054680Y0240466D03*
X0054600Y0236706D03*
X0054680Y0236506D03*
X0054720Y0236426D03*
X0054760Y0236346D03*
X0059200Y0230306D03*
X0059200Y0230266D03*
X0059240Y0230226D03*
X0051920Y0225466D03*
X0051880Y0225506D03*
X0051840Y0225546D03*
X0048080Y0235746D03*
X0048040Y0235826D03*
X0048040Y0235866D03*
X0048000Y0235906D03*
X0048000Y0235946D03*
X0047960Y0236026D03*
X0047960Y0239226D03*
X0048000Y0239306D03*
X0048000Y0239346D03*
X0048040Y0239426D03*
X0048080Y0239506D03*
X0059280Y0246906D03*
X0059280Y0246946D03*
X0059280Y0247026D03*
X0083880Y0245706D03*
X0083880Y0243906D03*
X0083840Y0243826D03*
X0092280Y0244746D03*
X0092280Y0245946D03*
X0091800Y0240106D03*
X0097040Y0240066D03*
X0097040Y0241466D03*
X0097040Y0241506D03*
X0099560Y0239706D03*
X0099600Y0239666D03*
X0103280Y0239706D03*
X0106040Y0240146D03*
X0106040Y0240226D03*
X0106040Y0242706D03*
X0106040Y0242746D03*
X0110160Y0243146D03*
X0110200Y0243066D03*
X0110240Y0243026D03*
X0112800Y0242706D03*
X0112800Y0242666D03*
X0112800Y0240266D03*
X0112800Y0240226D03*
X0110200Y0239866D03*
X0110200Y0239826D03*
X0116960Y0239826D03*
X0117000Y0239866D03*
X0117000Y0243066D03*
X0116960Y0243106D03*
X0123240Y0237346D03*
X0123200Y0237266D03*
X0123160Y0237226D03*
D243*
X0123100Y0237146D03*
X0123860Y0238826D03*
X0123860Y0238866D03*
X0121740Y0235666D03*
X0120100Y0238346D03*
X0116940Y0239746D03*
X0116940Y0243146D03*
X0110140Y0239746D03*
X0106060Y0240066D03*
X0106060Y0240106D03*
X0106060Y0242826D03*
X0106060Y0242866D03*
X0103260Y0239666D03*
X0096900Y0245906D03*
X0092340Y0246026D03*
X0092300Y0244706D03*
X0083860Y0243866D03*
X0083860Y0245746D03*
X0070500Y0239506D03*
X0070500Y0235746D03*
X0070460Y0235706D03*
X0070460Y0235666D03*
X0063860Y0236426D03*
X0063860Y0240546D03*
X0061940Y0243106D03*
X0059300Y0243106D03*
X0059300Y0243146D03*
X0059300Y0243226D03*
X0059300Y0243266D03*
X0059300Y0243306D03*
X0059300Y0243346D03*
X0059300Y0243426D03*
X0059300Y0243466D03*
X0059300Y0243506D03*
X0059300Y0243546D03*
X0059300Y0243626D03*
X0059300Y0243666D03*
X0059300Y0243706D03*
X0059300Y0243746D03*
X0059300Y0243826D03*
X0059300Y0243866D03*
X0059300Y0243906D03*
X0059300Y0243946D03*
X0059300Y0244026D03*
X0059300Y0244066D03*
X0059300Y0244106D03*
X0059300Y0244146D03*
X0059300Y0244226D03*
X0059300Y0244266D03*
X0059300Y0244306D03*
X0059300Y0244346D03*
X0059300Y0244426D03*
X0059300Y0244466D03*
X0059300Y0244506D03*
X0059300Y0244546D03*
X0059300Y0244626D03*
X0059300Y0244666D03*
X0059300Y0244706D03*
X0059300Y0244746D03*
X0059300Y0244826D03*
X0059300Y0244866D03*
X0059300Y0244906D03*
X0059300Y0244946D03*
X0059300Y0245026D03*
X0059300Y0245066D03*
X0059300Y0245106D03*
X0059300Y0245146D03*
X0059300Y0245226D03*
X0059300Y0245266D03*
X0059300Y0245306D03*
X0059300Y0245346D03*
X0059300Y0245426D03*
X0059300Y0245466D03*
X0059300Y0245506D03*
X0059300Y0245546D03*
X0059300Y0245626D03*
X0059300Y0245666D03*
X0059300Y0245706D03*
X0059300Y0245746D03*
X0059300Y0245826D03*
X0059300Y0245866D03*
X0059300Y0245906D03*
X0059300Y0245946D03*
X0059300Y0246026D03*
X0059300Y0246066D03*
X0059300Y0246106D03*
X0059300Y0246146D03*
X0059300Y0246226D03*
X0059300Y0246266D03*
X0059300Y0246306D03*
X0059300Y0246346D03*
X0059300Y0246426D03*
X0059300Y0246466D03*
X0059300Y0246506D03*
X0059300Y0246546D03*
X0059300Y0246626D03*
X0059300Y0246666D03*
X0059300Y0246706D03*
X0059300Y0246746D03*
X0059300Y0246826D03*
X0059300Y0246866D03*
X0059300Y0243066D03*
X0059300Y0243026D03*
X0059300Y0242946D03*
X0059300Y0242906D03*
X0059300Y0242866D03*
X0059300Y0242826D03*
X0059300Y0242746D03*
X0059300Y0242706D03*
X0059300Y0242666D03*
X0059300Y0242626D03*
X0059300Y0242546D03*
X0059300Y0242506D03*
X0059300Y0242466D03*
X0059300Y0242426D03*
X0059300Y0242346D03*
X0059300Y0242306D03*
X0059300Y0242266D03*
X0059300Y0242226D03*
X0059300Y0242146D03*
X0059300Y0242106D03*
X0059300Y0242066D03*
X0059300Y0242026D03*
X0059300Y0241946D03*
X0059300Y0241906D03*
X0059300Y0241866D03*
X0059300Y0241826D03*
X0059300Y0241746D03*
X0059300Y0241706D03*
X0059300Y0241666D03*
X0059300Y0241626D03*
X0059300Y0241546D03*
X0059300Y0241506D03*
X0059300Y0241466D03*
X0059300Y0241426D03*
X0059300Y0241346D03*
X0059300Y0241306D03*
X0059300Y0241266D03*
X0059300Y0241226D03*
X0059300Y0241146D03*
X0059300Y0241106D03*
X0059300Y0241066D03*
X0059300Y0241026D03*
X0059300Y0240946D03*
X0059300Y0240906D03*
X0059300Y0240866D03*
X0059300Y0240826D03*
X0059300Y0240746D03*
X0059300Y0240706D03*
X0059300Y0240666D03*
X0059300Y0240626D03*
X0059300Y0240546D03*
X0059300Y0240506D03*
X0059300Y0240466D03*
X0059300Y0240426D03*
X0059300Y0240346D03*
X0059300Y0240306D03*
X0059300Y0240266D03*
X0059300Y0240226D03*
X0059300Y0240146D03*
X0059300Y0240106D03*
X0059300Y0240066D03*
X0059300Y0240026D03*
X0059300Y0239946D03*
X0059300Y0239906D03*
X0059300Y0239866D03*
X0059300Y0239826D03*
X0059300Y0239746D03*
X0059300Y0239706D03*
X0059300Y0239666D03*
X0059300Y0239626D03*
X0059300Y0239546D03*
X0059300Y0239506D03*
X0059300Y0239466D03*
X0059300Y0239426D03*
X0059300Y0239346D03*
X0059300Y0239306D03*
X0059300Y0239266D03*
X0059300Y0239226D03*
X0059300Y0239146D03*
X0059300Y0239106D03*
X0059300Y0239066D03*
X0059300Y0239026D03*
X0059300Y0238946D03*
X0059300Y0238906D03*
X0059300Y0238866D03*
X0056660Y0243106D03*
X0054860Y0240826D03*
X0054700Y0236466D03*
X0054860Y0236146D03*
X0059260Y0230146D03*
X0066660Y0225466D03*
X0048140Y0235626D03*
X0048140Y0235666D03*
X0048100Y0235706D03*
X0048060Y0239466D03*
X0048100Y0239546D03*
X0048140Y0239626D03*
D244*
X0050760Y0231626D03*
X0050760Y0231546D03*
X0049000Y0230826D03*
X0051560Y0225866D03*
X0054800Y0225866D03*
X0054800Y0225826D03*
X0054800Y0225746D03*
X0054840Y0225506D03*
X0054800Y0226626D03*
X0054800Y0226666D03*
X0054800Y0226706D03*
X0054800Y0226746D03*
X0058840Y0231626D03*
X0058840Y0231666D03*
X0058840Y0231706D03*
X0058840Y0231746D03*
X0058840Y0232426D03*
X0058840Y0232466D03*
X0058840Y0232506D03*
X0058840Y0232546D03*
X0063800Y0226506D03*
X0063800Y0226466D03*
X0063800Y0226426D03*
X0063800Y0226346D03*
X0063800Y0226306D03*
X0063800Y0226266D03*
X0063800Y0226226D03*
X0063800Y0226146D03*
X0063800Y0226106D03*
X0063800Y0226066D03*
X0063800Y0226026D03*
X0063760Y0225706D03*
X0063760Y0225666D03*
X0067000Y0225826D03*
X0067040Y0225866D03*
X0069560Y0230826D03*
X0069600Y0230866D03*
X0067800Y0231466D03*
X0067840Y0231746D03*
X0067840Y0231826D03*
X0067840Y0231866D03*
X0067840Y0231906D03*
X0067840Y0231946D03*
X0067840Y0232026D03*
X0067840Y0232066D03*
X0067840Y0232106D03*
X0067840Y0232146D03*
X0067840Y0232226D03*
X0067840Y0232266D03*
X0067840Y0232306D03*
X0067840Y0232346D03*
X0097160Y0240546D03*
X0097160Y0241026D03*
X0097160Y0241066D03*
X0099400Y0240306D03*
X0099400Y0240266D03*
X0099400Y0240226D03*
X0099440Y0240106D03*
X0099440Y0240066D03*
X0099440Y0240026D03*
X0103440Y0240066D03*
X0103440Y0240106D03*
X0103440Y0240146D03*
X0103440Y0240226D03*
X0105960Y0240626D03*
X0105960Y0240666D03*
X0105960Y0240706D03*
X0105960Y0240746D03*
X0105960Y0242146D03*
X0105960Y0242226D03*
X0105960Y0242266D03*
X0105960Y0242306D03*
X0110440Y0242346D03*
X0110440Y0242426D03*
X0110440Y0242466D03*
X0110440Y0240546D03*
X0110440Y0240506D03*
X0110440Y0240466D03*
X0110400Y0240346D03*
X0115040Y0238026D03*
X0117200Y0240426D03*
X0117240Y0240546D03*
X0117240Y0240626D03*
X0117240Y0240666D03*
X0117240Y0242266D03*
X0117240Y0242306D03*
X0117240Y0242346D03*
X0117200Y0242506D03*
X0117200Y0242546D03*
X0115040Y0244906D03*
X0119400Y0239546D03*
X0119400Y0239506D03*
X0121600Y0244226D03*
X0097000Y0245746D03*
D245*
X0110260Y0242986D03*
X0112780Y0242586D03*
X0112780Y0240386D03*
X0117060Y0239986D03*
X0117020Y0242986D03*
X0123860Y0238786D03*
X0123260Y0237386D03*
X0125980Y0243786D03*
X0070620Y0239186D03*
X0067580Y0230586D03*
X0066780Y0225586D03*
X0064020Y0236786D03*
X0064020Y0240186D03*
X0054580Y0240186D03*
X0054580Y0236786D03*
X0050980Y0230586D03*
X0049220Y0230586D03*
X0047980Y0235986D03*
X0047940Y0239186D03*
D246*
X0050760Y0231586D03*
X0049040Y0230786D03*
X0054800Y0225786D03*
X0058840Y0232386D03*
X0063800Y0226386D03*
X0063800Y0226186D03*
X0063800Y0225986D03*
X0066960Y0225786D03*
X0067840Y0231786D03*
X0067840Y0231986D03*
X0067840Y0232186D03*
X0097160Y0240586D03*
X0099400Y0240186D03*
X0103400Y0239986D03*
X0103440Y0240186D03*
X0105960Y0240786D03*
X0105960Y0242186D03*
X0110400Y0242586D03*
X0110440Y0242386D03*
X0110440Y0240586D03*
X0117200Y0240386D03*
X0117240Y0240586D03*
X0117240Y0242386D03*
X0119400Y0239586D03*
X0121600Y0244186D03*
D247*
X0126120Y0244226D03*
X0126120Y0244266D03*
X0120120Y0238266D03*
X0117280Y0240746D03*
X0117280Y0240826D03*
X0117280Y0240866D03*
X0117280Y0240906D03*
X0117280Y0240946D03*
X0117320Y0241266D03*
X0117320Y0241306D03*
X0117320Y0241346D03*
X0117320Y0241426D03*
X0117320Y0241466D03*
X0117320Y0241506D03*
X0117320Y0241546D03*
X0117320Y0241626D03*
X0117320Y0241666D03*
X0117280Y0242026D03*
X0117280Y0242066D03*
X0117280Y0242106D03*
X0117280Y0242146D03*
X0112720Y0242146D03*
X0112720Y0242106D03*
X0112720Y0242066D03*
X0112720Y0242026D03*
X0112720Y0241946D03*
X0112720Y0240946D03*
X0112720Y0240906D03*
X0112720Y0240866D03*
X0112720Y0240826D03*
X0112720Y0240746D03*
X0110520Y0241026D03*
X0110520Y0241066D03*
X0110520Y0241106D03*
X0110520Y0241146D03*
X0110520Y0241226D03*
X0110520Y0241266D03*
X0110520Y0241306D03*
X0110520Y0241346D03*
X0110520Y0241426D03*
X0110520Y0241466D03*
X0110520Y0241506D03*
X0110520Y0241546D03*
X0110520Y0241626D03*
X0110520Y0241666D03*
X0110520Y0241706D03*
X0110520Y0241746D03*
X0110520Y0241826D03*
X0110520Y0241866D03*
X0110520Y0241906D03*
X0110520Y0241946D03*
X0110480Y0242106D03*
X0110480Y0242146D03*
X0110480Y0242226D03*
X0110480Y0242266D03*
X0110480Y0240826D03*
X0110480Y0240746D03*
X0110480Y0240706D03*
X0110480Y0240666D03*
X0112720Y0238346D03*
X0112720Y0238306D03*
X0112720Y0238266D03*
X0112720Y0238226D03*
X0112720Y0238146D03*
X0112720Y0238106D03*
X0112720Y0238066D03*
X0112720Y0238026D03*
X0112720Y0237946D03*
X0112720Y0237906D03*
X0112720Y0237866D03*
X0112720Y0237826D03*
X0112720Y0237746D03*
X0112720Y0237706D03*
X0112720Y0237666D03*
X0112720Y0237626D03*
X0112720Y0237546D03*
X0112720Y0237506D03*
X0112720Y0237466D03*
X0112720Y0237426D03*
X0112720Y0237346D03*
X0112720Y0237306D03*
X0112720Y0237266D03*
X0112720Y0237226D03*
X0112720Y0237146D03*
X0112720Y0237106D03*
X0112720Y0237066D03*
X0112720Y0237026D03*
X0112720Y0236946D03*
X0112720Y0236906D03*
X0112720Y0236866D03*
X0112720Y0236826D03*
X0112720Y0236746D03*
X0112720Y0236706D03*
X0112720Y0236666D03*
X0112720Y0236626D03*
X0112720Y0236546D03*
X0112720Y0236506D03*
X0112720Y0236466D03*
X0112720Y0236426D03*
X0112720Y0236346D03*
X0112720Y0236306D03*
X0112720Y0236266D03*
X0112720Y0236226D03*
X0112720Y0236146D03*
X0103480Y0240466D03*
X0103480Y0240506D03*
X0103480Y0240546D03*
X0103480Y0240626D03*
X0103480Y0240666D03*
X0103480Y0240706D03*
X0103480Y0240746D03*
X0103480Y0240826D03*
X0103480Y0240866D03*
X0103480Y0240906D03*
X0103480Y0240946D03*
X0103480Y0241026D03*
X0103480Y0241066D03*
X0103480Y0241106D03*
X0103480Y0241146D03*
X0103480Y0241226D03*
X0103480Y0241266D03*
X0103480Y0241306D03*
X0103480Y0241346D03*
X0103480Y0241426D03*
X0103480Y0241466D03*
X0103480Y0241506D03*
X0103480Y0241546D03*
X0103480Y0241626D03*
X0103480Y0241666D03*
X0103480Y0241706D03*
X0103480Y0241746D03*
X0103480Y0241826D03*
X0103480Y0241866D03*
X0103480Y0241906D03*
X0103480Y0241946D03*
X0103480Y0242026D03*
X0103480Y0242066D03*
X0103480Y0242106D03*
X0103480Y0242146D03*
X0103480Y0242226D03*
X0103480Y0242266D03*
X0103480Y0242306D03*
X0103480Y0242346D03*
X0103480Y0242426D03*
X0103480Y0242466D03*
X0103480Y0242506D03*
X0103480Y0242546D03*
X0103480Y0242626D03*
X0103480Y0242666D03*
X0103480Y0242706D03*
X0103480Y0242746D03*
X0103480Y0242826D03*
X0103480Y0242866D03*
X0103480Y0242906D03*
X0103480Y0242946D03*
X0103480Y0243026D03*
X0103480Y0243066D03*
X0103480Y0243106D03*
X0103480Y0243146D03*
X0103480Y0243226D03*
X0103480Y0243266D03*
X0103480Y0243306D03*
X0103480Y0243346D03*
X0103480Y0243426D03*
X0103480Y0243466D03*
X0103480Y0243506D03*
X0103480Y0243546D03*
X0103480Y0243626D03*
X0103480Y0243666D03*
X0103480Y0243706D03*
X0103480Y0243746D03*
X0103480Y0243826D03*
X0103480Y0243866D03*
X0103480Y0243906D03*
X0103480Y0243946D03*
X0103480Y0244026D03*
X0103480Y0244066D03*
X0103480Y0244106D03*
X0103480Y0244146D03*
X0091720Y0240306D03*
X0091720Y0240266D03*
X0086320Y0246026D03*
X0086320Y0246746D03*
X0079280Y0238666D03*
X0070920Y0237866D03*
X0070920Y0237826D03*
X0070920Y0237746D03*
X0070920Y0237706D03*
X0070920Y0237666D03*
X0070920Y0237626D03*
X0070920Y0237546D03*
X0070920Y0237506D03*
X0070920Y0237466D03*
X0070920Y0237426D03*
X0070880Y0237066D03*
X0070880Y0237026D03*
X0070880Y0238226D03*
X0064320Y0238306D03*
X0064320Y0238346D03*
X0064320Y0238426D03*
X0064320Y0238466D03*
X0064320Y0238506D03*
X0064320Y0238546D03*
X0064320Y0238626D03*
X0064320Y0238666D03*
X0064280Y0239026D03*
X0064280Y0239066D03*
X0064280Y0237946D03*
X0064280Y0237906D03*
X0061880Y0243226D03*
X0059280Y0247226D03*
X0059280Y0238506D03*
X0054280Y0238746D03*
X0054280Y0238826D03*
X0054280Y0238866D03*
X0054280Y0238906D03*
X0054280Y0238946D03*
X0054320Y0239226D03*
X0054280Y0238226D03*
X0054280Y0238146D03*
X0054280Y0238106D03*
X0054280Y0238066D03*
X0054280Y0238026D03*
X0054320Y0237746D03*
X0050720Y0232106D03*
X0050720Y0232066D03*
X0049080Y0230746D03*
X0051480Y0225946D03*
X0051520Y0225906D03*
X0058880Y0231346D03*
X0047680Y0237146D03*
X0047680Y0237226D03*
X0047680Y0237266D03*
X0047680Y0238026D03*
X0047680Y0238066D03*
X0047680Y0238106D03*
D248*
X0048900Y0230986D03*
X0051460Y0225986D03*
X0069700Y0230986D03*
X0079300Y0238586D03*
X0086300Y0238786D03*
X0086300Y0238986D03*
X0086300Y0239186D03*
X0086300Y0239386D03*
X0086300Y0239586D03*
X0086300Y0239786D03*
X0086300Y0239986D03*
X0086300Y0240186D03*
X0086300Y0240386D03*
X0086300Y0240586D03*
X0086300Y0240786D03*
X0086300Y0240986D03*
X0086300Y0241186D03*
X0086300Y0241386D03*
X0086300Y0241586D03*
X0086300Y0241786D03*
X0086300Y0241986D03*
X0086300Y0242186D03*
X0086300Y0242386D03*
X0086300Y0242586D03*
X0086300Y0242786D03*
X0086300Y0242986D03*
X0086300Y0243186D03*
X0086300Y0243386D03*
X0086300Y0243586D03*
X0086300Y0243786D03*
X0086300Y0243986D03*
X0086300Y0244186D03*
X0086300Y0246786D03*
X0099380Y0244186D03*
X0099380Y0243986D03*
X0099380Y0243786D03*
X0099380Y0243586D03*
X0099380Y0243386D03*
X0099380Y0243186D03*
X0099380Y0242986D03*
X0099380Y0242786D03*
X0099380Y0242586D03*
X0099380Y0242386D03*
X0099380Y0242186D03*
X0099380Y0241986D03*
X0099380Y0241786D03*
X0099380Y0241586D03*
X0099380Y0241386D03*
X0099380Y0241186D03*
X0099380Y0240986D03*
X0099380Y0240786D03*
X0099380Y0240586D03*
X0099380Y0240386D03*
X0103460Y0240386D03*
X0105940Y0240986D03*
X0105940Y0241186D03*
X0105940Y0241786D03*
X0105940Y0241986D03*
X0105940Y0238386D03*
X0105940Y0238186D03*
X0105940Y0237986D03*
X0105940Y0237786D03*
X0105940Y0237586D03*
X0105940Y0237386D03*
X0105940Y0237186D03*
X0105940Y0236986D03*
X0105940Y0236786D03*
X0105940Y0236586D03*
X0105940Y0236386D03*
X0105940Y0236186D03*
X0110500Y0241986D03*
X0112700Y0241786D03*
X0112700Y0241586D03*
X0112700Y0241386D03*
X0112700Y0241186D03*
X0117300Y0241186D03*
X0117300Y0240986D03*
X0117300Y0241786D03*
X0119380Y0241786D03*
X0119380Y0241986D03*
X0119380Y0242186D03*
X0119380Y0242386D03*
X0119380Y0242586D03*
X0119380Y0242786D03*
X0119380Y0242986D03*
X0119380Y0243186D03*
X0119380Y0243386D03*
X0119380Y0243586D03*
X0119380Y0243786D03*
X0119380Y0243986D03*
X0119380Y0244186D03*
X0119380Y0244386D03*
X0119380Y0244586D03*
X0119380Y0244786D03*
X0119380Y0244986D03*
X0119380Y0245186D03*
X0119380Y0245386D03*
X0119380Y0245586D03*
X0119380Y0245786D03*
X0119380Y0245986D03*
X0119380Y0246186D03*
X0119380Y0246386D03*
X0119380Y0246586D03*
X0119380Y0246786D03*
X0119380Y0246986D03*
X0119380Y0247186D03*
X0119380Y0247386D03*
X0119380Y0247586D03*
X0119380Y0241586D03*
X0119380Y0241386D03*
X0119380Y0241186D03*
X0119380Y0240986D03*
X0119380Y0240786D03*
X0119380Y0240586D03*
X0119380Y0240386D03*
X0119380Y0240186D03*
X0119380Y0239986D03*
X0119380Y0239786D03*
D249*
X0117280Y0240786D03*
X0117320Y0241386D03*
X0117320Y0241586D03*
X0117280Y0241986D03*
X0117280Y0242186D03*
X0112720Y0242186D03*
X0112720Y0241986D03*
X0112720Y0240986D03*
X0112720Y0240786D03*
X0110520Y0240986D03*
X0110520Y0241186D03*
X0110520Y0241386D03*
X0110520Y0241586D03*
X0110520Y0241786D03*
X0110480Y0242186D03*
X0110480Y0240786D03*
X0112720Y0238186D03*
X0112720Y0237986D03*
X0112720Y0237786D03*
X0112720Y0237586D03*
X0112720Y0237386D03*
X0112720Y0237186D03*
X0112720Y0236986D03*
X0112720Y0236786D03*
X0112720Y0236586D03*
X0112720Y0236386D03*
X0112720Y0236186D03*
X0103480Y0240586D03*
X0103480Y0240786D03*
X0103480Y0240986D03*
X0103480Y0241186D03*
X0103480Y0241386D03*
X0103480Y0241586D03*
X0103480Y0241786D03*
X0103480Y0241986D03*
X0103480Y0242186D03*
X0103480Y0242386D03*
X0103480Y0242586D03*
X0103480Y0242786D03*
X0103480Y0242986D03*
X0103480Y0243186D03*
X0103480Y0243386D03*
X0103480Y0243586D03*
X0103480Y0243786D03*
X0103480Y0243986D03*
X0103480Y0244186D03*
X0086320Y0245986D03*
X0070880Y0238186D03*
X0070920Y0237786D03*
X0070920Y0237586D03*
X0070920Y0237386D03*
X0069520Y0230786D03*
X0067120Y0225986D03*
X0064280Y0237986D03*
X0064320Y0238386D03*
X0064320Y0238586D03*
X0064280Y0238986D03*
X0054280Y0238986D03*
X0054280Y0238786D03*
X0054280Y0238186D03*
X0054280Y0237986D03*
X0047680Y0237986D03*
X0047680Y0237186D03*
D250*
X0048800Y0231106D03*
X0051400Y0226066D03*
X0067200Y0226106D03*
X0069800Y0231146D03*
X0097000Y0245706D03*
D251*
X0099360Y0244346D03*
X0103480Y0244346D03*
X0103480Y0244306D03*
X0103480Y0244266D03*
X0105920Y0241746D03*
X0105920Y0241706D03*
X0105920Y0241666D03*
X0105920Y0241626D03*
X0105920Y0241546D03*
X0105920Y0241506D03*
X0105920Y0241466D03*
X0105920Y0241426D03*
X0105920Y0241346D03*
X0105920Y0241306D03*
X0105920Y0241266D03*
X0105920Y0241226D03*
X0112720Y0236066D03*
X0112720Y0236026D03*
X0112720Y0235946D03*
X0120120Y0238226D03*
X0126120Y0244346D03*
X0119360Y0247666D03*
X0086320Y0246826D03*
X0086320Y0245906D03*
X0086320Y0244346D03*
X0086320Y0238546D03*
X0079280Y0238506D03*
X0069760Y0231106D03*
X0069760Y0231066D03*
X0069720Y0231026D03*
X0067280Y0226226D03*
X0067240Y0226146D03*
X0059280Y0238426D03*
X0056720Y0243266D03*
X0059280Y0247306D03*
X0048720Y0231226D03*
X0048840Y0231066D03*
X0051280Y0226226D03*
X0051360Y0226106D03*
D252*
X0051340Y0226146D03*
X0051260Y0226266D03*
X0051220Y0226306D03*
X0051220Y0226346D03*
X0051140Y0226466D03*
X0048780Y0231146D03*
X0048700Y0231266D03*
X0048660Y0231306D03*
X0061860Y0243266D03*
X0069900Y0231306D03*
X0069860Y0231266D03*
X0069860Y0231226D03*
X0067340Y0226306D03*
X0067300Y0226266D03*
X0079300Y0238426D03*
X0079300Y0238466D03*
X0086300Y0238506D03*
X0086300Y0244426D03*
X0086300Y0246866D03*
X0097020Y0245666D03*
X0099380Y0244426D03*
X0105940Y0235946D03*
X0105940Y0235906D03*
X0119380Y0247706D03*
X0119380Y0247746D03*
X0121580Y0244426D03*
X0126140Y0244426D03*
D253*
X0121680Y0235586D03*
X0112720Y0235986D03*
X0105920Y0235986D03*
X0105920Y0241386D03*
X0105920Y0241586D03*
X0103480Y0244386D03*
X0086320Y0244386D03*
X0086320Y0238586D03*
X0051320Y0226186D03*
D254*
X0051180Y0226386D03*
X0048740Y0231186D03*
X0048620Y0231386D03*
X0067260Y0226186D03*
X0067380Y0226386D03*
X0069820Y0231186D03*
X0091700Y0240386D03*
X0099380Y0244386D03*
X0121580Y0244386D03*
X0126140Y0244386D03*
D255*
X0126120Y0244466D03*
X0121560Y0244466D03*
X0112720Y0244506D03*
X0112720Y0235906D03*
X0112720Y0235866D03*
X0103480Y0244426D03*
X0103480Y0244466D03*
X0099360Y0244466D03*
X0097000Y0245626D03*
X0091680Y0240426D03*
X0086320Y0238466D03*
X0086320Y0244466D03*
X0086320Y0245866D03*
X0070080Y0231626D03*
X0070040Y0231546D03*
X0070000Y0231466D03*
X0069960Y0231426D03*
X0069920Y0231346D03*
X0067560Y0226706D03*
X0067520Y0226626D03*
X0067480Y0226546D03*
X0067440Y0226506D03*
X0067440Y0226466D03*
X0067400Y0226426D03*
X0067360Y0226346D03*
X0066400Y0242866D03*
X0061840Y0243306D03*
X0059280Y0247346D03*
X0052160Y0242866D03*
X0048560Y0231506D03*
X0048600Y0231426D03*
X0048640Y0231346D03*
X0051120Y0226506D03*
X0051160Y0226426D03*
D256*
X0051100Y0226546D03*
X0051060Y0226626D03*
X0050940Y0226866D03*
X0048540Y0231546D03*
X0048500Y0231626D03*
X0048460Y0231666D03*
X0048460Y0231706D03*
X0056740Y0243306D03*
X0059300Y0238346D03*
X0067540Y0226666D03*
X0070100Y0231666D03*
X0070140Y0231746D03*
X0086300Y0238426D03*
X0086300Y0244506D03*
X0086300Y0245826D03*
X0086300Y0246906D03*
X0091700Y0240466D03*
X0094500Y0247866D03*
X0103500Y0244506D03*
X0105940Y0244506D03*
X0105940Y0235866D03*
X0105940Y0235826D03*
X0126140Y0244506D03*
D257*
X0119360Y0247786D03*
X0101440Y0237986D03*
X0069960Y0231386D03*
X0059280Y0238386D03*
X0051080Y0226586D03*
X0048520Y0231586D03*
D258*
X0059300Y0247386D03*
X0070060Y0231586D03*
X0067500Y0226586D03*
X0079300Y0238386D03*
X0120140Y0238186D03*
D259*
X0121580Y0244506D03*
X0119380Y0247826D03*
X0099380Y0244506D03*
X0070180Y0231826D03*
X0070020Y0231506D03*
X0067620Y0226826D03*
X0067580Y0226746D03*
X0051020Y0226706D03*
X0051020Y0226666D03*
X0050980Y0226746D03*
X0048580Y0231466D03*
X0048380Y0231866D03*
D260*
X0048420Y0231786D03*
X0050980Y0226786D03*
X0097020Y0245586D03*
D261*
X0086320Y0238386D03*
X0070240Y0231986D03*
X0070160Y0231786D03*
X0067760Y0227186D03*
X0067680Y0226986D03*
X0067600Y0226786D03*
X0050880Y0226986D03*
X0048320Y0231986D03*
X0112720Y0235786D03*
D262*
X0112720Y0235826D03*
X0112720Y0244546D03*
X0105920Y0244546D03*
X0103480Y0244546D03*
X0099360Y0244546D03*
X0091680Y0240506D03*
X0086320Y0244546D03*
X0086320Y0246946D03*
X0079280Y0238346D03*
X0070360Y0232346D03*
X0070320Y0232226D03*
X0070280Y0232106D03*
X0070280Y0232066D03*
X0070240Y0232026D03*
X0070240Y0231946D03*
X0070200Y0231906D03*
X0070200Y0231866D03*
X0070120Y0231706D03*
X0067800Y0227306D03*
X0067720Y0227106D03*
X0067720Y0227066D03*
X0067680Y0226946D03*
X0067640Y0226906D03*
X0067640Y0226866D03*
X0050960Y0226826D03*
X0050920Y0226906D03*
X0050920Y0226946D03*
X0050880Y0227026D03*
X0050840Y0227106D03*
X0050840Y0227146D03*
X0050800Y0227226D03*
X0048440Y0231746D03*
X0048400Y0231826D03*
X0048360Y0231906D03*
X0048360Y0231946D03*
X0048320Y0232026D03*
X0048280Y0232106D03*
X0048280Y0232146D03*
X0048240Y0232266D03*
X0119360Y0247866D03*
X0121560Y0244546D03*
X0126120Y0244546D03*
D263*
X0122240Y0236586D03*
X0093120Y0243986D03*
X0069680Y0234386D03*
X0063320Y0226986D03*
X0055240Y0226986D03*
D264*
X0055240Y0227026D03*
X0050840Y0229666D03*
X0050800Y0229706D03*
X0049040Y0234226D03*
X0067040Y0232426D03*
X0067800Y0229706D03*
X0067760Y0229666D03*
X0095840Y0242466D03*
D265*
X0093340Y0243866D03*
X0108300Y0238346D03*
X0115100Y0238346D03*
X0123860Y0240466D03*
X0123860Y0240506D03*
X0068660Y0241306D03*
X0062620Y0234626D03*
X0055940Y0234626D03*
X0051540Y0229026D03*
X0050860Y0229626D03*
X0063340Y0227026D03*
X0067020Y0229026D03*
X0067580Y0229506D03*
X0067620Y0229546D03*
X0067700Y0229626D03*
D266*
X0067900Y0227706D03*
X0067900Y0227666D03*
X0067700Y0227026D03*
X0070300Y0232146D03*
X0079300Y0238306D03*
X0086300Y0238346D03*
X0059300Y0238306D03*
X0059300Y0247426D03*
X0048300Y0232066D03*
X0048100Y0232826D03*
X0050700Y0227626D03*
X0050700Y0227546D03*
D267*
X0050740Y0227466D03*
X0050740Y0227426D03*
X0050780Y0227346D03*
X0050780Y0227306D03*
X0050780Y0227266D03*
X0050860Y0227066D03*
X0050660Y0227746D03*
X0048260Y0232226D03*
X0048220Y0232306D03*
X0048220Y0232346D03*
X0048180Y0232426D03*
X0048180Y0232466D03*
X0048180Y0232506D03*
X0048140Y0232626D03*
X0048140Y0232666D03*
X0056740Y0243346D03*
X0061820Y0243346D03*
X0070460Y0232746D03*
X0070420Y0232546D03*
X0070380Y0232466D03*
X0070380Y0232426D03*
X0070340Y0232306D03*
X0070340Y0232266D03*
X0067940Y0227906D03*
X0067860Y0227546D03*
X0067860Y0227506D03*
X0067860Y0227466D03*
X0067820Y0227426D03*
X0067820Y0227346D03*
X0067780Y0227266D03*
X0067780Y0227226D03*
X0067740Y0227146D03*
X0097020Y0245546D03*
X0119380Y0247906D03*
X0121620Y0235546D03*
D268*
X0108320Y0244506D03*
X0101440Y0238306D03*
X0068360Y0230426D03*
X0066920Y0228866D03*
X0062600Y0234546D03*
X0055240Y0227066D03*
X0050200Y0230426D03*
X0050200Y0230466D03*
D269*
X0048260Y0232186D03*
X0048220Y0232386D03*
X0048140Y0232586D03*
X0050660Y0227786D03*
X0050740Y0227386D03*
X0050820Y0227186D03*
X0067820Y0227386D03*
X0070380Y0232386D03*
X0070420Y0232586D03*
X0070460Y0232786D03*
X0099380Y0244586D03*
X0105940Y0244586D03*
X0105940Y0235786D03*
X0121580Y0244586D03*
X0126140Y0244586D03*
D270*
X0063320Y0227186D03*
X0055240Y0227186D03*
D271*
X0055240Y0227226D03*
X0066480Y0232746D03*
X0080600Y0241946D03*
D272*
X0063340Y0227226D03*
X0052100Y0232746D03*
X0101420Y0238626D03*
D273*
X0101420Y0238706D03*
X0094540Y0247306D03*
X0063340Y0227266D03*
X0055260Y0227266D03*
D274*
X0055240Y0227306D03*
X0052160Y0232866D03*
X0066400Y0232866D03*
X0080800Y0242066D03*
X0081000Y0247466D03*
X0101440Y0238826D03*
D275*
X0094500Y0238506D03*
X0063340Y0227306D03*
D276*
X0066400Y0232906D03*
X0055240Y0227346D03*
X0052160Y0232906D03*
X0101440Y0238946D03*
D277*
X0101420Y0238906D03*
X0080860Y0242106D03*
X0081020Y0247426D03*
X0063340Y0227346D03*
X0059300Y0228746D03*
D278*
X0055240Y0227386D03*
D279*
X0063340Y0227386D03*
X0080940Y0242186D03*
D280*
X0081120Y0247266D03*
X0094560Y0247026D03*
X0101440Y0239226D03*
X0107720Y0238626D03*
X0107720Y0244306D03*
X0114520Y0244306D03*
X0059280Y0233266D03*
X0055240Y0227426D03*
X0052160Y0242266D03*
D281*
X0059300Y0228666D03*
X0063340Y0227426D03*
X0081020Y0242266D03*
X0094500Y0238666D03*
X0107700Y0244346D03*
X0114500Y0244346D03*
D282*
X0114560Y0244226D03*
X0107760Y0244226D03*
X0107760Y0238706D03*
X0101440Y0239306D03*
X0055240Y0227466D03*
D283*
X0063340Y0227466D03*
X0101420Y0239346D03*
X0107780Y0238746D03*
X0114540Y0238706D03*
D284*
X0112720Y0235746D03*
X0105920Y0235746D03*
X0112720Y0244626D03*
X0120160Y0238146D03*
X0091680Y0240546D03*
X0086320Y0238306D03*
X0070520Y0233426D03*
X0070520Y0233346D03*
X0070520Y0233306D03*
X0070520Y0233266D03*
X0070520Y0233226D03*
X0070520Y0233146D03*
X0070520Y0233106D03*
X0070520Y0233066D03*
X0070520Y0233026D03*
X0070480Y0232946D03*
X0070480Y0232906D03*
X0070480Y0232866D03*
X0070480Y0232826D03*
X0070440Y0232706D03*
X0070440Y0232666D03*
X0070440Y0232626D03*
X0070400Y0232506D03*
X0068000Y0228626D03*
X0068000Y0228546D03*
X0068000Y0228506D03*
X0068000Y0228466D03*
X0068000Y0228426D03*
X0068000Y0228346D03*
X0068000Y0228306D03*
X0068000Y0228266D03*
X0067960Y0228146D03*
X0067960Y0228106D03*
X0067960Y0228066D03*
X0067960Y0228026D03*
X0067960Y0227946D03*
X0067920Y0227866D03*
X0067920Y0227826D03*
X0067920Y0227746D03*
X0067880Y0227626D03*
X0050720Y0227506D03*
X0050680Y0227666D03*
X0050680Y0227706D03*
X0050640Y0227826D03*
X0050640Y0227866D03*
X0050640Y0227906D03*
X0050640Y0227946D03*
X0050600Y0228026D03*
X0050600Y0228066D03*
X0050600Y0228106D03*
X0050600Y0228146D03*
X0050600Y0228226D03*
X0050600Y0228266D03*
X0050600Y0228306D03*
X0050600Y0228346D03*
X0048160Y0232546D03*
X0048120Y0232706D03*
X0048120Y0232746D03*
X0048080Y0232866D03*
X0048080Y0232906D03*
X0048080Y0232946D03*
X0048080Y0233026D03*
X0048080Y0233066D03*
X0048080Y0233106D03*
X0048040Y0233226D03*
X0048040Y0233266D03*
X0048040Y0233306D03*
X0048040Y0233346D03*
X0048040Y0233426D03*
X0048040Y0233466D03*
X0048040Y0233506D03*
X0048040Y0233546D03*
X0048040Y0233626D03*
X0048040Y0233666D03*
D285*
X0055240Y0227506D03*
X0063320Y0227506D03*
X0081160Y0242466D03*
X0081200Y0247106D03*
X0094560Y0246906D03*
X0107840Y0244066D03*
X0107840Y0238866D03*
X0114600Y0238826D03*
X0114600Y0244106D03*
D286*
X0114680Y0243906D03*
X0114680Y0239026D03*
X0107920Y0239066D03*
X0107920Y0243866D03*
X0094480Y0238866D03*
X0081240Y0247026D03*
X0063320Y0227546D03*
X0055240Y0227546D03*
D287*
X0050700Y0227586D03*
X0070300Y0232186D03*
X0086300Y0244586D03*
X0086300Y0245786D03*
D288*
X0063340Y0227586D03*
X0055260Y0227586D03*
X0114740Y0239186D03*
D289*
X0112720Y0244586D03*
X0103480Y0244586D03*
X0091680Y0240586D03*
X0086320Y0246986D03*
X0070520Y0233386D03*
X0070520Y0233186D03*
X0070480Y0232986D03*
X0068000Y0228586D03*
X0068000Y0228386D03*
X0067960Y0228186D03*
X0067960Y0227986D03*
X0067920Y0227786D03*
X0067880Y0227586D03*
X0050640Y0227986D03*
X0050600Y0228186D03*
X0048120Y0232786D03*
X0048080Y0232986D03*
X0048040Y0233186D03*
X0048040Y0233386D03*
X0048040Y0233586D03*
D290*
X0055240Y0227626D03*
X0063320Y0227626D03*
X0081360Y0242826D03*
X0081360Y0242866D03*
X0081360Y0246746D03*
X0094600Y0246666D03*
D291*
X0081440Y0246546D03*
X0081440Y0246506D03*
X0081440Y0243066D03*
X0055240Y0227666D03*
X0052160Y0233226D03*
D292*
X0059300Y0233466D03*
X0063340Y0227666D03*
X0081420Y0243026D03*
X0081420Y0246626D03*
X0094460Y0239026D03*
D293*
X0094600Y0246506D03*
X0055240Y0227706D03*
D294*
X0059280Y0233506D03*
X0063320Y0227706D03*
X0081480Y0243226D03*
X0081480Y0246426D03*
D295*
X0066400Y0233306D03*
X0059280Y0233546D03*
X0055240Y0227746D03*
X0052160Y0233306D03*
D296*
X0063340Y0227746D03*
D297*
X0063320Y0227786D03*
X0055240Y0227786D03*
D298*
X0055240Y0227826D03*
X0094440Y0239306D03*
D299*
X0063340Y0227826D03*
D300*
X0066400Y0233426D03*
X0055240Y0227866D03*
X0052160Y0233426D03*
D301*
X0063340Y0227866D03*
D302*
X0063320Y0227906D03*
X0066400Y0233466D03*
X0055240Y0227906D03*
D303*
X0052180Y0233506D03*
X0063340Y0227946D03*
X0066420Y0233506D03*
D304*
X0063340Y0227986D03*
X0055260Y0227986D03*
D305*
X0055240Y0228026D03*
D306*
X0063340Y0228026D03*
D307*
X0063320Y0228066D03*
X0066400Y0233626D03*
X0055240Y0228066D03*
X0052160Y0233626D03*
D308*
X0055240Y0228106D03*
X0063320Y0228106D03*
X0066400Y0233666D03*
D309*
X0063320Y0228146D03*
X0055240Y0228146D03*
D310*
X0055240Y0228186D03*
D311*
X0063340Y0228186D03*
D312*
X0055240Y0228226D03*
D313*
X0063340Y0228226D03*
D314*
X0067980Y0228226D03*
X0070540Y0233466D03*
X0070540Y0233506D03*
X0070540Y0233546D03*
X0070540Y0233626D03*
X0070540Y0233666D03*
X0079300Y0238266D03*
X0086300Y0244626D03*
X0086300Y0245746D03*
X0097020Y0245506D03*
X0099380Y0244626D03*
X0103500Y0244626D03*
X0105940Y0244626D03*
X0105940Y0235706D03*
X0119380Y0247946D03*
X0121580Y0244626D03*
X0126140Y0244626D03*
X0059300Y0247466D03*
X0059300Y0238266D03*
X0050580Y0228626D03*
X0050580Y0228546D03*
X0050580Y0228506D03*
X0050580Y0228466D03*
X0050580Y0228426D03*
X0048060Y0233146D03*
D315*
X0063340Y0228266D03*
D316*
X0063340Y0228306D03*
X0055260Y0228306D03*
D317*
X0050580Y0228386D03*
X0050580Y0228586D03*
X0061820Y0243386D03*
X0070540Y0233586D03*
D318*
X0053040Y0228386D03*
X0051560Y0228986D03*
D319*
X0050700Y0229786D03*
X0057460Y0228386D03*
X0061140Y0228386D03*
X0065540Y0228386D03*
X0067020Y0228986D03*
X0067860Y0229786D03*
D320*
X0067380Y0229346D03*
X0067060Y0229066D03*
X0065660Y0228426D03*
X0061020Y0228426D03*
X0051180Y0229346D03*
X0051100Y0229426D03*
X0064020Y0241266D03*
X0093260Y0243906D03*
D321*
X0093200Y0243946D03*
X0069640Y0234346D03*
X0065760Y0228466D03*
X0060920Y0228466D03*
X0048920Y0234346D03*
D322*
X0052520Y0228626D03*
X0057960Y0228626D03*
X0059280Y0229546D03*
X0060600Y0228626D03*
X0069760Y0234506D03*
X0092480Y0239466D03*
X0096280Y0242226D03*
X0092920Y0244106D03*
X0121960Y0236106D03*
X0123840Y0239866D03*
D323*
X0059300Y0228706D03*
D324*
X0062560Y0234506D03*
X0056000Y0234506D03*
X0054360Y0241346D03*
X0049240Y0234066D03*
X0051760Y0228746D03*
X0064200Y0241346D03*
X0095440Y0242666D03*
D325*
X0051720Y0228786D03*
D326*
X0059300Y0228786D03*
D327*
X0066860Y0228786D03*
D328*
X0066400Y0232826D03*
X0059280Y0228826D03*
X0052160Y0232826D03*
X0052160Y0242426D03*
X0066400Y0242426D03*
X0080960Y0247506D03*
X0094520Y0238466D03*
D329*
X0094520Y0238426D03*
X0094520Y0247346D03*
X0080920Y0247546D03*
X0059280Y0228866D03*
X0052160Y0242466D03*
D330*
X0059300Y0228906D03*
D331*
X0059300Y0228986D03*
D332*
X0059280Y0229306D03*
X0051520Y0229066D03*
X0051040Y0229466D03*
X0050960Y0229546D03*
X0054560Y0241266D03*
X0067480Y0229426D03*
X0067520Y0229466D03*
X0069560Y0234266D03*
X0095920Y0242426D03*
X0101440Y0238226D03*
X0123840Y0240426D03*
D333*
X0095300Y0242746D03*
X0059300Y0229066D03*
D334*
X0067180Y0229186D03*
X0051420Y0229186D03*
X0095980Y0242386D03*
D335*
X0094500Y0247586D03*
X0068340Y0230386D03*
X0059300Y0229186D03*
D336*
X0067220Y0229226D03*
X0066420Y0242706D03*
X0052180Y0242706D03*
D337*
X0051140Y0229386D03*
X0067420Y0229386D03*
X0123860Y0240386D03*
D338*
X0059280Y0229386D03*
D339*
X0051000Y0229506D03*
X0049000Y0234266D03*
D340*
X0048760Y0234586D03*
X0059280Y0229586D03*
X0115080Y0238186D03*
D341*
X0108320Y0238386D03*
X0094520Y0238186D03*
X0093480Y0243786D03*
X0069480Y0234186D03*
X0068040Y0229986D03*
X0055960Y0234586D03*
X0049080Y0234186D03*
X0050520Y0229986D03*
D342*
X0050360Y0230186D03*
X0068200Y0230186D03*
D343*
X0063740Y0236186D03*
X0063740Y0240786D03*
X0059300Y0240786D03*
X0059300Y0240986D03*
X0059300Y0241186D03*
X0059300Y0241386D03*
X0059300Y0241586D03*
X0059300Y0241786D03*
X0059300Y0241986D03*
X0059300Y0242186D03*
X0059300Y0242386D03*
X0059300Y0242586D03*
X0059300Y0242786D03*
X0059300Y0242986D03*
X0059300Y0243186D03*
X0059300Y0243386D03*
X0059300Y0243586D03*
X0059300Y0243786D03*
X0059300Y0243986D03*
X0059300Y0244186D03*
X0059300Y0244386D03*
X0059300Y0244586D03*
X0059300Y0244786D03*
X0059300Y0244986D03*
X0059300Y0245186D03*
X0059300Y0245386D03*
X0059300Y0245586D03*
X0059300Y0245786D03*
X0059300Y0245986D03*
X0059300Y0246186D03*
X0059300Y0246386D03*
X0059300Y0246586D03*
X0059300Y0246786D03*
X0059300Y0240586D03*
X0059300Y0240386D03*
X0059300Y0240186D03*
X0059300Y0239986D03*
X0059300Y0239786D03*
X0059300Y0239586D03*
X0059300Y0239386D03*
X0059300Y0239186D03*
X0059300Y0238986D03*
X0054740Y0240586D03*
X0054740Y0236386D03*
X0059260Y0230186D03*
X0048060Y0235786D03*
X0070460Y0239586D03*
X0092300Y0245986D03*
X0110140Y0243186D03*
X0116940Y0239786D03*
X0123140Y0237186D03*
D344*
X0110160Y0239786D03*
X0106040Y0240186D03*
X0106040Y0242786D03*
X0097000Y0239986D03*
X0092240Y0244786D03*
X0083840Y0245786D03*
X0070560Y0239386D03*
X0070600Y0235986D03*
X0070520Y0235786D03*
X0063920Y0236586D03*
X0063840Y0236386D03*
X0063920Y0240386D03*
X0063840Y0240586D03*
X0059280Y0238786D03*
X0054640Y0240386D03*
X0054640Y0236586D03*
X0059160Y0230386D03*
X0059280Y0246986D03*
X0048120Y0239586D03*
X0048040Y0239386D03*
D345*
X0047900Y0239106D03*
X0047900Y0239066D03*
X0047900Y0236146D03*
X0049300Y0230506D03*
X0059100Y0230506D03*
X0059100Y0230546D03*
X0059300Y0238666D03*
X0061900Y0243146D03*
X0059300Y0247066D03*
X0059300Y0247106D03*
X0069300Y0230546D03*
X0070700Y0236266D03*
X0083900Y0243946D03*
X0083900Y0245626D03*
X0083900Y0245666D03*
X0086300Y0246226D03*
X0086300Y0246266D03*
X0086300Y0246306D03*
X0086300Y0246346D03*
X0086300Y0246426D03*
X0086300Y0246466D03*
X0086300Y0246506D03*
X0097100Y0241346D03*
X0103300Y0239746D03*
X0120100Y0238306D03*
X0123300Y0237466D03*
X0123300Y0237426D03*
D346*
X0123860Y0240186D03*
X0101420Y0238186D03*
X0067180Y0232386D03*
X0051380Y0232386D03*
D347*
X0051620Y0232466D03*
D348*
X0051880Y0232586D03*
X0066720Y0232586D03*
D349*
X0066420Y0232786D03*
X0052140Y0232786D03*
D350*
X0059200Y0232786D03*
X0083400Y0243386D03*
D351*
X0081080Y0247346D03*
X0094560Y0247106D03*
X0094520Y0238626D03*
X0101440Y0239066D03*
X0107640Y0238506D03*
X0114400Y0238466D03*
X0066400Y0242306D03*
X0066400Y0232946D03*
X0059280Y0233226D03*
X0052160Y0232946D03*
D352*
X0052160Y0232986D03*
X0114480Y0238586D03*
D353*
X0059300Y0232986D03*
D354*
X0066400Y0232986D03*
D355*
X0066400Y0233026D03*
X0059280Y0233306D03*
X0052160Y0233026D03*
X0052160Y0242226D03*
X0066400Y0242226D03*
X0094480Y0238746D03*
X0094560Y0246946D03*
X0107800Y0244146D03*
X0114560Y0238746D03*
D356*
X0114620Y0238866D03*
X0114620Y0244066D03*
X0066420Y0233066D03*
X0052180Y0233066D03*
D357*
X0052180Y0233106D03*
X0081260Y0242626D03*
X0107940Y0243826D03*
X0107940Y0239146D03*
X0107940Y0239106D03*
X0114700Y0239106D03*
X0114700Y0239066D03*
X0114700Y0243826D03*
X0114700Y0243866D03*
D358*
X0059280Y0233106D03*
X0056120Y0234346D03*
D359*
X0066400Y0233106D03*
D360*
X0066400Y0233146D03*
X0052160Y0233146D03*
X0081320Y0242746D03*
X0081320Y0246866D03*
X0108000Y0243626D03*
X0108000Y0239346D03*
X0108000Y0239306D03*
X0114760Y0239306D03*
X0114760Y0239266D03*
X0114760Y0243666D03*
D361*
X0059280Y0233146D03*
D362*
X0052180Y0233186D03*
X0066420Y0233186D03*
D363*
X0059300Y0233186D03*
X0094540Y0247186D03*
D364*
X0094600Y0246546D03*
X0066400Y0233226D03*
D365*
X0066420Y0233266D03*
X0052180Y0233266D03*
X0081500Y0243266D03*
X0081500Y0243306D03*
X0081500Y0246306D03*
X0081500Y0246346D03*
X0094620Y0246466D03*
X0094460Y0239106D03*
D366*
X0066420Y0233346D03*
X0052180Y0233346D03*
D367*
X0052160Y0233386D03*
X0066400Y0233386D03*
X0094440Y0239386D03*
D368*
X0114720Y0243786D03*
X0059280Y0233386D03*
D369*
X0059300Y0233426D03*
D370*
X0052180Y0233466D03*
D371*
X0052160Y0233546D03*
X0066400Y0233546D03*
D372*
X0066400Y0233586D03*
X0059280Y0233786D03*
X0052160Y0233586D03*
D373*
X0059300Y0233586D03*
D374*
X0066980Y0233746D03*
X0051580Y0233706D03*
D375*
X0067000Y0233706D03*
D376*
X0051600Y0233746D03*
D377*
X0059300Y0233746D03*
D378*
X0066940Y0233786D03*
X0051620Y0233786D03*
D379*
X0059280Y0233826D03*
X0059280Y0233866D03*
D380*
X0062440Y0234346D03*
X0049600Y0233906D03*
D381*
X0059300Y0233906D03*
D382*
X0059280Y0233946D03*
D383*
X0049360Y0233986D03*
D384*
X0059280Y0233986D03*
D385*
X0069200Y0233986D03*
X0094200Y0243386D03*
D386*
X0059280Y0234026D03*
D387*
X0059280Y0234066D03*
D388*
X0059280Y0234106D03*
D389*
X0059300Y0234146D03*
D390*
X0059280Y0234186D03*
D391*
X0059280Y0234226D03*
D392*
X0056260Y0234266D03*
X0062300Y0234266D03*
D393*
X0062380Y0234306D03*
X0056180Y0234306D03*
X0094540Y0247226D03*
D394*
X0068940Y0241186D03*
X0048900Y0234386D03*
X0122100Y0236386D03*
D395*
X0069780Y0234546D03*
X0048780Y0234546D03*
X0049420Y0241066D03*
D396*
X0062620Y0234586D03*
D397*
X0062200Y0242626D03*
X0069840Y0234666D03*
X0083360Y0246226D03*
X0049200Y0240906D03*
D398*
X0048660Y0234786D03*
X0062100Y0242786D03*
X0069740Y0240586D03*
X0094500Y0247786D03*
X0096660Y0239586D03*
D399*
X0096840Y0241786D03*
X0106160Y0239786D03*
X0109960Y0243386D03*
X0116760Y0243386D03*
X0119640Y0239386D03*
X0063360Y0235586D03*
X0056600Y0242986D03*
X0048560Y0234986D03*
D400*
X0055780Y0234986D03*
X0062820Y0234986D03*
X0106300Y0243386D03*
D401*
X0106180Y0243186D03*
X0112940Y0239786D03*
X0070020Y0234986D03*
X0055380Y0235386D03*
X0048660Y0240386D03*
D402*
X0048560Y0240266D03*
X0055240Y0235546D03*
X0070040Y0235026D03*
X0070040Y0240226D03*
X0070040Y0240266D03*
X0083640Y0243546D03*
X0083640Y0246066D03*
X0091960Y0239866D03*
X0096760Y0239666D03*
X0096800Y0239706D03*
X0096800Y0241826D03*
X0099760Y0239506D03*
X0096800Y0246066D03*
X0106160Y0243146D03*
X0109960Y0239546D03*
X0116760Y0239546D03*
X0120040Y0238506D03*
X0123840Y0239106D03*
D403*
X0116800Y0239586D03*
X0110000Y0239586D03*
X0048400Y0235186D03*
D404*
X0048840Y0240586D03*
X0055560Y0235186D03*
X0063000Y0235186D03*
X0096680Y0246186D03*
D405*
X0092440Y0246186D03*
X0092360Y0244586D03*
X0096880Y0239786D03*
X0083720Y0245986D03*
X0070160Y0235186D03*
X0063480Y0235786D03*
X0055080Y0235786D03*
X0048360Y0239986D03*
X0112880Y0242986D03*
D406*
X0110000Y0243346D03*
X0123000Y0237026D03*
X0092400Y0244546D03*
X0070200Y0240026D03*
X0070200Y0235226D03*
X0056600Y0243026D03*
X0055000Y0235906D03*
X0048400Y0240066D03*
D407*
X0054840Y0240986D03*
X0063200Y0235386D03*
X0069920Y0240386D03*
X0092000Y0239786D03*
X0112960Y0243186D03*
X0121800Y0235786D03*
X0123840Y0239186D03*
D408*
X0123860Y0238986D03*
X0112860Y0239986D03*
X0106100Y0239986D03*
X0106100Y0242986D03*
X0099660Y0239586D03*
X0096860Y0245986D03*
X0091860Y0239986D03*
X0070220Y0239986D03*
X0070300Y0235386D03*
X0063620Y0235986D03*
X0054940Y0235986D03*
D409*
X0105940Y0235466D03*
X0120260Y0238026D03*
D410*
X0115000Y0237946D03*
X0112720Y0235466D03*
X0108200Y0237946D03*
D411*
X0105940Y0244826D03*
X0103500Y0244826D03*
X0099380Y0244826D03*
X0097020Y0245306D03*
X0086300Y0244826D03*
X0086300Y0247146D03*
X0112740Y0244826D03*
X0121580Y0244826D03*
X0121540Y0235466D03*
X0059300Y0238106D03*
X0059300Y0247626D03*
D412*
X0079300Y0238066D03*
X0086300Y0238066D03*
X0105940Y0235506D03*
D413*
X0112720Y0235506D03*
D414*
X0121600Y0235506D03*
X0061800Y0243426D03*
D415*
X0079300Y0238106D03*
X0086300Y0238106D03*
X0105940Y0235546D03*
D416*
X0112720Y0235546D03*
X0120200Y0238066D03*
X0091680Y0240746D03*
X0061800Y0243506D03*
X0056800Y0243506D03*
D417*
X0070420Y0235586D03*
X0083820Y0243786D03*
X0096980Y0241586D03*
X0112820Y0242786D03*
X0112820Y0240186D03*
D418*
X0112720Y0235586D03*
X0105920Y0235586D03*
D419*
X0105940Y0235626D03*
X0105940Y0244706D03*
X0099380Y0244706D03*
X0086300Y0247066D03*
X0120180Y0238106D03*
X0121580Y0244706D03*
D420*
X0112720Y0244746D03*
X0112720Y0235626D03*
X0091680Y0240706D03*
X0086320Y0245666D03*
X0059280Y0247546D03*
D421*
X0059300Y0247506D03*
X0059300Y0238226D03*
X0079300Y0238226D03*
X0086300Y0245706D03*
X0099380Y0244666D03*
X0105940Y0244666D03*
X0105940Y0235666D03*
X0115020Y0244946D03*
X0121580Y0244666D03*
X0126140Y0244666D03*
D422*
X0126120Y0244706D03*
X0119360Y0248026D03*
X0112720Y0244706D03*
X0112720Y0235666D03*
X0103480Y0244706D03*
X0097040Y0245426D03*
X0091680Y0240666D03*
X0086320Y0238226D03*
X0086320Y0244706D03*
X0056760Y0243426D03*
D423*
X0086320Y0244666D03*
X0086320Y0247026D03*
X0086320Y0238266D03*
X0091680Y0240626D03*
X0103480Y0244666D03*
X0112720Y0244666D03*
X0112720Y0235706D03*
D424*
X0094500Y0237986D03*
X0086300Y0246386D03*
X0083900Y0243986D03*
X0070700Y0238986D03*
X0054500Y0239986D03*
X0054500Y0236986D03*
X0047900Y0236186D03*
D425*
X0122000Y0236186D03*
D426*
X0122420Y0236786D03*
X0123860Y0239986D03*
X0063900Y0241186D03*
X0054660Y0241186D03*
D427*
X0079300Y0238146D03*
X0086300Y0244746D03*
X0094460Y0237946D03*
X0103500Y0244746D03*
X0105940Y0244746D03*
X0126140Y0244746D03*
D428*
X0112720Y0244866D03*
X0101440Y0237946D03*
X0091680Y0240826D03*
X0059280Y0247666D03*
D429*
X0056760Y0243386D03*
X0108240Y0237986D03*
X0115040Y0237986D03*
X0119360Y0247986D03*
D430*
X0086300Y0245546D03*
X0079300Y0238026D03*
D431*
X0086320Y0238026D03*
X0094520Y0247906D03*
D432*
X0059300Y0238066D03*
D433*
X0059300Y0238146D03*
X0086300Y0245626D03*
D434*
X0086320Y0247106D03*
X0086320Y0238146D03*
D435*
X0086320Y0238186D03*
X0059280Y0238186D03*
D436*
X0079300Y0238186D03*
D437*
X0108300Y0238186D03*
X0049300Y0240986D03*
D438*
X0094500Y0238586D03*
X0114340Y0238386D03*
D439*
X0114460Y0244426D03*
X0107660Y0244426D03*
X0107620Y0238466D03*
X0101420Y0239026D03*
D440*
X0101420Y0239106D03*
X0114420Y0238506D03*
X0080980Y0242226D03*
X0052180Y0242306D03*
D441*
X0081080Y0247306D03*
X0094560Y0247066D03*
X0101440Y0239146D03*
X0107680Y0238546D03*
X0114440Y0238546D03*
D442*
X0107700Y0238586D03*
X0101420Y0239186D03*
D443*
X0114520Y0238666D03*
X0081080Y0242346D03*
X0081120Y0247226D03*
D444*
X0080740Y0242026D03*
X0094540Y0247266D03*
X0101420Y0238746D03*
D445*
X0094480Y0238786D03*
D446*
X0101440Y0238786D03*
D447*
X0101440Y0239386D03*
X0107800Y0238786D03*
X0114560Y0244186D03*
X0081120Y0242386D03*
X0081160Y0247186D03*
D448*
X0114580Y0238786D03*
D449*
X0114580Y0244146D03*
X0107820Y0244106D03*
X0107820Y0238826D03*
X0081140Y0242426D03*
X0081180Y0247146D03*
D450*
X0081300Y0246906D03*
X0081300Y0242706D03*
X0094460Y0238906D03*
X0094580Y0246746D03*
X0107980Y0243706D03*
X0107980Y0243666D03*
X0107980Y0239266D03*
X0107980Y0239226D03*
X0114740Y0239226D03*
X0114740Y0243706D03*
X0114740Y0243746D03*
D451*
X0107860Y0244026D03*
X0107860Y0238906D03*
D452*
X0114780Y0239346D03*
X0114780Y0243626D03*
X0094580Y0246706D03*
X0094460Y0238946D03*
X0081340Y0246826D03*
D453*
X0094460Y0238986D03*
D454*
X0101440Y0238986D03*
X0081040Y0247386D03*
D455*
X0107900Y0238986D03*
X0114660Y0238986D03*
X0114660Y0243986D03*
D456*
X0113080Y0243386D03*
X0109720Y0239386D03*
X0119880Y0238986D03*
X0069520Y0240786D03*
X0049040Y0240786D03*
D457*
X0081220Y0242546D03*
X0081220Y0247066D03*
X0094580Y0246826D03*
X0107900Y0243946D03*
X0107900Y0243906D03*
X0107900Y0239026D03*
X0114660Y0243946D03*
D458*
X0094460Y0239186D03*
D459*
X0107960Y0239186D03*
D460*
X0094440Y0239266D03*
D461*
X0094440Y0239346D03*
D462*
X0113280Y0239386D03*
D463*
X0116500Y0239386D03*
X0115060Y0244786D03*
X0108300Y0244786D03*
X0092740Y0246386D03*
X0092260Y0239586D03*
X0066420Y0242786D03*
X0052180Y0242786D03*
D464*
X0056360Y0242586D03*
X0062240Y0242586D03*
X0123840Y0239586D03*
D465*
X0123860Y0239786D03*
X0096340Y0242186D03*
D466*
X0091680Y0240866D03*
X0112720Y0244906D03*
D467*
X0049640Y0241186D03*
D468*
X0052300Y0241386D03*
X0066060Y0241586D03*
X0066260Y0241386D03*
D469*
X0066140Y0241506D03*
X0066100Y0241546D03*
X0052660Y0241706D03*
X0052340Y0241426D03*
D470*
X0052380Y0241466D03*
X0066180Y0241466D03*
X0066220Y0241426D03*
D471*
X0066000Y0241626D03*
X0065960Y0241666D03*
X0065920Y0241706D03*
X0065880Y0241746D03*
X0065760Y0241826D03*
X0065720Y0241866D03*
X0065680Y0241906D03*
X0065600Y0241946D03*
X0065480Y0242026D03*
X0065440Y0242066D03*
X0065360Y0242106D03*
X0065320Y0242146D03*
X0053280Y0242146D03*
X0053200Y0242106D03*
X0053160Y0242066D03*
X0053080Y0242026D03*
X0052960Y0241946D03*
X0052920Y0241906D03*
X0052840Y0241866D03*
X0052800Y0241826D03*
X0052720Y0241746D03*
X0052600Y0241666D03*
X0052560Y0241626D03*
X0052480Y0241546D03*
X0052440Y0241506D03*
D472*
X0052520Y0241586D03*
X0052760Y0241786D03*
X0053040Y0241986D03*
X0053320Y0242186D03*
X0065240Y0242186D03*
X0065560Y0241986D03*
D473*
X0065820Y0241786D03*
D474*
X0080680Y0241986D03*
D475*
X0080900Y0242146D03*
X0066420Y0242346D03*
X0052180Y0242346D03*
X0094540Y0247146D03*
D476*
X0066400Y0242266D03*
D477*
X0066420Y0242386D03*
X0052180Y0242386D03*
D478*
X0066400Y0242466D03*
D479*
X0066400Y0242546D03*
X0095000Y0242906D03*
D480*
X0066420Y0242586D03*
X0052180Y0242586D03*
D481*
X0081240Y0242586D03*
D482*
X0081340Y0242786D03*
X0081340Y0246786D03*
X0108020Y0243586D03*
X0114780Y0243586D03*
D483*
X0095220Y0242786D03*
D484*
X0066400Y0242906D03*
X0052160Y0242906D03*
D485*
X0081380Y0242906D03*
X0081380Y0246706D03*
D486*
X0081420Y0246586D03*
X0081420Y0242986D03*
X0094620Y0246586D03*
D487*
X0094880Y0242986D03*
D488*
X0081480Y0243186D03*
X0081480Y0246386D03*
D489*
X0099380Y0244746D03*
X0119380Y0248066D03*
X0121580Y0244746D03*
X0061780Y0243466D03*
X0056780Y0243466D03*
D490*
X0056800Y0243546D03*
X0061800Y0243546D03*
D491*
X0061780Y0243586D03*
X0056780Y0243586D03*
D492*
X0107960Y0243746D03*
D493*
X0107940Y0243786D03*
X0094580Y0246786D03*
X0081260Y0246986D03*
D494*
X0107880Y0243986D03*
D495*
X0107780Y0244186D03*
D496*
X0107700Y0244386D03*
X0114460Y0244386D03*
D497*
X0108300Y0244666D03*
D498*
X0086300Y0244786D03*
X0059300Y0247586D03*
D499*
X0099380Y0244786D03*
X0105940Y0244786D03*
X0121580Y0244786D03*
X0126140Y0244786D03*
D500*
X0112720Y0244786D03*
X0103480Y0244786D03*
D501*
X0126120Y0244826D03*
D502*
X0126140Y0244866D03*
X0105940Y0244866D03*
X0103500Y0244866D03*
X0086300Y0244866D03*
D503*
X0097020Y0245266D03*
X0099380Y0244866D03*
X0121580Y0244866D03*
D504*
X0126140Y0244906D03*
X0105940Y0244906D03*
X0103500Y0244906D03*
X0086300Y0244906D03*
D505*
X0099380Y0244906D03*
X0121580Y0244906D03*
D506*
X0108240Y0244946D03*
X0097040Y0245466D03*
D507*
X0108200Y0244986D03*
D508*
X0114980Y0244986D03*
D509*
X0097040Y0245226D03*
D510*
X0097020Y0245346D03*
X0119380Y0248106D03*
D511*
X0097020Y0245386D03*
D512*
X0096380Y0246386D03*
D513*
X0094560Y0246986D03*
D514*
X0086320Y0247186D03*
D515*
X0119360Y0248146D03*
D516*
X0119360Y0248186D03*
D517*
X0119380Y0248226D03*
D518*
X0129540Y0249946D02*
X0129540Y0279446D01*
X0086040Y0279446D01*
X0047040Y0279446D01*
X0047040Y0265446D01*
X0047040Y0249946D01*
X0086040Y0249946D01*
X0129540Y0249946D01*
X0129540Y0213946D02*
X0129540Y0173446D01*
X0073040Y0173446D01*
X0073040Y0091446D01*
X0144540Y0091446D01*
X0144540Y0070446D01*
X0144540Y0050446D01*
X0096040Y0050446D01*
X0096040Y0033946D01*
X0044540Y0033946D01*
X0044540Y0070446D01*
X0044540Y0091446D01*
X0073040Y0091446D01*
X0096040Y0070446D02*
X0096040Y0050446D01*
X0096040Y0033946D02*
X0144540Y0033946D01*
X0144540Y0050446D01*
X0144540Y0070446D02*
X0096040Y0070446D01*
X0044540Y0070446D01*
X0044540Y0091446D02*
X0044540Y0173446D01*
X0044540Y0213946D01*
X0129540Y0213946D01*
X0086040Y0249946D02*
X0086040Y0265446D01*
X0047040Y0265446D01*
X0086040Y0265446D02*
X0086040Y0279446D01*
X0073040Y0173446D02*
X0044540Y0173446D01*
D519*
X0013694Y0040468D02*
X0016194Y0037968D01*
X0031194Y0037968D01*
X0033694Y0040468D01*
X0033694Y0045468D01*
X0031194Y0047968D01*
X0033694Y0050468D01*
X0033694Y0055468D01*
X0031194Y0057968D01*
X0033694Y0060468D01*
X0033694Y0065468D01*
X0031194Y0067968D01*
X0033694Y0070468D01*
X0033694Y0075468D01*
X0031194Y0077968D01*
X0033694Y0080468D01*
X0033694Y0085468D01*
X0031194Y0087968D01*
X0033694Y0090468D01*
X0033694Y0095468D01*
X0031194Y0097968D01*
X0033694Y0100468D01*
X0033694Y0105468D01*
X0031194Y0107968D01*
X0033694Y0110468D01*
X0033694Y0115468D01*
X0031194Y0117968D01*
X0033694Y0120468D01*
X0033694Y0125468D01*
X0031194Y0127968D01*
X0033694Y0130468D01*
X0033694Y0135468D01*
X0031194Y0137968D01*
X0033694Y0140468D01*
X0033694Y0145468D01*
X0031194Y0147968D01*
X0033694Y0150468D01*
X0033694Y0155468D01*
X0031194Y0157968D01*
X0033694Y0160468D01*
X0033694Y0165468D01*
X0031194Y0167968D01*
X0033694Y0170468D01*
X0033694Y0175468D01*
X0031194Y0177968D01*
X0033694Y0180468D01*
X0033694Y0185468D01*
X0031194Y0187968D01*
X0033694Y0190468D01*
X0033694Y0195468D01*
X0031194Y0197968D01*
X0033694Y0200468D01*
X0033694Y0205468D01*
X0031194Y0207968D01*
X0033694Y0210468D01*
X0033694Y0215468D01*
X0031194Y0217968D01*
X0033694Y0220468D01*
X0033694Y0225468D01*
X0031194Y0227968D01*
X0033694Y0230468D01*
X0033694Y0235468D01*
X0031194Y0237968D01*
X0016194Y0237968D01*
X0013694Y0235468D01*
X0013694Y0230468D01*
X0016194Y0227968D01*
X0013694Y0225468D01*
X0013694Y0220468D01*
X0016194Y0217968D01*
X0013694Y0215468D01*
X0013694Y0210468D01*
X0016194Y0207968D01*
X0013694Y0205468D01*
X0013694Y0200468D01*
X0016194Y0197968D01*
X0013694Y0195468D01*
X0013694Y0190468D01*
X0016194Y0187968D01*
X0013694Y0185468D01*
X0013694Y0180468D01*
X0016194Y0177968D01*
X0013694Y0175468D01*
X0013694Y0170468D01*
X0016194Y0167968D01*
X0013694Y0165468D01*
X0013694Y0160468D01*
X0016194Y0157968D01*
X0013694Y0155468D01*
X0013694Y0150468D01*
X0016194Y0147968D01*
X0013694Y0145468D01*
X0013694Y0140468D01*
X0016194Y0137968D01*
X0013694Y0135468D01*
X0013694Y0130468D01*
X0016194Y0127968D01*
X0013694Y0125468D01*
X0013694Y0120468D01*
X0016194Y0117968D01*
X0013694Y0115468D01*
X0013694Y0110468D01*
X0016194Y0107968D01*
X0013694Y0105468D01*
X0013694Y0100468D01*
X0016194Y0097968D01*
X0013694Y0095468D01*
X0013694Y0090468D01*
X0016194Y0087968D01*
X0013694Y0085468D01*
X0013694Y0080468D01*
X0016194Y0077968D01*
X0013694Y0075468D01*
X0013694Y0070468D01*
X0016194Y0067968D01*
X0013694Y0065468D01*
X0013694Y0060468D01*
X0016194Y0057968D01*
X0013694Y0055468D01*
X0013694Y0050468D01*
X0016194Y0047968D01*
X0013694Y0045468D01*
X0013694Y0040468D01*
X0053300Y0040106D02*
X0055800Y0037606D01*
X0060800Y0037606D01*
X0063300Y0040106D01*
X0065800Y0037606D01*
X0070800Y0037606D01*
X0073300Y0040106D01*
X0073300Y0045106D01*
X0070800Y0047606D01*
X0065800Y0047606D01*
X0063300Y0045106D01*
X0063300Y0040106D01*
X0063300Y0045106D02*
X0060800Y0047606D01*
X0055800Y0047606D01*
X0053300Y0045106D01*
X0053300Y0040106D01*
X0055800Y0057606D02*
X0053300Y0060106D01*
X0053300Y0065106D01*
X0055800Y0067606D01*
X0060800Y0067606D01*
X0063300Y0065106D01*
X0065800Y0067606D01*
X0070800Y0067606D01*
X0073300Y0065106D01*
X0073300Y0060106D01*
X0070800Y0057606D01*
X0065800Y0057606D01*
X0063300Y0060106D01*
X0060800Y0057606D01*
X0055800Y0057606D01*
X0063300Y0060106D02*
X0063300Y0065106D01*
X0060800Y0077606D02*
X0055800Y0077606D01*
X0053300Y0080106D01*
X0053300Y0085106D01*
X0055800Y0087606D01*
X0060800Y0087606D01*
X0063300Y0085106D01*
X0065800Y0087606D01*
X0070800Y0087606D01*
X0073300Y0085106D01*
X0075800Y0087606D01*
X0080800Y0087606D01*
X0083300Y0085106D01*
X0085800Y0087606D01*
X0090800Y0087606D01*
X0093300Y0085106D01*
X0095800Y0087606D01*
X0100800Y0087606D01*
X0103300Y0085106D01*
X0105800Y0087606D01*
X0110800Y0087606D01*
X0113300Y0085106D01*
X0115800Y0087606D01*
X0120800Y0087606D01*
X0123300Y0085106D01*
X0125800Y0087606D01*
X0130800Y0087606D01*
X0133300Y0085106D01*
X0135800Y0087606D01*
X0140800Y0087606D01*
X0143300Y0085106D01*
X0143300Y0080106D01*
X0140800Y0077606D01*
X0135800Y0077606D01*
X0133300Y0080106D01*
X0130800Y0077606D01*
X0125800Y0077606D01*
X0123300Y0080106D01*
X0123300Y0085106D01*
X0123300Y0080106D02*
X0120800Y0077606D01*
X0115800Y0077606D01*
X0113300Y0080106D01*
X0110800Y0077606D01*
X0105800Y0077606D01*
X0103300Y0080106D01*
X0100800Y0077606D01*
X0095800Y0077606D01*
X0093300Y0080106D01*
X0093300Y0085106D01*
X0093300Y0080106D02*
X0090800Y0077606D01*
X0085800Y0077606D01*
X0083300Y0080106D01*
X0080800Y0077606D01*
X0075800Y0077606D01*
X0073300Y0080106D01*
X0070800Y0077606D01*
X0065800Y0077606D01*
X0063300Y0080106D01*
X0060800Y0077606D01*
X0063300Y0080106D02*
X0063300Y0085106D01*
X0060800Y0092606D02*
X0063300Y0095106D01*
X0063300Y0100106D01*
X0060800Y0102606D01*
X0063300Y0105106D01*
X0063300Y0110106D01*
X0060800Y0112606D01*
X0055800Y0112606D01*
X0053300Y0110106D01*
X0053300Y0105106D01*
X0055800Y0102606D01*
X0060800Y0102606D01*
X0055800Y0102606D02*
X0053300Y0100106D01*
X0053300Y0095106D01*
X0055800Y0092606D01*
X0060800Y0092606D01*
X0073300Y0085106D02*
X0073300Y0080106D01*
X0075800Y0067606D02*
X0080800Y0067606D01*
X0083300Y0065106D01*
X0085800Y0067606D01*
X0090800Y0067606D01*
X0093300Y0065106D01*
X0093300Y0060106D01*
X0090800Y0057606D01*
X0085800Y0057606D01*
X0083300Y0060106D01*
X0080800Y0057606D01*
X0075800Y0057606D01*
X0073300Y0060106D01*
X0073300Y0065106D02*
X0075800Y0067606D01*
X0083300Y0065106D02*
X0083300Y0060106D01*
X0080800Y0047606D02*
X0075800Y0047606D01*
X0073300Y0045106D01*
X0073300Y0040106D02*
X0075800Y0037606D01*
X0080800Y0037606D01*
X0083300Y0040106D01*
X0085800Y0037606D01*
X0090800Y0037606D01*
X0093300Y0040106D01*
X0093300Y0045106D01*
X0090800Y0047606D01*
X0085800Y0047606D01*
X0083300Y0045106D01*
X0083300Y0040106D01*
X0083300Y0045106D02*
X0080800Y0047606D01*
X0098300Y0045106D02*
X0098300Y0040106D01*
X0100800Y0037606D01*
X0105800Y0037606D01*
X0108300Y0040106D01*
X0110800Y0037606D01*
X0115800Y0037606D01*
X0118300Y0040106D01*
X0118300Y0045106D01*
X0115800Y0047606D01*
X0110800Y0047606D01*
X0108300Y0045106D01*
X0108300Y0040106D01*
X0108300Y0045106D02*
X0105800Y0047606D01*
X0100800Y0047606D01*
X0098300Y0045106D01*
X0100540Y0057446D02*
X0098040Y0059946D01*
X0098040Y0064946D01*
X0100540Y0067446D01*
X0105540Y0067446D01*
X0108040Y0064946D01*
X0110540Y0067446D01*
X0115540Y0067446D01*
X0118040Y0064946D01*
X0118040Y0059946D01*
X0115540Y0057446D01*
X0110540Y0057446D01*
X0108040Y0059946D01*
X0105540Y0057446D01*
X0100540Y0057446D01*
X0108040Y0059946D02*
X0108040Y0064946D01*
X0118040Y0064946D02*
X0120540Y0067446D01*
X0125540Y0067446D01*
X0128040Y0064946D01*
X0130540Y0067446D01*
X0135540Y0067446D01*
X0138040Y0064946D01*
X0138040Y0059946D01*
X0135540Y0057446D01*
X0130540Y0057446D01*
X0128040Y0059946D01*
X0125540Y0057446D01*
X0120540Y0057446D01*
X0118040Y0059946D01*
X0120800Y0047606D02*
X0125800Y0047606D01*
X0128300Y0045106D01*
X0130800Y0047606D01*
X0135800Y0047606D01*
X0138300Y0045106D01*
X0138300Y0040106D01*
X0135800Y0037606D01*
X0130800Y0037606D01*
X0128300Y0040106D01*
X0125800Y0037606D01*
X0120800Y0037606D01*
X0118300Y0040106D01*
X0118300Y0045106D02*
X0120800Y0047606D01*
X0128300Y0045106D02*
X0128300Y0040106D01*
X0128040Y0059946D02*
X0128040Y0064946D01*
X0133300Y0080106D02*
X0133300Y0085106D01*
X0113300Y0085106D02*
X0113300Y0080106D01*
X0103300Y0080106D02*
X0103300Y0085106D01*
X0083300Y0085106D02*
X0083300Y0080106D01*
X0060800Y0112606D02*
X0063300Y0115106D01*
X0063300Y0120106D01*
X0060800Y0122606D01*
X0063300Y0125106D01*
X0063300Y0130106D01*
X0060800Y0132606D01*
X0063300Y0135106D01*
X0063300Y0140106D01*
X0060800Y0142606D01*
X0055800Y0142606D01*
X0053300Y0140106D01*
X0053300Y0135106D01*
X0055800Y0132606D01*
X0060800Y0132606D01*
X0055800Y0132606D02*
X0053300Y0130106D01*
X0053300Y0125106D01*
X0055800Y0122606D01*
X0060800Y0122606D01*
X0055800Y0122606D02*
X0053300Y0120106D01*
X0053300Y0115106D01*
X0055800Y0112606D01*
X0055800Y0142606D02*
X0053300Y0145106D01*
X0053300Y0150106D01*
X0055800Y0152606D01*
X0053300Y0155106D01*
X0053300Y0160106D01*
X0055800Y0162606D01*
X0053300Y0165106D01*
X0053300Y0170106D01*
X0055800Y0172606D01*
X0060800Y0172606D01*
X0063300Y0170106D01*
X0063300Y0165106D01*
X0060800Y0162606D01*
X0063300Y0160106D01*
X0063300Y0155106D01*
X0060800Y0152606D01*
X0063300Y0150106D01*
X0063300Y0145106D01*
X0060800Y0142606D01*
X0060800Y0152606D02*
X0055800Y0152606D01*
X0055800Y0162606D02*
X0060800Y0162606D01*
X0060800Y0175606D02*
X0058300Y0178106D01*
X0055800Y0175606D01*
X0050800Y0175606D01*
X0048300Y0178106D01*
X0048300Y0183106D01*
X0050800Y0185606D01*
X0055800Y0185606D01*
X0058300Y0183106D01*
X0060800Y0185606D01*
X0065800Y0185606D01*
X0068300Y0183106D01*
X0068300Y0178106D01*
X0065800Y0175606D01*
X0060800Y0175606D01*
X0058300Y0178106D02*
X0058300Y0183106D01*
X0055800Y0190606D02*
X0050800Y0190606D01*
X0048300Y0193106D01*
X0048300Y0198106D01*
X0050800Y0200606D01*
X0055800Y0200606D01*
X0058300Y0198106D01*
X0060800Y0200606D01*
X0065800Y0200606D01*
X0068300Y0198106D01*
X0068300Y0193106D01*
X0065800Y0190606D01*
X0060800Y0190606D01*
X0058300Y0193106D01*
X0055800Y0190606D01*
X0058300Y0193106D02*
X0058300Y0198106D01*
X0068300Y0198106D02*
X0070800Y0200606D01*
X0075800Y0200606D01*
X0078300Y0198106D01*
X0080800Y0200606D01*
X0085800Y0200606D01*
X0088300Y0198106D01*
X0090800Y0200606D01*
X0095800Y0200606D01*
X0098300Y0198106D01*
X0100800Y0200606D01*
X0105800Y0200606D01*
X0108300Y0198106D01*
X0108300Y0193106D01*
X0105800Y0190606D01*
X0100800Y0190606D01*
X0098300Y0193106D01*
X0095800Y0190606D01*
X0090800Y0190606D01*
X0088300Y0193106D01*
X0085800Y0190606D01*
X0080800Y0190606D01*
X0078300Y0193106D01*
X0075800Y0190606D01*
X0070800Y0190606D01*
X0068300Y0193106D01*
X0070800Y0185606D02*
X0075800Y0185606D01*
X0078300Y0183106D01*
X0080800Y0185606D01*
X0085800Y0185606D01*
X0088300Y0183106D01*
X0090800Y0185606D01*
X0095800Y0185606D01*
X0098300Y0183106D01*
X0100800Y0185606D01*
X0105800Y0185606D01*
X0108300Y0183106D01*
X0108300Y0178106D01*
X0105800Y0175606D01*
X0100800Y0175606D01*
X0098300Y0178106D01*
X0095800Y0175606D01*
X0090800Y0175606D01*
X0088300Y0178106D01*
X0085800Y0175606D01*
X0080800Y0175606D01*
X0078300Y0178106D01*
X0075800Y0175606D01*
X0070800Y0175606D01*
X0068300Y0178106D01*
X0068300Y0183106D02*
X0070800Y0185606D01*
X0078300Y0183106D02*
X0078300Y0178106D01*
X0088300Y0178106D02*
X0088300Y0183106D01*
X0088300Y0193106D02*
X0088300Y0198106D01*
X0078300Y0198106D02*
X0078300Y0193106D01*
X0098300Y0193106D02*
X0098300Y0198106D01*
X0098300Y0183106D02*
X0098300Y0178106D01*
X0081040Y0253946D02*
X0076040Y0253946D01*
X0073540Y0256446D01*
X0071040Y0253946D01*
X0066040Y0253946D01*
X0063540Y0256446D01*
X0063540Y0261446D01*
X0066040Y0263946D01*
X0071040Y0263946D01*
X0073540Y0261446D01*
X0076040Y0263946D01*
X0081040Y0263946D01*
X0083540Y0261446D01*
X0083540Y0256446D01*
X0081040Y0253946D01*
X0073540Y0256446D02*
X0073540Y0261446D01*
X0075800Y0267606D02*
X0073300Y0270106D01*
X0070800Y0267606D01*
X0065800Y0267606D01*
X0063300Y0270106D01*
X0063300Y0275106D01*
X0065800Y0277606D01*
X0070800Y0277606D01*
X0073300Y0275106D01*
X0075800Y0277606D01*
X0080800Y0277606D01*
X0083300Y0275106D01*
X0083300Y0270106D01*
X0080800Y0267606D01*
X0075800Y0267606D01*
X0073300Y0270106D02*
X0073300Y0275106D01*
X0088300Y0275106D02*
X0088300Y0270106D01*
X0090800Y0267606D01*
X0095800Y0267606D01*
X0098300Y0270106D01*
X0100800Y0267606D01*
X0105800Y0267606D01*
X0108300Y0270106D01*
X0108300Y0275106D01*
X0105800Y0277606D01*
X0100800Y0277606D01*
X0098300Y0275106D01*
X0098300Y0270106D01*
X0098300Y0275106D02*
X0095800Y0277606D01*
X0090800Y0277606D01*
X0088300Y0275106D01*
X0108300Y0275106D02*
X0110800Y0277606D01*
X0115800Y0277606D01*
X0118300Y0275106D01*
X0120800Y0277606D01*
X0125800Y0277606D01*
X0128300Y0275106D01*
X0128300Y0270106D01*
X0125800Y0267606D01*
X0120800Y0267606D01*
X0118300Y0270106D01*
X0115800Y0267606D01*
X0110800Y0267606D01*
X0108300Y0270106D01*
X0118300Y0270106D02*
X0118300Y0275106D01*
X0033694Y0185468D02*
X0033694Y0180468D01*
X0031194Y0107968D02*
X0033694Y0105468D01*
D520*
X0047763Y0067048D02*
X0046996Y0066281D01*
X0046996Y0064746D01*
X0047763Y0063979D01*
X0050833Y0063979D01*
X0051600Y0064746D01*
X0051600Y0066281D01*
X0050833Y0067048D01*
X0051600Y0062444D02*
X0051600Y0059375D01*
X0048531Y0062444D01*
X0047763Y0062444D01*
X0046996Y0061677D01*
X0046996Y0060142D01*
X0047763Y0059375D01*
X0046996Y0057840D02*
X0046996Y0056306D01*
X0046996Y0057073D02*
X0051600Y0057073D01*
X0051600Y0056306D02*
X0051600Y0057840D01*
X0050833Y0049048D02*
X0051600Y0048281D01*
X0051600Y0046746D01*
X0050833Y0045979D01*
X0047763Y0045979D01*
X0046996Y0046746D01*
X0046996Y0048281D01*
X0047763Y0049048D01*
X0047763Y0044444D02*
X0046996Y0043677D01*
X0046996Y0042142D01*
X0047763Y0041375D01*
X0046996Y0039840D02*
X0046996Y0038306D01*
X0046996Y0039073D02*
X0051600Y0039073D01*
X0051600Y0038306D02*
X0051600Y0039840D01*
X0051600Y0041375D02*
X0048531Y0044444D01*
X0047763Y0044444D01*
X0051600Y0044444D02*
X0051600Y0041375D01*
X0052042Y0256146D02*
X0050507Y0256146D01*
X0049740Y0256913D01*
X0049740Y0259982D01*
X0050507Y0260750D01*
X0052042Y0260750D01*
X0052809Y0259982D01*
X0052809Y0258448D02*
X0051275Y0258448D01*
X0052809Y0258448D02*
X0052809Y0256913D01*
X0052042Y0256146D01*
X0054344Y0256146D02*
X0054344Y0260750D01*
X0057413Y0256146D01*
X0057413Y0260750D01*
X0058948Y0260750D02*
X0058948Y0256146D01*
X0061250Y0256146D01*
X0062017Y0256913D01*
X0062017Y0259982D01*
X0061250Y0260750D01*
X0058948Y0260750D01*
X0059975Y0270306D02*
X0059208Y0271073D01*
X0059975Y0270306D02*
X0061510Y0270306D01*
X0062277Y0271073D01*
X0062277Y0271840D01*
X0061510Y0272608D01*
X0060742Y0272608D01*
X0061510Y0272608D02*
X0062277Y0273375D01*
X0062277Y0274142D01*
X0061510Y0274910D01*
X0059975Y0274910D01*
X0059208Y0274142D01*
X0057673Y0274910D02*
X0057673Y0271840D01*
X0056139Y0270306D01*
X0054604Y0271840D01*
X0054604Y0274910D01*
X0053069Y0274142D02*
X0053069Y0273375D01*
X0052302Y0272608D01*
X0053069Y0271840D01*
X0053069Y0271073D01*
X0052302Y0270306D01*
X0050767Y0270306D01*
X0050000Y0271073D01*
X0051535Y0272608D02*
X0052302Y0272608D01*
X0053069Y0274142D02*
X0052302Y0274910D01*
X0050767Y0274910D01*
X0050000Y0274142D01*
X0099620Y0260030D02*
X0099620Y0256193D01*
X0100387Y0255426D01*
X0101922Y0255426D01*
X0102689Y0256193D01*
X0102689Y0260030D01*
X0104224Y0258495D02*
X0104224Y0255426D01*
X0104224Y0257728D02*
X0107293Y0257728D01*
X0107293Y0258495D02*
X0107293Y0255426D01*
X0108828Y0255426D02*
X0108828Y0260030D01*
X0111130Y0260030D01*
X0111897Y0259262D01*
X0111897Y0257728D01*
X0111130Y0256960D01*
X0108828Y0256960D01*
X0110362Y0256960D02*
X0111897Y0255426D01*
X0114966Y0255426D02*
X0114966Y0260030D01*
X0113432Y0260030D02*
X0116501Y0260030D01*
X0107293Y0258495D02*
X0105759Y0260030D01*
X0104224Y0258495D01*
D521*
X0032894Y0038070D02*
X0032896Y0038116D01*
X0032902Y0038162D01*
X0032912Y0038208D01*
X0032925Y0038252D01*
X0032943Y0038295D01*
X0032963Y0038337D01*
X0032988Y0038376D01*
X0033015Y0038414D01*
X0033046Y0038448D01*
X0033080Y0038481D01*
X0033116Y0038510D01*
X0033154Y0038536D01*
X0033195Y0038558D01*
X0033237Y0038578D01*
X0033281Y0038593D01*
X0033326Y0038605D01*
X0033372Y0038613D01*
X0033418Y0038617D01*
X0033464Y0038617D01*
X0033510Y0038613D01*
X0033556Y0038605D01*
X0033601Y0038593D01*
X0033645Y0038578D01*
X0033687Y0038558D01*
X0033728Y0038536D01*
X0033766Y0038510D01*
X0033802Y0038481D01*
X0033836Y0038448D01*
X0033867Y0038414D01*
X0033894Y0038376D01*
X0033919Y0038337D01*
X0033939Y0038295D01*
X0033957Y0038252D01*
X0033970Y0038208D01*
X0033980Y0038162D01*
X0033986Y0038116D01*
X0033988Y0038070D01*
X0033986Y0038024D01*
X0033980Y0037978D01*
X0033970Y0037932D01*
X0033957Y0037888D01*
X0033939Y0037845D01*
X0033919Y0037803D01*
X0033894Y0037764D01*
X0033867Y0037726D01*
X0033836Y0037692D01*
X0033802Y0037659D01*
X0033766Y0037630D01*
X0033728Y0037604D01*
X0033687Y0037582D01*
X0033645Y0037562D01*
X0033601Y0037547D01*
X0033556Y0037535D01*
X0033510Y0037527D01*
X0033464Y0037523D01*
X0033418Y0037523D01*
X0033372Y0037527D01*
X0033326Y0037535D01*
X0033281Y0037547D01*
X0033237Y0037562D01*
X0033195Y0037582D01*
X0033154Y0037604D01*
X0033116Y0037630D01*
X0033080Y0037659D01*
X0033046Y0037692D01*
X0033015Y0037726D01*
X0032988Y0037764D01*
X0032963Y0037803D01*
X0032943Y0037845D01*
X0032925Y0037888D01*
X0032912Y0037932D01*
X0032902Y0037978D01*
X0032896Y0038024D01*
X0032894Y0038070D01*
M02*
