G75*
%MOIN*%
%OFA0B0*%
%FSLAX24Y24*%
%IPPOS*%
%LPD*%
%AMOC8*
5,1,8,0,0,1.08239X$1,22.5*
%
%ADD10C,0.0030*%
%ADD11R,0.0010X0.0200*%
%ADD12R,0.0010X0.0350*%
%ADD13R,0.0010X0.0470*%
%ADD14R,0.0010X0.0550*%
%ADD15R,0.0010X0.0630*%
%ADD16R,0.0010X0.0690*%
%ADD17R,0.0010X0.0750*%
%ADD18R,0.0010X0.0800*%
%ADD19R,0.0010X0.0850*%
%ADD20R,0.0010X0.0900*%
%ADD21R,0.0010X0.0950*%
%ADD22R,0.0010X0.0990*%
%ADD23R,0.0010X0.1030*%
%ADD24R,0.0010X0.1070*%
%ADD25R,0.0010X0.1100*%
%ADD26R,0.0010X0.1140*%
%ADD27R,0.0010X0.1170*%
%ADD28R,0.0010X0.1200*%
%ADD29R,0.0010X0.1230*%
%ADD30R,0.0010X0.1270*%
%ADD31R,0.0010X0.1290*%
%ADD32R,0.0010X0.1320*%
%ADD33R,0.0010X0.1350*%
%ADD34R,0.0010X0.1370*%
%ADD35R,0.0010X0.1400*%
%ADD36R,0.0010X0.1430*%
%ADD37R,0.0010X0.1450*%
%ADD38R,0.0010X0.1470*%
%ADD39R,0.0010X0.1490*%
%ADD40R,0.0010X0.1500*%
%ADD41R,0.0010X0.0720*%
%ADD42R,0.0010X0.0660*%
%ADD43R,0.0010X0.0650*%
%ADD44R,0.0010X0.0570*%
%ADD45R,0.0010X0.0610*%
%ADD46R,0.0010X0.0520*%
%ADD47R,0.0010X0.0580*%
%ADD48R,0.0010X0.0560*%
%ADD49R,0.0010X0.0420*%
%ADD50R,0.0010X0.0540*%
%ADD51R,0.0010X0.0380*%
%ADD52R,0.0010X0.0510*%
%ADD53R,0.0010X0.0320*%
%ADD54R,0.0010X0.0500*%
%ADD55R,0.0010X0.0290*%
%ADD56R,0.0010X0.0490*%
%ADD57R,0.0010X0.0260*%
%ADD58R,0.0010X0.0010*%
%ADD59R,0.0010X0.0480*%
%ADD60R,0.0010X0.0230*%
%ADD61R,0.0010X0.0030*%
%ADD62R,0.0010X0.0050*%
%ADD63R,0.0010X0.0460*%
%ADD64R,0.0010X0.0170*%
%ADD65R,0.0010X0.0060*%
%ADD66R,0.0010X0.0450*%
%ADD67R,0.0010X0.0150*%
%ADD68R,0.0010X0.0080*%
%ADD69R,0.0010X0.0120*%
%ADD70R,0.0010X0.0100*%
%ADD71R,0.0010X0.0430*%
%ADD72R,0.0010X0.0140*%
%ADD73R,0.0010X0.0410*%
%ADD74R,0.0010X0.0190*%
%ADD75R,0.0010X0.0400*%
%ADD76R,0.0010X0.0220*%
%ADD77R,0.0010X0.0250*%
%ADD78R,0.0010X0.0390*%
%ADD79R,0.0010X0.0270*%
%ADD80R,0.0010X0.0280*%
%ADD81R,0.0010X0.0300*%
%ADD82R,0.0010X0.0310*%
%ADD83R,0.0010X0.0330*%
%ADD84R,0.0010X0.0370*%
%ADD85R,0.0010X0.0340*%
%ADD86R,0.0010X0.0360*%
%ADD87R,0.0010X0.0240*%
%ADD88R,0.0010X0.0530*%
%ADD89R,0.0010X0.0670*%
%ADD90R,0.0010X0.0590*%
%ADD91R,0.0010X0.0680*%
%ADD92R,0.0010X0.0710*%
%ADD93R,0.0010X0.0730*%
%ADD94R,0.0010X0.0760*%
%ADD95R,0.0010X0.0700*%
%ADD96R,0.0010X0.0780*%
%ADD97R,0.0010X0.0790*%
%ADD98R,0.0010X0.0110*%
%ADD99R,0.0010X0.0090*%
%ADD100R,0.0010X0.0020*%
%ADD101R,0.0010X0.0040*%
%ADD102R,0.0010X0.0210*%
%ADD103R,0.0010X0.0600*%
%ADD104R,0.0010X0.0640*%
%ADD105R,0.0010X0.0130*%
%ADD106R,0.0010X0.0440*%
%ADD107R,0.0010X0.0740*%
%ADD108R,0.0010X0.0770*%
%ADD109R,0.0010X0.0810*%
%ADD110R,0.0010X0.0820*%
%ADD111R,0.0010X0.0830*%
%ADD112R,0.0010X0.0840*%
%ADD113R,0.0010X0.0860*%
%ADD114R,0.0010X0.0070*%
%ADD115R,0.0010X0.0180*%
%ADD116R,0.0010X0.0160*%
%ADD117R,0.0010X0.0870*%
%ADD118R,0.0010X0.0620*%
%ADD119R,0.0068X0.0004*%
%ADD120R,0.0148X0.0004*%
%ADD121R,0.0196X0.0004*%
%ADD122R,0.0236X0.0004*%
%ADD123R,0.0268X0.0004*%
%ADD124R,0.0296X0.0004*%
%ADD125R,0.0324X0.0004*%
%ADD126R,0.0348X0.0004*%
%ADD127R,0.0368X0.0004*%
%ADD128R,0.0392X0.0004*%
%ADD129R,0.0408X0.0004*%
%ADD130R,0.0428X0.0004*%
%ADD131R,0.0444X0.0004*%
%ADD132R,0.0464X0.0004*%
%ADD133R,0.0480X0.0004*%
%ADD134R,0.0496X0.0004*%
%ADD135R,0.0508X0.0004*%
%ADD136R,0.0524X0.0004*%
%ADD137R,0.0536X0.0004*%
%ADD138R,0.0552X0.0004*%
%ADD139R,0.0564X0.0004*%
%ADD140R,0.0576X0.0004*%
%ADD141R,0.0588X0.0004*%
%ADD142R,0.0600X0.0004*%
%ADD143R,0.0612X0.0004*%
%ADD144R,0.0624X0.0004*%
%ADD145R,0.0632X0.0004*%
%ADD146R,0.0644X0.0004*%
%ADD147R,0.0656X0.0004*%
%ADD148R,0.0664X0.0004*%
%ADD149R,0.0672X0.0004*%
%ADD150R,0.0684X0.0004*%
%ADD151R,0.0692X0.0004*%
%ADD152R,0.0700X0.0004*%
%ADD153R,0.0712X0.0004*%
%ADD154R,0.0720X0.0004*%
%ADD155R,0.0728X0.0004*%
%ADD156R,0.0736X0.0004*%
%ADD157R,0.0744X0.0004*%
%ADD158R,0.0328X0.0004*%
%ADD159R,0.0324X0.0004*%
%ADD160R,0.0308X0.0004*%
%ADD161R,0.0304X0.0004*%
%ADD162R,0.0292X0.0004*%
%ADD163R,0.0284X0.0004*%
%ADD164R,0.0280X0.0004*%
%ADD165R,0.0272X0.0004*%
%ADD166R,0.0272X0.0004*%
%ADD167R,0.0264X0.0004*%
%ADD168R,0.0256X0.0004*%
%ADD169R,0.0260X0.0004*%
%ADD170R,0.0252X0.0004*%
%ADD171R,0.0244X0.0004*%
%ADD172R,0.0244X0.0004*%
%ADD173R,0.0240X0.0004*%
%ADD174R,0.0236X0.0004*%
%ADD175R,0.0232X0.0004*%
%ADD176R,0.0228X0.0004*%
%ADD177R,0.0232X0.0004*%
%ADD178R,0.0224X0.0004*%
%ADD179R,0.0224X0.0004*%
%ADD180R,0.0220X0.0004*%
%ADD181R,0.0216X0.0004*%
%ADD182R,0.0212X0.0004*%
%ADD183R,0.0212X0.0004*%
%ADD184R,0.0208X0.0004*%
%ADD185R,0.0204X0.0004*%
%ADD186R,0.0204X0.0004*%
%ADD187R,0.0204X0.0004*%
%ADD188R,0.0204X0.0004*%
%ADD189R,0.0200X0.0004*%
%ADD190R,0.0216X0.0004*%
%ADD191R,0.0244X0.0004*%
%ADD192R,0.0240X0.0004*%
%ADD193R,0.0260X0.0004*%
%ADD194R,0.0276X0.0004*%
%ADD195R,0.0296X0.0004*%
%ADD196R,0.0304X0.0004*%
%ADD197R,0.0312X0.0004*%
%ADD198R,0.0316X0.0004*%
%ADD199R,0.0320X0.0004*%
%ADD200R,0.0332X0.0004*%
%ADD201R,0.0336X0.0004*%
%ADD202R,0.0340X0.0004*%
%ADD203R,0.0344X0.0004*%
%ADD204R,0.0344X0.0004*%
%ADD205R,0.0352X0.0004*%
%ADD206R,0.0356X0.0004*%
%ADD207R,0.0360X0.0004*%
%ADD208R,0.0360X0.0004*%
%ADD209R,0.0364X0.0004*%
%ADD210R,0.0372X0.0004*%
%ADD211R,0.0372X0.0004*%
%ADD212R,0.0380X0.0004*%
%ADD213R,0.0376X0.0004*%
%ADD214R,0.0380X0.0004*%
%ADD215R,0.0388X0.0004*%
%ADD216R,0.0384X0.0004*%
%ADD217R,0.0392X0.0004*%
%ADD218R,0.0396X0.0004*%
%ADD219R,0.0396X0.0004*%
%ADD220R,0.0400X0.0004*%
%ADD221R,0.0404X0.0004*%
%ADD222R,0.0404X0.0004*%
%ADD223R,0.0408X0.0004*%
%ADD224R,0.0412X0.0004*%
%ADD225R,0.0412X0.0004*%
%ADD226R,0.0164X0.0004*%
%ADD227R,0.0160X0.0004*%
%ADD228R,0.0248X0.0004*%
%ADD229R,0.0212X0.0004*%
%ADD230R,0.0160X0.0004*%
%ADD231R,0.0156X0.0004*%
%ADD232R,0.0192X0.0004*%
%ADD233R,0.0188X0.0004*%
%ADD234R,0.0156X0.0004*%
%ADD235R,0.0192X0.0004*%
%ADD236R,0.0188X0.0004*%
%ADD237R,0.0184X0.0004*%
%ADD238R,0.0180X0.0004*%
%ADD239R,0.0176X0.0004*%
%ADD240R,0.0176X0.0004*%
%ADD241R,0.0172X0.0004*%
%ADD242R,0.0168X0.0004*%
%ADD243R,0.0172X0.0004*%
%ADD244R,0.0152X0.0004*%
%ADD245R,0.0164X0.0004*%
%ADD246R,0.0152X0.0004*%
%ADD247R,0.0152X0.0004*%
%ADD248R,0.0148X0.0004*%
%ADD249R,0.0152X0.0004*%
%ADD250R,0.0144X0.0004*%
%ADD251R,0.0144X0.0004*%
%ADD252R,0.0140X0.0004*%
%ADD253R,0.0144X0.0004*%
%ADD254R,0.0140X0.0004*%
%ADD255R,0.0136X0.0004*%
%ADD256R,0.0132X0.0004*%
%ADD257R,0.0136X0.0004*%
%ADD258R,0.0132X0.0004*%
%ADD259R,0.0132X0.0004*%
%ADD260R,0.0132X0.0004*%
%ADD261R,0.0128X0.0004*%
%ADD262R,0.0128X0.0004*%
%ADD263R,0.0280X0.0004*%
%ADD264R,0.0312X0.0004*%
%ADD265R,0.0308X0.0004*%
%ADD266R,0.0124X0.0004*%
%ADD267R,0.0124X0.0004*%
%ADD268R,0.0336X0.0004*%
%ADD269R,0.0124X0.0004*%
%ADD270R,0.0400X0.0004*%
%ADD271R,0.0416X0.0004*%
%ADD272R,0.0420X0.0004*%
%ADD273R,0.0436X0.0004*%
%ADD274R,0.0456X0.0004*%
%ADD275R,0.0452X0.0004*%
%ADD276R,0.0472X0.0004*%
%ADD277R,0.0468X0.0004*%
%ADD278R,0.0488X0.0004*%
%ADD279R,0.0484X0.0004*%
%ADD280R,0.0504X0.0004*%
%ADD281R,0.0500X0.0004*%
%ADD282R,0.0512X0.0004*%
%ADD283R,0.0516X0.0004*%
%ADD284R,0.0120X0.0004*%
%ADD285R,0.0528X0.0004*%
%ADD286R,0.0544X0.0004*%
%ADD287R,0.0124X0.0004*%
%ADD288R,0.0556X0.0004*%
%ADD289R,0.0120X0.0004*%
%ADD290R,0.0568X0.0004*%
%ADD291R,0.0584X0.0004*%
%ADD292R,0.0580X0.0004*%
%ADD293R,0.0592X0.0004*%
%ADD294R,0.0592X0.0004*%
%ADD295R,0.0608X0.0004*%
%ADD296R,0.0604X0.0004*%
%ADD297R,0.0616X0.0004*%
%ADD298R,0.0624X0.0004*%
%ADD299R,0.0628X0.0004*%
%ADD300R,0.0640X0.0004*%
%ADD301R,0.0636X0.0004*%
%ADD302R,0.0648X0.0004*%
%ADD303R,0.0660X0.0004*%
%ADD304R,0.0668X0.0004*%
%ADD305R,0.0680X0.0004*%
%ADD306R,0.0676X0.0004*%
%ADD307R,0.0688X0.0004*%
%ADD308R,0.0696X0.0004*%
%ADD309R,0.0704X0.0004*%
%ADD310R,0.0712X0.0004*%
%ADD311R,0.0716X0.0004*%
%ADD312R,0.0720X0.0004*%
%ADD313R,0.0724X0.0004*%
%ADD314R,0.0116X0.0004*%
%ADD315R,0.0732X0.0004*%
%ADD316R,0.0740X0.0004*%
%ADD317R,0.0116X0.0004*%
%ADD318R,0.0312X0.0004*%
%ADD319R,0.0316X0.0004*%
%ADD320R,0.0300X0.0004*%
%ADD321R,0.0288X0.0004*%
%ADD322R,0.0256X0.0004*%
%ADD323R,0.0484X0.0004*%
%ADD324R,0.0352X0.0004*%
%ADD325R,0.0344X0.0004*%
%ADD326R,0.0452X0.0004*%
%ADD327R,0.0348X0.0004*%
%ADD328R,0.0440X0.0004*%
%ADD329R,0.0424X0.0004*%
%ADD330R,0.0412X0.0004*%
%ADD331R,0.0388X0.0004*%
%ADD332R,0.0304X0.0004*%
%ADD333R,0.0364X0.0004*%
%ADD334R,0.0292X0.0004*%
%ADD335R,0.0332X0.0004*%
%ADD336R,0.0292X0.0004*%
%ADD337R,0.0300X0.0004*%
%ADD338R,0.0288X0.0004*%
%ADD339R,0.0304X0.0004*%
%ADD340R,0.0248X0.0004*%
%ADD341R,0.0320X0.0004*%
%ADD342R,0.0328X0.0004*%
%ADD343R,0.0172X0.0004*%
%ADD344R,0.0168X0.0004*%
%ADD345R,0.0164X0.0004*%
%ADD346R,0.0284X0.0004*%
%ADD347R,0.0332X0.0004*%
%ADD348R,0.0376X0.0004*%
%ADD349R,0.0428X0.0004*%
%ADD350R,0.0224X0.0004*%
%ADD351R,0.0488X0.0004*%
%ADD352R,0.0504X0.0004*%
%ADD353R,0.0364X0.0004*%
%ADD354R,0.0504X0.0004*%
%ADD355R,0.0520X0.0004*%
%ADD356R,0.0532X0.0004*%
%ADD357R,0.0548X0.0004*%
%ADD358R,0.0432X0.0004*%
%ADD359R,0.0544X0.0004*%
%ADD360R,0.0560X0.0004*%
%ADD361R,0.0448X0.0004*%
%ADD362R,0.0572X0.0004*%
%ADD363R,0.0468X0.0004*%
%ADD364R,0.0584X0.0004*%
%ADD365R,0.0596X0.0004*%
%ADD366R,0.0620X0.0004*%
%ADD367R,0.0632X0.0004*%
%ADD368R,0.0552X0.0004*%
%ADD369R,0.0564X0.0004*%
%ADD370R,0.0652X0.0004*%
%ADD371R,0.0672X0.0004*%
%ADD372R,0.0680X0.0004*%
%ADD373R,0.0620X0.0004*%
%ADD374R,0.0828X0.0004*%
%ADD375R,0.0824X0.0004*%
%ADD376R,0.0832X0.0004*%
%ADD377R,0.0668X0.0004*%
%ADD378R,0.0836X0.0004*%
%ADD379R,0.2368X0.0004*%
%ADD380R,0.0432X0.0004*%
%ADD381R,0.1340X0.0004*%
%ADD382R,0.1288X0.0004*%
%ADD383R,0.0384X0.0004*%
%ADD384R,0.1248X0.0004*%
%ADD385R,0.0384X0.0004*%
%ADD386R,0.1216X0.0004*%
%ADD387R,0.1192X0.0004*%
%ADD388R,0.1168X0.0004*%
%ADD389R,0.1148X0.0004*%
%ADD390R,0.1128X0.0004*%
%ADD391R,0.1112X0.0004*%
%ADD392R,0.0492X0.0004*%
%ADD393R,0.0460X0.0004*%
%ADD394R,0.0276X0.0004*%
%ADD395R,0.0252X0.0004*%
%ADD396R,0.0324X0.0004*%
%ADD397R,0.0232X0.0004*%
%ADD398R,0.0212X0.0004*%
%ADD399R,0.0192X0.0004*%
%ADD400R,0.0220X0.0004*%
%ADD401R,0.0196X0.0004*%
%ADD402R,0.0192X0.0004*%
%ADD403R,0.0184X0.0004*%
%ADD404R,0.0208X0.0004*%
%ADD405R,0.0184X0.0004*%
%ADD406R,0.0184X0.0004*%
%ADD407R,0.0200X0.0004*%
%ADD408R,0.0180X0.0004*%
%ADD409R,0.0044X0.0004*%
%ADD410R,0.0040X0.0004*%
%ADD411R,0.0068X0.0004*%
%ADD412R,0.0060X0.0004*%
%ADD413R,0.0064X0.0004*%
%ADD414R,0.0104X0.0004*%
%ADD415R,0.0076X0.0004*%
%ADD416R,0.0080X0.0004*%
%ADD417R,0.0172X0.0004*%
%ADD418R,0.0088X0.0004*%
%ADD419R,0.0100X0.0004*%
%ADD420R,0.0096X0.0004*%
%ADD421R,0.0108X0.0004*%
%ADD422R,0.0104X0.0004*%
%ADD423R,0.0112X0.0004*%
%ADD424R,0.0164X0.0004*%
%ADD425R,0.0264X0.0004*%
%ADD426R,0.0268X0.0004*%
%ADD427R,0.0092X0.0004*%
%ADD428R,0.0048X0.0004*%
%ADD429R,0.0112X0.0004*%
%ADD430R,0.0036X0.0004*%
%ADD431R,0.0032X0.0004*%
%ADD432R,0.0044X0.0004*%
%ADD433R,0.0084X0.0004*%
%ADD434R,0.0088X0.0004*%
%ADD435R,0.0096X0.0004*%
%ADD436R,0.0100X0.0004*%
%ADD437R,0.0244X0.0004*%
%ADD438R,0.0476X0.0004*%
%ADD439R,0.0484X0.0004*%
%ADD440R,0.0492X0.0004*%
%ADD441R,0.0496X0.0004*%
%ADD442R,0.0500X0.0004*%
%ADD443R,0.0512X0.0004*%
%ADD444R,0.0444X0.0004*%
%ADD445R,0.0528X0.0004*%
%ADD446R,0.0448X0.0004*%
%ADD447R,0.0520X0.0004*%
%ADD448R,0.0524X0.0004*%
%ADD449R,0.0524X0.0004*%
%ADD450R,0.0556X0.0004*%
%ADD451R,0.0532X0.0004*%
%ADD452R,0.0564X0.0004*%
%ADD453R,0.0572X0.0004*%
%ADD454R,0.0480X0.0004*%
%ADD455R,0.0540X0.0004*%
%ADD456R,0.0224X0.0004*%
%ADD457R,0.0540X0.0004*%
%ADD458R,0.0604X0.0004*%
%ADD459R,0.0552X0.0004*%
%ADD460R,0.0616X0.0004*%
%ADD461R,0.0632X0.0004*%
%ADD462R,0.0264X0.0004*%
%ADD463R,0.0228X0.0004*%
%ADD464R,0.0232X0.0004*%
%ADD465R,0.0252X0.0004*%
%ADD466R,0.0008X0.0004*%
%ADD467R,0.0272X0.0004*%
%ADD468R,0.0772X0.0004*%
%ADD469R,0.0772X0.0004*%
%ADD470R,0.0772X0.0004*%
%ADD471R,0.0768X0.0004*%
%ADD472R,0.0768X0.0004*%
%ADD473R,0.0772X0.0004*%
%ADD474R,0.0432X0.0004*%
%ADD475R,0.0476X0.0004*%
%ADD476R,0.0504X0.0004*%
%ADD477R,0.0460X0.0004*%
%ADD478R,0.0424X0.0004*%
%ADD479R,0.0384X0.0004*%
%ADD480R,0.0364X0.0004*%
%ADD481R,0.0544X0.0004*%
%ADD482R,0.0564X0.0004*%
%ADD483R,0.0372X0.0004*%
%ADD484R,0.0032X0.0004*%
%ADD485R,0.0572X0.0004*%
%ADD486R,0.0580X0.0004*%
%ADD487R,0.0392X0.0004*%
%ADD488R,0.0592X0.0004*%
%ADD489R,0.0092X0.0004*%
%ADD490R,0.0064X0.0004*%
%ADD491R,0.0044X0.0004*%
%ADD492R,0.0552X0.0004*%
%ADD493R,0.0548X0.0004*%
%ADD494R,0.0536X0.0004*%
%ADD495R,0.0516X0.0004*%
%ADD496R,0.0492X0.0004*%
%ADD497R,0.0284X0.0004*%
%ADD498R,0.0084X0.0004*%
%ADD499R,0.0084X0.0004*%
%ADD500R,0.0080X0.0004*%
%ADD501R,0.0072X0.0004*%
%ADD502R,0.0052X0.0004*%
%ADD503R,0.0052X0.0004*%
%ADD504R,0.0012X0.0004*%
%ADD505R,0.0012X0.0004*%
%ADD506R,0.0112X0.0004*%
%ADD507R,0.0024X0.0004*%
%ADD508R,0.0028X0.0004*%
%ADD509R,0.0016X0.0004*%
%ADD510R,0.0084X0.0004*%
%ADD511R,0.0092X0.0004*%
%ADD512R,0.0252X0.0004*%
%ADD513R,0.0512X0.0004*%
%ADD514R,0.0040X0.0004*%
%ADD515R,0.0072X0.0004*%
%ADD516R,0.0056X0.0004*%
%ADD517R,0.0028X0.0004*%
%ADD518C,0.0100*%
%ADD519C,0.0060*%
%ADD520C,0.0040*%
%ADD521C,0.0050*%
D10*
X004813Y007775D02*
X005007Y007775D01*
X005055Y007824D01*
X005055Y007920D01*
X005007Y007969D01*
X004910Y007969D01*
X004910Y007872D01*
X004813Y007969D02*
X004765Y007920D01*
X004765Y007824D01*
X004813Y007775D01*
X004765Y008070D02*
X004765Y008215D01*
X004813Y008263D01*
X004910Y008263D01*
X004958Y008215D01*
X004958Y008070D01*
X005055Y008070D02*
X004765Y008070D01*
X004765Y008364D02*
X004765Y008461D01*
X004765Y008413D02*
X005055Y008413D01*
X005055Y008461D02*
X005055Y008364D01*
X005007Y008561D02*
X005055Y008609D01*
X005055Y008706D01*
X005007Y008754D01*
X004813Y008754D01*
X004765Y008706D01*
X004765Y008609D01*
X004813Y008561D01*
X005007Y008561D01*
X005642Y007516D02*
X005642Y007226D01*
X005738Y007226D02*
X005545Y007226D01*
X005545Y007419D02*
X005642Y007516D01*
X005840Y007467D02*
X005840Y007419D01*
X005888Y007371D01*
X006033Y007371D01*
X006033Y007467D02*
X006033Y007274D01*
X005985Y007226D01*
X005888Y007226D01*
X005840Y007274D01*
X005840Y007467D02*
X005888Y007516D01*
X005985Y007516D01*
X006033Y007467D01*
X006545Y007419D02*
X006642Y007516D01*
X006642Y007226D01*
X006738Y007226D02*
X006545Y007226D01*
X006840Y007274D02*
X006840Y007322D01*
X006888Y007371D01*
X006985Y007371D01*
X007033Y007322D01*
X007033Y007274D01*
X006985Y007226D01*
X006888Y007226D01*
X006840Y007274D01*
X006888Y007371D02*
X006840Y007419D01*
X006840Y007467D01*
X006888Y007516D01*
X006985Y007516D01*
X007033Y007467D01*
X007033Y007419D01*
X006985Y007371D01*
X007545Y007419D02*
X007642Y007516D01*
X007642Y007226D01*
X007738Y007226D02*
X007545Y007226D01*
X007840Y007226D02*
X007840Y007274D01*
X008033Y007467D01*
X008033Y007516D01*
X007840Y007516D01*
X008545Y007419D02*
X008642Y007516D01*
X008642Y007226D01*
X008738Y007226D02*
X008545Y007226D01*
X008840Y007274D02*
X008888Y007226D01*
X008985Y007226D01*
X009033Y007274D01*
X009033Y007322D01*
X008985Y007371D01*
X008840Y007371D01*
X008840Y007274D01*
X008840Y007371D02*
X008936Y007467D01*
X009033Y007516D01*
X009545Y007419D02*
X009642Y007516D01*
X009642Y007226D01*
X009738Y007226D02*
X009545Y007226D01*
X009840Y007274D02*
X009888Y007226D01*
X009985Y007226D01*
X010033Y007274D01*
X010033Y007322D01*
X009985Y007371D01*
X009936Y007371D01*
X009985Y007371D02*
X010033Y007419D01*
X010033Y007467D01*
X009985Y007516D01*
X009888Y007516D01*
X009840Y007467D01*
X010545Y007419D02*
X010642Y007516D01*
X010642Y007226D01*
X010738Y007226D02*
X010545Y007226D01*
X010840Y007226D02*
X011033Y007419D01*
X011033Y007467D01*
X010985Y007516D01*
X010888Y007516D01*
X010840Y007467D01*
X010840Y007226D02*
X011033Y007226D01*
X011545Y007274D02*
X011738Y007467D01*
X011738Y007274D01*
X011690Y007226D01*
X011593Y007226D01*
X011545Y007274D01*
X011545Y007467D01*
X011593Y007516D01*
X011690Y007516D01*
X011738Y007467D01*
X011840Y007371D02*
X011985Y007371D01*
X012033Y007322D01*
X012033Y007274D01*
X011985Y007226D01*
X011888Y007226D01*
X011840Y007274D01*
X011840Y007371D01*
X011936Y007467D01*
X012033Y007516D01*
X012545Y007467D02*
X012545Y007274D01*
X012738Y007467D01*
X012738Y007274D01*
X012690Y007226D01*
X012593Y007226D01*
X012545Y007274D01*
X012545Y007467D02*
X012593Y007516D01*
X012690Y007516D01*
X012738Y007467D01*
X012840Y007516D02*
X012840Y007371D01*
X012936Y007419D01*
X012985Y007419D01*
X013033Y007371D01*
X013033Y007274D01*
X012985Y007226D01*
X012888Y007226D01*
X012840Y007274D01*
X012840Y007516D02*
X013033Y007516D01*
X013545Y007467D02*
X013545Y007274D01*
X013738Y007467D01*
X013738Y007274D01*
X013690Y007226D01*
X013593Y007226D01*
X013545Y007274D01*
X013545Y007467D02*
X013593Y007516D01*
X013690Y007516D01*
X013738Y007467D01*
X013840Y007371D02*
X014033Y007371D01*
X013985Y007226D02*
X013985Y007516D01*
X013840Y007371D01*
X013899Y006448D02*
X014092Y006448D01*
X014189Y006351D01*
X014092Y006254D01*
X013899Y006254D01*
X013899Y006153D02*
X013899Y005960D01*
X014044Y005960D01*
X013996Y006056D01*
X013996Y006105D01*
X014044Y006153D01*
X014141Y006153D01*
X014189Y006105D01*
X014189Y006008D01*
X014141Y005960D01*
X014167Y004558D02*
X013973Y004558D01*
X013925Y004510D01*
X013925Y004365D01*
X014215Y004365D01*
X014215Y004510D01*
X014167Y004558D01*
X014215Y004264D02*
X013925Y004070D01*
X014215Y004070D01*
X014167Y003969D02*
X014215Y003921D01*
X014215Y003824D01*
X014167Y003776D01*
X013973Y003776D01*
X013925Y003824D01*
X013925Y003921D01*
X013973Y003969D01*
X014070Y003969D02*
X014070Y003872D01*
X014070Y003969D02*
X014167Y003969D01*
X014215Y004264D02*
X013925Y004264D01*
X009302Y005060D02*
X009108Y005060D01*
X009108Y005350D01*
X009007Y005301D02*
X008959Y005350D01*
X008862Y005350D01*
X008814Y005301D01*
X008814Y005108D01*
X008862Y005060D01*
X008959Y005060D01*
X009007Y005108D01*
X008712Y005108D02*
X008664Y005060D01*
X008567Y005060D01*
X008519Y005108D01*
X008567Y005205D02*
X008664Y005205D01*
X008712Y005156D01*
X008712Y005108D01*
X008567Y005205D02*
X008519Y005253D01*
X008519Y005301D01*
X008567Y005350D01*
X008664Y005350D01*
X008712Y005301D01*
X008202Y005253D02*
X008202Y005060D01*
X008202Y005205D02*
X008008Y005205D01*
X008008Y005253D02*
X008105Y005350D01*
X008202Y005253D01*
X008008Y005253D02*
X008008Y005060D01*
X007907Y005108D02*
X007907Y005301D01*
X007859Y005350D01*
X007714Y005350D01*
X007714Y005060D01*
X007859Y005060D01*
X007907Y005108D01*
X007612Y005108D02*
X007564Y005060D01*
X007467Y005060D01*
X007419Y005108D01*
X007467Y005205D02*
X007419Y005253D01*
X007419Y005301D01*
X007467Y005350D01*
X007564Y005350D01*
X007612Y005301D01*
X007564Y005205D02*
X007612Y005156D01*
X007612Y005108D01*
X007564Y005205D02*
X007467Y005205D01*
X007007Y005156D02*
X007007Y005350D01*
X006814Y005350D02*
X006814Y005156D01*
X006910Y005060D01*
X007007Y005156D01*
X006712Y005108D02*
X006664Y005060D01*
X006567Y005060D01*
X006519Y005108D01*
X006519Y005205D02*
X006616Y005253D01*
X006664Y005253D01*
X006712Y005205D01*
X006712Y005108D01*
X006519Y005205D02*
X006519Y005350D01*
X006712Y005350D01*
X006152Y005301D02*
X006103Y005350D01*
X005958Y005350D01*
X005958Y005060D01*
X006103Y005060D01*
X006152Y005108D01*
X006152Y005301D01*
X005857Y005350D02*
X005857Y005060D01*
X005664Y005350D01*
X005664Y005060D01*
X005562Y005108D02*
X005562Y005205D01*
X005466Y005205D01*
X005562Y005301D02*
X005514Y005350D01*
X005417Y005350D01*
X005369Y005301D01*
X005369Y005108D01*
X005417Y005060D01*
X005514Y005060D01*
X005562Y005108D01*
X006595Y009626D02*
X006788Y009819D01*
X006788Y009867D01*
X006740Y009916D01*
X006643Y009916D01*
X006595Y009867D01*
X006595Y009626D02*
X006788Y009626D01*
X006890Y009674D02*
X007083Y009867D01*
X007083Y009674D01*
X007035Y009626D01*
X006938Y009626D01*
X006890Y009674D01*
X006890Y009867D01*
X006938Y009916D01*
X007035Y009916D01*
X007083Y009867D01*
X007083Y010626D02*
X006890Y010626D01*
X006986Y010626D02*
X006986Y010916D01*
X006890Y010819D01*
X006788Y010819D02*
X006788Y010867D01*
X006740Y010916D01*
X006643Y010916D01*
X006595Y010867D01*
X006788Y010819D02*
X006595Y010626D01*
X006788Y010626D01*
X006788Y011626D02*
X006595Y011626D01*
X006788Y011819D01*
X006788Y011867D01*
X006740Y011916D01*
X006643Y011916D01*
X006595Y011867D01*
X006890Y011867D02*
X006938Y011916D01*
X007035Y011916D01*
X007083Y011867D01*
X007083Y011819D01*
X006890Y011626D01*
X007083Y011626D01*
X007035Y012626D02*
X006938Y012626D01*
X006890Y012674D01*
X006788Y012626D02*
X006595Y012626D01*
X006788Y012819D01*
X006788Y012867D01*
X006740Y012916D01*
X006643Y012916D01*
X006595Y012867D01*
X006890Y012867D02*
X006938Y012916D01*
X007035Y012916D01*
X007083Y012867D01*
X007083Y012819D01*
X007035Y012771D01*
X007083Y012722D01*
X007083Y012674D01*
X007035Y012626D01*
X007035Y012771D02*
X006986Y012771D01*
X007035Y013626D02*
X007035Y013916D01*
X006890Y013771D01*
X007083Y013771D01*
X006788Y013819D02*
X006788Y013867D01*
X006740Y013916D01*
X006643Y013916D01*
X006595Y013867D01*
X006788Y013819D02*
X006595Y013626D01*
X006788Y013626D01*
X006788Y014626D02*
X006595Y014626D01*
X006788Y014819D01*
X006788Y014867D01*
X006740Y014916D01*
X006643Y014916D01*
X006595Y014867D01*
X006890Y014916D02*
X006890Y014771D01*
X006986Y014819D01*
X007035Y014819D01*
X007083Y014771D01*
X007083Y014674D01*
X007035Y014626D01*
X006938Y014626D01*
X006890Y014674D01*
X006890Y014916D02*
X007083Y014916D01*
X007035Y015626D02*
X006938Y015626D01*
X006890Y015674D01*
X006890Y015771D01*
X007035Y015771D01*
X007083Y015722D01*
X007083Y015674D01*
X007035Y015626D01*
X006890Y015771D02*
X006986Y015867D01*
X007083Y015916D01*
X006788Y015867D02*
X006740Y015916D01*
X006643Y015916D01*
X006595Y015867D01*
X006788Y015867D02*
X006788Y015819D01*
X006595Y015626D01*
X006788Y015626D01*
X006788Y016626D02*
X006595Y016626D01*
X006788Y016819D01*
X006788Y016867D01*
X006740Y016916D01*
X006643Y016916D01*
X006595Y016867D01*
X006890Y016916D02*
X007083Y016916D01*
X007083Y016867D01*
X006890Y016674D01*
X006890Y016626D01*
X005031Y015786D02*
X004983Y015834D01*
X004789Y015834D01*
X004741Y015786D01*
X004741Y015689D01*
X004789Y015641D01*
X004983Y015641D01*
X005031Y015689D01*
X005031Y015786D01*
X005031Y015541D02*
X005031Y015444D01*
X005031Y015493D02*
X004741Y015493D01*
X004741Y015541D02*
X004741Y015444D01*
X004789Y015343D02*
X004886Y015343D01*
X004934Y015295D01*
X004934Y015150D01*
X005031Y015150D02*
X004741Y015150D01*
X004741Y015295D01*
X004789Y015343D01*
X004789Y015049D02*
X004741Y015000D01*
X004741Y014904D01*
X004789Y014855D01*
X004983Y014855D01*
X005031Y014904D01*
X005031Y015000D01*
X004983Y015049D01*
X004886Y015049D01*
X004886Y014952D01*
X005246Y020266D02*
X005314Y020266D01*
X005383Y020334D01*
X005383Y020403D01*
X005314Y020471D01*
X005246Y020403D01*
X005246Y020540D02*
X005177Y020540D01*
X005109Y020471D01*
X005109Y020403D01*
X005246Y020266D01*
X005488Y020440D02*
X005283Y020645D01*
X005625Y020577D01*
X005420Y020782D01*
X005491Y020854D02*
X005594Y020956D01*
X005662Y020956D01*
X005799Y020820D01*
X005799Y020751D01*
X005697Y020648D01*
X005491Y020854D01*
X006075Y020437D02*
X006177Y020334D01*
X006212Y020437D01*
X006246Y020471D01*
X006314Y020471D01*
X006383Y020403D01*
X006383Y020334D01*
X006314Y020266D01*
X006246Y020266D01*
X006075Y020437D02*
X006212Y020574D01*
X006283Y020645D02*
X006420Y020509D01*
X006557Y020509D01*
X006557Y020645D01*
X006420Y020782D01*
X007109Y020471D02*
X007109Y020403D01*
X007246Y020266D01*
X007314Y020266D01*
X007383Y020334D01*
X007383Y020403D01*
X007488Y020440D02*
X007283Y020645D01*
X007420Y020782D01*
X007526Y020820D02*
X007526Y020888D01*
X007594Y020956D01*
X007662Y020956D01*
X007662Y020683D01*
X007731Y020683D01*
X007799Y020751D01*
X007799Y020820D01*
X007662Y020956D01*
X007526Y020820D02*
X007662Y020683D01*
X007625Y020577D02*
X007488Y020440D01*
X007386Y020543D02*
X007454Y020611D01*
X007246Y020540D02*
X007177Y020540D01*
X007109Y020471D01*
X008075Y020437D02*
X008212Y020437D01*
X008212Y020574D01*
X008417Y020369D01*
X008454Y020474D02*
X008317Y020611D01*
X008317Y020680D01*
X008386Y020748D01*
X008454Y020748D01*
X008591Y020611D01*
X008591Y020543D01*
X008523Y020474D01*
X008454Y020474D01*
X008662Y020683D02*
X008731Y020683D01*
X008799Y020751D01*
X008799Y020820D01*
X008765Y020854D01*
X008697Y020854D01*
X008628Y020785D01*
X008560Y020785D01*
X008526Y020820D01*
X008526Y020888D01*
X008594Y020956D01*
X008662Y020956D01*
X008700Y021062D02*
X008768Y021130D01*
X008734Y021096D02*
X008939Y020891D01*
X008905Y020857D02*
X008973Y020925D01*
X009233Y020645D02*
X009302Y020714D01*
X009267Y020680D02*
X009473Y020474D01*
X009438Y020440D02*
X009507Y020509D01*
X009543Y020613D02*
X009611Y020613D01*
X009680Y020682D01*
X009680Y020750D01*
X009646Y020784D01*
X009577Y020784D01*
X009509Y020716D01*
X009440Y020716D01*
X009406Y020750D01*
X009406Y020818D01*
X009475Y020887D01*
X009543Y020887D01*
X009615Y020958D02*
X009751Y020822D01*
X009820Y020822D01*
X009888Y020890D01*
X009888Y020958D01*
X009751Y021095D01*
X009683Y021095D01*
X009615Y021027D01*
X009615Y020958D01*
X009162Y020574D02*
X009367Y020369D01*
X009230Y020232D02*
X009025Y020437D01*
X009162Y020437D01*
X009162Y020574D01*
X010009Y020471D02*
X010009Y020403D01*
X010043Y020369D01*
X010112Y020369D01*
X010180Y020437D01*
X010248Y020437D01*
X010283Y020403D01*
X010283Y020334D01*
X010214Y020266D01*
X010146Y020266D01*
X010009Y020471D02*
X010077Y020540D01*
X010146Y020540D01*
X010217Y020611D02*
X010354Y020474D01*
X010423Y020474D01*
X010491Y020543D01*
X010491Y020611D01*
X010597Y020648D02*
X010391Y020854D01*
X010354Y020748D02*
X010286Y020748D01*
X010217Y020680D01*
X010217Y020611D01*
X010597Y020648D02*
X010734Y020785D01*
X010805Y020857D02*
X010600Y021062D01*
X010737Y020994D02*
X010942Y020994D01*
X010737Y020925D02*
X010737Y021199D01*
X010705Y022436D02*
X010643Y022436D01*
X010705Y022436D02*
X010767Y022498D01*
X010767Y022806D01*
X010888Y022621D02*
X010950Y022621D01*
X010950Y022560D01*
X010888Y022560D01*
X010888Y022621D01*
X010767Y022560D02*
X010582Y022560D01*
X010520Y022621D01*
X010520Y022806D01*
X010336Y022930D02*
X010336Y022560D01*
X010274Y022560D02*
X010398Y022560D01*
X010153Y022621D02*
X010153Y022745D01*
X010091Y022806D01*
X009906Y022806D01*
X009906Y022436D01*
X009906Y022560D02*
X010091Y022560D01*
X010153Y022621D01*
X010274Y022930D02*
X010336Y022930D01*
X010152Y023160D02*
X010091Y023221D01*
X010091Y023468D01*
X010152Y023406D02*
X010029Y023406D01*
X009907Y023406D02*
X009722Y023406D01*
X009661Y023345D01*
X009722Y023283D01*
X009846Y023283D01*
X009907Y023221D01*
X009846Y023160D01*
X009661Y023160D01*
X009538Y023160D02*
X009476Y023160D01*
X009476Y023221D01*
X009538Y023221D01*
X009538Y023160D01*
X009355Y023160D02*
X009355Y023406D01*
X009355Y023160D02*
X009170Y023160D01*
X009108Y023221D01*
X009108Y023406D01*
X008986Y023406D02*
X008925Y023406D01*
X008801Y023283D01*
X008801Y023160D02*
X008801Y023406D01*
X008680Y023406D02*
X008495Y023406D01*
X008433Y023345D01*
X008433Y023221D01*
X008495Y023160D01*
X008680Y023160D01*
X008863Y022806D02*
X009048Y022806D01*
X009169Y022806D02*
X009169Y022621D01*
X009231Y022560D01*
X009416Y022560D01*
X009416Y022806D01*
X009538Y022806D02*
X009723Y022806D01*
X009785Y022745D01*
X009785Y022621D01*
X009723Y022560D01*
X009538Y022560D01*
X009538Y022436D02*
X009538Y022806D01*
X009048Y022621D02*
X008986Y022683D01*
X008863Y022683D01*
X008801Y022745D01*
X008863Y022806D01*
X008680Y022745D02*
X008433Y022745D01*
X008249Y022806D02*
X008249Y022560D01*
X008187Y022560D02*
X008311Y022560D01*
X008066Y022621D02*
X008066Y022745D01*
X008004Y022806D01*
X007819Y022806D01*
X007819Y022436D01*
X007819Y022560D02*
X008004Y022560D01*
X008066Y022621D01*
X008187Y022806D02*
X008249Y022806D01*
X008249Y022930D02*
X008249Y022992D01*
X008249Y023160D02*
X008249Y023406D01*
X008187Y023406D01*
X008066Y023345D02*
X008066Y023221D01*
X008004Y023160D01*
X007819Y023160D01*
X007819Y023036D02*
X007819Y023406D01*
X008004Y023406D01*
X008066Y023345D01*
X008187Y023160D02*
X008311Y023160D01*
X008249Y023530D02*
X008249Y023592D01*
X008801Y022560D02*
X008986Y022560D01*
X009048Y022621D01*
X008075Y020437D02*
X008280Y020232D01*
X010945Y019684D02*
X010945Y019622D01*
X011007Y019561D01*
X011130Y019561D01*
X011192Y019499D01*
X011192Y019437D01*
X011130Y019376D01*
X011007Y019376D01*
X010945Y019437D01*
X010945Y019684D02*
X011007Y019746D01*
X011130Y019746D01*
X011192Y019684D01*
X011313Y019746D02*
X011313Y019376D01*
X011313Y019499D02*
X011498Y019499D01*
X011560Y019561D01*
X011560Y019684D01*
X011498Y019746D01*
X011313Y019746D01*
X011682Y019746D02*
X011805Y019746D01*
X011743Y019746D02*
X011743Y019376D01*
X011682Y019376D02*
X011805Y019376D01*
X012295Y019437D02*
X012542Y019684D01*
X012542Y019437D01*
X012481Y019376D01*
X012357Y019376D01*
X012295Y019437D01*
X012295Y019684D01*
X012357Y019746D01*
X012481Y019746D01*
X012542Y019684D01*
X012469Y018196D02*
X012469Y017826D01*
X012592Y017826D02*
X012345Y017826D01*
X012345Y018072D02*
X012469Y018196D01*
X011855Y018196D02*
X011732Y018196D01*
X011793Y018196D02*
X011793Y017826D01*
X011732Y017826D02*
X011855Y017826D01*
X011610Y018011D02*
X011610Y018134D01*
X011548Y018196D01*
X011363Y018196D01*
X011363Y017826D01*
X011363Y017949D02*
X011548Y017949D01*
X011610Y018011D01*
X011242Y017949D02*
X011242Y017887D01*
X011180Y017826D01*
X011057Y017826D01*
X010995Y017887D01*
X011057Y018011D02*
X011180Y018011D01*
X011242Y017949D01*
X011242Y018134D02*
X011180Y018196D01*
X011057Y018196D01*
X010995Y018134D01*
X010995Y018072D01*
X011057Y018011D01*
X011134Y022560D02*
X011319Y022560D01*
X011441Y022621D02*
X011502Y022560D01*
X011626Y022560D01*
X011688Y022621D01*
X011688Y022745D01*
X011626Y022806D01*
X011502Y022806D01*
X011441Y022745D01*
X011441Y022621D01*
X011319Y022806D02*
X011134Y022806D01*
X011072Y022745D01*
X011072Y022621D01*
X011134Y022560D01*
X011809Y022560D02*
X011809Y022806D01*
X011871Y022806D01*
X011933Y022745D01*
X011994Y022806D01*
X012056Y022745D01*
X012056Y022560D01*
X011933Y022560D02*
X011933Y022745D01*
X012069Y026310D02*
X012069Y026600D01*
X012214Y026600D01*
X012262Y026551D01*
X012262Y026455D01*
X012214Y026406D01*
X012069Y026406D01*
X012166Y026406D02*
X012262Y026310D01*
X012364Y026310D02*
X012557Y026600D01*
X012364Y026600D02*
X012557Y026310D01*
X011507Y026310D02*
X011314Y026600D01*
X011212Y026600D02*
X011019Y026600D01*
X011116Y026600D02*
X011116Y026310D01*
X011314Y026310D02*
X011507Y026600D01*
X010557Y026600D02*
X010557Y026406D01*
X010460Y026310D01*
X010364Y026406D01*
X010364Y026600D01*
X010262Y026600D02*
X010069Y026600D01*
X010069Y026455D01*
X010166Y026503D01*
X010214Y026503D01*
X010262Y026455D01*
X010262Y026358D01*
X010214Y026310D01*
X010117Y026310D01*
X010069Y026358D01*
X009652Y026358D02*
X009652Y026551D01*
X009603Y026600D01*
X009458Y026600D01*
X009458Y026310D01*
X009603Y026310D01*
X009652Y026358D01*
X009357Y026310D02*
X009357Y026600D01*
X009164Y026600D02*
X009357Y026310D01*
X009164Y026310D02*
X009164Y026600D01*
X009062Y026551D02*
X009014Y026600D01*
X008917Y026600D01*
X008869Y026551D01*
X008869Y026358D01*
X008917Y026310D01*
X009014Y026310D01*
X009062Y026358D01*
X009062Y026455D01*
X008966Y026455D01*
X004018Y027588D02*
X003969Y027540D01*
X003824Y027540D01*
X003723Y027540D02*
X003723Y027733D01*
X003824Y027685D02*
X003873Y027733D01*
X004018Y027733D01*
X003969Y027636D02*
X003873Y027636D01*
X003824Y027685D01*
X003969Y027636D02*
X004018Y027588D01*
X003723Y027540D02*
X003578Y027540D01*
X003530Y027588D01*
X003530Y027733D01*
X003382Y027830D02*
X003382Y027540D01*
X003430Y027540D02*
X003333Y027540D01*
X003232Y027685D02*
X003184Y027636D01*
X003039Y027636D01*
X003039Y027540D02*
X003039Y027830D01*
X003184Y027830D01*
X003232Y027781D01*
X003232Y027685D01*
X003333Y027830D02*
X003382Y027830D01*
X002644Y027733D02*
X002548Y027733D01*
X002596Y027781D02*
X002596Y027588D01*
X002644Y027540D01*
X002446Y027588D02*
X002398Y027636D01*
X002301Y027636D01*
X002253Y027685D01*
X002301Y027733D01*
X002446Y027733D01*
X002446Y027588D02*
X002398Y027540D01*
X002253Y027540D01*
X002152Y027540D02*
X002152Y027733D01*
X002152Y027540D02*
X002007Y027540D01*
X001958Y027588D01*
X001958Y027733D01*
X001858Y027733D02*
X001809Y027733D01*
X001713Y027636D01*
X001713Y027540D02*
X001713Y027733D01*
X001612Y027781D02*
X001563Y027830D01*
X001466Y027830D01*
X001418Y027781D01*
X001418Y027588D01*
X001466Y027540D01*
X001563Y027540D01*
X001612Y027588D01*
X001519Y027330D02*
X001423Y027330D01*
X001374Y027281D01*
X001374Y027088D01*
X001568Y027281D01*
X001568Y027088D01*
X001519Y027040D01*
X001423Y027040D01*
X001374Y027088D01*
X001275Y027088D02*
X001275Y027040D01*
X001227Y027040D01*
X001227Y027088D01*
X001275Y027088D01*
X001126Y027040D02*
X000932Y027040D01*
X001029Y027040D02*
X001029Y027330D01*
X000932Y027233D01*
X000831Y027136D02*
X000831Y027330D01*
X000638Y027330D02*
X000638Y027136D01*
X000734Y027040D01*
X000831Y027136D01*
X000927Y027540D02*
X001024Y027540D01*
X000975Y027540D02*
X000975Y027733D01*
X000927Y027733D01*
X000975Y027830D02*
X000975Y027878D01*
X000826Y027781D02*
X000826Y027685D01*
X000777Y027636D01*
X000632Y027636D01*
X000632Y027540D02*
X000632Y027830D01*
X000777Y027830D01*
X000826Y027781D01*
X001519Y027330D02*
X001568Y027281D01*
D11*
X009120Y014916D03*
X008510Y014526D03*
X008500Y014526D03*
X008420Y011516D03*
X008270Y011326D03*
X008050Y011356D03*
X007960Y011026D03*
X007540Y010516D03*
X009360Y011026D03*
X009270Y011356D03*
X009780Y010516D03*
D12*
X009770Y010511D03*
X009410Y011001D03*
X009120Y011361D03*
X009100Y011371D03*
X009090Y011381D03*
X009080Y011381D03*
X009070Y011391D03*
X009060Y011391D03*
X008200Y011361D03*
X008140Y011341D03*
X007910Y011001D03*
X007550Y010511D03*
X008220Y009651D03*
X008230Y009651D03*
X008240Y009641D03*
X008250Y009641D03*
X008260Y009631D03*
X009060Y009631D03*
X009070Y009641D03*
X009080Y009641D03*
X009090Y009651D03*
X009100Y009651D03*
X008690Y014321D03*
X009070Y014921D03*
D13*
X009080Y015751D03*
X008810Y015811D03*
X009440Y010971D03*
X009760Y010511D03*
X009360Y009871D03*
X008140Y010391D03*
X007960Y009871D03*
X007560Y010511D03*
X007880Y010971D03*
D14*
X007570Y010511D03*
X008880Y010421D03*
X009750Y010511D03*
X009060Y013681D03*
X009050Y015741D03*
D15*
X009030Y013681D03*
X008800Y012321D03*
X008260Y012321D03*
X007580Y010511D03*
X009740Y010511D03*
D16*
X009730Y010511D03*
X008840Y010491D03*
X007590Y010511D03*
X008310Y012351D03*
X008750Y012351D03*
X009000Y013681D03*
X008990Y015041D03*
X008980Y015041D03*
X008970Y015041D03*
D17*
X008970Y013681D03*
X008360Y013681D03*
X008390Y012381D03*
X008400Y012381D03*
X008410Y012381D03*
X008670Y012381D03*
X008800Y010521D03*
X008220Y010521D03*
X007600Y010511D03*
X009720Y010511D03*
D18*
X009710Y010516D03*
X008760Y010546D03*
X008260Y010546D03*
X007610Y010516D03*
X008930Y013676D03*
D19*
X008690Y010571D03*
X008330Y010571D03*
X007620Y010511D03*
X009700Y010511D03*
D20*
X009690Y010516D03*
X007630Y010516D03*
D21*
X007640Y010511D03*
X009680Y010511D03*
D22*
X009670Y010511D03*
X007650Y010511D03*
D23*
X007660Y010511D03*
X009660Y010511D03*
D24*
X009650Y010511D03*
X007670Y010511D03*
D25*
X007680Y010516D03*
X009640Y010516D03*
D26*
X009630Y010516D03*
X007690Y010516D03*
D27*
X007700Y010511D03*
X009620Y010511D03*
D28*
X009610Y010516D03*
X007710Y010516D03*
D29*
X007720Y010511D03*
X009600Y010511D03*
D30*
X009590Y010511D03*
X007730Y010511D03*
D31*
X007740Y010511D03*
X009580Y010511D03*
D32*
X009570Y010516D03*
X007750Y010516D03*
D33*
X007760Y010511D03*
X009560Y010511D03*
D34*
X009550Y010511D03*
X007770Y010511D03*
D35*
X007780Y010516D03*
X009540Y010516D03*
D36*
X009530Y010511D03*
X007790Y010511D03*
D37*
X007800Y010511D03*
X009520Y010511D03*
D38*
X009510Y010511D03*
X007810Y010511D03*
D39*
X007820Y010511D03*
X009500Y010511D03*
D40*
X009490Y010506D03*
X009480Y010496D03*
X007840Y010496D03*
X007830Y010506D03*
D41*
X007850Y010096D03*
X008200Y010506D03*
X008820Y010506D03*
X009470Y010096D03*
X008720Y012366D03*
X008710Y012366D03*
X008350Y012366D03*
X008340Y012366D03*
X008340Y013686D03*
D42*
X008310Y013686D03*
X008280Y012336D03*
X008780Y012336D03*
X009470Y010906D03*
X008850Y010476D03*
X007850Y010906D03*
D43*
X008170Y010471D03*
X007860Y010051D03*
X009460Y010051D03*
X009020Y013681D03*
D44*
X009460Y010941D03*
X008150Y010431D03*
X007860Y010941D03*
D45*
X007870Y010021D03*
X008250Y012311D03*
X008810Y012311D03*
X009040Y013681D03*
X009450Y010021D03*
D46*
X009410Y009936D03*
X009450Y010956D03*
X008220Y012266D03*
X007870Y010956D03*
X007910Y009936D03*
X008260Y013686D03*
X009070Y013676D03*
X008560Y015746D03*
X008540Y015756D03*
X008520Y015766D03*
X008500Y015776D03*
X008490Y015786D03*
D47*
X008970Y015766D03*
X008980Y015766D03*
X008990Y015756D03*
X009010Y015746D03*
X009040Y015736D03*
X009050Y013676D03*
X008280Y013686D03*
X008240Y012296D03*
X007880Y009996D03*
X009440Y009996D03*
D48*
X009430Y009976D03*
X008830Y012286D03*
X008230Y012286D03*
X008270Y013686D03*
X007890Y009976D03*
D49*
X008030Y009786D03*
X007890Y010986D03*
X009290Y009786D03*
X009430Y010986D03*
X008230Y013686D03*
X008450Y015776D03*
D50*
X008840Y012276D03*
X009420Y009956D03*
X007900Y009956D03*
D51*
X008120Y009716D03*
X008130Y009706D03*
X007900Y010996D03*
X008420Y012576D03*
X009420Y010996D03*
X009200Y009716D03*
X009190Y009706D03*
X009100Y015756D03*
X008850Y015866D03*
X008440Y015776D03*
X009040Y016396D03*
X009050Y016396D03*
D52*
X008480Y015791D03*
X007920Y009921D03*
X009400Y009921D03*
D53*
X008940Y009586D03*
X008910Y009576D03*
X008900Y009576D03*
X008880Y009566D03*
X008870Y009566D03*
X008860Y009566D03*
X008850Y009566D03*
X008830Y009556D03*
X008820Y009556D03*
X008810Y009556D03*
X008800Y009556D03*
X008750Y009546D03*
X008740Y009546D03*
X008730Y009546D03*
X008720Y009546D03*
X008710Y009546D03*
X008610Y009546D03*
X008600Y009546D03*
X008590Y009546D03*
X008580Y009546D03*
X008570Y009546D03*
X008520Y009556D03*
X008510Y009556D03*
X008500Y009556D03*
X008490Y009556D03*
X008470Y009566D03*
X008460Y009566D03*
X008450Y009566D03*
X008440Y009566D03*
X008420Y009576D03*
X008410Y009576D03*
X008380Y009586D03*
X008420Y010866D03*
X008430Y010876D03*
X008620Y010866D03*
X008630Y010856D03*
X008500Y011466D03*
X008490Y011466D03*
X008480Y011466D03*
X008470Y011466D03*
X008460Y011466D03*
X008530Y011476D03*
X008540Y011476D03*
X008550Y011476D03*
X008560Y011476D03*
X008760Y011476D03*
X008770Y011476D03*
X008780Y011476D03*
X008790Y011476D03*
X008820Y011466D03*
X008830Y011466D03*
X008840Y011466D03*
X008850Y011466D03*
X008860Y011466D03*
X008870Y011456D03*
X008880Y011456D03*
X008890Y011456D03*
X008910Y011446D03*
X008920Y011446D03*
X009400Y011006D03*
X008430Y012606D03*
X007920Y011006D03*
X008710Y014306D03*
X008910Y015226D03*
X008870Y015906D03*
X009100Y016416D03*
D54*
X008610Y016336D03*
X008600Y016336D03*
X008590Y016336D03*
X008580Y016336D03*
X008570Y016336D03*
X008560Y016336D03*
X008550Y016336D03*
X008540Y016336D03*
X008530Y016336D03*
X008520Y016336D03*
X008510Y016336D03*
X008500Y016336D03*
X008490Y016336D03*
X008480Y016336D03*
X008470Y016336D03*
X008460Y016336D03*
X008450Y016336D03*
X008440Y016336D03*
X008430Y016336D03*
X008420Y016336D03*
X009070Y015746D03*
X009390Y009906D03*
X007930Y009906D03*
D55*
X007930Y011011D03*
X008240Y011351D03*
X008450Y011471D03*
X008480Y010891D03*
X008490Y010891D03*
X008500Y010891D03*
X008510Y010891D03*
X008520Y010891D03*
X008530Y010891D03*
X008540Y010891D03*
X008550Y010891D03*
X008560Y010891D03*
X009390Y011011D03*
X008440Y012621D03*
X008450Y012631D03*
X008500Y013371D03*
X008490Y013381D03*
X008830Y013371D03*
X009120Y013681D03*
X008900Y013891D03*
X008750Y014291D03*
X008740Y014291D03*
X008890Y014821D03*
X008900Y014831D03*
X008890Y015241D03*
X008880Y015921D03*
D56*
X008780Y015781D03*
X008770Y015771D03*
X008760Y015761D03*
X008750Y015751D03*
X009080Y013681D03*
X008250Y013691D03*
X008850Y012251D03*
X009380Y009891D03*
X007940Y009891D03*
D57*
X007940Y011016D03*
X008250Y011346D03*
X008440Y011486D03*
X008420Y012136D03*
X008660Y012136D03*
X008600Y012646D03*
X008590Y012646D03*
X008580Y012646D03*
X008530Y012656D03*
X008500Y012646D03*
X008490Y012646D03*
X008480Y012646D03*
X008340Y012976D03*
X008330Y012976D03*
X008320Y012976D03*
X008310Y012976D03*
X008300Y012976D03*
X008290Y012976D03*
X008280Y012976D03*
X008270Y012976D03*
X008260Y012976D03*
X008250Y012976D03*
X008240Y012976D03*
X008230Y012976D03*
X008220Y012976D03*
X008210Y012976D03*
X008200Y012976D03*
X008190Y012976D03*
X008180Y012976D03*
X008170Y012976D03*
X008600Y013336D03*
X008610Y013336D03*
X008620Y013336D03*
X008630Y013336D03*
X008640Y013336D03*
X008690Y013336D03*
X008700Y013336D03*
X008710Y013336D03*
X008720Y013336D03*
X008730Y013336D03*
X008430Y013876D03*
X008810Y014276D03*
X008820Y014276D03*
X008830Y014276D03*
X008840Y014276D03*
X008850Y014276D03*
X008860Y014276D03*
X008850Y014806D03*
X008840Y014806D03*
X008830Y014806D03*
X008820Y014806D03*
X008820Y015256D03*
X008830Y015256D03*
X008840Y015256D03*
X008850Y015256D03*
X008890Y015936D03*
X008890Y016296D03*
X008880Y016296D03*
X008870Y016296D03*
X008860Y016296D03*
X008910Y016306D03*
X008410Y016296D03*
X009380Y011016D03*
D58*
X009280Y011041D03*
X009380Y011371D03*
X008360Y011591D03*
X007940Y011371D03*
X008040Y011041D03*
X008520Y013881D03*
D59*
X008550Y014386D03*
X008560Y014386D03*
X008570Y014386D03*
X008580Y014386D03*
X008590Y014386D03*
X008600Y014386D03*
X008610Y014386D03*
X008620Y014386D03*
X008630Y014386D03*
X008640Y014386D03*
X008650Y014386D03*
X008660Y014386D03*
X008740Y015736D03*
X008790Y015786D03*
X008800Y015796D03*
X008470Y015786D03*
X007950Y009876D03*
X009370Y009876D03*
D60*
X009370Y011021D03*
X009250Y011351D03*
X008430Y011501D03*
X008260Y011331D03*
X007950Y011021D03*
X008200Y013691D03*
X008590Y015591D03*
X008630Y015591D03*
X008910Y015951D03*
X008920Y015951D03*
X008930Y015951D03*
X008950Y015941D03*
X009120Y016411D03*
D61*
X008810Y013891D03*
X009370Y011371D03*
X009290Y011041D03*
X008340Y011271D03*
X008030Y011041D03*
X007950Y011371D03*
D62*
X007960Y011371D03*
X008020Y011041D03*
X008330Y011281D03*
X009300Y011041D03*
X009360Y011371D03*
X009140Y013681D03*
X008820Y013891D03*
X008620Y015951D03*
D63*
X008730Y015726D03*
X008240Y013686D03*
X008210Y012236D03*
X007970Y009856D03*
X009350Y009856D03*
D64*
X009350Y011031D03*
X009290Y011361D03*
X008030Y011361D03*
X007970Y011031D03*
X008870Y013901D03*
X008470Y014541D03*
X008460Y014541D03*
D65*
X008500Y013886D03*
X008910Y015546D03*
X008920Y016556D03*
X009350Y011366D03*
X007970Y011366D03*
D66*
X007980Y009841D03*
X007990Y009831D03*
X009330Y009831D03*
X009340Y009841D03*
X009090Y013681D03*
X008720Y015711D03*
X008820Y015821D03*
X008460Y015781D03*
D67*
X008590Y015921D03*
X008940Y015571D03*
X009130Y016411D03*
X008450Y014551D03*
X008860Y013901D03*
X009300Y011361D03*
X009340Y011031D03*
X008290Y011311D03*
X008020Y011361D03*
X007980Y011031D03*
D68*
X008010Y011036D03*
X007980Y011366D03*
X008320Y011286D03*
X009310Y011036D03*
X009340Y011366D03*
X008190Y013696D03*
X008490Y013886D03*
X008830Y013896D03*
X008410Y014586D03*
D69*
X008000Y011366D03*
X007990Y011036D03*
X009330Y011036D03*
X009320Y011366D03*
D70*
X009330Y011366D03*
X009320Y011036D03*
X008310Y011296D03*
X008390Y011556D03*
X007990Y011366D03*
X008000Y011036D03*
X008840Y013896D03*
D71*
X008710Y015701D03*
X009090Y015751D03*
X009320Y009821D03*
X009310Y009811D03*
X009300Y009801D03*
X008020Y009801D03*
X008010Y009811D03*
X008000Y009821D03*
D72*
X008010Y011366D03*
X009310Y011366D03*
X008440Y014556D03*
X009130Y014916D03*
D73*
X008700Y015691D03*
X008840Y015851D03*
X008930Y016381D03*
X008940Y016381D03*
X008950Y016381D03*
X008960Y016381D03*
X008970Y016381D03*
X008980Y016381D03*
X009100Y013681D03*
X008420Y013471D03*
X008040Y009781D03*
X008050Y009771D03*
X009270Y009771D03*
X009280Y009781D03*
D74*
X009280Y011361D03*
X008040Y011361D03*
X008450Y013891D03*
X008490Y014531D03*
X008950Y015581D03*
X009130Y015771D03*
X008580Y015901D03*
X008410Y015761D03*
D75*
X008990Y016386D03*
X009000Y016386D03*
X009010Y016386D03*
X009040Y014926D03*
X008670Y014346D03*
X008860Y012206D03*
X008660Y010806D03*
X008060Y009766D03*
X008070Y009756D03*
X008080Y009746D03*
X009240Y009746D03*
X009250Y009756D03*
X009260Y009766D03*
D76*
X009260Y011356D03*
X008060Y011356D03*
X009130Y013676D03*
X008440Y013886D03*
X008540Y014516D03*
X008600Y015586D03*
X008610Y015586D03*
X008620Y015586D03*
X008940Y015946D03*
D77*
X008960Y015931D03*
X008850Y016291D03*
X008840Y016291D03*
X008830Y016291D03*
X008820Y016291D03*
X008810Y016291D03*
X008800Y016291D03*
X008790Y016291D03*
X008780Y016291D03*
X008770Y016291D03*
X008760Y016291D03*
X008750Y016291D03*
X008740Y016291D03*
X008730Y016291D03*
X008720Y016291D03*
X008710Y016291D03*
X008700Y016291D03*
X008690Y016291D03*
X008680Y016291D03*
X008670Y016291D03*
X008660Y016291D03*
X008650Y016291D03*
X008640Y016291D03*
X008630Y016291D03*
X008620Y016291D03*
X008400Y016291D03*
X008390Y016291D03*
X008380Y016291D03*
X008370Y016291D03*
X008360Y016291D03*
X008350Y016291D03*
X008340Y016291D03*
X008330Y016291D03*
X008320Y016291D03*
X008310Y016291D03*
X008300Y016291D03*
X008290Y016291D03*
X008280Y016291D03*
X008270Y016291D03*
X008260Y016291D03*
X008250Y016291D03*
X008240Y016291D03*
X008420Y015261D03*
X008430Y015261D03*
X008440Y015261D03*
X008450Y015261D03*
X008460Y015261D03*
X008470Y015261D03*
X008480Y015261D03*
X008490Y015261D03*
X008500Y015261D03*
X008510Y015261D03*
X008520Y015261D03*
X008530Y015261D03*
X008540Y015261D03*
X008550Y015261D03*
X008560Y015261D03*
X008570Y015261D03*
X008580Y015261D03*
X008590Y015261D03*
X008600Y015261D03*
X008610Y015261D03*
X008620Y015261D03*
X008630Y015261D03*
X008640Y015261D03*
X008650Y015261D03*
X008660Y015261D03*
X008670Y015261D03*
X008680Y015261D03*
X008690Y015261D03*
X008700Y015261D03*
X008710Y015261D03*
X008720Y015261D03*
X008730Y015261D03*
X008740Y015261D03*
X008750Y015261D03*
X008760Y015261D03*
X008770Y015261D03*
X008780Y015261D03*
X008790Y015261D03*
X008800Y015261D03*
X008810Y015261D03*
X009040Y015261D03*
X009050Y015261D03*
X009060Y015261D03*
X009070Y015261D03*
X009080Y015261D03*
X009090Y015261D03*
X009100Y015261D03*
X009110Y015261D03*
X009120Y015261D03*
X008810Y014801D03*
X008800Y014801D03*
X008790Y014801D03*
X008780Y014801D03*
X008770Y014801D03*
X008760Y014801D03*
X008750Y014801D03*
X008740Y014801D03*
X008730Y014801D03*
X008720Y014801D03*
X008710Y014801D03*
X008700Y014801D03*
X008690Y014801D03*
X008680Y014801D03*
X008670Y014801D03*
X008660Y014801D03*
X008650Y014801D03*
X008640Y014801D03*
X008630Y014801D03*
X008620Y014801D03*
X008610Y014801D03*
X008600Y014801D03*
X008590Y014801D03*
X008580Y014801D03*
X008570Y014801D03*
X008560Y014801D03*
X008550Y014801D03*
X008540Y014801D03*
X008530Y014801D03*
X008520Y014801D03*
X008510Y014801D03*
X008500Y014801D03*
X008490Y014801D03*
X008480Y014801D03*
X008470Y014801D03*
X008460Y014801D03*
X008450Y014801D03*
X008440Y014801D03*
X008430Y014801D03*
X008420Y014801D03*
X008420Y014271D03*
X008430Y014271D03*
X008440Y014271D03*
X008450Y014271D03*
X008460Y014271D03*
X008470Y014271D03*
X008480Y014271D03*
X008490Y014271D03*
X008500Y014271D03*
X008510Y014271D03*
X008520Y014271D03*
X008530Y014271D03*
X008540Y014271D03*
X008870Y014271D03*
X008880Y014271D03*
X008890Y014271D03*
X008900Y014271D03*
X008910Y014271D03*
X008920Y014271D03*
X008930Y014271D03*
X008940Y014271D03*
X008950Y014271D03*
X008960Y014271D03*
X008970Y014271D03*
X008980Y014271D03*
X008990Y014271D03*
X009000Y014271D03*
X009010Y014271D03*
X009020Y014271D03*
X009030Y014271D03*
X009040Y014271D03*
X009050Y014271D03*
X009060Y014271D03*
X009070Y014271D03*
X009080Y014271D03*
X009090Y014271D03*
X009100Y014271D03*
X009110Y014271D03*
X009120Y014271D03*
X009120Y012981D03*
X009110Y012981D03*
X009100Y012981D03*
X009090Y012981D03*
X009080Y012981D03*
X009070Y012981D03*
X009060Y012981D03*
X009050Y012981D03*
X009040Y012981D03*
X009030Y012981D03*
X009020Y012981D03*
X009010Y012981D03*
X009000Y012981D03*
X008990Y012981D03*
X008980Y012981D03*
X008970Y012981D03*
X008960Y012981D03*
X008950Y012981D03*
X008940Y012981D03*
X008930Y012981D03*
X008920Y012981D03*
X008910Y012981D03*
X008900Y012981D03*
X008890Y012981D03*
X008880Y012981D03*
X008870Y012981D03*
X008860Y012981D03*
X008850Y012981D03*
X008840Y012981D03*
X008830Y012981D03*
X008820Y012981D03*
X008810Y012981D03*
X008800Y012981D03*
X008790Y012981D03*
X008780Y012981D03*
X008770Y012981D03*
X008760Y012981D03*
X008750Y012981D03*
X008740Y012981D03*
X008730Y012981D03*
X008720Y012981D03*
X008710Y012981D03*
X008700Y012981D03*
X008690Y012981D03*
X008680Y012981D03*
X008670Y012981D03*
X008660Y012981D03*
X008650Y012981D03*
X008640Y012981D03*
X008630Y012981D03*
X008620Y012981D03*
X008610Y012981D03*
X008600Y012981D03*
X008590Y012981D03*
X008580Y012981D03*
X008570Y012981D03*
X008560Y012981D03*
X008550Y012981D03*
X008540Y012981D03*
X008530Y012981D03*
X008520Y012981D03*
X008510Y012981D03*
X008500Y012981D03*
X008490Y012981D03*
X008480Y012981D03*
X008470Y012981D03*
X008460Y012981D03*
X008450Y012981D03*
X008440Y012981D03*
X008430Y012981D03*
X008420Y012981D03*
X008510Y012651D03*
X008520Y012651D03*
X008540Y012651D03*
X008550Y012651D03*
X008560Y012651D03*
X008570Y012651D03*
X008570Y012131D03*
X008560Y012131D03*
X008550Y012131D03*
X008540Y012131D03*
X008530Y012131D03*
X008520Y012131D03*
X008510Y012131D03*
X008500Y012131D03*
X008490Y012131D03*
X008480Y012131D03*
X008470Y012131D03*
X008460Y012131D03*
X008450Y012131D03*
X008440Y012131D03*
X008430Y012131D03*
X008580Y012131D03*
X008590Y012131D03*
X008600Y012131D03*
X008610Y012131D03*
X008620Y012131D03*
X008630Y012131D03*
X008640Y012131D03*
X008650Y012131D03*
X008870Y012131D03*
X008880Y012131D03*
X008890Y012131D03*
X008900Y012131D03*
X008910Y012131D03*
X008920Y012131D03*
X008930Y012131D03*
X008940Y012131D03*
X008950Y012131D03*
X008960Y012131D03*
X008970Y012131D03*
X008980Y012131D03*
X008990Y012131D03*
X009000Y012131D03*
X009010Y012131D03*
X009020Y012131D03*
X009030Y012131D03*
X009040Y012131D03*
X009050Y012131D03*
X009060Y012131D03*
X009070Y012131D03*
X009080Y012131D03*
X009090Y012131D03*
X009100Y012131D03*
X009110Y012131D03*
X009120Y012131D03*
X009240Y011351D03*
X008080Y011351D03*
D78*
X008390Y010821D03*
X008090Y009741D03*
X008100Y009731D03*
X008110Y009721D03*
X009210Y009721D03*
X009220Y009731D03*
X009230Y009741D03*
X009050Y014921D03*
X008690Y015671D03*
X009020Y016391D03*
X009030Y016391D03*
D79*
X008900Y016301D03*
X008650Y015611D03*
X008860Y015251D03*
X008870Y015251D03*
X008870Y014811D03*
X008860Y014811D03*
X008800Y014281D03*
X008790Y014281D03*
X008780Y014281D03*
X008780Y013351D03*
X008760Y013341D03*
X008750Y013341D03*
X008740Y013341D03*
X008680Y013331D03*
X008670Y013331D03*
X008660Y013331D03*
X008650Y013331D03*
X008590Y013341D03*
X008580Y013341D03*
X008570Y013341D03*
X008550Y013351D03*
X008540Y013351D03*
X008470Y012641D03*
X008610Y012641D03*
X008620Y012631D03*
X008090Y011351D03*
X009230Y011351D03*
D80*
X009220Y011346D03*
X009190Y010296D03*
X008100Y011346D03*
X008460Y012636D03*
X008630Y012626D03*
X008560Y013346D03*
X008530Y013356D03*
X008520Y013366D03*
X008510Y013366D03*
X008770Y013346D03*
X008790Y013356D03*
X008800Y013356D03*
X008810Y013366D03*
X008820Y013366D03*
X008770Y014286D03*
X008760Y014286D03*
X008880Y014816D03*
X009100Y014916D03*
X008880Y015246D03*
X009120Y015766D03*
X008920Y016316D03*
X009110Y016416D03*
X008420Y015766D03*
D81*
X008660Y015626D03*
X008900Y015236D03*
X009090Y014916D03*
X008730Y014296D03*
X008850Y013386D03*
X008840Y013376D03*
X008480Y013386D03*
X008640Y012616D03*
X008110Y011346D03*
X008460Y010886D03*
X008470Y010886D03*
X008570Y010886D03*
X008580Y010886D03*
X008600Y010876D03*
X008600Y010296D03*
X008590Y010296D03*
X008580Y010296D03*
X008570Y010296D03*
X008560Y010296D03*
X008550Y010296D03*
X008540Y010296D03*
X008530Y010296D03*
X008520Y010296D03*
X008510Y010296D03*
X008500Y010296D03*
X008490Y010296D03*
X008480Y010296D03*
X008470Y010296D03*
X008460Y010296D03*
X008450Y010296D03*
X008440Y010296D03*
X008430Y010296D03*
X008420Y010296D03*
X008410Y010296D03*
X008400Y010296D03*
X008390Y010296D03*
X008610Y010296D03*
X008620Y010296D03*
X008630Y010296D03*
X008640Y010296D03*
X008650Y010296D03*
X008660Y010296D03*
X008890Y010296D03*
X008900Y010296D03*
X008910Y010296D03*
X008920Y010296D03*
X008930Y010296D03*
X008940Y010296D03*
X008950Y010296D03*
X008960Y010296D03*
X008970Y010296D03*
X008980Y010296D03*
X008990Y010296D03*
X009000Y010296D03*
X009010Y010296D03*
X009020Y010296D03*
X009030Y010296D03*
X009040Y010296D03*
X009050Y010296D03*
X009060Y010296D03*
X009070Y010296D03*
X009080Y010296D03*
X009090Y010296D03*
X009100Y010296D03*
X009110Y010296D03*
X009120Y010296D03*
X009130Y010296D03*
X009140Y010296D03*
X009150Y010296D03*
X009160Y010296D03*
X009170Y010296D03*
X009180Y010296D03*
X009210Y011346D03*
D82*
X009200Y011341D03*
X008810Y011471D03*
X008800Y011471D03*
X008750Y011481D03*
X008740Y011481D03*
X008730Y011481D03*
X008720Y011481D03*
X008710Y011481D03*
X008700Y011481D03*
X008690Y011481D03*
X008680Y011481D03*
X008670Y011481D03*
X008660Y011481D03*
X008650Y011481D03*
X008640Y011481D03*
X008630Y011481D03*
X008620Y011481D03*
X008610Y011481D03*
X008600Y011481D03*
X008590Y011481D03*
X008580Y011481D03*
X008570Y011481D03*
X008520Y011471D03*
X008510Y011471D03*
X008230Y011361D03*
X008120Y011341D03*
X008440Y010881D03*
X008450Y010881D03*
X008590Y010881D03*
X008610Y010871D03*
X008480Y009561D03*
X008530Y009551D03*
X008540Y009551D03*
X008550Y009551D03*
X008560Y009551D03*
X008620Y009541D03*
X008630Y009541D03*
X008640Y009541D03*
X008650Y009541D03*
X008660Y009541D03*
X008670Y009541D03*
X008680Y009541D03*
X008690Y009541D03*
X008700Y009541D03*
X008760Y009551D03*
X008770Y009551D03*
X008780Y009551D03*
X008790Y009551D03*
X008840Y009561D03*
X008650Y012601D03*
X008470Y013391D03*
X008460Y013401D03*
X008210Y013691D03*
X008860Y013391D03*
X008870Y013401D03*
X008720Y014301D03*
X008910Y014841D03*
D83*
X009080Y014921D03*
X008700Y014311D03*
X008420Y013851D03*
X008440Y013421D03*
X008450Y013411D03*
X008880Y013411D03*
X008900Y011451D03*
X008930Y011441D03*
X008940Y011441D03*
X008950Y011441D03*
X008960Y011431D03*
X008970Y011431D03*
X008990Y011421D03*
X009000Y011421D03*
X009020Y011411D03*
X009190Y011341D03*
X008130Y011341D03*
X008310Y009611D03*
X008330Y009601D03*
X008340Y009601D03*
X008350Y009591D03*
X008360Y009591D03*
X008370Y009591D03*
X008390Y009581D03*
X008400Y009581D03*
X008430Y009571D03*
X008890Y009571D03*
X008920Y009581D03*
X008930Y009581D03*
X008950Y009591D03*
X008960Y009591D03*
X008970Y009591D03*
X008980Y009601D03*
X008990Y009601D03*
X009010Y009611D03*
X008670Y015641D03*
X008430Y015771D03*
D84*
X009060Y016401D03*
X009060Y014921D03*
X008680Y014331D03*
X009110Y013681D03*
X008220Y013691D03*
X009140Y011351D03*
X009160Y011341D03*
X009180Y009701D03*
X009170Y009691D03*
X009160Y009691D03*
X009150Y009681D03*
X008170Y009681D03*
X008160Y009691D03*
X008150Y009691D03*
X008140Y009701D03*
D85*
X008270Y009626D03*
X008280Y009626D03*
X008290Y009616D03*
X008300Y009616D03*
X008320Y009606D03*
X009000Y009606D03*
X009020Y009616D03*
X009030Y009616D03*
X009040Y009626D03*
X009050Y009626D03*
X008640Y010846D03*
X008410Y010856D03*
X008220Y011366D03*
X008980Y011426D03*
X009010Y011416D03*
X009030Y011406D03*
X009040Y011406D03*
X009050Y011396D03*
X009180Y011336D03*
X008890Y013426D03*
X009110Y015756D03*
X008860Y015886D03*
X009090Y016416D03*
D86*
X009080Y016406D03*
X009070Y016406D03*
X008680Y015656D03*
X008900Y013436D03*
X008430Y013436D03*
X008660Y012576D03*
X008210Y011366D03*
X008190Y011356D03*
X008180Y011346D03*
X008170Y011346D03*
X008160Y011336D03*
X008150Y011336D03*
X008400Y010846D03*
X008650Y010836D03*
X009110Y011366D03*
X009130Y011356D03*
X009150Y011346D03*
X009170Y011336D03*
X009140Y009676D03*
X009130Y009666D03*
X009120Y009666D03*
X009110Y009656D03*
X008210Y009656D03*
X008200Y009666D03*
X008190Y009666D03*
X008180Y009676D03*
D87*
X008070Y011356D03*
X008890Y013896D03*
X009110Y014916D03*
X008960Y015606D03*
X008900Y015946D03*
X008640Y015596D03*
X008580Y015596D03*
D88*
X008570Y015741D03*
X008550Y015751D03*
X008530Y015761D03*
X008510Y015771D03*
X009060Y015741D03*
D89*
X009030Y015051D03*
X009010Y013681D03*
X008770Y012341D03*
X008290Y012341D03*
D90*
X008820Y012301D03*
X009030Y015731D03*
X009020Y015741D03*
X009000Y015751D03*
D91*
X009000Y015046D03*
X009010Y015046D03*
X009020Y015046D03*
X008320Y013686D03*
X008300Y012346D03*
X008760Y012346D03*
X008180Y010486D03*
D92*
X008830Y010501D03*
X008730Y012361D03*
X008330Y012361D03*
X008990Y013681D03*
D93*
X008980Y013681D03*
X008700Y012371D03*
X008360Y012371D03*
D94*
X008410Y013656D03*
X008960Y013676D03*
D95*
X008330Y013686D03*
X008320Y012356D03*
X008740Y012356D03*
X008190Y010496D03*
X008920Y015036D03*
X008930Y015036D03*
X008940Y015036D03*
X008950Y015036D03*
X008960Y015036D03*
D96*
X008950Y013676D03*
X008910Y013656D03*
X008780Y010536D03*
X008240Y010536D03*
D97*
X008250Y010541D03*
X008770Y010541D03*
X008920Y013661D03*
X008940Y013681D03*
D98*
X008480Y013891D03*
X008420Y014571D03*
X008930Y015561D03*
X008600Y015931D03*
D99*
X008920Y015551D03*
D100*
X008890Y015536D03*
X008630Y015956D03*
X008400Y015756D03*
X008910Y016576D03*
D101*
X008900Y015536D03*
X008510Y013886D03*
X008370Y011586D03*
D102*
X008880Y013901D03*
X008530Y014521D03*
X008520Y014521D03*
D103*
X008870Y010446D03*
D104*
X008860Y010466D03*
X008790Y012326D03*
X008270Y012326D03*
X008300Y013686D03*
D105*
X008470Y013891D03*
X008850Y013901D03*
X008430Y014561D03*
X008400Y011541D03*
X008300Y011301D03*
D106*
X008830Y015836D03*
D107*
X008350Y013686D03*
X008370Y012376D03*
X008380Y012376D03*
X008680Y012376D03*
X008690Y012376D03*
X008810Y010516D03*
X008210Y010516D03*
D108*
X008230Y010531D03*
X008790Y010531D03*
X008400Y013661D03*
X008390Y013671D03*
X008380Y013681D03*
X008370Y013681D03*
D109*
X008270Y010551D03*
X008750Y010551D03*
D110*
X008740Y010556D03*
X008280Y010556D03*
D111*
X008290Y010561D03*
X008300Y010561D03*
X008720Y010561D03*
X008730Y010561D03*
D112*
X008710Y010566D03*
X008700Y010566D03*
X008320Y010566D03*
X008310Y010566D03*
D113*
X008340Y010576D03*
X008350Y010576D03*
X008670Y010576D03*
X008680Y010576D03*
D114*
X008380Y011571D03*
X008610Y015941D03*
D115*
X008480Y014536D03*
X008280Y011316D03*
D116*
X008410Y011526D03*
X008460Y013886D03*
D117*
X008380Y010581D03*
X008370Y010581D03*
X008360Y010581D03*
D118*
X008160Y010456D03*
X008290Y013686D03*
D119*
X005880Y022099D03*
X008580Y024559D03*
X009120Y024079D03*
D120*
X009120Y024035D03*
X008580Y024035D03*
X008580Y024031D03*
X008580Y024027D03*
X008580Y024023D03*
X008580Y024015D03*
X008580Y024011D03*
X008580Y024007D03*
X008580Y024003D03*
X008580Y023995D03*
X008580Y023991D03*
X008580Y023987D03*
X008580Y023983D03*
X008580Y023975D03*
X008580Y023971D03*
X008580Y023967D03*
X008580Y023963D03*
X008580Y023955D03*
X008580Y023951D03*
X008580Y023947D03*
X008580Y023943D03*
X008580Y023935D03*
X008580Y023931D03*
X008580Y023927D03*
X008580Y023923D03*
X008580Y023915D03*
X008580Y023911D03*
X008580Y023907D03*
X008580Y023903D03*
X008580Y023895D03*
X008580Y023891D03*
X008580Y023887D03*
X008580Y023883D03*
X008580Y023875D03*
X008580Y023871D03*
X008580Y023867D03*
X008580Y023863D03*
X008580Y024043D03*
X008580Y024047D03*
X008580Y024051D03*
X008580Y024055D03*
X008580Y024063D03*
X008580Y024067D03*
X008580Y024071D03*
X008580Y024075D03*
X008580Y024083D03*
X008580Y024087D03*
X008580Y024091D03*
X008580Y024095D03*
X008580Y024103D03*
X008580Y024107D03*
X008580Y024111D03*
X008580Y024115D03*
X008580Y024123D03*
X008580Y024127D03*
X008580Y024131D03*
X008580Y024135D03*
X008580Y024143D03*
X008580Y024147D03*
X008580Y024151D03*
X008580Y024155D03*
X008580Y024163D03*
X008580Y024167D03*
X008580Y024171D03*
X008580Y024175D03*
X008580Y024183D03*
X008580Y024187D03*
X008580Y024191D03*
X008580Y024195D03*
X008580Y024203D03*
X008580Y024207D03*
X008580Y024211D03*
X008580Y024215D03*
X008580Y024223D03*
X008580Y024227D03*
X008580Y024231D03*
X008580Y024235D03*
X008580Y024243D03*
X008580Y024247D03*
X008580Y024251D03*
X008580Y024255D03*
X008580Y024263D03*
X008580Y024267D03*
X008580Y024271D03*
X008580Y024275D03*
X008580Y024283D03*
X008580Y024287D03*
X008580Y024291D03*
X008580Y024295D03*
X008580Y024303D03*
X008580Y024307D03*
X008580Y024311D03*
X008580Y024315D03*
X008580Y024323D03*
X008580Y024327D03*
X008580Y024331D03*
X008580Y024335D03*
X008580Y024343D03*
X008580Y024347D03*
X008580Y024351D03*
X008580Y024355D03*
X008580Y024363D03*
X008580Y024367D03*
X008580Y024371D03*
X008580Y024375D03*
X008580Y024383D03*
X008580Y024387D03*
X008580Y024391D03*
X008580Y024395D03*
X008580Y024403D03*
X008580Y024407D03*
X008580Y024411D03*
X008580Y024415D03*
X008580Y024423D03*
X008580Y024427D03*
X008580Y024431D03*
X008580Y024595D03*
X007880Y023863D03*
X007880Y023855D03*
X006916Y023095D03*
X006912Y023091D03*
X006668Y022607D03*
X006664Y022603D03*
X006660Y022595D03*
X006656Y022591D03*
X005880Y022103D03*
X005092Y022603D03*
X004848Y023087D03*
X004844Y023091D03*
X004840Y023095D03*
X004836Y023103D03*
X005620Y024323D03*
X005880Y024727D03*
X005880Y023847D03*
X009888Y024035D03*
X009888Y024043D03*
X009888Y024047D03*
X009888Y024051D03*
X009888Y024055D03*
X009888Y024063D03*
X009888Y024067D03*
X009888Y024071D03*
X009888Y024075D03*
X009888Y024083D03*
X009888Y024087D03*
X009888Y024091D03*
X009888Y024095D03*
X009888Y024103D03*
X009888Y024107D03*
X009888Y024111D03*
X009888Y024115D03*
X009888Y024123D03*
X009888Y024127D03*
X009888Y024131D03*
X009888Y024135D03*
X009888Y024143D03*
X009888Y024147D03*
X009888Y024151D03*
X009888Y024155D03*
X009888Y024163D03*
X009888Y024167D03*
X009888Y024171D03*
X009888Y024175D03*
X009888Y024183D03*
X009888Y024187D03*
X009888Y024191D03*
X009888Y024195D03*
X009888Y024203D03*
X009888Y024207D03*
X009888Y024211D03*
X009888Y024215D03*
X009888Y024223D03*
X009888Y024227D03*
X009888Y024231D03*
X009888Y024235D03*
X009888Y024243D03*
X009888Y024247D03*
X009888Y024251D03*
X009888Y024255D03*
X009888Y024263D03*
X009888Y024267D03*
X009888Y024271D03*
X009888Y024275D03*
X009888Y024283D03*
X009888Y024287D03*
X009888Y024291D03*
X009888Y024295D03*
X009888Y024303D03*
X009888Y024307D03*
X009888Y024311D03*
X009888Y024315D03*
X009888Y024323D03*
X009888Y024327D03*
X009888Y024331D03*
X009888Y024335D03*
X009888Y024343D03*
X009888Y024347D03*
X009888Y024351D03*
X009888Y024355D03*
X009888Y024363D03*
X009888Y024367D03*
X009888Y024371D03*
X009888Y024375D03*
X009888Y024383D03*
X009888Y024387D03*
X009888Y024391D03*
X009888Y024395D03*
X009888Y024403D03*
X009888Y024407D03*
X009888Y024411D03*
X009888Y024415D03*
X009888Y024423D03*
X009888Y024427D03*
X009888Y024431D03*
X010300Y024423D03*
X010544Y024211D03*
X010544Y024207D03*
X010544Y024203D03*
X010544Y024195D03*
X010544Y024191D03*
X010544Y024187D03*
X010544Y024183D03*
X010544Y024115D03*
X010544Y024111D03*
X010544Y024107D03*
X010544Y024103D03*
X010544Y024095D03*
X010544Y024091D03*
X010544Y024087D03*
X010544Y024083D03*
X010544Y023835D03*
X010544Y023831D03*
X010544Y023827D03*
X010544Y023823D03*
X010544Y023815D03*
X010544Y023811D03*
X010544Y023807D03*
X010544Y023803D03*
X010544Y023795D03*
X010544Y023791D03*
X010544Y023787D03*
X010544Y023783D03*
X010544Y023775D03*
X010544Y023771D03*
X010544Y023767D03*
X010544Y023763D03*
X010544Y023755D03*
X010544Y023751D03*
X010544Y023747D03*
X010544Y023743D03*
X010544Y023735D03*
X010544Y023731D03*
X010544Y023727D03*
X010544Y023723D03*
X010544Y023715D03*
X010544Y023711D03*
X010544Y023707D03*
X010544Y023703D03*
X010544Y023695D03*
X010544Y023691D03*
X010544Y023687D03*
X010544Y023683D03*
X010544Y023675D03*
X010544Y023671D03*
X010544Y023667D03*
X010544Y023663D03*
X010544Y023655D03*
X010544Y023651D03*
X010544Y023647D03*
X010544Y023643D03*
X010544Y023635D03*
X010544Y023631D03*
X010544Y023627D03*
X010544Y023623D03*
X010544Y023615D03*
X010544Y023611D03*
X010544Y023607D03*
X010544Y023603D03*
X010776Y023803D03*
X011000Y024087D03*
X011000Y024091D03*
X011000Y024095D03*
X011000Y024203D03*
X011000Y024207D03*
X011220Y024191D03*
X011220Y024187D03*
X011220Y024183D03*
X011220Y024175D03*
X011220Y024171D03*
X011220Y024167D03*
X011220Y024163D03*
X011220Y024155D03*
X011220Y024151D03*
X011220Y024147D03*
X011220Y024143D03*
X011220Y024135D03*
X011220Y024131D03*
X011220Y024127D03*
X011220Y024123D03*
X011220Y024115D03*
X011220Y024111D03*
X011220Y024107D03*
X011220Y024103D03*
X011676Y024071D03*
X011680Y024103D03*
X011680Y024107D03*
X011680Y024111D03*
X011680Y024115D03*
X011680Y024123D03*
X011680Y024171D03*
X011680Y024175D03*
X011680Y024183D03*
X011680Y024187D03*
X011680Y024191D03*
X011680Y024195D03*
X011676Y024223D03*
X011888Y024223D03*
X011888Y024227D03*
X011888Y024231D03*
X011888Y024235D03*
X011888Y024243D03*
X011888Y024247D03*
X011888Y024251D03*
X011888Y024255D03*
X011888Y024263D03*
X011888Y024267D03*
X011888Y024271D03*
X011888Y024275D03*
X011888Y024283D03*
X011888Y024287D03*
X011888Y024291D03*
X011888Y024295D03*
X011888Y024303D03*
X011888Y024307D03*
X011888Y024311D03*
X011888Y024315D03*
X011888Y024323D03*
X011888Y024327D03*
X011888Y024331D03*
X011888Y024335D03*
X011888Y024343D03*
X011888Y024347D03*
X011888Y024351D03*
X011888Y024355D03*
X011888Y024363D03*
X011888Y024367D03*
X011888Y024371D03*
X011888Y024375D03*
X011888Y024383D03*
X011888Y024387D03*
X011888Y024391D03*
X011888Y024395D03*
X011888Y024403D03*
X011888Y024407D03*
X011888Y024411D03*
X011888Y024415D03*
X011888Y024423D03*
X011888Y024427D03*
X011888Y024431D03*
X011888Y024435D03*
X011888Y024443D03*
X011888Y024447D03*
X011888Y024451D03*
X011888Y024455D03*
X011888Y024463D03*
X011888Y024467D03*
X011888Y024471D03*
X011888Y024475D03*
X011888Y024483D03*
X011888Y024487D03*
X011888Y024491D03*
X011888Y024495D03*
X011888Y024503D03*
X011888Y024507D03*
X011888Y024511D03*
X011888Y024515D03*
X011888Y024523D03*
X011888Y024527D03*
X011888Y024531D03*
X011888Y024535D03*
X011888Y024543D03*
X011888Y024547D03*
X011888Y024551D03*
X011888Y024555D03*
X011888Y024563D03*
X011888Y024567D03*
X011888Y024571D03*
X011888Y024575D03*
X011888Y024583D03*
X011888Y024587D03*
X011888Y024591D03*
X011888Y024595D03*
X011888Y024603D03*
X011888Y024607D03*
X011888Y024611D03*
X011888Y024615D03*
X011888Y024623D03*
X011888Y024627D03*
X011888Y024631D03*
X011888Y024635D03*
X011888Y024643D03*
X011888Y024647D03*
X011888Y024651D03*
X011888Y024655D03*
X011888Y024663D03*
X011888Y024667D03*
X011888Y024671D03*
X011888Y024675D03*
X011888Y024683D03*
X011888Y024687D03*
X011888Y024691D03*
X011888Y024695D03*
X011888Y024703D03*
X011888Y024707D03*
X011888Y024711D03*
X011888Y024715D03*
X011888Y024723D03*
X011888Y024727D03*
X011888Y024731D03*
X011888Y024735D03*
X011888Y024743D03*
X011888Y024747D03*
X011888Y024751D03*
X011888Y024755D03*
X011888Y024763D03*
X012108Y024435D03*
X012108Y024431D03*
X012108Y024427D03*
X011888Y024215D03*
X011888Y024211D03*
X011888Y024207D03*
X011888Y024203D03*
X011888Y024195D03*
X011888Y024191D03*
X011888Y024187D03*
X011888Y024183D03*
X011888Y024175D03*
X011888Y024171D03*
X011888Y024167D03*
X011888Y024163D03*
X011888Y024155D03*
X011888Y024151D03*
X011888Y024147D03*
X011888Y024143D03*
X011888Y024135D03*
X011888Y024131D03*
X011888Y024127D03*
X011888Y024123D03*
X011888Y024115D03*
X011888Y024111D03*
X011888Y024107D03*
X011888Y024103D03*
X011888Y024095D03*
X011888Y024091D03*
X011888Y024087D03*
X011888Y024083D03*
X011888Y024075D03*
X011888Y024071D03*
X011888Y024067D03*
X011888Y024063D03*
X011888Y024055D03*
X011888Y024051D03*
X011888Y024047D03*
X011888Y024043D03*
X011888Y024035D03*
X011888Y024031D03*
X011888Y024027D03*
X011888Y024023D03*
X011888Y024015D03*
X011888Y024011D03*
X011888Y024007D03*
X011888Y024003D03*
X011888Y023995D03*
X011888Y023991D03*
X011888Y023987D03*
X011888Y023983D03*
X011888Y023975D03*
X011888Y023971D03*
X011888Y023967D03*
X011888Y023963D03*
X011224Y023611D03*
X010776Y024491D03*
X010296Y024043D03*
X010296Y024035D03*
X010296Y024031D03*
X010296Y024027D03*
X009892Y024015D03*
X012564Y024431D03*
D121*
X012336Y023915D03*
X012240Y023695D03*
X012128Y023575D03*
X011620Y023951D03*
X011620Y024343D03*
X011244Y024315D03*
X010568Y023975D03*
X009628Y024611D03*
X009204Y024627D03*
X009196Y024447D03*
X009200Y024443D03*
X009148Y023983D03*
X006948Y024031D03*
X006944Y024035D03*
X006948Y023495D03*
X006276Y023547D03*
X006272Y023543D03*
X006152Y024295D03*
X005608Y024295D03*
X005484Y023543D03*
X004812Y024035D03*
X004808Y024031D03*
X004808Y023495D03*
X005188Y022511D03*
X005880Y022107D03*
X006228Y022347D03*
X006232Y022351D03*
X006576Y022515D03*
D122*
X006528Y022487D03*
X006172Y022295D03*
X005880Y022111D03*
X005584Y022295D03*
X005880Y022967D03*
X006220Y023487D03*
X006332Y024111D03*
X006184Y024243D03*
X006180Y024247D03*
X006176Y024251D03*
X006176Y024255D03*
X005580Y024251D03*
X005576Y024247D03*
X005556Y024223D03*
X005424Y024111D03*
X005536Y023487D03*
X004824Y023463D03*
X005232Y022487D03*
X006884Y024095D03*
X006888Y024091D03*
X009596Y024211D03*
X010588Y024347D03*
X010588Y023947D03*
X012336Y023963D03*
D123*
X012336Y024003D03*
X012152Y023623D03*
X009572Y024227D03*
X009208Y023943D03*
X009400Y024771D03*
X006852Y024115D03*
X006216Y023475D03*
X006024Y022855D03*
X005732Y022855D03*
X005216Y022855D03*
X005540Y023475D03*
X006540Y022855D03*
X005880Y022115D03*
D124*
X005878Y022119D03*
D125*
X005880Y022123D03*
X005880Y022923D03*
X005000Y023003D03*
X006360Y024131D03*
X006760Y023007D03*
X011460Y024455D03*
D126*
X010092Y023835D03*
X009320Y024367D03*
X006636Y023251D03*
X006356Y022407D03*
X005880Y022127D03*
X005124Y023251D03*
D127*
X004882Y023403D03*
X005378Y022427D03*
X005382Y022423D03*
X005878Y022131D03*
X006878Y023403D03*
X009342Y024355D03*
X009402Y024751D03*
D128*
X009382Y024331D03*
X009402Y023835D03*
X007998Y024191D03*
X006202Y023443D03*
X005878Y022135D03*
D129*
X005878Y022139D03*
X005558Y023439D03*
X006198Y023439D03*
X008038Y024759D03*
X009402Y024739D03*
X009402Y023839D03*
D130*
X010092Y023867D03*
X006848Y023391D03*
X005880Y022143D03*
D131*
X005880Y022147D03*
D132*
X005878Y022151D03*
X009402Y023855D03*
X010094Y023887D03*
D133*
X010710Y023843D03*
X010714Y024447D03*
X011394Y024447D03*
X011386Y023843D03*
X005878Y022155D03*
D134*
X005878Y022159D03*
D135*
X005880Y022163D03*
X008056Y024231D03*
X009400Y023871D03*
X010092Y023927D03*
X010724Y023867D03*
X010724Y024427D03*
X011404Y024427D03*
X011400Y023863D03*
D136*
X005880Y022167D03*
D137*
X005878Y022171D03*
X005878Y023335D03*
X008070Y024251D03*
X009398Y023883D03*
X009406Y024687D03*
X010738Y023895D03*
X011414Y023895D03*
X011414Y023891D03*
X011414Y024403D03*
D138*
X011422Y023915D03*
X008078Y024267D03*
X008078Y024695D03*
X005878Y022175D03*
D139*
X005880Y022179D03*
D140*
X005878Y022183D03*
X008090Y024295D03*
X008090Y024667D03*
X009410Y024663D03*
D141*
X009396Y023907D03*
X008096Y024311D03*
X008096Y024315D03*
X008096Y024647D03*
X005880Y022187D03*
D142*
X005878Y022191D03*
X008102Y024627D03*
X009394Y023915D03*
D143*
X009396Y023923D03*
X005880Y022195D03*
D144*
X005878Y022199D03*
D145*
X005878Y022203D03*
X005878Y023363D03*
D146*
X005880Y023367D03*
X005880Y022207D03*
D147*
X005878Y022211D03*
X005474Y022795D03*
X005878Y023371D03*
D148*
X005878Y022215D03*
D149*
X005878Y022219D03*
D150*
X005880Y022223D03*
D151*
X005880Y022227D03*
D152*
X005880Y022231D03*
X005168Y023367D03*
D153*
X005878Y022235D03*
D154*
X005878Y022239D03*
D155*
X005878Y022243D03*
X005474Y022827D03*
D156*
X005878Y022247D03*
D157*
X005878Y022251D03*
D158*
X005666Y022255D03*
X004994Y023011D03*
X004990Y023015D03*
X004986Y023023D03*
X004982Y023027D03*
X006646Y022891D03*
X006766Y023015D03*
X006774Y023023D03*
X009518Y024255D03*
D159*
X006764Y023011D03*
X006332Y022391D03*
X006092Y022255D03*
X005424Y022391D03*
X005112Y022891D03*
X004996Y023007D03*
D160*
X005040Y022959D03*
X005652Y022259D03*
X006716Y022959D03*
X010780Y024459D03*
X011460Y024459D03*
D161*
X006106Y022259D03*
X005446Y022379D03*
D162*
X005640Y022263D03*
X006116Y022263D03*
X006304Y022375D03*
X006660Y022915D03*
X005096Y022915D03*
X005084Y022923D03*
X005080Y022927D03*
X009400Y024767D03*
X011460Y023831D03*
X012336Y024027D03*
X012336Y024031D03*
D163*
X012336Y024023D03*
X012168Y023651D03*
X009556Y024235D03*
X006836Y024123D03*
X006216Y023471D03*
X005716Y022847D03*
X005464Y022371D03*
X005632Y022267D03*
X005232Y022847D03*
X005412Y024123D03*
X006296Y022371D03*
D164*
X006126Y022267D03*
X006534Y022851D03*
X005878Y022943D03*
X005878Y023287D03*
X005542Y023471D03*
X004922Y024123D03*
X006346Y024123D03*
X010782Y023827D03*
X011458Y023827D03*
X011458Y024467D03*
X012178Y023667D03*
X012178Y023663D03*
X012170Y023655D03*
X012166Y023647D03*
X012162Y023643D03*
X012334Y024015D03*
D165*
X012158Y023631D03*
X009402Y023811D03*
X006922Y023443D03*
X005878Y022947D03*
X005622Y022271D03*
X004838Y023443D03*
D166*
X006134Y022271D03*
X006286Y022367D03*
X009254Y024403D03*
X009574Y024643D03*
X012154Y023627D03*
D167*
X012198Y023683D03*
X012334Y023995D03*
X011458Y023823D03*
X011278Y024355D03*
X011458Y024471D03*
X010778Y024471D03*
X010782Y023823D03*
X010094Y023815D03*
X006922Y023447D03*
X005878Y022951D03*
X005618Y022275D03*
X006142Y022275D03*
X004834Y023447D03*
X004906Y024115D03*
X005166Y024275D03*
D168*
X006218Y023479D03*
X005610Y022279D03*
D169*
X006148Y022279D03*
X006016Y022859D03*
X005740Y022859D03*
X005208Y022859D03*
X005540Y023479D03*
X006548Y022859D03*
X010600Y023939D03*
D170*
X009236Y024643D03*
X006864Y024107D03*
X006336Y024115D03*
X005420Y024115D03*
X006284Y022695D03*
X006556Y022863D03*
X006156Y022283D03*
X005604Y022283D03*
X012144Y023607D03*
X012336Y023983D03*
D171*
X012336Y023975D03*
X012336Y023971D03*
X012212Y023687D03*
X009596Y024635D03*
X009236Y024415D03*
X009188Y023951D03*
X005596Y022287D03*
D172*
X005880Y022963D03*
X006160Y022287D03*
X005240Y022483D03*
X009400Y024775D03*
D173*
X009590Y024215D03*
X009594Y023947D03*
X009402Y023807D03*
X010094Y023811D03*
X011266Y023947D03*
X011266Y024347D03*
X012334Y023967D03*
X006934Y023463D03*
X006202Y024223D03*
X006198Y024227D03*
X006194Y024231D03*
X006190Y024235D03*
X005574Y024243D03*
X005566Y024235D03*
X005562Y024231D03*
X005558Y024227D03*
X004874Y024095D03*
X005590Y022291D03*
X006166Y022291D03*
D174*
X005580Y022299D03*
X012140Y023599D03*
D175*
X006178Y022299D03*
D176*
X006288Y022691D03*
X006536Y022491D03*
X005576Y022303D03*
X005468Y022691D03*
X005536Y023491D03*
X005588Y024263D03*
X004864Y024087D03*
X004860Y024083D03*
X004820Y023471D03*
X006892Y024087D03*
X009224Y024423D03*
X009604Y024207D03*
X009604Y023951D03*
X010584Y023951D03*
X010780Y023815D03*
X010920Y024355D03*
X010584Y024343D03*
X012136Y023591D03*
X012336Y023951D03*
X012336Y023955D03*
D177*
X012138Y023595D03*
X011598Y024355D03*
X011262Y024343D03*
X011262Y023951D03*
X009602Y024631D03*
X009182Y023955D03*
X006182Y022303D03*
X005878Y022971D03*
X004822Y023467D03*
X005582Y024255D03*
D178*
X005590Y024267D03*
X006330Y024107D03*
X005570Y022307D03*
X009610Y024627D03*
D179*
X009218Y024427D03*
X011258Y023955D03*
X011458Y023815D03*
X011934Y023911D03*
X011938Y023903D03*
X011942Y023891D03*
X006938Y023471D03*
X006898Y024083D03*
X006166Y024267D03*
X005594Y024271D03*
X005426Y024107D03*
X006222Y023491D03*
X006226Y023495D03*
X005878Y022975D03*
X005566Y022311D03*
X005222Y022491D03*
X006186Y022307D03*
D180*
X006192Y022311D03*
X006196Y022315D03*
X006544Y022495D03*
X006940Y023475D03*
X006908Y024075D03*
X006164Y024271D03*
X005596Y024275D03*
X005532Y023495D03*
X004816Y023475D03*
X005216Y022495D03*
X005512Y022355D03*
X005560Y022315D03*
X009608Y024203D03*
X010580Y023955D03*
X011932Y023915D03*
X011936Y023907D03*
X011940Y023895D03*
X011944Y023887D03*
X011944Y023883D03*
X012336Y023943D03*
X012336Y023947D03*
D181*
X012334Y023939D03*
X011946Y023879D03*
X011930Y023919D03*
X011254Y023959D03*
X010578Y023959D03*
X009614Y024199D03*
X008298Y024619D03*
X006942Y023479D03*
X006550Y022499D03*
X006202Y022319D03*
X005878Y022979D03*
X005558Y022319D03*
X005598Y024279D03*
D182*
X005432Y024103D03*
X006248Y023515D03*
X006328Y024103D03*
X006208Y022327D03*
X005552Y022323D03*
X005548Y022327D03*
X009208Y024435D03*
X011252Y024331D03*
X011252Y023963D03*
X011608Y023943D03*
X011928Y023923D03*
X011948Y023871D03*
X012132Y023583D03*
X011608Y024351D03*
D183*
X011924Y023927D03*
X012336Y023931D03*
X012336Y023935D03*
X009940Y023943D03*
X009164Y023967D03*
X009160Y023971D03*
X008300Y024343D03*
X006920Y024063D03*
X006916Y024067D03*
X006944Y023483D03*
X006244Y023511D03*
X005880Y022983D03*
X006204Y022323D03*
X005516Y023511D03*
X005600Y024283D03*
X006156Y024283D03*
D184*
X006154Y024287D03*
X005602Y024287D03*
X005502Y023523D03*
X005510Y023515D03*
X004814Y023483D03*
X004830Y024055D03*
X004838Y024063D03*
X005458Y022687D03*
X005202Y022503D03*
X005546Y022331D03*
X006214Y022331D03*
X006558Y022503D03*
X008302Y024615D03*
X009618Y024195D03*
X010574Y024331D03*
X010778Y024483D03*
X011250Y024327D03*
X011250Y023967D03*
X010930Y023943D03*
X010778Y023811D03*
X010574Y023963D03*
X011922Y023931D03*
X011950Y023867D03*
X011950Y023863D03*
X012230Y023691D03*
D185*
X009400Y023803D03*
X006260Y023527D03*
X005880Y022987D03*
X005540Y022335D03*
X006300Y022687D03*
X005500Y023527D03*
D186*
X005496Y023531D03*
X004812Y023487D03*
X004824Y024051D03*
X006224Y022343D03*
X006216Y022335D03*
X006564Y022507D03*
X006944Y023487D03*
X006936Y024047D03*
X006932Y024051D03*
X006928Y024055D03*
X006256Y023523D03*
X008304Y024347D03*
X009156Y023975D03*
X009208Y024631D03*
X009624Y024615D03*
X010572Y024327D03*
X010572Y023967D03*
X010936Y023947D03*
X011248Y023971D03*
X011456Y023811D03*
X011616Y023947D03*
X011616Y024347D03*
X011456Y024483D03*
X011248Y024323D03*
X010936Y024347D03*
X012336Y023927D03*
X012336Y023923D03*
D187*
X011952Y023859D03*
X009204Y024439D03*
X006324Y024099D03*
X005536Y022339D03*
D188*
X006220Y022339D03*
D189*
X006570Y022511D03*
X005878Y022991D03*
X005858Y023275D03*
X005490Y023535D03*
X005606Y024291D03*
X006154Y024291D03*
X006266Y023535D03*
X006262Y023531D03*
X006946Y023491D03*
X006938Y024043D03*
X005534Y022343D03*
X005530Y022347D03*
X005526Y022351D03*
X005194Y022507D03*
X004810Y023491D03*
X004818Y024043D03*
X004822Y024047D03*
X008310Y024351D03*
X008310Y024611D03*
X009622Y024191D03*
X009626Y024187D03*
X009622Y023963D03*
X009930Y023947D03*
X010254Y023947D03*
X010570Y023971D03*
X010570Y024323D03*
X010942Y024343D03*
X011246Y023975D03*
X011918Y023935D03*
X011954Y023855D03*
D190*
X011946Y023875D03*
X012134Y023587D03*
X011254Y024335D03*
X010930Y024351D03*
X010578Y024335D03*
X010246Y023943D03*
X010094Y023807D03*
X009610Y023955D03*
X009170Y023963D03*
X009214Y024431D03*
X009214Y024635D03*
X009614Y024623D03*
X006910Y024071D03*
X006162Y024275D03*
X006238Y023507D03*
X006234Y023503D03*
X005522Y023503D03*
X005518Y023507D03*
X004850Y024075D03*
X004846Y024071D03*
X004842Y024067D03*
X006246Y022355D03*
D191*
X005496Y022359D03*
X006932Y023459D03*
D192*
X006878Y024099D03*
X006186Y024239D03*
X005570Y024239D03*
X006262Y022359D03*
X009230Y024419D03*
D193*
X009248Y024407D03*
X009584Y023943D03*
X010600Y024355D03*
X012148Y023615D03*
X012336Y023991D03*
X006860Y024111D03*
X006592Y024275D03*
X006276Y022363D03*
X005484Y022363D03*
X004832Y023451D03*
X004900Y024111D03*
D194*
X005224Y022851D03*
X005472Y022367D03*
X005724Y022851D03*
X006032Y022851D03*
X009564Y024231D03*
X012160Y023635D03*
X012184Y023671D03*
X012188Y023675D03*
X012336Y024007D03*
X012336Y024011D03*
D195*
X012334Y024035D03*
X011458Y024463D03*
X010782Y024463D03*
X010782Y023831D03*
X009402Y023815D03*
X006910Y023431D03*
X006682Y022931D03*
X006678Y022927D03*
X006658Y022911D03*
X006214Y023467D03*
X005878Y022935D03*
X005706Y022843D03*
X005454Y022375D03*
X005242Y022843D03*
X005098Y022911D03*
X005074Y022931D03*
X004846Y023431D03*
X004930Y024127D03*
X005542Y023467D03*
X006826Y024127D03*
D196*
X006310Y022379D03*
D197*
X006318Y022383D03*
X005878Y023291D03*
X005438Y022383D03*
X005102Y023243D03*
X004942Y024131D03*
X006902Y023423D03*
D198*
X006744Y022987D03*
X006740Y022983D03*
X006732Y022975D03*
X005880Y022927D03*
X005432Y022387D03*
X005024Y022975D03*
X005016Y022983D03*
X009292Y024383D03*
X009400Y024763D03*
X012336Y024055D03*
D199*
X010782Y024455D03*
X010094Y023827D03*
X009526Y024251D03*
X008022Y024771D03*
X006758Y023003D03*
X006750Y022995D03*
X006746Y022991D03*
X006650Y022895D03*
X006326Y022387D03*
X005110Y022895D03*
X005014Y022987D03*
X005010Y022991D03*
X005006Y022995D03*
X005398Y024131D03*
X005166Y024267D03*
X006590Y024267D03*
D200*
X006800Y024135D03*
X006896Y023415D03*
X006644Y023247D03*
X006780Y023035D03*
X006780Y023031D03*
X006776Y023027D03*
X006284Y022707D03*
X006340Y022395D03*
X005420Y022395D03*
X005116Y022887D03*
X004980Y023031D03*
X004976Y023035D03*
X004864Y023415D03*
X004956Y024135D03*
X009304Y024375D03*
X011460Y024451D03*
D201*
X009510Y024259D03*
X006346Y022399D03*
X005414Y022399D03*
X004974Y023039D03*
D202*
X005120Y022883D03*
X005272Y022835D03*
X005408Y022403D03*
X005880Y023295D03*
X005548Y023455D03*
X004868Y023411D03*
X006640Y022883D03*
X009312Y024371D03*
D203*
X006890Y023411D03*
X006590Y024263D03*
X006350Y022403D03*
D204*
X006486Y022835D03*
X006082Y022835D03*
X005878Y022915D03*
X005678Y022835D03*
X005402Y022407D03*
X005166Y024263D03*
X009402Y023823D03*
X009502Y024263D03*
D205*
X009402Y024755D03*
X006362Y022411D03*
X005878Y022911D03*
X005398Y022411D03*
D206*
X005392Y022415D03*
X006284Y022711D03*
X006632Y022875D03*
X006884Y023407D03*
X009328Y024363D03*
D207*
X009486Y024271D03*
X009402Y023827D03*
X008030Y024767D03*
X006366Y022415D03*
X005474Y022711D03*
X005130Y022871D03*
X005130Y023255D03*
D208*
X005386Y022419D03*
X006370Y022419D03*
X009334Y024359D03*
X010094Y023839D03*
D209*
X006628Y023255D03*
X006628Y022871D03*
X006376Y022423D03*
D210*
X006380Y022427D03*
X006384Y022431D03*
X006624Y022867D03*
X006204Y023447D03*
X005136Y022867D03*
D211*
X005372Y022431D03*
X005552Y023447D03*
X009348Y024351D03*
X010092Y023843D03*
D212*
X009356Y024347D03*
X006284Y022715D03*
X005368Y022435D03*
D213*
X005474Y022715D03*
X005878Y022903D03*
X006390Y022435D03*
X009402Y023831D03*
X009466Y024283D03*
D214*
X006392Y022439D03*
X005364Y022439D03*
D215*
X005360Y022443D03*
X005356Y022447D03*
X005352Y022451D03*
X005144Y023263D03*
X005556Y023443D03*
X005880Y023303D03*
X006400Y022447D03*
X006616Y023263D03*
X008036Y024763D03*
X009376Y024335D03*
X009444Y024295D03*
D216*
X009458Y024287D03*
X009362Y024343D03*
X009402Y024747D03*
X010094Y023847D03*
X006398Y022443D03*
X005166Y024255D03*
D217*
X006406Y022451D03*
X009390Y024327D03*
X009430Y024303D03*
X010094Y023851D03*
D218*
X009424Y024307D03*
X009416Y024311D03*
X009396Y024323D03*
X006608Y023267D03*
X006408Y022455D03*
X005348Y022455D03*
D219*
X005344Y022459D03*
X006412Y022459D03*
X009404Y024319D03*
D220*
X009410Y024315D03*
X009402Y024743D03*
X005878Y022895D03*
X005342Y022463D03*
X005150Y023267D03*
D221*
X004896Y023395D03*
X005168Y024251D03*
X005336Y022467D03*
X006416Y022463D03*
X010092Y023855D03*
D222*
X006860Y023395D03*
X006420Y022467D03*
D223*
X006422Y022471D03*
X006426Y022475D03*
X006602Y023271D03*
X005878Y023307D03*
X005334Y022471D03*
X005154Y023271D03*
X006590Y024251D03*
D224*
X005332Y022475D03*
D225*
X005328Y022479D03*
X006428Y022479D03*
X010092Y023859D03*
D226*
X009904Y023975D03*
X009656Y024011D03*
X009656Y024015D03*
X009652Y024003D03*
X009656Y024143D03*
X009644Y024587D03*
X009176Y024591D03*
X009172Y024583D03*
X009172Y024487D03*
X009172Y024483D03*
X009128Y024015D03*
X008344Y024407D03*
X008344Y024551D03*
X008344Y024555D03*
X007016Y023915D03*
X007016Y023911D03*
X007012Y023923D03*
X007008Y023931D03*
X007016Y023615D03*
X007016Y023611D03*
X007012Y023607D03*
X007012Y023603D03*
X007008Y023595D03*
X006712Y023071D03*
X006712Y023067D03*
X006708Y023055D03*
X006704Y023051D03*
X006704Y023047D03*
X006344Y023663D03*
X006348Y023671D03*
X006348Y023675D03*
X006352Y023683D03*
X006356Y023691D03*
X006356Y023695D03*
X006356Y024003D03*
X006352Y024015D03*
X006348Y024023D03*
X006348Y024027D03*
X006344Y024035D03*
X005856Y023067D03*
X005856Y023063D03*
X005864Y023047D03*
X005864Y023043D03*
X005868Y023035D03*
X005452Y022483D03*
X005052Y023051D03*
X005052Y023055D03*
X005048Y023063D03*
X005044Y023075D03*
X004876Y023055D03*
X004744Y023607D03*
X004744Y023611D03*
X004736Y023631D03*
X004736Y023895D03*
X004744Y023915D03*
X004748Y023927D03*
X005404Y024011D03*
X005404Y024015D03*
X005408Y024023D03*
X005408Y024027D03*
X005412Y024031D03*
X005412Y024035D03*
X005416Y024043D03*
X005616Y024315D03*
X005404Y023687D03*
X005404Y023683D03*
X005408Y023675D03*
X005412Y023667D03*
X005412Y023663D03*
X005416Y023655D03*
X006308Y022491D03*
X006308Y022487D03*
X006624Y022555D03*
X006632Y022563D03*
X010552Y024027D03*
X010552Y024031D03*
X010552Y024263D03*
X010552Y024267D03*
X010976Y024295D03*
X011228Y024263D03*
X011228Y024255D03*
X011228Y024035D03*
X011228Y024031D03*
X010976Y023995D03*
X010972Y023991D03*
X011652Y023991D03*
X011656Y024295D03*
X011652Y024303D03*
X012136Y024347D03*
X012336Y023875D03*
X012284Y023751D03*
X012272Y023731D03*
D227*
X012286Y023755D03*
X012290Y023763D03*
X012290Y023767D03*
X012294Y023771D03*
X012302Y023791D03*
X012310Y023807D03*
X012318Y023827D03*
X012330Y023855D03*
X012254Y024063D03*
X012250Y024071D03*
X012246Y024083D03*
X012242Y024091D03*
X012234Y024111D03*
X012226Y024131D03*
X012218Y024147D03*
X012218Y024151D03*
X012210Y024167D03*
X012210Y024171D03*
X012202Y024187D03*
X012198Y024195D03*
X012194Y024207D03*
X012190Y024215D03*
X012186Y024227D03*
X012182Y024235D03*
X012178Y024243D03*
X012178Y024247D03*
X012174Y024255D03*
X012170Y024263D03*
X012170Y024267D03*
X012166Y024271D03*
X012166Y024275D03*
X012162Y024283D03*
X012162Y024287D03*
X012158Y024291D03*
X012158Y024295D03*
X012154Y024303D03*
X012154Y024307D03*
X012150Y024311D03*
X012150Y024315D03*
X012146Y024323D03*
X012146Y024327D03*
X012142Y024331D03*
X012142Y024335D03*
X012138Y024343D03*
X012134Y024351D03*
X012134Y024355D03*
X012130Y024363D03*
X012126Y024367D03*
X012126Y024371D03*
X012126Y024375D03*
X012122Y024383D03*
X012118Y024387D03*
X012118Y024391D03*
X012118Y024395D03*
X012114Y024403D03*
X012494Y024251D03*
X012494Y024247D03*
X012498Y024255D03*
X012502Y024267D03*
X012502Y024271D03*
X012506Y024275D03*
X012510Y024287D03*
X012510Y024291D03*
X012514Y024295D03*
X012518Y024303D03*
X012518Y024307D03*
X012518Y024311D03*
X012522Y024315D03*
X012526Y024323D03*
X012526Y024327D03*
X012530Y024331D03*
X012530Y024335D03*
X012534Y024343D03*
X012534Y024347D03*
X012538Y024351D03*
X012538Y024355D03*
X012542Y024363D03*
X012542Y024367D03*
X012546Y024371D03*
X012546Y024375D03*
X012550Y024383D03*
X012550Y024387D03*
X012554Y024391D03*
X012554Y024395D03*
X012558Y024403D03*
X012558Y024407D03*
X012486Y024231D03*
X012486Y024227D03*
X012482Y024223D03*
X012478Y024211D03*
X012478Y024207D03*
X012474Y024203D03*
X012470Y024191D03*
X012466Y024183D03*
X012462Y024171D03*
X012458Y024163D03*
X012454Y024151D03*
X012450Y024143D03*
X012446Y024135D03*
X012446Y024131D03*
X012442Y024123D03*
X012438Y024115D03*
X012434Y024103D03*
X012430Y024095D03*
X012426Y024083D03*
X012422Y024075D03*
X011662Y024015D03*
X011662Y024011D03*
X011658Y024007D03*
X011658Y024003D03*
X011654Y023995D03*
X011666Y024267D03*
X011662Y024283D03*
X011658Y024287D03*
X011658Y024291D03*
X011226Y024251D03*
X011226Y024247D03*
X011226Y024243D03*
X011226Y024055D03*
X011226Y024051D03*
X011226Y024047D03*
X011226Y024043D03*
X010982Y024011D03*
X010982Y024007D03*
X010978Y024003D03*
X010986Y024271D03*
X010982Y024283D03*
X010982Y024287D03*
X010978Y024291D03*
X010550Y024255D03*
X010550Y024251D03*
X010550Y024043D03*
X010550Y024035D03*
X010286Y023987D03*
X010286Y023983D03*
X009902Y023983D03*
X009898Y023991D03*
X009662Y024027D03*
X009662Y024031D03*
X009662Y024035D03*
X009658Y024023D03*
X009662Y024127D03*
X009662Y024131D03*
X009646Y024583D03*
X009174Y024587D03*
X009170Y024575D03*
X009170Y024491D03*
X008582Y024611D03*
X008582Y024615D03*
X008582Y024655D03*
X008582Y024663D03*
X008346Y024547D03*
X008346Y024543D03*
X008350Y024531D03*
X008350Y024527D03*
X008350Y024435D03*
X008350Y024431D03*
X008346Y024415D03*
X008346Y024411D03*
X008342Y024403D03*
X007018Y023907D03*
X007018Y023903D03*
X007022Y023895D03*
X007022Y023891D03*
X007022Y023887D03*
X007026Y023883D03*
X007026Y023875D03*
X007030Y023867D03*
X007030Y023863D03*
X007030Y023663D03*
X007026Y023651D03*
X007026Y023647D03*
X007026Y023643D03*
X007022Y023635D03*
X007022Y023631D03*
X007018Y023623D03*
X006890Y023063D03*
X006722Y023103D03*
X006722Y023107D03*
X006726Y023123D03*
X006718Y023091D03*
X006718Y023087D03*
X006718Y023083D03*
X006714Y023075D03*
X006710Y023063D03*
X006354Y023687D03*
X006358Y023703D03*
X006362Y023707D03*
X006362Y023711D03*
X006362Y023715D03*
X006366Y023723D03*
X006366Y023727D03*
X006366Y023731D03*
X006370Y023743D03*
X006370Y023955D03*
X006366Y023967D03*
X006366Y023971D03*
X006366Y023975D03*
X006362Y023983D03*
X006362Y023987D03*
X006362Y023991D03*
X006358Y023995D03*
X006354Y024007D03*
X006354Y024011D03*
X005878Y023863D03*
X005402Y024003D03*
X005402Y024007D03*
X005398Y023995D03*
X005398Y023991D03*
X005394Y023983D03*
X005390Y023967D03*
X005390Y023963D03*
X005386Y023947D03*
X005386Y023751D03*
X005390Y023735D03*
X005390Y023731D03*
X005394Y023723D03*
X005394Y023715D03*
X005398Y023707D03*
X005398Y023703D03*
X005402Y023695D03*
X005402Y023691D03*
X005838Y023271D03*
X005842Y023115D03*
X005846Y023095D03*
X005850Y023087D03*
X005850Y023083D03*
X005854Y023075D03*
X005854Y023071D03*
X005438Y022531D03*
X005442Y022515D03*
X005442Y022511D03*
X005446Y022503D03*
X005446Y022495D03*
X005450Y022491D03*
X005450Y022487D03*
X005126Y022563D03*
X005122Y022567D03*
X005118Y022571D03*
X005046Y023067D03*
X005046Y023071D03*
X005042Y023083D03*
X005042Y023087D03*
X005038Y023091D03*
X005038Y023095D03*
X005034Y023111D03*
X004870Y023063D03*
X004866Y023067D03*
X004738Y023623D03*
X004738Y023627D03*
X004734Y023635D03*
X004734Y023643D03*
X004730Y023647D03*
X004730Y023651D03*
X004730Y023655D03*
X004726Y023667D03*
X004730Y023871D03*
X004730Y023875D03*
X004734Y023883D03*
X004734Y023887D03*
X004734Y023891D03*
X004738Y023903D03*
X005878Y024715D03*
X006322Y022543D03*
X006318Y022527D03*
X006318Y022523D03*
X006314Y022511D03*
X006314Y022507D03*
X006314Y022503D03*
X006310Y022495D03*
X006306Y022483D03*
X006634Y022567D03*
X006638Y022571D03*
X006642Y022575D03*
D228*
X006518Y022483D03*
X005878Y023283D03*
X005538Y023483D03*
X006218Y023483D03*
X006870Y024103D03*
X008278Y024335D03*
X010594Y024351D03*
X010778Y024475D03*
X011270Y024351D03*
X011458Y024475D03*
X011270Y023943D03*
X010594Y023943D03*
X012142Y023603D03*
X005474Y022695D03*
X004886Y024103D03*
D229*
X005208Y022499D03*
D230*
X005130Y022559D03*
X005446Y022499D03*
X005858Y023059D03*
X005850Y023079D03*
X005846Y023099D03*
X006310Y022499D03*
X006714Y023079D03*
X006886Y023059D03*
X007018Y023619D03*
X007022Y023639D03*
X007030Y023659D03*
X007026Y023879D03*
X006358Y023999D03*
X006358Y023699D03*
X006138Y024319D03*
X005878Y023859D03*
X005618Y024319D03*
X005394Y023979D03*
X005394Y023719D03*
X005038Y023099D03*
X005042Y023079D03*
X004734Y023639D03*
X004726Y023859D03*
X004730Y023879D03*
X004738Y023899D03*
X008346Y024419D03*
X008342Y024559D03*
X008582Y024619D03*
X008582Y024659D03*
X009126Y024019D03*
X009170Y024579D03*
X009658Y024139D03*
X009658Y024019D03*
X009902Y023979D03*
X010282Y023979D03*
X010550Y024039D03*
X010550Y024259D03*
X010978Y023999D03*
X011662Y024279D03*
X012114Y024399D03*
X012122Y024379D03*
X012130Y024359D03*
X012138Y024339D03*
X012146Y024319D03*
X012174Y024259D03*
X012182Y024239D03*
X012190Y024219D03*
X012198Y024199D03*
X012206Y024179D03*
X012214Y024159D03*
X012222Y024139D03*
X012230Y024119D03*
X012466Y024179D03*
X012474Y024199D03*
X012482Y024219D03*
X012490Y024239D03*
X012498Y024259D03*
X012506Y024279D03*
X012514Y024299D03*
X012522Y024319D03*
X012530Y024339D03*
X012538Y024359D03*
X012554Y024399D03*
X012306Y023799D03*
X012298Y023779D03*
X012286Y023759D03*
D231*
X012296Y023775D03*
X012300Y023783D03*
X012300Y023787D03*
X012304Y023795D03*
X012308Y023803D03*
X012312Y023811D03*
X012312Y023815D03*
X012316Y023823D03*
X012320Y023831D03*
X012320Y023835D03*
X012324Y023843D03*
X012328Y023847D03*
X012328Y023851D03*
X012332Y023863D03*
X012336Y023867D03*
X012336Y023871D03*
X012416Y024063D03*
X012420Y024067D03*
X012420Y024071D03*
X012428Y024087D03*
X012428Y024091D03*
X012436Y024107D03*
X012436Y024111D03*
X012444Y024127D03*
X012452Y024147D03*
X012456Y024155D03*
X012460Y024167D03*
X012464Y024175D03*
X012468Y024187D03*
X012472Y024195D03*
X012480Y024215D03*
X012488Y024235D03*
X012492Y024243D03*
X012500Y024263D03*
X012508Y024283D03*
X012560Y024411D03*
X012560Y024415D03*
X012176Y024251D03*
X012184Y024231D03*
X012188Y024223D03*
X012192Y024211D03*
X012196Y024203D03*
X012200Y024191D03*
X012204Y024183D03*
X012208Y024175D03*
X012212Y024163D03*
X012216Y024155D03*
X012220Y024143D03*
X012224Y024135D03*
X012228Y024127D03*
X012228Y024123D03*
X012232Y024115D03*
X012236Y024107D03*
X012236Y024103D03*
X012240Y024095D03*
X012244Y024087D03*
X012248Y024075D03*
X012252Y024067D03*
X012112Y024407D03*
X012112Y024411D03*
X012112Y024415D03*
X011668Y024263D03*
X011664Y024271D03*
X011664Y024275D03*
X011672Y024247D03*
X011672Y024243D03*
X011672Y024051D03*
X011672Y024047D03*
X011668Y024035D03*
X011668Y024031D03*
X011668Y024027D03*
X011664Y024023D03*
X011892Y023947D03*
X012120Y023563D03*
X011224Y024063D03*
X011224Y024067D03*
X011224Y024071D03*
X011224Y024223D03*
X011224Y024227D03*
X011224Y024231D03*
X011224Y024235D03*
X010996Y024231D03*
X010992Y024251D03*
X010992Y024255D03*
X010988Y024263D03*
X010988Y024267D03*
X010984Y024275D03*
X010996Y024063D03*
X010992Y024043D03*
X010988Y024031D03*
X010988Y024027D03*
X010988Y024023D03*
X010984Y024015D03*
X010548Y024047D03*
X010548Y024051D03*
X010548Y024055D03*
X010548Y024235D03*
X010548Y024243D03*
X010548Y024247D03*
X010292Y024003D03*
X010288Y023995D03*
X010288Y023991D03*
X009900Y023987D03*
X009896Y023995D03*
X009664Y024043D03*
X009664Y024047D03*
X009664Y024051D03*
X009668Y024063D03*
X009668Y024067D03*
X009668Y024071D03*
X009668Y024075D03*
X009668Y024083D03*
X009668Y024087D03*
X009668Y024091D03*
X009668Y024095D03*
X009664Y024111D03*
X009664Y024115D03*
X009664Y024123D03*
X009168Y024495D03*
X009168Y024503D03*
X009164Y024507D03*
X009164Y024511D03*
X009164Y024515D03*
X009164Y024523D03*
X009164Y024527D03*
X009164Y024531D03*
X009164Y024535D03*
X009164Y024543D03*
X009164Y024547D03*
X009164Y024551D03*
X009164Y024555D03*
X009168Y024563D03*
X009168Y024567D03*
X009168Y024571D03*
X009124Y024023D03*
X008580Y024607D03*
X008580Y024667D03*
X008580Y024671D03*
X008348Y024535D03*
X008352Y024523D03*
X008352Y024515D03*
X008352Y024511D03*
X008352Y024507D03*
X008352Y024503D03*
X008352Y024495D03*
X008352Y024491D03*
X008352Y024487D03*
X008352Y024483D03*
X008352Y024475D03*
X008352Y024471D03*
X008352Y024467D03*
X008352Y024463D03*
X008352Y024455D03*
X008352Y024451D03*
X008352Y024447D03*
X008352Y024443D03*
X008348Y024427D03*
X008348Y024423D03*
X007880Y024423D03*
X007880Y024427D03*
X007880Y024431D03*
X007880Y024435D03*
X007880Y024443D03*
X007880Y024447D03*
X007880Y024451D03*
X007880Y024455D03*
X007880Y024463D03*
X007880Y024467D03*
X007880Y024471D03*
X007880Y024475D03*
X007880Y024483D03*
X007880Y024487D03*
X007880Y024491D03*
X007880Y024495D03*
X007880Y024503D03*
X007880Y024507D03*
X007880Y024511D03*
X007880Y024515D03*
X007880Y024523D03*
X007880Y024527D03*
X007880Y024531D03*
X007880Y024535D03*
X007880Y024543D03*
X007880Y024547D03*
X007880Y024551D03*
X007880Y024555D03*
X007880Y024563D03*
X007880Y024567D03*
X007880Y024571D03*
X007880Y024575D03*
X007880Y024583D03*
X007880Y024587D03*
X007880Y024591D03*
X007880Y024595D03*
X007880Y024603D03*
X007880Y024607D03*
X007880Y024611D03*
X007880Y024615D03*
X007880Y024623D03*
X007880Y024415D03*
X007880Y024411D03*
X007880Y024407D03*
X007880Y024403D03*
X007880Y024395D03*
X007880Y024391D03*
X007880Y024387D03*
X007880Y024383D03*
X007880Y024375D03*
X007880Y024371D03*
X007880Y024367D03*
X007880Y024363D03*
X007880Y024355D03*
X007880Y024351D03*
X007880Y024347D03*
X007880Y024343D03*
X007880Y024335D03*
X007880Y024187D03*
X007880Y024183D03*
X007880Y024175D03*
X007880Y024171D03*
X007880Y024167D03*
X007880Y024163D03*
X007880Y024155D03*
X007880Y024151D03*
X007880Y024147D03*
X007880Y024143D03*
X007880Y024135D03*
X007880Y024131D03*
X007880Y024127D03*
X007880Y024123D03*
X007880Y024115D03*
X007880Y024111D03*
X007880Y024107D03*
X007880Y024103D03*
X007880Y024095D03*
X007880Y024091D03*
X007880Y024087D03*
X007880Y024083D03*
X007880Y024075D03*
X007880Y024071D03*
X007880Y024067D03*
X007880Y024063D03*
X007880Y024055D03*
X007880Y024051D03*
X007880Y024047D03*
X007880Y024043D03*
X007880Y024035D03*
X007880Y024031D03*
X007880Y024027D03*
X007880Y024023D03*
X007880Y024015D03*
X007880Y024011D03*
X007880Y024007D03*
X007880Y024003D03*
X007880Y023995D03*
X007880Y023991D03*
X007880Y023987D03*
X007880Y023983D03*
X007880Y023975D03*
X007880Y023971D03*
X007880Y023967D03*
X007880Y023963D03*
X007880Y023955D03*
X007880Y023951D03*
X007880Y023947D03*
X007880Y023943D03*
X007880Y023935D03*
X007880Y023931D03*
X007880Y023927D03*
X007880Y023923D03*
X007880Y023915D03*
X007880Y023911D03*
X007880Y023907D03*
X007880Y023903D03*
X007880Y023895D03*
X007880Y023891D03*
X007880Y023887D03*
X007880Y023883D03*
X007880Y023875D03*
X007880Y023871D03*
X007040Y023815D03*
X007040Y023811D03*
X007040Y023807D03*
X007040Y023803D03*
X007040Y023795D03*
X007040Y023791D03*
X007036Y023827D03*
X007036Y023831D03*
X007036Y023835D03*
X007036Y023843D03*
X007032Y023847D03*
X007032Y023851D03*
X007032Y023855D03*
X007028Y023871D03*
X007040Y023735D03*
X007040Y023731D03*
X007040Y023727D03*
X007040Y023723D03*
X007040Y023715D03*
X007040Y023711D03*
X007036Y023695D03*
X007036Y023691D03*
X007036Y023687D03*
X007036Y023683D03*
X007032Y023675D03*
X007032Y023671D03*
X007032Y023667D03*
X007028Y023655D03*
X006900Y023075D03*
X006896Y023071D03*
X006892Y023067D03*
X006724Y023111D03*
X006724Y023115D03*
X006728Y023127D03*
X006728Y023131D03*
X006728Y023135D03*
X006728Y023143D03*
X006732Y023151D03*
X006732Y023155D03*
X006732Y023163D03*
X006732Y023167D03*
X006732Y023171D03*
X006720Y023095D03*
X006328Y022675D03*
X006328Y022671D03*
X006328Y022667D03*
X006328Y022663D03*
X006328Y022655D03*
X006328Y022595D03*
X006328Y022591D03*
X006328Y022587D03*
X006328Y022583D03*
X006328Y022575D03*
X006324Y022563D03*
X006324Y022555D03*
X006324Y022551D03*
X006324Y022547D03*
X006320Y022535D03*
X006320Y022531D03*
X006316Y022515D03*
X005848Y023091D03*
X005844Y023103D03*
X005844Y023107D03*
X005844Y023111D03*
X005840Y023123D03*
X005840Y023127D03*
X005840Y023131D03*
X005836Y023143D03*
X005836Y023147D03*
X005836Y023151D03*
X005836Y023155D03*
X005832Y023183D03*
X005832Y023187D03*
X005832Y023191D03*
X005832Y023195D03*
X005832Y023203D03*
X005832Y023207D03*
X005832Y023211D03*
X005832Y023215D03*
X005832Y023223D03*
X005832Y023227D03*
X005832Y023231D03*
X005832Y023235D03*
X005836Y023263D03*
X005836Y023267D03*
X005880Y023855D03*
X006372Y023935D03*
X006376Y023931D03*
X006376Y023927D03*
X006376Y023923D03*
X006376Y023915D03*
X006376Y023911D03*
X006380Y023895D03*
X006380Y023891D03*
X006380Y023887D03*
X006380Y023883D03*
X006380Y023875D03*
X006380Y023871D03*
X006380Y023827D03*
X006380Y023823D03*
X006380Y023815D03*
X006380Y023811D03*
X006380Y023807D03*
X006380Y023803D03*
X006376Y023787D03*
X006376Y023783D03*
X006376Y023775D03*
X006376Y023771D03*
X006376Y023767D03*
X006372Y023763D03*
X006372Y023755D03*
X006372Y023751D03*
X006372Y023747D03*
X006368Y023735D03*
X006372Y023943D03*
X006372Y023947D03*
X006372Y023951D03*
X006368Y023963D03*
X005396Y023987D03*
X005392Y023975D03*
X005392Y023971D03*
X005388Y023955D03*
X005388Y023951D03*
X005384Y023943D03*
X005384Y023935D03*
X005384Y023931D03*
X005384Y023927D03*
X005380Y023915D03*
X005380Y023911D03*
X005380Y023907D03*
X005380Y023903D03*
X005376Y023871D03*
X005376Y023867D03*
X005376Y023863D03*
X005376Y023855D03*
X005376Y023851D03*
X005376Y023847D03*
X005376Y023843D03*
X005376Y023835D03*
X005376Y023831D03*
X005376Y023827D03*
X005380Y023795D03*
X005380Y023791D03*
X005380Y023787D03*
X005380Y023783D03*
X005384Y023771D03*
X005384Y023767D03*
X005384Y023763D03*
X005384Y023755D03*
X005388Y023747D03*
X005388Y023743D03*
X005392Y023727D03*
X005396Y023711D03*
X005024Y023235D03*
X005024Y023231D03*
X005024Y023227D03*
X005024Y023223D03*
X005024Y023215D03*
X005024Y023203D03*
X005024Y023195D03*
X005024Y023191D03*
X005024Y023187D03*
X005024Y023183D03*
X005024Y023175D03*
X005024Y023171D03*
X005024Y023167D03*
X005028Y023151D03*
X005028Y023147D03*
X005028Y023143D03*
X005028Y023135D03*
X005028Y023131D03*
X005032Y023127D03*
X005032Y023123D03*
X005032Y023115D03*
X005036Y023107D03*
X005036Y023103D03*
X004860Y023071D03*
X004728Y023663D03*
X004724Y023671D03*
X004724Y023675D03*
X004724Y023683D03*
X004724Y023687D03*
X004720Y023691D03*
X004720Y023695D03*
X004720Y023703D03*
X004720Y023707D03*
X004720Y023711D03*
X004716Y023731D03*
X004716Y023735D03*
X004716Y023743D03*
X004716Y023747D03*
X004716Y023751D03*
X004716Y023755D03*
X004716Y023763D03*
X004716Y023767D03*
X004716Y023771D03*
X004716Y023775D03*
X004716Y023783D03*
X004716Y023787D03*
X004716Y023791D03*
X004716Y023795D03*
X004720Y023815D03*
X004720Y023823D03*
X004720Y023827D03*
X004720Y023831D03*
X004720Y023835D03*
X004724Y023843D03*
X004724Y023847D03*
X004724Y023851D03*
X004724Y023855D03*
X004728Y023863D03*
X004728Y023867D03*
X005428Y022655D03*
X005428Y022651D03*
X005428Y022647D03*
X005428Y022643D03*
X005428Y022635D03*
X005428Y022631D03*
X005428Y022627D03*
X005428Y022623D03*
X005428Y022615D03*
X005428Y022611D03*
X005428Y022607D03*
X005428Y022603D03*
X005428Y022595D03*
X005428Y022591D03*
X005432Y022571D03*
X005432Y022567D03*
X005432Y022563D03*
X005432Y022555D03*
X005436Y022547D03*
X005436Y022543D03*
X005436Y022535D03*
X005440Y022527D03*
X005440Y022523D03*
X005444Y022507D03*
X005116Y022575D03*
X005108Y022583D03*
D232*
X005182Y022515D03*
X005878Y022995D03*
X005482Y023547D03*
X005478Y023551D03*
X004802Y023503D03*
X004802Y024023D03*
X006322Y024095D03*
X006282Y023555D03*
X006278Y023551D03*
X006958Y023507D03*
X009198Y024623D03*
X010262Y023951D03*
X010942Y023951D03*
X011242Y023983D03*
X011242Y024311D03*
D233*
X012244Y023699D03*
X008316Y024359D03*
X006148Y024299D03*
X005472Y023559D03*
X005880Y022999D03*
X005176Y022519D03*
X004800Y024019D03*
D234*
X004724Y023839D03*
X004720Y023819D03*
X004716Y023779D03*
X004716Y023759D03*
X004716Y023739D03*
X004720Y023699D03*
X004724Y023679D03*
X004728Y023659D03*
X005024Y023219D03*
X005024Y023199D03*
X005024Y023179D03*
X005028Y023139D03*
X005032Y023119D03*
X005112Y022579D03*
X005428Y022599D03*
X005428Y022619D03*
X005428Y022639D03*
X005428Y022659D03*
X005432Y022679D03*
X005432Y022559D03*
X005436Y022539D03*
X005440Y022519D03*
X005840Y023119D03*
X005836Y023139D03*
X005836Y023159D03*
X005832Y023179D03*
X005832Y023199D03*
X005832Y023219D03*
X005836Y023259D03*
X005388Y023739D03*
X005384Y023759D03*
X005380Y023779D03*
X005376Y023839D03*
X005376Y023859D03*
X005380Y023919D03*
X005384Y023939D03*
X005388Y023959D03*
X005880Y024719D03*
X006364Y023979D03*
X006368Y023959D03*
X006372Y023939D03*
X006376Y023919D03*
X006380Y023879D03*
X006380Y023819D03*
X006376Y023779D03*
X006372Y023759D03*
X006368Y023739D03*
X006364Y023719D03*
X006732Y023159D03*
X006728Y023139D03*
X006724Y023119D03*
X006720Y023099D03*
X006328Y022679D03*
X006328Y022659D03*
X006328Y022579D03*
X006324Y022559D03*
X006320Y022539D03*
X006316Y022519D03*
X007032Y023679D03*
X007036Y023699D03*
X007040Y023719D03*
X007040Y023799D03*
X007036Y023839D03*
X007032Y023859D03*
X007880Y023879D03*
X007880Y023899D03*
X007880Y023919D03*
X007880Y023939D03*
X007880Y023959D03*
X007880Y023979D03*
X007880Y023999D03*
X007880Y024019D03*
X007880Y024039D03*
X007880Y024059D03*
X007880Y024079D03*
X007880Y024099D03*
X007880Y024119D03*
X007880Y024139D03*
X007880Y024159D03*
X007880Y024179D03*
X007880Y024339D03*
X007880Y024359D03*
X007880Y024379D03*
X007880Y024399D03*
X007880Y024419D03*
X007880Y024439D03*
X007880Y024459D03*
X007880Y024479D03*
X007880Y024499D03*
X007880Y024519D03*
X007880Y024539D03*
X007880Y024559D03*
X007880Y024579D03*
X007880Y024599D03*
X007880Y024619D03*
X008348Y024539D03*
X008352Y024519D03*
X008352Y024499D03*
X008352Y024479D03*
X008352Y024459D03*
X008352Y024439D03*
X009164Y024519D03*
X009164Y024539D03*
X009164Y024559D03*
X009168Y024499D03*
X009648Y024579D03*
X009664Y024119D03*
X009668Y024099D03*
X009668Y024079D03*
X009664Y024039D03*
X009896Y023999D03*
X010548Y024059D03*
X010548Y024239D03*
X010984Y024279D03*
X010992Y024039D03*
X010984Y024019D03*
X011224Y024059D03*
X011224Y024239D03*
X011668Y024259D03*
X011664Y024019D03*
X012164Y024279D03*
X012156Y024299D03*
X012240Y024099D03*
X012248Y024079D03*
X012256Y024059D03*
X012416Y024059D03*
X012424Y024079D03*
X012432Y024099D03*
X012440Y024119D03*
X012448Y024139D03*
X012456Y024159D03*
X012560Y024419D03*
X012332Y023859D03*
X012324Y023839D03*
X012316Y023819D03*
D235*
X006958Y024019D03*
X006582Y022519D03*
D236*
X006588Y022523D03*
X006960Y023511D03*
X006964Y023515D03*
X006964Y024011D03*
X006960Y024015D03*
X006592Y024283D03*
X006292Y023567D03*
X006288Y023563D03*
X005468Y023563D03*
X005468Y023567D03*
X005464Y023571D03*
X005436Y024095D03*
X005168Y024283D03*
X004796Y024015D03*
X004796Y023511D03*
X004800Y023507D03*
X005172Y022523D03*
X008316Y024603D03*
X009140Y023991D03*
X009192Y024451D03*
X010564Y024311D03*
X010564Y024307D03*
X010564Y023987D03*
X010564Y023983D03*
X011240Y023987D03*
X011240Y023991D03*
X011240Y024307D03*
X011628Y024335D03*
X011956Y023847D03*
X012336Y023903D03*
X012336Y023907D03*
D237*
X012126Y023571D03*
X011958Y023843D03*
X011634Y024331D03*
X011238Y024303D03*
X010954Y024331D03*
X010954Y023963D03*
X011238Y023995D03*
X010562Y023991D03*
X010266Y023955D03*
X010562Y024303D03*
X009638Y024175D03*
X009634Y023975D03*
X009634Y024603D03*
X009138Y023995D03*
X008322Y024363D03*
X006966Y024007D03*
X006302Y023583D03*
X006298Y023575D03*
X006294Y023571D03*
X005878Y023003D03*
X005462Y023575D03*
X005454Y023583D03*
X005438Y024091D03*
X004794Y024011D03*
X004786Y023527D03*
X004794Y023515D03*
X005166Y022527D03*
X006146Y024303D03*
D238*
X006144Y024307D03*
X006320Y024091D03*
X006308Y023591D03*
X006304Y023587D03*
X006972Y023527D03*
X006976Y023531D03*
X006976Y023535D03*
X006980Y023987D03*
X006976Y023991D03*
X006976Y023995D03*
X006596Y022531D03*
X006592Y022527D03*
X005452Y023587D03*
X005448Y023595D03*
X005612Y024307D03*
X004788Y024003D03*
X004784Y023995D03*
X004780Y023991D03*
X004776Y023543D03*
X004780Y023535D03*
X004784Y023531D03*
X004788Y023523D03*
X005156Y022535D03*
X005160Y022531D03*
X008324Y024367D03*
X008324Y024595D03*
X009188Y024611D03*
X009192Y024615D03*
X009184Y024463D03*
X009400Y024783D03*
X009640Y024171D03*
X009644Y024167D03*
X009640Y023983D03*
X009920Y023955D03*
X010092Y023803D03*
X010560Y023995D03*
X010776Y023807D03*
X010560Y024295D03*
X010776Y024487D03*
X011236Y024295D03*
X011236Y024291D03*
X011236Y024003D03*
X011456Y023807D03*
X011632Y023963D03*
X011636Y023967D03*
X011908Y023943D03*
X012252Y023707D03*
X012336Y023895D03*
X011636Y024327D03*
X011456Y024487D03*
D239*
X011638Y024323D03*
X011638Y023971D03*
X011234Y024007D03*
X011234Y024011D03*
X011234Y024283D03*
X011234Y024287D03*
X010962Y024323D03*
X010958Y024327D03*
X010962Y023971D03*
X010958Y023967D03*
X010558Y024003D03*
X010274Y023963D03*
X010558Y024291D03*
X009646Y024163D03*
X009646Y023991D03*
X009642Y023987D03*
X009638Y024595D03*
X009186Y024607D03*
X009182Y024467D03*
X009134Y024003D03*
X008330Y024375D03*
X008326Y024371D03*
X008330Y024587D03*
X008326Y024591D03*
X006990Y023971D03*
X006986Y023975D03*
X006982Y023983D03*
X006990Y023555D03*
X006986Y023551D03*
X006986Y023547D03*
X006982Y023543D03*
X006326Y023623D03*
X006322Y023615D03*
X006318Y023611D03*
X006318Y023607D03*
X006314Y023603D03*
X006310Y023595D03*
X006326Y024075D03*
X006322Y024083D03*
X006318Y024087D03*
X005878Y023011D03*
X005878Y023007D03*
X005442Y022683D03*
X005442Y023603D03*
X005442Y023607D03*
X005438Y023611D03*
X005438Y024087D03*
X004778Y023987D03*
X004774Y023983D03*
X004770Y023975D03*
X004766Y023967D03*
X004770Y023551D03*
X004774Y023547D03*
X006314Y022683D03*
X006602Y022535D03*
X012258Y023711D03*
X012334Y023891D03*
D240*
X011958Y023839D03*
X011642Y024319D03*
X010270Y023959D03*
X006986Y023979D03*
X006606Y022539D03*
X005434Y023619D03*
X005434Y024079D03*
X004774Y023979D03*
X004766Y023559D03*
X004778Y023539D03*
X005150Y022539D03*
D241*
X005148Y022543D03*
X004768Y023555D03*
X004768Y023971D03*
X005428Y024067D03*
X005428Y024071D03*
X005432Y024075D03*
X005428Y023631D03*
X005428Y023627D03*
X005432Y023623D03*
X006328Y023627D03*
X006332Y023635D03*
X006332Y024063D03*
X006328Y024071D03*
X006992Y023967D03*
X006992Y023963D03*
X006992Y023563D03*
X006612Y022543D03*
X008332Y024583D03*
X009132Y024007D03*
X009648Y023995D03*
X009652Y024155D03*
X009912Y023963D03*
X010968Y024311D03*
X011232Y024275D03*
X011232Y024015D03*
D242*
X011230Y024023D03*
X011230Y024027D03*
X011230Y024267D03*
X011230Y024271D03*
X010974Y024303D03*
X010970Y024307D03*
X010966Y024315D03*
X010970Y023987D03*
X010970Y023983D03*
X010554Y024015D03*
X010554Y024023D03*
X010554Y024271D03*
X010554Y024275D03*
X010278Y023971D03*
X009910Y023967D03*
X009906Y023971D03*
X009654Y024007D03*
X009654Y024147D03*
X009654Y024151D03*
X009178Y024475D03*
X009178Y024595D03*
X009130Y024011D03*
X008338Y024391D03*
X008334Y024383D03*
X008338Y024571D03*
X007002Y023947D03*
X007002Y023943D03*
X007006Y023935D03*
X007010Y023927D03*
X006998Y023955D03*
X007006Y023591D03*
X007006Y023587D03*
X007002Y023583D03*
X006878Y023051D03*
X006874Y023047D03*
X006618Y022551D03*
X005874Y023023D03*
X005870Y023027D03*
X005870Y023031D03*
X005426Y023635D03*
X005422Y023643D03*
X005418Y023651D03*
X005410Y023671D03*
X005418Y024047D03*
X005418Y024051D03*
X005422Y024055D03*
X005426Y024063D03*
X005878Y023883D03*
X005878Y023875D03*
X005878Y023871D03*
X006338Y024047D03*
X006338Y024051D03*
X006342Y024043D03*
X006346Y024031D03*
X006330Y024067D03*
X006346Y023667D03*
X006342Y023655D03*
X006338Y023651D03*
X006338Y023647D03*
X006330Y023631D03*
X005878Y024691D03*
X005878Y024695D03*
X005878Y024703D03*
X004758Y023951D03*
X004754Y023943D03*
X004750Y023935D03*
X004750Y023931D03*
X004746Y023923D03*
X004746Y023603D03*
X004750Y023595D03*
X004750Y023591D03*
X004754Y023587D03*
X004754Y023583D03*
X004758Y023575D03*
X005134Y022555D03*
X005138Y022551D03*
X005142Y022547D03*
X011646Y023983D03*
X011650Y023987D03*
X011650Y024307D03*
X011646Y024311D03*
X012266Y023723D03*
X012270Y023727D03*
X012274Y023735D03*
D243*
X012260Y023715D03*
X012336Y023883D03*
X012336Y023887D03*
X012124Y023567D03*
X011960Y023835D03*
X011644Y023975D03*
X011644Y024315D03*
X010964Y023975D03*
X010556Y024007D03*
X010556Y024011D03*
X010556Y024283D03*
X010556Y024287D03*
X010276Y023967D03*
X009640Y024591D03*
X009184Y024603D03*
X009180Y024471D03*
X008336Y024387D03*
X008336Y024575D03*
X007000Y023951D03*
X007000Y023575D03*
X006996Y023571D03*
X006996Y023567D03*
X006336Y023643D03*
X006336Y024055D03*
X006144Y024311D03*
X005880Y024311D03*
X005880Y024315D03*
X005880Y024323D03*
X005880Y024327D03*
X005880Y024331D03*
X005880Y024335D03*
X005880Y024343D03*
X005880Y024347D03*
X005880Y024351D03*
X005880Y024355D03*
X005880Y024363D03*
X005880Y024367D03*
X005880Y024371D03*
X005880Y024375D03*
X005880Y024383D03*
X005880Y024387D03*
X005880Y024391D03*
X005880Y024395D03*
X005880Y024403D03*
X005880Y024407D03*
X005880Y024411D03*
X005880Y024415D03*
X005880Y024423D03*
X005880Y024427D03*
X005880Y024431D03*
X005880Y024435D03*
X005880Y024443D03*
X005880Y024447D03*
X005880Y024451D03*
X005880Y024455D03*
X005880Y024463D03*
X005880Y024467D03*
X005880Y024471D03*
X005880Y024475D03*
X005880Y024483D03*
X005880Y024487D03*
X005880Y024491D03*
X005880Y024495D03*
X005880Y024503D03*
X005880Y024507D03*
X005880Y024511D03*
X005880Y024515D03*
X005880Y024523D03*
X005880Y024527D03*
X005880Y024531D03*
X005880Y024535D03*
X005880Y024543D03*
X005880Y024547D03*
X005880Y024551D03*
X005880Y024555D03*
X005880Y024563D03*
X005880Y024567D03*
X005880Y024571D03*
X005880Y024575D03*
X005880Y024583D03*
X005880Y024587D03*
X005880Y024591D03*
X005880Y024595D03*
X005880Y024603D03*
X005880Y024607D03*
X005880Y024611D03*
X005880Y024615D03*
X005880Y024623D03*
X005880Y024627D03*
X005880Y024631D03*
X005880Y024635D03*
X005880Y024643D03*
X005880Y024647D03*
X005880Y024651D03*
X005880Y024655D03*
X005880Y024663D03*
X005880Y024667D03*
X005880Y024671D03*
X005880Y024675D03*
X005880Y024683D03*
X005880Y024687D03*
X005880Y024307D03*
X005880Y024303D03*
X005880Y024295D03*
X005880Y024291D03*
X005880Y024287D03*
X005880Y024283D03*
X005880Y024275D03*
X005880Y024271D03*
X005880Y024267D03*
X005880Y024263D03*
X005880Y024255D03*
X005880Y024251D03*
X005880Y024247D03*
X005880Y024243D03*
X005880Y024235D03*
X005880Y024231D03*
X005880Y024227D03*
X005880Y024223D03*
X005880Y024215D03*
X005880Y024211D03*
X005880Y024207D03*
X005880Y024203D03*
X005880Y024195D03*
X005880Y024191D03*
X005880Y024187D03*
X005880Y024183D03*
X005880Y024175D03*
X005880Y024171D03*
X005880Y024167D03*
X005880Y024163D03*
X005880Y024155D03*
X005880Y024151D03*
X005880Y024147D03*
X005880Y024143D03*
X005880Y024135D03*
X005880Y024131D03*
X005880Y024127D03*
X005880Y024123D03*
X005880Y024115D03*
X005880Y024111D03*
X005880Y024107D03*
X005880Y024103D03*
X005880Y024095D03*
X005880Y024091D03*
X005880Y024087D03*
X005880Y024083D03*
X005880Y024075D03*
X005880Y024071D03*
X005880Y024067D03*
X005880Y024063D03*
X005880Y024055D03*
X005880Y024051D03*
X005880Y024047D03*
X005880Y024043D03*
X005880Y024035D03*
X005880Y024031D03*
X005880Y024027D03*
X005880Y024023D03*
X005880Y024015D03*
X005880Y024011D03*
X005880Y024007D03*
X005880Y024003D03*
X005880Y023995D03*
X005880Y023991D03*
X005880Y023987D03*
X005880Y023983D03*
X005880Y023975D03*
X005880Y023971D03*
X005880Y023967D03*
X005880Y023963D03*
X005880Y023955D03*
X005880Y023951D03*
X005880Y023947D03*
X005880Y023943D03*
X005880Y023935D03*
X005880Y023931D03*
X005880Y023927D03*
X005880Y023923D03*
X005880Y023915D03*
X005880Y023911D03*
X005880Y023907D03*
X005880Y023903D03*
X005880Y023895D03*
X005880Y023891D03*
X005880Y023887D03*
X005616Y024311D03*
X005436Y024083D03*
X005420Y023647D03*
X005436Y023615D03*
X005876Y023015D03*
X006616Y022547D03*
X004764Y023563D03*
X004764Y023567D03*
X004760Y023571D03*
X004756Y023947D03*
X004760Y023955D03*
X004764Y023963D03*
D244*
X005026Y023163D03*
X005026Y023155D03*
X004850Y023083D03*
X005106Y022587D03*
X005430Y022587D03*
X005430Y022583D03*
X005430Y022575D03*
X005434Y022551D03*
X005430Y022663D03*
X005430Y022667D03*
X005430Y022671D03*
X005430Y022675D03*
X005834Y023163D03*
X005834Y023167D03*
X005834Y023171D03*
X005834Y023175D03*
X005834Y023243D03*
X005834Y023247D03*
X005834Y023251D03*
X005834Y023255D03*
X006330Y022651D03*
X006330Y022647D03*
X006330Y022643D03*
X006330Y022635D03*
X006330Y022631D03*
X006330Y022627D03*
X006330Y022623D03*
X006330Y022615D03*
X006330Y022611D03*
X006330Y022607D03*
X006330Y022603D03*
X006326Y022571D03*
X006326Y022567D03*
X006650Y022583D03*
X006654Y022587D03*
X006906Y023083D03*
X006910Y023087D03*
X006730Y023147D03*
X006734Y023175D03*
X006734Y023183D03*
X006734Y023187D03*
X006734Y023191D03*
X006734Y023195D03*
X006734Y023203D03*
X006734Y023207D03*
X006734Y023211D03*
X006734Y023215D03*
X006734Y023223D03*
X006734Y023227D03*
X006734Y023231D03*
X006734Y023235D03*
X009666Y024055D03*
X009666Y024103D03*
X009666Y024107D03*
X009890Y024031D03*
X009890Y024027D03*
X009890Y024023D03*
X009894Y024011D03*
X009894Y024007D03*
X009894Y024003D03*
X010294Y024007D03*
X010294Y024011D03*
X010294Y024015D03*
X010294Y024023D03*
X010546Y024063D03*
X010546Y024067D03*
X010546Y024071D03*
X010546Y024075D03*
X010546Y024215D03*
X010546Y024223D03*
X010546Y024227D03*
X010546Y024231D03*
X010994Y024235D03*
X010994Y024243D03*
X010994Y024247D03*
X010994Y024055D03*
X010994Y024051D03*
X010994Y024047D03*
X010990Y024035D03*
X011454Y023803D03*
X011670Y024043D03*
X011674Y024055D03*
X011674Y024063D03*
X011674Y024067D03*
X011674Y024227D03*
X011674Y024231D03*
X011674Y024235D03*
X011670Y024251D03*
X011670Y024255D03*
X011454Y024491D03*
X011890Y023955D03*
X011890Y023951D03*
X012110Y024423D03*
X009650Y024575D03*
D245*
X010976Y024299D03*
X011228Y024259D03*
X011228Y024039D03*
X011656Y023999D03*
X011652Y024299D03*
X012336Y023879D03*
X012276Y023739D03*
X012548Y024379D03*
X007012Y023919D03*
X006708Y023059D03*
X006352Y023679D03*
X006352Y024019D03*
X005408Y024019D03*
X005408Y023679D03*
X005048Y023059D03*
X004872Y023059D03*
X004748Y023599D03*
X004744Y023919D03*
X006628Y022559D03*
D246*
X006646Y022579D03*
X006330Y022599D03*
X006330Y022619D03*
X006330Y022639D03*
X006734Y023179D03*
X006734Y023199D03*
X006734Y023219D03*
X005834Y023239D03*
X005430Y022579D03*
X005026Y023159D03*
X004854Y023079D03*
X009666Y024059D03*
X009890Y024019D03*
X010290Y023999D03*
X010294Y024019D03*
X010546Y024079D03*
X010546Y024219D03*
X010990Y024259D03*
X010994Y024239D03*
X010994Y024059D03*
X011670Y024039D03*
X011674Y024059D03*
X011674Y024239D03*
X011890Y023959D03*
X012110Y024419D03*
D247*
X012562Y024423D03*
X012562Y024427D03*
X011962Y023827D03*
X011678Y024075D03*
X011678Y024083D03*
X011678Y024087D03*
X011678Y024091D03*
X011678Y024095D03*
X011682Y024127D03*
X011682Y024131D03*
X011682Y024135D03*
X011682Y024143D03*
X011682Y024147D03*
X011682Y024151D03*
X011682Y024155D03*
X011682Y024163D03*
X011682Y024167D03*
X011678Y024203D03*
X011678Y024207D03*
X011678Y024211D03*
X011678Y024215D03*
X011222Y024215D03*
X011222Y024211D03*
X011222Y024207D03*
X011222Y024203D03*
X011222Y024195D03*
X011222Y024095D03*
X011222Y024091D03*
X011222Y024087D03*
X011222Y024083D03*
X011222Y024075D03*
X011002Y024103D03*
X011002Y024107D03*
X011002Y024111D03*
X011002Y024115D03*
X011002Y024123D03*
X011002Y024127D03*
X011002Y024131D03*
X011002Y024135D03*
X011002Y024143D03*
X011002Y024147D03*
X011002Y024151D03*
X011002Y024155D03*
X011002Y024163D03*
X011002Y024167D03*
X011002Y024171D03*
X011002Y024175D03*
X011002Y024183D03*
X011002Y024187D03*
X011002Y024191D03*
X011002Y024195D03*
X010998Y024211D03*
X010998Y024215D03*
X010998Y024223D03*
X010998Y024227D03*
X010998Y024083D03*
X010998Y024075D03*
X010998Y024071D03*
X010998Y024067D03*
X011222Y023835D03*
X011222Y023831D03*
X011222Y023827D03*
X011222Y023823D03*
X011222Y023815D03*
X011222Y023811D03*
X011222Y023807D03*
X011222Y023803D03*
X011222Y023795D03*
X011222Y023791D03*
X011222Y023787D03*
X011222Y023783D03*
X011222Y023775D03*
X011222Y023771D03*
X011222Y023767D03*
X011222Y023763D03*
X011222Y023755D03*
X011222Y023751D03*
X011222Y023747D03*
X011222Y023743D03*
X011222Y023735D03*
X011222Y023731D03*
X011222Y023727D03*
X011222Y023723D03*
X011222Y023715D03*
X011222Y023711D03*
X011222Y023707D03*
X011222Y023703D03*
X011222Y023695D03*
X011222Y023691D03*
X011222Y023687D03*
X011222Y023683D03*
X011222Y023675D03*
X011222Y023671D03*
X011222Y023667D03*
X011222Y023663D03*
X011222Y023655D03*
X011222Y023651D03*
X011222Y023647D03*
X011222Y023643D03*
X011222Y023635D03*
X011222Y023631D03*
X011222Y023627D03*
X011222Y023623D03*
X011222Y023615D03*
X010298Y024047D03*
X010298Y024051D03*
X010298Y024055D03*
X010298Y024063D03*
X010298Y024067D03*
X010298Y024071D03*
X010298Y024075D03*
X010298Y024083D03*
X010298Y024087D03*
X010298Y024091D03*
X010298Y024095D03*
X010298Y024103D03*
X010298Y024107D03*
X010298Y024111D03*
X010298Y024115D03*
X010298Y024123D03*
X010298Y024127D03*
X010298Y024131D03*
X010298Y024135D03*
X010298Y024143D03*
X010298Y024147D03*
X010298Y024151D03*
X010298Y024155D03*
X010298Y024163D03*
X010298Y024167D03*
X010298Y024171D03*
X010298Y024175D03*
X010298Y024183D03*
X010298Y024187D03*
X010298Y024191D03*
X010298Y024195D03*
X010298Y024203D03*
X010298Y024207D03*
X010298Y024211D03*
X010298Y024215D03*
X010298Y024223D03*
X010298Y024227D03*
X010298Y024231D03*
X010298Y024235D03*
X010298Y024243D03*
X010298Y024247D03*
X010298Y024251D03*
X010298Y024255D03*
X010298Y024263D03*
X010298Y024267D03*
X010298Y024271D03*
X010298Y024275D03*
X010298Y024283D03*
X010298Y024287D03*
X010298Y024291D03*
X010298Y024295D03*
X010298Y024303D03*
X010298Y024307D03*
X010298Y024311D03*
X010298Y024315D03*
X010298Y024323D03*
X010298Y024327D03*
X010298Y024331D03*
X010298Y024335D03*
X010298Y024343D03*
X010298Y024347D03*
X010298Y024351D03*
X010298Y024355D03*
X010298Y024363D03*
X010298Y024367D03*
X010298Y024371D03*
X010298Y024375D03*
X010298Y024383D03*
X010298Y024387D03*
X010298Y024391D03*
X010298Y024395D03*
X010298Y024403D03*
X010298Y024407D03*
X010298Y024411D03*
X010298Y024415D03*
X009122Y024031D03*
X009122Y024027D03*
X008582Y024603D03*
X008582Y024675D03*
X007878Y023867D03*
X007042Y023787D03*
X007042Y023783D03*
X007042Y023775D03*
X007042Y023771D03*
X007042Y023767D03*
X007042Y023763D03*
X007042Y023755D03*
X007042Y023751D03*
X007042Y023747D03*
X007042Y023743D03*
X007038Y023707D03*
X007038Y023703D03*
X007038Y023823D03*
X006382Y023831D03*
X006382Y023835D03*
X006382Y023843D03*
X006382Y023847D03*
X006382Y023851D03*
X006382Y023855D03*
X006382Y023863D03*
X006382Y023867D03*
X006378Y023903D03*
X006378Y023907D03*
X006378Y023795D03*
X006378Y023791D03*
X006138Y024323D03*
X005878Y024723D03*
X005878Y023851D03*
X005378Y023875D03*
X005378Y023883D03*
X005378Y023887D03*
X005378Y023891D03*
X005378Y023895D03*
X005382Y023923D03*
X005378Y023823D03*
X005378Y023815D03*
X005378Y023811D03*
X005378Y023807D03*
X005378Y023803D03*
X005382Y023775D03*
X005022Y023211D03*
X005022Y023207D03*
X004858Y023075D03*
X005098Y022595D03*
X005102Y022591D03*
X005838Y023135D03*
X004718Y023715D03*
X004718Y023723D03*
X004718Y023727D03*
X004718Y023803D03*
X004718Y023807D03*
X004718Y023811D03*
D248*
X004840Y023099D03*
X005096Y022599D03*
X006920Y023099D03*
X007880Y023859D03*
X008580Y023879D03*
X008580Y023899D03*
X008580Y023919D03*
X008580Y023939D03*
X008580Y023959D03*
X008580Y023979D03*
X008580Y023999D03*
X008580Y024019D03*
X008580Y024039D03*
X008580Y024059D03*
X008580Y024079D03*
X008580Y024099D03*
X008580Y024119D03*
X008580Y024139D03*
X008580Y024159D03*
X008580Y024179D03*
X008580Y024199D03*
X008580Y024219D03*
X008580Y024239D03*
X008580Y024259D03*
X008580Y024279D03*
X008580Y024299D03*
X008580Y024319D03*
X008580Y024339D03*
X008580Y024359D03*
X008580Y024379D03*
X008580Y024399D03*
X008580Y024419D03*
X008580Y024679D03*
X009888Y024419D03*
X009888Y024399D03*
X009888Y024379D03*
X009888Y024359D03*
X009888Y024339D03*
X009888Y024319D03*
X009888Y024299D03*
X009888Y024279D03*
X009888Y024259D03*
X009888Y024239D03*
X009888Y024219D03*
X009888Y024199D03*
X009888Y024179D03*
X009888Y024159D03*
X009888Y024139D03*
X009888Y024119D03*
X009888Y024099D03*
X009888Y024079D03*
X009888Y024059D03*
X009888Y024039D03*
X010296Y024039D03*
X010544Y024099D03*
X010544Y024119D03*
X010544Y024179D03*
X010544Y024199D03*
X010544Y023839D03*
X010544Y023819D03*
X010544Y023799D03*
X010544Y023779D03*
X010544Y023759D03*
X010544Y023739D03*
X010544Y023719D03*
X010544Y023699D03*
X010544Y023679D03*
X010544Y023659D03*
X010544Y023639D03*
X010544Y023619D03*
X011000Y024199D03*
X011220Y024179D03*
X011220Y024159D03*
X011220Y024139D03*
X011220Y024119D03*
X011680Y024119D03*
X011680Y024099D03*
X011680Y024179D03*
X011888Y024179D03*
X011888Y024199D03*
X011888Y024219D03*
X011888Y024239D03*
X011888Y024259D03*
X011888Y024279D03*
X011888Y024299D03*
X011888Y024319D03*
X011888Y024339D03*
X011888Y024359D03*
X011888Y024379D03*
X011888Y024399D03*
X011888Y024419D03*
X011888Y024439D03*
X011888Y024459D03*
X011888Y024479D03*
X011888Y024499D03*
X011888Y024519D03*
X011888Y024539D03*
X011888Y024559D03*
X011888Y024579D03*
X011888Y024599D03*
X011888Y024619D03*
X011888Y024639D03*
X011888Y024659D03*
X011888Y024679D03*
X011888Y024699D03*
X011888Y024719D03*
X011888Y024739D03*
X011888Y024759D03*
X011888Y024159D03*
X011888Y024139D03*
X011888Y024119D03*
X011888Y024099D03*
X011888Y024079D03*
X011888Y024059D03*
X011888Y024039D03*
X011888Y024019D03*
X011888Y023999D03*
X011888Y023979D03*
D249*
X011678Y024079D03*
X011682Y024139D03*
X011682Y024159D03*
X011678Y024199D03*
X011678Y024219D03*
X011222Y024219D03*
X011222Y024199D03*
X011222Y024099D03*
X011222Y024079D03*
X011002Y024099D03*
X011002Y024119D03*
X011002Y024139D03*
X011002Y024159D03*
X011002Y024179D03*
X010998Y024219D03*
X010998Y024079D03*
X011222Y023819D03*
X011222Y023799D03*
X011222Y023779D03*
X011222Y023759D03*
X011222Y023739D03*
X011222Y023719D03*
X011222Y023699D03*
X011222Y023679D03*
X011222Y023659D03*
X011222Y023639D03*
X011222Y023619D03*
X010298Y024059D03*
X010298Y024079D03*
X010298Y024099D03*
X010298Y024119D03*
X010298Y024139D03*
X010298Y024159D03*
X010298Y024179D03*
X010298Y024199D03*
X010298Y024219D03*
X010298Y024239D03*
X010298Y024259D03*
X010298Y024279D03*
X010298Y024299D03*
X010298Y024319D03*
X010298Y024339D03*
X010298Y024359D03*
X010298Y024379D03*
X010298Y024399D03*
X010298Y024419D03*
X008582Y024599D03*
X007038Y023819D03*
X007042Y023779D03*
X007042Y023759D03*
X007042Y023739D03*
X006902Y023079D03*
X006662Y022599D03*
X006378Y023799D03*
X006382Y023839D03*
X006382Y023859D03*
X006378Y023899D03*
X005378Y023899D03*
X005378Y023879D03*
X005378Y023819D03*
X005378Y023799D03*
X004718Y023799D03*
X004718Y023719D03*
D250*
X004830Y023111D03*
X005090Y022607D03*
X006670Y022611D03*
X006930Y023115D03*
X009650Y024571D03*
D251*
X009886Y024435D03*
X010298Y024435D03*
X010298Y024431D03*
X010298Y024427D03*
X010542Y024175D03*
X010542Y024171D03*
X010542Y024167D03*
X010542Y024163D03*
X010542Y024155D03*
X010542Y024151D03*
X010542Y024147D03*
X010542Y024143D03*
X010542Y024135D03*
X010542Y024131D03*
X010542Y024127D03*
X010542Y024123D03*
X011222Y023607D03*
X011222Y023603D03*
X011222Y023595D03*
X011962Y023823D03*
X012562Y024435D03*
X011886Y024767D03*
X008582Y024683D03*
X008582Y024591D03*
X008582Y024435D03*
X008582Y023855D03*
X007878Y023851D03*
X006926Y023111D03*
X006926Y023107D03*
X006922Y023103D03*
X006678Y022623D03*
X006674Y022615D03*
X005878Y023843D03*
X005622Y024327D03*
X005878Y024731D03*
X004822Y023123D03*
X004834Y023107D03*
X005078Y022623D03*
X005086Y022611D03*
D252*
X005084Y022615D03*
X005076Y022627D03*
X005072Y022631D03*
X005072Y022635D03*
X005064Y022647D03*
X004828Y023115D03*
X004820Y023127D03*
X004816Y023131D03*
X006136Y024327D03*
X006940Y023131D03*
X006936Y023127D03*
X006936Y023123D03*
X006684Y022631D03*
X006680Y022627D03*
X007880Y023843D03*
X007880Y023847D03*
X008580Y023851D03*
X008580Y024443D03*
X008580Y024687D03*
X009652Y024567D03*
X009888Y024443D03*
X010544Y023595D03*
X010544Y023591D03*
X011888Y024771D03*
X011888Y024775D03*
X012108Y024443D03*
X012564Y024443D03*
D253*
X012118Y023559D03*
X011222Y023599D03*
X010542Y023599D03*
X010542Y024139D03*
X010542Y024159D03*
X010298Y024439D03*
X008582Y024439D03*
X008582Y023859D03*
X005082Y022619D03*
D254*
X005068Y022639D03*
X004824Y023119D03*
X004812Y023139D03*
X006676Y022619D03*
X006688Y022639D03*
X006932Y023119D03*
X009120Y024039D03*
X009888Y024439D03*
X012108Y024439D03*
X012564Y024439D03*
D255*
X012562Y024447D03*
X012106Y024447D03*
X011222Y024451D03*
X011222Y023591D03*
X011222Y023587D03*
X010298Y024443D03*
X010298Y024447D03*
X009886Y024447D03*
X009650Y024563D03*
X009118Y024043D03*
X008582Y023847D03*
X008582Y024447D03*
X008582Y024587D03*
X006958Y023163D03*
X006954Y023155D03*
X006950Y023147D03*
X006946Y023143D03*
X006942Y023135D03*
X006706Y022671D03*
X006702Y022663D03*
X006698Y022655D03*
X006694Y022651D03*
X006694Y022647D03*
X006690Y022643D03*
X006686Y022635D03*
X006590Y024287D03*
X006134Y024331D03*
X005878Y024735D03*
X005166Y024287D03*
X004806Y023151D03*
X004810Y023143D03*
X004814Y023135D03*
X005062Y022651D03*
X005066Y022643D03*
D256*
X005060Y022655D03*
X005056Y022663D03*
X005044Y022687D03*
X004804Y023155D03*
X004800Y023163D03*
X004796Y023167D03*
X004796Y023171D03*
X005624Y024331D03*
X005880Y023835D03*
X006704Y022667D03*
X006960Y023167D03*
X006964Y023175D03*
X008580Y023843D03*
X009120Y024047D03*
X008580Y024451D03*
X008580Y024583D03*
X008580Y024691D03*
X009400Y024787D03*
X010300Y024451D03*
X010544Y024451D03*
X010544Y023587D03*
X010544Y023583D03*
X012564Y024451D03*
D257*
X011886Y024779D03*
X010094Y023799D03*
X006946Y023139D03*
X005878Y023839D03*
X005058Y022659D03*
X004802Y023159D03*
D258*
X005880Y024739D03*
X006956Y023159D03*
X006700Y022659D03*
X007880Y023839D03*
X011964Y023819D03*
D259*
X012108Y024451D03*
X011888Y024783D03*
X009888Y024451D03*
X006968Y023183D03*
X006952Y023151D03*
X006712Y022683D03*
X006708Y022675D03*
X005052Y022671D03*
X005052Y022667D03*
X005048Y022675D03*
X004808Y023147D03*
X004788Y023187D03*
D260*
X004792Y023179D03*
X005048Y022679D03*
X009652Y024559D03*
D261*
X008582Y023839D03*
X006974Y023199D03*
X006966Y023179D03*
X006726Y022719D03*
X006718Y022699D03*
X006710Y022679D03*
X005038Y022699D03*
X004782Y023199D03*
X011222Y023579D03*
D262*
X011222Y023583D03*
X011222Y024455D03*
X010542Y024455D03*
X010298Y024455D03*
X009886Y024455D03*
X009118Y024051D03*
X008582Y024455D03*
X008582Y024695D03*
X007878Y023835D03*
X006986Y023235D03*
X006982Y023223D03*
X006978Y023211D03*
X006978Y023207D03*
X006974Y023203D03*
X006974Y023195D03*
X006970Y023191D03*
X006970Y023187D03*
X006962Y023171D03*
X006730Y022731D03*
X006722Y022711D03*
X006722Y022707D03*
X006718Y022695D03*
X006714Y022691D03*
X006714Y022687D03*
X005046Y022683D03*
X005042Y022691D03*
X005042Y022695D03*
X005038Y022703D03*
X005034Y022711D03*
X005034Y022715D03*
X005030Y022723D03*
X004794Y023175D03*
X004790Y023183D03*
X004786Y023191D03*
X004786Y023195D03*
X004782Y023203D03*
X004778Y023211D03*
X004778Y023215D03*
X004774Y023227D03*
X011886Y024787D03*
X012106Y024455D03*
X012562Y024455D03*
D263*
X012174Y023659D03*
X009262Y024399D03*
X006918Y023439D03*
X006282Y022699D03*
X005474Y022699D03*
D264*
X005474Y022703D03*
X005034Y022967D03*
X005030Y022971D03*
X004854Y023423D03*
X006654Y023243D03*
X006730Y022971D03*
X006726Y022967D03*
X009534Y024247D03*
D265*
X009284Y024387D03*
X010780Y023835D03*
X011460Y023835D03*
X012336Y024047D03*
X012336Y024051D03*
X006816Y024131D03*
X006212Y023463D03*
X005544Y023463D03*
X005104Y022903D03*
X005036Y022963D03*
X006284Y022703D03*
X006652Y022903D03*
X006708Y022951D03*
X006712Y022955D03*
X006720Y022963D03*
D266*
X006740Y022771D03*
X006740Y022767D03*
X006720Y022703D03*
X006980Y023215D03*
X007880Y023831D03*
X008580Y023835D03*
X005880Y023831D03*
X005880Y024743D03*
X004760Y023283D03*
X004780Y023207D03*
X005020Y022763D03*
X005020Y022755D03*
D267*
X005024Y022747D03*
X005024Y022743D03*
X005028Y022735D03*
X005028Y022731D03*
X005028Y022727D03*
X005036Y022707D03*
X005016Y022775D03*
X004776Y023223D03*
X004772Y023231D03*
X004772Y023235D03*
X004768Y023243D03*
X004768Y023247D03*
X004768Y023251D03*
X004764Y023263D03*
X004764Y023267D03*
X005624Y024335D03*
X006132Y024335D03*
X006996Y023275D03*
X006992Y023255D03*
X006988Y023247D03*
X006988Y023243D03*
X006984Y023231D03*
X006984Y023227D03*
X006744Y022791D03*
X006736Y022755D03*
X006736Y022751D03*
X006736Y022747D03*
X006732Y022743D03*
X006732Y022735D03*
X006728Y022727D03*
X006728Y022723D03*
X006724Y022715D03*
X009652Y024555D03*
X011888Y024791D03*
X012112Y023555D03*
D268*
X010782Y024451D03*
X010094Y023831D03*
X006786Y023043D03*
X006642Y022887D03*
X006210Y023455D03*
X005474Y022707D03*
X004970Y023043D03*
X004970Y023047D03*
D269*
X004776Y023219D03*
X004772Y023239D03*
X004764Y023259D03*
X005016Y022779D03*
X005024Y022739D03*
X005032Y022719D03*
X006732Y022739D03*
X006988Y023239D03*
X006992Y023259D03*
X006996Y023279D03*
X009888Y024459D03*
X010544Y024459D03*
X010544Y023579D03*
X012108Y024459D03*
X012564Y024459D03*
D270*
X006282Y022719D03*
X005474Y022719D03*
D271*
X005474Y022723D03*
X006598Y023275D03*
X008010Y024195D03*
D272*
X006284Y022723D03*
X005160Y023275D03*
X010092Y023863D03*
D273*
X010092Y023871D03*
X009404Y024731D03*
X006284Y022727D03*
X005476Y022727D03*
D274*
X005474Y022731D03*
X005166Y023287D03*
X006590Y023287D03*
X008030Y024207D03*
X008050Y024747D03*
X010094Y023883D03*
D275*
X009400Y023851D03*
X006284Y022731D03*
D276*
X006590Y023291D03*
X005474Y022735D03*
X005166Y023291D03*
X010094Y023895D03*
D277*
X010092Y023891D03*
X008036Y024211D03*
X008052Y024743D03*
X006284Y022735D03*
X005880Y022875D03*
D278*
X005474Y022739D03*
D279*
X006284Y022739D03*
X008044Y024219D03*
D280*
X008062Y024727D03*
X009406Y024703D03*
X010094Y023923D03*
X010722Y023863D03*
X010722Y024431D03*
X011402Y024431D03*
X005878Y023327D03*
X005474Y022743D03*
X005166Y024227D03*
D281*
X005880Y022867D03*
X006284Y022743D03*
X008052Y024227D03*
X009400Y023867D03*
X010720Y024435D03*
X011400Y024435D03*
D282*
X011406Y024423D03*
X010726Y024423D03*
X010726Y023871D03*
X010094Y023931D03*
X005474Y022747D03*
D283*
X006284Y022747D03*
X010092Y023935D03*
X010728Y023875D03*
X011404Y023871D03*
D284*
X011222Y023575D03*
X010542Y023575D03*
X011222Y024463D03*
X011966Y023815D03*
X009118Y024055D03*
X008582Y023831D03*
X007002Y023343D03*
X007002Y023335D03*
X007002Y023331D03*
X007002Y023327D03*
X007002Y023323D03*
X007002Y023315D03*
X007002Y023311D03*
X007002Y023307D03*
X007002Y023303D03*
X006998Y023295D03*
X006998Y023291D03*
X006998Y023287D03*
X006998Y023283D03*
X006994Y023271D03*
X006994Y023267D03*
X006994Y023263D03*
X006990Y023251D03*
X006750Y022863D03*
X006750Y022855D03*
X006750Y022851D03*
X006750Y022847D03*
X006750Y022843D03*
X006750Y022835D03*
X006750Y022831D03*
X006750Y022827D03*
X006746Y022815D03*
X006746Y022811D03*
X006746Y022807D03*
X006746Y022803D03*
X006746Y022795D03*
X006742Y022787D03*
X006742Y022783D03*
X006742Y022775D03*
X006738Y022763D03*
X005022Y022751D03*
X005018Y022767D03*
X005018Y022771D03*
X005014Y022783D03*
X005014Y022787D03*
X005014Y022791D03*
X005014Y022795D03*
X005010Y022803D03*
X005010Y022807D03*
X005010Y022811D03*
X005010Y022815D03*
X005010Y022823D03*
X005010Y022827D03*
X005010Y022831D03*
X005010Y022835D03*
X004766Y023255D03*
X004762Y023271D03*
X004762Y023275D03*
X004758Y023287D03*
X004758Y023291D03*
X004758Y023295D03*
X004758Y023303D03*
X004758Y023307D03*
X004758Y023311D03*
X004754Y023323D03*
X004754Y023327D03*
X004754Y023331D03*
X004754Y023335D03*
X004754Y023343D03*
X004754Y023347D03*
X004754Y023351D03*
X004754Y023355D03*
X004754Y023363D03*
X004754Y023367D03*
D285*
X005474Y022751D03*
X006282Y022751D03*
X008066Y024247D03*
X008070Y024711D03*
X009406Y024691D03*
X010734Y024407D03*
X010734Y023887D03*
X011410Y023883D03*
X011410Y024411D03*
D286*
X011418Y024391D03*
X011418Y023903D03*
X010742Y023907D03*
X010742Y024387D03*
X009398Y023887D03*
X008074Y024703D03*
X006282Y022755D03*
X005474Y022755D03*
D287*
X005020Y022759D03*
X006980Y023219D03*
X008580Y024459D03*
X008580Y024579D03*
D288*
X006284Y022759D03*
X005476Y022759D03*
X011424Y023919D03*
D289*
X011222Y024459D03*
X010298Y024459D03*
X009118Y024059D03*
X008582Y024699D03*
X007002Y023339D03*
X007002Y023319D03*
X006998Y023299D03*
X006750Y022859D03*
X006750Y022839D03*
X006746Y022819D03*
X006746Y022799D03*
X006742Y022779D03*
X006738Y022759D03*
X005014Y022799D03*
X005010Y022819D03*
X004762Y023279D03*
X004758Y023299D03*
X004754Y023319D03*
X004754Y023339D03*
X004754Y023359D03*
D290*
X005474Y022763D03*
X006282Y022763D03*
X008086Y024283D03*
X008086Y024287D03*
X008086Y024675D03*
X009410Y024667D03*
D291*
X008094Y024655D03*
X008094Y024651D03*
X008094Y024307D03*
X005474Y022767D03*
X005166Y023323D03*
D292*
X005880Y023347D03*
X006284Y022767D03*
X008092Y024303D03*
X008092Y024663D03*
X009396Y023903D03*
D293*
X009410Y024651D03*
X005474Y022771D03*
D294*
X005878Y023351D03*
X006282Y022771D03*
X008098Y024323D03*
X008098Y024643D03*
D295*
X006590Y023331D03*
X005878Y023355D03*
X005474Y022775D03*
X005166Y023331D03*
D296*
X006284Y022775D03*
D297*
X006282Y022779D03*
X005474Y022779D03*
D298*
X005474Y022783D03*
X009394Y023931D03*
D299*
X006284Y022783D03*
D300*
X006590Y023343D03*
X005474Y022787D03*
X005166Y023343D03*
D301*
X006284Y022787D03*
D302*
X006282Y022791D03*
X006590Y023347D03*
X005474Y022791D03*
D303*
X005168Y023351D03*
X006284Y022795D03*
X006592Y023351D03*
D304*
X006284Y022799D03*
X005476Y022799D03*
D305*
X005474Y022803D03*
D306*
X006284Y022803D03*
D307*
X006282Y022807D03*
X006590Y023363D03*
X005474Y022807D03*
X005166Y023363D03*
D308*
X005474Y022811D03*
X006282Y022811D03*
X006590Y023367D03*
D309*
X006282Y022815D03*
X005474Y022815D03*
D310*
X005474Y022819D03*
D311*
X006284Y022819D03*
D312*
X005474Y022823D03*
D313*
X006284Y022823D03*
D314*
X006748Y022823D03*
X007004Y023347D03*
X007004Y023351D03*
X007004Y023355D03*
X007004Y023363D03*
X007004Y023367D03*
X007880Y023827D03*
X008580Y024463D03*
X008580Y024575D03*
X009652Y024551D03*
X009888Y024463D03*
X010300Y024463D03*
X010544Y024463D03*
X010544Y023571D03*
X011888Y024795D03*
X012108Y024463D03*
X012564Y024463D03*
X005880Y024747D03*
X005880Y023827D03*
X005008Y022863D03*
X005008Y022855D03*
X005008Y022851D03*
X005008Y022847D03*
X005008Y022843D03*
X004756Y023315D03*
D315*
X006284Y022827D03*
D316*
X006284Y022831D03*
X005476Y022831D03*
D317*
X005008Y022839D03*
X005008Y022859D03*
X006132Y024339D03*
X007004Y023359D03*
D318*
X005254Y022839D03*
X005106Y022899D03*
D319*
X005020Y022979D03*
X005696Y022839D03*
X006064Y022839D03*
X006504Y022839D03*
X006652Y022899D03*
X006736Y022979D03*
D320*
X006688Y022935D03*
X006656Y022907D03*
X006516Y022843D03*
X006052Y022843D03*
X005068Y022935D03*
X005060Y022943D03*
X006352Y024127D03*
X009276Y024391D03*
D321*
X009270Y024395D03*
X006914Y023435D03*
X006526Y022847D03*
X006042Y022847D03*
X004842Y023435D03*
D322*
X005202Y022863D03*
X005746Y022863D03*
X005878Y022955D03*
X006010Y022863D03*
X006926Y023451D03*
X009198Y023947D03*
X009578Y024223D03*
X009242Y024411D03*
X012146Y023611D03*
X012334Y023987D03*
D323*
X005880Y022871D03*
D324*
X006206Y023451D03*
X005550Y023451D03*
X005386Y024135D03*
X004874Y023407D03*
X005126Y022875D03*
X006370Y024135D03*
X009494Y024267D03*
D325*
X005122Y022879D03*
D326*
X005880Y022879D03*
D327*
X006636Y022879D03*
D328*
X006590Y023283D03*
X005878Y022883D03*
X005166Y023283D03*
X005166Y024243D03*
X006590Y024243D03*
X008046Y024751D03*
X009402Y023847D03*
D329*
X009402Y023843D03*
X009402Y024735D03*
X008042Y024755D03*
X005878Y022887D03*
X005166Y024247D03*
D330*
X005880Y022891D03*
D331*
X005880Y022899D03*
D332*
X005878Y022931D03*
X005102Y022907D03*
X005054Y022947D03*
X005046Y022955D03*
X005406Y024127D03*
X006698Y022943D03*
X006702Y022947D03*
X006906Y023427D03*
X009542Y024243D03*
X010094Y023823D03*
X012334Y024043D03*
D333*
X009480Y024275D03*
X005880Y022907D03*
D334*
X006668Y022919D03*
X005092Y022919D03*
X009548Y024239D03*
D335*
X009400Y024759D03*
X006784Y023039D03*
X005880Y022919D03*
D336*
X006672Y022923D03*
X006592Y024271D03*
X005168Y024271D03*
D337*
X005064Y022939D03*
X006692Y022939D03*
X012336Y024039D03*
D338*
X005878Y022939D03*
D339*
X005050Y022951D03*
X004850Y023427D03*
D340*
X004826Y023459D03*
X005878Y022959D03*
X011458Y023819D03*
D341*
X010782Y023839D03*
X009402Y023819D03*
X009298Y024379D03*
X006898Y023419D03*
X006754Y022999D03*
X005546Y023459D03*
X004858Y023419D03*
X005002Y022999D03*
D342*
X004986Y023019D03*
X006770Y023019D03*
D343*
X006324Y023619D03*
X006324Y024079D03*
X005880Y024079D03*
X005880Y024099D03*
X005880Y024119D03*
X005880Y024139D03*
X005880Y024159D03*
X005880Y024179D03*
X005880Y024199D03*
X005880Y024219D03*
X005880Y024239D03*
X005880Y024259D03*
X005880Y024279D03*
X005880Y024299D03*
X005880Y024319D03*
X005880Y024339D03*
X005880Y024359D03*
X005880Y024379D03*
X005880Y024399D03*
X005880Y024419D03*
X005880Y024439D03*
X005880Y024459D03*
X005880Y024479D03*
X005880Y024499D03*
X005880Y024519D03*
X005880Y024539D03*
X005880Y024559D03*
X005880Y024579D03*
X005880Y024599D03*
X005880Y024619D03*
X005880Y024639D03*
X005880Y024659D03*
X005880Y024679D03*
X005880Y024059D03*
X005880Y024039D03*
X005880Y024019D03*
X005880Y023999D03*
X005880Y023979D03*
X005880Y023959D03*
X005880Y023939D03*
X005880Y023919D03*
X005880Y023899D03*
X005424Y024059D03*
X005424Y023639D03*
X005876Y023019D03*
X004756Y023579D03*
X006996Y023959D03*
X009180Y024599D03*
X010964Y024319D03*
X011644Y023979D03*
X012264Y023719D03*
D344*
X010966Y023979D03*
X010554Y024019D03*
X010554Y024279D03*
X009650Y023999D03*
X009174Y024479D03*
X008334Y024579D03*
X007006Y023939D03*
X007010Y023599D03*
X007002Y023579D03*
X006342Y023659D03*
X006334Y023639D03*
X006342Y024039D03*
X006334Y024059D03*
X005878Y023879D03*
X005414Y024039D03*
X005414Y023659D03*
X005866Y023039D03*
X005878Y024699D03*
X004762Y023959D03*
X004754Y023939D03*
D345*
X004740Y023911D03*
X004740Y023907D03*
X004740Y023615D03*
X004880Y023051D03*
X005860Y023051D03*
X005860Y023055D03*
X005880Y023867D03*
X006140Y024315D03*
X005880Y024707D03*
X005880Y024711D03*
X006880Y023055D03*
X007020Y023627D03*
X008340Y024395D03*
X008340Y024563D03*
X008340Y024567D03*
X008580Y024623D03*
X008580Y024627D03*
X008580Y024631D03*
X008580Y024635D03*
X008580Y024643D03*
X008580Y024647D03*
X008580Y024651D03*
X009660Y024135D03*
X010280Y023975D03*
X011960Y023831D03*
X012280Y023747D03*
X012280Y023743D03*
D346*
X012336Y024019D03*
X010092Y023819D03*
X006668Y023239D03*
X005088Y023239D03*
D347*
X005112Y023247D03*
D348*
X005138Y023259D03*
X006622Y023259D03*
D349*
X006592Y023279D03*
X005164Y023279D03*
D350*
X005870Y023279D03*
X008290Y024339D03*
D351*
X008058Y024735D03*
X009406Y024711D03*
X009402Y023863D03*
X010094Y023907D03*
X010714Y023851D03*
X011390Y023847D03*
X006590Y024231D03*
X006590Y023295D03*
X005878Y023323D03*
X005166Y023295D03*
D352*
X005166Y023299D03*
X011398Y023859D03*
D353*
X005880Y023299D03*
D354*
X006590Y023299D03*
D355*
X006590Y023303D03*
X005878Y023331D03*
X005166Y023303D03*
X005166Y024223D03*
X006590Y024223D03*
X009398Y023875D03*
X009406Y024695D03*
X010730Y024415D03*
X011406Y023875D03*
D356*
X011412Y023887D03*
X011412Y024407D03*
X006592Y023307D03*
X005168Y023307D03*
D357*
X005168Y023311D03*
X008076Y024263D03*
X010744Y024383D03*
X010744Y023915D03*
X010744Y023911D03*
X011420Y023911D03*
X011420Y023907D03*
X011420Y024383D03*
X011420Y024387D03*
D358*
X005878Y023311D03*
X005562Y023435D03*
D359*
X006590Y023311D03*
D360*
X006590Y023315D03*
X005166Y023315D03*
X008082Y024275D03*
X008082Y024687D03*
X010750Y024363D03*
X010750Y023935D03*
X010750Y023931D03*
X011426Y023931D03*
X011426Y023927D03*
X011426Y024367D03*
D361*
X005878Y023315D03*
D362*
X005168Y023319D03*
X006592Y023319D03*
D363*
X005880Y023319D03*
X009404Y024719D03*
D364*
X009410Y024655D03*
X006590Y023323D03*
D365*
X006592Y023327D03*
X005168Y023327D03*
X008100Y024327D03*
X008100Y024331D03*
X008100Y024631D03*
X008100Y024635D03*
X009412Y024647D03*
X009396Y023911D03*
D366*
X006592Y023335D03*
X005168Y023335D03*
D367*
X005166Y023339D03*
X006590Y023339D03*
X009394Y023939D03*
D368*
X011422Y024379D03*
X005878Y023339D03*
D369*
X005880Y023343D03*
D370*
X005168Y023347D03*
D371*
X005166Y023355D03*
X006590Y023355D03*
D372*
X006590Y023359D03*
X005878Y023379D03*
X005166Y023359D03*
D373*
X005880Y023359D03*
D374*
X006648Y023375D03*
X005108Y023371D03*
D375*
X006650Y023371D03*
D376*
X005110Y023375D03*
D377*
X005880Y023375D03*
D378*
X006644Y023379D03*
X005112Y023379D03*
D379*
X005878Y023383D03*
X005878Y023387D03*
D380*
X006194Y023435D03*
X004910Y023391D03*
D381*
X005880Y023391D03*
D382*
X005878Y023395D03*
D383*
X004886Y023399D03*
D384*
X005878Y023399D03*
D385*
X006870Y023399D03*
X009370Y024339D03*
D386*
X005878Y023403D03*
D387*
X005878Y023407D03*
D388*
X005878Y023411D03*
D389*
X005880Y023415D03*
D390*
X005878Y023419D03*
D391*
X005878Y023423D03*
D392*
X005576Y023427D03*
X006180Y023427D03*
D393*
X006188Y023431D03*
X005568Y023431D03*
X009404Y024723D03*
D394*
X006844Y024119D03*
X004840Y023439D03*
X012160Y023639D03*
D395*
X006928Y023455D03*
X004828Y023455D03*
X004892Y024107D03*
D396*
X006212Y023459D03*
D397*
X006170Y024263D03*
X006934Y023467D03*
X008286Y024623D03*
X004870Y024091D03*
D398*
X004816Y023479D03*
X006160Y024279D03*
X006924Y024059D03*
X009400Y024779D03*
X009616Y023959D03*
D399*
X009634Y024179D03*
X010566Y023979D03*
X010946Y024339D03*
X011626Y024339D03*
X011914Y023939D03*
X006286Y023559D03*
X005610Y024299D03*
X004806Y023499D03*
D400*
X005528Y023499D03*
X006232Y023499D03*
X010580Y024339D03*
D401*
X010568Y024319D03*
X011244Y023979D03*
X006952Y023499D03*
X005488Y023539D03*
X004816Y024039D03*
D402*
X004806Y024027D03*
X005474Y023555D03*
X006954Y023503D03*
X006954Y024023D03*
X006954Y024027D03*
X008314Y024355D03*
X008314Y024607D03*
X009146Y023987D03*
X009626Y023967D03*
X009630Y023971D03*
X009630Y024183D03*
X009926Y023951D03*
X009630Y024607D03*
X010566Y024315D03*
X010946Y023955D03*
X011626Y023955D03*
X011954Y023851D03*
X012334Y023911D03*
D403*
X011630Y023959D03*
X010950Y023959D03*
X004790Y023519D03*
D404*
X004834Y024059D03*
X005506Y023519D03*
X006250Y023519D03*
X009618Y024619D03*
D405*
X009194Y024619D03*
X009186Y024459D03*
X009638Y023979D03*
X008322Y024599D03*
X006966Y023519D03*
X006298Y023579D03*
X005458Y023579D03*
X004786Y023999D03*
X011238Y024299D03*
D406*
X010950Y024335D03*
X012250Y023703D03*
X009190Y024455D03*
X006970Y024003D03*
X006970Y023523D03*
X005610Y024303D03*
X005450Y023591D03*
X004790Y024007D03*
D407*
X005434Y024099D03*
X006270Y023539D03*
X006942Y024039D03*
X009150Y023979D03*
X011246Y024319D03*
X012130Y023579D03*
X012334Y023919D03*
D408*
X012336Y023899D03*
X011236Y023999D03*
X010560Y023999D03*
X010560Y024299D03*
X009916Y023959D03*
X009636Y024599D03*
X009136Y023999D03*
X006980Y023539D03*
X006972Y023999D03*
X006312Y023599D03*
X005444Y023599D03*
D409*
X010544Y023547D03*
X011976Y023803D03*
D410*
X011450Y023795D03*
X011222Y023547D03*
X010770Y023795D03*
D411*
X010544Y024483D03*
X010300Y024483D03*
X009888Y024483D03*
X009652Y024531D03*
X008580Y024483D03*
X008580Y024715D03*
X011224Y024483D03*
X012108Y024483D03*
X012104Y023547D03*
X005880Y023811D03*
X005880Y024763D03*
D412*
X007880Y023807D03*
X008580Y023807D03*
X010544Y023551D03*
D413*
X011222Y023551D03*
D414*
X012110Y023551D03*
X006130Y024343D03*
D415*
X007880Y023811D03*
X008580Y023811D03*
X010544Y023555D03*
D416*
X011222Y023555D03*
X011970Y023807D03*
X009118Y024075D03*
X006130Y024351D03*
X005630Y024351D03*
D417*
X006992Y023559D03*
X008332Y024379D03*
X009648Y024159D03*
X011232Y024279D03*
X011232Y024019D03*
D418*
X011222Y023559D03*
X010542Y023559D03*
D419*
X010544Y023563D03*
X010544Y024471D03*
X009888Y024471D03*
X008580Y024707D03*
X011968Y023811D03*
X012108Y024471D03*
D420*
X011222Y024475D03*
X011222Y023563D03*
X009118Y024071D03*
X008582Y024567D03*
X005878Y024755D03*
D421*
X005880Y024751D03*
X005880Y023823D03*
X007880Y023823D03*
X008580Y024571D03*
X009888Y024467D03*
X010544Y024467D03*
X010544Y023567D03*
X011452Y024495D03*
X012108Y024467D03*
X012564Y024467D03*
D422*
X012562Y024471D03*
X011886Y024803D03*
X011222Y024471D03*
X011222Y023567D03*
X010298Y024471D03*
X009654Y024543D03*
X009118Y024067D03*
X008582Y023823D03*
X008582Y024471D03*
X005626Y024343D03*
D423*
X008582Y024467D03*
X008582Y024703D03*
X009118Y024063D03*
X008582Y023827D03*
X010298Y024467D03*
X011222Y024467D03*
X011222Y023571D03*
D424*
X009400Y023799D03*
X008580Y024639D03*
X008340Y024399D03*
X007020Y023899D03*
X005400Y023999D03*
X005400Y023699D03*
X004740Y023619D03*
D425*
X012150Y023619D03*
D426*
X012192Y023679D03*
X012336Y023999D03*
X006340Y024119D03*
X005416Y024119D03*
D427*
X007880Y023815D03*
X008580Y024475D03*
X009396Y023795D03*
X010300Y024475D03*
X010544Y024475D03*
X012564Y024475D03*
D428*
X011222Y024487D03*
X010094Y023795D03*
X009118Y024083D03*
X005878Y024767D03*
D429*
X005626Y024339D03*
X010774Y023799D03*
X011454Y023799D03*
X011886Y024799D03*
D430*
X008580Y024555D03*
X007880Y023803D03*
D431*
X008582Y023803D03*
X009402Y024791D03*
D432*
X005880Y023807D03*
D433*
X005880Y023815D03*
X008580Y024563D03*
D434*
X008582Y024711D03*
X008582Y023815D03*
D435*
X008582Y023819D03*
X005878Y023819D03*
D436*
X007880Y023819D03*
D437*
X010780Y023819D03*
X004880Y024099D03*
D438*
X009400Y023859D03*
X011384Y023839D03*
D439*
X011396Y024443D03*
X010716Y024443D03*
X010712Y023847D03*
X010092Y023903D03*
D440*
X010092Y023911D03*
X011392Y023851D03*
X008048Y024223D03*
X005168Y024231D03*
D441*
X008058Y024731D03*
X009406Y024707D03*
X010094Y023915D03*
X010718Y023855D03*
X011394Y023855D03*
D442*
X010720Y023859D03*
X010092Y023919D03*
D443*
X011402Y023867D03*
X008058Y024235D03*
X008062Y024723D03*
D444*
X008024Y024203D03*
X009404Y024727D03*
X010092Y023875D03*
D445*
X009398Y023879D03*
D446*
X010094Y023879D03*
D447*
X010094Y023939D03*
X010730Y023879D03*
X011406Y024419D03*
X008062Y024239D03*
X008066Y024719D03*
D448*
X011408Y023879D03*
D449*
X011408Y024415D03*
X010732Y024411D03*
X010732Y023883D03*
X008064Y024243D03*
X008068Y024715D03*
D450*
X008080Y024691D03*
X008080Y024271D03*
X009396Y023891D03*
X009408Y024675D03*
X010748Y024371D03*
X010748Y024367D03*
X010748Y023927D03*
X010748Y023923D03*
X011424Y023923D03*
X011424Y024371D03*
X011424Y024375D03*
D451*
X010736Y024403D03*
X010736Y023891D03*
D452*
X011428Y023935D03*
X011428Y024363D03*
X009408Y024671D03*
X009396Y023895D03*
X008084Y024683D03*
D453*
X009396Y023899D03*
D454*
X010094Y023899D03*
X008054Y024739D03*
D455*
X010740Y023899D03*
X011416Y023899D03*
X011416Y024399D03*
D456*
X011258Y024339D03*
X010922Y023939D03*
X011938Y023899D03*
X006902Y024079D03*
X004854Y024079D03*
D457*
X008072Y024255D03*
X008072Y024707D03*
X009408Y024683D03*
X010740Y024395D03*
X010740Y024391D03*
X010740Y023903D03*
X011416Y024395D03*
D458*
X009396Y023919D03*
D459*
X010746Y023919D03*
D460*
X009394Y023927D03*
D461*
X009394Y023935D03*
D462*
X011278Y023939D03*
D463*
X011600Y023939D03*
X011456Y024479D03*
X010780Y024479D03*
X009224Y024639D03*
X009176Y023959D03*
X006592Y024279D03*
X005168Y024279D03*
D464*
X005586Y024259D03*
X006174Y024259D03*
X012334Y023959D03*
D465*
X012336Y023979D03*
X009584Y024219D03*
D466*
X009118Y024087D03*
X011222Y024491D03*
D467*
X004914Y024119D03*
D468*
X005180Y024139D03*
X006556Y024159D03*
X006576Y024139D03*
D469*
X006564Y024151D03*
X006560Y024155D03*
X005216Y024171D03*
X005184Y024143D03*
D470*
X005188Y024147D03*
X006568Y024147D03*
X006572Y024143D03*
D471*
X006550Y024163D03*
X006546Y024167D03*
X006542Y024171D03*
X006538Y024175D03*
X006526Y024183D03*
X006522Y024187D03*
X006518Y024191D03*
X006510Y024195D03*
X006498Y024203D03*
X006494Y024207D03*
X006486Y024211D03*
X006482Y024215D03*
X005278Y024215D03*
X005270Y024211D03*
X005266Y024207D03*
X005258Y024203D03*
X005246Y024195D03*
X005242Y024191D03*
X005234Y024187D03*
X005230Y024183D03*
X005222Y024175D03*
X005210Y024167D03*
X005206Y024163D03*
X005198Y024155D03*
X005194Y024151D03*
D472*
X005202Y024159D03*
X005226Y024179D03*
X005254Y024199D03*
X005282Y024219D03*
X006474Y024219D03*
X006506Y024199D03*
D473*
X006532Y024179D03*
D474*
X008018Y024199D03*
D475*
X008040Y024215D03*
X006592Y024235D03*
X005168Y024235D03*
X009404Y024715D03*
D476*
X006590Y024227D03*
D477*
X006592Y024239D03*
X005168Y024239D03*
D478*
X006590Y024247D03*
D479*
X006590Y024255D03*
X009450Y024291D03*
D480*
X006592Y024259D03*
X005168Y024259D03*
D481*
X008074Y024259D03*
D482*
X008084Y024279D03*
X008084Y024679D03*
X010752Y024359D03*
X011428Y024359D03*
D483*
X009472Y024279D03*
D484*
X006590Y024291D03*
X005166Y024291D03*
D485*
X008088Y024291D03*
X008088Y024671D03*
D486*
X008092Y024659D03*
X008092Y024299D03*
X009412Y024659D03*
D487*
X009438Y024299D03*
D488*
X008098Y024319D03*
X008098Y024639D03*
D489*
X009888Y024475D03*
X011888Y024807D03*
X012108Y024475D03*
X006128Y024347D03*
X005628Y024347D03*
D490*
X005630Y024355D03*
X006130Y024355D03*
D491*
X006128Y024359D03*
X005628Y024359D03*
D492*
X010746Y024375D03*
D493*
X010744Y024379D03*
X009408Y024679D03*
X008076Y024699D03*
D494*
X010738Y024399D03*
D495*
X010728Y024419D03*
D496*
X010720Y024439D03*
X011396Y024439D03*
D497*
X010780Y024467D03*
D498*
X008580Y024479D03*
X005880Y024759D03*
D499*
X009888Y024479D03*
X010544Y024479D03*
X012108Y024479D03*
X012564Y024479D03*
D500*
X011222Y024479D03*
X010298Y024479D03*
D501*
X012562Y024483D03*
D502*
X012564Y024487D03*
X010544Y024487D03*
X010300Y024487D03*
X008580Y024487D03*
D503*
X009652Y024527D03*
X009888Y024487D03*
X012108Y024487D03*
D504*
X012564Y024491D03*
X010544Y024491D03*
X010300Y024491D03*
X008580Y024491D03*
D505*
X009888Y024491D03*
X012108Y024491D03*
D506*
X010774Y024495D03*
X009654Y024547D03*
D507*
X010770Y024499D03*
D508*
X011448Y024499D03*
D509*
X009654Y024523D03*
D510*
X009652Y024535D03*
X011888Y024811D03*
D511*
X009652Y024539D03*
D512*
X009588Y024639D03*
D513*
X009406Y024699D03*
D514*
X008582Y024719D03*
D515*
X011886Y024815D03*
D516*
X011886Y024819D03*
D517*
X011888Y024823D03*
D518*
X012904Y024995D02*
X012904Y027945D01*
X008554Y027945D01*
X004654Y027945D01*
X004654Y026545D01*
X004654Y024995D01*
X008554Y024995D01*
X012904Y024995D01*
X012904Y021395D02*
X012904Y017345D01*
X007254Y017345D01*
X007254Y009145D01*
X014404Y009145D01*
X014404Y007045D01*
X014404Y005045D01*
X009554Y005045D01*
X009554Y003395D01*
X004404Y003395D01*
X004404Y007045D01*
X004404Y009145D01*
X007254Y009145D01*
X009554Y007045D02*
X009554Y005045D01*
X009554Y003395D02*
X014404Y003395D01*
X014404Y005045D01*
X014404Y007045D02*
X009554Y007045D01*
X004404Y007045D01*
X004404Y009145D02*
X004404Y017345D01*
X004404Y021395D01*
X012904Y021395D01*
X008554Y024995D02*
X008554Y026545D01*
X004654Y026545D01*
X008554Y026545D02*
X008554Y027945D01*
X007254Y017345D02*
X004404Y017345D01*
D519*
X001319Y004047D02*
X001569Y003797D01*
X003069Y003797D01*
X003319Y004047D01*
X003319Y004547D01*
X003069Y004797D01*
X003319Y005047D01*
X003319Y005547D01*
X003069Y005797D01*
X003319Y006047D01*
X003319Y006547D01*
X003069Y006797D01*
X003319Y007047D01*
X003319Y007547D01*
X003069Y007797D01*
X003319Y008047D01*
X003319Y008547D01*
X003069Y008797D01*
X003319Y009047D01*
X003319Y009547D01*
X003069Y009797D01*
X003319Y010047D01*
X003319Y010547D01*
X003069Y010797D01*
X003319Y011047D01*
X003319Y011547D01*
X003069Y011797D01*
X003319Y012047D01*
X003319Y012547D01*
X003069Y012797D01*
X003319Y013047D01*
X003319Y013547D01*
X003069Y013797D01*
X003319Y014047D01*
X003319Y014547D01*
X003069Y014797D01*
X003319Y015047D01*
X003319Y015547D01*
X003069Y015797D01*
X003319Y016047D01*
X003319Y016547D01*
X003069Y016797D01*
X003319Y017047D01*
X003319Y017547D01*
X003069Y017797D01*
X003319Y018047D01*
X003319Y018547D01*
X003069Y018797D01*
X003319Y019047D01*
X003319Y019547D01*
X003069Y019797D01*
X003319Y020047D01*
X003319Y020547D01*
X003069Y020797D01*
X003319Y021047D01*
X003319Y021547D01*
X003069Y021797D01*
X003319Y022047D01*
X003319Y022547D01*
X003069Y022797D01*
X003319Y023047D01*
X003319Y023547D01*
X003069Y023797D01*
X001569Y023797D01*
X001319Y023547D01*
X001319Y023047D01*
X001569Y022797D01*
X001319Y022547D01*
X001319Y022047D01*
X001569Y021797D01*
X001319Y021547D01*
X001319Y021047D01*
X001569Y020797D01*
X001319Y020547D01*
X001319Y020047D01*
X001569Y019797D01*
X001319Y019547D01*
X001319Y019047D01*
X001569Y018797D01*
X001319Y018547D01*
X001319Y018047D01*
X001569Y017797D01*
X001319Y017547D01*
X001319Y017047D01*
X001569Y016797D01*
X001319Y016547D01*
X001319Y016047D01*
X001569Y015797D01*
X001319Y015547D01*
X001319Y015047D01*
X001569Y014797D01*
X001319Y014547D01*
X001319Y014047D01*
X001569Y013797D01*
X001319Y013547D01*
X001319Y013047D01*
X001569Y012797D01*
X001319Y012547D01*
X001319Y012047D01*
X001569Y011797D01*
X001319Y011547D01*
X001319Y011047D01*
X001569Y010797D01*
X001319Y010547D01*
X001319Y010047D01*
X001569Y009797D01*
X001319Y009547D01*
X001319Y009047D01*
X001569Y008797D01*
X001319Y008547D01*
X001319Y008047D01*
X001569Y007797D01*
X001319Y007547D01*
X001319Y007047D01*
X001569Y006797D01*
X001319Y006547D01*
X001319Y006047D01*
X001569Y005797D01*
X001319Y005547D01*
X001319Y005047D01*
X001569Y004797D01*
X001319Y004547D01*
X001319Y004047D01*
X005280Y004011D02*
X005530Y003761D01*
X006030Y003761D01*
X006280Y004011D01*
X006530Y003761D01*
X007030Y003761D01*
X007280Y004011D01*
X007280Y004511D01*
X007030Y004761D01*
X006530Y004761D01*
X006280Y004511D01*
X006280Y004011D01*
X006280Y004511D02*
X006030Y004761D01*
X005530Y004761D01*
X005280Y004511D01*
X005280Y004011D01*
X005530Y005761D02*
X005280Y006011D01*
X005280Y006511D01*
X005530Y006761D01*
X006030Y006761D01*
X006280Y006511D01*
X006530Y006761D01*
X007030Y006761D01*
X007280Y006511D01*
X007280Y006011D01*
X007030Y005761D01*
X006530Y005761D01*
X006280Y006011D01*
X006030Y005761D01*
X005530Y005761D01*
X006280Y006011D02*
X006280Y006511D01*
X006030Y007761D02*
X006280Y008011D01*
X006280Y008511D01*
X006030Y008761D01*
X005530Y008761D01*
X005280Y008511D01*
X005280Y008011D01*
X005530Y007761D01*
X006030Y007761D01*
X006280Y008011D02*
X006530Y007761D01*
X007030Y007761D01*
X007280Y008011D01*
X007280Y008511D01*
X007030Y008761D01*
X006530Y008761D01*
X006280Y008511D01*
X006030Y009261D02*
X006280Y009511D01*
X006280Y010011D01*
X006030Y010261D01*
X006280Y010511D01*
X006280Y011011D01*
X006030Y011261D01*
X005530Y011261D01*
X005280Y011011D01*
X005280Y010511D01*
X005530Y010261D01*
X006030Y010261D01*
X006030Y011261D02*
X006280Y011511D01*
X006280Y012011D01*
X006030Y012261D01*
X006280Y012511D01*
X006280Y013011D01*
X006030Y013261D01*
X006280Y013511D01*
X006280Y014011D01*
X006030Y014261D01*
X005530Y014261D01*
X005280Y014011D01*
X005280Y013511D01*
X005530Y013261D01*
X006030Y013261D01*
X005530Y013261D02*
X005280Y013011D01*
X005280Y012511D01*
X005530Y012261D01*
X006030Y012261D01*
X005530Y012261D02*
X005280Y012011D01*
X005280Y011511D01*
X005530Y011261D01*
X005530Y010261D02*
X005280Y010011D01*
X005280Y009511D01*
X005530Y009261D01*
X006030Y009261D01*
X007280Y008511D02*
X007530Y008761D01*
X008030Y008761D01*
X008280Y008511D01*
X008530Y008761D01*
X009030Y008761D01*
X009280Y008511D01*
X009530Y008761D01*
X010030Y008761D01*
X010280Y008511D01*
X010530Y008761D01*
X011030Y008761D01*
X011280Y008511D01*
X011530Y008761D01*
X012030Y008761D01*
X012280Y008511D01*
X012530Y008761D01*
X013030Y008761D01*
X013280Y008511D01*
X013530Y008761D01*
X014030Y008761D01*
X014280Y008511D01*
X014280Y008011D01*
X014030Y007761D01*
X013530Y007761D01*
X013280Y008011D01*
X013030Y007761D01*
X012530Y007761D01*
X012280Y008011D01*
X012280Y008511D01*
X012280Y008011D02*
X012030Y007761D01*
X011530Y007761D01*
X011280Y008011D01*
X011030Y007761D01*
X010530Y007761D01*
X010280Y008011D01*
X010030Y007761D01*
X009530Y007761D01*
X009280Y008011D01*
X009280Y008511D01*
X009280Y008011D02*
X009030Y007761D01*
X008530Y007761D01*
X008280Y008011D01*
X008030Y007761D01*
X007530Y007761D01*
X007280Y008011D01*
X007530Y006761D02*
X008030Y006761D01*
X008280Y006511D01*
X008530Y006761D01*
X009030Y006761D01*
X009280Y006511D01*
X009280Y006011D01*
X009030Y005761D01*
X008530Y005761D01*
X008280Y006011D01*
X008030Y005761D01*
X007530Y005761D01*
X007280Y006011D01*
X007280Y006511D02*
X007530Y006761D01*
X008280Y006511D02*
X008280Y006011D01*
X008030Y004761D02*
X007530Y004761D01*
X007280Y004511D01*
X007280Y004011D02*
X007530Y003761D01*
X008030Y003761D01*
X008280Y004011D01*
X008530Y003761D01*
X009030Y003761D01*
X009280Y004011D01*
X009280Y004511D01*
X009030Y004761D01*
X008530Y004761D01*
X008280Y004511D01*
X008280Y004011D01*
X008280Y004511D02*
X008030Y004761D01*
X009780Y004511D02*
X009780Y004011D01*
X010030Y003761D01*
X010530Y003761D01*
X010780Y004011D01*
X011030Y003761D01*
X011530Y003761D01*
X011780Y004011D01*
X011780Y004511D01*
X011530Y004761D01*
X011030Y004761D01*
X010780Y004511D01*
X010780Y004011D01*
X010780Y004511D02*
X010530Y004761D01*
X010030Y004761D01*
X009780Y004511D01*
X010004Y005745D02*
X009754Y005995D01*
X009754Y006495D01*
X010004Y006745D01*
X010504Y006745D01*
X010754Y006495D01*
X011004Y006745D01*
X011504Y006745D01*
X011754Y006495D01*
X011754Y005995D01*
X011504Y005745D01*
X011004Y005745D01*
X010754Y005995D01*
X010504Y005745D01*
X010004Y005745D01*
X010754Y005995D02*
X010754Y006495D01*
X011754Y006495D02*
X012004Y006745D01*
X012504Y006745D01*
X012754Y006495D01*
X013004Y006745D01*
X013504Y006745D01*
X013754Y006495D01*
X013754Y005995D01*
X013504Y005745D01*
X013004Y005745D01*
X012754Y005995D01*
X012504Y005745D01*
X012004Y005745D01*
X011754Y005995D01*
X012030Y004761D02*
X012530Y004761D01*
X012780Y004511D01*
X013030Y004761D01*
X013530Y004761D01*
X013780Y004511D01*
X013780Y004011D01*
X013530Y003761D01*
X013030Y003761D01*
X012780Y004011D01*
X012530Y003761D01*
X012030Y003761D01*
X011780Y004011D01*
X011780Y004511D02*
X012030Y004761D01*
X012780Y004511D02*
X012780Y004011D01*
X012754Y005995D02*
X012754Y006495D01*
X013280Y008011D02*
X013280Y008511D01*
X011280Y008511D02*
X011280Y008011D01*
X010280Y008011D02*
X010280Y008511D01*
X008280Y008511D02*
X008280Y008011D01*
X006030Y014261D02*
X006280Y014511D01*
X006280Y015011D01*
X006030Y015261D01*
X006280Y015511D01*
X006280Y016011D01*
X006030Y016261D01*
X006280Y016511D01*
X006280Y017011D01*
X006030Y017261D01*
X005530Y017261D01*
X005280Y017011D01*
X005280Y016511D01*
X005530Y016261D01*
X006030Y016261D01*
X006030Y015261D02*
X005530Y015261D01*
X005280Y015511D01*
X005280Y016011D01*
X005530Y016261D01*
X005530Y015261D02*
X005280Y015011D01*
X005280Y014511D01*
X005530Y014261D01*
X005530Y017561D02*
X005030Y017561D01*
X004780Y017811D01*
X004780Y018311D01*
X005030Y018561D01*
X005530Y018561D01*
X005780Y018311D01*
X006030Y018561D01*
X006530Y018561D01*
X006780Y018311D01*
X006780Y017811D01*
X006530Y017561D01*
X006030Y017561D01*
X005780Y017811D01*
X005530Y017561D01*
X005780Y017811D02*
X005780Y018311D01*
X005530Y019061D02*
X005030Y019061D01*
X004780Y019311D01*
X004780Y019811D01*
X005030Y020061D01*
X005530Y020061D01*
X005780Y019811D01*
X006030Y020061D01*
X006530Y020061D01*
X006780Y019811D01*
X006780Y019311D01*
X006530Y019061D01*
X006030Y019061D01*
X005780Y019311D01*
X005530Y019061D01*
X005780Y019311D02*
X005780Y019811D01*
X006780Y019811D02*
X007030Y020061D01*
X007530Y020061D01*
X007780Y019811D01*
X008030Y020061D01*
X008530Y020061D01*
X008780Y019811D01*
X009030Y020061D01*
X009530Y020061D01*
X009780Y019811D01*
X010030Y020061D01*
X010530Y020061D01*
X010780Y019811D01*
X010780Y019311D01*
X010530Y019061D01*
X010030Y019061D01*
X009780Y019311D01*
X009530Y019061D01*
X009030Y019061D01*
X008780Y019311D01*
X008530Y019061D01*
X008030Y019061D01*
X007780Y019311D01*
X007530Y019061D01*
X007030Y019061D01*
X006780Y019311D01*
X007030Y018561D02*
X007530Y018561D01*
X007780Y018311D01*
X008030Y018561D01*
X008530Y018561D01*
X008780Y018311D01*
X009030Y018561D01*
X009530Y018561D01*
X009780Y018311D01*
X010030Y018561D01*
X010530Y018561D01*
X010780Y018311D01*
X010780Y017811D01*
X010530Y017561D01*
X010030Y017561D01*
X009780Y017811D01*
X009530Y017561D01*
X009030Y017561D01*
X008780Y017811D01*
X008530Y017561D01*
X008030Y017561D01*
X007780Y017811D01*
X007530Y017561D01*
X007030Y017561D01*
X006780Y017811D01*
X006780Y018311D02*
X007030Y018561D01*
X007780Y018311D02*
X007780Y017811D01*
X008780Y017811D02*
X008780Y018311D01*
X008780Y019311D02*
X008780Y019811D01*
X007780Y019811D02*
X007780Y019311D01*
X009780Y019311D02*
X009780Y019811D01*
X009780Y018311D02*
X009780Y017811D01*
X008054Y025395D02*
X007554Y025395D01*
X007304Y025645D01*
X007054Y025395D01*
X006554Y025395D01*
X006304Y025645D01*
X006304Y026145D01*
X006554Y026395D01*
X007054Y026395D01*
X007304Y026145D01*
X007554Y026395D01*
X008054Y026395D01*
X008304Y026145D01*
X008304Y025645D01*
X008054Y025395D01*
X007304Y025645D02*
X007304Y026145D01*
X007530Y026761D02*
X007280Y027011D01*
X007030Y026761D01*
X006530Y026761D01*
X006280Y027011D01*
X006280Y027511D01*
X006530Y027761D01*
X007030Y027761D01*
X007280Y027511D01*
X007530Y027761D01*
X008030Y027761D01*
X008280Y027511D01*
X008280Y027011D01*
X008030Y026761D01*
X007530Y026761D01*
X007280Y027011D02*
X007280Y027511D01*
X008780Y027511D02*
X008780Y027011D01*
X009030Y026761D01*
X009530Y026761D01*
X009780Y027011D01*
X010030Y026761D01*
X010530Y026761D01*
X010780Y027011D01*
X010780Y027511D01*
X010530Y027761D01*
X010030Y027761D01*
X009780Y027511D01*
X009780Y027011D01*
X009780Y027511D02*
X009530Y027761D01*
X009030Y027761D01*
X008780Y027511D01*
X010780Y027511D02*
X011030Y027761D01*
X011530Y027761D01*
X011780Y027511D01*
X012030Y027761D01*
X012530Y027761D01*
X012780Y027511D01*
X012780Y027011D01*
X012530Y026761D01*
X012030Y026761D01*
X011780Y027011D01*
X011530Y026761D01*
X011030Y026761D01*
X010780Y027011D01*
X011780Y027011D02*
X011780Y027511D01*
X003319Y018547D02*
X003319Y018047D01*
X003069Y010797D02*
X003319Y010547D01*
D520*
X004726Y006705D02*
X004650Y006628D01*
X004650Y006475D01*
X004726Y006398D01*
X005033Y006398D01*
X005110Y006475D01*
X005110Y006628D01*
X005033Y006705D01*
X005110Y006244D02*
X005110Y005937D01*
X004803Y006244D01*
X004726Y006244D01*
X004650Y006168D01*
X004650Y006014D01*
X004726Y005937D01*
X004650Y005784D02*
X004650Y005631D01*
X004650Y005707D02*
X005110Y005707D01*
X005110Y005631D02*
X005110Y005784D01*
X005033Y004905D02*
X005110Y004828D01*
X005110Y004675D01*
X005033Y004598D01*
X004726Y004598D01*
X004650Y004675D01*
X004650Y004828D01*
X004726Y004905D01*
X004726Y004444D02*
X004650Y004368D01*
X004650Y004214D01*
X004726Y004137D01*
X004650Y003984D02*
X004650Y003831D01*
X004650Y003907D02*
X005110Y003907D01*
X005110Y003831D02*
X005110Y003984D01*
X005110Y004137D02*
X004803Y004444D01*
X004726Y004444D01*
X005110Y004444D02*
X005110Y004137D01*
X005001Y025615D02*
X005154Y025615D01*
X005231Y025691D01*
X005231Y025845D01*
X005077Y025845D01*
X004924Y025998D02*
X004924Y025691D01*
X005001Y025615D01*
X004924Y025998D02*
X005001Y026075D01*
X005154Y026075D01*
X005231Y025998D01*
X005384Y026075D02*
X005384Y025615D01*
X005691Y025615D02*
X005384Y026075D01*
X005691Y026075D02*
X005691Y025615D01*
X005845Y025615D02*
X005845Y026075D01*
X006075Y026075D01*
X006152Y025998D01*
X006152Y025691D01*
X006075Y025615D01*
X005845Y025615D01*
X005948Y027031D02*
X005871Y027107D01*
X005948Y027031D02*
X006101Y027031D01*
X006178Y027107D01*
X006178Y027184D01*
X006101Y027261D01*
X006024Y027261D01*
X006101Y027261D02*
X006178Y027337D01*
X006178Y027414D01*
X006101Y027491D01*
X005948Y027491D01*
X005871Y027414D01*
X005717Y027491D02*
X005717Y027184D01*
X005564Y027031D01*
X005410Y027184D01*
X005410Y027491D01*
X005257Y027414D02*
X005257Y027337D01*
X005180Y027261D01*
X005257Y027184D01*
X005257Y027107D01*
X005180Y027031D01*
X005027Y027031D01*
X004950Y027107D01*
X005103Y027261D02*
X005180Y027261D01*
X005257Y027414D02*
X005180Y027491D01*
X005027Y027491D01*
X004950Y027414D01*
X009912Y026003D02*
X009912Y025619D01*
X009989Y025543D01*
X010142Y025543D01*
X010219Y025619D01*
X010219Y026003D01*
X010372Y025849D02*
X010372Y025543D01*
X010372Y025773D02*
X010679Y025773D01*
X010679Y025849D02*
X010679Y025543D01*
X010833Y025543D02*
X010833Y026003D01*
X011063Y026003D01*
X011140Y025926D01*
X011140Y025773D01*
X011063Y025696D01*
X010833Y025696D01*
X010986Y025696D02*
X011140Y025543D01*
X011447Y025543D02*
X011447Y026003D01*
X011600Y026003D02*
X011293Y026003D01*
X010679Y025849D02*
X010526Y026003D01*
X010372Y025849D01*
D521*
X003239Y003807D02*
X003241Y003821D01*
X003246Y003834D01*
X003255Y003846D01*
X003266Y003855D01*
X003280Y003860D01*
X003294Y003862D01*
X003308Y003860D01*
X003321Y003855D01*
X003333Y003846D01*
X003342Y003835D01*
X003347Y003821D01*
X003349Y003807D01*
X003347Y003793D01*
X003342Y003780D01*
X003333Y003768D01*
X003322Y003759D01*
X003308Y003754D01*
X003294Y003752D01*
X003280Y003754D01*
X003267Y003759D01*
X003255Y003768D01*
X003246Y003779D01*
X003241Y003793D01*
X003239Y003807D01*
M02*
