G75*
%MOIN*%
%OFA0B0*%
%FSLAX24Y24*%
%IPPOS*%
%LPD*%
%AMOC8*
5,1,8,0,0,1.08239X$1,22.5*
%
%ADD10C,0.0000*%
%ADD11C,0.0600*%
%ADD12R,0.0740X0.0740*%
%ADD13C,0.0594*%
%ADD14C,0.0100*%
%ADD15C,0.0260*%
D10*
X000494Y001141D02*
X006706Y001141D01*
X006706Y001140D02*
X006745Y001142D01*
X006783Y001148D01*
X006820Y001157D01*
X006857Y001170D01*
X006892Y001187D01*
X006925Y001206D01*
X006956Y001229D01*
X006985Y001255D01*
X007011Y001284D01*
X007034Y001315D01*
X007053Y001348D01*
X007070Y001383D01*
X007083Y001420D01*
X007092Y001457D01*
X007098Y001495D01*
X007100Y001534D01*
X007099Y001534D02*
X007099Y003087D01*
X007104Y003119D01*
X007113Y003151D01*
X007126Y003181D01*
X007142Y003209D01*
X007161Y003235D01*
X007183Y003259D01*
X007208Y003280D01*
X007236Y003297D01*
X007265Y003312D01*
X007296Y003322D01*
X007328Y003329D01*
X007360Y003332D01*
X007393Y003331D01*
X014306Y003331D01*
X014306Y003332D02*
X014349Y003335D01*
X014391Y003343D01*
X014432Y003354D01*
X014473Y003368D01*
X014512Y003385D01*
X014550Y003406D01*
X014585Y003430D01*
X014619Y003456D01*
X014650Y003486D01*
X014679Y003517D01*
X014705Y003551D01*
X014729Y003587D01*
X014749Y003625D01*
X014766Y003665D01*
X014779Y003705D01*
X014790Y003747D01*
X014796Y003789D01*
X014800Y003832D01*
X014799Y003875D01*
X014800Y003875D02*
X014800Y009497D01*
X014798Y009536D01*
X014792Y009574D01*
X014783Y009611D01*
X014770Y009648D01*
X014753Y009683D01*
X014734Y009716D01*
X014711Y009747D01*
X014685Y009776D01*
X014656Y009802D01*
X014625Y009825D01*
X014592Y009844D01*
X014557Y009861D01*
X014520Y009874D01*
X014483Y009883D01*
X014445Y009889D01*
X014406Y009891D01*
X010694Y009891D01*
X010694Y009890D02*
X010655Y009892D01*
X010617Y009898D01*
X010580Y009907D01*
X010543Y009920D01*
X010508Y009937D01*
X010475Y009956D01*
X010444Y009979D01*
X010415Y010005D01*
X010389Y010034D01*
X010366Y010065D01*
X010347Y010098D01*
X010330Y010133D01*
X010317Y010170D01*
X010308Y010207D01*
X010302Y010245D01*
X010300Y010284D01*
X010300Y015797D01*
X010302Y015836D01*
X010308Y015874D01*
X010317Y015911D01*
X010330Y015948D01*
X010347Y015983D01*
X010366Y016016D01*
X010389Y016047D01*
X010415Y016076D01*
X010444Y016102D01*
X010475Y016125D01*
X010508Y016144D01*
X010543Y016161D01*
X010580Y016174D01*
X010617Y016183D01*
X010655Y016189D01*
X010694Y016191D01*
X012654Y016191D01*
X012654Y016190D02*
X012693Y016192D01*
X012731Y016198D01*
X012768Y016207D01*
X012805Y016220D01*
X012840Y016237D01*
X012873Y016256D01*
X012904Y016279D01*
X012933Y016305D01*
X012959Y016334D01*
X012982Y016365D01*
X013001Y016398D01*
X013018Y016433D01*
X013031Y016470D01*
X013040Y016507D01*
X013046Y016545D01*
X013048Y016584D01*
X013048Y027682D01*
X013046Y027721D01*
X013040Y027759D01*
X013031Y027796D01*
X013018Y027833D01*
X013001Y027868D01*
X012982Y027901D01*
X012959Y027932D01*
X012933Y027961D01*
X012904Y027987D01*
X012873Y028010D01*
X012840Y028029D01*
X012805Y028046D01*
X012768Y028059D01*
X012731Y028068D01*
X012693Y028074D01*
X012654Y028076D01*
X000494Y028076D01*
X000455Y028074D01*
X000417Y028068D01*
X000380Y028059D01*
X000343Y028046D01*
X000308Y028029D01*
X000275Y028010D01*
X000244Y027987D01*
X000215Y027961D01*
X000189Y027932D01*
X000166Y027901D01*
X000147Y027868D01*
X000130Y027833D01*
X000117Y027796D01*
X000108Y027759D01*
X000102Y027721D01*
X000100Y027682D01*
X000100Y001534D01*
X000102Y001495D01*
X000108Y001457D01*
X000117Y001420D01*
X000130Y001383D01*
X000147Y001348D01*
X000166Y001315D01*
X000189Y001284D01*
X000215Y001255D01*
X000244Y001229D01*
X000275Y001206D01*
X000308Y001187D01*
X000343Y001170D01*
X000380Y001157D01*
X000417Y001148D01*
X000455Y001142D01*
X000494Y001140D01*
X001756Y002394D02*
X001758Y002441D01*
X001764Y002487D01*
X001774Y002533D01*
X001787Y002578D01*
X001805Y002621D01*
X001826Y002663D01*
X001850Y002703D01*
X001878Y002740D01*
X001909Y002775D01*
X001943Y002808D01*
X001979Y002837D01*
X002018Y002863D01*
X002059Y002886D01*
X002102Y002905D01*
X002146Y002921D01*
X002191Y002933D01*
X002237Y002941D01*
X002284Y002945D01*
X002330Y002945D01*
X002377Y002941D01*
X002423Y002933D01*
X002468Y002921D01*
X002512Y002905D01*
X002555Y002886D01*
X002596Y002863D01*
X002635Y002837D01*
X002671Y002808D01*
X002705Y002775D01*
X002736Y002740D01*
X002764Y002703D01*
X002788Y002663D01*
X002809Y002621D01*
X002827Y002578D01*
X002840Y002533D01*
X002850Y002487D01*
X002856Y002441D01*
X002858Y002394D01*
X002856Y002347D01*
X002850Y002301D01*
X002840Y002255D01*
X002827Y002210D01*
X002809Y002167D01*
X002788Y002125D01*
X002764Y002085D01*
X002736Y002048D01*
X002705Y002013D01*
X002671Y001980D01*
X002635Y001951D01*
X002596Y001925D01*
X002555Y001902D01*
X002512Y001883D01*
X002468Y001867D01*
X002423Y001855D01*
X002377Y001847D01*
X002330Y001843D01*
X002284Y001843D01*
X002237Y001847D01*
X002191Y001855D01*
X002146Y001867D01*
X002102Y001883D01*
X002059Y001902D01*
X002018Y001925D01*
X001979Y001951D01*
X001943Y001980D01*
X001909Y002013D01*
X001878Y002048D01*
X001850Y002085D01*
X001826Y002125D01*
X001805Y002167D01*
X001787Y002210D01*
X001774Y002255D01*
X001764Y002301D01*
X001758Y002347D01*
X001756Y002394D01*
X001756Y025228D02*
X001758Y025275D01*
X001764Y025321D01*
X001774Y025367D01*
X001787Y025412D01*
X001805Y025455D01*
X001826Y025497D01*
X001850Y025537D01*
X001878Y025574D01*
X001909Y025609D01*
X001943Y025642D01*
X001979Y025671D01*
X002018Y025697D01*
X002059Y025720D01*
X002102Y025739D01*
X002146Y025755D01*
X002191Y025767D01*
X002237Y025775D01*
X002284Y025779D01*
X002330Y025779D01*
X002377Y025775D01*
X002423Y025767D01*
X002468Y025755D01*
X002512Y025739D01*
X002555Y025720D01*
X002596Y025697D01*
X002635Y025671D01*
X002671Y025642D01*
X002705Y025609D01*
X002736Y025574D01*
X002764Y025537D01*
X002788Y025497D01*
X002809Y025455D01*
X002827Y025412D01*
X002840Y025367D01*
X002850Y025321D01*
X002856Y025275D01*
X002858Y025228D01*
X002856Y025181D01*
X002850Y025135D01*
X002840Y025089D01*
X002827Y025044D01*
X002809Y025001D01*
X002788Y024959D01*
X002764Y024919D01*
X002736Y024882D01*
X002705Y024847D01*
X002671Y024814D01*
X002635Y024785D01*
X002596Y024759D01*
X002555Y024736D01*
X002512Y024717D01*
X002468Y024701D01*
X002423Y024689D01*
X002377Y024681D01*
X002330Y024677D01*
X002284Y024677D01*
X002237Y024681D01*
X002191Y024689D01*
X002146Y024701D01*
X002102Y024717D01*
X002059Y024736D01*
X002018Y024759D01*
X001979Y024785D01*
X001943Y024814D01*
X001909Y024847D01*
X001878Y024882D01*
X001850Y024919D01*
X001826Y024959D01*
X001805Y025001D01*
X001787Y025044D01*
X001774Y025089D01*
X001764Y025135D01*
X001758Y025181D01*
X001756Y025228D01*
D11*
X005280Y019861D02*
X005280Y019261D01*
X005280Y018361D02*
X005280Y017761D01*
X005480Y016761D02*
X006080Y016761D01*
X006080Y015761D02*
X005480Y015761D01*
X005480Y014761D02*
X006080Y014761D01*
X006080Y013761D02*
X005480Y013761D01*
X005480Y012761D02*
X006080Y012761D01*
X006080Y011761D02*
X005480Y011761D01*
X005480Y010761D02*
X006080Y010761D01*
X006080Y009761D02*
X005480Y009761D01*
X005780Y008561D02*
X005780Y007961D01*
X006780Y007961D02*
X006780Y008561D01*
X007780Y008561D02*
X007780Y007961D01*
X008780Y007961D02*
X008780Y008561D01*
X009780Y008561D02*
X009780Y007961D01*
X010780Y007961D02*
X010780Y008561D01*
X011780Y008561D02*
X011780Y007961D01*
X012254Y006545D02*
X012254Y005945D01*
X011254Y005945D02*
X011254Y006545D01*
X010254Y006545D02*
X010254Y005945D01*
X010280Y004561D02*
X010280Y003961D01*
X011280Y003961D02*
X011280Y004561D01*
X012280Y004561D02*
X012280Y003961D01*
X013280Y003961D02*
X013280Y004561D01*
X013254Y005945D02*
X013254Y006545D01*
X012780Y007961D02*
X012780Y008561D01*
X013780Y008561D02*
X013780Y007961D01*
X008780Y006561D02*
X008780Y005961D01*
X007780Y005961D02*
X007780Y006561D01*
X006780Y006561D02*
X006780Y005961D01*
X005780Y005961D02*
X005780Y006561D01*
X005780Y004561D02*
X005780Y003961D01*
X006780Y003961D02*
X006780Y004561D01*
X007780Y004561D02*
X007780Y003961D01*
X008780Y003961D02*
X008780Y004561D01*
X008280Y017761D02*
X008280Y018361D01*
X008280Y019261D02*
X008280Y019861D01*
X007280Y019861D02*
X007280Y019261D01*
X007280Y018361D02*
X007280Y017761D01*
X006280Y017761D02*
X006280Y018361D01*
X006280Y019261D02*
X006280Y019861D01*
X009280Y019861D02*
X009280Y019261D01*
X009280Y018361D02*
X009280Y017761D01*
X010280Y017761D02*
X010280Y018361D01*
X010280Y019261D02*
X010280Y019861D01*
X007804Y025595D02*
X007804Y026195D01*
X007780Y026961D02*
X007780Y027561D01*
X006780Y027561D02*
X006780Y026961D01*
X006804Y026195D02*
X006804Y025595D01*
X009280Y026961D02*
X009280Y027561D01*
X010280Y027561D02*
X010280Y026961D01*
X011280Y026961D02*
X011280Y027561D01*
X012280Y027561D02*
X012280Y026961D01*
D12*
X002819Y023297D03*
X002819Y022297D03*
X002819Y021297D03*
X002819Y020297D03*
X002819Y019297D03*
X002819Y018297D03*
X002819Y017297D03*
X002819Y016297D03*
X002819Y015297D03*
X002819Y014297D03*
X002819Y013297D03*
X002819Y012297D03*
X002819Y011297D03*
X002819Y010297D03*
X002819Y009297D03*
X002819Y008297D03*
X002819Y007297D03*
X002819Y006297D03*
X002819Y005297D03*
X002819Y004297D03*
X001819Y004297D03*
X001819Y005297D03*
X001819Y006297D03*
X001819Y007297D03*
X001819Y008297D03*
X001819Y009297D03*
X001819Y010297D03*
X001819Y011297D03*
X001819Y012297D03*
X001819Y013297D03*
X001819Y014297D03*
X001819Y015297D03*
X001819Y016297D03*
X001819Y017297D03*
X001819Y018297D03*
X001819Y019297D03*
X001819Y020297D03*
X001819Y021297D03*
X001819Y022297D03*
X001819Y023297D03*
D13*
X000599Y023293D03*
X000599Y022293D03*
X000599Y021293D03*
X000599Y020293D03*
X000599Y019293D03*
X000599Y018293D03*
X000599Y017293D03*
X000599Y016293D03*
X000599Y015293D03*
X000599Y014293D03*
X000599Y013293D03*
X000599Y012293D03*
X000599Y011293D03*
X000599Y010293D03*
X000599Y009293D03*
X000599Y008293D03*
X000599Y007293D03*
X000599Y006293D03*
X000599Y005293D03*
X000599Y004293D03*
X003961Y004293D03*
X003961Y005293D03*
X003961Y006293D03*
X003961Y007293D03*
X003961Y008293D03*
X003961Y009293D03*
X003961Y010293D03*
X003961Y011293D03*
X003961Y012293D03*
X003961Y013293D03*
X003961Y014293D03*
X003961Y015293D03*
X003961Y016293D03*
X003961Y017293D03*
X003961Y018293D03*
X003961Y019293D03*
X003961Y020293D03*
X003961Y021293D03*
X003961Y022293D03*
X003961Y023293D03*
D14*
X003644Y022795D02*
X004404Y022795D01*
X004554Y022645D01*
X004554Y022145D01*
X004804Y021895D01*
X005054Y021895D01*
X006304Y020645D01*
X006304Y020495D01*
X006624Y020175D01*
X006666Y020175D01*
X007280Y019561D01*
X007740Y019981D02*
X007270Y020451D01*
X006710Y020451D01*
X007530Y020631D02*
X006350Y021811D01*
X007470Y021871D02*
X009328Y021871D01*
X011304Y019895D01*
X011304Y017395D01*
X011054Y017145D01*
X010244Y017145D01*
X009540Y016441D01*
X009780Y016241D02*
X010184Y016645D01*
X011804Y016645D01*
X011804Y020145D01*
X009498Y022451D01*
X008710Y022451D01*
X008740Y023941D02*
X010980Y021701D01*
X008974Y024685D02*
X004674Y024685D01*
X003804Y025555D01*
X003804Y026645D01*
X003554Y026895D01*
X001054Y026895D01*
X000190Y026031D01*
X000190Y007701D01*
X000590Y007301D01*
X000599Y007293D01*
X001820Y006401D02*
X001820Y006301D01*
X001819Y006297D01*
X001820Y006401D02*
X002330Y006911D01*
X002330Y007811D01*
X002780Y008261D01*
X002819Y008297D01*
X002810Y008301D01*
X002810Y008411D01*
X002300Y008921D01*
X002300Y009811D01*
X001820Y010291D01*
X001819Y010297D01*
X001210Y010801D02*
X001100Y010711D01*
X001100Y008931D01*
X001750Y008281D01*
X001819Y008297D01*
X001210Y010801D02*
X004130Y010801D01*
X004370Y011041D01*
X004890Y011571D01*
X004890Y011961D01*
X005204Y012275D01*
X006366Y012275D01*
X006380Y012261D01*
X006800Y011721D02*
X006330Y011251D01*
X005060Y011251D01*
X004110Y010301D01*
X003961Y010293D01*
X004310Y011801D02*
X005244Y012735D01*
X005754Y012735D01*
X005780Y012761D01*
X005780Y013761D02*
X005350Y013761D01*
X004370Y012801D01*
X002300Y012801D01*
X001820Y012301D01*
X001819Y012297D01*
X002300Y011801D02*
X001820Y011301D01*
X001819Y011297D01*
X002300Y011801D02*
X004310Y011801D01*
X004360Y013811D02*
X001210Y013811D01*
X001090Y013931D01*
X001090Y019551D01*
X001330Y019791D01*
X002230Y019791D01*
X002320Y019881D01*
X002320Y020811D01*
X001820Y021291D01*
X001819Y021297D01*
X001310Y020691D02*
X001310Y022711D01*
X001410Y022811D01*
X002330Y022811D01*
X002810Y023291D01*
X002819Y023297D01*
X002300Y023781D02*
X001820Y023301D01*
X001819Y023297D01*
X002300Y023781D02*
X005120Y023781D01*
X007960Y020941D01*
X008090Y020941D01*
X008368Y020631D02*
X008764Y020235D01*
X008764Y017447D01*
X008900Y017311D01*
X008900Y017331D01*
X009620Y017021D02*
X007960Y017021D01*
X007630Y017351D01*
X006890Y017351D01*
X006650Y017151D02*
X006580Y017221D01*
X006580Y017481D01*
X006870Y017771D01*
X006870Y018751D01*
X006280Y018061D02*
X006280Y017141D01*
X006490Y016931D01*
X006490Y016161D01*
X007010Y015641D01*
X007010Y009251D01*
X007290Y008971D01*
X007290Y006781D01*
X006810Y006301D01*
X006780Y006261D01*
X006270Y005501D01*
X005510Y005501D01*
X005230Y005781D01*
X002400Y005781D01*
X001920Y005301D01*
X001820Y005301D01*
X001819Y005297D01*
X003961Y005293D02*
X003970Y005301D01*
X006820Y005301D01*
X007780Y006261D01*
X008520Y007191D02*
X008300Y007411D01*
X008250Y015201D01*
X007670Y015781D02*
X006960Y016491D01*
X006960Y016501D01*
X006650Y016361D02*
X006650Y017151D01*
X006650Y016361D02*
X007320Y015691D01*
X007320Y012301D01*
X006800Y011721D02*
X006800Y015621D01*
X005780Y016641D01*
X005780Y016761D01*
X005780Y015881D02*
X004370Y017291D01*
X004370Y021891D01*
X003970Y022291D01*
X003961Y022293D01*
X003464Y022615D02*
X003644Y022795D01*
X003464Y022615D02*
X003464Y018895D01*
X003350Y018781D01*
X001400Y018781D01*
X001330Y018711D01*
X001330Y015781D01*
X001810Y015301D01*
X001819Y015297D01*
X002300Y015811D02*
X001820Y016291D01*
X001819Y016297D01*
X002300Y015811D02*
X003230Y015811D01*
X003240Y015801D01*
X003610Y015801D01*
X003684Y014795D02*
X003718Y014761D01*
X005780Y014761D01*
X006420Y014301D02*
X003970Y014301D01*
X003961Y014293D01*
X003684Y014795D02*
X002314Y014795D01*
X001820Y014301D01*
X001819Y014297D01*
X002810Y016301D02*
X002819Y016297D01*
X002810Y016301D02*
X002330Y016781D01*
X002330Y017691D01*
X001820Y018201D01*
X001820Y018291D01*
X001819Y018297D01*
X000599Y019293D02*
X000600Y019451D01*
X001110Y019961D01*
X001110Y023761D01*
X001304Y023955D01*
X001546Y023955D01*
X001560Y023941D01*
X008740Y023941D01*
X008974Y024685D02*
X009574Y025535D01*
X010404Y025535D01*
X010450Y025551D01*
X010474Y025595D01*
X011274Y026395D01*
X011274Y027255D01*
X011280Y027261D01*
X008368Y020631D02*
X007530Y020631D01*
X007740Y019981D02*
X007740Y018701D01*
X007500Y017041D02*
X009190Y015351D01*
X009290Y007721D01*
X009610Y007401D01*
X011400Y007401D01*
X011760Y007761D01*
X011780Y008261D01*
X012760Y007811D02*
X012090Y007141D01*
X008520Y007191D01*
X009780Y008261D02*
X009780Y016241D01*
X009620Y017021D02*
X010280Y017681D01*
X010280Y018061D01*
X007940Y016161D02*
X007940Y011921D01*
X006700Y011241D02*
X006700Y009541D01*
X005780Y008601D01*
X005780Y008261D01*
X005390Y007351D02*
X004020Y007351D01*
X003970Y007301D01*
X003961Y007293D01*
X005270Y005021D02*
X008020Y005021D01*
X008780Y004261D01*
X007630Y009411D02*
X007630Y013971D01*
X006490Y014371D02*
X006420Y014301D01*
X005780Y015761D02*
X005780Y015881D01*
X004930Y016331D02*
X004500Y016331D01*
X003950Y016881D01*
X003790Y016881D01*
X003550Y017121D01*
X003550Y017881D01*
X003960Y018291D01*
X003961Y018293D01*
X001819Y020297D02*
X001810Y020301D01*
X001810Y020411D01*
X001310Y020691D01*
X004540Y013991D02*
X004360Y013811D01*
X004540Y013991D02*
X004850Y013991D01*
X012780Y008261D02*
X012760Y007811D01*
D15*
X007940Y011921D03*
X007320Y012301D03*
X006700Y011241D03*
X006380Y012261D03*
X007630Y013971D03*
X008250Y015201D03*
X007670Y015781D03*
X007940Y016161D03*
X007500Y017041D03*
X006890Y017351D03*
X006960Y016501D03*
X006490Y014371D03*
X004850Y013991D03*
X003610Y015801D03*
X004930Y016331D03*
X006870Y018751D03*
X007740Y018701D03*
X008900Y017331D03*
X009540Y016441D03*
X006710Y020451D03*
X006350Y021811D03*
X007470Y021871D03*
X008090Y020941D03*
X008710Y022451D03*
X010980Y021701D03*
X007630Y009411D03*
X005390Y007351D03*
X005270Y005021D03*
M02*
