G75*
%MOIN*%
%OFA0B0*%
%FSLAX25Y25*%
%IPPOS*%
%LPD*%
%AMOC8*
5,1,8,0,0,1.08239X$1,22.5*
%
%ADD10C,0.00000*%
%ADD11C,0.06000*%
%ADD12R,0.07400X0.07400*%
%ADD13C,0.05937*%
%ADD14C,0.01000*%
%ADD15C,0.02600*%
D10*
X0005437Y0011406D02*
X0067555Y0011406D01*
X0067679Y0011408D01*
X0067802Y0011414D01*
X0067926Y0011423D01*
X0068048Y0011437D01*
X0068171Y0011454D01*
X0068293Y0011476D01*
X0068414Y0011501D01*
X0068534Y0011530D01*
X0068653Y0011562D01*
X0068772Y0011599D01*
X0068889Y0011639D01*
X0069004Y0011682D01*
X0069119Y0011730D01*
X0069231Y0011781D01*
X0069342Y0011835D01*
X0069452Y0011893D01*
X0069559Y0011954D01*
X0069665Y0012019D01*
X0069768Y0012087D01*
X0069869Y0012158D01*
X0069968Y0012232D01*
X0070065Y0012309D01*
X0070159Y0012390D01*
X0070250Y0012473D01*
X0070339Y0012559D01*
X0070425Y0012648D01*
X0070508Y0012739D01*
X0070589Y0012833D01*
X0070666Y0012930D01*
X0070740Y0013029D01*
X0070811Y0013130D01*
X0070879Y0013233D01*
X0070944Y0013339D01*
X0071005Y0013446D01*
X0071063Y0013556D01*
X0071117Y0013667D01*
X0071168Y0013779D01*
X0071216Y0013894D01*
X0071259Y0014009D01*
X0071299Y0014126D01*
X0071336Y0014245D01*
X0071368Y0014364D01*
X0071397Y0014484D01*
X0071422Y0014605D01*
X0071444Y0014727D01*
X0071461Y0014850D01*
X0071475Y0014972D01*
X0071484Y0015096D01*
X0071490Y0015219D01*
X0071492Y0015343D01*
X0071492Y0030874D01*
X0071503Y0030974D01*
X0071518Y0031074D01*
X0071536Y0031173D01*
X0071559Y0031272D01*
X0071585Y0031369D01*
X0071615Y0031466D01*
X0071648Y0031561D01*
X0071685Y0031655D01*
X0071725Y0031748D01*
X0071769Y0031839D01*
X0071816Y0031928D01*
X0071866Y0032015D01*
X0071920Y0032101D01*
X0071977Y0032184D01*
X0072037Y0032265D01*
X0072099Y0032344D01*
X0072165Y0032421D01*
X0072234Y0032495D01*
X0072305Y0032566D01*
X0072379Y0032635D01*
X0072456Y0032701D01*
X0072534Y0032764D01*
X0072616Y0032824D01*
X0072699Y0032881D01*
X0072784Y0032935D01*
X0072872Y0032985D01*
X0072961Y0033033D01*
X0073052Y0033076D01*
X0073144Y0033117D01*
X0073238Y0033154D01*
X0073334Y0033187D01*
X0073430Y0033217D01*
X0073527Y0033243D01*
X0073626Y0033266D01*
X0073725Y0033285D01*
X0073825Y0033300D01*
X0073925Y0033311D01*
X0074026Y0033319D01*
X0074127Y0033322D01*
X0074228Y0033323D01*
X0074328Y0033319D01*
X0074429Y0033311D01*
X0143563Y0033311D01*
X0143706Y0033320D01*
X0143848Y0033333D01*
X0143990Y0033349D01*
X0144132Y0033370D01*
X0144273Y0033395D01*
X0144413Y0033423D01*
X0144553Y0033455D01*
X0144691Y0033491D01*
X0144829Y0033531D01*
X0144965Y0033575D01*
X0145100Y0033622D01*
X0145234Y0033673D01*
X0145366Y0033728D01*
X0145497Y0033786D01*
X0145626Y0033848D01*
X0145753Y0033914D01*
X0145878Y0033983D01*
X0146002Y0034055D01*
X0146123Y0034131D01*
X0146242Y0034210D01*
X0146359Y0034292D01*
X0146474Y0034378D01*
X0146586Y0034467D01*
X0146696Y0034558D01*
X0146803Y0034653D01*
X0146908Y0034751D01*
X0147010Y0034851D01*
X0147109Y0034954D01*
X0147205Y0035060D01*
X0147299Y0035169D01*
X0147389Y0035280D01*
X0147476Y0035393D01*
X0147560Y0035509D01*
X0147641Y0035628D01*
X0147718Y0035748D01*
X0147792Y0035870D01*
X0147863Y0035995D01*
X0147930Y0036121D01*
X0147994Y0036249D01*
X0148054Y0036379D01*
X0148111Y0036510D01*
X0148164Y0036643D01*
X0148213Y0036778D01*
X0148258Y0036913D01*
X0148300Y0037050D01*
X0148338Y0037188D01*
X0148372Y0037327D01*
X0148403Y0037467D01*
X0148429Y0037608D01*
X0148452Y0037749D01*
X0148470Y0037891D01*
X0148485Y0038033D01*
X0148496Y0038176D01*
X0148503Y0038319D01*
X0148506Y0038462D01*
X0148505Y0038605D01*
X0148500Y0038748D01*
X0148500Y0094969D01*
X0148498Y0095093D01*
X0148492Y0095216D01*
X0148483Y0095340D01*
X0148469Y0095462D01*
X0148452Y0095585D01*
X0148430Y0095707D01*
X0148405Y0095828D01*
X0148376Y0095948D01*
X0148344Y0096067D01*
X0148307Y0096186D01*
X0148267Y0096303D01*
X0148224Y0096418D01*
X0148176Y0096533D01*
X0148125Y0096645D01*
X0148071Y0096756D01*
X0148013Y0096866D01*
X0147952Y0096973D01*
X0147887Y0097079D01*
X0147819Y0097182D01*
X0147748Y0097283D01*
X0147674Y0097382D01*
X0147597Y0097479D01*
X0147516Y0097573D01*
X0147433Y0097664D01*
X0147347Y0097753D01*
X0147258Y0097839D01*
X0147167Y0097922D01*
X0147073Y0098003D01*
X0146976Y0098080D01*
X0146877Y0098154D01*
X0146776Y0098225D01*
X0146673Y0098293D01*
X0146567Y0098358D01*
X0146460Y0098419D01*
X0146350Y0098477D01*
X0146239Y0098531D01*
X0146127Y0098582D01*
X0146012Y0098630D01*
X0145897Y0098673D01*
X0145780Y0098713D01*
X0145661Y0098750D01*
X0145542Y0098782D01*
X0145422Y0098811D01*
X0145301Y0098836D01*
X0145179Y0098858D01*
X0145056Y0098875D01*
X0144934Y0098889D01*
X0144810Y0098898D01*
X0144687Y0098904D01*
X0144563Y0098906D01*
X0107437Y0098906D01*
X0107313Y0098908D01*
X0107190Y0098914D01*
X0107066Y0098923D01*
X0106944Y0098937D01*
X0106821Y0098954D01*
X0106699Y0098976D01*
X0106578Y0099001D01*
X0106458Y0099030D01*
X0106339Y0099062D01*
X0106220Y0099099D01*
X0106103Y0099139D01*
X0105988Y0099182D01*
X0105873Y0099230D01*
X0105761Y0099281D01*
X0105650Y0099335D01*
X0105540Y0099393D01*
X0105433Y0099454D01*
X0105327Y0099519D01*
X0105224Y0099587D01*
X0105123Y0099658D01*
X0105024Y0099732D01*
X0104927Y0099809D01*
X0104833Y0099890D01*
X0104742Y0099973D01*
X0104653Y0100059D01*
X0104567Y0100148D01*
X0104484Y0100239D01*
X0104403Y0100333D01*
X0104326Y0100430D01*
X0104252Y0100529D01*
X0104181Y0100630D01*
X0104113Y0100733D01*
X0104048Y0100839D01*
X0103987Y0100946D01*
X0103929Y0101056D01*
X0103875Y0101167D01*
X0103824Y0101279D01*
X0103776Y0101394D01*
X0103733Y0101509D01*
X0103693Y0101626D01*
X0103656Y0101745D01*
X0103624Y0101864D01*
X0103595Y0101984D01*
X0103570Y0102105D01*
X0103548Y0102227D01*
X0103531Y0102350D01*
X0103517Y0102472D01*
X0103508Y0102596D01*
X0103502Y0102719D01*
X0103500Y0102843D01*
X0103500Y0157969D01*
X0103502Y0158093D01*
X0103508Y0158216D01*
X0103517Y0158340D01*
X0103531Y0158462D01*
X0103548Y0158585D01*
X0103570Y0158707D01*
X0103595Y0158828D01*
X0103624Y0158948D01*
X0103656Y0159067D01*
X0103693Y0159186D01*
X0103733Y0159303D01*
X0103776Y0159418D01*
X0103824Y0159533D01*
X0103875Y0159645D01*
X0103929Y0159756D01*
X0103987Y0159866D01*
X0104048Y0159973D01*
X0104113Y0160079D01*
X0104181Y0160182D01*
X0104252Y0160283D01*
X0104326Y0160382D01*
X0104403Y0160479D01*
X0104484Y0160573D01*
X0104567Y0160664D01*
X0104653Y0160753D01*
X0104742Y0160839D01*
X0104833Y0160922D01*
X0104927Y0161003D01*
X0105024Y0161080D01*
X0105123Y0161154D01*
X0105224Y0161225D01*
X0105327Y0161293D01*
X0105433Y0161358D01*
X0105540Y0161419D01*
X0105650Y0161477D01*
X0105761Y0161531D01*
X0105873Y0161582D01*
X0105988Y0161630D01*
X0106103Y0161673D01*
X0106220Y0161713D01*
X0106339Y0161750D01*
X0106458Y0161782D01*
X0106578Y0161811D01*
X0106699Y0161836D01*
X0106821Y0161858D01*
X0106944Y0161875D01*
X0107066Y0161889D01*
X0107190Y0161898D01*
X0107313Y0161904D01*
X0107437Y0161906D01*
X0127043Y0161906D01*
X0127167Y0161908D01*
X0127290Y0161914D01*
X0127414Y0161923D01*
X0127536Y0161937D01*
X0127659Y0161954D01*
X0127781Y0161976D01*
X0127902Y0162001D01*
X0128022Y0162030D01*
X0128141Y0162062D01*
X0128260Y0162099D01*
X0128377Y0162139D01*
X0128492Y0162182D01*
X0128607Y0162230D01*
X0128719Y0162281D01*
X0128830Y0162335D01*
X0128940Y0162393D01*
X0129047Y0162454D01*
X0129153Y0162519D01*
X0129256Y0162587D01*
X0129357Y0162658D01*
X0129456Y0162732D01*
X0129553Y0162809D01*
X0129647Y0162890D01*
X0129738Y0162973D01*
X0129827Y0163059D01*
X0129913Y0163148D01*
X0129996Y0163239D01*
X0130077Y0163333D01*
X0130154Y0163430D01*
X0130228Y0163529D01*
X0130299Y0163630D01*
X0130367Y0163733D01*
X0130432Y0163839D01*
X0130493Y0163946D01*
X0130551Y0164056D01*
X0130605Y0164167D01*
X0130656Y0164279D01*
X0130704Y0164394D01*
X0130747Y0164509D01*
X0130787Y0164626D01*
X0130824Y0164745D01*
X0130856Y0164864D01*
X0130885Y0164984D01*
X0130910Y0165105D01*
X0130932Y0165227D01*
X0130949Y0165350D01*
X0130963Y0165472D01*
X0130972Y0165596D01*
X0130978Y0165719D01*
X0130980Y0165843D01*
X0130980Y0276819D01*
X0130978Y0276943D01*
X0130972Y0277066D01*
X0130963Y0277190D01*
X0130949Y0277312D01*
X0130932Y0277435D01*
X0130910Y0277557D01*
X0130885Y0277678D01*
X0130856Y0277798D01*
X0130824Y0277917D01*
X0130787Y0278036D01*
X0130747Y0278153D01*
X0130704Y0278268D01*
X0130656Y0278383D01*
X0130605Y0278495D01*
X0130551Y0278606D01*
X0130493Y0278716D01*
X0130432Y0278823D01*
X0130367Y0278929D01*
X0130299Y0279032D01*
X0130228Y0279133D01*
X0130154Y0279232D01*
X0130077Y0279329D01*
X0129996Y0279423D01*
X0129913Y0279514D01*
X0129827Y0279603D01*
X0129738Y0279689D01*
X0129647Y0279772D01*
X0129553Y0279853D01*
X0129456Y0279930D01*
X0129357Y0280004D01*
X0129256Y0280075D01*
X0129153Y0280143D01*
X0129047Y0280208D01*
X0128940Y0280269D01*
X0128830Y0280327D01*
X0128719Y0280381D01*
X0128607Y0280432D01*
X0128492Y0280480D01*
X0128377Y0280523D01*
X0128260Y0280563D01*
X0128141Y0280600D01*
X0128022Y0280632D01*
X0127902Y0280661D01*
X0127781Y0280686D01*
X0127659Y0280708D01*
X0127536Y0280725D01*
X0127414Y0280739D01*
X0127290Y0280748D01*
X0127167Y0280754D01*
X0127043Y0280756D01*
X0005437Y0280756D01*
X0005308Y0280761D01*
X0005179Y0280763D01*
X0005050Y0280761D01*
X0004921Y0280755D01*
X0004792Y0280744D01*
X0004663Y0280730D01*
X0004536Y0280712D01*
X0004408Y0280690D01*
X0004282Y0280664D01*
X0004156Y0280634D01*
X0004031Y0280601D01*
X0003908Y0280563D01*
X0003785Y0280522D01*
X0003664Y0280477D01*
X0003545Y0280428D01*
X0003427Y0280376D01*
X0003310Y0280320D01*
X0003196Y0280260D01*
X0003083Y0280197D01*
X0002972Y0280130D01*
X0002864Y0280061D01*
X0002757Y0279987D01*
X0002653Y0279911D01*
X0002551Y0279831D01*
X0002452Y0279749D01*
X0002355Y0279663D01*
X0002262Y0279574D01*
X0002170Y0279483D01*
X0002082Y0279388D01*
X0001997Y0279291D01*
X0001914Y0279192D01*
X0001835Y0279090D01*
X0001759Y0278985D01*
X0001686Y0278879D01*
X0001617Y0278770D01*
X0001551Y0278659D01*
X0001488Y0278546D01*
X0001429Y0278431D01*
X0001373Y0278314D01*
X0001322Y0278196D01*
X0001273Y0278076D01*
X0001229Y0277955D01*
X0001188Y0277833D01*
X0001151Y0277709D01*
X0001118Y0277584D01*
X0001088Y0277458D01*
X0001063Y0277332D01*
X0001041Y0277204D01*
X0001024Y0277076D01*
X0001010Y0276948D01*
X0001000Y0276819D01*
X0001000Y0015343D01*
X0001010Y0015214D01*
X0001024Y0015086D01*
X0001041Y0014958D01*
X0001063Y0014830D01*
X0001088Y0014704D01*
X0001118Y0014578D01*
X0001151Y0014453D01*
X0001188Y0014329D01*
X0001229Y0014207D01*
X0001273Y0014086D01*
X0001322Y0013966D01*
X0001373Y0013848D01*
X0001429Y0013731D01*
X0001488Y0013616D01*
X0001551Y0013503D01*
X0001617Y0013392D01*
X0001686Y0013283D01*
X0001759Y0013177D01*
X0001835Y0013072D01*
X0001914Y0012970D01*
X0001997Y0012871D01*
X0002082Y0012774D01*
X0002170Y0012679D01*
X0002262Y0012588D01*
X0002355Y0012499D01*
X0002452Y0012413D01*
X0002551Y0012331D01*
X0002653Y0012251D01*
X0002757Y0012175D01*
X0002864Y0012101D01*
X0002972Y0012032D01*
X0003083Y0011965D01*
X0003196Y0011902D01*
X0003310Y0011842D01*
X0003427Y0011786D01*
X0003545Y0011734D01*
X0003664Y0011685D01*
X0003785Y0011640D01*
X0003908Y0011599D01*
X0004031Y0011561D01*
X0004156Y0011528D01*
X0004282Y0011498D01*
X0004408Y0011472D01*
X0004536Y0011450D01*
X0004663Y0011432D01*
X0004792Y0011418D01*
X0004921Y0011407D01*
X0005050Y0011401D01*
X0005179Y0011399D01*
X0005308Y0011401D01*
X0005437Y0011406D01*
X0018057Y0023937D02*
X0018059Y0024085D01*
X0018065Y0024233D01*
X0018075Y0024381D01*
X0018089Y0024528D01*
X0018107Y0024675D01*
X0018128Y0024821D01*
X0018154Y0024967D01*
X0018184Y0025112D01*
X0018217Y0025256D01*
X0018255Y0025399D01*
X0018296Y0025541D01*
X0018341Y0025682D01*
X0018389Y0025822D01*
X0018442Y0025961D01*
X0018498Y0026098D01*
X0018558Y0026233D01*
X0018621Y0026367D01*
X0018688Y0026499D01*
X0018759Y0026629D01*
X0018833Y0026757D01*
X0018910Y0026883D01*
X0018991Y0027007D01*
X0019075Y0027129D01*
X0019162Y0027248D01*
X0019253Y0027365D01*
X0019347Y0027480D01*
X0019443Y0027592D01*
X0019543Y0027702D01*
X0019645Y0027808D01*
X0019751Y0027912D01*
X0019859Y0028013D01*
X0019970Y0028111D01*
X0020083Y0028207D01*
X0020199Y0028299D01*
X0020317Y0028388D01*
X0020438Y0028473D01*
X0020561Y0028556D01*
X0020686Y0028635D01*
X0020813Y0028711D01*
X0020942Y0028783D01*
X0021073Y0028852D01*
X0021206Y0028917D01*
X0021341Y0028978D01*
X0021477Y0029036D01*
X0021614Y0029091D01*
X0021753Y0029141D01*
X0021894Y0029188D01*
X0022035Y0029231D01*
X0022178Y0029271D01*
X0022322Y0029306D01*
X0022466Y0029338D01*
X0022612Y0029365D01*
X0022758Y0029389D01*
X0022905Y0029409D01*
X0023052Y0029425D01*
X0023199Y0029437D01*
X0023347Y0029445D01*
X0023495Y0029449D01*
X0023643Y0029449D01*
X0023791Y0029445D01*
X0023939Y0029437D01*
X0024086Y0029425D01*
X0024233Y0029409D01*
X0024380Y0029389D01*
X0024526Y0029365D01*
X0024672Y0029338D01*
X0024816Y0029306D01*
X0024960Y0029271D01*
X0025103Y0029231D01*
X0025244Y0029188D01*
X0025385Y0029141D01*
X0025524Y0029091D01*
X0025661Y0029036D01*
X0025797Y0028978D01*
X0025932Y0028917D01*
X0026065Y0028852D01*
X0026196Y0028783D01*
X0026325Y0028711D01*
X0026452Y0028635D01*
X0026577Y0028556D01*
X0026700Y0028473D01*
X0026821Y0028388D01*
X0026939Y0028299D01*
X0027055Y0028207D01*
X0027168Y0028111D01*
X0027279Y0028013D01*
X0027387Y0027912D01*
X0027493Y0027808D01*
X0027595Y0027702D01*
X0027695Y0027592D01*
X0027791Y0027480D01*
X0027885Y0027365D01*
X0027976Y0027248D01*
X0028063Y0027129D01*
X0028147Y0027007D01*
X0028228Y0026883D01*
X0028305Y0026757D01*
X0028379Y0026629D01*
X0028450Y0026499D01*
X0028517Y0026367D01*
X0028580Y0026233D01*
X0028640Y0026098D01*
X0028696Y0025961D01*
X0028749Y0025822D01*
X0028797Y0025682D01*
X0028842Y0025541D01*
X0028883Y0025399D01*
X0028921Y0025256D01*
X0028954Y0025112D01*
X0028984Y0024967D01*
X0029010Y0024821D01*
X0029031Y0024675D01*
X0029049Y0024528D01*
X0029063Y0024381D01*
X0029073Y0024233D01*
X0029079Y0024085D01*
X0029081Y0023937D01*
X0029079Y0023789D01*
X0029073Y0023641D01*
X0029063Y0023493D01*
X0029049Y0023346D01*
X0029031Y0023199D01*
X0029010Y0023053D01*
X0028984Y0022907D01*
X0028954Y0022762D01*
X0028921Y0022618D01*
X0028883Y0022475D01*
X0028842Y0022333D01*
X0028797Y0022192D01*
X0028749Y0022052D01*
X0028696Y0021913D01*
X0028640Y0021776D01*
X0028580Y0021641D01*
X0028517Y0021507D01*
X0028450Y0021375D01*
X0028379Y0021245D01*
X0028305Y0021117D01*
X0028228Y0020991D01*
X0028147Y0020867D01*
X0028063Y0020745D01*
X0027976Y0020626D01*
X0027885Y0020509D01*
X0027791Y0020394D01*
X0027695Y0020282D01*
X0027595Y0020172D01*
X0027493Y0020066D01*
X0027387Y0019962D01*
X0027279Y0019861D01*
X0027168Y0019763D01*
X0027055Y0019667D01*
X0026939Y0019575D01*
X0026821Y0019486D01*
X0026700Y0019401D01*
X0026577Y0019318D01*
X0026452Y0019239D01*
X0026325Y0019163D01*
X0026196Y0019091D01*
X0026065Y0019022D01*
X0025932Y0018957D01*
X0025797Y0018896D01*
X0025661Y0018838D01*
X0025524Y0018783D01*
X0025385Y0018733D01*
X0025244Y0018686D01*
X0025103Y0018643D01*
X0024960Y0018603D01*
X0024816Y0018568D01*
X0024672Y0018536D01*
X0024526Y0018509D01*
X0024380Y0018485D01*
X0024233Y0018465D01*
X0024086Y0018449D01*
X0023939Y0018437D01*
X0023791Y0018429D01*
X0023643Y0018425D01*
X0023495Y0018425D01*
X0023347Y0018429D01*
X0023199Y0018437D01*
X0023052Y0018449D01*
X0022905Y0018465D01*
X0022758Y0018485D01*
X0022612Y0018509D01*
X0022466Y0018536D01*
X0022322Y0018568D01*
X0022178Y0018603D01*
X0022035Y0018643D01*
X0021894Y0018686D01*
X0021753Y0018733D01*
X0021614Y0018783D01*
X0021477Y0018838D01*
X0021341Y0018896D01*
X0021206Y0018957D01*
X0021073Y0019022D01*
X0020942Y0019091D01*
X0020813Y0019163D01*
X0020686Y0019239D01*
X0020561Y0019318D01*
X0020438Y0019401D01*
X0020317Y0019486D01*
X0020199Y0019575D01*
X0020083Y0019667D01*
X0019970Y0019763D01*
X0019859Y0019861D01*
X0019751Y0019962D01*
X0019645Y0020066D01*
X0019543Y0020172D01*
X0019443Y0020282D01*
X0019347Y0020394D01*
X0019253Y0020509D01*
X0019162Y0020626D01*
X0019075Y0020745D01*
X0018991Y0020867D01*
X0018910Y0020991D01*
X0018833Y0021117D01*
X0018759Y0021245D01*
X0018688Y0021375D01*
X0018621Y0021507D01*
X0018558Y0021641D01*
X0018498Y0021776D01*
X0018442Y0021913D01*
X0018389Y0022052D01*
X0018341Y0022192D01*
X0018296Y0022333D01*
X0018255Y0022475D01*
X0018217Y0022618D01*
X0018184Y0022762D01*
X0018154Y0022907D01*
X0018128Y0023053D01*
X0018107Y0023199D01*
X0018089Y0023346D01*
X0018075Y0023493D01*
X0018065Y0023641D01*
X0018059Y0023789D01*
X0018057Y0023937D01*
X0018057Y0252284D02*
X0018059Y0252432D01*
X0018065Y0252580D01*
X0018075Y0252728D01*
X0018089Y0252875D01*
X0018107Y0253022D01*
X0018128Y0253168D01*
X0018154Y0253314D01*
X0018184Y0253459D01*
X0018217Y0253603D01*
X0018255Y0253746D01*
X0018296Y0253888D01*
X0018341Y0254029D01*
X0018389Y0254169D01*
X0018442Y0254308D01*
X0018498Y0254445D01*
X0018558Y0254580D01*
X0018621Y0254714D01*
X0018688Y0254846D01*
X0018759Y0254976D01*
X0018833Y0255104D01*
X0018910Y0255230D01*
X0018991Y0255354D01*
X0019075Y0255476D01*
X0019162Y0255595D01*
X0019253Y0255712D01*
X0019347Y0255827D01*
X0019443Y0255939D01*
X0019543Y0256049D01*
X0019645Y0256155D01*
X0019751Y0256259D01*
X0019859Y0256360D01*
X0019970Y0256458D01*
X0020083Y0256554D01*
X0020199Y0256646D01*
X0020317Y0256735D01*
X0020438Y0256820D01*
X0020561Y0256903D01*
X0020686Y0256982D01*
X0020813Y0257058D01*
X0020942Y0257130D01*
X0021073Y0257199D01*
X0021206Y0257264D01*
X0021341Y0257325D01*
X0021477Y0257383D01*
X0021614Y0257438D01*
X0021753Y0257488D01*
X0021894Y0257535D01*
X0022035Y0257578D01*
X0022178Y0257618D01*
X0022322Y0257653D01*
X0022466Y0257685D01*
X0022612Y0257712D01*
X0022758Y0257736D01*
X0022905Y0257756D01*
X0023052Y0257772D01*
X0023199Y0257784D01*
X0023347Y0257792D01*
X0023495Y0257796D01*
X0023643Y0257796D01*
X0023791Y0257792D01*
X0023939Y0257784D01*
X0024086Y0257772D01*
X0024233Y0257756D01*
X0024380Y0257736D01*
X0024526Y0257712D01*
X0024672Y0257685D01*
X0024816Y0257653D01*
X0024960Y0257618D01*
X0025103Y0257578D01*
X0025244Y0257535D01*
X0025385Y0257488D01*
X0025524Y0257438D01*
X0025661Y0257383D01*
X0025797Y0257325D01*
X0025932Y0257264D01*
X0026065Y0257199D01*
X0026196Y0257130D01*
X0026325Y0257058D01*
X0026452Y0256982D01*
X0026577Y0256903D01*
X0026700Y0256820D01*
X0026821Y0256735D01*
X0026939Y0256646D01*
X0027055Y0256554D01*
X0027168Y0256458D01*
X0027279Y0256360D01*
X0027387Y0256259D01*
X0027493Y0256155D01*
X0027595Y0256049D01*
X0027695Y0255939D01*
X0027791Y0255827D01*
X0027885Y0255712D01*
X0027976Y0255595D01*
X0028063Y0255476D01*
X0028147Y0255354D01*
X0028228Y0255230D01*
X0028305Y0255104D01*
X0028379Y0254976D01*
X0028450Y0254846D01*
X0028517Y0254714D01*
X0028580Y0254580D01*
X0028640Y0254445D01*
X0028696Y0254308D01*
X0028749Y0254169D01*
X0028797Y0254029D01*
X0028842Y0253888D01*
X0028883Y0253746D01*
X0028921Y0253603D01*
X0028954Y0253459D01*
X0028984Y0253314D01*
X0029010Y0253168D01*
X0029031Y0253022D01*
X0029049Y0252875D01*
X0029063Y0252728D01*
X0029073Y0252580D01*
X0029079Y0252432D01*
X0029081Y0252284D01*
X0029079Y0252136D01*
X0029073Y0251988D01*
X0029063Y0251840D01*
X0029049Y0251693D01*
X0029031Y0251546D01*
X0029010Y0251400D01*
X0028984Y0251254D01*
X0028954Y0251109D01*
X0028921Y0250965D01*
X0028883Y0250822D01*
X0028842Y0250680D01*
X0028797Y0250539D01*
X0028749Y0250399D01*
X0028696Y0250260D01*
X0028640Y0250123D01*
X0028580Y0249988D01*
X0028517Y0249854D01*
X0028450Y0249722D01*
X0028379Y0249592D01*
X0028305Y0249464D01*
X0028228Y0249338D01*
X0028147Y0249214D01*
X0028063Y0249092D01*
X0027976Y0248973D01*
X0027885Y0248856D01*
X0027791Y0248741D01*
X0027695Y0248629D01*
X0027595Y0248519D01*
X0027493Y0248413D01*
X0027387Y0248309D01*
X0027279Y0248208D01*
X0027168Y0248110D01*
X0027055Y0248014D01*
X0026939Y0247922D01*
X0026821Y0247833D01*
X0026700Y0247748D01*
X0026577Y0247665D01*
X0026452Y0247586D01*
X0026325Y0247510D01*
X0026196Y0247438D01*
X0026065Y0247369D01*
X0025932Y0247304D01*
X0025797Y0247243D01*
X0025661Y0247185D01*
X0025524Y0247130D01*
X0025385Y0247080D01*
X0025244Y0247033D01*
X0025103Y0246990D01*
X0024960Y0246950D01*
X0024816Y0246915D01*
X0024672Y0246883D01*
X0024526Y0246856D01*
X0024380Y0246832D01*
X0024233Y0246812D01*
X0024086Y0246796D01*
X0023939Y0246784D01*
X0023791Y0246776D01*
X0023643Y0246772D01*
X0023495Y0246772D01*
X0023347Y0246776D01*
X0023199Y0246784D01*
X0023052Y0246796D01*
X0022905Y0246812D01*
X0022758Y0246832D01*
X0022612Y0246856D01*
X0022466Y0246883D01*
X0022322Y0246915D01*
X0022178Y0246950D01*
X0022035Y0246990D01*
X0021894Y0247033D01*
X0021753Y0247080D01*
X0021614Y0247130D01*
X0021477Y0247185D01*
X0021341Y0247243D01*
X0021206Y0247304D01*
X0021073Y0247369D01*
X0020942Y0247438D01*
X0020813Y0247510D01*
X0020686Y0247586D01*
X0020561Y0247665D01*
X0020438Y0247748D01*
X0020317Y0247833D01*
X0020199Y0247922D01*
X0020083Y0248014D01*
X0019970Y0248110D01*
X0019859Y0248208D01*
X0019751Y0248309D01*
X0019645Y0248413D01*
X0019543Y0248519D01*
X0019443Y0248629D01*
X0019347Y0248741D01*
X0019253Y0248856D01*
X0019162Y0248973D01*
X0019075Y0249092D01*
X0018991Y0249214D01*
X0018910Y0249338D01*
X0018833Y0249464D01*
X0018759Y0249592D01*
X0018688Y0249722D01*
X0018621Y0249854D01*
X0018558Y0249988D01*
X0018498Y0250123D01*
X0018442Y0250260D01*
X0018389Y0250399D01*
X0018341Y0250539D01*
X0018296Y0250680D01*
X0018255Y0250822D01*
X0018217Y0250965D01*
X0018184Y0251109D01*
X0018154Y0251254D01*
X0018128Y0251400D01*
X0018107Y0251546D01*
X0018089Y0251693D01*
X0018075Y0251840D01*
X0018065Y0251988D01*
X0018059Y0252136D01*
X0018057Y0252284D01*
D11*
X0053300Y0198606D02*
X0053300Y0192606D01*
X0053300Y0183606D02*
X0053300Y0177606D01*
X0055300Y0167606D02*
X0061300Y0167606D01*
X0061300Y0157606D02*
X0055300Y0157606D01*
X0055300Y0147606D02*
X0061300Y0147606D01*
X0061300Y0137606D02*
X0055300Y0137606D01*
X0055300Y0127606D02*
X0061300Y0127606D01*
X0061300Y0117606D02*
X0055300Y0117606D01*
X0055300Y0107606D02*
X0061300Y0107606D01*
X0061300Y0097606D02*
X0055300Y0097606D01*
X0058300Y0085606D02*
X0058300Y0079606D01*
X0068300Y0079606D02*
X0068300Y0085606D01*
X0078300Y0085606D02*
X0078300Y0079606D01*
X0088300Y0079606D02*
X0088300Y0085606D01*
X0098300Y0085606D02*
X0098300Y0079606D01*
X0108300Y0079606D02*
X0108300Y0085606D01*
X0118300Y0085606D02*
X0118300Y0079606D01*
X0128300Y0079606D02*
X0128300Y0085606D01*
X0138300Y0085606D02*
X0138300Y0079606D01*
X0133040Y0065446D02*
X0133040Y0059446D01*
X0123040Y0059446D02*
X0123040Y0065446D01*
X0113040Y0065446D02*
X0113040Y0059446D01*
X0103040Y0059446D02*
X0103040Y0065446D01*
X0088300Y0065606D02*
X0088300Y0059606D01*
X0078300Y0059606D02*
X0078300Y0065606D01*
X0068300Y0065606D02*
X0068300Y0059606D01*
X0058300Y0059606D02*
X0058300Y0065606D01*
X0058300Y0045606D02*
X0058300Y0039606D01*
X0068300Y0039606D02*
X0068300Y0045606D01*
X0078300Y0045606D02*
X0078300Y0039606D01*
X0088300Y0039606D02*
X0088300Y0045606D01*
X0103300Y0045606D02*
X0103300Y0039606D01*
X0113300Y0039606D02*
X0113300Y0045606D01*
X0123300Y0045606D02*
X0123300Y0039606D01*
X0133300Y0039606D02*
X0133300Y0045606D01*
X0103300Y0177606D02*
X0103300Y0183606D01*
X0103300Y0192606D02*
X0103300Y0198606D01*
X0093300Y0198606D02*
X0093300Y0192606D01*
X0093300Y0183606D02*
X0093300Y0177606D01*
X0083300Y0177606D02*
X0083300Y0183606D01*
X0083300Y0192606D02*
X0083300Y0198606D01*
X0073300Y0198606D02*
X0073300Y0192606D01*
X0073300Y0183606D02*
X0073300Y0177606D01*
X0063300Y0177606D02*
X0063300Y0183606D01*
X0063300Y0192606D02*
X0063300Y0198606D01*
X0068540Y0255946D02*
X0068540Y0261946D01*
X0068300Y0269606D02*
X0068300Y0275606D01*
X0078300Y0275606D02*
X0078300Y0269606D01*
X0078540Y0261946D02*
X0078540Y0255946D01*
X0093300Y0269606D02*
X0093300Y0275606D01*
X0103300Y0275606D02*
X0103300Y0269606D01*
X0113300Y0269606D02*
X0113300Y0275606D01*
X0123300Y0275606D02*
X0123300Y0269606D01*
D12*
X0028694Y0232968D03*
X0028694Y0222968D03*
X0028694Y0212968D03*
X0028694Y0202968D03*
X0028694Y0192968D03*
X0028694Y0182968D03*
X0028694Y0172968D03*
X0028694Y0162968D03*
X0028694Y0152968D03*
X0028694Y0142968D03*
X0028694Y0132968D03*
X0028694Y0122968D03*
X0028694Y0112968D03*
X0028694Y0102968D03*
X0028694Y0092968D03*
X0028694Y0082968D03*
X0028694Y0072968D03*
X0028694Y0062968D03*
X0028694Y0052968D03*
X0028694Y0042968D03*
X0018694Y0042968D03*
X0018694Y0052968D03*
X0018694Y0062968D03*
X0018694Y0072968D03*
X0018694Y0082968D03*
X0018694Y0092968D03*
X0018694Y0102968D03*
X0018694Y0112968D03*
X0018694Y0122968D03*
X0018694Y0132968D03*
X0018694Y0142968D03*
X0018694Y0152968D03*
X0018694Y0162968D03*
X0018694Y0172968D03*
X0018694Y0182968D03*
X0018694Y0192968D03*
X0018694Y0202968D03*
X0018694Y0212968D03*
X0018694Y0222968D03*
X0018694Y0232968D03*
D13*
X0006489Y0232929D03*
X0006489Y0222929D03*
X0006489Y0212929D03*
X0006489Y0202929D03*
X0006489Y0192929D03*
X0006489Y0182929D03*
X0006489Y0172929D03*
X0006489Y0162929D03*
X0006489Y0152929D03*
X0006489Y0142929D03*
X0006489Y0132929D03*
X0006489Y0122929D03*
X0006489Y0112929D03*
X0006489Y0102929D03*
X0006489Y0092929D03*
X0006489Y0082929D03*
X0006489Y0072929D03*
X0006489Y0062929D03*
X0006489Y0052929D03*
X0006489Y0042929D03*
X0040111Y0042929D03*
X0040111Y0052929D03*
X0040111Y0062929D03*
X0040111Y0072929D03*
X0040111Y0082929D03*
X0040111Y0092929D03*
X0040111Y0102929D03*
X0040111Y0112929D03*
X0040111Y0122929D03*
X0040111Y0132929D03*
X0040111Y0142929D03*
X0040111Y0152929D03*
X0040111Y0162929D03*
X0040111Y0172929D03*
X0040111Y0182929D03*
X0040111Y0192929D03*
X0040111Y0202929D03*
X0040111Y0212929D03*
X0040111Y0222929D03*
X0040111Y0232929D03*
D14*
X0040600Y0233006D01*
X0057500Y0233006D01*
X0057940Y0233246D01*
X0061640Y0233246D01*
X0082990Y0254596D01*
X0078940Y0258646D01*
X0078540Y0258946D01*
X0068540Y0258946D01*
X0058540Y0264946D02*
X0058540Y0268946D01*
X0062040Y0272446D01*
X0067840Y0272446D01*
X0068300Y0272606D01*
X0078300Y0272606D01*
X0093240Y0272546D02*
X0093240Y0264846D01*
X0082990Y0254596D01*
X0093240Y0272546D02*
X0093300Y0272606D01*
X0103300Y0272606D02*
X0103300Y0235706D01*
X0063600Y0196006D01*
X0063300Y0195606D01*
X0063300Y0180606D01*
X0065600Y0173306D02*
X0051300Y0173306D01*
X0044800Y0166806D01*
X0044800Y0160806D01*
X0041940Y0157946D01*
X0036660Y0157946D01*
X0036600Y0158006D01*
X0040400Y0153306D02*
X0040111Y0152929D01*
X0040100Y0152906D01*
X0028700Y0152906D01*
X0028694Y0152968D01*
X0028700Y0162906D02*
X0028694Y0162968D01*
X0028700Y0162906D02*
X0040100Y0162906D01*
X0040111Y0162929D01*
X0040400Y0163306D01*
X0041040Y0163946D01*
X0041040Y0166446D01*
X0047340Y0172746D01*
X0047340Y0178346D01*
X0049600Y0180606D01*
X0053300Y0180606D01*
X0053300Y0195606D01*
X0051800Y0204506D02*
X0040500Y0193206D01*
X0040111Y0192929D01*
X0040100Y0192906D01*
X0028700Y0192906D01*
X0028694Y0192968D01*
X0028700Y0202906D02*
X0028694Y0202968D01*
X0028700Y0202906D02*
X0040100Y0202906D01*
X0040111Y0202929D01*
X0040500Y0203206D01*
X0044900Y0207606D01*
X0068600Y0207606D01*
X0085500Y0224506D01*
X0087600Y0224506D01*
X0098540Y0213946D02*
X0123300Y0238706D01*
X0123300Y0272606D01*
X0115480Y0217006D02*
X0110300Y0217006D01*
X0115480Y0217006D02*
X0126040Y0206446D01*
X0126040Y0173946D01*
X0121040Y0168946D01*
X0100440Y0168946D01*
X0099000Y0167506D01*
X0099000Y0099306D01*
X0108300Y0090006D01*
X0108300Y0082606D01*
X0106100Y0069706D02*
X0103040Y0069706D01*
X0103040Y0062446D01*
X0103040Y0069706D02*
X0076600Y0069706D01*
X0069800Y0062906D01*
X0068700Y0062906D01*
X0068300Y0062606D01*
X0068300Y0042606D01*
X0064500Y0035006D02*
X0058700Y0040806D01*
X0058300Y0042606D01*
X0058300Y0062606D01*
X0058000Y0063006D01*
X0038500Y0082506D01*
X0040111Y0082929D01*
X0040100Y0082906D01*
X0028700Y0082906D01*
X0028694Y0082968D01*
X0023700Y0088106D02*
X0019100Y0092706D01*
X0018694Y0092968D01*
X0018600Y0092906D01*
X0006500Y0092906D01*
X0006489Y0092929D01*
X0002500Y0096206D02*
X0004300Y0098106D01*
X0022800Y0098106D01*
X0023800Y0099106D01*
X0023800Y0117906D01*
X0028400Y0122506D01*
X0028694Y0122968D01*
X0028500Y0123406D01*
X0023800Y0128106D01*
X0023800Y0206906D01*
X0022900Y0208006D01*
X0003600Y0208006D01*
X0002500Y0209206D01*
X0002500Y0237006D01*
X0003940Y0238546D01*
X0032140Y0238546D01*
X0058540Y0264946D01*
X0040111Y0232929D02*
X0040100Y0232906D01*
X0028700Y0232906D01*
X0028694Y0232968D01*
X0028694Y0222968D02*
X0028700Y0222906D01*
X0040100Y0222906D01*
X0040111Y0222929D01*
X0040600Y0213006D02*
X0040111Y0212929D01*
X0040100Y0212906D01*
X0028700Y0212906D01*
X0028694Y0212968D01*
X0023700Y0218106D02*
X0019100Y0222706D01*
X0018694Y0222968D01*
X0018600Y0222906D01*
X0006500Y0222906D01*
X0006489Y0222929D01*
X0006500Y0232906D02*
X0006489Y0232929D01*
X0006500Y0232906D02*
X0018600Y0232906D01*
X0018694Y0232968D01*
X0023700Y0218106D02*
X0064000Y0218106D01*
X0069000Y0218706D02*
X0063300Y0213006D01*
X0040600Y0213006D01*
X0051800Y0204506D02*
X0067600Y0204506D01*
X0078140Y0206146D02*
X0078140Y0190746D01*
X0075340Y0187946D01*
X0069740Y0187946D01*
X0069300Y0187506D01*
X0069200Y0187506D01*
X0072900Y0180606D02*
X0065600Y0173306D01*
X0067500Y0171706D02*
X0052700Y0171706D01*
X0046800Y0165806D01*
X0046800Y0159706D01*
X0040400Y0153306D01*
X0046040Y0146446D02*
X0051940Y0152346D01*
X0065260Y0152346D01*
X0066500Y0152306D01*
X0069540Y0155346D01*
X0069540Y0160046D01*
X0083000Y0173506D01*
X0083000Y0180206D01*
X0083300Y0180606D01*
X0083300Y0195606D01*
X0077900Y0187006D02*
X0077900Y0176406D01*
X0075500Y0174006D01*
X0075500Y0170406D01*
X0070100Y0165006D02*
X0064500Y0165006D01*
X0062800Y0163306D01*
X0049800Y0163306D01*
X0046040Y0146446D02*
X0046040Y0138946D01*
X0040400Y0133306D01*
X0040111Y0132929D01*
X0040100Y0132906D01*
X0028700Y0132906D01*
X0028694Y0132968D01*
X0028700Y0142906D02*
X0028694Y0142968D01*
X0028700Y0142906D02*
X0040100Y0142906D01*
X0040111Y0142929D01*
X0049000Y0139906D02*
X0051600Y0142506D01*
X0063000Y0142506D01*
X0065800Y0139706D01*
X0076800Y0139706D01*
X0065400Y0143706D02*
X0073740Y0152046D01*
X0073740Y0160746D01*
X0085940Y0172946D01*
X0085940Y0173346D01*
X0088740Y0176146D01*
X0088840Y0176146D01*
X0093300Y0180606D01*
X0092900Y0180306D01*
X0092100Y0180306D01*
X0093300Y0180606D02*
X0093300Y0195606D01*
X0103300Y0195606D02*
X0103300Y0180606D01*
X0098540Y0171446D02*
X0098540Y0213946D01*
X0081400Y0209406D02*
X0078140Y0206146D01*
X0075200Y0218706D02*
X0069000Y0218706D01*
X0072900Y0180606D02*
X0073300Y0180606D01*
X0069400Y0173506D02*
X0069300Y0173506D01*
X0067500Y0171706D01*
X0077200Y0157806D02*
X0083000Y0152006D01*
X0086100Y0159006D02*
X0086100Y0144406D01*
X0064300Y0122606D01*
X0058300Y0117606D02*
X0044900Y0117606D01*
X0040500Y0113206D01*
X0040111Y0112929D01*
X0040100Y0112906D01*
X0028700Y0112906D01*
X0028694Y0112968D01*
X0028694Y0102968D02*
X0028700Y0102906D01*
X0040100Y0102906D01*
X0040111Y0102929D01*
X0040111Y0092929D02*
X0040600Y0092806D01*
X0068900Y0092806D01*
X0078600Y0083106D01*
X0078300Y0082606D01*
X0088300Y0082606D02*
X0076800Y0094106D01*
X0068300Y0082606D02*
X0068100Y0082606D01*
X0060400Y0090306D01*
X0046200Y0090306D01*
X0043600Y0088106D01*
X0023700Y0088106D01*
X0028700Y0092906D02*
X0028694Y0092968D01*
X0028700Y0092906D02*
X0040100Y0092906D01*
X0040111Y0092929D01*
X0040111Y0072929D02*
X0040100Y0072906D01*
X0028700Y0072906D01*
X0028694Y0072968D01*
X0023700Y0077606D02*
X0022600Y0077906D01*
X0004300Y0077906D01*
X0002500Y0079806D01*
X0002500Y0096206D01*
X0006500Y0102906D02*
X0006489Y0102929D01*
X0006200Y0103306D01*
X0002500Y0107106D01*
X0002500Y0127106D01*
X0006200Y0130906D01*
X0006200Y0132506D01*
X0006489Y0132929D01*
X0006200Y0133306D01*
X0002500Y0137106D01*
X0002500Y0177406D01*
X0006400Y0181406D01*
X0006400Y0182406D01*
X0006489Y0182929D01*
X0006400Y0183406D01*
X0006400Y0185006D01*
X0002500Y0189006D01*
X0002500Y0198706D01*
X0006200Y0202506D01*
X0006489Y0202929D01*
X0006500Y0202906D01*
X0018600Y0202906D01*
X0018694Y0202968D01*
X0018600Y0212906D02*
X0018694Y0212968D01*
X0018600Y0212906D02*
X0006500Y0212906D01*
X0006489Y0212929D01*
X0006489Y0192929D02*
X0006500Y0192906D01*
X0018600Y0192906D01*
X0018694Y0192968D01*
X0018694Y0182968D02*
X0018600Y0182906D01*
X0006500Y0182906D01*
X0006489Y0182929D01*
X0006489Y0162929D02*
X0006500Y0162906D01*
X0018600Y0162906D01*
X0018694Y0162968D01*
X0018694Y0152968D02*
X0018600Y0152906D01*
X0006500Y0152906D01*
X0006489Y0152929D01*
X0006489Y0142929D02*
X0006500Y0142906D01*
X0018600Y0142906D01*
X0018694Y0142968D01*
X0018694Y0132968D02*
X0018600Y0132906D01*
X0006500Y0132906D01*
X0006489Y0132929D01*
X0006489Y0122929D02*
X0006500Y0122906D01*
X0018600Y0122906D01*
X0018694Y0122968D01*
X0018694Y0112968D02*
X0018600Y0112906D01*
X0006500Y0112906D01*
X0006489Y0112929D01*
X0006500Y0102906D02*
X0018600Y0102906D01*
X0018694Y0102968D01*
X0028700Y0122906D02*
X0028694Y0122968D01*
X0028700Y0122906D02*
X0040100Y0122906D01*
X0040111Y0122929D01*
X0058300Y0107606D02*
X0073700Y0123006D01*
X0079900Y0119206D02*
X0058300Y0097606D01*
X0067500Y0112406D02*
X0095900Y0140806D01*
X0095900Y0164406D01*
X0098540Y0171446D02*
X0086100Y0159006D01*
X0079900Y0161606D02*
X0079900Y0163706D01*
X0089500Y0173306D01*
X0040111Y0182929D02*
X0040100Y0182906D01*
X0028700Y0182906D01*
X0028694Y0182968D01*
X0018694Y0082968D02*
X0018600Y0082906D01*
X0006500Y0082906D01*
X0006489Y0082929D01*
X0006489Y0072929D02*
X0006500Y0072906D01*
X0018600Y0072906D01*
X0018694Y0072968D01*
X0023700Y0077606D02*
X0023700Y0047806D01*
X0028100Y0043406D01*
X0028500Y0043406D01*
X0028694Y0042968D01*
X0028700Y0042906D01*
X0040100Y0042906D01*
X0040111Y0042929D01*
X0040100Y0052906D02*
X0040111Y0052929D01*
X0040100Y0052906D02*
X0028700Y0052906D01*
X0028694Y0052968D01*
X0028700Y0062906D02*
X0028694Y0062968D01*
X0028700Y0062906D02*
X0040100Y0062906D01*
X0040111Y0062929D01*
X0040600Y0062806D01*
X0053200Y0050206D01*
X0064500Y0035006D02*
X0091000Y0035006D01*
X0098300Y0042306D01*
X0102900Y0042306D01*
X0103300Y0042606D01*
X0113300Y0042606D01*
X0123300Y0042606D01*
X0133300Y0042606D01*
X0133040Y0062446D02*
X0123040Y0062446D01*
X0113040Y0062446D01*
X0112900Y0062906D01*
X0106100Y0069706D01*
X0088300Y0062606D02*
X0088300Y0042606D01*
X0078300Y0042606D02*
X0078300Y0062606D01*
X0054400Y0073506D02*
X0134500Y0073506D01*
X0138100Y0077106D01*
X0138300Y0082606D01*
X0018694Y0062968D02*
X0018600Y0062906D01*
X0006500Y0062906D01*
X0006489Y0062929D01*
X0006489Y0052929D02*
X0006500Y0052906D01*
X0006500Y0043006D01*
X0006489Y0042929D01*
X0007000Y0043006D01*
X0018200Y0043006D01*
X0018694Y0042968D01*
X0018700Y0043006D01*
X0018700Y0052906D01*
X0018694Y0052968D01*
D15*
X0053200Y0050206D03*
X0054400Y0073506D03*
X0076800Y0094106D03*
X0067500Y0112406D03*
X0064300Y0122606D03*
X0073700Y0123006D03*
X0079900Y0119206D03*
X0076800Y0139706D03*
X0083000Y0152006D03*
X0077200Y0157806D03*
X0079900Y0161606D03*
X0075500Y0170406D03*
X0070100Y0165006D03*
X0069400Y0173506D03*
X0069200Y0187506D03*
X0077900Y0187006D03*
X0089500Y0173306D03*
X0095900Y0164406D03*
X0067600Y0204506D03*
X0064000Y0218106D03*
X0075200Y0218706D03*
X0081400Y0209406D03*
X0087600Y0224506D03*
X0110300Y0217006D03*
X0065400Y0143706D03*
X0049000Y0139906D03*
X0036600Y0158006D03*
X0049800Y0163306D03*
M02*
