%
M48
M72
T01C0.01000
T02C0.03937
T03C0.04000
T04C0.04724
T05C0.11024
%
T01
X53200Y50206
X54400Y73506
X76800Y94106
X67500Y112406
X64300Y122606
X73700Y123006
X79900Y119206
X76800Y139706
X83000Y152006
X77200Y157806
X79900Y161606
X75500Y170406
X70100Y165006
X69400Y173506
X69200Y187506
X77900Y187006
X89500Y173306
X95900Y164406
X67600Y204506
X64000Y218106
X75200Y218706
X81400Y209406
X87600Y224506
X110300Y217006
X65400Y143706
X49000Y139906
X36600Y158006
X49800Y163306
T02
X40111Y162929
X40111Y172929
X40111Y182929
X40111Y192929
X40111Y202929
X40111Y212929
X40111Y222929
X40111Y232929
X6489Y232929
X6489Y222929
X6489Y212929
X6489Y202929
X6489Y192929
X6489Y182929
X6489Y172929
X6489Y162929
X6489Y152929
X6489Y142929
X6489Y132929
X6489Y122929
X6489Y112929
X6489Y102929
X6489Y92929
X6489Y82929
X6489Y72929
X6489Y62929
X6489Y52929
X6489Y42929
X40111Y42929
X40111Y52929
X40111Y62929
X40111Y72929
X40111Y82929
X40111Y92929
X40111Y102929
X40111Y112929
X40111Y122929
X40111Y132929
X40111Y142929
X40111Y152929
T03
X58300Y157606
X58300Y167606
X53300Y180606
X63300Y180606
X73300Y180606
X83300Y180606
X93300Y180606
X103300Y180606
X103300Y195606
X93300Y195606
X83300Y195606
X73300Y195606
X63300Y195606
X53300Y195606
X58300Y147606
X58300Y137606
X58300Y127606
X58300Y117606
X58300Y107606
X58300Y97606
X58300Y82606
X68300Y82606
X78300Y82606
X88300Y82606
X98300Y82606
X108300Y82606
X118300Y82606
X128300Y82606
X138300Y82606
X133040Y62446
X123040Y62446
X113040Y62446
X103040Y62446
X103300Y42606
X113300Y42606
X123300Y42606
X133300Y42606
X88300Y42606
X78300Y42606
X68300Y42606
X58300Y42606
X58300Y62606
X68300Y62606
X78300Y62606
X88300Y62606
X78540Y258946
X68540Y258946
X68300Y272606
X78300Y272606
X93300Y272606
X103300Y272606
X113300Y272606
X123300Y272606
T04
X28694Y232968
X28694Y222968
X28694Y212968
X28694Y202968
X28694Y192968
X28694Y182968
X28694Y172968
X28694Y162968
X28694Y152968
X28694Y142968
X28694Y132968
X28694Y122968
X28694Y112968
X28694Y102968
X28694Y92968
X28694Y82968
X28694Y72968
X28694Y62968
X28694Y52968
X28694Y42968
X18694Y42968
X18694Y52968
X18694Y62968
X18694Y72968
X18694Y82968
X18694Y92968
X18694Y102968
X18694Y112968
X18694Y122968
X18694Y132968
X18694Y142968
X18694Y152968
X18694Y162968
X18694Y172968
X18694Y182968
X18694Y192968
X18694Y202968
X18694Y212968
X18694Y222968
X18694Y232968
T05
X23569Y23937
X23569Y252284
M30
