G75*
%MOIN*%
%OFA0B0*%
%FSLAX25Y25*%
%IPPOS*%
%LPD*%
%AMOC8*
5,1,8,0,0,1.08239X$1,22.5*
%
%ADD10C,0.11624*%
%ADD11C,0.06600*%
%ADD12R,0.08000X0.08000*%
%ADD13C,0.06537*%
D10*
X0023569Y0023937D03*
X0023569Y0252284D03*
D11*
X0053300Y0198606D02*
X0053300Y0192606D01*
X0053300Y0183606D02*
X0053300Y0177606D01*
X0055300Y0167606D02*
X0061300Y0167606D01*
X0061300Y0157606D02*
X0055300Y0157606D01*
X0055300Y0147606D02*
X0061300Y0147606D01*
X0061300Y0137606D02*
X0055300Y0137606D01*
X0055300Y0127606D02*
X0061300Y0127606D01*
X0061300Y0117606D02*
X0055300Y0117606D01*
X0055300Y0107606D02*
X0061300Y0107606D01*
X0061300Y0097606D02*
X0055300Y0097606D01*
X0058300Y0085606D02*
X0058300Y0079606D01*
X0068300Y0079606D02*
X0068300Y0085606D01*
X0078300Y0085606D02*
X0078300Y0079606D01*
X0088300Y0079606D02*
X0088300Y0085606D01*
X0098300Y0085606D02*
X0098300Y0079606D01*
X0108300Y0079606D02*
X0108300Y0085606D01*
X0118300Y0085606D02*
X0118300Y0079606D01*
X0128300Y0079606D02*
X0128300Y0085606D01*
X0138300Y0085606D02*
X0138300Y0079606D01*
X0133040Y0065446D02*
X0133040Y0059446D01*
X0123040Y0059446D02*
X0123040Y0065446D01*
X0113040Y0065446D02*
X0113040Y0059446D01*
X0103040Y0059446D02*
X0103040Y0065446D01*
X0088300Y0065606D02*
X0088300Y0059606D01*
X0078300Y0059606D02*
X0078300Y0065606D01*
X0068300Y0065606D02*
X0068300Y0059606D01*
X0058300Y0059606D02*
X0058300Y0065606D01*
X0058300Y0045606D02*
X0058300Y0039606D01*
X0068300Y0039606D02*
X0068300Y0045606D01*
X0078300Y0045606D02*
X0078300Y0039606D01*
X0088300Y0039606D02*
X0088300Y0045606D01*
X0103300Y0045606D02*
X0103300Y0039606D01*
X0113300Y0039606D02*
X0113300Y0045606D01*
X0123300Y0045606D02*
X0123300Y0039606D01*
X0133300Y0039606D02*
X0133300Y0045606D01*
X0103300Y0177606D02*
X0103300Y0183606D01*
X0103300Y0192606D02*
X0103300Y0198606D01*
X0093300Y0198606D02*
X0093300Y0192606D01*
X0093300Y0183606D02*
X0093300Y0177606D01*
X0083300Y0177606D02*
X0083300Y0183606D01*
X0083300Y0192606D02*
X0083300Y0198606D01*
X0073300Y0198606D02*
X0073300Y0192606D01*
X0073300Y0183606D02*
X0073300Y0177606D01*
X0063300Y0177606D02*
X0063300Y0183606D01*
X0063300Y0192606D02*
X0063300Y0198606D01*
X0068540Y0255946D02*
X0068540Y0261946D01*
X0068300Y0269606D02*
X0068300Y0275606D01*
X0078300Y0275606D02*
X0078300Y0269606D01*
X0078540Y0261946D02*
X0078540Y0255946D01*
X0093300Y0269606D02*
X0093300Y0275606D01*
X0103300Y0275606D02*
X0103300Y0269606D01*
X0113300Y0269606D02*
X0113300Y0275606D01*
X0123300Y0275606D02*
X0123300Y0269606D01*
D12*
X0028694Y0232968D03*
X0028694Y0222968D03*
X0028694Y0212968D03*
X0028694Y0202968D03*
X0028694Y0192968D03*
X0028694Y0182968D03*
X0028694Y0172968D03*
X0028694Y0162968D03*
X0028694Y0152968D03*
X0028694Y0142968D03*
X0028694Y0132968D03*
X0028694Y0122968D03*
X0028694Y0112968D03*
X0028694Y0102968D03*
X0028694Y0092968D03*
X0028694Y0082968D03*
X0028694Y0072968D03*
X0028694Y0062968D03*
X0028694Y0052968D03*
X0028694Y0042968D03*
X0018694Y0042968D03*
X0018694Y0052968D03*
X0018694Y0062968D03*
X0018694Y0072968D03*
X0018694Y0082968D03*
X0018694Y0092968D03*
X0018694Y0102968D03*
X0018694Y0112968D03*
X0018694Y0122968D03*
X0018694Y0132968D03*
X0018694Y0142968D03*
X0018694Y0152968D03*
X0018694Y0162968D03*
X0018694Y0172968D03*
X0018694Y0182968D03*
X0018694Y0192968D03*
X0018694Y0202968D03*
X0018694Y0212968D03*
X0018694Y0222968D03*
X0018694Y0232968D03*
D13*
X0006489Y0232929D03*
X0006489Y0222929D03*
X0006489Y0212929D03*
X0006489Y0202929D03*
X0006489Y0192929D03*
X0006489Y0182929D03*
X0006489Y0172929D03*
X0006489Y0162929D03*
X0006489Y0152929D03*
X0006489Y0142929D03*
X0006489Y0132929D03*
X0006489Y0122929D03*
X0006489Y0112929D03*
X0006489Y0102929D03*
X0006489Y0092929D03*
X0006489Y0082929D03*
X0006489Y0072929D03*
X0006489Y0062929D03*
X0006489Y0052929D03*
X0006489Y0042929D03*
X0040111Y0042929D03*
X0040111Y0052929D03*
X0040111Y0062929D03*
X0040111Y0072929D03*
X0040111Y0082929D03*
X0040111Y0092929D03*
X0040111Y0102929D03*
X0040111Y0112929D03*
X0040111Y0122929D03*
X0040111Y0132929D03*
X0040111Y0142929D03*
X0040111Y0152929D03*
X0040111Y0162929D03*
X0040111Y0172929D03*
X0040111Y0182929D03*
X0040111Y0192929D03*
X0040111Y0202929D03*
X0040111Y0212929D03*
X0040111Y0222929D03*
X0040111Y0232929D03*
M02*
