%
M48
M72
T01C0.0100
T02C0.0394
T03C0.0400
T04C0.0472
T05C0.1102
%
T01
X5270Y5021
X5390Y7351
X7630Y9411
X6700Y11241
X6380Y12261
X7320Y12301
X7940Y11921
X7630Y13971
X8250Y15201
X7670Y15781
X7940Y16161
X7500Y17041
X6890Y17351
X6960Y16501
X6490Y14371
X4850Y13991
X3610Y15801
X4930Y16331
X6870Y18751
X7740Y18701
X8900Y17331
X9540Y16441
X6710Y20451
X6350Y21811
X7470Y21871
X8090Y20941
X8710Y22451
X10980Y21701
T02
X3961Y21293
X3961Y22293
X3961Y23293
X3961Y20293
X3961Y19293
X3961Y18293
X3961Y17293
X3961Y16293
X3961Y15293
X3961Y14293
X3961Y13293
X3961Y12293
X3961Y11293
X3961Y10293
X3961Y9293
X3961Y8293
X3961Y7293
X3961Y6293
X3961Y5293
X3961Y4293
X599Y4293
X599Y5293
X599Y6293
X599Y7293
X599Y8293
X599Y9293
X599Y10293
X599Y11293
X599Y12293
X599Y13293
X599Y14293
X599Y15293
X599Y16293
X599Y17293
X599Y18293
X599Y19293
X599Y20293
X599Y21293
X599Y22293
X599Y23293
T03
X5280Y19561
X5280Y18061
X5780Y16761
X5780Y15761
X5780Y14761
X5780Y13761
X5780Y12761
X5780Y11761
X5780Y10761
X5780Y9761
X5780Y8261
X6780Y8261
X7780Y8261
X8780Y8261
X9780Y8261
X10780Y8261
X11780Y8261
X12780Y8261
X13780Y8261
X13254Y6245
X12254Y6245
X11254Y6245
X10254Y6245
X10280Y4261
X11280Y4261
X12280Y4261
X13280Y4261
X8780Y4261
X7780Y4261
X6780Y4261
X5780Y4261
X5780Y6261
X6780Y6261
X7780Y6261
X8780Y6261
X8280Y18061
X7280Y18061
X6280Y18061
X6280Y19561
X7280Y19561
X8280Y19561
X9280Y19561
X10280Y19561
X10280Y18061
X9280Y18061
X7804Y25895
X6804Y25895
X6780Y27261
X7780Y27261
X9280Y27261
X10280Y27261
X11280Y27261
X12280Y27261
T04
X2819Y23297
X2819Y22297
X2819Y21297
X2819Y20297
X2819Y19297
X2819Y18297
X2819Y17297
X2819Y16297
X2819Y15297
X2819Y14297
X2819Y13297
X2819Y12297
X2819Y11297
X2819Y10297
X2819Y9297
X2819Y8297
X2819Y7297
X2819Y6297
X2819Y5297
X2819Y4297
X1819Y4297
X1819Y5297
X1819Y6297
X1819Y7297
X1819Y8297
X1819Y9297
X1819Y10297
X1819Y11297
X1819Y12297
X1819Y13297
X1819Y14297
X1819Y15297
X1819Y16297
X1819Y17297
X1819Y18297
X1819Y19297
X1819Y20297
X1819Y21297
X1819Y22297
X1819Y23297
T05
X2307Y2394
X2307Y25228
M30
