G75*
%MOIN*%
%OFA0B0*%
%FSLAX24Y24*%
%IPPOS*%
%LPD*%
%AMOC8*
5,1,8,0,0,1.08239X$1,22.5*
%
%ADD10C,0.1162*%
%ADD11C,0.0660*%
%ADD12R,0.0800X0.0800*%
%ADD13C,0.0654*%
D10*
X002307Y002394D03*
X002307Y025228D03*
D11*
X005280Y019861D02*
X005280Y019261D01*
X005280Y018361D02*
X005280Y017761D01*
X005480Y016761D02*
X006080Y016761D01*
X006080Y015761D02*
X005480Y015761D01*
X005480Y014761D02*
X006080Y014761D01*
X006080Y013761D02*
X005480Y013761D01*
X005480Y012761D02*
X006080Y012761D01*
X006080Y011761D02*
X005480Y011761D01*
X005480Y010761D02*
X006080Y010761D01*
X006080Y009761D02*
X005480Y009761D01*
X005780Y008561D02*
X005780Y007961D01*
X006780Y007961D02*
X006780Y008561D01*
X007780Y008561D02*
X007780Y007961D01*
X008780Y007961D02*
X008780Y008561D01*
X009780Y008561D02*
X009780Y007961D01*
X010780Y007961D02*
X010780Y008561D01*
X011780Y008561D02*
X011780Y007961D01*
X012254Y006545D02*
X012254Y005945D01*
X011254Y005945D02*
X011254Y006545D01*
X010254Y006545D02*
X010254Y005945D01*
X010280Y004561D02*
X010280Y003961D01*
X011280Y003961D02*
X011280Y004561D01*
X012280Y004561D02*
X012280Y003961D01*
X013280Y003961D02*
X013280Y004561D01*
X013254Y005945D02*
X013254Y006545D01*
X012780Y007961D02*
X012780Y008561D01*
X013780Y008561D02*
X013780Y007961D01*
X008780Y006561D02*
X008780Y005961D01*
X007780Y005961D02*
X007780Y006561D01*
X006780Y006561D02*
X006780Y005961D01*
X005780Y005961D02*
X005780Y006561D01*
X005780Y004561D02*
X005780Y003961D01*
X006780Y003961D02*
X006780Y004561D01*
X007780Y004561D02*
X007780Y003961D01*
X008780Y003961D02*
X008780Y004561D01*
X008280Y017761D02*
X008280Y018361D01*
X008280Y019261D02*
X008280Y019861D01*
X007280Y019861D02*
X007280Y019261D01*
X007280Y018361D02*
X007280Y017761D01*
X006280Y017761D02*
X006280Y018361D01*
X006280Y019261D02*
X006280Y019861D01*
X009280Y019861D02*
X009280Y019261D01*
X009280Y018361D02*
X009280Y017761D01*
X010280Y017761D02*
X010280Y018361D01*
X010280Y019261D02*
X010280Y019861D01*
X007804Y025595D02*
X007804Y026195D01*
X007780Y026961D02*
X007780Y027561D01*
X006780Y027561D02*
X006780Y026961D01*
X006804Y026195D02*
X006804Y025595D01*
X009280Y026961D02*
X009280Y027561D01*
X010280Y027561D02*
X010280Y026961D01*
X011280Y026961D02*
X011280Y027561D01*
X012280Y027561D02*
X012280Y026961D01*
D12*
X002819Y023297D03*
X002819Y022297D03*
X002819Y021297D03*
X002819Y020297D03*
X002819Y019297D03*
X002819Y018297D03*
X002819Y017297D03*
X002819Y016297D03*
X002819Y015297D03*
X002819Y014297D03*
X002819Y013297D03*
X002819Y012297D03*
X002819Y011297D03*
X002819Y010297D03*
X002819Y009297D03*
X002819Y008297D03*
X002819Y007297D03*
X002819Y006297D03*
X002819Y005297D03*
X002819Y004297D03*
X001819Y004297D03*
X001819Y005297D03*
X001819Y006297D03*
X001819Y007297D03*
X001819Y008297D03*
X001819Y009297D03*
X001819Y010297D03*
X001819Y011297D03*
X001819Y012297D03*
X001819Y013297D03*
X001819Y014297D03*
X001819Y015297D03*
X001819Y016297D03*
X001819Y017297D03*
X001819Y018297D03*
X001819Y019297D03*
X001819Y020297D03*
X001819Y021297D03*
X001819Y022297D03*
X001819Y023297D03*
D13*
X000599Y023293D03*
X000599Y022293D03*
X000599Y021293D03*
X000599Y020293D03*
X000599Y019293D03*
X000599Y018293D03*
X000599Y017293D03*
X000599Y016293D03*
X000599Y015293D03*
X000599Y014293D03*
X000599Y013293D03*
X000599Y012293D03*
X000599Y011293D03*
X000599Y010293D03*
X000599Y009293D03*
X000599Y008293D03*
X000599Y007293D03*
X000599Y006293D03*
X000599Y005293D03*
X000599Y004293D03*
X003961Y004293D03*
X003961Y005293D03*
X003961Y006293D03*
X003961Y007293D03*
X003961Y008293D03*
X003961Y009293D03*
X003961Y010293D03*
X003961Y011293D03*
X003961Y012293D03*
X003961Y013293D03*
X003961Y014293D03*
X003961Y015293D03*
X003961Y016293D03*
X003961Y017293D03*
X003961Y018293D03*
X003961Y019293D03*
X003961Y020293D03*
X003961Y021293D03*
X003961Y022293D03*
X003961Y023293D03*
M02*
