G75*
%MOIN*%
%OFA0B0*%
%FSLAX25Y25*%
%IPPOS*%
%LPD*%
%AMOC8*
5,1,8,0,0,1.08239X$1,22.5*
%
%ADD10OC8,0.06800*%
%ADD11C,0.06800*%
%ADD12C,0.11627*%
%ADD13R,0.04816X0.08162*%
%ADD14C,0.07099*%
%ADD15C,0.07400*%
D10*
X0248500Y0176500D03*
X0248500Y0186500D03*
D11*
X0235500Y0183500D02*
X0235500Y0189500D01*
X0225500Y0189500D02*
X0225500Y0183500D01*
X0215500Y0183500D02*
X0215500Y0189500D01*
X0205500Y0189500D02*
X0205500Y0183500D01*
X0195500Y0183500D02*
X0195500Y0189500D01*
X0185500Y0189500D02*
X0185500Y0183500D01*
X0175500Y0183500D02*
X0175500Y0189500D01*
X0165500Y0189500D02*
X0165500Y0183500D01*
X0165500Y0174000D02*
X0165500Y0168000D01*
X0175500Y0168000D02*
X0175500Y0174000D01*
X0185500Y0174000D02*
X0185500Y0168000D01*
X0195500Y0168000D02*
X0195500Y0174000D01*
X0153500Y0174000D02*
X0153500Y0168000D01*
X0143500Y0168000D02*
X0143500Y0174000D01*
X0143500Y0183500D02*
X0143500Y0189500D01*
X0133500Y0189500D02*
X0133500Y0183500D01*
X0133500Y0174000D02*
X0133500Y0168000D01*
X0123500Y0168000D02*
X0123500Y0174000D01*
X0123500Y0183500D02*
X0123500Y0189500D01*
X0113500Y0189500D02*
X0113500Y0183500D01*
X0103500Y0183500D02*
X0103500Y0189500D01*
X0093500Y0189500D02*
X0093500Y0183500D01*
X0083500Y0183500D02*
X0083500Y0189500D01*
X0073500Y0189500D02*
X0073500Y0183500D01*
X0061500Y0183500D02*
X0061500Y0189500D01*
X0051500Y0189500D02*
X0051500Y0183500D01*
X0039500Y0183500D02*
X0039500Y0189500D01*
X0029500Y0189500D02*
X0029500Y0183500D01*
X0019500Y0183500D02*
X0019500Y0189500D01*
X0009500Y0189500D02*
X0009500Y0183500D01*
X0153500Y0183500D02*
X0153500Y0189500D01*
D12*
X0014780Y0016280D03*
X0014780Y0209193D03*
X0243126Y0209193D03*
X0243126Y0016280D03*
D13*
X0224000Y0198000D03*
X0214000Y0198000D03*
X0204000Y0198000D03*
X0194000Y0198000D03*
X0184000Y0198000D03*
X0174000Y0198000D03*
X0164000Y0198000D03*
X0154000Y0198000D03*
X0144000Y0198000D03*
X0134000Y0198000D03*
X0124000Y0198000D03*
X0114000Y0198000D03*
X0104000Y0198000D03*
X0094000Y0198000D03*
X0084000Y0198000D03*
X0074000Y0198000D03*
X0064000Y0198000D03*
X0054000Y0198000D03*
X0044000Y0198000D03*
X0034000Y0198000D03*
X0034000Y0220559D03*
X0044000Y0220559D03*
X0054000Y0220559D03*
X0064000Y0220559D03*
X0074000Y0220559D03*
X0084000Y0220559D03*
X0094000Y0220559D03*
X0104000Y0220559D03*
X0114000Y0220559D03*
X0124000Y0220559D03*
X0134000Y0220559D03*
X0144000Y0220559D03*
X0154000Y0220559D03*
X0164000Y0220559D03*
X0174000Y0220559D03*
X0184000Y0220559D03*
X0194000Y0220559D03*
X0204000Y0220559D03*
X0214000Y0220559D03*
X0224000Y0220559D03*
D14*
X0219000Y0209280D03*
X0039000Y0209280D03*
D15*
X0039500Y0157000D03*
X0039500Y0147000D03*
X0049500Y0147000D03*
X0049500Y0157000D03*
X0059500Y0157000D03*
X0069500Y0157000D03*
X0069500Y0147000D03*
X0059500Y0147000D03*
X0059500Y0137000D03*
X0069500Y0137000D03*
X0069500Y0127000D03*
X0059500Y0127000D03*
X0049500Y0127000D03*
X0049500Y0137000D03*
X0039500Y0137000D03*
X0039500Y0127000D03*
X0029500Y0127000D03*
X0029500Y0137000D03*
X0029500Y0117000D03*
X0029500Y0107000D03*
X0039500Y0107000D03*
X0039500Y0117000D03*
X0049500Y0117000D03*
X0049500Y0107000D03*
X0059500Y0107000D03*
X0069500Y0107000D03*
X0069500Y0117000D03*
X0059500Y0117000D03*
X0079500Y0117000D03*
X0079500Y0107000D03*
X0089500Y0107000D03*
X0089500Y0117000D03*
X0099500Y0117000D03*
X0099500Y0107000D03*
X0109500Y0107000D03*
X0109500Y0117000D03*
X0119500Y0117000D03*
X0119500Y0107000D03*
X0129500Y0107000D03*
X0129500Y0117000D03*
X0139500Y0117000D03*
X0149500Y0117000D03*
X0149500Y0107000D03*
X0149500Y0107000D03*
X0139500Y0107000D03*
X0139500Y0097000D03*
X0149500Y0097000D03*
X0159500Y0097000D03*
X0169500Y0097000D03*
X0179500Y0097000D03*
X0189500Y0097000D03*
X0199500Y0097000D03*
X0209500Y0097000D03*
X0219500Y0097000D03*
X0229500Y0097000D03*
X0239500Y0097000D03*
X0249500Y0097000D03*
X0249500Y0107000D03*
X0249500Y0117000D03*
X0239500Y0117000D03*
X0239500Y0107000D03*
X0229500Y0107000D03*
X0219500Y0107000D03*
X0219500Y0117000D03*
X0229500Y0117000D03*
X0229500Y0127000D03*
X0219500Y0127000D03*
X0219500Y0137000D03*
X0229500Y0137000D03*
X0239500Y0137000D03*
X0239500Y0127000D03*
X0249500Y0127000D03*
X0249500Y0137000D03*
X0249500Y0147000D03*
X0249500Y0157000D03*
X0239500Y0157000D03*
X0239500Y0147000D03*
X0239500Y0147000D03*
X0229500Y0147000D03*
X0219500Y0147000D03*
X0219500Y0157000D03*
X0229500Y0157000D03*
X0209500Y0157000D03*
X0209500Y0147000D03*
X0199500Y0147000D03*
X0199500Y0157000D03*
X0189500Y0157000D03*
X0189500Y0147000D03*
X0179500Y0147000D03*
X0179500Y0157000D03*
X0169500Y0157000D03*
X0169500Y0147000D03*
X0159500Y0147000D03*
X0159500Y0157000D03*
X0149500Y0157000D03*
X0139500Y0157000D03*
X0139500Y0147000D03*
X0149500Y0147000D03*
X0149500Y0137000D03*
X0139500Y0137000D03*
X0139500Y0127000D03*
X0149500Y0127000D03*
X0159500Y0127000D03*
X0159500Y0137000D03*
X0169500Y0137000D03*
X0169500Y0127000D03*
X0179500Y0127000D03*
X0179500Y0137000D03*
X0189500Y0137000D03*
X0189500Y0127000D03*
X0199500Y0127000D03*
X0199500Y0137000D03*
X0209500Y0137000D03*
X0209500Y0127000D03*
X0209500Y0117000D03*
X0209500Y0107000D03*
X0199500Y0107000D03*
X0199500Y0117000D03*
X0189500Y0117000D03*
X0189500Y0107000D03*
X0179500Y0107000D03*
X0179500Y0117000D03*
X0169500Y0117000D03*
X0169500Y0107000D03*
X0159500Y0107000D03*
X0159500Y0117000D03*
X0129500Y0127000D03*
X0129500Y0137000D03*
X0119500Y0137000D03*
X0119500Y0127000D03*
X0109500Y0127000D03*
X0109500Y0137000D03*
X0099500Y0137000D03*
X0099500Y0127000D03*
X0089500Y0127000D03*
X0089500Y0137000D03*
X0079500Y0137000D03*
X0079500Y0127000D03*
X0079500Y0147000D03*
X0079500Y0157000D03*
X0089500Y0157000D03*
X0089500Y0147000D03*
X0099500Y0147000D03*
X0099500Y0157000D03*
X0109500Y0157000D03*
X0109500Y0147000D03*
X0119500Y0147000D03*
X0119500Y0157000D03*
X0129500Y0157000D03*
X0129500Y0147000D03*
X0129500Y0097000D03*
X0119500Y0097000D03*
X0109500Y0097000D03*
X0099500Y0097000D03*
X0089500Y0097000D03*
X0079500Y0097000D03*
X0069500Y0097000D03*
X0059500Y0097000D03*
X0049500Y0097000D03*
X0039500Y0097000D03*
X0029500Y0097000D03*
X0029500Y0077000D03*
X0039500Y0077000D03*
X0049500Y0077000D03*
X0059500Y0077000D03*
X0069500Y0077000D03*
X0079500Y0077000D03*
X0089500Y0077000D03*
X0099500Y0077000D03*
X0109500Y0077000D03*
X0119500Y0077000D03*
X0129500Y0077000D03*
X0139500Y0077000D03*
X0149500Y0077000D03*
X0159500Y0077000D03*
X0169500Y0077000D03*
X0169500Y0067000D03*
X0169500Y0057000D03*
X0159500Y0057000D03*
X0159500Y0067000D03*
X0149500Y0067000D03*
X0139500Y0067000D03*
X0139500Y0057000D03*
X0149500Y0057000D03*
X0149500Y0047000D03*
X0139500Y0047000D03*
X0139500Y0037000D03*
X0149500Y0037000D03*
X0159500Y0037000D03*
X0159500Y0047000D03*
X0169500Y0047000D03*
X0169500Y0037000D03*
X0189500Y0037000D03*
X0189500Y0047000D03*
X0199500Y0047000D03*
X0199500Y0037000D03*
X0209500Y0037000D03*
X0209500Y0047000D03*
X0219500Y0047000D03*
X0229500Y0047000D03*
X0229500Y0037000D03*
X0219500Y0037000D03*
X0239500Y0037000D03*
X0239500Y0047000D03*
X0249500Y0047000D03*
X0249500Y0037000D03*
X0249500Y0057000D03*
X0249500Y0067000D03*
X0239500Y0067000D03*
X0239500Y0057000D03*
X0229500Y0057000D03*
X0219500Y0057000D03*
X0219500Y0067000D03*
X0229500Y0067000D03*
X0229500Y0077000D03*
X0219500Y0077000D03*
X0209500Y0077000D03*
X0199500Y0077000D03*
X0189500Y0077000D03*
X0189500Y0067000D03*
X0189500Y0057000D03*
X0199500Y0057000D03*
X0199500Y0067000D03*
X0209500Y0067000D03*
X0209500Y0057000D03*
X0239500Y0077000D03*
X0249500Y0077000D03*
X0219500Y0018000D03*
X0209500Y0018000D03*
X0199500Y0018000D03*
X0199500Y0007000D03*
X0209500Y0007000D03*
X0219500Y0007000D03*
X0169500Y0007000D03*
X0159500Y0007000D03*
X0149500Y0007000D03*
X0139500Y0007000D03*
X0129500Y0007000D03*
X0119500Y0007000D03*
X0109500Y0007000D03*
X0099500Y0007000D03*
X0089500Y0007000D03*
X0079500Y0007000D03*
X0069500Y0007000D03*
X0059500Y0007000D03*
X0049500Y0007000D03*
X0039500Y0007000D03*
X0039500Y0018000D03*
X0049500Y0018000D03*
X0059500Y0018000D03*
X0069500Y0018000D03*
X0079500Y0018000D03*
X0089500Y0018000D03*
X0099500Y0018000D03*
X0109500Y0018000D03*
X0119500Y0018000D03*
X0129500Y0018000D03*
X0139500Y0018000D03*
X0149500Y0018000D03*
X0159500Y0018000D03*
X0169500Y0018000D03*
X0129500Y0037000D03*
X0129500Y0047000D03*
X0119500Y0047000D03*
X0119500Y0037000D03*
X0109500Y0037000D03*
X0109500Y0047000D03*
X0099500Y0047000D03*
X0099500Y0037000D03*
X0089500Y0037000D03*
X0089500Y0047000D03*
X0079500Y0047000D03*
X0079500Y0037000D03*
X0069500Y0037000D03*
X0059500Y0037000D03*
X0059500Y0047000D03*
X0069500Y0047000D03*
X0069500Y0057000D03*
X0059500Y0057000D03*
X0059500Y0067000D03*
X0069500Y0067000D03*
X0079500Y0067000D03*
X0079500Y0057000D03*
X0089500Y0057000D03*
X0089500Y0067000D03*
X0099500Y0067000D03*
X0099500Y0057000D03*
X0109500Y0057000D03*
X0109500Y0067000D03*
X0119500Y0067000D03*
X0119500Y0057000D03*
X0129500Y0057000D03*
X0129500Y0067000D03*
X0049500Y0067000D03*
X0049500Y0057000D03*
X0039500Y0057000D03*
X0039500Y0067000D03*
X0029500Y0067000D03*
X0029500Y0057000D03*
X0029500Y0047000D03*
X0029500Y0037000D03*
X0039500Y0037000D03*
X0039500Y0047000D03*
X0049500Y0047000D03*
X0049500Y0037000D03*
M02*
