%
M48
M72
T01C0.02362
T02C0.03000
T03C0.04000
T04C0.06299
T05C0.10827
%
T01
X116500Y163500
X131500Y162800
X149000Y204500
X152500Y212000
X147500Y214000
X163500Y210000
X168500Y215000
X224500Y207000
X63500Y210000
X53500Y214000
X46500Y213000
T02
X149500Y107000
X239500Y147000
T03
X239500Y147000
X239500Y157000
X229500Y157000
X219500Y157000
X219500Y147000
X229500Y147000
X229500Y137000
X219500Y137000
X219500Y127000
X229500Y127000
X239500Y127000
X239500Y137000
X249500Y137000
X249500Y127000
X249500Y117000
X249500Y107000
X239500Y107000
X239500Y117000
X229500Y117000
X219500Y117000
X219500Y107000
X229500Y107000
X229500Y97000
X219500Y97000
X209500Y97000
X199500Y97000
X189500Y97000
X179500Y97000
X169500Y97000
X159500Y97000
X149500Y97000
X139500Y97000
X129500Y97000
X119500Y97000
X109500Y97000
X99500Y97000
X89500Y97000
X79500Y97000
X69500Y97000
X59500Y97000
X49500Y97000
X39500Y97000
X29500Y97000
X29500Y107000
X29500Y117000
X39500Y117000
X39500Y107000
X49500Y107000
X49500Y117000
X59500Y117000
X69500Y117000
X69500Y107000
X59500Y107000
X79500Y107000
X79500Y117000
X89500Y117000
X89500Y107000
X99500Y107000
X99500Y117000
X109500Y117000
X109500Y107000
X119500Y107000
X119500Y117000
X129500Y117000
X129500Y107000
X139500Y107000
X149500Y107000
X149500Y117000
X139500Y117000
X139500Y127000
X149500Y127000
X149500Y137000
X139500Y137000
X129500Y137000
X129500Y127000
X119500Y127000
X119500Y137000
X109500Y137000
X109500Y127000
X99500Y127000
X99500Y137000
X89500Y137000
X89500Y127000
X79500Y127000
X79500Y137000
X69500Y137000
X59500Y137000
X59500Y127000
X69500Y127000
X49500Y127000
X49500Y137000
X39500Y137000
X39500Y127000
X29500Y127000
X29500Y137000
X39500Y147000
X39500Y157000
X49500Y157000
X49500Y147000
X59500Y147000
X69500Y147000
X69500Y157000
X59500Y157000
X79500Y157000
X79500Y147000
X89500Y147000
X89500Y157000
X99500Y157000
X99500Y147000
X109500Y147000
X109500Y157000
X119500Y157000
X119500Y147000
X129500Y147000
X129500Y157000
X139500Y157000
X149500Y157000
X149500Y147000
X139500Y147000
X159500Y147000
X159500Y157000
X169500Y157000
X169500Y147000
X179500Y147000
X179500Y157000
X189500Y157000
X189500Y147000
X199500Y147000
X199500Y157000
X209500Y157000
X209500Y147000
X209500Y137000
X209500Y127000
X199500Y127000
X199500Y137000
X189500Y137000
X189500Y127000
X179500Y127000
X179500Y137000
X169500Y137000
X169500Y127000
X159500Y127000
X159500Y137000
X159500Y117000
X159500Y107000
X169500Y107000
X169500Y117000
X179500Y117000
X179500Y107000
X189500Y107000
X189500Y117000
X199500Y117000
X199500Y107000
X209500Y107000
X209500Y117000
X239500Y97000
X249500Y97000
X249500Y77000
X239500Y77000
X229500Y77000
X219500Y77000
X209500Y77000
X199500Y77000
X189500Y77000
X189500Y67000
X189500Y57000
X199500Y57000
X199500Y67000
X209500Y67000
X209500Y57000
X219500Y57000
X229500Y57000
X229500Y67000
X219500Y67000
X239500Y67000
X239500Y57000
X249500Y57000
X249500Y67000
X249500Y47000
X249500Y37000
X239500Y37000
X239500Y47000
X229500Y47000
X219500Y47000
X219500Y37000
X229500Y37000
X209500Y37000
X209500Y47000
X199500Y47000
X199500Y37000
X189500Y37000
X189500Y47000
X169500Y47000
X169500Y37000
X159500Y37000
X159500Y47000
X149500Y47000
X139500Y47000
X139500Y37000
X149500Y37000
X129500Y37000
X129500Y47000
X119500Y47000
X119500Y37000
X109500Y37000
X109500Y47000
X99500Y47000
X99500Y37000
X89500Y37000
X89500Y47000
X79500Y47000
X79500Y37000
X69500Y37000
X59500Y37000
X59500Y47000
X69500Y47000
X69500Y57000
X59500Y57000
X59500Y67000
X69500Y67000
X79500Y67000
X79500Y57000
X89500Y57000
X89500Y67000
X99500Y67000
X99500Y57000
X109500Y57000
X109500Y67000
X119500Y67000
X119500Y57000
X129500Y57000
X129500Y67000
X139500Y67000
X149500Y67000
X149500Y57000
X139500Y57000
X159500Y57000
X159500Y67000
X169500Y67000
X169500Y57000
X169500Y77000
X159500Y77000
X149500Y77000
X139500Y77000
X129500Y77000
X119500Y77000
X109500Y77000
X99500Y77000
X89500Y77000
X79500Y77000
X69500Y77000
X59500Y77000
X49500Y77000
X39500Y77000
X29500Y77000
X29500Y67000
X29500Y57000
X39500Y57000
X39500Y67000
X49500Y67000
X49500Y57000
X49500Y47000
X49500Y37000
X39500Y37000
X39500Y47000
X29500Y47000
X29500Y37000
X39500Y18000
X49500Y18000
X59500Y18000
X69500Y18000
X79500Y18000
X89500Y18000
X99500Y18000
X109500Y18000
X119500Y18000
X129500Y18000
X139500Y18000
X149500Y18000
X159500Y18000
X169500Y18000
X169500Y7000
X159500Y7000
X149500Y7000
X139500Y7000
X129500Y7000
X119500Y7000
X109500Y7000
X99500Y7000
X89500Y7000
X79500Y7000
X69500Y7000
X59500Y7000
X49500Y7000
X39500Y7000
X199500Y7000
X209500Y7000
X219500Y7000
X219500Y18000
X209500Y18000
X199500Y18000
X249500Y147000
X249500Y157000
X248500Y176500
X248500Y186500
X235500Y186500
X225500Y186500
X215500Y186500
X205500Y186500
X195500Y186500
X185500Y186500
X175500Y186500
X165500Y186500
X153500Y186500
X143500Y186500
X133500Y186500
X123500Y186500
X113500Y186500
X103500Y186500
X93500Y186500
X83500Y186500
X73500Y186500
X61500Y186500
X51500Y186500
X39500Y186500
X29500Y186500
X19500Y186500
X9500Y186500
X123500Y171000
X133500Y171000
X143500Y171000
X153500Y171000
X165500Y171000
X175500Y171000
X185500Y171000
X195500Y171000
T04
X219000Y209280
X39000Y209280
T05
X14780Y16280
X14780Y209193
X243126Y209193
X243126Y16280
M30
