G75*
%MOIN*%
%OFA0B0*%
%FSLAX25Y25*%
%IPPOS*%
%LPD*%
%AMOC8*
5,1,8,0,0,1.08239X$1,22.5*
%
%ADD10C,0.01200*%
%ADD11C,0.00300*%
%ADD12C,0.00200*%
%ADD13C,0.00400*%
%ADD14C,0.01600*%
%ADD15R,0.01400X0.00070*%
%ADD16R,0.02450X0.00070*%
%ADD17R,0.03290X0.00070*%
%ADD18R,0.03850X0.00070*%
%ADD19R,0.04410X0.00070*%
%ADD20R,0.04830X0.00070*%
%ADD21R,0.05250X0.00070*%
%ADD22R,0.05600X0.00070*%
%ADD23R,0.05950X0.00070*%
%ADD24R,0.06300X0.00070*%
%ADD25R,0.06650X0.00070*%
%ADD26R,0.06930X0.00070*%
%ADD27R,0.07210X0.00070*%
%ADD28R,0.07490X0.00070*%
%ADD29R,0.07700X0.00070*%
%ADD30R,0.07980X0.00070*%
%ADD31R,0.08190X0.00070*%
%ADD32R,0.08400X0.00070*%
%ADD33R,0.08610X0.00070*%
%ADD34R,0.08890X0.00070*%
%ADD35R,0.09030X0.00070*%
%ADD36R,0.09240X0.00070*%
%ADD37R,0.09450X0.00070*%
%ADD38R,0.09590X0.00070*%
%ADD39R,0.09800X0.00070*%
%ADD40R,0.10010X0.00070*%
%ADD41R,0.10150X0.00070*%
%ADD42R,0.10290X0.00070*%
%ADD43R,0.10430X0.00070*%
%ADD44R,0.10500X0.00070*%
%ADD45R,0.10500X0.00070*%
%ADD46R,0.05040X0.00070*%
%ADD47R,0.04620X0.00070*%
%ADD48R,0.04550X0.00070*%
%ADD49R,0.03990X0.00070*%
%ADD50R,0.04270X0.00070*%
%ADD51R,0.03640X0.00070*%
%ADD52R,0.04060X0.00070*%
%ADD53R,0.03290X0.00070*%
%ADD54R,0.03920X0.00070*%
%ADD55R,0.02940X0.00070*%
%ADD56R,0.03780X0.00070*%
%ADD57R,0.02660X0.00070*%
%ADD58R,0.02450X0.00070*%
%ADD59R,0.03570X0.00070*%
%ADD60R,0.02240X0.00070*%
%ADD61R,0.03500X0.00070*%
%ADD62R,0.02030X0.00070*%
%ADD63R,0.03430X0.00070*%
%ADD64R,0.01820X0.00070*%
%ADD65R,0.00070X0.00070*%
%ADD66R,0.03360X0.00070*%
%ADD67R,0.01610X0.00070*%
%ADD68R,0.00210X0.00070*%
%ADD69R,0.00350X0.00070*%
%ADD70R,0.03220X0.00070*%
%ADD71R,0.01190X0.00070*%
%ADD72R,0.00420X0.00070*%
%ADD73R,0.03150X0.00070*%
%ADD74R,0.01050X0.00070*%
%ADD75R,0.00560X0.00070*%
%ADD76R,0.03150X0.00070*%
%ADD77R,0.00840X0.00070*%
%ADD78R,0.00700X0.00070*%
%ADD79R,0.03010X0.00070*%
%ADD80R,0.00700X0.00070*%
%ADD81R,0.00840X0.00070*%
%ADD82R,0.03010X0.00070*%
%ADD83R,0.00560X0.00070*%
%ADD84R,0.00980X0.00070*%
%ADD85R,0.01050X0.00070*%
%ADD86R,0.02940X0.00070*%
%ADD87R,0.01190X0.00070*%
%ADD88R,0.02870X0.00070*%
%ADD89R,0.01330X0.00070*%
%ADD90R,0.02870X0.00070*%
%ADD91R,0.01400X0.00070*%
%ADD92R,0.02800X0.00070*%
%ADD93R,0.01540X0.00070*%
%ADD94R,0.01610X0.00070*%
%ADD95R,0.02800X0.00070*%
%ADD96R,0.01750X0.00070*%
%ADD97R,0.02730X0.00070*%
%ADD98R,0.01890X0.00070*%
%ADD99R,0.02730X0.00070*%
%ADD100R,0.01960X0.00070*%
%ADD101R,0.02100X0.00070*%
%ADD102R,0.02660X0.00070*%
%ADD103R,0.02170X0.00070*%
%ADD104R,0.02310X0.00070*%
%ADD105R,0.02590X0.00070*%
%ADD106R,0.02380X0.00070*%
%ADD107R,0.02590X0.00070*%
%ADD108R,0.02100X0.00070*%
%ADD109R,0.02520X0.00070*%
%ADD110R,0.02590X0.00070*%
%ADD111R,0.02520X0.00070*%
%ADD112R,0.02520X0.00070*%
%ADD113R,0.02590X0.00070*%
%ADD114R,0.00350X0.00070*%
%ADD115R,0.02520X0.00070*%
%ADD116R,0.01750X0.00070*%
%ADD117R,0.01680X0.00070*%
%ADD118R,0.01960X0.00070*%
%ADD119R,0.02240X0.00070*%
%ADD120R,0.02380X0.00070*%
%ADD121R,0.02310X0.00070*%
%ADD122R,0.03640X0.00070*%
%ADD123R,0.03710X0.00070*%
%ADD124R,0.04060X0.00070*%
%ADD125R,0.04270X0.00070*%
%ADD126R,0.04410X0.00070*%
%ADD127R,0.04690X0.00070*%
%ADD128R,0.04130X0.00070*%
%ADD129R,0.04550X0.00070*%
%ADD130R,0.04760X0.00070*%
%ADD131R,0.04130X0.00070*%
%ADD132R,0.04760X0.00070*%
%ADD133R,0.04970X0.00070*%
%ADD134R,0.04830X0.00070*%
%ADD135R,0.05110X0.00070*%
%ADD136R,0.02870X0.00070*%
%ADD137R,0.05320X0.00070*%
%ADD138R,0.04900X0.00070*%
%ADD139R,0.05460X0.00070*%
%ADD140R,0.02240X0.00070*%
%ADD141R,0.05530X0.00070*%
%ADD142R,0.04900X0.00070*%
%ADD143R,0.01540X0.00070*%
%ADD144R,0.00770X0.00070*%
%ADD145R,0.00630X0.00070*%
%ADD146R,0.00420X0.00070*%
%ADD147R,0.01820X0.00070*%
%ADD148R,0.00140X0.00070*%
%ADD149R,0.02030X0.00070*%
%ADD150R,0.00280X0.00070*%
%ADD151R,0.01680X0.00070*%
%ADD152R,0.00140X0.00070*%
%ADD153R,0.01820X0.00070*%
%ADD154R,0.01470X0.00070*%
%ADD155R,0.02240X0.00070*%
%ADD156R,0.04200X0.00070*%
%ADD157R,0.02170X0.00070*%
%ADD158R,0.01890X0.00070*%
%ADD159R,0.04480X0.00070*%
%ADD160R,0.04620X0.00070*%
%ADD161R,0.00910X0.00070*%
%ADD162R,0.02170X0.00070*%
%ADD163R,0.01820X0.00070*%
%ADD164R,0.04970X0.00070*%
%ADD165R,0.03920X0.00070*%
%ADD166R,0.03080X0.00070*%
%ADD167R,0.05180X0.00070*%
%ADD168R,0.00210X0.00070*%
%ADD169R,0.05250X0.00070*%
%ADD170R,0.03360X0.00070*%
%ADD171R,0.05390X0.00070*%
%ADD172R,0.04480X0.00070*%
%ADD173R,0.02170X0.00070*%
%ADD174R,0.04620X0.00070*%
%ADD175R,0.04690X0.00070*%
%ADD176R,0.03430X0.00070*%
%ADD177R,0.01890X0.00070*%
%ADD178R,0.05670X0.00070*%
%ADD179R,0.05740X0.00070*%
%ADD180R,0.01890X0.00070*%
%ADD181R,0.05810X0.00070*%
%ADD182R,0.04970X0.00070*%
%ADD183R,0.05810X0.00070*%
%ADD184R,0.05040X0.00070*%
%ADD185R,0.05880X0.00070*%
%ADD186R,0.05040X0.00070*%
%ADD187R,0.02870X0.00070*%
%ADD188R,0.05950X0.00070*%
%ADD189R,0.05180X0.00070*%
%ADD190R,0.06020X0.00070*%
%ADD191R,0.06020X0.00070*%
%ADD192R,0.00490X0.00070*%
%ADD193R,0.03500X0.00070*%
%ADD194R,0.00770X0.00070*%
%ADD195R,0.03710X0.00070*%
%ADD196R,0.01540X0.00070*%
%ADD197R,0.01470X0.00070*%
%ADD198R,0.00070X0.00070*%
%ADD199R,0.01470X0.00070*%
%ADD200R,0.03640X0.00070*%
%ADD201R,0.01330X0.00070*%
%ADD202R,0.01260X0.00070*%
%ADD203R,0.00910X0.00070*%
%ADD204R,0.01190X0.00070*%
%ADD205R,0.01120X0.00070*%
%ADD206R,0.01190X0.00070*%
%ADD207R,0.00980X0.00070*%
%ADD208R,0.00770X0.00070*%
%ADD209R,0.01120X0.00070*%
%ADD210R,0.05390X0.00070*%
%ADD211R,0.06090X0.00070*%
%ADD212R,0.00490X0.00070*%
%ADD213R,0.06090X0.00070*%
%ADD214R,0.00280X0.00070*%
%ADD215R,0.05880X0.00070*%
%ADD216R,0.04340X0.00070*%
%ADD217R,0.05740X0.00070*%
%ADD218R,0.05670X0.00070*%
%ADD219R,0.03920X0.00070*%
%ADD220R,0.05530X0.00070*%
%ADD221R,0.05460X0.00070*%
%ADD222R,0.03220X0.00070*%
%ADD223R,0.03220X0.00070*%
%ADD224R,0.05040X0.00070*%
%ADD225R,0.04340X0.00070*%
%ADD226R,0.03990X0.00070*%
%ADD227R,0.03290X0.00070*%
%ADD228R,0.00070X0.00070*%
%ADD229R,0.00840X0.00070*%
%ADD230R,0.00840X0.00070*%
%ADD231R,0.03220X0.00070*%
%ADD232R,0.00420X0.00070*%
%ADD233R,0.03570X0.00070*%
%ADD234R,0.03780X0.00070*%
%ADD235R,0.03920X0.00070*%
%ADD236R,0.04270X0.00070*%
%ADD237R,0.10430X0.00070*%
%ADD238R,0.10150X0.00070*%
%ADD239R,0.10010X0.00070*%
%ADD240R,0.09800X0.00070*%
%ADD241R,0.09590X0.00070*%
%ADD242R,0.09240X0.00070*%
%ADD243R,0.09030X0.00070*%
%ADD244R,0.08890X0.00070*%
%ADD245R,0.08610X0.00070*%
%ADD246R,0.08190X0.00070*%
%ADD247R,0.07980X0.00070*%
%ADD248R,0.07700X0.00070*%
%ADD249R,0.07490X0.00070*%
%ADD250R,0.06930X0.00070*%
%ADD251R,0.06650X0.00070*%
%ADD252R,0.06300X0.00070*%
%ADD253R,0.03850X0.00070*%
%ADD254R,0.00510X0.00030*%
%ADD255R,0.01110X0.00030*%
%ADD256R,0.01470X0.00030*%
%ADD257R,0.01770X0.00030*%
%ADD258R,0.02010X0.00030*%
%ADD259R,0.02220X0.00030*%
%ADD260R,0.02430X0.00030*%
%ADD261R,0.02610X0.00030*%
%ADD262R,0.02760X0.00030*%
%ADD263R,0.02940X0.00030*%
%ADD264R,0.03060X0.00030*%
%ADD265R,0.03210X0.00030*%
%ADD266R,0.03330X0.00030*%
%ADD267R,0.03480X0.00030*%
%ADD268R,0.03600X0.00030*%
%ADD269R,0.03720X0.00030*%
%ADD270R,0.03810X0.00030*%
%ADD271R,0.03930X0.00030*%
%ADD272R,0.04020X0.00030*%
%ADD273R,0.04140X0.00030*%
%ADD274R,0.04230X0.00030*%
%ADD275R,0.04320X0.00030*%
%ADD276R,0.04410X0.00030*%
%ADD277R,0.04500X0.00030*%
%ADD278R,0.04590X0.00030*%
%ADD279R,0.04680X0.00030*%
%ADD280R,0.04740X0.00030*%
%ADD281R,0.04830X0.00030*%
%ADD282R,0.04920X0.00030*%
%ADD283R,0.04980X0.00030*%
%ADD284R,0.05040X0.00030*%
%ADD285R,0.05130X0.00030*%
%ADD286R,0.05190X0.00030*%
%ADD287R,0.05250X0.00030*%
%ADD288R,0.05340X0.00030*%
%ADD289R,0.05400X0.00030*%
%ADD290R,0.05460X0.00030*%
%ADD291R,0.05520X0.00030*%
%ADD292R,0.05580X0.00030*%
%ADD293R,0.02460X0.00030*%
%ADD294R,0.02310X0.00030*%
%ADD295R,0.02280X0.00030*%
%ADD296R,0.02190X0.00030*%
%ADD297R,0.02190X0.00030*%
%ADD298R,0.02130X0.00030*%
%ADD299R,0.02100X0.00030*%
%ADD300R,0.02040X0.00030*%
%ADD301R,0.01980X0.00030*%
%ADD302R,0.01920X0.00030*%
%ADD303R,0.01950X0.00030*%
%ADD304R,0.01890X0.00030*%
%ADD305R,0.01830X0.00030*%
%ADD306R,0.01800X0.00030*%
%ADD307R,0.01770X0.00030*%
%ADD308R,0.01740X0.00030*%
%ADD309R,0.01710X0.00030*%
%ADD310R,0.01680X0.00030*%
%ADD311R,0.01650X0.00030*%
%ADD312R,0.01620X0.00030*%
%ADD313R,0.01590X0.00030*%
%ADD314R,0.01560X0.00030*%
%ADD315R,0.01530X0.00030*%
%ADD316R,0.01500X0.00030*%
%ADD317R,0.01620X0.00030*%
%ADD318R,0.02070X0.00030*%
%ADD319R,0.02220X0.00030*%
%ADD320R,0.02340X0.00030*%
%ADD321R,0.02370X0.00030*%
%ADD322R,0.02400X0.00030*%
%ADD323R,0.02490X0.00030*%
%ADD324R,0.02520X0.00030*%
%ADD325R,0.02550X0.00030*%
%ADD326R,0.02580X0.00030*%
%ADD327R,0.02640X0.00030*%
%ADD328R,0.02670X0.00030*%
%ADD329R,0.02700X0.00030*%
%ADD330R,0.02730X0.00030*%
%ADD331R,0.02790X0.00030*%
%ADD332R,0.02790X0.00030*%
%ADD333R,0.02850X0.00030*%
%ADD334R,0.02820X0.00030*%
%ADD335R,0.02910X0.00030*%
%ADD336R,0.02880X0.00030*%
%ADD337R,0.02970X0.00030*%
%ADD338R,0.02970X0.00030*%
%ADD339R,0.03000X0.00030*%
%ADD340R,0.03030X0.00030*%
%ADD341R,0.03090X0.00030*%
%ADD342R,0.01230X0.00030*%
%ADD343R,0.01200X0.00030*%
%ADD344R,0.01860X0.00030*%
%ADD345R,0.01170X0.00030*%
%ADD346R,0.01440X0.00030*%
%ADD347R,0.01470X0.00030*%
%ADD348R,0.01410X0.00030*%
%ADD349R,0.01170X0.00030*%
%ADD350R,0.01380X0.00030*%
%ADD351R,0.01350X0.00030*%
%ADD352R,0.01320X0.00030*%
%ADD353R,0.01320X0.00030*%
%ADD354R,0.01290X0.00030*%
%ADD355R,0.01260X0.00030*%
%ADD356R,0.01140X0.00030*%
%ADD357R,0.01140X0.00030*%
%ADD358R,0.01080X0.00030*%
%ADD359R,0.01050X0.00030*%
%ADD360R,0.01020X0.00030*%
%ADD361R,0.01020X0.00030*%
%ADD362R,0.00990X0.00030*%
%ADD363R,0.00990X0.00030*%
%ADD364R,0.00960X0.00030*%
%ADD365R,0.00930X0.00030*%
%ADD366R,0.02490X0.00030*%
%ADD367R,0.02670X0.00030*%
%ADD368R,0.02820X0.00030*%
%ADD369R,0.03120X0.00030*%
%ADD370R,0.03150X0.00030*%
%ADD371R,0.03270X0.00030*%
%ADD372R,0.03420X0.00030*%
%ADD373R,0.03390X0.00030*%
%ADD374R,0.03540X0.00030*%
%ADD375R,0.03510X0.00030*%
%ADD376R,0.03660X0.00030*%
%ADD377R,0.03630X0.00030*%
%ADD378R,0.03780X0.00030*%
%ADD379R,0.03750X0.00030*%
%ADD380R,0.03840X0.00030*%
%ADD381R,0.03870X0.00030*%
%ADD382R,0.00900X0.00030*%
%ADD383R,0.03960X0.00030*%
%ADD384R,0.04080X0.00030*%
%ADD385R,0.04170X0.00030*%
%ADD386R,0.04260X0.00030*%
%ADD387R,0.04380X0.00030*%
%ADD388R,0.04350X0.00030*%
%ADD389R,0.04440X0.00030*%
%ADD390R,0.04560X0.00030*%
%ADD391R,0.04530X0.00030*%
%ADD392R,0.04620X0.00030*%
%ADD393R,0.04620X0.00030*%
%ADD394R,0.04710X0.00030*%
%ADD395R,0.04800X0.00030*%
%ADD396R,0.04770X0.00030*%
%ADD397R,0.04860X0.00030*%
%ADD398R,0.04920X0.00030*%
%ADD399R,0.04950X0.00030*%
%ADD400R,0.05010X0.00030*%
%ADD401R,0.05100X0.00030*%
%ADD402R,0.05070X0.00030*%
%ADD403R,0.05160X0.00030*%
%ADD404R,0.05220X0.00030*%
%ADD405R,0.05220X0.00030*%
%ADD406R,0.05280X0.00030*%
%ADD407R,0.05370X0.00030*%
%ADD408R,0.05430X0.00030*%
%ADD409R,0.00870X0.00030*%
%ADD410R,0.05490X0.00030*%
%ADD411R,0.05550X0.00030*%
%ADD412R,0.02370X0.00030*%
%ADD413R,0.02250X0.00030*%
%ADD414R,0.02160X0.00030*%
%ADD415R,0.02070X0.00030*%
%ADD416R,0.01920X0.00030*%
%ADD417R,0.03390X0.00030*%
%ADD418R,0.03300X0.00030*%
%ADD419R,0.03180X0.00030*%
%ADD420R,0.02520X0.00030*%
%ADD421R,0.03090X0.00030*%
%ADD422R,0.02340X0.00030*%
%ADD423R,0.01590X0.00030*%
%ADD424R,0.03120X0.00030*%
%ADD425R,0.03420X0.00030*%
%ADD426R,0.03540X0.00030*%
%ADD427R,0.03900X0.00030*%
%ADD428R,0.03990X0.00030*%
%ADD429R,0.04110X0.00030*%
%ADD430R,0.03240X0.00030*%
%ADD431R,0.00870X0.00030*%
%ADD432R,0.04200X0.00030*%
%ADD433R,0.03360X0.00030*%
%ADD434R,0.04290X0.00030*%
%ADD435R,0.04470X0.00030*%
%ADD436R,0.04650X0.00030*%
%ADD437R,0.04740X0.00030*%
%ADD438R,0.04890X0.00030*%
%ADD439R,0.05040X0.00030*%
%ADD440R,0.06210X0.00030*%
%ADD441R,0.06180X0.00030*%
%ADD442R,0.06240X0.00030*%
%ADD443R,0.06270X0.00030*%
%ADD444R,0.06270X0.00030*%
%ADD445R,0.17760X0.00030*%
%ADD446R,0.03240X0.00030*%
%ADD447R,0.10050X0.00030*%
%ADD448R,0.09660X0.00030*%
%ADD449R,0.09360X0.00030*%
%ADD450R,0.09120X0.00030*%
%ADD451R,0.08940X0.00030*%
%ADD452R,0.08760X0.00030*%
%ADD453R,0.08610X0.00030*%
%ADD454R,0.08460X0.00030*%
%ADD455R,0.08340X0.00030*%
%ADD456R,0.03690X0.00030*%
%ADD457R,0.03690X0.00030*%
%ADD458R,0.03450X0.00030*%
%ADD459R,0.02640X0.00030*%
%ADD460R,0.00330X0.00030*%
%ADD461R,0.00300X0.00030*%
%ADD462R,0.00450X0.00030*%
%ADD463R,0.00480X0.00030*%
%ADD464R,0.00780X0.00030*%
%ADD465R,0.00570X0.00030*%
%ADD466R,0.00600X0.00030*%
%ADD467R,0.00660X0.00030*%
%ADD468R,0.00750X0.00030*%
%ADD469R,0.00720X0.00030*%
%ADD470R,0.00810X0.00030*%
%ADD471R,0.01290X0.00030*%
%ADD472R,0.00840X0.00030*%
%ADD473R,0.00690X0.00030*%
%ADD474R,0.00360X0.00030*%
%ADD475R,0.00270X0.00030*%
%ADD476R,0.00240X0.00030*%
%ADD477R,0.00570X0.00030*%
%ADD478R,0.00630X0.00030*%
%ADD479R,0.00690X0.00030*%
%ADD480R,0.03570X0.00030*%
%ADD481R,0.03720X0.00030*%
%ADD482R,0.03570X0.00030*%
%ADD483R,0.03270X0.00030*%
%ADD484R,0.03870X0.00030*%
%ADD485R,0.04020X0.00030*%
%ADD486R,0.04050X0.00030*%
%ADD487R,0.04470X0.00030*%
%ADD488R,0.04590X0.00030*%
%ADD489R,0.04170X0.00030*%
%ADD490R,0.01440X0.00030*%
%ADD491R,0.00060X0.00030*%
%ADD492R,0.01740X0.00030*%
%ADD493R,0.01890X0.00030*%
%ADD494R,0.05790X0.00030*%
%ADD495R,0.05790X0.00030*%
%ADD496R,0.05760X0.00030*%
%ADD497R,0.00240X0.00030*%
%ADD498R,0.02940X0.00030*%
%ADD499R,0.00540X0.00030*%
%ADD500R,0.00390X0.00030*%
%ADD501R,0.00390X0.00030*%
%ADD502R,0.00090X0.00030*%
%ADD503R,0.00090X0.00030*%
%ADD504R,0.00180X0.00030*%
%ADD505R,0.00210X0.00030*%
%ADD506R,0.00120X0.00030*%
%ADD507R,0.04440X0.00030*%
%ADD508R,0.00420X0.00030*%
%ADD509C,0.00800*%
%ADD510R,0.05984X0.01930*%
%ADD511C,0.00600*%
%ADD512R,0.05600X0.01400*%
%ADD513R,0.01969X0.05118*%
%ADD514R,0.01400X0.05600*%
%ADD515R,0.02000X0.02000*%
D10*
X0031500Y0024500D02*
X0171500Y0024500D01*
X0164500Y0032000D02*
X0164500Y0082000D01*
X0164500Y0092000D02*
X0164500Y0142000D01*
X0174500Y0142000D01*
X0174500Y0092000D01*
X0184500Y0092000D02*
X0184500Y0142000D01*
X0194500Y0142000D01*
X0194500Y0092000D01*
X0194500Y0082000D02*
X0194500Y0032000D01*
X0204500Y0032000D02*
X0204500Y0082000D01*
X0204500Y0092000D02*
X0204500Y0142000D01*
X0214500Y0142000D01*
X0214500Y0092000D01*
X0214500Y0082000D02*
X0214500Y0032000D01*
X0224500Y0032000D02*
X0224500Y0082000D01*
X0234500Y0082000D02*
X0234500Y0032000D01*
X0244500Y0032000D02*
X0244500Y0082000D01*
X0244500Y0092000D02*
X0244500Y0142000D01*
X0254500Y0142000D01*
X0254500Y0092000D01*
X0254500Y0082000D02*
X0254500Y0032000D01*
X0234500Y0092000D02*
X0234500Y0142000D01*
X0244500Y0142000D01*
X0234500Y0142000D02*
X0224500Y0142000D01*
X0224500Y0092000D01*
X0224500Y0142000D02*
X0214500Y0142000D01*
X0204500Y0142000D02*
X0194500Y0142000D01*
X0184500Y0142000D02*
X0174500Y0142000D01*
X0164500Y0142000D02*
X0154500Y0142000D01*
X0154500Y0092000D01*
X0144500Y0092000D02*
X0144500Y0142000D01*
X0154500Y0142000D01*
X0144500Y0142000D02*
X0134500Y0142000D01*
X0134500Y0092000D01*
X0134500Y0082000D02*
X0134500Y0032000D01*
X0124500Y0032000D02*
X0124500Y0082000D01*
X0124500Y0092000D02*
X0124500Y0142000D01*
X0134500Y0142000D01*
X0124500Y0142000D02*
X0114500Y0142000D01*
X0114500Y0092000D01*
X0114500Y0082000D02*
X0114500Y0032000D01*
X0104500Y0032000D02*
X0104500Y0082000D01*
X0104500Y0092000D02*
X0104500Y0142000D01*
X0114500Y0142000D01*
X0104500Y0142000D02*
X0094500Y0142000D01*
X0094500Y0092000D01*
X0094500Y0082000D02*
X0094500Y0032000D01*
X0084500Y0032000D02*
X0084500Y0082000D01*
X0084500Y0092000D02*
X0084500Y0142000D01*
X0094500Y0142000D01*
X0084500Y0142000D02*
X0074500Y0142000D01*
X0074500Y0092000D01*
X0064500Y0092000D02*
X0064500Y0142000D01*
X0074500Y0142000D01*
X0064500Y0142000D02*
X0054500Y0142000D01*
X0054500Y0092000D01*
X0054500Y0082000D02*
X0054500Y0032000D01*
X0044500Y0032000D02*
X0044500Y0082000D01*
X0044500Y0092000D02*
X0044500Y0142000D01*
X0054500Y0142000D01*
X0044500Y0142000D02*
X0034500Y0142000D01*
X0034500Y0092000D01*
X0034500Y0082000D02*
X0034500Y0032000D01*
X0024500Y0032000D02*
X0024500Y0082000D01*
X0024500Y0092000D02*
X0024500Y0142000D01*
X0034500Y0142000D01*
X0024500Y0142000D02*
X0024500Y0152000D01*
X0254500Y0152000D01*
X0254500Y0142000D01*
X0254500Y0152000D02*
X0254500Y0162000D01*
X0024500Y0162000D01*
X0024500Y0152000D01*
X0045500Y0169000D02*
X0045500Y0193000D01*
X0067500Y0193000D02*
X0067500Y0169000D01*
X0064500Y0082000D02*
X0064500Y0032000D01*
X0074500Y0032000D02*
X0074500Y0082000D01*
X0144500Y0082000D02*
X0144500Y0032000D01*
X0154500Y0032000D02*
X0154500Y0082000D01*
D11*
X0030158Y0003554D02*
X0028790Y0004922D01*
X0028790Y0005607D01*
X0029474Y0006291D01*
X0030158Y0006291D01*
X0030842Y0005607D02*
X0030158Y0004922D01*
X0030842Y0005607D02*
X0031526Y0004922D01*
X0031526Y0004238D01*
X0030842Y0003554D01*
X0030158Y0003554D01*
X0032584Y0005296D02*
X0030531Y0007348D01*
X0033952Y0006664D01*
X0031899Y0008716D01*
X0032615Y0009431D02*
X0033641Y0010458D01*
X0034325Y0010458D01*
X0035693Y0009089D01*
X0035693Y0008405D01*
X0034667Y0007379D01*
X0032615Y0009431D01*
X0044150Y0084650D02*
X0044150Y0088353D01*
X0046002Y0088353D01*
X0046619Y0087736D01*
X0046619Y0086502D01*
X0046002Y0085884D01*
X0044150Y0085884D01*
X0047833Y0084650D02*
X0049068Y0084650D01*
X0048450Y0084650D02*
X0048450Y0087119D01*
X0047833Y0087119D01*
X0048450Y0088353D02*
X0048450Y0088970D01*
X0053972Y0087736D02*
X0053972Y0085267D01*
X0054589Y0084650D01*
X0055823Y0084650D01*
X0056440Y0085267D01*
X0057655Y0084650D02*
X0057655Y0087119D01*
X0058889Y0087119D02*
X0059506Y0087119D01*
X0058889Y0087119D02*
X0057655Y0085884D01*
X0056440Y0087736D02*
X0055823Y0088353D01*
X0054589Y0088353D01*
X0053972Y0087736D01*
X0060724Y0087119D02*
X0060724Y0085267D01*
X0061341Y0084650D01*
X0063193Y0084650D01*
X0063193Y0087119D01*
X0064407Y0086502D02*
X0065024Y0087119D01*
X0066876Y0087119D01*
X0068090Y0087119D02*
X0069325Y0087119D01*
X0068708Y0087736D02*
X0068708Y0085267D01*
X0069325Y0084650D01*
X0066876Y0085267D02*
X0066259Y0085884D01*
X0065024Y0085884D01*
X0064407Y0086502D01*
X0064407Y0084650D02*
X0066259Y0084650D01*
X0066876Y0085267D01*
X0074229Y0084650D02*
X0074229Y0088353D01*
X0076081Y0088353D01*
X0076698Y0087736D01*
X0076698Y0086502D01*
X0076081Y0085884D01*
X0074229Y0085884D01*
X0077912Y0085884D02*
X0079147Y0087119D01*
X0079764Y0087119D01*
X0080981Y0086502D02*
X0080981Y0085267D01*
X0081599Y0084650D01*
X0082833Y0084650D01*
X0083450Y0085267D01*
X0083450Y0086502D01*
X0082833Y0087119D01*
X0081599Y0087119D01*
X0080981Y0086502D01*
X0077912Y0087119D02*
X0077912Y0084650D01*
X0084665Y0087119D02*
X0085899Y0087119D01*
X0085282Y0087736D02*
X0085282Y0085267D01*
X0085899Y0084650D01*
X0087120Y0085267D02*
X0087737Y0084650D01*
X0088972Y0084650D01*
X0089589Y0085267D01*
X0089589Y0086502D01*
X0088972Y0087119D01*
X0087737Y0087119D01*
X0087120Y0086502D01*
X0087120Y0085267D01*
X0090803Y0084650D02*
X0090803Y0088353D01*
X0090803Y0086502D02*
X0093272Y0086502D01*
X0094486Y0086502D02*
X0096955Y0086502D01*
X0096955Y0087119D02*
X0096955Y0084650D01*
X0099404Y0084650D02*
X0099404Y0088353D01*
X0100638Y0088353D02*
X0098169Y0088353D01*
X0096955Y0087119D02*
X0095721Y0088353D01*
X0094486Y0087119D01*
X0094486Y0084650D01*
X0093272Y0084650D02*
X0093272Y0088353D01*
X0105536Y0087119D02*
X0106770Y0084650D01*
X0108004Y0087119D01*
X0109219Y0087119D02*
X0110453Y0088353D01*
X0110453Y0084650D01*
X0109219Y0084650D02*
X0111688Y0084650D01*
X0112902Y0084650D02*
X0113519Y0084650D01*
X0113519Y0085267D01*
X0112902Y0085267D01*
X0112902Y0084650D01*
X0114744Y0085267D02*
X0114744Y0087736D01*
X0115361Y0088353D01*
X0116595Y0088353D01*
X0117212Y0087736D01*
X0114744Y0085267D01*
X0115361Y0084650D01*
X0116595Y0084650D01*
X0117212Y0085267D01*
X0117212Y0087736D01*
X0150430Y0087269D02*
X0150430Y0083566D01*
X0150430Y0084800D02*
X0152282Y0084800D01*
X0152899Y0085417D01*
X0152899Y0086652D01*
X0152282Y0087269D01*
X0150430Y0087269D01*
X0154113Y0087269D02*
X0154730Y0087269D01*
X0154730Y0084800D01*
X0154113Y0084800D02*
X0155348Y0084800D01*
X0156569Y0085417D02*
X0157186Y0084800D01*
X0159037Y0084800D01*
X0160252Y0084800D02*
X0160252Y0087269D01*
X0159037Y0087269D02*
X0157186Y0087269D01*
X0156569Y0086652D01*
X0156569Y0085417D01*
X0154730Y0088503D02*
X0154730Y0089120D01*
X0160252Y0086034D02*
X0161486Y0087269D01*
X0162103Y0087269D01*
X0163321Y0087269D02*
X0163321Y0085417D01*
X0163938Y0084800D01*
X0165790Y0084800D01*
X0165790Y0087269D01*
X0167004Y0085417D02*
X0167621Y0085417D01*
X0167621Y0084800D01*
X0167004Y0084800D01*
X0167004Y0085417D01*
X0168846Y0084800D02*
X0170697Y0084800D01*
X0171314Y0085417D01*
X0170697Y0086034D01*
X0169463Y0086034D01*
X0168846Y0086652D01*
X0169463Y0087269D01*
X0171314Y0087269D01*
X0172529Y0087269D02*
X0173763Y0087269D01*
X0173146Y0087886D02*
X0173146Y0085417D01*
X0173763Y0084800D01*
X0193400Y0084800D02*
X0195252Y0084800D01*
X0195869Y0085417D01*
X0195869Y0086652D01*
X0195252Y0087269D01*
X0193400Y0087269D01*
X0193400Y0083566D01*
X0197083Y0084800D02*
X0198318Y0084800D01*
X0197700Y0084800D02*
X0197700Y0087269D01*
X0197083Y0087269D01*
X0197700Y0088503D02*
X0197700Y0089120D01*
X0199539Y0086652D02*
X0202007Y0086652D01*
X0203222Y0086652D02*
X0203839Y0087269D01*
X0205690Y0087269D01*
X0206905Y0087269D02*
X0206905Y0085417D01*
X0207522Y0084800D01*
X0209374Y0084800D01*
X0209374Y0087269D01*
X0210588Y0087269D02*
X0212440Y0087269D01*
X0213057Y0086652D01*
X0213057Y0085417D01*
X0212440Y0084800D01*
X0210588Y0084800D01*
X0210588Y0083566D02*
X0210588Y0087269D01*
X0214271Y0087269D02*
X0214271Y0083566D01*
X0214271Y0084800D02*
X0216123Y0084800D01*
X0216740Y0085417D01*
X0216740Y0086652D01*
X0216123Y0087269D01*
X0214271Y0087269D01*
X0217954Y0088503D02*
X0218571Y0088503D01*
X0218571Y0084800D01*
X0217954Y0084800D02*
X0219189Y0084800D01*
X0220410Y0085417D02*
X0220410Y0087269D01*
X0220410Y0085417D02*
X0221027Y0084800D01*
X0222878Y0084800D01*
X0222878Y0084183D02*
X0222261Y0083566D01*
X0221644Y0083566D01*
X0222878Y0084183D02*
X0222878Y0087269D01*
X0224093Y0085417D02*
X0224710Y0085417D01*
X0224710Y0084800D01*
X0224093Y0084800D01*
X0224093Y0085417D01*
X0225934Y0085417D02*
X0225934Y0086652D01*
X0226552Y0087269D01*
X0228403Y0087269D01*
X0229618Y0086652D02*
X0229618Y0085417D01*
X0230235Y0084800D01*
X0231469Y0084800D01*
X0232086Y0085417D01*
X0232086Y0086652D01*
X0231469Y0087269D01*
X0230235Y0087269D01*
X0229618Y0086652D01*
X0228403Y0084800D02*
X0226552Y0084800D01*
X0225934Y0085417D01*
X0233301Y0084800D02*
X0233301Y0087269D01*
X0233918Y0087269D01*
X0234535Y0086652D01*
X0235152Y0087269D01*
X0235770Y0086652D01*
X0235770Y0084800D01*
X0234535Y0084800D02*
X0234535Y0086652D01*
X0205690Y0085417D02*
X0205073Y0086034D01*
X0203839Y0086034D01*
X0203222Y0086652D01*
X0203222Y0084800D02*
X0205073Y0084800D01*
X0205690Y0085417D01*
X0192325Y0010458D02*
X0191641Y0010458D01*
X0190615Y0009431D01*
X0192667Y0007379D01*
X0193693Y0008405D01*
X0193693Y0009089D01*
X0192325Y0010458D01*
X0189899Y0008716D02*
X0191952Y0006664D01*
X0188531Y0007348D01*
X0190584Y0005296D01*
X0189526Y0004922D02*
X0188842Y0005607D01*
X0188158Y0004922D01*
X0186790Y0004922D02*
X0188158Y0003554D01*
X0188842Y0003554D01*
X0189526Y0004238D01*
X0189526Y0004922D01*
X0188158Y0006291D02*
X0187474Y0006291D01*
X0186790Y0005607D01*
X0186790Y0004922D01*
X0034638Y0146434D02*
X0034638Y0148369D01*
X0034155Y0148852D01*
X0032703Y0148852D01*
X0032703Y0145950D01*
X0034155Y0145950D01*
X0034638Y0146434D01*
X0031692Y0145950D02*
X0031692Y0148852D01*
X0029757Y0148852D02*
X0029757Y0145950D01*
X0028745Y0146434D02*
X0028745Y0147401D01*
X0027778Y0147401D01*
X0028745Y0146434D02*
X0028262Y0145950D01*
X0027294Y0145950D01*
X0026810Y0146434D01*
X0026810Y0148369D01*
X0027294Y0148852D01*
X0028262Y0148852D01*
X0028745Y0148369D01*
X0029757Y0148852D02*
X0031692Y0145950D01*
X0031548Y0154650D02*
X0030580Y0154650D01*
X0030097Y0155134D01*
X0030097Y0156101D02*
X0031064Y0156585D01*
X0031548Y0156585D01*
X0032031Y0156101D01*
X0032031Y0155134D01*
X0031548Y0154650D01*
X0033043Y0155617D02*
X0034011Y0154650D01*
X0034978Y0155617D01*
X0034978Y0157552D01*
X0033043Y0157552D02*
X0033043Y0155617D01*
X0032031Y0157552D02*
X0030097Y0157552D01*
X0030097Y0156101D01*
X0029085Y0156101D02*
X0027150Y0156101D01*
X0028117Y0155134D02*
X0028117Y0157069D01*
X0047294Y0175950D02*
X0046810Y0176434D01*
X0047294Y0175950D02*
X0048262Y0175950D01*
X0048745Y0176434D01*
X0048745Y0176917D01*
X0048262Y0177401D01*
X0047294Y0177401D01*
X0046810Y0177885D01*
X0046810Y0178369D01*
X0047294Y0178852D01*
X0048262Y0178852D01*
X0048745Y0178369D01*
X0049757Y0178852D02*
X0049757Y0175950D01*
X0051208Y0175950D01*
X0051692Y0176434D01*
X0051692Y0178369D01*
X0051208Y0178852D01*
X0049757Y0178852D01*
X0052703Y0177885D02*
X0053671Y0178852D01*
X0054638Y0177885D01*
X0054638Y0175950D01*
X0053884Y0174853D02*
X0052650Y0174853D01*
X0053267Y0174853D02*
X0053267Y0171150D01*
X0052650Y0171150D02*
X0053884Y0171150D01*
X0055105Y0171150D02*
X0057574Y0173619D01*
X0057574Y0174236D01*
X0056957Y0174853D01*
X0055723Y0174853D01*
X0055105Y0174236D01*
X0052703Y0175950D02*
X0052703Y0177885D01*
X0052703Y0177401D02*
X0054638Y0177401D01*
X0057810Y0177885D02*
X0058294Y0177401D01*
X0059262Y0177401D01*
X0059745Y0176917D01*
X0059745Y0176434D01*
X0059262Y0175950D01*
X0058294Y0175950D01*
X0057810Y0176434D01*
X0057810Y0177885D02*
X0057810Y0178369D01*
X0058294Y0178852D01*
X0059262Y0178852D01*
X0059745Y0178369D01*
X0060757Y0178369D02*
X0060757Y0176434D01*
X0061241Y0175950D01*
X0062208Y0175950D01*
X0062692Y0176434D01*
X0063703Y0175950D02*
X0065638Y0175950D01*
X0063703Y0175950D02*
X0063703Y0178852D01*
X0062692Y0178369D02*
X0062208Y0178852D01*
X0061241Y0178852D01*
X0060757Y0178369D01*
X0060640Y0174853D02*
X0059406Y0174853D01*
X0058789Y0174236D01*
X0058789Y0171767D01*
X0059406Y0171150D01*
X0060640Y0171150D01*
X0061257Y0171767D01*
X0061257Y0174236D02*
X0060640Y0174853D01*
X0057574Y0171150D02*
X0055105Y0171150D01*
X0142648Y0216757D02*
X0142648Y0218208D01*
X0143131Y0218692D01*
X0144099Y0218692D01*
X0144583Y0218208D01*
X0144583Y0216757D01*
X0145550Y0216757D02*
X0142648Y0216757D01*
X0144583Y0217724D02*
X0145550Y0218692D01*
X0145550Y0219703D02*
X0143615Y0221638D01*
X0143131Y0221638D01*
X0142648Y0221155D01*
X0142648Y0220187D01*
X0143131Y0219703D01*
X0145550Y0219703D02*
X0145550Y0221638D01*
X0164648Y0205171D02*
X0167550Y0205171D01*
X0167550Y0206138D02*
X0167550Y0204203D01*
X0167550Y0203192D02*
X0166583Y0202224D01*
X0166583Y0202708D02*
X0166583Y0201257D01*
X0167550Y0201257D02*
X0164648Y0201257D01*
X0164648Y0202708D01*
X0165131Y0203192D01*
X0166099Y0203192D01*
X0166583Y0202708D01*
X0165615Y0204203D02*
X0164648Y0205171D01*
X0193650Y0202052D02*
X0193650Y0199150D01*
X0193650Y0200117D02*
X0195101Y0200117D01*
X0195585Y0200601D01*
X0195585Y0201569D01*
X0195101Y0202052D01*
X0193650Y0202052D01*
X0194617Y0200117D02*
X0195585Y0199150D01*
X0196597Y0199634D02*
X0197080Y0199150D01*
X0198048Y0199150D01*
X0198531Y0199634D01*
X0198531Y0200117D01*
X0198048Y0200601D01*
X0197564Y0200601D01*
X0198048Y0200601D02*
X0198531Y0201085D01*
X0198531Y0201569D01*
X0198048Y0202052D01*
X0197080Y0202052D01*
X0196597Y0201569D01*
X0220713Y0202514D02*
X0220713Y0200579D01*
X0221197Y0200095D01*
X0222164Y0200095D01*
X0222648Y0200579D01*
X0223660Y0200095D02*
X0225594Y0200095D01*
X0224627Y0200095D02*
X0224627Y0202997D01*
X0223660Y0202030D01*
X0222648Y0202514D02*
X0222164Y0202997D01*
X0221197Y0202997D01*
X0220713Y0202514D01*
D12*
X0223967Y0195302D02*
X0223600Y0194935D01*
X0223967Y0195302D02*
X0224701Y0195302D01*
X0225068Y0194935D01*
X0225068Y0194568D01*
X0223600Y0193100D01*
X0225068Y0193100D01*
X0225810Y0193467D02*
X0227278Y0194935D01*
X0227278Y0193467D01*
X0226911Y0193100D01*
X0226177Y0193100D01*
X0225810Y0193467D01*
X0225810Y0194935D01*
X0226177Y0195302D01*
X0226911Y0195302D01*
X0227278Y0194935D01*
X0233600Y0194935D02*
X0233967Y0195302D01*
X0234701Y0195302D01*
X0235068Y0194935D01*
X0235068Y0194568D01*
X0233600Y0193100D01*
X0235068Y0193100D01*
X0235810Y0193100D02*
X0237278Y0193100D01*
X0236544Y0193100D02*
X0236544Y0195302D01*
X0235810Y0194568D01*
X0217278Y0194201D02*
X0216177Y0194201D01*
X0215810Y0194568D01*
X0215810Y0194935D01*
X0216177Y0195302D01*
X0216911Y0195302D01*
X0217278Y0194935D01*
X0217278Y0193467D01*
X0216911Y0193100D01*
X0216177Y0193100D01*
X0215810Y0193467D01*
X0215068Y0193100D02*
X0213600Y0193100D01*
X0214334Y0193100D02*
X0214334Y0195302D01*
X0213600Y0194568D01*
X0206278Y0195302D02*
X0205544Y0194935D01*
X0204810Y0194201D01*
X0205911Y0194201D01*
X0206278Y0193834D01*
X0206278Y0193467D01*
X0205911Y0193100D01*
X0205177Y0193100D01*
X0204810Y0193467D01*
X0204810Y0194201D01*
X0204068Y0193100D02*
X0202600Y0193100D01*
X0203334Y0193100D02*
X0203334Y0195302D01*
X0202600Y0194568D01*
X0197278Y0194568D02*
X0196911Y0194201D01*
X0197278Y0193834D01*
X0197278Y0193467D01*
X0196911Y0193100D01*
X0196177Y0193100D01*
X0195810Y0193467D01*
X0195068Y0193100D02*
X0193600Y0193100D01*
X0194334Y0193100D02*
X0194334Y0195302D01*
X0193600Y0194568D01*
X0195810Y0194935D02*
X0196177Y0195302D01*
X0196911Y0195302D01*
X0197278Y0194935D01*
X0197278Y0194568D01*
X0196911Y0194201D02*
X0196544Y0194201D01*
X0187278Y0194568D02*
X0185810Y0193100D01*
X0187278Y0193100D01*
X0187278Y0194568D02*
X0187278Y0194935D01*
X0186911Y0195302D01*
X0186177Y0195302D01*
X0185810Y0194935D01*
X0184334Y0195302D02*
X0184334Y0193100D01*
X0183600Y0193100D02*
X0185068Y0193100D01*
X0183600Y0194568D02*
X0184334Y0195302D01*
X0176068Y0195302D02*
X0175334Y0194935D01*
X0174600Y0194201D01*
X0175701Y0194201D01*
X0176068Y0193834D01*
X0176068Y0193467D01*
X0175701Y0193100D01*
X0174967Y0193100D01*
X0174600Y0193467D01*
X0174600Y0194201D01*
X0166068Y0194201D02*
X0166068Y0193467D01*
X0165701Y0193100D01*
X0164967Y0193100D01*
X0164600Y0193467D01*
X0164600Y0194201D02*
X0165334Y0194568D01*
X0165701Y0194568D01*
X0166068Y0194201D01*
X0166068Y0195302D02*
X0164600Y0195302D01*
X0164600Y0194201D01*
X0155278Y0193834D02*
X0154911Y0194201D01*
X0153810Y0194201D01*
X0153810Y0193467D01*
X0154177Y0193100D01*
X0154911Y0193100D01*
X0155278Y0193467D01*
X0155278Y0193834D01*
X0154544Y0194935D02*
X0153810Y0194201D01*
X0153068Y0194568D02*
X0153068Y0194935D01*
X0152701Y0195302D01*
X0151967Y0195302D01*
X0151600Y0194935D01*
X0153068Y0194568D02*
X0151600Y0193100D01*
X0153068Y0193100D01*
X0154544Y0194935D02*
X0155278Y0195302D01*
X0145278Y0195302D02*
X0143810Y0195302D01*
X0143810Y0194201D01*
X0144544Y0194568D01*
X0144911Y0194568D01*
X0145278Y0194201D01*
X0145278Y0193467D01*
X0144911Y0193100D01*
X0144177Y0193100D01*
X0143810Y0193467D01*
X0143068Y0193100D02*
X0141600Y0193100D01*
X0143068Y0194568D01*
X0143068Y0194935D01*
X0142701Y0195302D01*
X0141967Y0195302D01*
X0141600Y0194935D01*
X0135278Y0194201D02*
X0133810Y0194201D01*
X0134911Y0195302D01*
X0134911Y0193100D01*
X0133068Y0193100D02*
X0131600Y0193100D01*
X0133068Y0194568D01*
X0133068Y0194935D01*
X0132701Y0195302D01*
X0131967Y0195302D01*
X0131600Y0194935D01*
X0126278Y0194935D02*
X0126278Y0194568D01*
X0125911Y0194201D01*
X0126278Y0193834D01*
X0126278Y0193467D01*
X0125911Y0193100D01*
X0125177Y0193100D01*
X0124810Y0193467D01*
X0124068Y0193100D02*
X0122600Y0193100D01*
X0124068Y0194568D01*
X0124068Y0194935D01*
X0123701Y0195302D01*
X0122967Y0195302D01*
X0122600Y0194935D01*
X0124810Y0194935D02*
X0125177Y0195302D01*
X0125911Y0195302D01*
X0126278Y0194935D01*
X0125911Y0194201D02*
X0125544Y0194201D01*
X0115278Y0194568D02*
X0113810Y0193100D01*
X0115278Y0193100D01*
X0115278Y0194568D02*
X0115278Y0194935D01*
X0114911Y0195302D01*
X0114177Y0195302D01*
X0113810Y0194935D01*
X0113068Y0194935D02*
X0112701Y0195302D01*
X0111967Y0195302D01*
X0111600Y0194935D01*
X0113068Y0194935D02*
X0113068Y0194568D01*
X0111600Y0193100D01*
X0113068Y0193100D01*
X0105278Y0194935D02*
X0103810Y0193467D01*
X0103810Y0193100D01*
X0103068Y0193100D02*
X0101600Y0193100D01*
X0103068Y0194568D01*
X0103068Y0194935D01*
X0102701Y0195302D01*
X0101967Y0195302D01*
X0101600Y0194935D01*
X0103810Y0195302D02*
X0105278Y0195302D01*
X0105278Y0194935D01*
X0095278Y0194935D02*
X0095278Y0194568D01*
X0094911Y0194201D01*
X0094177Y0194201D01*
X0093810Y0194568D01*
X0093810Y0194935D01*
X0094177Y0195302D01*
X0094911Y0195302D01*
X0095278Y0194935D01*
X0094911Y0194201D02*
X0095278Y0193834D01*
X0095278Y0193467D01*
X0094911Y0193100D01*
X0094177Y0193100D01*
X0093810Y0193467D01*
X0093810Y0193834D01*
X0094177Y0194201D01*
X0093068Y0193100D02*
X0091600Y0193100D01*
X0092334Y0193100D02*
X0092334Y0195302D01*
X0091600Y0194568D01*
X0085278Y0194935D02*
X0083810Y0193467D01*
X0083810Y0193100D01*
X0083068Y0193100D02*
X0081600Y0193100D01*
X0082334Y0193100D02*
X0082334Y0195302D01*
X0081600Y0194568D01*
X0083810Y0195302D02*
X0085278Y0195302D01*
X0085278Y0194935D01*
X0074068Y0194201D02*
X0072600Y0194201D01*
X0073701Y0195302D01*
X0073701Y0193100D01*
X0041278Y0179302D02*
X0039810Y0177100D01*
X0039068Y0177100D02*
X0038334Y0177834D01*
X0038701Y0177834D02*
X0037600Y0177834D01*
X0037600Y0177100D02*
X0037600Y0179302D01*
X0038701Y0179302D01*
X0039068Y0178935D01*
X0039068Y0178201D01*
X0038701Y0177834D01*
X0039810Y0179302D02*
X0041278Y0177100D01*
X0031278Y0177100D02*
X0029810Y0179302D01*
X0029068Y0179302D02*
X0027600Y0179302D01*
X0028334Y0179302D02*
X0028334Y0177100D01*
X0029810Y0177100D02*
X0031278Y0179302D01*
X0021488Y0179302D02*
X0021488Y0177834D01*
X0020754Y0177100D01*
X0020020Y0177834D01*
X0020020Y0179302D01*
X0019278Y0179302D02*
X0017810Y0179302D01*
X0017810Y0178201D01*
X0018544Y0178568D01*
X0018911Y0178568D01*
X0019278Y0178201D01*
X0019278Y0177467D01*
X0018911Y0177100D01*
X0018177Y0177100D01*
X0017810Y0177467D01*
X0017068Y0178201D02*
X0015600Y0178201D01*
X0016334Y0178935D02*
X0016334Y0177467D01*
X0012488Y0177467D02*
X0012488Y0178935D01*
X0012121Y0179302D01*
X0011020Y0179302D01*
X0011020Y0177100D01*
X0012121Y0177100D01*
X0012488Y0177467D01*
X0010278Y0177100D02*
X0010278Y0179302D01*
X0008810Y0179302D02*
X0010278Y0177100D01*
X0008810Y0177100D02*
X0008810Y0179302D01*
X0008068Y0178935D02*
X0007701Y0179302D01*
X0006967Y0179302D01*
X0006600Y0178935D01*
X0006600Y0177467D01*
X0006967Y0177100D01*
X0007701Y0177100D01*
X0008068Y0177467D01*
X0008068Y0178201D01*
X0007334Y0178201D01*
X0120600Y0177967D02*
X0120967Y0177600D01*
X0121701Y0177600D01*
X0122068Y0177967D01*
X0122810Y0177600D02*
X0124278Y0177600D01*
X0125020Y0177600D02*
X0126488Y0177600D01*
X0125754Y0177600D02*
X0125754Y0179802D01*
X0125020Y0179068D01*
X0124278Y0179802D02*
X0122810Y0179802D01*
X0122810Y0177600D01*
X0122810Y0178701D02*
X0123544Y0178701D01*
X0122068Y0179435D02*
X0121701Y0179802D01*
X0120967Y0179802D01*
X0120600Y0179435D01*
X0120600Y0177967D01*
X0130600Y0177600D02*
X0130600Y0179802D01*
X0131334Y0179068D01*
X0132068Y0179802D01*
X0132068Y0177600D01*
X0132810Y0177967D02*
X0133177Y0177600D01*
X0133911Y0177600D01*
X0134278Y0177967D01*
X0134278Y0179435D01*
X0133911Y0179802D01*
X0133177Y0179802D01*
X0132810Y0179435D01*
X0132810Y0177967D01*
X0135020Y0177967D02*
X0135387Y0177600D01*
X0136121Y0177600D01*
X0136488Y0177967D01*
X0136488Y0178334D01*
X0136121Y0178701D01*
X0135387Y0178701D01*
X0135020Y0179068D01*
X0135020Y0179435D01*
X0135387Y0179802D01*
X0136121Y0179802D01*
X0136488Y0179435D01*
X0137230Y0179802D02*
X0137964Y0179802D01*
X0137597Y0179802D02*
X0137597Y0177600D01*
X0137230Y0177600D02*
X0137964Y0177600D01*
X0140600Y0177600D02*
X0140600Y0179802D01*
X0141334Y0179068D01*
X0142068Y0179802D01*
X0142068Y0177600D01*
X0142810Y0177600D02*
X0143544Y0177600D01*
X0143177Y0177600D02*
X0143177Y0179802D01*
X0142810Y0179802D02*
X0143544Y0179802D01*
X0144283Y0179435D02*
X0144283Y0179068D01*
X0144650Y0178701D01*
X0145384Y0178701D01*
X0145751Y0178334D01*
X0145751Y0177967D01*
X0145384Y0177600D01*
X0144650Y0177600D01*
X0144283Y0177967D01*
X0144283Y0179435D02*
X0144650Y0179802D01*
X0145384Y0179802D01*
X0145751Y0179435D01*
X0146493Y0179435D02*
X0146493Y0177967D01*
X0146860Y0177600D01*
X0147594Y0177600D01*
X0147961Y0177967D01*
X0147961Y0179435D01*
X0147594Y0179802D01*
X0146860Y0179802D01*
X0146493Y0179435D01*
X0150600Y0179435D02*
X0150600Y0177967D01*
X0150967Y0177600D01*
X0151701Y0177600D01*
X0152068Y0177967D01*
X0152810Y0177600D02*
X0152810Y0179802D01*
X0152068Y0179435D02*
X0151701Y0179802D01*
X0150967Y0179802D01*
X0150600Y0179435D01*
X0152810Y0177600D02*
X0154278Y0177600D01*
X0155020Y0177600D02*
X0155020Y0179802D01*
X0155387Y0178701D02*
X0156488Y0177600D01*
X0155020Y0178334D02*
X0156488Y0179802D01*
X0162600Y0179435D02*
X0162600Y0177967D01*
X0162967Y0177600D01*
X0163701Y0177600D01*
X0164068Y0177967D01*
X0164810Y0177600D02*
X0166278Y0177600D01*
X0167020Y0177967D02*
X0168488Y0179435D01*
X0168488Y0177967D01*
X0168121Y0177600D01*
X0167387Y0177600D01*
X0167020Y0177967D01*
X0167020Y0179435D01*
X0167387Y0179802D01*
X0168121Y0179802D01*
X0168488Y0179435D01*
X0166278Y0179802D02*
X0164810Y0179802D01*
X0164810Y0177600D01*
X0164810Y0178701D02*
X0165544Y0178701D01*
X0164068Y0179435D02*
X0163701Y0179802D01*
X0162967Y0179802D01*
X0162600Y0179435D01*
X0172600Y0179802D02*
X0172600Y0177600D01*
X0174068Y0177600D02*
X0174068Y0179802D01*
X0173334Y0179068D01*
X0172600Y0179802D01*
X0174810Y0179435D02*
X0174810Y0177967D01*
X0175177Y0177600D01*
X0175911Y0177600D01*
X0176278Y0177967D01*
X0176278Y0179435D01*
X0175911Y0179802D01*
X0175177Y0179802D01*
X0174810Y0179435D01*
X0177020Y0179435D02*
X0177020Y0179068D01*
X0177387Y0178701D01*
X0178121Y0178701D01*
X0178488Y0178334D01*
X0178488Y0177967D01*
X0178121Y0177600D01*
X0177387Y0177600D01*
X0177020Y0177967D01*
X0177020Y0179435D02*
X0177387Y0179802D01*
X0178121Y0179802D01*
X0178488Y0179435D01*
X0179230Y0179802D02*
X0179964Y0179802D01*
X0179597Y0179802D02*
X0179597Y0177600D01*
X0179230Y0177600D02*
X0179964Y0177600D01*
X0182600Y0177600D02*
X0182600Y0179802D01*
X0183334Y0179068D01*
X0184068Y0179802D01*
X0184068Y0177600D01*
X0184810Y0177600D02*
X0185544Y0177600D01*
X0185177Y0177600D02*
X0185177Y0179802D01*
X0184810Y0179802D02*
X0185544Y0179802D01*
X0186283Y0179435D02*
X0186283Y0179068D01*
X0186650Y0178701D01*
X0187384Y0178701D01*
X0187751Y0178334D01*
X0187751Y0177967D01*
X0187384Y0177600D01*
X0186650Y0177600D01*
X0186283Y0177967D01*
X0186283Y0179435D02*
X0186650Y0179802D01*
X0187384Y0179802D01*
X0187751Y0179435D01*
X0188493Y0179435D02*
X0188493Y0177967D01*
X0188860Y0177600D01*
X0189594Y0177600D01*
X0189961Y0177967D01*
X0189961Y0179435D01*
X0189594Y0179802D01*
X0188860Y0179802D01*
X0188493Y0179435D01*
X0192600Y0179435D02*
X0192600Y0177967D01*
X0192967Y0177600D01*
X0193701Y0177600D01*
X0194068Y0177967D01*
X0194810Y0177600D02*
X0196278Y0177600D01*
X0197020Y0177600D02*
X0197020Y0179802D01*
X0197387Y0178701D02*
X0198488Y0177600D01*
X0197020Y0178334D02*
X0198488Y0179802D01*
X0194810Y0179802D02*
X0194810Y0177600D01*
X0194068Y0179435D02*
X0193701Y0179802D01*
X0192967Y0179802D01*
X0192600Y0179435D01*
X0245300Y0169635D02*
X0245300Y0168167D01*
X0245667Y0167800D01*
X0246401Y0167800D01*
X0246768Y0168167D01*
X0247510Y0167800D02*
X0247510Y0170002D01*
X0248978Y0170002D01*
X0249720Y0169635D02*
X0249720Y0168167D01*
X0250087Y0167800D01*
X0250821Y0167800D01*
X0251188Y0168167D01*
X0251188Y0168901D01*
X0250454Y0168901D01*
X0251188Y0169635D02*
X0250821Y0170002D01*
X0250087Y0170002D01*
X0249720Y0169635D01*
X0248244Y0168901D02*
X0247510Y0168901D01*
X0246768Y0169635D02*
X0246401Y0170002D01*
X0245667Y0170002D01*
X0245300Y0169635D01*
X0192428Y0020165D02*
X0192688Y0019905D01*
X0192688Y0019386D01*
X0193207Y0019386D01*
X0193466Y0019127D01*
X0193466Y0018608D01*
X0192947Y0018089D01*
X0192428Y0018089D01*
X0191644Y0017824D02*
X0190606Y0018862D01*
X0191390Y0019127D02*
X0191390Y0019646D01*
X0191909Y0020165D01*
X0192428Y0020165D01*
X0192688Y0019386D02*
X0192428Y0019127D01*
X0191644Y0017824D02*
X0191644Y0016786D01*
X0190606Y0016786D01*
X0189568Y0017824D01*
X0189303Y0017039D02*
X0189563Y0016780D01*
X0189563Y0016261D01*
X0190082Y0016261D01*
X0190341Y0016001D01*
X0190341Y0015482D01*
X0189822Y0014964D01*
X0189303Y0014964D01*
X0189303Y0016001D02*
X0189563Y0016261D01*
X0189303Y0017039D02*
X0188784Y0017039D01*
X0188265Y0016520D01*
X0188265Y0016001D01*
X0188259Y0014958D02*
X0187222Y0013920D01*
X0188259Y0013920D02*
X0187222Y0014958D01*
X0035466Y0018608D02*
X0034947Y0018089D01*
X0034428Y0018089D01*
X0033644Y0017824D02*
X0032606Y0018862D01*
X0033390Y0019127D02*
X0033390Y0019646D01*
X0033909Y0020165D01*
X0034428Y0020165D01*
X0034688Y0019905D01*
X0034688Y0019386D01*
X0035207Y0019386D01*
X0035466Y0019127D01*
X0035466Y0018608D01*
X0034688Y0019386D02*
X0034428Y0019127D01*
X0033644Y0017824D02*
X0033644Y0016786D01*
X0032606Y0016786D01*
X0031568Y0017824D01*
X0031303Y0017039D02*
X0031563Y0016780D01*
X0031563Y0016261D01*
X0032082Y0016261D01*
X0032341Y0016001D01*
X0032341Y0015482D01*
X0031822Y0014964D01*
X0031303Y0014964D01*
X0031303Y0016001D02*
X0031563Y0016261D01*
X0031303Y0017039D02*
X0030784Y0017039D01*
X0030265Y0016520D01*
X0030265Y0016001D01*
X0030259Y0014958D02*
X0029222Y0013920D01*
X0030259Y0013920D02*
X0029222Y0014958D01*
D13*
X0016548Y0085377D02*
X0012945Y0085377D01*
X0012945Y0087179D01*
X0013545Y0087779D01*
X0015948Y0087779D01*
X0016548Y0087179D01*
X0016548Y0085377D01*
X0016548Y0089060D02*
X0016548Y0090261D01*
X0016548Y0089661D02*
X0014146Y0089661D01*
X0014146Y0089060D01*
X0012945Y0089661D02*
X0012344Y0089661D01*
X0014746Y0091516D02*
X0014146Y0092116D01*
X0014146Y0093918D01*
X0014146Y0095199D02*
X0014146Y0097000D01*
X0014746Y0097601D01*
X0015948Y0097601D01*
X0016548Y0097000D01*
X0016548Y0095199D01*
X0017749Y0095199D02*
X0014146Y0095199D01*
X0015948Y0093918D02*
X0015347Y0093317D01*
X0015347Y0092116D01*
X0014746Y0091516D01*
X0016548Y0091516D02*
X0016548Y0093317D01*
X0015948Y0093918D01*
X0016548Y0098882D02*
X0016548Y0100083D01*
X0016548Y0099483D02*
X0012945Y0099483D01*
X0012945Y0098882D01*
X0015948Y0101337D02*
X0015347Y0101938D01*
X0015347Y0103739D01*
X0014746Y0103739D02*
X0016548Y0103739D01*
X0016548Y0101938D01*
X0015948Y0101337D01*
X0014146Y0101938D02*
X0014146Y0103139D01*
X0014746Y0103739D01*
X0014146Y0105021D02*
X0015948Y0105021D01*
X0016548Y0105621D01*
X0016548Y0107423D01*
X0017149Y0107423D02*
X0017749Y0106822D01*
X0017749Y0106222D01*
X0017149Y0107423D02*
X0014146Y0107423D01*
X0014746Y0112387D02*
X0014746Y0113588D01*
X0012945Y0112387D02*
X0012945Y0114789D01*
X0012945Y0116070D02*
X0012945Y0116671D01*
X0016548Y0116671D01*
X0016548Y0117271D02*
X0016548Y0116070D01*
X0015948Y0118525D02*
X0014746Y0118525D01*
X0014146Y0119126D01*
X0014146Y0120327D01*
X0014746Y0120927D01*
X0015347Y0120927D01*
X0015347Y0118525D01*
X0015948Y0118525D02*
X0016548Y0119126D01*
X0016548Y0120327D01*
X0016548Y0122209D02*
X0014146Y0124611D01*
X0014146Y0122209D02*
X0016548Y0124611D01*
X0015948Y0129575D02*
X0016548Y0130175D01*
X0016548Y0131376D01*
X0015948Y0131977D01*
X0015347Y0131977D01*
X0014746Y0131376D01*
X0014746Y0130175D01*
X0014146Y0129575D01*
X0013545Y0129575D01*
X0012945Y0130175D01*
X0012945Y0131376D01*
X0013545Y0131977D01*
X0012945Y0133258D02*
X0012945Y0133859D01*
X0016548Y0133859D01*
X0016548Y0134459D02*
X0016548Y0133258D01*
X0015948Y0135713D02*
X0014746Y0135713D01*
X0014146Y0136314D01*
X0014146Y0137515D01*
X0014746Y0138116D01*
X0015948Y0138116D01*
X0016548Y0137515D01*
X0016548Y0136314D01*
X0015948Y0135713D01*
X0014146Y0139397D02*
X0014146Y0140598D01*
X0013545Y0139997D02*
X0015948Y0139997D01*
X0016548Y0140598D01*
X0016548Y0112387D02*
X0012945Y0112387D01*
X0014567Y0170200D02*
X0016302Y0170200D01*
X0017170Y0171067D01*
X0017170Y0175404D01*
X0018856Y0173670D02*
X0020591Y0175404D01*
X0022326Y0173670D01*
X0022326Y0170200D01*
X0024013Y0170200D02*
X0024013Y0175404D01*
X0026615Y0175404D01*
X0027482Y0174537D01*
X0027482Y0172802D01*
X0026615Y0171935D01*
X0024013Y0171935D01*
X0025748Y0171935D02*
X0027482Y0170200D01*
X0030904Y0170200D02*
X0030904Y0175404D01*
X0029169Y0175404D02*
X0032639Y0175404D01*
X0022326Y0172802D02*
X0018856Y0172802D01*
X0018856Y0173670D02*
X0018856Y0170200D01*
X0014567Y0170200D02*
X0013700Y0171067D01*
X0013700Y0175404D01*
X0176931Y0074179D02*
X0179333Y0074179D01*
X0179934Y0074780D01*
X0177532Y0074780D02*
X0177532Y0073579D01*
X0178132Y0072298D02*
X0177532Y0071697D01*
X0177532Y0070496D01*
X0178132Y0069896D01*
X0179333Y0069896D01*
X0179934Y0070496D01*
X0179934Y0071697D01*
X0179333Y0072298D01*
X0178132Y0072298D01*
X0179934Y0068641D02*
X0179934Y0067440D01*
X0179934Y0068041D02*
X0176331Y0068041D01*
X0176331Y0067440D01*
X0176931Y0066159D02*
X0176331Y0065558D01*
X0176331Y0064357D01*
X0176931Y0063757D01*
X0177532Y0063757D01*
X0178132Y0064357D01*
X0178132Y0065558D01*
X0178733Y0066159D01*
X0179333Y0066159D01*
X0179934Y0065558D01*
X0179934Y0064357D01*
X0179333Y0063757D01*
X0179934Y0058793D02*
X0177532Y0056391D01*
X0178132Y0055110D02*
X0177532Y0054509D01*
X0177532Y0053308D01*
X0178132Y0052708D01*
X0179333Y0052708D01*
X0179934Y0053308D01*
X0179934Y0054509D01*
X0178733Y0055110D02*
X0178733Y0052708D01*
X0179934Y0051453D02*
X0179934Y0050252D01*
X0179934Y0050853D02*
X0176331Y0050853D01*
X0176331Y0050252D01*
X0176331Y0048971D02*
X0176331Y0046569D01*
X0179934Y0046569D01*
X0178132Y0046569D02*
X0178132Y0047770D01*
X0178132Y0041605D02*
X0177532Y0041004D01*
X0177532Y0039803D01*
X0178733Y0039803D02*
X0178733Y0041605D01*
X0178132Y0041605D02*
X0179934Y0041605D01*
X0179934Y0039803D01*
X0179333Y0039203D01*
X0178733Y0039803D01*
X0177532Y0037935D02*
X0177532Y0037334D01*
X0178733Y0036133D01*
X0179934Y0036133D02*
X0177532Y0036133D01*
X0178132Y0034852D02*
X0177532Y0034252D01*
X0177532Y0033051D01*
X0178132Y0032450D01*
X0179333Y0032450D01*
X0179934Y0033051D01*
X0179934Y0034252D01*
X0178733Y0034852D02*
X0178733Y0032450D01*
X0178132Y0031169D02*
X0177532Y0030569D01*
X0178132Y0029968D01*
X0179934Y0029968D01*
X0179934Y0028767D02*
X0177532Y0028767D01*
X0177532Y0029368D01*
X0178132Y0029968D01*
X0178132Y0031169D02*
X0179934Y0031169D01*
X0179934Y0027486D02*
X0179934Y0025684D01*
X0179333Y0025084D01*
X0178733Y0025684D01*
X0178733Y0027486D01*
X0178132Y0027486D02*
X0179934Y0027486D01*
X0178132Y0027486D02*
X0177532Y0026885D01*
X0177532Y0025684D01*
X0176931Y0023803D02*
X0176331Y0023202D01*
X0176331Y0022001D01*
X0176931Y0021401D01*
X0179333Y0021401D01*
X0179934Y0022001D01*
X0179934Y0023202D01*
X0179333Y0023803D01*
X0178733Y0034852D02*
X0178132Y0034852D01*
X0178132Y0055110D02*
X0178733Y0055110D01*
X0179934Y0056391D02*
X0177532Y0058793D01*
X0209858Y0196638D02*
X0217142Y0196638D01*
X0217142Y0201362D02*
X0209858Y0201362D01*
X0216259Y0217700D02*
X0217794Y0217700D01*
X0218561Y0218467D01*
X0218561Y0222304D01*
X0220096Y0220769D02*
X0221631Y0222304D01*
X0221631Y0217700D01*
X0223165Y0217700D02*
X0220096Y0217700D01*
X0216259Y0217700D02*
X0215492Y0218467D01*
X0215492Y0222304D01*
D14*
X0227000Y0024500D02*
X0184000Y0024500D01*
X0229500Y0012000D02*
X0032500Y0012000D01*
D15*
X0118785Y0200920D03*
X0122355Y0203860D03*
X0124665Y0213030D03*
X0122355Y0213660D03*
X0146855Y0209880D03*
X0146855Y0209810D03*
D16*
X0145420Y0208550D03*
X0149620Y0205890D03*
X0124910Y0205890D03*
X0124840Y0205750D03*
X0124700Y0205540D03*
X0118750Y0200990D03*
X0112730Y0205750D03*
X0112660Y0205890D03*
X0112660Y0211700D03*
X0112730Y0211840D03*
X0124560Y0212400D03*
D17*
X0121970Y0214220D03*
X0118750Y0216460D03*
X0114270Y0213660D03*
X0114270Y0203860D03*
X0118750Y0201060D03*
X0155430Y0205820D03*
X0155850Y0207710D03*
D18*
X0155360Y0206030D03*
X0140940Y0205960D03*
X0118750Y0201130D03*
X0118120Y0207220D03*
D19*
X0118750Y0201200D03*
D20*
X0118750Y0201270D03*
X0131630Y0208130D03*
X0131630Y0211210D03*
X0140940Y0206380D03*
X0150460Y0206520D03*
D21*
X0140940Y0206590D03*
X0131840Y0208690D03*
X0131840Y0210650D03*
X0118820Y0211840D03*
X0118750Y0201340D03*
D22*
X0118785Y0201410D03*
X0118995Y0208060D03*
X0118995Y0211560D03*
X0118785Y0216110D03*
X0140905Y0206870D03*
D23*
X0119170Y0211070D03*
X0118750Y0201480D03*
D24*
X0118785Y0201550D03*
D25*
X0118750Y0201620D03*
D26*
X0118750Y0201690D03*
D27*
X0118750Y0201760D03*
X0118750Y0215760D03*
D28*
X0118750Y0201830D03*
D29*
X0118785Y0201900D03*
D30*
X0118785Y0201970D03*
D31*
X0118750Y0202040D03*
D32*
X0118785Y0202110D03*
X0118785Y0215410D03*
D33*
X0118750Y0202180D03*
D34*
X0118750Y0202250D03*
D35*
X0118750Y0202320D03*
D36*
X0118785Y0202390D03*
D37*
X0118750Y0202460D03*
X0118750Y0215060D03*
D38*
X0118750Y0202530D03*
D39*
X0118785Y0202600D03*
D40*
X0118750Y0202670D03*
D41*
X0118750Y0202740D03*
D42*
X0118750Y0202810D03*
X0118750Y0214710D03*
D43*
X0118750Y0202880D03*
D44*
X0118715Y0202950D03*
X0118645Y0214500D03*
D45*
X0118715Y0214570D03*
X0118645Y0203020D03*
D46*
X0115845Y0203090D03*
X0118715Y0207640D03*
X0140975Y0211000D03*
D47*
X0121515Y0203090D03*
D48*
X0115530Y0203160D03*
X0115530Y0214360D03*
D49*
X0121760Y0214360D03*
X0121760Y0203160D03*
D50*
X0115320Y0203230D03*
X0131350Y0207710D03*
X0131350Y0211630D03*
D51*
X0140975Y0211560D03*
X0155395Y0209460D03*
X0155605Y0209880D03*
X0121865Y0203230D03*
X0114725Y0203510D03*
X0114725Y0214010D03*
D52*
X0115145Y0203300D03*
X0131245Y0211700D03*
X0155325Y0206100D03*
X0155465Y0206450D03*
X0155535Y0206590D03*
D53*
X0121970Y0203300D03*
D54*
X0115005Y0203370D03*
D55*
X0122075Y0203370D03*
X0113675Y0213170D03*
X0140975Y0211770D03*
X0155605Y0210230D03*
D56*
X0131105Y0207500D03*
X0114865Y0203440D03*
D57*
X0113115Y0205050D03*
X0113185Y0212540D03*
X0122145Y0203440D03*
X0133205Y0210440D03*
X0155605Y0210300D03*
X0159945Y0206100D03*
D58*
X0124910Y0205960D03*
X0124840Y0205820D03*
X0124770Y0205680D03*
X0122180Y0203510D03*
X0124700Y0211980D03*
X0122180Y0214010D03*
X0118750Y0216530D03*
X0112730Y0211770D03*
X0112660Y0211630D03*
X0112590Y0211560D03*
X0112590Y0205960D03*
X0112660Y0205820D03*
X0112730Y0205680D03*
D59*
X0114620Y0203580D03*
X0155710Y0210020D03*
D60*
X0151755Y0207010D03*
X0145315Y0208410D03*
X0133415Y0210370D03*
X0125505Y0209670D03*
X0125505Y0209530D03*
X0125505Y0209460D03*
X0125505Y0208060D03*
X0125505Y0207920D03*
X0125365Y0207220D03*
X0125295Y0207010D03*
X0122215Y0203580D03*
X0121165Y0208970D03*
X0121305Y0210370D03*
X0112275Y0210720D03*
X0112205Y0210510D03*
X0112065Y0209880D03*
X0112065Y0209810D03*
X0111995Y0209320D03*
X0111995Y0209180D03*
X0111995Y0209110D03*
X0111995Y0208410D03*
X0111995Y0208270D03*
X0111995Y0208130D03*
X0112065Y0207780D03*
X0112065Y0207710D03*
X0112065Y0207570D03*
X0112205Y0207080D03*
X0112205Y0207010D03*
D61*
X0114515Y0203650D03*
X0155395Y0205890D03*
X0159525Y0209250D03*
X0159525Y0209390D03*
X0159525Y0209600D03*
X0159525Y0209740D03*
X0159525Y0209950D03*
X0159525Y0210090D03*
X0159525Y0210300D03*
X0159525Y0210440D03*
D62*
X0151860Y0207150D03*
X0148920Y0207150D03*
X0145210Y0208200D03*
X0140940Y0205540D03*
X0138840Y0209950D03*
X0133520Y0210300D03*
X0124630Y0211700D03*
X0121410Y0209950D03*
X0121410Y0209740D03*
X0121410Y0209600D03*
X0122250Y0203650D03*
D63*
X0114410Y0203720D03*
X0130930Y0207430D03*
X0140940Y0205820D03*
X0141010Y0211630D03*
X0155430Y0208130D03*
X0155500Y0208060D03*
X0155640Y0207920D03*
D64*
X0159245Y0207360D03*
X0159245Y0207220D03*
X0159245Y0210510D03*
X0138525Y0209180D03*
X0138525Y0209110D03*
X0138525Y0208970D03*
X0138525Y0208480D03*
X0138525Y0208410D03*
X0138525Y0208270D03*
X0133695Y0209180D03*
X0133695Y0209320D03*
X0133695Y0209880D03*
X0133695Y0210020D03*
X0130125Y0208760D03*
X0124595Y0211630D03*
X0122285Y0203720D03*
D65*
X0122460Y0204420D03*
X0124770Y0203720D03*
X0126310Y0210860D03*
D66*
X0114305Y0203790D03*
X0145875Y0208900D03*
X0145875Y0209040D03*
X0145875Y0209250D03*
X0145875Y0209390D03*
X0155325Y0208200D03*
X0155675Y0207850D03*
X0155675Y0210090D03*
D67*
X0154310Y0209250D03*
X0156830Y0206940D03*
X0160050Y0205540D03*
X0122320Y0203790D03*
D68*
X0122460Y0204350D03*
X0124770Y0203790D03*
X0124070Y0211000D03*
D69*
X0124140Y0211070D03*
X0124770Y0213660D03*
X0122460Y0204280D03*
X0124770Y0203860D03*
D70*
X0114165Y0203930D03*
X0155255Y0208270D03*
D71*
X0124700Y0213170D03*
X0122390Y0203930D03*
D72*
X0124735Y0203930D03*
X0142375Y0209880D03*
X0153995Y0207010D03*
D73*
X0155150Y0208340D03*
X0155920Y0207640D03*
X0140940Y0205750D03*
X0114060Y0204000D03*
X0113990Y0213450D03*
D74*
X0124350Y0211350D03*
X0124700Y0213240D03*
X0122390Y0204000D03*
X0154170Y0206800D03*
X0156620Y0209250D03*
D75*
X0142375Y0209950D03*
X0141045Y0212050D03*
X0124175Y0211140D03*
X0124735Y0204000D03*
D76*
X0113990Y0204070D03*
X0114060Y0213520D03*
X0155640Y0210160D03*
D77*
X0122425Y0204070D03*
D78*
X0124735Y0204070D03*
X0124245Y0211210D03*
X0122425Y0213380D03*
D79*
X0113780Y0213240D03*
X0113920Y0204140D03*
X0155430Y0205750D03*
D80*
X0142445Y0207500D03*
X0126065Y0210650D03*
X0124735Y0213450D03*
X0122425Y0204140D03*
D81*
X0124735Y0204140D03*
D82*
X0113850Y0204210D03*
X0113780Y0204280D03*
X0113850Y0213310D03*
X0113920Y0213380D03*
X0155080Y0208410D03*
D83*
X0147275Y0210510D03*
X0142445Y0207570D03*
X0124735Y0213520D03*
X0122425Y0213310D03*
X0122425Y0204210D03*
D84*
X0124735Y0204210D03*
X0124735Y0213310D03*
X0149585Y0205470D03*
D85*
X0147030Y0210230D03*
X0142480Y0207360D03*
X0160050Y0205470D03*
X0124700Y0204280D03*
X0122390Y0213520D03*
D86*
X0122075Y0214150D03*
X0113675Y0204350D03*
D87*
X0124700Y0204350D03*
X0122390Y0213590D03*
X0142480Y0207290D03*
D88*
X0140940Y0205680D03*
X0159840Y0206520D03*
X0159840Y0206660D03*
X0159840Y0206730D03*
X0159840Y0206870D03*
X0113640Y0204420D03*
D89*
X0124700Y0204420D03*
X0142410Y0210230D03*
X0154240Y0206730D03*
X0155570Y0205470D03*
X0156480Y0209320D03*
X0155500Y0210510D03*
D90*
X0139470Y0210440D03*
X0113570Y0204490D03*
D91*
X0124665Y0204490D03*
X0125785Y0210440D03*
X0124455Y0211490D03*
X0118785Y0216600D03*
X0149585Y0205540D03*
D92*
X0159875Y0206310D03*
X0159875Y0206380D03*
X0130615Y0207360D03*
X0120815Y0208760D03*
X0113535Y0204560D03*
X0113465Y0204630D03*
X0113395Y0212820D03*
X0113535Y0212960D03*
D93*
X0124665Y0212960D03*
X0124665Y0204560D03*
X0140905Y0205470D03*
X0154275Y0209110D03*
X0154275Y0209180D03*
D94*
X0154310Y0208970D03*
X0156830Y0207010D03*
X0156830Y0206870D03*
X0156760Y0206730D03*
X0141010Y0211980D03*
X0125680Y0210370D03*
X0124490Y0211560D03*
X0122320Y0213730D03*
X0124630Y0204630D03*
D95*
X0113395Y0204700D03*
X0113465Y0212890D03*
X0145595Y0208690D03*
X0149655Y0206100D03*
X0159875Y0206450D03*
D96*
X0159210Y0207500D03*
X0159210Y0207640D03*
X0159210Y0207850D03*
X0159210Y0207990D03*
X0159210Y0208200D03*
X0159210Y0208340D03*
X0159210Y0208550D03*
X0159210Y0208690D03*
X0159210Y0208900D03*
X0159210Y0209040D03*
X0159210Y0210650D03*
X0159210Y0210790D03*
X0159210Y0211000D03*
X0159210Y0211140D03*
X0159210Y0211350D03*
X0159210Y0211490D03*
X0159210Y0211700D03*
X0152000Y0210440D03*
X0152000Y0210300D03*
X0152000Y0210090D03*
X0152000Y0209950D03*
X0152000Y0209740D03*
X0152000Y0209600D03*
X0152000Y0209390D03*
X0152000Y0209250D03*
X0152000Y0209040D03*
X0152000Y0208900D03*
X0152000Y0208690D03*
X0152000Y0208550D03*
X0152000Y0208340D03*
X0152000Y0208200D03*
X0152000Y0207990D03*
X0152000Y0207850D03*
X0152000Y0206100D03*
X0152000Y0205890D03*
X0152000Y0205750D03*
X0152000Y0205540D03*
X0148780Y0207850D03*
X0148780Y0207990D03*
X0148780Y0208200D03*
X0148780Y0208340D03*
X0148780Y0208550D03*
X0148780Y0208690D03*
X0148780Y0208900D03*
X0148780Y0209040D03*
X0148780Y0209250D03*
X0148780Y0209390D03*
X0148780Y0209600D03*
X0148780Y0209740D03*
X0148780Y0209950D03*
X0148780Y0210090D03*
X0148780Y0210300D03*
X0148780Y0210440D03*
X0145070Y0210440D03*
X0145070Y0210300D03*
X0145070Y0210090D03*
X0145070Y0209950D03*
X0145070Y0209740D03*
X0145070Y0209600D03*
X0145070Y0207290D03*
X0145070Y0207150D03*
X0145070Y0206940D03*
X0145070Y0206800D03*
X0145070Y0206590D03*
X0145070Y0206450D03*
X0145070Y0206240D03*
X0145070Y0206100D03*
X0145070Y0205890D03*
X0145070Y0205750D03*
X0145070Y0205540D03*
X0136040Y0205540D03*
X0136040Y0205750D03*
X0136040Y0205890D03*
X0136040Y0206100D03*
X0136040Y0206240D03*
X0136040Y0206450D03*
X0136040Y0206590D03*
X0136040Y0206800D03*
X0136040Y0206940D03*
X0136040Y0207150D03*
X0136040Y0207290D03*
X0136040Y0207500D03*
X0136040Y0207640D03*
X0136040Y0207850D03*
X0136040Y0207990D03*
X0136040Y0208200D03*
X0136040Y0208340D03*
X0136040Y0208550D03*
X0136040Y0208690D03*
X0136040Y0208900D03*
X0136040Y0209040D03*
X0136040Y0209250D03*
X0136040Y0209390D03*
X0136040Y0209600D03*
X0136040Y0209740D03*
X0136040Y0209950D03*
X0136040Y0210090D03*
X0136040Y0210300D03*
X0136040Y0210440D03*
X0133730Y0209740D03*
X0133730Y0209600D03*
X0133730Y0209390D03*
X0130090Y0209390D03*
X0130090Y0209250D03*
X0130090Y0209040D03*
X0130090Y0208900D03*
X0130090Y0209600D03*
X0130090Y0209740D03*
X0130090Y0209950D03*
X0130090Y0210090D03*
X0130090Y0210300D03*
X0130090Y0207290D03*
X0130090Y0207150D03*
X0130090Y0206940D03*
X0130090Y0206800D03*
X0130090Y0206590D03*
X0130090Y0206450D03*
X0130090Y0206240D03*
X0130090Y0206100D03*
X0130090Y0205890D03*
X0130090Y0205750D03*
X0130090Y0205540D03*
X0124630Y0204700D03*
D97*
X0113360Y0204770D03*
X0113220Y0204910D03*
X0113220Y0212610D03*
X0113290Y0212680D03*
X0149620Y0206030D03*
X0159910Y0206170D03*
D98*
X0159280Y0207080D03*
X0154450Y0208830D03*
X0151930Y0207360D03*
X0148850Y0207360D03*
X0145140Y0207780D03*
X0145140Y0207920D03*
X0138630Y0207920D03*
X0138490Y0208620D03*
X0138490Y0208760D03*
X0138490Y0208830D03*
X0138630Y0209530D03*
X0124630Y0204770D03*
D99*
X0120920Y0210650D03*
X0113360Y0212750D03*
X0113290Y0204840D03*
X0154870Y0208550D03*
X0159910Y0206240D03*
D100*
X0159385Y0206940D03*
X0155535Y0205540D03*
X0155535Y0210440D03*
X0145175Y0207990D03*
X0138735Y0207640D03*
X0138665Y0207850D03*
X0138595Y0207990D03*
X0138735Y0209740D03*
X0124595Y0204840D03*
X0117245Y0205050D03*
D101*
X0117245Y0205120D03*
X0117245Y0205260D03*
X0117245Y0205330D03*
X0117245Y0205470D03*
X0117245Y0205610D03*
X0117245Y0205680D03*
X0117245Y0205820D03*
X0117245Y0205960D03*
X0117245Y0206030D03*
X0117245Y0206170D03*
X0117245Y0206310D03*
X0117245Y0206380D03*
X0117245Y0206520D03*
X0117245Y0206660D03*
X0117245Y0206730D03*
X0117245Y0206870D03*
X0117245Y0207010D03*
X0117245Y0207080D03*
X0117245Y0208760D03*
X0117245Y0208830D03*
X0117245Y0208970D03*
X0117245Y0209110D03*
X0117245Y0209180D03*
X0117245Y0209320D03*
X0117245Y0209460D03*
X0117245Y0209530D03*
X0117245Y0209670D03*
X0117245Y0209810D03*
X0117245Y0209880D03*
X0117245Y0210020D03*
X0117245Y0210160D03*
X0117245Y0210230D03*
X0117245Y0210370D03*
X0117245Y0210510D03*
X0117245Y0210580D03*
X0121375Y0210160D03*
X0121375Y0209320D03*
X0121305Y0209180D03*
X0124595Y0212610D03*
X0124595Y0204910D03*
X0138875Y0207430D03*
X0138875Y0210020D03*
X0145245Y0208270D03*
X0151825Y0207080D03*
X0154555Y0208760D03*
D102*
X0156235Y0207430D03*
X0155465Y0205680D03*
X0159945Y0206030D03*
X0122145Y0214080D03*
X0113115Y0212470D03*
X0113185Y0204980D03*
D103*
X0111960Y0208480D03*
X0111960Y0208620D03*
X0111960Y0208760D03*
X0111960Y0208830D03*
X0111960Y0208970D03*
X0112100Y0210020D03*
X0121270Y0209110D03*
X0125470Y0209810D03*
X0125470Y0207780D03*
X0125470Y0207710D03*
X0124560Y0204980D03*
X0124700Y0211770D03*
X0138910Y0207360D03*
X0141010Y0211910D03*
X0149060Y0207010D03*
D104*
X0154660Y0208690D03*
X0142130Y0210440D03*
X0139120Y0210300D03*
X0125260Y0206800D03*
X0125190Y0206590D03*
X0125120Y0206450D03*
X0125050Y0206240D03*
X0124560Y0205050D03*
X0112380Y0206450D03*
X0112310Y0206590D03*
X0112240Y0206940D03*
X0112170Y0207150D03*
X0112240Y0210650D03*
X0112310Y0210790D03*
X0112380Y0211000D03*
D105*
X0112940Y0205330D03*
X0113080Y0205120D03*
X0140940Y0205610D03*
X0145490Y0208620D03*
X0149620Y0205960D03*
X0159980Y0205960D03*
D106*
X0156375Y0207360D03*
X0155465Y0205610D03*
X0125155Y0206520D03*
X0125085Y0206310D03*
X0125015Y0206170D03*
X0124945Y0206030D03*
X0124525Y0205120D03*
X0121165Y0210510D03*
X0112555Y0211420D03*
X0112485Y0211280D03*
X0112415Y0206380D03*
X0112485Y0206170D03*
X0112555Y0206030D03*
D107*
X0113010Y0205190D03*
X0141010Y0211840D03*
D108*
X0138805Y0207500D03*
X0133485Y0208900D03*
X0121375Y0209390D03*
X0121375Y0210090D03*
X0117245Y0210090D03*
X0117245Y0209950D03*
X0117245Y0209740D03*
X0117245Y0209600D03*
X0117245Y0209390D03*
X0117245Y0209250D03*
X0117245Y0209040D03*
X0117245Y0208900D03*
X0117245Y0210300D03*
X0117245Y0210440D03*
X0117245Y0210650D03*
X0117245Y0207150D03*
X0117245Y0206940D03*
X0117245Y0206800D03*
X0117245Y0206590D03*
X0117245Y0206450D03*
X0117245Y0206240D03*
X0117245Y0206100D03*
X0117245Y0205890D03*
X0117245Y0205750D03*
X0117245Y0205540D03*
X0117245Y0205400D03*
X0117245Y0205190D03*
X0149585Y0205750D03*
D109*
X0124525Y0205190D03*
X0124595Y0212190D03*
X0112835Y0212050D03*
X0112835Y0205540D03*
D110*
X0113010Y0205260D03*
X0113010Y0212260D03*
X0113010Y0212330D03*
X0124560Y0205260D03*
D111*
X0124595Y0205330D03*
X0124735Y0205610D03*
X0121025Y0208830D03*
X0121095Y0210580D03*
X0124525Y0212260D03*
X0124525Y0212330D03*
X0124595Y0212120D03*
X0124735Y0211910D03*
X0112835Y0211980D03*
X0112835Y0205470D03*
X0139225Y0207080D03*
X0139225Y0210370D03*
D112*
X0124665Y0212050D03*
X0112905Y0205400D03*
X0160015Y0205890D03*
D113*
X0124630Y0205400D03*
X0113080Y0212400D03*
X0112940Y0212190D03*
D114*
X0122460Y0213240D03*
X0140940Y0205400D03*
X0142410Y0207640D03*
X0156830Y0209040D03*
D115*
X0154765Y0208620D03*
X0160015Y0205820D03*
X0133205Y0208760D03*
X0124665Y0205470D03*
X0112765Y0205610D03*
X0112765Y0211910D03*
X0112905Y0212120D03*
D116*
X0124630Y0212820D03*
X0130090Y0210370D03*
X0130090Y0210230D03*
X0130090Y0210160D03*
X0130090Y0210020D03*
X0130090Y0209880D03*
X0130090Y0209810D03*
X0130090Y0209670D03*
X0130090Y0209530D03*
X0130090Y0209460D03*
X0130090Y0209320D03*
X0130090Y0209180D03*
X0130090Y0209110D03*
X0130090Y0208970D03*
X0130090Y0208830D03*
X0130090Y0207220D03*
X0130090Y0207080D03*
X0130090Y0207010D03*
X0130090Y0206870D03*
X0130090Y0206730D03*
X0130090Y0206660D03*
X0130090Y0206520D03*
X0130090Y0206380D03*
X0130090Y0206310D03*
X0130090Y0206170D03*
X0130090Y0206030D03*
X0130090Y0205960D03*
X0130090Y0205820D03*
X0130090Y0205680D03*
X0130090Y0205610D03*
X0133730Y0209460D03*
X0133730Y0209530D03*
X0133730Y0209810D03*
X0136040Y0209810D03*
X0136040Y0209880D03*
X0136040Y0210020D03*
X0136040Y0210160D03*
X0136040Y0210230D03*
X0136040Y0210370D03*
X0136040Y0209670D03*
X0136040Y0209530D03*
X0136040Y0209460D03*
X0136040Y0209320D03*
X0136040Y0209180D03*
X0136040Y0209110D03*
X0136040Y0208970D03*
X0136040Y0208830D03*
X0136040Y0208760D03*
X0136040Y0208620D03*
X0136040Y0208480D03*
X0136040Y0208410D03*
X0136040Y0208270D03*
X0136040Y0208130D03*
X0136040Y0208060D03*
X0136040Y0207920D03*
X0136040Y0207780D03*
X0136040Y0207710D03*
X0136040Y0207570D03*
X0136040Y0207430D03*
X0136040Y0207360D03*
X0136040Y0207220D03*
X0136040Y0207080D03*
X0136040Y0207010D03*
X0136040Y0206870D03*
X0136040Y0206730D03*
X0136040Y0206660D03*
X0136040Y0206520D03*
X0136040Y0206380D03*
X0136040Y0206310D03*
X0136040Y0206170D03*
X0136040Y0206030D03*
X0136040Y0205960D03*
X0136040Y0205820D03*
X0136040Y0205680D03*
X0136040Y0205610D03*
X0145070Y0205610D03*
X0145070Y0205680D03*
X0145070Y0205820D03*
X0145070Y0205960D03*
X0145070Y0206030D03*
X0145070Y0206170D03*
X0145070Y0206310D03*
X0145070Y0206380D03*
X0145070Y0206520D03*
X0145070Y0206660D03*
X0145070Y0206730D03*
X0145070Y0206870D03*
X0145070Y0207010D03*
X0145070Y0207080D03*
X0145070Y0207220D03*
X0145070Y0209670D03*
X0145070Y0209810D03*
X0145070Y0209880D03*
X0145070Y0210020D03*
X0145070Y0210160D03*
X0145070Y0210230D03*
X0145070Y0210370D03*
X0148780Y0210370D03*
X0148780Y0210230D03*
X0148780Y0210160D03*
X0148780Y0210020D03*
X0148780Y0209880D03*
X0148780Y0209810D03*
X0148780Y0209670D03*
X0148780Y0209530D03*
X0148780Y0209460D03*
X0148780Y0209320D03*
X0148780Y0209180D03*
X0148780Y0209110D03*
X0148780Y0208970D03*
X0148780Y0208830D03*
X0148780Y0208760D03*
X0148780Y0208620D03*
X0148780Y0208480D03*
X0148780Y0208410D03*
X0148780Y0208270D03*
X0148780Y0208130D03*
X0148780Y0208060D03*
X0148780Y0207920D03*
X0148780Y0207780D03*
X0148780Y0207710D03*
X0152000Y0207710D03*
X0152000Y0207780D03*
X0152000Y0207920D03*
X0152000Y0208060D03*
X0152000Y0208130D03*
X0152000Y0208270D03*
X0152000Y0208410D03*
X0152000Y0208480D03*
X0152000Y0208620D03*
X0152000Y0208760D03*
X0152000Y0208830D03*
X0152000Y0208970D03*
X0152000Y0209110D03*
X0152000Y0209180D03*
X0152000Y0209320D03*
X0152000Y0209460D03*
X0152000Y0209530D03*
X0152000Y0209670D03*
X0152000Y0209810D03*
X0152000Y0209880D03*
X0152000Y0210020D03*
X0152000Y0210160D03*
X0152000Y0210230D03*
X0152000Y0210370D03*
X0152000Y0206030D03*
X0152000Y0205960D03*
X0152000Y0205820D03*
X0152000Y0205680D03*
X0152000Y0205610D03*
X0156690Y0206660D03*
X0159210Y0207430D03*
X0159210Y0207570D03*
X0159210Y0207710D03*
X0159210Y0207780D03*
X0159210Y0207920D03*
X0159210Y0208060D03*
X0159210Y0208130D03*
X0159210Y0208270D03*
X0159210Y0208410D03*
X0159210Y0208480D03*
X0159210Y0208620D03*
X0159210Y0208760D03*
X0159210Y0208830D03*
X0159210Y0208970D03*
X0159210Y0210580D03*
X0159210Y0210720D03*
X0159210Y0210860D03*
X0159210Y0210930D03*
X0159210Y0211070D03*
X0159210Y0211210D03*
X0159210Y0211280D03*
X0159210Y0211420D03*
X0159210Y0211560D03*
X0159210Y0211630D03*
D117*
X0156795Y0207080D03*
X0154415Y0206660D03*
X0154345Y0209320D03*
X0149585Y0205610D03*
D118*
X0149585Y0205680D03*
X0148885Y0207220D03*
X0151895Y0207220D03*
X0145175Y0208060D03*
X0138735Y0207710D03*
X0138665Y0207780D03*
X0138595Y0209460D03*
X0138665Y0209670D03*
X0138735Y0209810D03*
X0133625Y0210160D03*
X0133555Y0208970D03*
X0124595Y0212680D03*
X0160085Y0205610D03*
D119*
X0160085Y0205680D03*
X0125435Y0207360D03*
X0125435Y0207430D03*
X0125435Y0207570D03*
X0125435Y0209880D03*
X0125435Y0210020D03*
X0125435Y0210160D03*
X0112135Y0210160D03*
X0112135Y0210230D03*
X0112135Y0207430D03*
X0112135Y0207360D03*
X0112135Y0207220D03*
D120*
X0112485Y0206240D03*
X0112555Y0206100D03*
X0112415Y0211140D03*
X0112485Y0211350D03*
X0112555Y0211490D03*
X0121095Y0208900D03*
X0124735Y0211840D03*
X0125015Y0206100D03*
X0139155Y0207150D03*
X0160085Y0205750D03*
D121*
X0155570Y0210370D03*
X0149620Y0205820D03*
X0145350Y0208480D03*
X0139050Y0207220D03*
X0139050Y0210230D03*
X0125330Y0207080D03*
X0125260Y0206870D03*
X0125260Y0206730D03*
X0125190Y0206660D03*
X0125120Y0206380D03*
X0124560Y0212470D03*
X0112450Y0211210D03*
X0112380Y0211070D03*
X0112310Y0210930D03*
X0112310Y0210860D03*
X0112240Y0210580D03*
X0112170Y0210370D03*
X0112240Y0206870D03*
X0112310Y0206730D03*
X0112310Y0206660D03*
X0112380Y0206520D03*
X0112450Y0206310D03*
D122*
X0121865Y0214290D03*
X0140905Y0205890D03*
X0155465Y0209600D03*
X0155675Y0209950D03*
D123*
X0155570Y0209810D03*
X0155500Y0209670D03*
X0155430Y0209530D03*
X0155360Y0205960D03*
D124*
X0155395Y0206310D03*
X0155535Y0206520D03*
X0140905Y0206030D03*
X0140975Y0211420D03*
X0115145Y0214220D03*
D125*
X0140940Y0206100D03*
D126*
X0140940Y0206170D03*
X0131420Y0207780D03*
X0131420Y0211560D03*
X0118750Y0216320D03*
D127*
X0140940Y0206310D03*
X0150530Y0206170D03*
D128*
X0155290Y0206170D03*
X0155430Y0206380D03*
D129*
X0140940Y0206240D03*
X0118470Y0212190D03*
D130*
X0140975Y0211140D03*
X0150495Y0206240D03*
D131*
X0155360Y0206240D03*
X0131280Y0207640D03*
D132*
X0131595Y0208060D03*
X0131595Y0211280D03*
X0118575Y0212120D03*
X0150495Y0206380D03*
X0150495Y0206310D03*
D133*
X0140940Y0206450D03*
D134*
X0150460Y0206450D03*
X0150460Y0206590D03*
X0118750Y0216250D03*
X0118610Y0207500D03*
D135*
X0131770Y0208480D03*
X0131770Y0210860D03*
X0140940Y0206520D03*
D136*
X0156130Y0207500D03*
X0159840Y0206800D03*
X0159840Y0206590D03*
X0113640Y0213100D03*
D137*
X0140765Y0210510D03*
X0140905Y0206660D03*
D138*
X0140975Y0211070D03*
X0150425Y0206870D03*
X0150425Y0206730D03*
X0150425Y0206660D03*
D139*
X0140905Y0206730D03*
X0140765Y0207010D03*
X0118925Y0207920D03*
D140*
X0125295Y0206940D03*
X0125365Y0207150D03*
X0125365Y0207290D03*
X0125505Y0207850D03*
X0125505Y0207990D03*
X0125505Y0209600D03*
X0122215Y0213940D03*
X0112205Y0210440D03*
X0112065Y0209950D03*
X0112065Y0209740D03*
X0111995Y0209390D03*
X0111995Y0209250D03*
X0111995Y0208340D03*
X0111995Y0208200D03*
X0112065Y0207640D03*
X0112275Y0206800D03*
X0156515Y0207290D03*
D141*
X0140940Y0206800D03*
X0140800Y0206940D03*
X0118960Y0207990D03*
D142*
X0118645Y0212050D03*
X0131665Y0211140D03*
X0131665Y0208200D03*
X0150425Y0206940D03*
X0150425Y0206800D03*
D143*
X0154275Y0209040D03*
X0156795Y0206800D03*
X0142375Y0210300D03*
D144*
X0142410Y0210020D03*
X0154100Y0206870D03*
D145*
X0154030Y0206940D03*
D146*
X0161065Y0206940D03*
D147*
X0159315Y0207010D03*
X0151965Y0207430D03*
X0151965Y0207570D03*
X0148815Y0207570D03*
X0148815Y0207430D03*
X0145105Y0207430D03*
X0145105Y0207360D03*
X0145105Y0207570D03*
X0145105Y0207710D03*
X0142305Y0210370D03*
X0136005Y0211070D03*
X0136005Y0211210D03*
X0136005Y0211280D03*
X0136005Y0211420D03*
X0136005Y0211560D03*
X0136005Y0211630D03*
X0136005Y0211770D03*
X0136005Y0211910D03*
X0136005Y0211980D03*
X0136005Y0212120D03*
X0133765Y0209670D03*
D148*
X0155465Y0210580D03*
X0156865Y0208970D03*
X0161205Y0207010D03*
D149*
X0156620Y0207220D03*
X0148990Y0207080D03*
X0145210Y0208130D03*
X0142410Y0207080D03*
X0138770Y0207570D03*
X0138770Y0209880D03*
X0133590Y0210230D03*
X0125470Y0210230D03*
X0121410Y0210020D03*
X0121410Y0209880D03*
X0121410Y0209810D03*
X0121410Y0209670D03*
X0121410Y0209530D03*
X0121410Y0209460D03*
X0122250Y0213870D03*
D150*
X0142375Y0209810D03*
X0153925Y0207080D03*
D151*
X0154345Y0208900D03*
X0142445Y0207150D03*
X0124665Y0212890D03*
D152*
X0153925Y0207150D03*
D153*
X0156725Y0207150D03*
X0159245Y0207150D03*
X0159245Y0207290D03*
X0138525Y0208340D03*
X0138525Y0208550D03*
X0138525Y0208900D03*
X0138525Y0209040D03*
X0133695Y0209250D03*
X0133695Y0209950D03*
X0130125Y0210440D03*
X0125575Y0210300D03*
X0122285Y0213800D03*
D154*
X0142480Y0207220D03*
D155*
X0125435Y0207500D03*
X0125435Y0207640D03*
X0125435Y0209950D03*
X0125435Y0210090D03*
X0121235Y0210440D03*
X0121235Y0209040D03*
X0112135Y0210090D03*
X0112135Y0210300D03*
X0112135Y0207290D03*
D156*
X0118295Y0207290D03*
D157*
X0121340Y0209250D03*
X0121340Y0210300D03*
X0125540Y0209390D03*
X0125540Y0209250D03*
X0125540Y0209040D03*
X0125540Y0208900D03*
X0125540Y0208690D03*
X0125540Y0208550D03*
X0125540Y0208340D03*
X0125540Y0208200D03*
X0138980Y0207290D03*
X0145280Y0208340D03*
X0112030Y0207990D03*
X0112030Y0207850D03*
X0112030Y0209600D03*
D158*
X0124630Y0212750D03*
X0133590Y0209040D03*
X0138490Y0208690D03*
X0138630Y0209600D03*
X0145140Y0207850D03*
X0148850Y0207290D03*
X0151930Y0207290D03*
D159*
X0140975Y0211280D03*
X0118435Y0207360D03*
D160*
X0118505Y0207430D03*
X0121515Y0214430D03*
D161*
X0124280Y0211280D03*
X0125960Y0210580D03*
X0142480Y0207430D03*
X0147100Y0210370D03*
D162*
X0138910Y0210090D03*
X0125470Y0209740D03*
X0124560Y0212540D03*
X0111960Y0209040D03*
X0111960Y0208900D03*
X0111960Y0208690D03*
X0111960Y0208550D03*
X0112100Y0207500D03*
D163*
X0136005Y0211000D03*
X0136005Y0211140D03*
X0136005Y0211350D03*
X0136005Y0211490D03*
X0136005Y0211700D03*
X0136005Y0211840D03*
X0136005Y0212050D03*
X0136005Y0212190D03*
X0145105Y0207640D03*
X0145105Y0207500D03*
X0148815Y0207500D03*
X0148815Y0207640D03*
X0151965Y0207640D03*
X0151965Y0207500D03*
D164*
X0118680Y0207570D03*
D165*
X0131175Y0207570D03*
X0131175Y0211770D03*
D166*
X0156025Y0207570D03*
D167*
X0140975Y0210930D03*
X0131805Y0210720D03*
X0131805Y0208620D03*
X0118785Y0207710D03*
X0118785Y0211910D03*
D168*
X0122460Y0213170D03*
X0124770Y0213730D03*
X0142410Y0207710D03*
D169*
X0140940Y0210860D03*
X0131840Y0210580D03*
X0131840Y0210510D03*
X0118820Y0207780D03*
X0118750Y0216180D03*
D170*
X0114305Y0213730D03*
X0145875Y0209530D03*
X0145875Y0209460D03*
X0145875Y0209320D03*
X0145875Y0209180D03*
X0145875Y0209110D03*
X0145875Y0208970D03*
X0145875Y0208830D03*
X0145875Y0208760D03*
X0155745Y0207780D03*
D171*
X0140940Y0210790D03*
X0140870Y0210650D03*
X0118890Y0207850D03*
D172*
X0131455Y0207850D03*
X0131455Y0211490D03*
D173*
X0133380Y0208830D03*
X0138980Y0210160D03*
X0125540Y0209320D03*
X0125540Y0209180D03*
X0125540Y0209110D03*
X0125540Y0208970D03*
X0125540Y0208830D03*
X0125540Y0208760D03*
X0125540Y0208620D03*
X0125540Y0208480D03*
X0125540Y0208410D03*
X0125540Y0208270D03*
X0125540Y0208130D03*
X0121340Y0210230D03*
X0112030Y0209670D03*
X0112030Y0209530D03*
X0112030Y0209460D03*
X0112030Y0208060D03*
X0112030Y0207920D03*
D174*
X0131525Y0207920D03*
X0131525Y0211420D03*
X0140975Y0211210D03*
D175*
X0131560Y0211350D03*
X0131560Y0207990D03*
D176*
X0114410Y0213800D03*
X0155570Y0207990D03*
D177*
X0138560Y0208060D03*
X0138560Y0208130D03*
X0138560Y0209320D03*
X0133660Y0209110D03*
D178*
X0119030Y0208130D03*
D179*
X0119065Y0208200D03*
D180*
X0133660Y0210090D03*
X0138560Y0209390D03*
X0138560Y0209250D03*
X0138560Y0208200D03*
D181*
X0119100Y0208270D03*
X0119100Y0211280D03*
D182*
X0131700Y0211070D03*
X0131700Y0208270D03*
D183*
X0119100Y0208340D03*
X0119100Y0211350D03*
D184*
X0131735Y0211000D03*
X0131735Y0208340D03*
D185*
X0119135Y0208410D03*
X0119135Y0208480D03*
X0119135Y0211210D03*
D186*
X0131735Y0210930D03*
X0131735Y0208410D03*
D187*
X0113570Y0213030D03*
X0155010Y0208480D03*
D188*
X0119170Y0208550D03*
X0118750Y0216040D03*
D189*
X0131805Y0210790D03*
X0131805Y0208550D03*
D190*
X0119205Y0208620D03*
X0119205Y0210930D03*
D191*
X0119205Y0211000D03*
X0119205Y0208690D03*
D192*
X0156760Y0209110D03*
D193*
X0159525Y0209110D03*
X0159525Y0209180D03*
X0159525Y0209320D03*
X0159525Y0209460D03*
X0159525Y0209530D03*
X0159525Y0209670D03*
X0159525Y0209810D03*
X0159525Y0209880D03*
X0159525Y0210020D03*
X0159525Y0210160D03*
X0159525Y0210230D03*
X0159525Y0210370D03*
X0114515Y0213870D03*
D194*
X0156690Y0209180D03*
D195*
X0155360Y0209390D03*
D196*
X0146785Y0209600D03*
D197*
X0146820Y0209670D03*
D198*
X0142340Y0209740D03*
D199*
X0146820Y0209740D03*
D200*
X0155535Y0209740D03*
X0131035Y0211840D03*
D201*
X0124700Y0213100D03*
X0146890Y0209950D03*
D202*
X0146925Y0210020D03*
X0124385Y0211420D03*
D203*
X0142410Y0210090D03*
D204*
X0146960Y0210090D03*
D205*
X0142375Y0210160D03*
D206*
X0146960Y0210160D03*
D207*
X0147065Y0210300D03*
D208*
X0147170Y0210440D03*
D209*
X0125855Y0210510D03*
D210*
X0118890Y0211770D03*
X0140800Y0210580D03*
X0140940Y0210720D03*
D211*
X0119240Y0210720D03*
X0119240Y0210860D03*
D212*
X0126170Y0210720D03*
D213*
X0119240Y0210790D03*
D214*
X0126275Y0210790D03*
D215*
X0119135Y0211140D03*
D216*
X0140975Y0211350D03*
D217*
X0119065Y0211420D03*
D218*
X0119030Y0211490D03*
D219*
X0140975Y0211490D03*
D220*
X0118960Y0211630D03*
D221*
X0118925Y0211700D03*
D222*
X0140975Y0211700D03*
D223*
X0130825Y0211910D03*
D224*
X0118715Y0211980D03*
X0115845Y0214430D03*
D225*
X0118365Y0212260D03*
D226*
X0118190Y0212330D03*
D227*
X0117910Y0212400D03*
D228*
X0122460Y0213100D03*
X0124770Y0213800D03*
D229*
X0124735Y0213380D03*
D230*
X0122425Y0213450D03*
D231*
X0114165Y0213590D03*
D232*
X0124735Y0213590D03*
D233*
X0114620Y0213940D03*
D234*
X0114865Y0214080D03*
D235*
X0115005Y0214150D03*
D236*
X0115320Y0214290D03*
D237*
X0118750Y0214640D03*
D238*
X0118750Y0214780D03*
D239*
X0118750Y0214850D03*
D240*
X0118785Y0214920D03*
D241*
X0118750Y0214990D03*
D242*
X0118785Y0215130D03*
D243*
X0118750Y0215200D03*
D244*
X0118750Y0215270D03*
D245*
X0118750Y0215340D03*
D246*
X0118750Y0215480D03*
D247*
X0118785Y0215550D03*
D248*
X0118785Y0215620D03*
D249*
X0118750Y0215690D03*
D250*
X0118750Y0215830D03*
D251*
X0118750Y0215900D03*
D252*
X0118785Y0215970D03*
D253*
X0118750Y0216390D03*
D254*
X0099390Y0211640D03*
X0092760Y0211640D03*
X0087660Y0211640D03*
X0085830Y0211640D03*
X0082740Y0211640D03*
X0080970Y0212000D03*
X0076980Y0208610D03*
X0072930Y0211640D03*
X0072930Y0212210D03*
X0072930Y0213380D03*
X0052680Y0213740D03*
X0052680Y0206600D03*
X0052680Y0193760D03*
X0099360Y0204620D03*
D255*
X0097740Y0207740D03*
X0097740Y0207770D03*
X0097740Y0207800D03*
X0097740Y0207830D03*
X0097740Y0207860D03*
X0097740Y0207890D03*
X0097740Y0207920D03*
X0097740Y0207950D03*
X0097740Y0207980D03*
X0097740Y0208010D03*
X0097740Y0208040D03*
X0097740Y0208070D03*
X0097740Y0208100D03*
X0097740Y0208130D03*
X0097740Y0208160D03*
X0097740Y0208190D03*
X0097740Y0208220D03*
X0097740Y0208250D03*
X0097740Y0208280D03*
X0097740Y0208310D03*
X0097740Y0208340D03*
X0097740Y0208370D03*
X0097740Y0208400D03*
X0097740Y0208430D03*
X0097740Y0208460D03*
X0097740Y0208490D03*
X0097740Y0208520D03*
X0097740Y0208550D03*
X0097740Y0208580D03*
X0097740Y0208610D03*
X0097740Y0208640D03*
X0097740Y0208670D03*
X0097740Y0208700D03*
X0097740Y0208730D03*
X0097740Y0208760D03*
X0097740Y0208790D03*
X0097740Y0208820D03*
X0097740Y0208850D03*
X0097740Y0208880D03*
X0097740Y0208910D03*
X0097740Y0208940D03*
X0097740Y0208970D03*
X0097740Y0209000D03*
X0097740Y0209030D03*
X0097740Y0209060D03*
X0097740Y0209090D03*
X0097740Y0209120D03*
X0097740Y0209150D03*
X0097740Y0209180D03*
X0097740Y0209210D03*
X0097740Y0209240D03*
X0097740Y0209270D03*
X0097740Y0209300D03*
X0097740Y0209330D03*
X0097740Y0209360D03*
X0097740Y0209390D03*
X0097740Y0209420D03*
X0097740Y0209450D03*
X0097740Y0209480D03*
X0097740Y0209510D03*
X0097740Y0209540D03*
X0097740Y0209570D03*
X0097740Y0209600D03*
X0097740Y0209630D03*
X0097740Y0209660D03*
X0097740Y0209690D03*
X0097740Y0209720D03*
X0097740Y0209750D03*
X0097740Y0209780D03*
X0097740Y0209810D03*
X0097740Y0209840D03*
X0097740Y0209870D03*
X0097740Y0209900D03*
X0097740Y0209930D03*
X0097740Y0209960D03*
X0097740Y0209990D03*
X0097740Y0210020D03*
X0097740Y0210050D03*
X0097740Y0210080D03*
X0097740Y0210110D03*
X0097740Y0210140D03*
X0097740Y0210170D03*
X0097740Y0210200D03*
X0097740Y0210230D03*
X0097740Y0210260D03*
X0097740Y0210290D03*
X0097740Y0210320D03*
X0097740Y0210350D03*
X0097740Y0210380D03*
X0097740Y0210410D03*
X0097740Y0210440D03*
X0097740Y0210470D03*
X0097740Y0210500D03*
X0097740Y0210530D03*
X0097740Y0210560D03*
X0097740Y0210590D03*
X0097740Y0210620D03*
X0097740Y0210650D03*
X0097740Y0210680D03*
X0097740Y0210710D03*
X0097740Y0210740D03*
X0097740Y0210770D03*
X0097740Y0210800D03*
X0097740Y0210830D03*
X0097740Y0210860D03*
X0097740Y0210890D03*
X0097740Y0210920D03*
X0097740Y0210950D03*
X0097740Y0210980D03*
X0097740Y0211010D03*
X0097740Y0211040D03*
X0097740Y0211070D03*
X0097740Y0211100D03*
X0097740Y0211130D03*
X0097740Y0211160D03*
X0097740Y0211190D03*
X0097740Y0211220D03*
X0097740Y0211250D03*
X0097740Y0211280D03*
X0097740Y0211310D03*
X0097740Y0211340D03*
X0097740Y0211370D03*
X0097740Y0211400D03*
X0097740Y0211430D03*
X0097740Y0211460D03*
X0097740Y0211490D03*
X0097740Y0211520D03*
X0097740Y0211550D03*
X0097740Y0211580D03*
X0097740Y0211610D03*
X0097740Y0211640D03*
X0097740Y0211670D03*
X0097740Y0211700D03*
X0097740Y0211730D03*
X0097740Y0211760D03*
X0097740Y0211790D03*
X0097740Y0211820D03*
X0097740Y0211850D03*
X0097740Y0211880D03*
X0097740Y0211910D03*
X0097740Y0211940D03*
X0097740Y0211970D03*
X0097740Y0212000D03*
X0097740Y0212030D03*
X0097740Y0212060D03*
X0097740Y0212090D03*
X0097740Y0212120D03*
X0097740Y0212150D03*
X0097740Y0212180D03*
X0097740Y0212210D03*
X0097740Y0212240D03*
X0097740Y0212270D03*
X0097740Y0212300D03*
X0097740Y0212330D03*
X0097740Y0212360D03*
X0097740Y0212390D03*
X0097740Y0212420D03*
X0097740Y0212450D03*
X0097740Y0212480D03*
X0097740Y0212510D03*
X0097740Y0212540D03*
X0097740Y0212570D03*
X0097740Y0212600D03*
X0097740Y0212630D03*
X0097740Y0212660D03*
X0097740Y0212690D03*
X0097740Y0212720D03*
X0097740Y0212750D03*
X0097740Y0212780D03*
X0097740Y0212810D03*
X0097740Y0212840D03*
X0097740Y0212870D03*
X0097740Y0212900D03*
X0097740Y0212930D03*
X0097740Y0212960D03*
X0097740Y0212990D03*
X0097740Y0213020D03*
X0097740Y0213050D03*
X0097740Y0213080D03*
X0097740Y0213110D03*
X0097740Y0213140D03*
X0097740Y0213170D03*
X0097740Y0213200D03*
X0097740Y0213230D03*
X0097740Y0213260D03*
X0097740Y0213290D03*
X0097740Y0213320D03*
X0097740Y0213350D03*
X0097740Y0213380D03*
X0097740Y0213410D03*
X0097740Y0213440D03*
X0097740Y0213470D03*
X0097740Y0213500D03*
X0097740Y0213530D03*
X0097740Y0213560D03*
X0097740Y0213590D03*
X0097740Y0213620D03*
X0097740Y0213650D03*
X0097740Y0213680D03*
X0097740Y0213710D03*
X0097740Y0213740D03*
X0099390Y0211280D03*
X0099390Y0211250D03*
X0099390Y0211220D03*
X0102810Y0211250D03*
X0096150Y0209690D03*
X0096180Y0209480D03*
X0096180Y0209450D03*
X0096180Y0209420D03*
X0096180Y0209390D03*
X0096180Y0209360D03*
X0096180Y0209330D03*
X0096180Y0209300D03*
X0096180Y0208940D03*
X0096180Y0208910D03*
X0096180Y0208880D03*
X0096180Y0208850D03*
X0096180Y0208820D03*
X0096180Y0208790D03*
X0096180Y0208760D03*
X0096150Y0208550D03*
X0092730Y0208790D03*
X0092730Y0208820D03*
X0092730Y0208850D03*
X0092730Y0208880D03*
X0092730Y0208910D03*
X0092730Y0208940D03*
X0092730Y0208970D03*
X0092730Y0209000D03*
X0092730Y0209030D03*
X0092730Y0209060D03*
X0092730Y0209090D03*
X0092730Y0209120D03*
X0092730Y0209150D03*
X0092730Y0209180D03*
X0092730Y0209210D03*
X0092730Y0209240D03*
X0092730Y0209270D03*
X0092730Y0209300D03*
X0092730Y0209330D03*
X0092730Y0209360D03*
X0092730Y0209390D03*
X0092730Y0209420D03*
X0092730Y0209450D03*
X0091080Y0209510D03*
X0091080Y0209540D03*
X0091080Y0209570D03*
X0091080Y0208730D03*
X0091080Y0208700D03*
X0091080Y0208670D03*
X0089400Y0206540D03*
X0087660Y0206540D03*
X0087660Y0206510D03*
X0087660Y0206480D03*
X0087660Y0206450D03*
X0087660Y0206420D03*
X0087660Y0206390D03*
X0087660Y0206360D03*
X0087660Y0206330D03*
X0087660Y0206300D03*
X0087660Y0206270D03*
X0087660Y0206240D03*
X0087660Y0206210D03*
X0087660Y0206180D03*
X0087660Y0206150D03*
X0087660Y0206120D03*
X0087660Y0206090D03*
X0087660Y0206060D03*
X0087660Y0206030D03*
X0087660Y0206000D03*
X0087660Y0205970D03*
X0087660Y0205940D03*
X0087660Y0205910D03*
X0087660Y0205880D03*
X0087660Y0205850D03*
X0087660Y0205820D03*
X0087660Y0205790D03*
X0087660Y0205760D03*
X0087660Y0205730D03*
X0087660Y0205700D03*
X0087660Y0205670D03*
X0087660Y0205640D03*
X0087660Y0205610D03*
X0087660Y0205580D03*
X0087660Y0205550D03*
X0087660Y0205520D03*
X0087660Y0205490D03*
X0087660Y0205460D03*
X0087660Y0205430D03*
X0087660Y0205400D03*
X0087660Y0205370D03*
X0087660Y0205340D03*
X0087660Y0205310D03*
X0087660Y0205280D03*
X0087660Y0205250D03*
X0087660Y0205220D03*
X0087660Y0205190D03*
X0087660Y0205160D03*
X0087660Y0205130D03*
X0087660Y0205100D03*
X0087660Y0205070D03*
X0087660Y0205040D03*
X0087660Y0206570D03*
X0087660Y0206600D03*
X0087660Y0206630D03*
X0087660Y0206660D03*
X0087660Y0206690D03*
X0087660Y0206720D03*
X0087660Y0206750D03*
X0087660Y0206780D03*
X0087660Y0206810D03*
X0087660Y0208640D03*
X0087660Y0208670D03*
X0087660Y0208700D03*
X0087660Y0208730D03*
X0087660Y0208760D03*
X0087660Y0208790D03*
X0087660Y0208820D03*
X0087660Y0208850D03*
X0087660Y0208880D03*
X0087660Y0208910D03*
X0087660Y0209360D03*
X0087660Y0209390D03*
X0087660Y0209420D03*
X0087660Y0209450D03*
X0087660Y0209480D03*
X0087660Y0209510D03*
X0087660Y0209540D03*
X0087660Y0209570D03*
X0087660Y0209600D03*
X0085800Y0208340D03*
X0085800Y0208310D03*
X0085800Y0208280D03*
X0085800Y0208250D03*
X0085800Y0208220D03*
X0085830Y0211190D03*
X0082740Y0211190D03*
X0082740Y0211160D03*
X0082740Y0211130D03*
X0082740Y0211100D03*
X0082740Y0211070D03*
X0082740Y0211040D03*
X0082740Y0211010D03*
X0082740Y0210980D03*
X0082740Y0210950D03*
X0082740Y0210920D03*
X0082740Y0210890D03*
X0082740Y0210860D03*
X0082740Y0210830D03*
X0082740Y0210800D03*
X0082740Y0210770D03*
X0082740Y0210740D03*
X0082740Y0210710D03*
X0082740Y0210680D03*
X0082740Y0210650D03*
X0082740Y0210620D03*
X0082740Y0210590D03*
X0082740Y0210560D03*
X0082740Y0210530D03*
X0082740Y0210500D03*
X0082740Y0210470D03*
X0082740Y0210440D03*
X0082740Y0210410D03*
X0082740Y0210380D03*
X0082740Y0210350D03*
X0082740Y0210320D03*
X0082740Y0210290D03*
X0082740Y0210260D03*
X0082740Y0210230D03*
X0082740Y0210200D03*
X0082740Y0210170D03*
X0082740Y0210140D03*
X0082740Y0210110D03*
X0082740Y0210080D03*
X0082740Y0210050D03*
X0082740Y0210020D03*
X0082740Y0209990D03*
X0082740Y0209960D03*
X0082740Y0209930D03*
X0082740Y0209900D03*
X0082740Y0209870D03*
X0082740Y0209840D03*
X0082740Y0209810D03*
X0082740Y0209780D03*
X0082740Y0209750D03*
X0082740Y0209720D03*
X0082740Y0209690D03*
X0082740Y0209660D03*
X0082740Y0209630D03*
X0082740Y0209600D03*
X0082740Y0209570D03*
X0082740Y0209540D03*
X0082740Y0209510D03*
X0082740Y0209480D03*
X0082740Y0209450D03*
X0082740Y0209420D03*
X0082740Y0209390D03*
X0082740Y0209360D03*
X0082740Y0209330D03*
X0082740Y0209300D03*
X0082740Y0209270D03*
X0082740Y0209240D03*
X0082740Y0209210D03*
X0082740Y0209180D03*
X0082740Y0209150D03*
X0082740Y0209120D03*
X0082740Y0209090D03*
X0082740Y0209060D03*
X0082740Y0209030D03*
X0082740Y0209000D03*
X0082740Y0208970D03*
X0082740Y0208940D03*
X0082740Y0208910D03*
X0082740Y0208880D03*
X0082740Y0208850D03*
X0082740Y0208820D03*
X0082740Y0208790D03*
X0082740Y0208760D03*
X0082740Y0208730D03*
X0082740Y0208700D03*
X0082740Y0208670D03*
X0082740Y0208640D03*
X0082740Y0208610D03*
X0082740Y0208580D03*
X0082740Y0208550D03*
X0082740Y0208520D03*
X0082740Y0208490D03*
X0082740Y0208460D03*
X0082740Y0208430D03*
X0082740Y0208400D03*
X0082740Y0208370D03*
X0082740Y0208340D03*
X0082740Y0208310D03*
X0082740Y0208280D03*
X0082770Y0208130D03*
X0082740Y0211220D03*
X0082740Y0211250D03*
X0089400Y0211700D03*
X0092760Y0205100D03*
X0076980Y0208280D03*
X0072930Y0208280D03*
X0072930Y0208250D03*
X0072930Y0208220D03*
X0072930Y0208190D03*
X0072930Y0208160D03*
X0072930Y0208130D03*
X0072930Y0208100D03*
X0072930Y0208070D03*
X0072930Y0208040D03*
X0072930Y0208010D03*
X0072930Y0207980D03*
X0072930Y0207950D03*
X0072930Y0207920D03*
X0072930Y0207890D03*
X0072930Y0207860D03*
X0072930Y0207830D03*
X0072930Y0207800D03*
X0072930Y0207770D03*
X0072930Y0207740D03*
X0072930Y0207710D03*
X0072930Y0207680D03*
X0072930Y0207650D03*
X0072930Y0207620D03*
X0072930Y0207590D03*
X0072930Y0207560D03*
X0072930Y0207530D03*
X0072930Y0207500D03*
X0072930Y0207470D03*
X0072930Y0207440D03*
X0072930Y0207410D03*
X0072930Y0207380D03*
X0072930Y0207350D03*
X0072930Y0207320D03*
X0072930Y0207290D03*
X0072930Y0207260D03*
X0072930Y0207230D03*
X0072930Y0207200D03*
X0072930Y0207170D03*
X0072930Y0207140D03*
X0072930Y0207110D03*
X0072930Y0207080D03*
X0072930Y0207050D03*
X0072930Y0207020D03*
X0072930Y0206990D03*
X0072930Y0208310D03*
X0072930Y0208340D03*
X0072930Y0208370D03*
X0072930Y0208400D03*
X0072930Y0208430D03*
X0072930Y0208460D03*
X0072930Y0208490D03*
X0072930Y0208520D03*
X0072930Y0208550D03*
X0072930Y0208580D03*
X0072930Y0208610D03*
X0072930Y0208640D03*
X0072930Y0208670D03*
X0072930Y0208700D03*
X0072930Y0208730D03*
X0072930Y0208760D03*
X0072930Y0208790D03*
X0072930Y0208820D03*
X0072930Y0208850D03*
X0072930Y0208880D03*
X0072930Y0208910D03*
X0072930Y0208940D03*
X0072930Y0208970D03*
X0072930Y0209000D03*
X0072930Y0209030D03*
X0072930Y0209060D03*
X0072930Y0209090D03*
X0072930Y0209120D03*
X0072930Y0209150D03*
X0072930Y0209180D03*
X0072930Y0209210D03*
X0072930Y0209240D03*
X0072930Y0209270D03*
X0072930Y0209300D03*
X0072930Y0209330D03*
X0072930Y0209360D03*
X0072930Y0209390D03*
X0072930Y0209420D03*
X0072930Y0209450D03*
X0072930Y0209480D03*
X0072930Y0209510D03*
X0072930Y0209540D03*
X0072930Y0209570D03*
X0072930Y0209600D03*
X0072930Y0209630D03*
X0072930Y0209660D03*
X0072930Y0209690D03*
X0072930Y0209720D03*
X0072930Y0209750D03*
X0072930Y0209780D03*
X0072930Y0209810D03*
X0072930Y0209840D03*
X0072930Y0209870D03*
X0072930Y0209900D03*
X0072930Y0209930D03*
X0072930Y0209960D03*
X0072930Y0209990D03*
X0072930Y0210020D03*
X0072930Y0210050D03*
X0072930Y0210080D03*
X0072930Y0210110D03*
X0072930Y0210140D03*
X0072930Y0210170D03*
X0072930Y0210200D03*
X0072930Y0210230D03*
X0072930Y0210260D03*
X0072930Y0210290D03*
X0072930Y0210320D03*
X0072930Y0210350D03*
X0072930Y0210380D03*
X0072930Y0210410D03*
X0072930Y0210440D03*
X0072930Y0210470D03*
X0072930Y0210500D03*
X0072930Y0210530D03*
X0072930Y0210560D03*
X0072930Y0210590D03*
X0072930Y0210620D03*
X0072930Y0210650D03*
X0072930Y0210680D03*
X0072930Y0210710D03*
X0072930Y0210740D03*
X0072930Y0210770D03*
X0072930Y0210800D03*
X0072930Y0210830D03*
X0072930Y0210860D03*
X0072930Y0210890D03*
X0072930Y0210920D03*
X0072930Y0210950D03*
X0072930Y0210980D03*
X0072930Y0211010D03*
X0072930Y0211040D03*
X0072930Y0211070D03*
X0072930Y0211100D03*
X0072930Y0211130D03*
X0072930Y0211160D03*
X0072930Y0211190D03*
X0072930Y0211220D03*
X0072930Y0211250D03*
X0072930Y0212480D03*
X0072930Y0213110D03*
X0067680Y0206990D03*
X0067680Y0206960D03*
X0067680Y0206930D03*
X0060480Y0201260D03*
X0060450Y0201230D03*
X0060420Y0201200D03*
X0058590Y0197570D03*
X0058560Y0197540D03*
X0058530Y0197480D03*
X0058500Y0197450D03*
X0052680Y0193790D03*
X0046800Y0197510D03*
X0046770Y0197540D03*
X0044940Y0201170D03*
X0044910Y0201200D03*
X0044880Y0201230D03*
X0044880Y0201260D03*
X0044850Y0201290D03*
X0052680Y0206870D03*
X0050730Y0210440D03*
X0052680Y0213470D03*
D256*
X0050640Y0210230D03*
X0054720Y0210230D03*
X0060690Y0208250D03*
X0060720Y0204260D03*
X0060690Y0204230D03*
X0055620Y0204590D03*
X0049740Y0204560D03*
X0044640Y0204230D03*
X0044640Y0208250D03*
X0044670Y0208280D03*
X0047490Y0196850D03*
X0052680Y0193820D03*
X0055290Y0195620D03*
X0055320Y0195650D03*
X0077190Y0207890D03*
X0077580Y0211340D03*
X0080790Y0212600D03*
X0087840Y0210410D03*
X0087840Y0207830D03*
X0095730Y0207650D03*
X0099540Y0204830D03*
X0100380Y0205730D03*
X0095730Y0210590D03*
D257*
X0099630Y0205010D03*
X0087990Y0207620D03*
X0087990Y0210620D03*
X0060240Y0208700D03*
X0056070Y0208850D03*
X0054930Y0209870D03*
X0050430Y0209900D03*
X0055230Y0204170D03*
X0052680Y0200270D03*
X0050430Y0195260D03*
X0052680Y0193850D03*
X0054870Y0195230D03*
X0057540Y0196670D03*
X0047820Y0196670D03*
D258*
X0047700Y0199430D03*
X0051570Y0199430D03*
X0053760Y0199430D03*
X0057630Y0199430D03*
X0055200Y0204080D03*
X0056130Y0208910D03*
X0059970Y0208880D03*
X0049200Y0208910D03*
X0050130Y0204080D03*
X0052680Y0193880D03*
X0077640Y0207590D03*
X0080370Y0209720D03*
X0079080Y0213800D03*
X0099720Y0205190D03*
X0100020Y0205610D03*
X0101100Y0208010D03*
X0101100Y0208040D03*
D259*
X0094515Y0211490D03*
X0089445Y0211490D03*
X0089445Y0206750D03*
X0079095Y0206630D03*
X0060405Y0203750D03*
X0058695Y0200000D03*
X0058665Y0199970D03*
X0058515Y0199850D03*
X0052665Y0200030D03*
X0050145Y0204020D03*
X0047895Y0199340D03*
X0046815Y0199850D03*
X0052665Y0193910D03*
X0045555Y0208970D03*
D260*
X0046050Y0200570D03*
X0046080Y0200540D03*
X0046920Y0199700D03*
X0049260Y0195950D03*
X0052680Y0193940D03*
X0054270Y0194930D03*
X0056070Y0195950D03*
X0052680Y0199940D03*
X0055170Y0203960D03*
X0056280Y0209000D03*
X0059310Y0200600D03*
X0059280Y0200570D03*
X0094530Y0211430D03*
D261*
X0084270Y0206780D03*
X0078480Y0210770D03*
X0058350Y0202400D03*
X0058350Y0199610D03*
X0056250Y0196070D03*
X0052680Y0193970D03*
X0047010Y0202400D03*
D262*
X0045195Y0203540D03*
X0048915Y0196220D03*
X0048945Y0196190D03*
X0052665Y0194000D03*
X0060165Y0203540D03*
X0078645Y0210680D03*
X0079095Y0213650D03*
D263*
X0078945Y0210500D03*
X0079365Y0210260D03*
X0079095Y0206780D03*
X0084285Y0206900D03*
X0068565Y0209450D03*
X0055095Y0203840D03*
X0056625Y0196400D03*
X0052665Y0194030D03*
D264*
X0052665Y0194060D03*
X0056745Y0196550D03*
X0056775Y0196580D03*
X0058095Y0202550D03*
X0055065Y0203810D03*
X0052665Y0202820D03*
X0050265Y0203810D03*
X0047235Y0202550D03*
X0048585Y0196550D03*
X0058005Y0209900D03*
X0068865Y0213710D03*
X0079095Y0213560D03*
X0079095Y0206810D03*
D265*
X0084270Y0207020D03*
X0059940Y0203450D03*
X0058020Y0202610D03*
X0052680Y0194090D03*
X0047310Y0202610D03*
D266*
X0052680Y0194120D03*
X0068760Y0209540D03*
X0079110Y0213470D03*
X0084270Y0207080D03*
D267*
X0084285Y0207170D03*
X0079095Y0206930D03*
X0052665Y0194150D03*
D268*
X0052665Y0194180D03*
X0068985Y0213560D03*
X0084285Y0207260D03*
X0088905Y0206840D03*
X0088935Y0211370D03*
X0094035Y0211370D03*
X0093975Y0206840D03*
D269*
X0088965Y0206930D03*
X0069015Y0213500D03*
X0052665Y0194210D03*
D270*
X0052680Y0194240D03*
X0069000Y0209750D03*
X0079080Y0207050D03*
X0084270Y0207470D03*
X0089010Y0207020D03*
X0089010Y0211220D03*
X0094110Y0211220D03*
X0094080Y0206990D03*
D271*
X0094140Y0207110D03*
X0094140Y0211130D03*
X0089070Y0211100D03*
X0089070Y0207140D03*
X0069060Y0209840D03*
X0069090Y0213380D03*
X0052680Y0194270D03*
D272*
X0052665Y0194300D03*
X0052665Y0203030D03*
X0069105Y0209900D03*
X0079065Y0207140D03*
X0089115Y0207230D03*
X0089115Y0211010D03*
D273*
X0089175Y0210830D03*
X0089175Y0207410D03*
X0094245Y0207380D03*
X0094245Y0210860D03*
X0069165Y0210020D03*
X0069165Y0213230D03*
X0052665Y0203060D03*
X0052665Y0194330D03*
D274*
X0052680Y0194360D03*
X0052680Y0203090D03*
X0069210Y0210110D03*
X0069210Y0213110D03*
X0069210Y0213140D03*
X0079140Y0213050D03*
X0079050Y0207230D03*
X0089220Y0210710D03*
X0094290Y0210710D03*
X0094290Y0210740D03*
X0094290Y0207530D03*
D275*
X0079155Y0212990D03*
X0069255Y0213020D03*
X0069255Y0210230D03*
X0052665Y0194390D03*
D276*
X0052680Y0194420D03*
X0069300Y0210350D03*
X0069300Y0210380D03*
X0069300Y0212870D03*
X0079050Y0207320D03*
D277*
X0079035Y0207380D03*
X0069345Y0212720D03*
X0052665Y0194450D03*
D278*
X0052680Y0194480D03*
D279*
X0052665Y0194510D03*
X0049635Y0198890D03*
X0079035Y0207500D03*
D280*
X0079035Y0207530D03*
X0079035Y0207560D03*
X0052665Y0203240D03*
X0047325Y0203060D03*
X0052665Y0194540D03*
D281*
X0052680Y0194570D03*
X0052680Y0203270D03*
D282*
X0052665Y0203300D03*
X0052665Y0194600D03*
D283*
X0052665Y0194630D03*
D284*
X0052665Y0194660D03*
X0047325Y0203180D03*
D285*
X0052680Y0194690D03*
D286*
X0052680Y0194720D03*
D287*
X0052680Y0194750D03*
X0047340Y0203270D03*
D288*
X0049635Y0199160D03*
X0052665Y0194780D03*
D289*
X0052665Y0194810D03*
X0049635Y0199190D03*
D290*
X0049635Y0199220D03*
X0052665Y0194840D03*
D291*
X0052665Y0194870D03*
D292*
X0052665Y0194900D03*
D293*
X0051075Y0194930D03*
X0046035Y0200600D03*
X0046005Y0200630D03*
X0045975Y0200660D03*
X0045975Y0200690D03*
X0045945Y0200720D03*
X0058425Y0199700D03*
X0059325Y0200630D03*
X0059355Y0200660D03*
X0059385Y0200690D03*
X0079965Y0209930D03*
D294*
X0078210Y0210920D03*
X0089430Y0211460D03*
X0089430Y0206780D03*
X0094530Y0206780D03*
X0094530Y0211460D03*
X0101100Y0208400D03*
X0101100Y0208370D03*
X0059700Y0209000D03*
X0055170Y0203990D03*
X0050160Y0203990D03*
X0046860Y0199790D03*
X0046380Y0200210D03*
X0046350Y0200240D03*
X0050970Y0194960D03*
X0055710Y0198290D03*
X0058470Y0199790D03*
X0058890Y0200150D03*
X0058920Y0200180D03*
X0058950Y0200210D03*
X0058980Y0200240D03*
D295*
X0058845Y0200120D03*
X0058815Y0200090D03*
X0060375Y0203720D03*
X0052665Y0200000D03*
X0055905Y0195860D03*
X0054375Y0194960D03*
X0049425Y0195860D03*
X0046845Y0199820D03*
X0046485Y0200120D03*
X0046455Y0200150D03*
X0046425Y0200180D03*
X0044955Y0203720D03*
X0049125Y0208970D03*
X0080145Y0209840D03*
X0084285Y0206690D03*
X0101085Y0208340D03*
D296*
X0094530Y0206750D03*
X0079080Y0213770D03*
X0058530Y0199880D03*
X0050880Y0194990D03*
X0046680Y0199970D03*
D297*
X0046710Y0199940D03*
X0046770Y0199910D03*
X0046800Y0199880D03*
X0054450Y0194990D03*
X0055860Y0195830D03*
X0058590Y0199910D03*
X0058620Y0199940D03*
X0058020Y0210050D03*
X0047340Y0210050D03*
X0080190Y0209810D03*
X0101100Y0208250D03*
X0101100Y0208220D03*
D298*
X0101100Y0208190D03*
X0101100Y0208160D03*
X0099840Y0205400D03*
X0089430Y0211520D03*
X0084270Y0206660D03*
X0080250Y0209780D03*
X0059850Y0208940D03*
X0055200Y0204050D03*
X0058590Y0202310D03*
X0055800Y0195800D03*
X0050820Y0195020D03*
X0049560Y0195800D03*
X0047820Y0199370D03*
X0046740Y0202310D03*
X0051450Y0199370D03*
X0049170Y0208940D03*
D299*
X0045495Y0208940D03*
X0050145Y0204050D03*
X0052665Y0202670D03*
X0052665Y0200090D03*
X0055695Y0198260D03*
X0057585Y0199400D03*
X0060465Y0203810D03*
X0056175Y0208940D03*
X0049635Y0198260D03*
X0054525Y0195020D03*
X0078045Y0211010D03*
X0089445Y0206720D03*
X0094515Y0206720D03*
X0094515Y0211520D03*
X0101085Y0208130D03*
X0099915Y0205520D03*
X0099915Y0205490D03*
X0099885Y0205460D03*
X0099855Y0205430D03*
X0099825Y0205370D03*
X0099795Y0205340D03*
D300*
X0099765Y0205250D03*
X0099735Y0205220D03*
X0080385Y0212840D03*
X0077985Y0211040D03*
X0079095Y0206600D03*
X0060495Y0203840D03*
X0052665Y0200120D03*
X0055725Y0195770D03*
X0054585Y0195050D03*
X0050745Y0195050D03*
X0044865Y0203840D03*
X0045435Y0208910D03*
D301*
X0045375Y0208880D03*
X0047325Y0210080D03*
X0044835Y0203870D03*
X0052665Y0200150D03*
X0050715Y0195080D03*
X0054645Y0195080D03*
X0060495Y0203870D03*
X0084285Y0206630D03*
X0089445Y0206690D03*
X0093165Y0207560D03*
X0094515Y0206690D03*
X0093165Y0210680D03*
X0094515Y0211550D03*
X0089415Y0211550D03*
X0099705Y0205160D03*
X0100065Y0205640D03*
X0101085Y0207980D03*
D302*
X0080415Y0209690D03*
X0077895Y0211100D03*
X0077565Y0207620D03*
X0055215Y0204110D03*
X0052665Y0200180D03*
X0053655Y0199490D03*
X0050655Y0195110D03*
X0047595Y0199490D03*
D303*
X0047640Y0199460D03*
X0051630Y0199460D03*
X0053700Y0199460D03*
X0057690Y0199460D03*
X0055650Y0195740D03*
X0054690Y0195110D03*
X0049710Y0195740D03*
X0050130Y0204110D03*
X0044820Y0203900D03*
X0045330Y0208850D03*
X0058020Y0210080D03*
X0060030Y0208850D03*
X0077940Y0211070D03*
X0080460Y0207590D03*
X0088080Y0207560D03*
X0088080Y0210680D03*
X0099690Y0205130D03*
X0101100Y0207950D03*
D304*
X0101100Y0207890D03*
X0101100Y0207860D03*
X0099660Y0205070D03*
X0080460Y0209660D03*
X0080490Y0212810D03*
X0077850Y0212840D03*
X0060060Y0208820D03*
X0056100Y0208880D03*
X0060540Y0203930D03*
X0057750Y0199490D03*
X0055710Y0198230D03*
X0054750Y0195140D03*
X0050610Y0195140D03*
X0044790Y0203930D03*
X0045270Y0208820D03*
D305*
X0045180Y0208760D03*
X0052680Y0200240D03*
X0049800Y0195710D03*
X0050550Y0195170D03*
X0047880Y0196640D03*
X0054780Y0195170D03*
X0060570Y0203960D03*
X0077490Y0207650D03*
X0077850Y0211130D03*
X0079080Y0213830D03*
X0080550Y0212780D03*
X0089430Y0206660D03*
X0100170Y0205670D03*
X0101100Y0207800D03*
X0101100Y0207830D03*
D306*
X0101085Y0207770D03*
X0093075Y0207620D03*
X0093075Y0210620D03*
X0084285Y0206600D03*
X0080535Y0207620D03*
X0079095Y0206570D03*
X0080505Y0209630D03*
X0077805Y0211160D03*
X0060165Y0208760D03*
X0060585Y0203990D03*
X0055095Y0209690D03*
X0055065Y0209720D03*
X0055035Y0209750D03*
X0055005Y0209780D03*
X0054975Y0209810D03*
X0050385Y0209840D03*
X0050355Y0209810D03*
X0050325Y0209780D03*
X0050295Y0209750D03*
X0050265Y0209720D03*
X0045135Y0208730D03*
X0050505Y0195200D03*
X0054825Y0195200D03*
X0055545Y0195710D03*
D307*
X0050460Y0195230D03*
X0050100Y0204170D03*
X0049260Y0208850D03*
X0050250Y0209690D03*
X0050400Y0209870D03*
X0054900Y0209900D03*
X0054900Y0209930D03*
X0054960Y0209840D03*
X0060210Y0208730D03*
X0044760Y0203990D03*
X0080550Y0209600D03*
X0101100Y0207740D03*
D308*
X0101085Y0207710D03*
X0099615Y0204980D03*
X0093045Y0207650D03*
X0093045Y0210590D03*
X0095565Y0210680D03*
X0080595Y0212750D03*
X0077445Y0207680D03*
X0070725Y0212690D03*
X0060585Y0204020D03*
X0054885Y0209960D03*
X0050475Y0209960D03*
X0050445Y0209930D03*
X0044745Y0204020D03*
X0052665Y0200300D03*
X0054945Y0195290D03*
X0054915Y0195260D03*
D309*
X0057600Y0196700D03*
X0055740Y0198200D03*
X0050400Y0195290D03*
X0049590Y0198200D03*
X0050100Y0204200D03*
X0044730Y0204050D03*
X0045030Y0208640D03*
X0045060Y0208670D03*
X0047340Y0210110D03*
X0050490Y0209990D03*
X0058020Y0210110D03*
X0060270Y0208670D03*
X0077400Y0207710D03*
X0080610Y0207650D03*
X0080610Y0209570D03*
X0077760Y0211190D03*
X0077760Y0212810D03*
X0087960Y0210590D03*
X0089430Y0211610D03*
X0090480Y0210680D03*
X0094500Y0211610D03*
X0095580Y0207560D03*
X0099600Y0204950D03*
X0101100Y0207650D03*
X0101100Y0207680D03*
X0089430Y0206630D03*
X0087960Y0207650D03*
D310*
X0090495Y0207560D03*
X0093015Y0207680D03*
X0094515Y0206630D03*
X0098085Y0207350D03*
X0098115Y0207290D03*
X0098115Y0207260D03*
X0098145Y0207200D03*
X0093015Y0210560D03*
X0080655Y0212720D03*
X0077715Y0211220D03*
X0070755Y0210560D03*
X0060345Y0208610D03*
X0060315Y0208640D03*
X0056055Y0208820D03*
X0054825Y0210020D03*
X0050535Y0210050D03*
X0050505Y0210020D03*
X0049275Y0208820D03*
X0044985Y0208610D03*
X0052605Y0202610D03*
X0052665Y0200330D03*
X0055245Y0204200D03*
X0055275Y0204230D03*
X0060615Y0204050D03*
X0054975Y0195320D03*
X0050355Y0195320D03*
X0050325Y0195350D03*
X0047745Y0196700D03*
D311*
X0047700Y0196730D03*
X0049920Y0195680D03*
X0050280Y0195380D03*
X0055020Y0195350D03*
X0055050Y0195380D03*
X0057660Y0196730D03*
X0055320Y0204260D03*
X0050070Y0204230D03*
X0050040Y0204260D03*
X0044700Y0204080D03*
X0050550Y0210080D03*
X0054810Y0210050D03*
X0060390Y0208580D03*
X0060630Y0204080D03*
X0080640Y0209540D03*
X0087930Y0210560D03*
X0087930Y0207680D03*
X0098070Y0207380D03*
X0098100Y0207320D03*
X0098130Y0207230D03*
X0098160Y0207170D03*
X0098160Y0207140D03*
X0101100Y0207590D03*
X0101100Y0207620D03*
D312*
X0098055Y0207410D03*
X0090555Y0210650D03*
X0087915Y0210530D03*
X0087915Y0207710D03*
X0080655Y0207680D03*
X0077355Y0207740D03*
X0070815Y0212660D03*
X0060405Y0208550D03*
X0060645Y0204110D03*
X0055365Y0204320D03*
X0052665Y0200360D03*
X0049995Y0204290D03*
X0049965Y0204320D03*
X0050565Y0210110D03*
X0054795Y0210080D03*
X0044955Y0208580D03*
X0044895Y0208520D03*
X0057705Y0196760D03*
X0055095Y0195410D03*
X0050265Y0195410D03*
D313*
X0050220Y0195440D03*
X0050190Y0195470D03*
X0047640Y0196760D03*
X0055110Y0195440D03*
X0055140Y0195470D03*
X0055410Y0204350D03*
X0055440Y0204380D03*
X0056040Y0208790D03*
X0054750Y0210140D03*
X0049320Y0208790D03*
X0049950Y0204350D03*
X0044700Y0204110D03*
X0060660Y0204140D03*
X0060510Y0208460D03*
X0060450Y0208520D03*
X0077310Y0207770D03*
X0080700Y0207710D03*
X0077640Y0211280D03*
X0092970Y0210500D03*
X0095640Y0210650D03*
X0095640Y0207590D03*
X0098010Y0207470D03*
X0098040Y0207440D03*
X0098190Y0207050D03*
X0099570Y0204890D03*
X0101100Y0207500D03*
X0101100Y0207530D03*
X0092970Y0207740D03*
D314*
X0092955Y0207770D03*
X0090555Y0207590D03*
X0089415Y0206600D03*
X0087885Y0207740D03*
X0087885Y0210500D03*
X0089415Y0211640D03*
X0092955Y0210470D03*
X0097995Y0207500D03*
X0098205Y0207020D03*
X0098205Y0206990D03*
X0100305Y0205700D03*
X0080715Y0209480D03*
X0080715Y0212660D03*
X0070845Y0212630D03*
X0054735Y0210170D03*
X0050595Y0210170D03*
X0044865Y0208490D03*
X0044835Y0208460D03*
X0044805Y0208430D03*
X0044685Y0204140D03*
X0049845Y0204440D03*
X0049875Y0204410D03*
X0049905Y0204380D03*
X0055455Y0204410D03*
X0057765Y0196790D03*
X0055185Y0195500D03*
X0050175Y0195500D03*
X0049515Y0198170D03*
X0047595Y0196790D03*
D315*
X0050100Y0195560D03*
X0050130Y0195530D03*
X0055200Y0195530D03*
X0055230Y0195560D03*
X0055260Y0195590D03*
X0055830Y0198170D03*
X0057810Y0196820D03*
X0052680Y0200420D03*
X0055500Y0204440D03*
X0055530Y0204470D03*
X0056010Y0208760D03*
X0060540Y0208430D03*
X0060570Y0208400D03*
X0060600Y0208370D03*
X0060660Y0204170D03*
X0049830Y0204470D03*
X0049800Y0204500D03*
X0044670Y0204170D03*
X0044760Y0208400D03*
X0070860Y0210620D03*
X0077250Y0207830D03*
X0079080Y0206540D03*
X0077610Y0211310D03*
X0077640Y0212750D03*
X0080760Y0212630D03*
X0087870Y0210470D03*
X0090600Y0210620D03*
X0092940Y0210440D03*
X0094500Y0211640D03*
X0095700Y0210620D03*
X0095700Y0207620D03*
X0094500Y0206600D03*
X0092940Y0207800D03*
X0090600Y0207620D03*
X0087870Y0207770D03*
X0098220Y0206960D03*
X0101100Y0207440D03*
X0101100Y0207470D03*
D316*
X0101085Y0207410D03*
X0098235Y0206930D03*
X0097965Y0207530D03*
X0099555Y0204860D03*
X0092925Y0207830D03*
X0092925Y0210410D03*
X0090645Y0210590D03*
X0087855Y0210440D03*
X0087855Y0207800D03*
X0085485Y0207620D03*
X0083055Y0207620D03*
X0080745Y0207740D03*
X0080775Y0209420D03*
X0080745Y0209450D03*
X0077205Y0207860D03*
X0070905Y0210650D03*
X0070905Y0212600D03*
X0060645Y0208310D03*
X0060615Y0208340D03*
X0060675Y0204200D03*
X0055605Y0204560D03*
X0055575Y0204530D03*
X0055545Y0204500D03*
X0052515Y0202580D03*
X0052665Y0200450D03*
X0049755Y0204530D03*
X0049335Y0208760D03*
X0050625Y0210200D03*
X0054735Y0210200D03*
X0044745Y0208370D03*
X0044715Y0208340D03*
X0044655Y0204200D03*
X0047535Y0196820D03*
X0050025Y0195650D03*
X0050055Y0195620D03*
X0050085Y0195590D03*
X0057855Y0196850D03*
D317*
X0055425Y0195680D03*
X0055335Y0204290D03*
X0044925Y0208550D03*
X0077685Y0211250D03*
X0077685Y0212780D03*
X0080685Y0212690D03*
X0080685Y0209510D03*
X0084285Y0206570D03*
X0085425Y0207590D03*
X0092985Y0207710D03*
X0092985Y0210530D03*
X0098175Y0207110D03*
X0098175Y0207080D03*
X0099585Y0204920D03*
X0101085Y0207560D03*
D318*
X0099990Y0205580D03*
X0099780Y0205310D03*
X0099780Y0205280D03*
X0053820Y0199400D03*
X0049620Y0195770D03*
X0044880Y0203810D03*
D319*
X0044925Y0203750D03*
X0046635Y0200000D03*
X0051375Y0199340D03*
X0049485Y0195830D03*
X0055185Y0204020D03*
X0059775Y0208970D03*
X0101085Y0208280D03*
D320*
X0080085Y0209870D03*
X0060345Y0203690D03*
X0058485Y0202340D03*
X0059025Y0200270D03*
X0055965Y0195890D03*
X0049365Y0195890D03*
X0049635Y0198290D03*
X0047985Y0199310D03*
X0046875Y0199760D03*
X0046335Y0200270D03*
X0046845Y0202340D03*
X0044985Y0203690D03*
X0045645Y0209000D03*
X0052665Y0202700D03*
D321*
X0052680Y0199970D03*
X0049320Y0195920D03*
X0046230Y0200360D03*
X0058470Y0199760D03*
X0059070Y0200330D03*
X0059130Y0200390D03*
X0078270Y0210890D03*
X0079080Y0213740D03*
D322*
X0078315Y0210860D03*
X0080025Y0209900D03*
X0079095Y0206660D03*
X0084285Y0206720D03*
X0089445Y0206810D03*
X0089445Y0211430D03*
X0068745Y0213800D03*
X0058005Y0210020D03*
X0060315Y0203660D03*
X0059265Y0200540D03*
X0059235Y0200510D03*
X0059205Y0200480D03*
X0059175Y0200450D03*
X0058455Y0199730D03*
X0056025Y0195920D03*
X0046905Y0199730D03*
X0046185Y0200420D03*
X0046155Y0200450D03*
X0046125Y0200480D03*
X0046095Y0200510D03*
X0045015Y0203660D03*
X0050175Y0203960D03*
X0049065Y0209000D03*
X0047325Y0210020D03*
D323*
X0045930Y0200750D03*
X0049230Y0195980D03*
X0052680Y0199910D03*
X0056130Y0195980D03*
X0059430Y0200750D03*
X0059430Y0200780D03*
X0059580Y0209030D03*
X0079080Y0213710D03*
X0094530Y0211400D03*
D324*
X0084285Y0206750D03*
X0059475Y0200840D03*
X0056175Y0196010D03*
X0049635Y0198320D03*
X0049185Y0196010D03*
X0045885Y0200810D03*
D325*
X0046980Y0199640D03*
X0048120Y0199280D03*
X0049140Y0196040D03*
X0052680Y0202730D03*
X0050190Y0203930D03*
X0045090Y0203600D03*
X0058380Y0199640D03*
X0078420Y0210800D03*
D326*
X0079845Y0209990D03*
X0079095Y0206690D03*
X0060255Y0203600D03*
X0057225Y0199280D03*
X0054195Y0199280D03*
X0052665Y0199880D03*
X0051165Y0199280D03*
X0046995Y0199610D03*
X0049095Y0196070D03*
X0056205Y0196040D03*
X0058005Y0209990D03*
X0047325Y0209990D03*
D327*
X0048975Y0209030D03*
X0045135Y0203570D03*
X0047025Y0199580D03*
X0049065Y0196100D03*
X0052665Y0199850D03*
X0055125Y0203900D03*
X0056295Y0196100D03*
X0079785Y0210020D03*
X0079095Y0213680D03*
D328*
X0078540Y0210740D03*
X0058320Y0199580D03*
X0049020Y0196130D03*
D329*
X0048975Y0196160D03*
X0049635Y0198350D03*
X0047055Y0199550D03*
X0047055Y0202430D03*
X0056325Y0196130D03*
X0056355Y0196160D03*
X0068805Y0213770D03*
X0078585Y0210710D03*
X0079725Y0210050D03*
X0079095Y0206720D03*
X0084285Y0206810D03*
D330*
X0079680Y0210080D03*
X0058020Y0209960D03*
X0058290Y0202430D03*
X0058290Y0199550D03*
X0056400Y0196190D03*
X0052680Y0199820D03*
X0052680Y0202760D03*
X0047340Y0209960D03*
D331*
X0056430Y0196220D03*
D332*
X0056460Y0196250D03*
X0058260Y0199520D03*
X0055110Y0203870D03*
X0050220Y0203870D03*
X0047100Y0199520D03*
X0048870Y0196250D03*
X0078690Y0210650D03*
X0079620Y0210110D03*
X0084270Y0206840D03*
D333*
X0078750Y0210620D03*
X0055710Y0198380D03*
X0056520Y0196310D03*
X0048840Y0196280D03*
X0048810Y0196310D03*
D334*
X0052665Y0199790D03*
X0056505Y0196280D03*
X0058245Y0202460D03*
X0047115Y0202460D03*
X0079095Y0206750D03*
D335*
X0079410Y0210230D03*
X0078900Y0210530D03*
X0068850Y0213740D03*
X0058200Y0202490D03*
X0052680Y0202790D03*
X0050250Y0203840D03*
X0047160Y0202490D03*
X0052680Y0199760D03*
X0056580Y0196370D03*
X0048780Y0196340D03*
X0048750Y0196370D03*
X0048720Y0196400D03*
D336*
X0056565Y0196340D03*
X0060105Y0203510D03*
X0058005Y0209930D03*
X0047325Y0209930D03*
X0045225Y0203510D03*
X0078795Y0210590D03*
X0078855Y0210560D03*
X0079455Y0210200D03*
X0079515Y0210170D03*
X0079095Y0213620D03*
X0084285Y0206870D03*
D337*
X0058140Y0202520D03*
X0056670Y0196460D03*
X0056640Y0196430D03*
X0048690Y0196430D03*
D338*
X0048660Y0196460D03*
X0079050Y0210440D03*
X0079110Y0210410D03*
X0079200Y0210350D03*
X0079260Y0210320D03*
D339*
X0079155Y0210380D03*
X0079095Y0213590D03*
X0055695Y0198410D03*
X0052665Y0199730D03*
X0049635Y0198410D03*
X0048645Y0196490D03*
X0047205Y0202520D03*
D340*
X0045300Y0203480D03*
X0047340Y0209900D03*
X0060030Y0203480D03*
X0056730Y0196520D03*
X0056700Y0196490D03*
X0048600Y0196520D03*
X0084270Y0206930D03*
D341*
X0084270Y0206960D03*
X0056790Y0196610D03*
X0048570Y0196580D03*
X0048540Y0196610D03*
D342*
X0049470Y0196640D03*
X0052590Y0200780D03*
X0052560Y0200840D03*
X0052560Y0200870D03*
X0052530Y0200900D03*
X0052530Y0200930D03*
X0052500Y0200990D03*
X0052500Y0201020D03*
X0055890Y0196700D03*
X0055890Y0196670D03*
X0058260Y0197180D03*
X0058290Y0197210D03*
X0058320Y0197240D03*
X0058860Y0200870D03*
X0058860Y0200900D03*
X0058890Y0200930D03*
X0058890Y0200960D03*
X0058920Y0201020D03*
X0058920Y0201050D03*
X0060180Y0200930D03*
X0061140Y0204980D03*
X0061170Y0205040D03*
X0061170Y0205070D03*
X0061200Y0205100D03*
X0061200Y0205130D03*
X0061230Y0205220D03*
X0061230Y0207260D03*
X0061200Y0207350D03*
X0061200Y0207380D03*
X0061170Y0207410D03*
X0061170Y0207440D03*
X0061140Y0207500D03*
X0056250Y0208040D03*
X0056220Y0208130D03*
X0056220Y0208160D03*
X0056190Y0208190D03*
X0056190Y0208220D03*
X0056160Y0208280D03*
X0056250Y0205730D03*
X0056250Y0205700D03*
X0056220Y0205640D03*
X0056220Y0205610D03*
X0056190Y0205580D03*
X0056190Y0205550D03*
X0056160Y0205490D03*
X0052680Y0207020D03*
X0049140Y0208160D03*
X0049140Y0208190D03*
X0049140Y0208220D03*
X0049170Y0208250D03*
X0049170Y0208280D03*
X0049200Y0208340D03*
X0049110Y0208130D03*
X0049110Y0208100D03*
X0049080Y0208010D03*
X0049080Y0205760D03*
X0049110Y0205670D03*
X0049110Y0205640D03*
X0049140Y0205610D03*
X0049140Y0205580D03*
X0049170Y0205520D03*
X0049170Y0205490D03*
X0049200Y0205430D03*
X0044190Y0205010D03*
X0044160Y0205070D03*
X0044160Y0205100D03*
X0044130Y0205130D03*
X0044130Y0205160D03*
X0044100Y0205250D03*
X0044100Y0207230D03*
X0044130Y0207320D03*
X0044130Y0207350D03*
X0044160Y0207380D03*
X0044160Y0207410D03*
X0044190Y0207470D03*
X0050700Y0210380D03*
X0052680Y0213320D03*
X0052680Y0213350D03*
X0054630Y0210380D03*
X0046410Y0201080D03*
X0046440Y0200990D03*
X0046440Y0200960D03*
X0046470Y0200930D03*
X0046470Y0200900D03*
X0045180Y0200900D03*
X0045150Y0200930D03*
X0045120Y0200960D03*
X0071130Y0210980D03*
X0071130Y0211010D03*
X0071160Y0211070D03*
X0071160Y0212150D03*
X0071160Y0212180D03*
X0071130Y0212240D03*
X0071130Y0212270D03*
X0072930Y0212690D03*
X0072930Y0212720D03*
X0072930Y0212750D03*
X0072930Y0212780D03*
X0072930Y0212810D03*
X0072930Y0212840D03*
X0072930Y0212870D03*
X0072930Y0212900D03*
X0077370Y0212390D03*
X0077400Y0212450D03*
X0077370Y0211670D03*
X0077370Y0211640D03*
X0077040Y0208130D03*
X0079080Y0206510D03*
X0080970Y0208040D03*
X0081000Y0208100D03*
X0081000Y0208130D03*
X0081030Y0209030D03*
X0081000Y0209090D03*
X0082860Y0207830D03*
X0085680Y0207830D03*
X0087720Y0208220D03*
X0087720Y0208250D03*
X0087720Y0209990D03*
X0087720Y0210020D03*
X0090900Y0210230D03*
X0090900Y0210260D03*
X0092790Y0209990D03*
X0092790Y0209960D03*
X0092790Y0209930D03*
X0092790Y0208310D03*
X0092790Y0208280D03*
X0092790Y0208250D03*
X0090900Y0207980D03*
X0090870Y0207950D03*
X0095970Y0207950D03*
X0096000Y0208010D03*
X0096000Y0210230D03*
X0095970Y0210260D03*
X0095970Y0210290D03*
X0099600Y0210620D03*
X0102690Y0210860D03*
X0101100Y0207110D03*
X0101100Y0207080D03*
X0100710Y0206150D03*
X0100680Y0206120D03*
X0100680Y0206090D03*
X0100650Y0206060D03*
X0100620Y0206000D03*
X0098280Y0206750D03*
X0080910Y0212420D03*
D343*
X0080925Y0212390D03*
X0081015Y0209060D03*
X0081045Y0209000D03*
X0081045Y0208970D03*
X0081045Y0208280D03*
X0081045Y0208250D03*
X0081045Y0208220D03*
X0081015Y0208190D03*
X0081015Y0208160D03*
X0082815Y0207950D03*
X0082845Y0207890D03*
X0082845Y0207860D03*
X0085695Y0207860D03*
X0085725Y0207890D03*
X0085725Y0207920D03*
X0087705Y0208280D03*
X0087705Y0208310D03*
X0087705Y0208340D03*
X0087705Y0209900D03*
X0087705Y0209930D03*
X0087705Y0209960D03*
X0090915Y0210200D03*
X0090945Y0210170D03*
X0090945Y0210140D03*
X0090975Y0210050D03*
X0092775Y0209900D03*
X0092775Y0209870D03*
X0092775Y0209840D03*
X0092775Y0208430D03*
X0092775Y0208400D03*
X0092775Y0208370D03*
X0092775Y0208340D03*
X0090945Y0208100D03*
X0090945Y0208070D03*
X0090915Y0208040D03*
X0090915Y0208010D03*
X0095985Y0207980D03*
X0096015Y0208040D03*
X0096015Y0208070D03*
X0096045Y0208100D03*
X0096045Y0208130D03*
X0096075Y0210020D03*
X0096045Y0210110D03*
X0096045Y0210140D03*
X0096015Y0210170D03*
X0096015Y0210200D03*
X0099435Y0211010D03*
X0099435Y0211040D03*
X0099465Y0210980D03*
X0099465Y0210950D03*
X0099465Y0210920D03*
X0099495Y0210890D03*
X0099495Y0210860D03*
X0099525Y0210830D03*
X0099525Y0210800D03*
X0099525Y0210770D03*
X0099555Y0210740D03*
X0099555Y0210710D03*
X0099585Y0210680D03*
X0099585Y0210650D03*
X0099615Y0210590D03*
X0099615Y0210560D03*
X0099645Y0210530D03*
X0099645Y0210500D03*
X0099675Y0210470D03*
X0099675Y0210440D03*
X0099675Y0210410D03*
X0099705Y0210380D03*
X0099705Y0210350D03*
X0099735Y0210320D03*
X0099735Y0210290D03*
X0099765Y0210230D03*
X0099765Y0210200D03*
X0099795Y0210170D03*
X0099795Y0210140D03*
X0099825Y0210080D03*
X0099825Y0210050D03*
X0099855Y0210020D03*
X0099855Y0209990D03*
X0099885Y0209960D03*
X0099885Y0209930D03*
X0099915Y0209870D03*
X0099915Y0209840D03*
X0099945Y0209810D03*
X0099945Y0209780D03*
X0099975Y0209720D03*
X0100005Y0209660D03*
X0100005Y0209630D03*
X0100035Y0209570D03*
X0100065Y0209510D03*
X0100065Y0209480D03*
X0100095Y0209420D03*
X0100125Y0209360D03*
X0100155Y0209300D03*
X0100155Y0209270D03*
X0100185Y0209210D03*
X0100215Y0209150D03*
X0100215Y0209120D03*
X0100245Y0209060D03*
X0100275Y0209000D03*
X0100305Y0208910D03*
X0100335Y0208850D03*
X0100395Y0208700D03*
X0100425Y0208640D03*
X0100455Y0208550D03*
X0100485Y0208490D03*
X0101745Y0208580D03*
X0101775Y0208640D03*
X0101805Y0208730D03*
X0101835Y0208790D03*
X0101865Y0208880D03*
X0101895Y0208940D03*
X0101925Y0209000D03*
X0101925Y0209030D03*
X0101955Y0209090D03*
X0101985Y0209150D03*
X0102015Y0209240D03*
X0102045Y0209300D03*
X0102075Y0209360D03*
X0102075Y0209390D03*
X0102105Y0209450D03*
X0102135Y0209510D03*
X0102135Y0209540D03*
X0102165Y0209570D03*
X0102165Y0209600D03*
X0102195Y0209660D03*
X0102195Y0209690D03*
X0102225Y0209720D03*
X0102225Y0209750D03*
X0102255Y0209810D03*
X0102285Y0209870D03*
X0102285Y0209900D03*
X0102315Y0209930D03*
X0102315Y0209960D03*
X0102345Y0210020D03*
X0102345Y0210050D03*
X0102375Y0210080D03*
X0102375Y0210110D03*
X0102405Y0210170D03*
X0102405Y0210200D03*
X0102435Y0210230D03*
X0102435Y0210260D03*
X0102465Y0210290D03*
X0102465Y0210320D03*
X0102465Y0210350D03*
X0102495Y0210380D03*
X0102495Y0210410D03*
X0102525Y0210440D03*
X0102525Y0210470D03*
X0102555Y0210500D03*
X0102555Y0210530D03*
X0102555Y0210560D03*
X0102585Y0210590D03*
X0102585Y0210620D03*
X0102615Y0210650D03*
X0102615Y0210680D03*
X0102615Y0210710D03*
X0102645Y0210740D03*
X0102645Y0210770D03*
X0102675Y0210800D03*
X0102675Y0210830D03*
X0102705Y0210890D03*
X0102705Y0210920D03*
X0102735Y0210950D03*
X0102735Y0210980D03*
X0102735Y0211010D03*
X0102765Y0211040D03*
X0102765Y0211070D03*
X0101055Y0206930D03*
X0100965Y0206720D03*
X0100905Y0206570D03*
X0100875Y0206510D03*
X0100845Y0206450D03*
X0100815Y0206360D03*
X0100785Y0206300D03*
X0100755Y0206270D03*
X0100755Y0206240D03*
X0100725Y0206210D03*
X0100725Y0206180D03*
X0077385Y0212420D03*
X0077355Y0212360D03*
X0077355Y0212330D03*
X0077355Y0211700D03*
X0077025Y0208160D03*
X0072945Y0212600D03*
X0072945Y0212630D03*
X0072945Y0212660D03*
X0072945Y0212930D03*
X0072945Y0212960D03*
X0072945Y0212990D03*
X0071145Y0212210D03*
X0071175Y0212120D03*
X0071175Y0212090D03*
X0071205Y0212000D03*
X0071205Y0211970D03*
X0071205Y0211280D03*
X0071205Y0211250D03*
X0071175Y0211160D03*
X0071175Y0211130D03*
X0071175Y0211100D03*
X0071145Y0211040D03*
X0061215Y0207320D03*
X0061215Y0207290D03*
X0061245Y0207230D03*
X0061245Y0207200D03*
X0061245Y0207170D03*
X0061275Y0207140D03*
X0061275Y0207110D03*
X0061275Y0207080D03*
X0061305Y0207020D03*
X0061305Y0206990D03*
X0061305Y0205490D03*
X0061305Y0205460D03*
X0061275Y0205400D03*
X0061275Y0205370D03*
X0061275Y0205340D03*
X0061245Y0205310D03*
X0061245Y0205280D03*
X0061245Y0205250D03*
X0061215Y0205190D03*
X0061215Y0205160D03*
X0059025Y0201440D03*
X0058995Y0201320D03*
X0058995Y0201290D03*
X0058965Y0201200D03*
X0058965Y0201170D03*
X0058965Y0201140D03*
X0058935Y0201110D03*
X0058935Y0201080D03*
X0058905Y0200990D03*
X0060225Y0200960D03*
X0060255Y0200990D03*
X0058395Y0197330D03*
X0058365Y0197300D03*
X0058335Y0197270D03*
X0055995Y0197090D03*
X0055965Y0196970D03*
X0055965Y0196940D03*
X0055935Y0196850D03*
X0055935Y0196820D03*
X0055935Y0196790D03*
X0055905Y0196760D03*
X0055905Y0196730D03*
X0055875Y0196640D03*
X0052515Y0200960D03*
X0052485Y0201050D03*
X0052485Y0201080D03*
X0052455Y0201110D03*
X0052455Y0201140D03*
X0052455Y0201170D03*
X0052425Y0201230D03*
X0052425Y0201260D03*
X0052395Y0201380D03*
X0052365Y0202550D03*
X0052665Y0206960D03*
X0052665Y0206990D03*
X0049095Y0208040D03*
X0049095Y0208070D03*
X0049065Y0207980D03*
X0049065Y0207950D03*
X0049035Y0207890D03*
X0049035Y0207860D03*
X0049005Y0207770D03*
X0049005Y0207740D03*
X0048975Y0207620D03*
X0048975Y0206150D03*
X0049005Y0206030D03*
X0049005Y0206000D03*
X0049035Y0205940D03*
X0049035Y0205910D03*
X0049035Y0205880D03*
X0049065Y0205820D03*
X0049065Y0205790D03*
X0049095Y0205730D03*
X0049095Y0205700D03*
X0050715Y0210410D03*
X0052665Y0213380D03*
X0054615Y0210410D03*
X0056235Y0208100D03*
X0056235Y0208070D03*
X0056265Y0208010D03*
X0056265Y0207980D03*
X0056295Y0207950D03*
X0056295Y0207920D03*
X0056295Y0207890D03*
X0056325Y0207830D03*
X0056325Y0207800D03*
X0056325Y0207770D03*
X0056355Y0207680D03*
X0056355Y0206090D03*
X0056325Y0206000D03*
X0056325Y0205970D03*
X0056325Y0205940D03*
X0056295Y0205880D03*
X0056295Y0205850D03*
X0056295Y0205820D03*
X0056265Y0205790D03*
X0056265Y0205760D03*
X0056235Y0205670D03*
X0046425Y0201050D03*
X0046425Y0201020D03*
X0046395Y0201110D03*
X0046395Y0201140D03*
X0046395Y0201170D03*
X0046365Y0201200D03*
X0046365Y0201230D03*
X0046365Y0201260D03*
X0046335Y0201350D03*
X0045105Y0200990D03*
X0045075Y0201020D03*
X0046965Y0197300D03*
X0046995Y0197270D03*
X0047025Y0197240D03*
X0047055Y0197210D03*
X0049365Y0197000D03*
X0049395Y0196880D03*
X0049395Y0196850D03*
X0049425Y0196790D03*
X0049425Y0196760D03*
X0049425Y0196730D03*
X0049455Y0196700D03*
X0049455Y0196670D03*
X0044115Y0205190D03*
X0044115Y0205220D03*
X0044085Y0205280D03*
X0044085Y0205310D03*
X0044085Y0205340D03*
X0044055Y0205370D03*
X0044055Y0205400D03*
X0044055Y0205430D03*
X0044025Y0205520D03*
X0044025Y0206960D03*
X0044055Y0207050D03*
X0044055Y0207080D03*
X0044055Y0207110D03*
X0044085Y0207140D03*
X0044085Y0207170D03*
X0044085Y0207200D03*
X0044115Y0207260D03*
X0044115Y0207290D03*
D344*
X0045225Y0208790D03*
X0044775Y0203960D03*
X0050115Y0204140D03*
X0052665Y0202640D03*
X0052665Y0200210D03*
X0049635Y0198230D03*
X0057465Y0196640D03*
X0055215Y0204140D03*
X0060105Y0208790D03*
X0070665Y0210530D03*
X0088035Y0210650D03*
X0089415Y0211580D03*
X0093105Y0210650D03*
X0094515Y0211580D03*
X0093105Y0207590D03*
X0094515Y0206660D03*
X0099645Y0205040D03*
X0088035Y0207590D03*
D345*
X0090960Y0208130D03*
X0090960Y0208160D03*
X0091050Y0208490D03*
X0091050Y0209750D03*
X0090960Y0210080D03*
X0090960Y0210110D03*
X0092760Y0209810D03*
X0092760Y0209780D03*
X0092760Y0209750D03*
X0092760Y0209720D03*
X0092760Y0209690D03*
X0092760Y0208550D03*
X0092760Y0208520D03*
X0092760Y0208490D03*
X0092760Y0208460D03*
X0096060Y0208190D03*
X0096060Y0208160D03*
X0096060Y0210050D03*
X0096060Y0210080D03*
X0099750Y0210260D03*
X0099810Y0210110D03*
X0099900Y0209900D03*
X0099960Y0209750D03*
X0100050Y0209540D03*
X0100110Y0209390D03*
X0100200Y0209180D03*
X0100260Y0209030D03*
X0100350Y0208820D03*
X0100350Y0208790D03*
X0100410Y0208670D03*
X0100500Y0208460D03*
X0101700Y0208460D03*
X0101700Y0208490D03*
X0101760Y0208610D03*
X0101850Y0208820D03*
X0101850Y0208850D03*
X0101910Y0208970D03*
X0102000Y0209180D03*
X0102000Y0209210D03*
X0102060Y0209330D03*
X0101100Y0207050D03*
X0101100Y0207020D03*
X0101010Y0206840D03*
X0101010Y0206810D03*
X0100950Y0206690D03*
X0100950Y0206660D03*
X0100860Y0206480D03*
X0100800Y0206330D03*
X0082800Y0207980D03*
X0082800Y0208010D03*
X0081060Y0208310D03*
X0081060Y0208340D03*
X0081060Y0208370D03*
X0081060Y0208400D03*
X0081060Y0208850D03*
X0081060Y0208880D03*
X0081060Y0208910D03*
X0081060Y0208940D03*
X0077010Y0208190D03*
X0077310Y0211820D03*
X0077310Y0211850D03*
X0077310Y0211880D03*
X0077310Y0211910D03*
X0077310Y0211940D03*
X0077310Y0211970D03*
X0077310Y0212000D03*
X0077310Y0212030D03*
X0077310Y0212060D03*
X0077310Y0212090D03*
X0077310Y0212120D03*
X0077310Y0212150D03*
X0077310Y0212180D03*
X0077310Y0212210D03*
X0061350Y0206840D03*
X0061350Y0206810D03*
X0061350Y0206780D03*
X0061350Y0206750D03*
X0061350Y0206720D03*
X0061350Y0205760D03*
X0061350Y0205730D03*
X0061350Y0205700D03*
X0061350Y0205670D03*
X0061350Y0205640D03*
X0059010Y0201410D03*
X0059010Y0201380D03*
X0059010Y0201350D03*
X0060300Y0201050D03*
X0056010Y0197240D03*
X0056010Y0197210D03*
X0056010Y0197180D03*
X0056010Y0197150D03*
X0056010Y0197120D03*
X0055950Y0196910D03*
X0055950Y0196880D03*
X0052410Y0201290D03*
X0052410Y0201320D03*
X0052410Y0201350D03*
X0052350Y0201560D03*
X0052350Y0201590D03*
X0052350Y0201620D03*
X0052350Y0201650D03*
X0052350Y0201680D03*
X0052350Y0201710D03*
X0052350Y0202460D03*
X0052350Y0202490D03*
X0052350Y0202520D03*
X0049050Y0205850D03*
X0048960Y0206180D03*
X0048960Y0206210D03*
X0048960Y0206240D03*
X0048960Y0206270D03*
X0048960Y0206300D03*
X0048900Y0206720D03*
X0048900Y0206750D03*
X0048900Y0206780D03*
X0048900Y0206810D03*
X0048900Y0206840D03*
X0048900Y0206870D03*
X0048900Y0206900D03*
X0048900Y0206930D03*
X0048900Y0206960D03*
X0048900Y0206990D03*
X0048900Y0207020D03*
X0048900Y0207050D03*
X0048960Y0207470D03*
X0048960Y0207500D03*
X0048960Y0207530D03*
X0048960Y0207560D03*
X0048960Y0207590D03*
X0049050Y0207920D03*
X0044010Y0206930D03*
X0044010Y0206900D03*
X0044010Y0206870D03*
X0044010Y0206840D03*
X0044010Y0206810D03*
X0043950Y0206480D03*
X0043950Y0206450D03*
X0043950Y0206420D03*
X0043950Y0206390D03*
X0043950Y0206360D03*
X0043950Y0206330D03*
X0043950Y0206300D03*
X0043950Y0206270D03*
X0043950Y0206240D03*
X0043950Y0206210D03*
X0043950Y0206180D03*
X0043950Y0206150D03*
X0043950Y0206120D03*
X0043950Y0206090D03*
X0043950Y0206060D03*
X0043950Y0206030D03*
X0043950Y0206000D03*
X0044010Y0205670D03*
X0044010Y0205640D03*
X0044010Y0205610D03*
X0044010Y0205580D03*
X0044010Y0205550D03*
X0046260Y0202280D03*
X0046260Y0202250D03*
X0046260Y0202220D03*
X0046260Y0202190D03*
X0046260Y0202160D03*
X0046260Y0202130D03*
X0046260Y0202040D03*
X0046260Y0202010D03*
X0046260Y0201980D03*
X0046260Y0201950D03*
X0046260Y0201920D03*
X0046260Y0201890D03*
X0046260Y0201860D03*
X0046260Y0201830D03*
X0046260Y0201800D03*
X0046260Y0201770D03*
X0046350Y0201320D03*
X0046350Y0201290D03*
X0046950Y0197330D03*
X0049350Y0197120D03*
X0049350Y0197090D03*
X0049350Y0197060D03*
X0049350Y0197030D03*
X0049410Y0196820D03*
X0056310Y0205910D03*
X0056400Y0206270D03*
X0056400Y0206300D03*
X0056400Y0206330D03*
X0056400Y0206360D03*
X0056400Y0206390D03*
X0056400Y0206420D03*
X0056400Y0207350D03*
X0056400Y0207380D03*
X0056400Y0207410D03*
X0056400Y0207440D03*
X0056400Y0207470D03*
X0056400Y0207500D03*
X0056310Y0207860D03*
D346*
X0055995Y0208730D03*
X0055725Y0204710D03*
X0055695Y0204680D03*
X0055665Y0204650D03*
X0060735Y0204290D03*
X0060765Y0204320D03*
X0060765Y0208160D03*
X0060735Y0208190D03*
X0060735Y0208220D03*
X0070935Y0210680D03*
X0070935Y0212570D03*
X0077175Y0207920D03*
X0080775Y0207770D03*
X0080835Y0209360D03*
X0083025Y0207650D03*
X0085545Y0207650D03*
X0087825Y0207860D03*
X0090645Y0207650D03*
X0090675Y0207680D03*
X0092895Y0207890D03*
X0095775Y0207680D03*
X0097935Y0207560D03*
X0098235Y0206900D03*
X0101085Y0207350D03*
X0095775Y0210560D03*
X0092895Y0210350D03*
X0090675Y0210560D03*
X0087825Y0210380D03*
X0077565Y0212690D03*
X0057945Y0196910D03*
X0052665Y0200480D03*
X0049695Y0204620D03*
X0049665Y0204650D03*
X0049635Y0204680D03*
X0044625Y0204260D03*
X0044595Y0204290D03*
X0044595Y0208190D03*
X0044625Y0208220D03*
X0047445Y0196880D03*
D347*
X0049710Y0204590D03*
X0055650Y0204620D03*
X0060660Y0208280D03*
X0057900Y0196880D03*
X0044700Y0208310D03*
X0077550Y0211370D03*
X0077610Y0212720D03*
X0092910Y0210380D03*
X0092910Y0207860D03*
X0101100Y0207380D03*
D348*
X0101100Y0207320D03*
X0101100Y0207290D03*
X0100410Y0205760D03*
X0098250Y0206870D03*
X0095790Y0210530D03*
X0092880Y0210320D03*
X0092880Y0207950D03*
X0092880Y0207920D03*
X0087810Y0207920D03*
X0087810Y0207890D03*
X0087810Y0210320D03*
X0087810Y0210350D03*
X0077520Y0211400D03*
X0077130Y0207950D03*
X0070950Y0210710D03*
X0070950Y0212540D03*
X0060810Y0208100D03*
X0060780Y0208130D03*
X0058020Y0210140D03*
X0054690Y0210260D03*
X0049350Y0208730D03*
X0047340Y0210140D03*
X0044580Y0208160D03*
X0044550Y0208130D03*
X0044550Y0204350D03*
X0044580Y0204320D03*
X0049560Y0204800D03*
X0049590Y0204770D03*
X0049590Y0204740D03*
X0049620Y0204710D03*
X0052680Y0200510D03*
X0055740Y0204740D03*
X0055770Y0204770D03*
X0060780Y0204350D03*
X0060810Y0204380D03*
X0057990Y0196940D03*
X0047400Y0196910D03*
X0047370Y0196940D03*
D349*
X0046920Y0197360D03*
X0046890Y0197390D03*
X0049290Y0197450D03*
X0049290Y0197480D03*
X0049290Y0197510D03*
X0049290Y0197540D03*
X0049290Y0197570D03*
X0049290Y0197600D03*
X0049290Y0197630D03*
X0049290Y0197660D03*
X0049290Y0197690D03*
X0049290Y0197720D03*
X0049290Y0197750D03*
X0049290Y0197780D03*
X0049290Y0197810D03*
X0049290Y0197840D03*
X0049290Y0197870D03*
X0049290Y0197900D03*
X0049290Y0197930D03*
X0049290Y0197960D03*
X0049320Y0198110D03*
X0049320Y0197300D03*
X0049320Y0197270D03*
X0049320Y0197240D03*
X0049320Y0197210D03*
X0049320Y0197180D03*
X0049380Y0196970D03*
X0049380Y0196940D03*
X0049380Y0196910D03*
X0052440Y0201200D03*
X0052380Y0201410D03*
X0052380Y0201440D03*
X0052380Y0201470D03*
X0052380Y0201500D03*
X0052320Y0201860D03*
X0052320Y0201890D03*
X0052320Y0201920D03*
X0052320Y0201950D03*
X0052320Y0201980D03*
X0052320Y0202010D03*
X0052320Y0202040D03*
X0052320Y0202070D03*
X0052320Y0202100D03*
X0052320Y0202130D03*
X0052320Y0202160D03*
X0052320Y0202190D03*
X0052320Y0202220D03*
X0052320Y0202250D03*
X0052320Y0202280D03*
X0052680Y0206930D03*
X0056370Y0207530D03*
X0056370Y0207560D03*
X0056370Y0207590D03*
X0056370Y0207620D03*
X0056370Y0207650D03*
X0056340Y0207710D03*
X0056340Y0207740D03*
X0056430Y0207230D03*
X0056430Y0207200D03*
X0056430Y0207170D03*
X0056430Y0207140D03*
X0056430Y0207110D03*
X0056430Y0207080D03*
X0056430Y0207050D03*
X0056430Y0206720D03*
X0056430Y0206690D03*
X0056430Y0206660D03*
X0056430Y0206630D03*
X0056430Y0206600D03*
X0056430Y0206570D03*
X0056430Y0206540D03*
X0056370Y0206240D03*
X0056370Y0206210D03*
X0056370Y0206180D03*
X0056370Y0206150D03*
X0056370Y0206120D03*
X0056340Y0206060D03*
X0056340Y0206030D03*
X0061290Y0205430D03*
X0061320Y0205520D03*
X0061320Y0205550D03*
X0061320Y0205580D03*
X0061320Y0205610D03*
X0061380Y0205850D03*
X0061380Y0205880D03*
X0061380Y0205910D03*
X0061380Y0205940D03*
X0061380Y0205970D03*
X0061380Y0206000D03*
X0061380Y0206030D03*
X0061380Y0206450D03*
X0061380Y0206480D03*
X0061380Y0206510D03*
X0061380Y0206540D03*
X0061380Y0206570D03*
X0061380Y0206600D03*
X0061380Y0206630D03*
X0061320Y0206870D03*
X0061320Y0206900D03*
X0061320Y0206930D03*
X0061320Y0206960D03*
X0061290Y0207050D03*
X0059070Y0201800D03*
X0059070Y0201770D03*
X0059070Y0201740D03*
X0059070Y0201710D03*
X0059070Y0201680D03*
X0059070Y0201650D03*
X0059040Y0201590D03*
X0059040Y0201560D03*
X0059040Y0201530D03*
X0059040Y0201500D03*
X0059040Y0201470D03*
X0058980Y0201260D03*
X0058980Y0201230D03*
X0060270Y0201020D03*
X0060330Y0201080D03*
X0056040Y0198110D03*
X0056040Y0198080D03*
X0056040Y0198050D03*
X0056040Y0198020D03*
X0056040Y0197990D03*
X0056040Y0197960D03*
X0056040Y0197930D03*
X0056040Y0197480D03*
X0056040Y0197450D03*
X0056040Y0197420D03*
X0056040Y0197390D03*
X0056040Y0197360D03*
X0056040Y0197330D03*
X0055980Y0197060D03*
X0055980Y0197030D03*
X0055980Y0197000D03*
X0046320Y0201380D03*
X0046320Y0201410D03*
X0046320Y0201440D03*
X0046320Y0201470D03*
X0046290Y0201500D03*
X0046290Y0201530D03*
X0046290Y0201560D03*
X0046290Y0201590D03*
X0046290Y0201620D03*
X0046290Y0201650D03*
X0045030Y0201050D03*
X0044040Y0205460D03*
X0044040Y0205490D03*
X0043980Y0205700D03*
X0043980Y0205730D03*
X0043980Y0205760D03*
X0043980Y0205790D03*
X0043980Y0205820D03*
X0043980Y0205850D03*
X0043980Y0206630D03*
X0043980Y0206660D03*
X0043980Y0206690D03*
X0043980Y0206720D03*
X0043980Y0206750D03*
X0043980Y0206780D03*
X0044040Y0206990D03*
X0044040Y0207020D03*
X0048930Y0207290D03*
X0048930Y0207320D03*
X0048930Y0207350D03*
X0048930Y0207380D03*
X0048930Y0207410D03*
X0048990Y0207650D03*
X0048990Y0207680D03*
X0048990Y0207710D03*
X0049020Y0207800D03*
X0049020Y0207830D03*
X0048930Y0206480D03*
X0048930Y0206450D03*
X0048930Y0206420D03*
X0048930Y0206390D03*
X0048930Y0206360D03*
X0048990Y0206120D03*
X0048990Y0206090D03*
X0048990Y0206060D03*
X0049020Y0205970D03*
X0052680Y0213410D03*
X0067680Y0212690D03*
X0067680Y0212660D03*
X0067680Y0212630D03*
X0067680Y0212600D03*
X0067680Y0212570D03*
X0067680Y0212540D03*
X0067680Y0212510D03*
X0067680Y0212480D03*
X0067680Y0212450D03*
X0067680Y0212420D03*
X0067680Y0212390D03*
X0067680Y0212360D03*
X0067680Y0212330D03*
X0067680Y0212300D03*
X0067680Y0212270D03*
X0067680Y0212240D03*
X0067680Y0212210D03*
X0067680Y0212180D03*
X0067680Y0212150D03*
X0067680Y0212120D03*
X0067680Y0212090D03*
X0067680Y0212060D03*
X0067680Y0212030D03*
X0067680Y0212000D03*
X0067680Y0211970D03*
X0067680Y0211940D03*
X0067680Y0211910D03*
X0067680Y0211880D03*
X0067680Y0211850D03*
X0067680Y0211820D03*
X0067680Y0211790D03*
X0067680Y0211760D03*
X0067680Y0211730D03*
X0067680Y0211700D03*
X0067680Y0211670D03*
X0067680Y0211640D03*
X0067680Y0211610D03*
X0067680Y0211580D03*
X0067680Y0211550D03*
X0067680Y0211520D03*
X0067680Y0211490D03*
X0067680Y0211460D03*
X0067680Y0211430D03*
X0067680Y0211400D03*
X0067680Y0211370D03*
X0067680Y0211340D03*
X0067680Y0211310D03*
X0067680Y0211280D03*
X0067680Y0211250D03*
X0067680Y0211220D03*
X0067680Y0211190D03*
X0067680Y0211160D03*
X0067680Y0211130D03*
X0067680Y0211100D03*
X0067680Y0211070D03*
X0067680Y0211040D03*
X0067680Y0211010D03*
X0067680Y0210980D03*
X0067680Y0210950D03*
X0067680Y0210920D03*
X0067680Y0210890D03*
X0067680Y0210860D03*
X0067680Y0210830D03*
X0067680Y0210800D03*
X0067680Y0210770D03*
X0067680Y0210740D03*
X0067680Y0210710D03*
X0067680Y0210680D03*
X0067680Y0210650D03*
X0067680Y0210620D03*
X0067680Y0210590D03*
X0067680Y0210560D03*
X0067680Y0210530D03*
X0067680Y0209420D03*
X0067680Y0209390D03*
X0067680Y0209360D03*
X0067680Y0209330D03*
X0067680Y0209300D03*
X0067680Y0209270D03*
X0067680Y0209240D03*
X0067680Y0209210D03*
X0067680Y0209180D03*
X0067680Y0209150D03*
X0067680Y0209120D03*
X0067680Y0209090D03*
X0067680Y0209060D03*
X0067680Y0209030D03*
X0067680Y0209000D03*
X0067680Y0208970D03*
X0067680Y0208940D03*
X0067680Y0208910D03*
X0067680Y0208880D03*
X0067680Y0208850D03*
X0067680Y0208820D03*
X0067680Y0208790D03*
X0067680Y0208760D03*
X0067680Y0208730D03*
X0067680Y0208700D03*
X0067680Y0208670D03*
X0067680Y0208640D03*
X0067680Y0208610D03*
X0067680Y0208580D03*
X0067680Y0208550D03*
X0067680Y0208520D03*
X0067680Y0208490D03*
X0067680Y0208460D03*
X0067680Y0208430D03*
X0067680Y0208400D03*
X0067680Y0208370D03*
X0067680Y0208340D03*
X0067680Y0208310D03*
X0067680Y0208280D03*
X0067680Y0208250D03*
X0067680Y0208220D03*
X0067680Y0208190D03*
X0067680Y0208160D03*
X0067680Y0208130D03*
X0067680Y0208100D03*
X0067680Y0208070D03*
X0067680Y0208040D03*
X0067680Y0208010D03*
X0067680Y0207980D03*
X0067680Y0207950D03*
X0067680Y0207920D03*
X0067680Y0207890D03*
X0067680Y0207860D03*
X0067680Y0207830D03*
X0067680Y0207800D03*
X0067680Y0207770D03*
X0067680Y0207740D03*
X0067680Y0207710D03*
X0067680Y0207680D03*
X0067680Y0207650D03*
X0067680Y0207620D03*
X0067680Y0207590D03*
X0067680Y0207560D03*
X0067680Y0207530D03*
X0067680Y0207500D03*
X0067680Y0207470D03*
X0067680Y0207440D03*
X0067680Y0207410D03*
X0067680Y0207380D03*
X0067680Y0207350D03*
X0067680Y0207320D03*
X0067680Y0207290D03*
X0067680Y0207260D03*
X0067680Y0207230D03*
X0067680Y0207200D03*
X0067680Y0207170D03*
X0067680Y0207140D03*
X0067680Y0207110D03*
X0067680Y0207080D03*
X0067680Y0207050D03*
X0071190Y0211190D03*
X0071190Y0211220D03*
X0071220Y0211310D03*
X0071220Y0211340D03*
X0071220Y0211370D03*
X0071220Y0211400D03*
X0071220Y0211430D03*
X0071220Y0211460D03*
X0071220Y0211490D03*
X0071220Y0211520D03*
X0071220Y0211550D03*
X0071220Y0211580D03*
X0071220Y0211610D03*
X0071220Y0211640D03*
X0071220Y0211670D03*
X0071220Y0211700D03*
X0071220Y0211730D03*
X0071220Y0211760D03*
X0071220Y0211790D03*
X0071220Y0211820D03*
X0071220Y0211850D03*
X0071220Y0211880D03*
X0071220Y0211910D03*
X0071220Y0211940D03*
X0071190Y0212030D03*
X0071190Y0212060D03*
X0072930Y0212570D03*
X0072930Y0213020D03*
X0072930Y0213050D03*
X0077340Y0212300D03*
X0077340Y0212270D03*
X0077340Y0212240D03*
X0077340Y0211790D03*
X0077340Y0211760D03*
X0077340Y0211730D03*
X0080940Y0212360D03*
X0081090Y0208760D03*
X0081090Y0208730D03*
X0081090Y0208700D03*
X0081090Y0208670D03*
X0081090Y0208640D03*
X0081090Y0208610D03*
X0081090Y0208580D03*
X0081090Y0208550D03*
X0081090Y0208520D03*
X0081090Y0208490D03*
X0082830Y0207920D03*
X0085740Y0207950D03*
X0085740Y0207980D03*
X0085770Y0208040D03*
X0087690Y0208370D03*
X0087690Y0208400D03*
X0087690Y0208430D03*
X0087690Y0208460D03*
X0087690Y0209780D03*
X0087690Y0209810D03*
X0087690Y0209840D03*
X0087690Y0209870D03*
X0090990Y0209990D03*
X0090990Y0210020D03*
X0091020Y0209930D03*
X0091020Y0209900D03*
X0091020Y0208340D03*
X0091020Y0208310D03*
X0090990Y0208250D03*
X0090990Y0208220D03*
X0090990Y0208190D03*
X0096090Y0208220D03*
X0096090Y0208250D03*
X0096090Y0208280D03*
X0096120Y0208370D03*
X0096120Y0208400D03*
X0096120Y0209840D03*
X0096120Y0209870D03*
X0096090Y0209960D03*
X0096090Y0209990D03*
X0097770Y0207620D03*
X0100380Y0208730D03*
X0100380Y0208760D03*
X0100320Y0208880D03*
X0100290Y0208940D03*
X0100290Y0208970D03*
X0100230Y0209090D03*
X0100170Y0209240D03*
X0100140Y0209330D03*
X0100080Y0209450D03*
X0100020Y0209600D03*
X0099990Y0209690D03*
X0100440Y0208610D03*
X0100440Y0208580D03*
X0100470Y0208520D03*
X0101730Y0208520D03*
X0101730Y0208550D03*
X0101790Y0208670D03*
X0101790Y0208700D03*
X0101820Y0208760D03*
X0101880Y0208910D03*
X0101940Y0209060D03*
X0101970Y0209120D03*
X0102030Y0209270D03*
X0102090Y0209420D03*
X0102120Y0209480D03*
X0102180Y0209630D03*
X0102240Y0209780D03*
X0102270Y0209840D03*
X0102330Y0209990D03*
X0102390Y0210140D03*
X0102780Y0211100D03*
X0102780Y0211130D03*
X0102780Y0211160D03*
X0099420Y0211130D03*
X0099420Y0211100D03*
X0099420Y0211070D03*
X0101070Y0206990D03*
X0101070Y0206960D03*
X0101040Y0206900D03*
X0101040Y0206870D03*
X0100980Y0206780D03*
X0100980Y0206750D03*
X0100920Y0206630D03*
X0100920Y0206600D03*
X0100890Y0206540D03*
X0100830Y0206420D03*
X0100830Y0206390D03*
X0099480Y0204740D03*
D350*
X0099525Y0204800D03*
X0100455Y0205790D03*
X0098265Y0206840D03*
X0095805Y0207710D03*
X0092865Y0207980D03*
X0090735Y0207740D03*
X0090705Y0207710D03*
X0087795Y0207950D03*
X0085575Y0207680D03*
X0087795Y0210290D03*
X0090705Y0210530D03*
X0090735Y0210500D03*
X0092865Y0210290D03*
X0092865Y0210260D03*
X0095835Y0210500D03*
X0080865Y0209330D03*
X0080865Y0207860D03*
X0080835Y0207830D03*
X0077115Y0207980D03*
X0077505Y0211430D03*
X0077475Y0211460D03*
X0077535Y0212660D03*
X0080835Y0212540D03*
X0070995Y0212510D03*
X0070995Y0210740D03*
X0060855Y0208040D03*
X0060825Y0208070D03*
X0060855Y0204440D03*
X0060825Y0204410D03*
X0055845Y0204890D03*
X0055815Y0204860D03*
X0055815Y0204830D03*
X0055785Y0204800D03*
X0052665Y0200540D03*
X0049545Y0204830D03*
X0049515Y0204860D03*
X0049485Y0204890D03*
X0049455Y0204950D03*
X0049365Y0208700D03*
X0050655Y0210290D03*
X0054675Y0210290D03*
X0044535Y0208100D03*
X0044505Y0208070D03*
X0044475Y0208010D03*
X0044475Y0204470D03*
X0044505Y0204410D03*
X0044535Y0204380D03*
X0047325Y0196970D03*
D351*
X0047280Y0197000D03*
X0047250Y0197030D03*
X0044490Y0204440D03*
X0044460Y0204500D03*
X0044430Y0204530D03*
X0044400Y0204590D03*
X0044430Y0207950D03*
X0044460Y0207980D03*
X0044490Y0208040D03*
X0049410Y0205010D03*
X0049440Y0204980D03*
X0049470Y0204920D03*
X0055860Y0204920D03*
X0055890Y0204950D03*
X0055920Y0205010D03*
X0055980Y0208700D03*
X0054660Y0210320D03*
X0050670Y0210320D03*
X0060870Y0208010D03*
X0060900Y0207980D03*
X0060900Y0207950D03*
X0060930Y0207920D03*
X0060930Y0204560D03*
X0060900Y0204530D03*
X0060900Y0204500D03*
X0060870Y0204470D03*
X0058050Y0197000D03*
X0058020Y0196970D03*
X0071010Y0210770D03*
X0071010Y0212480D03*
X0077100Y0208010D03*
X0077460Y0211490D03*
X0077490Y0212600D03*
X0077520Y0212630D03*
X0079080Y0213890D03*
X0080850Y0212510D03*
X0080880Y0209300D03*
X0080910Y0209270D03*
X0080880Y0207890D03*
X0082950Y0207710D03*
X0082980Y0207680D03*
X0084270Y0206540D03*
X0087780Y0207980D03*
X0087780Y0208010D03*
X0089400Y0206570D03*
X0092850Y0208010D03*
X0092850Y0208040D03*
X0092850Y0210200D03*
X0092850Y0210230D03*
X0094500Y0211670D03*
X0095850Y0210470D03*
X0095850Y0207770D03*
X0095820Y0207740D03*
X0094500Y0206570D03*
X0097890Y0207590D03*
X0100470Y0205820D03*
X0101100Y0207230D03*
X0101100Y0207260D03*
X0089400Y0211670D03*
X0087780Y0210260D03*
X0087780Y0210230D03*
D352*
X0087765Y0210200D03*
X0087765Y0208040D03*
X0085605Y0207710D03*
X0080895Y0207920D03*
X0077445Y0211520D03*
X0080865Y0212480D03*
X0071055Y0212420D03*
X0071055Y0210830D03*
X0061005Y0207800D03*
X0060945Y0207890D03*
X0061005Y0204680D03*
X0060945Y0204590D03*
X0055995Y0205130D03*
X0055965Y0205100D03*
X0055965Y0205070D03*
X0055905Y0204980D03*
X0055995Y0208640D03*
X0055965Y0208670D03*
X0049365Y0208670D03*
X0049365Y0205100D03*
X0049395Y0205070D03*
X0049395Y0205040D03*
X0044415Y0204560D03*
X0044355Y0204650D03*
X0044355Y0207830D03*
X0044415Y0207920D03*
X0052665Y0200600D03*
X0052665Y0200570D03*
X0049395Y0198140D03*
X0047205Y0197060D03*
X0058095Y0197030D03*
X0090765Y0207770D03*
X0090795Y0207800D03*
X0090795Y0210440D03*
X0090765Y0210470D03*
X0095865Y0210440D03*
X0095895Y0210410D03*
X0095865Y0207800D03*
X0098265Y0206810D03*
X0100515Y0205850D03*
D353*
X0101085Y0207200D03*
X0092835Y0208070D03*
X0092835Y0208100D03*
X0092835Y0210140D03*
X0092835Y0210170D03*
X0085635Y0207740D03*
X0080925Y0207950D03*
X0080925Y0209240D03*
X0077085Y0208040D03*
X0077475Y0212570D03*
X0071025Y0212450D03*
X0071025Y0210800D03*
X0060975Y0207860D03*
X0060975Y0207830D03*
X0060975Y0204650D03*
X0060975Y0204620D03*
X0056025Y0205190D03*
X0055935Y0205040D03*
X0056025Y0208580D03*
X0049335Y0208610D03*
X0049335Y0205160D03*
X0044385Y0204620D03*
X0044325Y0204710D03*
X0044325Y0207770D03*
X0044385Y0207860D03*
X0044385Y0207890D03*
X0055935Y0198140D03*
X0058125Y0197060D03*
D354*
X0058170Y0197090D03*
X0058200Y0197120D03*
X0052650Y0200630D03*
X0052650Y0200660D03*
X0049350Y0205130D03*
X0049320Y0205190D03*
X0049290Y0205220D03*
X0049290Y0205250D03*
X0049260Y0205310D03*
X0049260Y0208460D03*
X0049290Y0208520D03*
X0049290Y0208550D03*
X0049320Y0208580D03*
X0049350Y0208640D03*
X0050700Y0210350D03*
X0054660Y0210350D03*
X0056010Y0208610D03*
X0056040Y0208550D03*
X0056070Y0208490D03*
X0056100Y0208430D03*
X0056100Y0205340D03*
X0056070Y0205280D03*
X0056040Y0205220D03*
X0056010Y0205160D03*
X0061020Y0204740D03*
X0061020Y0204710D03*
X0061050Y0204770D03*
X0061050Y0204800D03*
X0061050Y0207710D03*
X0061020Y0207740D03*
X0061020Y0207770D03*
X0071070Y0210860D03*
X0071100Y0210920D03*
X0071100Y0212330D03*
X0071070Y0212390D03*
X0077070Y0208070D03*
X0080940Y0207980D03*
X0080970Y0209180D03*
X0080940Y0209210D03*
X0082920Y0207740D03*
X0085650Y0207770D03*
X0087750Y0208070D03*
X0087750Y0208100D03*
X0087750Y0210140D03*
X0087750Y0210170D03*
X0090810Y0210410D03*
X0090840Y0210350D03*
X0092820Y0210110D03*
X0092820Y0210080D03*
X0092820Y0208160D03*
X0092820Y0208130D03*
X0090810Y0207830D03*
X0095910Y0207830D03*
X0095910Y0207860D03*
X0099510Y0204770D03*
X0100560Y0205910D03*
X0101100Y0207140D03*
X0101100Y0207170D03*
X0095910Y0210380D03*
X0077460Y0212540D03*
X0047190Y0197090D03*
X0044340Y0204680D03*
X0044310Y0204740D03*
X0044310Y0204770D03*
X0044250Y0204860D03*
X0044250Y0207620D03*
X0044310Y0207740D03*
X0044340Y0207800D03*
D355*
X0044295Y0207710D03*
X0044265Y0207650D03*
X0044235Y0207590D03*
X0044235Y0207560D03*
X0044205Y0207530D03*
X0044205Y0207500D03*
X0044175Y0207440D03*
X0044175Y0205040D03*
X0044205Y0204980D03*
X0044205Y0204950D03*
X0044235Y0204920D03*
X0044235Y0204890D03*
X0044265Y0204830D03*
X0049155Y0205550D03*
X0049185Y0205460D03*
X0049215Y0205400D03*
X0049245Y0205340D03*
X0049275Y0205280D03*
X0052665Y0207050D03*
X0052665Y0207080D03*
X0052665Y0207110D03*
X0052665Y0207140D03*
X0049275Y0208490D03*
X0049245Y0208430D03*
X0049215Y0208400D03*
X0049215Y0208370D03*
X0049185Y0208310D03*
X0052665Y0213200D03*
X0052665Y0213230D03*
X0052665Y0213260D03*
X0052665Y0213290D03*
X0056055Y0208520D03*
X0056085Y0208460D03*
X0056115Y0208400D03*
X0056115Y0208370D03*
X0056145Y0208340D03*
X0056145Y0208310D03*
X0056175Y0208250D03*
X0056175Y0205520D03*
X0056145Y0205460D03*
X0056145Y0205430D03*
X0056115Y0205400D03*
X0056115Y0205370D03*
X0056085Y0205310D03*
X0056055Y0205250D03*
X0061095Y0204890D03*
X0061095Y0204860D03*
X0061125Y0204920D03*
X0061125Y0204950D03*
X0061155Y0205010D03*
X0061155Y0207470D03*
X0061125Y0207530D03*
X0061125Y0207560D03*
X0061095Y0207590D03*
X0061095Y0207620D03*
X0061065Y0207680D03*
X0060165Y0200900D03*
X0060135Y0200870D03*
X0058215Y0197150D03*
X0052635Y0200690D03*
X0052605Y0200720D03*
X0052605Y0200750D03*
X0052575Y0200810D03*
X0047145Y0197120D03*
X0047115Y0197150D03*
X0047085Y0197180D03*
X0071085Y0210890D03*
X0071115Y0210950D03*
X0071115Y0212300D03*
X0071085Y0212360D03*
X0077055Y0208100D03*
X0077415Y0211580D03*
X0077385Y0211610D03*
X0077415Y0212480D03*
X0080985Y0209150D03*
X0080985Y0209120D03*
X0080985Y0208070D03*
X0080955Y0208010D03*
X0082875Y0207800D03*
X0082905Y0207770D03*
X0085665Y0207800D03*
X0087735Y0208130D03*
X0087735Y0208160D03*
X0087735Y0208190D03*
X0087735Y0210050D03*
X0087735Y0210080D03*
X0087735Y0210110D03*
X0090825Y0210380D03*
X0090855Y0210320D03*
X0090885Y0210290D03*
X0092805Y0210050D03*
X0092805Y0210020D03*
X0092805Y0208220D03*
X0092805Y0208190D03*
X0090855Y0207920D03*
X0090855Y0207890D03*
X0090825Y0207860D03*
X0095925Y0207890D03*
X0095955Y0207920D03*
X0095955Y0210320D03*
X0095925Y0210350D03*
X0100635Y0206030D03*
X0100605Y0205970D03*
X0100575Y0205940D03*
D356*
X0098295Y0206720D03*
X0096135Y0208430D03*
X0096135Y0208460D03*
X0096135Y0208490D03*
X0096135Y0208520D03*
X0096165Y0208580D03*
X0096165Y0208610D03*
X0096165Y0208640D03*
X0096165Y0208670D03*
X0096165Y0208700D03*
X0096165Y0208730D03*
X0096195Y0208970D03*
X0096195Y0209000D03*
X0096195Y0209030D03*
X0096195Y0209060D03*
X0096195Y0209090D03*
X0096195Y0209120D03*
X0096195Y0209150D03*
X0096195Y0209180D03*
X0096195Y0209210D03*
X0096195Y0209240D03*
X0096195Y0209270D03*
X0096165Y0209510D03*
X0096165Y0209540D03*
X0096165Y0209570D03*
X0096165Y0209600D03*
X0096165Y0209630D03*
X0096165Y0209660D03*
X0096135Y0209720D03*
X0096135Y0209750D03*
X0096135Y0209780D03*
X0096135Y0209810D03*
X0094485Y0211700D03*
X0092745Y0209660D03*
X0092745Y0209630D03*
X0092745Y0209600D03*
X0092745Y0209570D03*
X0092745Y0209540D03*
X0092745Y0209510D03*
X0092745Y0209480D03*
X0092745Y0208760D03*
X0092745Y0208730D03*
X0092745Y0208700D03*
X0092745Y0208670D03*
X0092745Y0208640D03*
X0092745Y0208610D03*
X0092745Y0208580D03*
X0091095Y0208760D03*
X0091095Y0208790D03*
X0091095Y0208820D03*
X0091095Y0208850D03*
X0091095Y0208880D03*
X0091095Y0208910D03*
X0091095Y0208940D03*
X0091095Y0208970D03*
X0091095Y0209000D03*
X0091095Y0209030D03*
X0091095Y0209060D03*
X0091095Y0209090D03*
X0091095Y0209120D03*
X0091095Y0209150D03*
X0091095Y0209180D03*
X0091095Y0209210D03*
X0091095Y0209240D03*
X0091095Y0209270D03*
X0091095Y0209300D03*
X0091095Y0209330D03*
X0091095Y0209360D03*
X0091095Y0209390D03*
X0091095Y0209420D03*
X0091095Y0209450D03*
X0091095Y0209480D03*
X0091065Y0209600D03*
X0091065Y0209630D03*
X0091065Y0209660D03*
X0091065Y0209690D03*
X0091065Y0209720D03*
X0091035Y0209780D03*
X0091035Y0209810D03*
X0091035Y0209840D03*
X0091035Y0209870D03*
X0091065Y0208640D03*
X0091065Y0208610D03*
X0091065Y0208580D03*
X0091065Y0208550D03*
X0091065Y0208520D03*
X0091035Y0208460D03*
X0091035Y0208430D03*
X0091035Y0208400D03*
X0091035Y0208370D03*
X0092745Y0206780D03*
X0092745Y0206750D03*
X0092745Y0206720D03*
X0092745Y0206690D03*
X0092745Y0206660D03*
X0092745Y0206630D03*
X0092745Y0206600D03*
X0092745Y0206570D03*
X0092745Y0206540D03*
X0092745Y0206510D03*
X0092745Y0206480D03*
X0092745Y0206450D03*
X0092745Y0206420D03*
X0092745Y0206390D03*
X0092745Y0206360D03*
X0092745Y0206330D03*
X0092745Y0206300D03*
X0092745Y0206270D03*
X0092745Y0206240D03*
X0092745Y0206210D03*
X0092745Y0206180D03*
X0092745Y0206150D03*
X0092745Y0206120D03*
X0092745Y0206090D03*
X0092745Y0206060D03*
X0092745Y0206030D03*
X0092745Y0206000D03*
X0092745Y0205970D03*
X0092745Y0205940D03*
X0092745Y0205910D03*
X0092745Y0205880D03*
X0092745Y0205850D03*
X0092745Y0205820D03*
X0092745Y0205790D03*
X0092745Y0205760D03*
X0092745Y0205730D03*
X0092745Y0205700D03*
X0092745Y0205670D03*
X0092745Y0205640D03*
X0092745Y0205610D03*
X0092745Y0205580D03*
X0092745Y0205550D03*
X0092745Y0205520D03*
X0092745Y0205490D03*
X0092745Y0205460D03*
X0092745Y0205430D03*
X0092745Y0205400D03*
X0092745Y0205370D03*
X0092745Y0205340D03*
X0092745Y0205310D03*
X0092745Y0205280D03*
X0092745Y0205250D03*
X0092745Y0205220D03*
X0092745Y0205190D03*
X0092745Y0205160D03*
X0092745Y0205130D03*
X0094485Y0206540D03*
X0087675Y0208490D03*
X0087675Y0208520D03*
X0087675Y0208550D03*
X0087675Y0208580D03*
X0087675Y0208610D03*
X0087675Y0209630D03*
X0087675Y0209660D03*
X0087675Y0209690D03*
X0087675Y0209720D03*
X0087675Y0209750D03*
X0085815Y0209750D03*
X0085815Y0209780D03*
X0085815Y0209810D03*
X0085815Y0209840D03*
X0085815Y0209870D03*
X0085815Y0209900D03*
X0085815Y0209930D03*
X0085815Y0209960D03*
X0085815Y0209990D03*
X0085815Y0210020D03*
X0085815Y0210050D03*
X0085815Y0210080D03*
X0085815Y0210110D03*
X0085815Y0210140D03*
X0085815Y0210170D03*
X0085815Y0210200D03*
X0085815Y0210230D03*
X0085815Y0210260D03*
X0085815Y0210290D03*
X0085815Y0210320D03*
X0085815Y0210350D03*
X0085815Y0210380D03*
X0085815Y0210410D03*
X0085815Y0210440D03*
X0085815Y0210470D03*
X0085815Y0210500D03*
X0085815Y0210530D03*
X0085815Y0210560D03*
X0085815Y0210590D03*
X0085815Y0210620D03*
X0085815Y0210650D03*
X0085815Y0210680D03*
X0085815Y0210710D03*
X0085815Y0210740D03*
X0085815Y0210770D03*
X0085815Y0210800D03*
X0085815Y0210830D03*
X0085815Y0210860D03*
X0085815Y0210890D03*
X0085815Y0210920D03*
X0085815Y0210950D03*
X0085815Y0210980D03*
X0085815Y0211010D03*
X0085815Y0211040D03*
X0085815Y0211070D03*
X0085815Y0211100D03*
X0085815Y0211130D03*
X0085815Y0211160D03*
X0085815Y0209720D03*
X0085815Y0209690D03*
X0085815Y0209660D03*
X0085815Y0209630D03*
X0085815Y0209600D03*
X0085815Y0209570D03*
X0085815Y0209540D03*
X0085815Y0209510D03*
X0085815Y0209480D03*
X0085815Y0209450D03*
X0085815Y0209420D03*
X0085815Y0209390D03*
X0085815Y0209360D03*
X0085815Y0209330D03*
X0085815Y0209300D03*
X0085815Y0209270D03*
X0085815Y0209240D03*
X0085815Y0209210D03*
X0085815Y0209180D03*
X0085815Y0209150D03*
X0085815Y0209120D03*
X0085815Y0209090D03*
X0085815Y0209060D03*
X0085815Y0209030D03*
X0085815Y0209000D03*
X0085815Y0208970D03*
X0085815Y0208940D03*
X0085815Y0208910D03*
X0085815Y0208880D03*
X0085815Y0208850D03*
X0085815Y0208820D03*
X0085815Y0208790D03*
X0085815Y0208760D03*
X0085815Y0208730D03*
X0085815Y0208700D03*
X0085815Y0208670D03*
X0085815Y0208640D03*
X0085815Y0208610D03*
X0085815Y0208580D03*
X0085815Y0208550D03*
X0085815Y0208520D03*
X0085815Y0208490D03*
X0085815Y0208460D03*
X0085815Y0208430D03*
X0085815Y0208400D03*
X0085815Y0208370D03*
X0085785Y0208190D03*
X0085785Y0208160D03*
X0085785Y0208130D03*
X0085785Y0208100D03*
X0085785Y0208070D03*
X0082785Y0208070D03*
X0082785Y0208100D03*
X0082785Y0208040D03*
X0081075Y0208430D03*
X0081075Y0208460D03*
X0081075Y0208790D03*
X0081075Y0208820D03*
X0076995Y0208250D03*
X0076995Y0208220D03*
X0072945Y0212510D03*
X0072945Y0212540D03*
X0072945Y0213080D03*
X0067665Y0207020D03*
X0061395Y0206420D03*
X0061395Y0206390D03*
X0061395Y0206360D03*
X0061395Y0206330D03*
X0061395Y0206300D03*
X0061395Y0206270D03*
X0061395Y0206240D03*
X0061395Y0206210D03*
X0061395Y0206180D03*
X0061395Y0206150D03*
X0061395Y0206120D03*
X0061395Y0206090D03*
X0061395Y0206060D03*
X0061365Y0205820D03*
X0061365Y0205790D03*
X0061365Y0206660D03*
X0061365Y0206690D03*
X0056445Y0206750D03*
X0056445Y0206780D03*
X0056445Y0206810D03*
X0056445Y0206840D03*
X0056445Y0206870D03*
X0056445Y0206900D03*
X0056445Y0206930D03*
X0056445Y0206960D03*
X0056445Y0206990D03*
X0056445Y0207020D03*
X0056415Y0207260D03*
X0056415Y0207290D03*
X0056415Y0207320D03*
X0056415Y0206510D03*
X0056415Y0206480D03*
X0056415Y0206450D03*
X0052665Y0206900D03*
X0048915Y0207080D03*
X0048915Y0207110D03*
X0048915Y0207140D03*
X0048915Y0207170D03*
X0048915Y0207200D03*
X0048915Y0207230D03*
X0048915Y0207260D03*
X0048945Y0207440D03*
X0048915Y0206690D03*
X0048915Y0206660D03*
X0048915Y0206630D03*
X0048915Y0206600D03*
X0048915Y0206570D03*
X0048915Y0206540D03*
X0048915Y0206510D03*
X0048945Y0206330D03*
X0043965Y0206510D03*
X0043965Y0206540D03*
X0043965Y0206570D03*
X0043965Y0206600D03*
X0043965Y0205970D03*
X0043965Y0205940D03*
X0043965Y0205910D03*
X0043965Y0205880D03*
X0046245Y0202100D03*
X0046245Y0202070D03*
X0046275Y0201740D03*
X0046275Y0201710D03*
X0046275Y0201680D03*
X0045015Y0201080D03*
X0044985Y0201110D03*
X0046815Y0197480D03*
X0046845Y0197450D03*
X0046875Y0197420D03*
X0049335Y0197150D03*
X0052365Y0201530D03*
X0052335Y0201740D03*
X0052335Y0201770D03*
X0052335Y0201800D03*
X0052335Y0201830D03*
X0052335Y0202310D03*
X0052335Y0202340D03*
X0052335Y0202370D03*
X0052335Y0202400D03*
X0052335Y0202430D03*
X0056025Y0197300D03*
X0056025Y0197270D03*
X0058425Y0197360D03*
X0058485Y0197420D03*
X0058545Y0197510D03*
X0060345Y0201110D03*
X0060375Y0201140D03*
X0059085Y0201830D03*
X0059085Y0201860D03*
X0059085Y0201890D03*
X0059085Y0201920D03*
X0059085Y0201950D03*
X0059085Y0201980D03*
X0059085Y0202010D03*
X0059085Y0202040D03*
X0059085Y0202070D03*
X0059085Y0202100D03*
X0059085Y0202130D03*
X0059085Y0202160D03*
X0059085Y0202190D03*
X0059085Y0202220D03*
X0059085Y0202250D03*
X0059085Y0202280D03*
X0054615Y0210440D03*
X0052665Y0213440D03*
X0102795Y0211220D03*
X0102795Y0211190D03*
D357*
X0099405Y0211190D03*
X0099405Y0211160D03*
X0096105Y0209930D03*
X0096105Y0209900D03*
X0096105Y0208340D03*
X0096105Y0208310D03*
X0097755Y0207710D03*
X0097755Y0207680D03*
X0097755Y0207650D03*
X0091005Y0208280D03*
X0091005Y0209960D03*
X0085755Y0208010D03*
X0082755Y0208160D03*
X0082755Y0208190D03*
X0082755Y0208220D03*
X0082755Y0208250D03*
X0080955Y0212330D03*
X0060405Y0201170D03*
X0059055Y0201620D03*
X0058455Y0197390D03*
X0056055Y0197510D03*
X0056055Y0197540D03*
X0056055Y0197570D03*
X0056055Y0197600D03*
X0056055Y0197630D03*
X0056055Y0197660D03*
X0056055Y0197690D03*
X0056055Y0197720D03*
X0056055Y0197750D03*
X0056055Y0197780D03*
X0056055Y0197810D03*
X0056055Y0197840D03*
X0056055Y0197870D03*
X0056055Y0197900D03*
X0049305Y0197990D03*
X0049305Y0198020D03*
X0049305Y0198050D03*
X0049305Y0198080D03*
X0049305Y0197420D03*
X0049305Y0197390D03*
X0049305Y0197360D03*
X0049305Y0197330D03*
X0044955Y0201140D03*
D358*
X0044835Y0201320D03*
X0044805Y0201350D03*
X0044745Y0201440D03*
X0046665Y0197690D03*
X0046695Y0197660D03*
X0046725Y0197600D03*
X0046755Y0197570D03*
X0052665Y0206840D03*
X0050745Y0210470D03*
X0052665Y0213500D03*
X0060555Y0201380D03*
X0060525Y0201350D03*
X0060525Y0201320D03*
X0060495Y0201290D03*
X0058665Y0197690D03*
X0058635Y0197630D03*
X0058605Y0197600D03*
X0067665Y0206900D03*
X0072945Y0206930D03*
X0072945Y0206960D03*
X0072945Y0211280D03*
X0072945Y0211310D03*
X0072945Y0212450D03*
X0072945Y0213140D03*
X0080955Y0212300D03*
X0082725Y0211280D03*
X0085815Y0211280D03*
X0085815Y0211250D03*
X0085815Y0211220D03*
X0085815Y0211310D03*
X0087645Y0209330D03*
X0087645Y0209300D03*
X0087645Y0209270D03*
X0087645Y0209240D03*
X0087645Y0209210D03*
X0087645Y0209180D03*
X0087645Y0209150D03*
X0087645Y0209120D03*
X0087645Y0209090D03*
X0087645Y0209060D03*
X0087645Y0209030D03*
X0087645Y0209000D03*
X0087645Y0208970D03*
X0087645Y0208940D03*
X0087645Y0205010D03*
X0092745Y0205010D03*
X0092745Y0205040D03*
X0092745Y0205070D03*
X0092745Y0204980D03*
X0098295Y0206690D03*
X0099465Y0204710D03*
X0102795Y0211280D03*
X0097725Y0213770D03*
D359*
X0097740Y0213800D03*
X0097740Y0213830D03*
X0099390Y0211340D03*
X0099390Y0211310D03*
X0102810Y0211310D03*
X0102810Y0211340D03*
X0087660Y0204980D03*
X0087660Y0204950D03*
X0082740Y0211310D03*
X0082740Y0211340D03*
X0080970Y0212270D03*
X0076980Y0208310D03*
X0072930Y0206900D03*
X0072930Y0211340D03*
X0072930Y0213170D03*
X0067680Y0206870D03*
X0067680Y0206840D03*
X0060630Y0201500D03*
X0060600Y0201470D03*
X0060600Y0201440D03*
X0060570Y0201410D03*
X0058740Y0197810D03*
X0058710Y0197750D03*
X0058680Y0197720D03*
X0058650Y0197660D03*
X0046710Y0197630D03*
X0046650Y0197720D03*
X0046620Y0197750D03*
X0046620Y0197780D03*
X0046590Y0197810D03*
X0046560Y0197870D03*
X0044790Y0201380D03*
X0044760Y0201410D03*
X0044730Y0201470D03*
X0044700Y0201500D03*
X0044670Y0201560D03*
X0054600Y0210470D03*
D360*
X0054585Y0210500D03*
X0047325Y0210170D03*
X0044625Y0201650D03*
X0044685Y0201530D03*
X0046575Y0197840D03*
X0058725Y0197780D03*
X0058785Y0197870D03*
X0058785Y0197900D03*
X0058875Y0198050D03*
X0060675Y0201560D03*
X0060675Y0201590D03*
X0060735Y0201680D03*
X0082725Y0211370D03*
X0084285Y0206510D03*
X0097725Y0213860D03*
X0099375Y0211370D03*
D361*
X0102795Y0211370D03*
X0092745Y0211400D03*
X0085815Y0211370D03*
X0085815Y0211340D03*
X0080955Y0212240D03*
X0076965Y0208340D03*
X0072945Y0206870D03*
X0072945Y0211370D03*
X0072945Y0212420D03*
X0060765Y0201740D03*
X0060705Y0201620D03*
X0060645Y0201530D03*
X0058845Y0197990D03*
X0058815Y0197930D03*
X0058755Y0197840D03*
X0052665Y0206810D03*
X0058005Y0210170D03*
X0052665Y0213530D03*
X0044595Y0201710D03*
X0044655Y0201590D03*
X0046515Y0197960D03*
X0046545Y0197900D03*
X0092745Y0204920D03*
X0092745Y0204950D03*
D362*
X0085830Y0211400D03*
X0079080Y0213920D03*
X0076980Y0208370D03*
X0072930Y0206840D03*
X0072930Y0211400D03*
X0072930Y0212390D03*
X0072930Y0213200D03*
X0067680Y0206810D03*
X0060780Y0201770D03*
X0058830Y0197960D03*
X0052680Y0206780D03*
X0052680Y0213560D03*
X0044580Y0201740D03*
X0046530Y0197930D03*
D363*
X0046500Y0197990D03*
X0046470Y0198020D03*
X0046470Y0198050D03*
X0046440Y0198080D03*
X0046440Y0198110D03*
X0046410Y0198170D03*
X0044640Y0201620D03*
X0044610Y0201680D03*
X0044550Y0201770D03*
X0044550Y0201800D03*
X0044520Y0201860D03*
X0044490Y0201920D03*
X0050760Y0210500D03*
X0060840Y0201890D03*
X0060810Y0201830D03*
X0060750Y0201710D03*
X0060720Y0201650D03*
X0058920Y0198140D03*
X0058890Y0198080D03*
X0058860Y0198020D03*
X0080970Y0212210D03*
X0082740Y0211400D03*
X0087660Y0211400D03*
X0087660Y0204920D03*
X0087660Y0204890D03*
X0097740Y0213890D03*
X0099390Y0211400D03*
X0102810Y0211400D03*
X0098310Y0206660D03*
D364*
X0099375Y0211430D03*
X0097725Y0213920D03*
X0092745Y0211430D03*
X0087645Y0211430D03*
X0085815Y0211430D03*
X0082725Y0211430D03*
X0076965Y0208400D03*
X0072945Y0206810D03*
X0072945Y0211430D03*
X0072945Y0213230D03*
X0067665Y0206780D03*
X0060975Y0202280D03*
X0060945Y0202190D03*
X0060915Y0202100D03*
X0060915Y0202070D03*
X0060885Y0202040D03*
X0060885Y0202010D03*
X0060885Y0201980D03*
X0060855Y0201950D03*
X0060855Y0201920D03*
X0060825Y0201860D03*
X0060795Y0201800D03*
X0059055Y0198500D03*
X0059025Y0198410D03*
X0058995Y0198350D03*
X0058995Y0198320D03*
X0058965Y0198260D03*
X0058965Y0198230D03*
X0058935Y0198200D03*
X0058935Y0198170D03*
X0058905Y0198110D03*
X0046425Y0198140D03*
X0046395Y0198200D03*
X0046395Y0198230D03*
X0046365Y0198260D03*
X0046365Y0198290D03*
X0046335Y0198350D03*
X0046335Y0198380D03*
X0046305Y0198440D03*
X0044535Y0201830D03*
X0044505Y0201890D03*
X0044475Y0201950D03*
X0044475Y0201980D03*
X0044445Y0202010D03*
X0044445Y0202040D03*
X0044415Y0202100D03*
X0044415Y0202130D03*
X0044385Y0202220D03*
X0092745Y0204860D03*
X0092745Y0204890D03*
X0102795Y0211430D03*
D365*
X0102810Y0211460D03*
X0099390Y0211460D03*
X0097740Y0213950D03*
X0099420Y0204680D03*
X0087660Y0204860D03*
X0087660Y0211460D03*
X0082740Y0211460D03*
X0080970Y0212180D03*
X0072930Y0212360D03*
X0072930Y0211460D03*
X0072930Y0206780D03*
X0067680Y0206750D03*
X0061050Y0202610D03*
X0061050Y0202580D03*
X0061020Y0202460D03*
X0061020Y0202430D03*
X0060990Y0202370D03*
X0060990Y0202340D03*
X0060990Y0202310D03*
X0060960Y0202250D03*
X0060960Y0202220D03*
X0060930Y0202160D03*
X0060930Y0202130D03*
X0059160Y0198950D03*
X0059130Y0198800D03*
X0059130Y0198770D03*
X0059100Y0198680D03*
X0059100Y0198650D03*
X0059100Y0198620D03*
X0059070Y0198590D03*
X0059070Y0198560D03*
X0059070Y0198530D03*
X0059040Y0198470D03*
X0059040Y0198440D03*
X0059010Y0198380D03*
X0058980Y0198290D03*
X0052680Y0206750D03*
X0054570Y0210530D03*
X0052680Y0213590D03*
X0050760Y0210530D03*
X0044280Y0202640D03*
X0044310Y0202520D03*
X0044310Y0202490D03*
X0044310Y0202460D03*
X0044340Y0202400D03*
X0044340Y0202370D03*
X0044340Y0202340D03*
X0044370Y0202310D03*
X0044370Y0202280D03*
X0044370Y0202250D03*
X0044400Y0202190D03*
X0044400Y0202160D03*
X0044430Y0202070D03*
X0046200Y0198860D03*
X0046200Y0198830D03*
X0046230Y0198740D03*
X0046230Y0198710D03*
X0046230Y0198680D03*
X0046260Y0198620D03*
X0046260Y0198590D03*
X0046260Y0198560D03*
X0046290Y0198530D03*
X0046290Y0198500D03*
X0046290Y0198470D03*
X0046320Y0198410D03*
X0046350Y0198320D03*
D366*
X0046950Y0199670D03*
X0045900Y0200780D03*
X0046920Y0202370D03*
X0045060Y0203630D03*
X0045750Y0209030D03*
X0058410Y0202370D03*
X0059460Y0200810D03*
X0059400Y0200720D03*
X0060300Y0203630D03*
X0055710Y0198320D03*
X0078360Y0210830D03*
D367*
X0060210Y0203570D03*
X0055710Y0198350D03*
D368*
X0049635Y0198380D03*
X0079575Y0210140D03*
D369*
X0049635Y0198440D03*
D370*
X0047280Y0202580D03*
X0055710Y0198440D03*
X0084270Y0206990D03*
D371*
X0079110Y0213500D03*
X0055710Y0198470D03*
X0049650Y0198470D03*
D372*
X0049635Y0198500D03*
X0047325Y0202670D03*
X0084285Y0207140D03*
D373*
X0055710Y0198500D03*
D374*
X0049635Y0198530D03*
X0047325Y0202700D03*
X0084285Y0207230D03*
D375*
X0084270Y0207200D03*
X0079110Y0213410D03*
X0068970Y0213590D03*
X0068850Y0209600D03*
X0055710Y0198530D03*
X0052680Y0199580D03*
X0052680Y0202910D03*
D376*
X0052665Y0202940D03*
X0049635Y0198560D03*
X0047325Y0202730D03*
X0058005Y0202730D03*
X0058005Y0209750D03*
X0069015Y0213530D03*
X0079125Y0213350D03*
X0079095Y0206990D03*
X0084285Y0207320D03*
X0088935Y0206900D03*
X0094005Y0206870D03*
D377*
X0094050Y0211340D03*
X0088950Y0211340D03*
X0088920Y0206870D03*
X0084270Y0207290D03*
X0068910Y0209660D03*
X0055710Y0198560D03*
X0052680Y0199550D03*
D378*
X0049635Y0198590D03*
X0047325Y0202760D03*
X0052665Y0202970D03*
X0058005Y0202760D03*
X0058005Y0209720D03*
X0047325Y0209720D03*
X0069045Y0213470D03*
X0079125Y0213290D03*
X0084285Y0207440D03*
X0088995Y0206990D03*
X0088995Y0211250D03*
X0094095Y0211250D03*
X0094065Y0206960D03*
D379*
X0094080Y0211280D03*
X0088980Y0211280D03*
X0088980Y0206960D03*
X0084270Y0207410D03*
X0079080Y0207020D03*
X0068970Y0209720D03*
X0055710Y0198590D03*
X0052680Y0199520D03*
D380*
X0049635Y0198620D03*
X0069015Y0209780D03*
X0069045Y0213440D03*
X0079125Y0213260D03*
X0084285Y0207500D03*
X0089025Y0207050D03*
X0089025Y0211190D03*
X0094125Y0211190D03*
X0094095Y0207020D03*
D381*
X0094110Y0207050D03*
X0055710Y0198620D03*
D382*
X0059115Y0198710D03*
X0059115Y0198740D03*
X0059145Y0198830D03*
X0059145Y0198860D03*
X0059145Y0198890D03*
X0059145Y0198920D03*
X0059175Y0198980D03*
X0059175Y0199010D03*
X0059175Y0199040D03*
X0059175Y0199070D03*
X0059175Y0199100D03*
X0059175Y0199130D03*
X0059175Y0199160D03*
X0059205Y0199220D03*
X0059205Y0199250D03*
X0059205Y0199280D03*
X0059205Y0199310D03*
X0059205Y0199340D03*
X0059205Y0199370D03*
X0059205Y0199400D03*
X0059205Y0199430D03*
X0059205Y0199460D03*
X0059205Y0199490D03*
X0061005Y0202400D03*
X0061035Y0202490D03*
X0061035Y0202520D03*
X0061035Y0202550D03*
X0061065Y0202640D03*
X0061065Y0202670D03*
X0061065Y0202700D03*
X0061065Y0202730D03*
X0061065Y0202760D03*
X0061095Y0202790D03*
X0061095Y0202820D03*
X0061095Y0202850D03*
X0061095Y0202880D03*
X0061095Y0202910D03*
X0061095Y0202940D03*
X0061095Y0202970D03*
X0061095Y0203000D03*
X0061095Y0203030D03*
X0061095Y0203060D03*
X0061095Y0203090D03*
X0072945Y0206750D03*
X0076965Y0208430D03*
X0076965Y0208460D03*
X0072945Y0213260D03*
X0085815Y0211460D03*
X0092745Y0211460D03*
X0092745Y0211490D03*
X0092745Y0204830D03*
X0087645Y0204830D03*
X0098325Y0206630D03*
X0046155Y0199280D03*
X0046155Y0199250D03*
X0046155Y0199220D03*
X0046155Y0199190D03*
X0046155Y0199160D03*
X0046155Y0199130D03*
X0046155Y0199100D03*
X0046155Y0199070D03*
X0046155Y0199040D03*
X0046185Y0199010D03*
X0046185Y0198980D03*
X0046185Y0198950D03*
X0046185Y0198920D03*
X0046185Y0198890D03*
X0046215Y0198800D03*
X0046215Y0198770D03*
X0046245Y0198650D03*
X0044325Y0202430D03*
X0044295Y0202550D03*
X0044295Y0202580D03*
X0044295Y0202610D03*
X0044265Y0202670D03*
X0044265Y0202700D03*
X0044265Y0202730D03*
X0044265Y0202760D03*
X0044265Y0202790D03*
X0044265Y0202820D03*
X0044265Y0202850D03*
X0044235Y0202910D03*
X0044235Y0202940D03*
X0044235Y0202970D03*
X0044235Y0203000D03*
X0044235Y0203030D03*
X0044235Y0203060D03*
X0044235Y0203090D03*
X0044235Y0203120D03*
X0044235Y0203150D03*
X0044235Y0203180D03*
X0044235Y0203210D03*
X0044235Y0203240D03*
X0044235Y0203270D03*
D383*
X0049635Y0198650D03*
X0055695Y0198650D03*
X0069075Y0209870D03*
X0069105Y0213350D03*
X0079125Y0213200D03*
X0079065Y0207110D03*
X0089085Y0207170D03*
X0089085Y0211070D03*
X0094155Y0211100D03*
X0094155Y0207140D03*
D384*
X0094215Y0207290D03*
X0094215Y0210950D03*
X0089145Y0210920D03*
X0089145Y0207320D03*
X0079065Y0207170D03*
X0069135Y0209960D03*
X0069135Y0213290D03*
X0058005Y0202850D03*
X0055695Y0198680D03*
X0049635Y0198680D03*
D385*
X0049650Y0198710D03*
X0055710Y0198710D03*
X0079050Y0207200D03*
X0094260Y0207410D03*
X0094260Y0207440D03*
X0094260Y0210800D03*
X0094260Y0210830D03*
D386*
X0079155Y0213020D03*
X0069225Y0213080D03*
X0069225Y0210170D03*
X0069225Y0210140D03*
X0055695Y0198740D03*
X0049635Y0198740D03*
D387*
X0049635Y0198770D03*
X0047325Y0202940D03*
X0058005Y0202940D03*
X0069285Y0210320D03*
X0069285Y0212900D03*
X0069285Y0212930D03*
X0079155Y0212930D03*
D388*
X0079170Y0212960D03*
X0079050Y0207290D03*
X0069270Y0210260D03*
X0069270Y0210290D03*
X0069270Y0212960D03*
X0069270Y0212990D03*
X0052680Y0203120D03*
X0055710Y0198770D03*
D389*
X0055695Y0198800D03*
X0052665Y0203150D03*
X0049635Y0198800D03*
X0069315Y0210410D03*
X0069315Y0210440D03*
X0069315Y0212810D03*
X0069315Y0212840D03*
D390*
X0058005Y0203000D03*
X0052665Y0203180D03*
X0049635Y0198830D03*
X0047325Y0203000D03*
D391*
X0055710Y0198830D03*
X0079050Y0207410D03*
D392*
X0079035Y0207470D03*
X0049635Y0198860D03*
D393*
X0055695Y0198860D03*
D394*
X0055710Y0198890D03*
D395*
X0058005Y0203090D03*
X0049635Y0198920D03*
X0047325Y0203090D03*
D396*
X0055710Y0198920D03*
D397*
X0055695Y0198950D03*
X0058005Y0203120D03*
X0049635Y0198950D03*
D398*
X0049635Y0198980D03*
D399*
X0047340Y0203150D03*
X0055710Y0198980D03*
X0058020Y0203150D03*
D400*
X0055710Y0199010D03*
X0052680Y0203330D03*
X0049650Y0199010D03*
D401*
X0049635Y0199040D03*
X0047325Y0203210D03*
X0052665Y0203360D03*
X0058005Y0203210D03*
D402*
X0055710Y0199040D03*
D403*
X0055695Y0199070D03*
X0058005Y0203240D03*
X0049635Y0199070D03*
X0047325Y0203240D03*
D404*
X0049635Y0199100D03*
D405*
X0055695Y0199100D03*
X0058005Y0203270D03*
D406*
X0055695Y0199130D03*
X0049635Y0199130D03*
D407*
X0055710Y0199160D03*
D408*
X0055710Y0199190D03*
D409*
X0059190Y0199190D03*
X0052680Y0206720D03*
X0054570Y0210560D03*
X0052680Y0213620D03*
X0046140Y0199490D03*
X0046140Y0199460D03*
X0046140Y0199430D03*
X0046140Y0199400D03*
X0046140Y0199370D03*
X0046140Y0199340D03*
X0046140Y0199310D03*
X0067680Y0206720D03*
X0072930Y0211490D03*
X0072930Y0212330D03*
X0080970Y0212150D03*
X0082740Y0211490D03*
X0085830Y0211490D03*
X0097740Y0213980D03*
X0099390Y0211490D03*
D410*
X0055710Y0199220D03*
D411*
X0055710Y0199250D03*
X0049650Y0199250D03*
D412*
X0051300Y0199310D03*
X0054060Y0199310D03*
X0057360Y0199310D03*
X0059100Y0200360D03*
X0059160Y0200420D03*
X0046260Y0200330D03*
X0046200Y0200390D03*
X0101100Y0208430D03*
D413*
X0101100Y0208310D03*
X0078150Y0210950D03*
X0058770Y0200060D03*
X0058740Y0200030D03*
X0058500Y0199820D03*
X0057450Y0199340D03*
X0053970Y0199340D03*
X0046590Y0200030D03*
X0046560Y0200060D03*
X0046530Y0200090D03*
X0056220Y0208970D03*
D414*
X0060435Y0203780D03*
X0057525Y0199370D03*
X0053895Y0199370D03*
X0052665Y0200060D03*
X0044895Y0203780D03*
X0078105Y0210980D03*
D415*
X0080310Y0209750D03*
X0099960Y0205550D03*
X0101100Y0208070D03*
X0101100Y0208100D03*
X0059910Y0208910D03*
X0051510Y0199400D03*
X0047760Y0199400D03*
D416*
X0051675Y0199490D03*
X0060525Y0203900D03*
X0099675Y0205100D03*
X0101085Y0207920D03*
D417*
X0079080Y0206900D03*
X0052680Y0199610D03*
D418*
X0052665Y0199640D03*
X0047325Y0202640D03*
X0047325Y0209840D03*
X0058005Y0209840D03*
X0058005Y0202640D03*
X0068925Y0213650D03*
X0079095Y0206870D03*
D419*
X0079095Y0206840D03*
X0079095Y0213530D03*
X0068895Y0213680D03*
X0058005Y0209870D03*
X0047325Y0209870D03*
X0052665Y0199670D03*
D420*
X0055155Y0203930D03*
X0058395Y0199670D03*
X0045855Y0200840D03*
X0045855Y0200870D03*
X0079905Y0209960D03*
X0089445Y0211400D03*
D421*
X0052680Y0199700D03*
D422*
X0059055Y0200300D03*
X0046305Y0200300D03*
D423*
X0052680Y0200390D03*
X0054780Y0210110D03*
X0050580Y0210140D03*
X0060480Y0208490D03*
X0070830Y0210590D03*
X0077280Y0207800D03*
X0083130Y0207590D03*
X0079080Y0213860D03*
D424*
X0068655Y0209480D03*
X0058065Y0202580D03*
D425*
X0058005Y0202670D03*
X0068805Y0209570D03*
X0068955Y0213620D03*
D426*
X0058005Y0202700D03*
D427*
X0058005Y0202790D03*
X0052665Y0203000D03*
X0047325Y0202790D03*
X0047325Y0209690D03*
X0058005Y0209690D03*
X0069045Y0209810D03*
X0069075Y0213410D03*
X0079125Y0213230D03*
X0079065Y0207080D03*
X0084285Y0207560D03*
X0089055Y0207110D03*
X0089055Y0211130D03*
X0094125Y0211160D03*
X0094125Y0207080D03*
D428*
X0094170Y0207170D03*
X0094170Y0211070D03*
X0089100Y0211040D03*
X0089100Y0207200D03*
X0058020Y0202820D03*
X0047340Y0202820D03*
D429*
X0047340Y0202850D03*
X0069150Y0209990D03*
X0069150Y0213260D03*
X0079140Y0213110D03*
X0089160Y0210890D03*
X0089160Y0210860D03*
X0089160Y0207380D03*
X0089160Y0207350D03*
X0094230Y0207350D03*
X0094230Y0207320D03*
X0094230Y0210890D03*
X0094230Y0210920D03*
D430*
X0068715Y0209510D03*
X0055035Y0203780D03*
X0052665Y0202850D03*
X0050295Y0203780D03*
D431*
X0044250Y0202880D03*
X0061110Y0203120D03*
X0061110Y0203150D03*
X0061110Y0203180D03*
X0061110Y0203210D03*
X0061110Y0203240D03*
X0061110Y0203270D03*
X0087660Y0204800D03*
X0087660Y0211490D03*
X0102810Y0211490D03*
D432*
X0094275Y0210770D03*
X0094275Y0207500D03*
X0094275Y0207470D03*
X0089205Y0207500D03*
X0089205Y0207530D03*
X0089205Y0210740D03*
X0069195Y0210080D03*
X0069195Y0213170D03*
X0058005Y0202880D03*
X0047325Y0202880D03*
D433*
X0052665Y0202880D03*
X0084285Y0207110D03*
D434*
X0079050Y0207260D03*
X0069240Y0210200D03*
X0069240Y0213050D03*
X0058020Y0202910D03*
X0047340Y0202910D03*
D435*
X0047340Y0202970D03*
X0058020Y0202970D03*
X0069330Y0210470D03*
X0069330Y0210500D03*
X0069330Y0212750D03*
X0069330Y0212780D03*
X0079170Y0212870D03*
D436*
X0058020Y0203030D03*
X0052680Y0203210D03*
X0047340Y0203030D03*
D437*
X0058005Y0203060D03*
D438*
X0047340Y0203120D03*
D439*
X0058005Y0203180D03*
D440*
X0058440Y0203330D03*
X0046890Y0203300D03*
D441*
X0058455Y0203300D03*
D442*
X0046905Y0203330D03*
D443*
X0046920Y0203360D03*
D444*
X0058410Y0203360D03*
D445*
X0052665Y0203390D03*
X0052665Y0203420D03*
D446*
X0045405Y0203450D03*
D447*
X0052680Y0203450D03*
D448*
X0052665Y0203480D03*
D449*
X0052665Y0203510D03*
D450*
X0052665Y0203540D03*
D451*
X0052665Y0203570D03*
D452*
X0052665Y0203600D03*
D453*
X0052680Y0203630D03*
D454*
X0052665Y0203660D03*
D455*
X0052665Y0203690D03*
D456*
X0050400Y0203720D03*
X0047340Y0209750D03*
X0068940Y0209690D03*
X0084270Y0207350D03*
X0094020Y0206900D03*
X0094050Y0211310D03*
D457*
X0088980Y0211310D03*
X0054930Y0203720D03*
D458*
X0054990Y0203750D03*
X0050340Y0203750D03*
X0047340Y0209810D03*
X0058020Y0209810D03*
X0079110Y0213440D03*
D459*
X0056355Y0209030D03*
X0050205Y0203900D03*
D460*
X0052680Y0206570D03*
X0054540Y0210710D03*
X0050790Y0210710D03*
X0087660Y0204620D03*
X0098400Y0206540D03*
D461*
X0094455Y0206480D03*
X0092745Y0204620D03*
X0089355Y0206480D03*
X0072945Y0213410D03*
D462*
X0072930Y0206570D03*
X0067680Y0206570D03*
X0087660Y0204650D03*
D463*
X0092745Y0204650D03*
X0054555Y0210680D03*
X0050805Y0210680D03*
D464*
X0050775Y0210590D03*
X0054555Y0210590D03*
X0072945Y0211550D03*
X0076965Y0208520D03*
X0072945Y0206690D03*
X0080985Y0212090D03*
X0085815Y0211550D03*
X0092745Y0211550D03*
X0097725Y0214040D03*
X0102795Y0211550D03*
X0099405Y0204650D03*
X0092745Y0204770D03*
D465*
X0087660Y0204680D03*
D466*
X0092745Y0204680D03*
X0098355Y0206570D03*
X0092745Y0211610D03*
X0085815Y0211610D03*
X0076965Y0208580D03*
X0054555Y0210650D03*
X0050805Y0210650D03*
D467*
X0072945Y0213350D03*
X0072945Y0206630D03*
X0087645Y0204710D03*
X0092745Y0204710D03*
D468*
X0087660Y0204740D03*
X0087660Y0211550D03*
X0082740Y0211550D03*
X0072930Y0213320D03*
X0067680Y0206660D03*
X0098340Y0206600D03*
X0099390Y0211550D03*
D469*
X0092745Y0211580D03*
X0092745Y0204740D03*
X0076965Y0208550D03*
X0072945Y0206660D03*
X0072945Y0212270D03*
X0052665Y0213680D03*
X0052665Y0206660D03*
D470*
X0052680Y0206690D03*
X0052680Y0213650D03*
X0067680Y0206690D03*
X0072930Y0212300D03*
X0082740Y0211520D03*
X0087660Y0211520D03*
X0087660Y0204770D03*
X0094470Y0211730D03*
X0099390Y0211520D03*
X0102810Y0211520D03*
D471*
X0100530Y0205880D03*
X0098280Y0206780D03*
X0080880Y0212450D03*
X0077430Y0212510D03*
X0077430Y0211550D03*
X0061080Y0207650D03*
X0061080Y0204830D03*
X0052680Y0207170D03*
X0052680Y0207200D03*
X0052680Y0207230D03*
X0052680Y0207260D03*
X0052680Y0207290D03*
X0052680Y0207320D03*
X0052680Y0207350D03*
X0052680Y0207380D03*
X0052680Y0207410D03*
X0052680Y0207440D03*
X0052680Y0207470D03*
X0052680Y0207500D03*
X0052680Y0207530D03*
X0052680Y0207560D03*
X0052680Y0207590D03*
X0052680Y0207620D03*
X0052680Y0207650D03*
X0052680Y0207680D03*
X0052680Y0207710D03*
X0052680Y0207740D03*
X0052680Y0207770D03*
X0052680Y0207800D03*
X0052680Y0207830D03*
X0052680Y0207860D03*
X0052680Y0207890D03*
X0052680Y0207920D03*
X0052680Y0207950D03*
X0052680Y0207980D03*
X0052680Y0208010D03*
X0052680Y0208040D03*
X0052680Y0208070D03*
X0052680Y0208100D03*
X0052680Y0208130D03*
X0052680Y0208160D03*
X0052680Y0208190D03*
X0052680Y0208220D03*
X0052680Y0208250D03*
X0052680Y0208280D03*
X0052680Y0208310D03*
X0052680Y0208340D03*
X0052680Y0208370D03*
X0052680Y0208400D03*
X0052680Y0208430D03*
X0052680Y0208460D03*
X0052680Y0208490D03*
X0052680Y0208520D03*
X0052680Y0208550D03*
X0052680Y0208580D03*
X0052680Y0208610D03*
X0052680Y0208640D03*
X0052680Y0208670D03*
X0052680Y0208700D03*
X0052680Y0208730D03*
X0052680Y0208760D03*
X0052680Y0208790D03*
X0052680Y0208820D03*
X0052680Y0208850D03*
X0052680Y0208880D03*
X0052680Y0208910D03*
X0052680Y0208940D03*
X0052680Y0208970D03*
X0052680Y0209000D03*
X0052680Y0209030D03*
X0052680Y0209060D03*
X0052680Y0209090D03*
X0052680Y0209120D03*
X0052680Y0209150D03*
X0052680Y0209180D03*
X0052680Y0209210D03*
X0052680Y0209240D03*
X0052680Y0209270D03*
X0052680Y0209300D03*
X0052680Y0209330D03*
X0052680Y0209360D03*
X0052680Y0209390D03*
X0052680Y0209420D03*
X0052680Y0209450D03*
X0052680Y0209480D03*
X0052680Y0209510D03*
X0052680Y0209540D03*
X0052680Y0209570D03*
X0052680Y0209600D03*
X0052680Y0209630D03*
X0052680Y0209660D03*
X0052680Y0209690D03*
X0052680Y0209720D03*
X0052680Y0209750D03*
X0052680Y0209780D03*
X0052680Y0209810D03*
X0052680Y0209840D03*
X0052680Y0209870D03*
X0052680Y0209900D03*
X0052680Y0209930D03*
X0052680Y0209960D03*
X0052680Y0209990D03*
X0052680Y0210020D03*
X0052680Y0210050D03*
X0052680Y0210080D03*
X0052680Y0210110D03*
X0052680Y0210140D03*
X0052680Y0210170D03*
X0052680Y0210200D03*
X0052680Y0210230D03*
X0052680Y0210260D03*
X0052680Y0210290D03*
X0052680Y0210320D03*
X0052680Y0210350D03*
X0052680Y0210380D03*
X0052680Y0210410D03*
X0052680Y0210440D03*
X0052680Y0210470D03*
X0052680Y0210500D03*
X0052680Y0210530D03*
X0052680Y0210560D03*
X0052680Y0210590D03*
X0052680Y0210620D03*
X0052680Y0210650D03*
X0052680Y0210680D03*
X0052680Y0210710D03*
X0052680Y0210740D03*
X0052680Y0210770D03*
X0052680Y0210800D03*
X0052680Y0210830D03*
X0052680Y0210860D03*
X0052680Y0210890D03*
X0052680Y0210920D03*
X0052680Y0210950D03*
X0052680Y0210980D03*
X0052680Y0211010D03*
X0052680Y0211040D03*
X0052680Y0211070D03*
X0052680Y0211100D03*
X0052680Y0211130D03*
X0052680Y0211160D03*
X0052680Y0211190D03*
X0052680Y0211220D03*
X0052680Y0211250D03*
X0052680Y0211280D03*
X0052680Y0211310D03*
X0052680Y0211340D03*
X0052680Y0211370D03*
X0052680Y0211400D03*
X0052680Y0211430D03*
X0052680Y0211460D03*
X0052680Y0211490D03*
X0052680Y0211520D03*
X0052680Y0211550D03*
X0052680Y0211580D03*
X0052680Y0211610D03*
X0052680Y0211640D03*
X0052680Y0211670D03*
X0052680Y0211700D03*
X0052680Y0211730D03*
X0052680Y0211760D03*
X0052680Y0211790D03*
X0052680Y0211820D03*
X0052680Y0211850D03*
X0052680Y0211880D03*
X0052680Y0211910D03*
X0052680Y0211940D03*
X0052680Y0211970D03*
X0052680Y0212000D03*
X0052680Y0212030D03*
X0052680Y0212060D03*
X0052680Y0212090D03*
X0052680Y0212120D03*
X0052680Y0212150D03*
X0052680Y0212180D03*
X0052680Y0212210D03*
X0052680Y0212240D03*
X0052680Y0212270D03*
X0052680Y0212300D03*
X0052680Y0212330D03*
X0052680Y0212360D03*
X0052680Y0212390D03*
X0052680Y0212420D03*
X0052680Y0212450D03*
X0052680Y0212480D03*
X0052680Y0212510D03*
X0052680Y0212540D03*
X0052680Y0212570D03*
X0052680Y0212600D03*
X0052680Y0212630D03*
X0052680Y0212660D03*
X0052680Y0212690D03*
X0052680Y0212720D03*
X0052680Y0212750D03*
X0052680Y0212780D03*
X0052680Y0212810D03*
X0052680Y0212840D03*
X0052680Y0212870D03*
X0052680Y0212900D03*
X0052680Y0212930D03*
X0052680Y0212960D03*
X0052680Y0212990D03*
X0052680Y0213020D03*
X0052680Y0213050D03*
X0052680Y0213080D03*
X0052680Y0213110D03*
X0052680Y0213140D03*
X0052680Y0213170D03*
X0044280Y0207680D03*
X0044280Y0204800D03*
X0049230Y0205370D03*
D472*
X0050775Y0210560D03*
X0072945Y0211520D03*
X0072945Y0213290D03*
X0076965Y0208490D03*
X0072945Y0206720D03*
X0080985Y0212120D03*
X0085815Y0211520D03*
X0089385Y0211730D03*
X0092745Y0211520D03*
X0094485Y0206510D03*
X0092745Y0204800D03*
X0089385Y0206510D03*
X0097725Y0214010D03*
D473*
X0097740Y0214070D03*
X0099390Y0211580D03*
X0102810Y0211580D03*
X0087660Y0211580D03*
X0082740Y0211580D03*
X0080970Y0212060D03*
X0079050Y0206480D03*
X0054540Y0210620D03*
X0050790Y0210620D03*
D474*
X0052665Y0213770D03*
X0076965Y0208640D03*
X0084285Y0206480D03*
X0092745Y0211670D03*
D475*
X0072930Y0212180D03*
X0067680Y0206540D03*
D476*
X0072945Y0206540D03*
X0079095Y0213950D03*
X0047325Y0210200D03*
D477*
X0067680Y0206600D03*
X0072930Y0206600D03*
D478*
X0072930Y0211610D03*
X0072930Y0212240D03*
X0080970Y0212030D03*
X0082740Y0211610D03*
X0087660Y0211610D03*
X0097740Y0214100D03*
X0099390Y0211610D03*
X0102810Y0211610D03*
X0052680Y0213710D03*
X0052680Y0206630D03*
D479*
X0067680Y0206630D03*
X0072930Y0211580D03*
X0085830Y0211580D03*
D480*
X0079110Y0213380D03*
X0093960Y0206810D03*
D481*
X0094035Y0206930D03*
X0084285Y0207380D03*
X0079125Y0213320D03*
D482*
X0079080Y0206960D03*
X0068880Y0209630D03*
X0058020Y0209780D03*
X0047340Y0209780D03*
D483*
X0084270Y0207050D03*
D484*
X0084270Y0207530D03*
X0089040Y0207080D03*
X0089040Y0211160D03*
D485*
X0094185Y0211040D03*
X0094185Y0207230D03*
X0094185Y0207200D03*
X0079125Y0213170D03*
D486*
X0079140Y0213140D03*
X0069120Y0213320D03*
X0069120Y0209930D03*
X0089130Y0210950D03*
X0089130Y0210980D03*
X0089130Y0207290D03*
X0089130Y0207260D03*
X0094200Y0207260D03*
X0094200Y0210980D03*
X0094200Y0211010D03*
D487*
X0079050Y0207350D03*
D488*
X0079050Y0207440D03*
D489*
X0079140Y0213080D03*
X0069180Y0213200D03*
X0069180Y0210050D03*
X0089190Y0210770D03*
X0089190Y0210800D03*
X0089190Y0207470D03*
X0089190Y0207440D03*
D490*
X0080805Y0207800D03*
X0080805Y0209390D03*
X0080805Y0212570D03*
X0050655Y0210260D03*
D491*
X0076965Y0208670D03*
X0092745Y0211700D03*
D492*
X0054855Y0209990D03*
X0045105Y0208700D03*
D493*
X0049230Y0208880D03*
D494*
X0047430Y0209060D03*
X0057780Y0209180D03*
D495*
X0057810Y0209150D03*
X0057840Y0209120D03*
X0057870Y0209090D03*
X0057900Y0209060D03*
X0057750Y0209210D03*
X0057570Y0209360D03*
X0047700Y0209300D03*
X0047490Y0209120D03*
X0047460Y0209090D03*
D496*
X0047535Y0209150D03*
X0047565Y0209180D03*
X0047595Y0209210D03*
X0047625Y0209240D03*
X0047655Y0209270D03*
X0047745Y0209330D03*
X0047775Y0209360D03*
X0047805Y0209390D03*
X0047835Y0209420D03*
X0047895Y0209450D03*
X0047925Y0209480D03*
X0047985Y0209510D03*
X0048015Y0209540D03*
X0048075Y0209570D03*
X0048105Y0209600D03*
X0048165Y0209630D03*
X0048195Y0209660D03*
X0057135Y0209660D03*
X0057195Y0209630D03*
X0057225Y0209600D03*
X0057285Y0209570D03*
X0057315Y0209540D03*
X0057375Y0209510D03*
X0057405Y0209480D03*
X0057465Y0209450D03*
X0057495Y0209420D03*
X0057525Y0209390D03*
X0057615Y0209330D03*
X0057645Y0209300D03*
X0057675Y0209270D03*
X0057705Y0209240D03*
D497*
X0058005Y0210200D03*
D498*
X0079005Y0210470D03*
X0079305Y0210290D03*
D499*
X0097725Y0214130D03*
X0102795Y0211640D03*
D500*
X0085830Y0211670D03*
X0072930Y0211670D03*
D501*
X0080970Y0211970D03*
X0082740Y0211670D03*
X0087660Y0211670D03*
X0099390Y0211670D03*
X0102810Y0211670D03*
D502*
X0085830Y0211700D03*
X0072930Y0211700D03*
D503*
X0082740Y0211700D03*
X0087660Y0211700D03*
X0099390Y0211700D03*
X0102810Y0211700D03*
D504*
X0089355Y0211760D03*
D505*
X0094440Y0211760D03*
X0097740Y0214190D03*
D506*
X0080985Y0211940D03*
D507*
X0079155Y0212900D03*
D508*
X0097725Y0214160D03*
D509*
X0186933Y0223449D02*
X0186933Y0204551D01*
X0204098Y0204551D01*
X0204098Y0223449D01*
X0206067Y0223449D01*
X0206067Y0204551D01*
X0204098Y0204551D01*
X0204098Y0223449D02*
X0186933Y0223449D01*
D510*
X0183547Y0221500D03*
X0183547Y0216500D03*
X0183547Y0211500D03*
X0183547Y0206500D03*
X0209453Y0206500D03*
X0209453Y0211500D03*
X0209453Y0216500D03*
X0209453Y0221500D03*
D511*
X0188300Y0201500D02*
X0182700Y0201500D01*
X0182700Y0196500D02*
X0188300Y0196500D01*
X0188000Y0191500D02*
X0190500Y0189000D01*
X0193000Y0191500D01*
X0198000Y0191500D01*
X0200500Y0189000D01*
X0203000Y0191500D01*
X0208000Y0191500D01*
X0210500Y0189000D01*
X0210500Y0184000D01*
X0208000Y0181500D01*
X0203000Y0181500D01*
X0200500Y0184000D01*
X0198000Y0181500D01*
X0193000Y0181500D01*
X0190500Y0184000D01*
X0188000Y0181500D01*
X0183000Y0181500D01*
X0180500Y0184000D01*
X0178000Y0181500D01*
X0173000Y0181500D01*
X0170500Y0184000D01*
X0168000Y0181500D01*
X0163000Y0181500D01*
X0160500Y0184000D01*
X0160500Y0189000D01*
X0163000Y0191500D01*
X0168000Y0191500D01*
X0170500Y0189000D01*
X0173000Y0191500D01*
X0178000Y0191500D01*
X0180500Y0189000D01*
X0180500Y0184000D01*
X0180500Y0189000D02*
X0183000Y0191500D01*
X0188000Y0191500D01*
X0190500Y0189000D02*
X0190500Y0184000D01*
X0188000Y0176000D02*
X0183000Y0176000D01*
X0180500Y0173500D01*
X0180500Y0168500D01*
X0178000Y0166000D01*
X0173000Y0166000D01*
X0170500Y0168500D01*
X0168000Y0166000D01*
X0163000Y0166000D01*
X0160500Y0168500D01*
X0160500Y0173500D01*
X0163000Y0176000D01*
X0168000Y0176000D01*
X0170500Y0173500D01*
X0173000Y0176000D01*
X0178000Y0176000D01*
X0180500Y0173500D01*
X0180500Y0168500D02*
X0183000Y0166000D01*
X0188000Y0166000D01*
X0190500Y0168500D01*
X0193000Y0166000D01*
X0198000Y0166000D01*
X0200500Y0168500D01*
X0200500Y0173500D01*
X0198000Y0176000D01*
X0193000Y0176000D01*
X0190500Y0173500D01*
X0190500Y0168500D01*
X0190500Y0173500D02*
X0188000Y0176000D01*
X0200500Y0184000D02*
X0200500Y0189000D01*
X0210500Y0189000D02*
X0213000Y0191500D01*
X0218000Y0191500D01*
X0220500Y0189000D01*
X0223000Y0191500D01*
X0228000Y0191500D01*
X0230500Y0189000D01*
X0233000Y0191500D01*
X0238000Y0191500D01*
X0240500Y0189000D01*
X0240500Y0184000D01*
X0238000Y0181500D01*
X0233000Y0181500D01*
X0230500Y0184000D01*
X0228000Y0181500D01*
X0223000Y0181500D01*
X0220500Y0184000D01*
X0218000Y0181500D01*
X0213000Y0181500D01*
X0210500Y0184000D01*
X0220500Y0184000D02*
X0220500Y0189000D01*
X0230500Y0189000D02*
X0230500Y0184000D01*
X0243500Y0184000D02*
X0243500Y0189000D01*
X0246000Y0191500D01*
X0251000Y0191500D01*
X0253500Y0189000D01*
X0253500Y0184000D01*
X0251000Y0181500D01*
X0253500Y0179000D01*
X0253500Y0174000D01*
X0251000Y0171500D01*
X0246000Y0171500D01*
X0243500Y0174000D01*
X0243500Y0179000D01*
X0246000Y0181500D01*
X0243500Y0184000D01*
X0175000Y0201700D02*
X0175000Y0207300D01*
X0170000Y0207300D02*
X0170000Y0201700D01*
X0158500Y0189000D02*
X0156000Y0191500D01*
X0151000Y0191500D01*
X0148500Y0189000D01*
X0148500Y0184000D01*
X0151000Y0181500D01*
X0156000Y0181500D01*
X0158500Y0184000D01*
X0158500Y0189000D01*
X0148500Y0189000D02*
X0146000Y0191500D01*
X0141000Y0191500D01*
X0138500Y0189000D01*
X0138500Y0184000D01*
X0141000Y0181500D01*
X0146000Y0181500D01*
X0148500Y0184000D01*
X0146000Y0176000D02*
X0141000Y0176000D01*
X0138500Y0173500D01*
X0138500Y0168500D01*
X0136000Y0166000D01*
X0131000Y0166000D01*
X0128500Y0168500D01*
X0126000Y0166000D01*
X0121000Y0166000D01*
X0118500Y0168500D01*
X0118500Y0173500D01*
X0121000Y0176000D01*
X0126000Y0176000D01*
X0128500Y0173500D01*
X0131000Y0176000D01*
X0136000Y0176000D01*
X0138500Y0173500D01*
X0138500Y0168500D02*
X0141000Y0166000D01*
X0146000Y0166000D01*
X0148500Y0168500D01*
X0151000Y0166000D01*
X0156000Y0166000D01*
X0158500Y0168500D01*
X0158500Y0173500D01*
X0156000Y0176000D01*
X0151000Y0176000D01*
X0148500Y0173500D01*
X0148500Y0168500D01*
X0148500Y0173500D02*
X0146000Y0176000D01*
X0138500Y0184000D02*
X0136000Y0181500D01*
X0131000Y0181500D01*
X0128500Y0184000D01*
X0126000Y0181500D01*
X0121000Y0181500D01*
X0118500Y0184000D01*
X0116000Y0181500D01*
X0111000Y0181500D01*
X0108500Y0184000D01*
X0106000Y0181500D01*
X0101000Y0181500D01*
X0098500Y0184000D01*
X0096000Y0181500D01*
X0091000Y0181500D01*
X0088500Y0184000D01*
X0086000Y0181500D01*
X0081000Y0181500D01*
X0078500Y0184000D01*
X0076000Y0181500D01*
X0071000Y0181500D01*
X0068500Y0184000D01*
X0068500Y0189000D01*
X0071000Y0191500D01*
X0076000Y0191500D01*
X0078500Y0189000D01*
X0081000Y0191500D01*
X0086000Y0191500D01*
X0088500Y0189000D01*
X0088500Y0184000D01*
X0088500Y0189000D02*
X0091000Y0191500D01*
X0096000Y0191500D01*
X0098500Y0189000D01*
X0101000Y0191500D01*
X0106000Y0191500D01*
X0108500Y0189000D01*
X0111000Y0191500D01*
X0116000Y0191500D01*
X0118500Y0189000D01*
X0118500Y0184000D01*
X0118500Y0189000D02*
X0121000Y0191500D01*
X0126000Y0191500D01*
X0128500Y0189000D01*
X0131000Y0191500D01*
X0136000Y0191500D01*
X0138500Y0189000D01*
X0128500Y0189000D02*
X0128500Y0184000D01*
X0128500Y0173500D02*
X0128500Y0168500D01*
X0108500Y0184000D02*
X0108500Y0189000D01*
X0098500Y0189000D02*
X0098500Y0184000D01*
X0078500Y0184000D02*
X0078500Y0189000D01*
X0066500Y0189000D02*
X0066500Y0184000D01*
X0064000Y0181500D01*
X0059000Y0181500D01*
X0056500Y0184000D01*
X0054000Y0181500D01*
X0049000Y0181500D01*
X0046500Y0184000D01*
X0046500Y0189000D01*
X0049000Y0191500D01*
X0054000Y0191500D01*
X0056500Y0189000D01*
X0059000Y0191500D01*
X0064000Y0191500D01*
X0066500Y0189000D01*
X0056500Y0189000D02*
X0056500Y0184000D01*
X0044500Y0184000D02*
X0042000Y0181500D01*
X0037000Y0181500D01*
X0034500Y0184000D01*
X0032000Y0181500D01*
X0027000Y0181500D01*
X0024500Y0184000D01*
X0022000Y0181500D01*
X0017000Y0181500D01*
X0014500Y0184000D01*
X0012000Y0181500D01*
X0007000Y0181500D01*
X0004500Y0184000D01*
X0004500Y0189000D01*
X0007000Y0191500D01*
X0012000Y0191500D01*
X0014500Y0189000D01*
X0017000Y0191500D01*
X0022000Y0191500D01*
X0024500Y0189000D01*
X0024500Y0184000D01*
X0024500Y0189000D02*
X0027000Y0191500D01*
X0032000Y0191500D01*
X0034500Y0189000D01*
X0037000Y0191500D01*
X0042000Y0191500D01*
X0044500Y0189000D01*
X0044500Y0184000D01*
X0034500Y0184000D02*
X0034500Y0189000D01*
X0014500Y0189000D02*
X0014500Y0184000D01*
X0151700Y0217500D02*
X0157300Y0217500D01*
X0157300Y0222500D02*
X0151700Y0222500D01*
X0170500Y0189000D02*
X0170500Y0184000D01*
X0170500Y0173500D02*
X0170500Y0168500D01*
D512*
X0172500Y0201100D03*
X0172500Y0207900D03*
D513*
X0210547Y0199000D03*
X0216453Y0199000D03*
D514*
X0188900Y0199000D03*
X0182100Y0199000D03*
X0157900Y0220000D03*
X0151100Y0220000D03*
D515*
X0153500Y0186500D03*
X0143500Y0186500D03*
X0133500Y0186500D03*
X0123500Y0186500D03*
X0113500Y0186500D03*
X0103500Y0186500D03*
X0093500Y0186500D03*
X0083500Y0186500D03*
X0073500Y0186500D03*
X0061500Y0186500D03*
X0051500Y0186500D03*
X0039500Y0186500D03*
X0029500Y0186500D03*
X0019500Y0186500D03*
X0009500Y0186500D03*
X0123500Y0171000D03*
X0133500Y0171000D03*
X0143500Y0171000D03*
X0153500Y0171000D03*
X0165500Y0171000D03*
X0175500Y0171000D03*
X0185500Y0171000D03*
X0195500Y0171000D03*
X0195500Y0186500D03*
X0185500Y0186500D03*
X0175500Y0186500D03*
X0165500Y0186500D03*
X0205500Y0186500D03*
X0215500Y0186500D03*
X0225500Y0186500D03*
X0235500Y0186500D03*
X0248500Y0186500D03*
X0248500Y0176500D03*
M02*
