G75*
%MOIN*%
%OFA0B0*%
%FSLAX24Y24*%
%IPPOS*%
%LPD*%
%AMOC8*
5,1,8,0,0,1.08239X$1,22.5*
%
%ADD10C,0.0060*%
%ADD11R,0.0866X0.0236*%
%ADD12R,0.0630X0.0512*%
%ADD13R,0.0512X0.0630*%
%ADD14OC8,0.0600*%
%ADD15C,0.0600*%
%ADD16C,0.0000*%
%ADD17C,0.0660*%
%ADD18C,0.0240*%
%ADD19C,0.0160*%
%ADD20C,0.0396*%
%ADD21C,0.0120*%
D10*
X017450Y001800D02*
X017450Y007700D01*
X017452Y007739D01*
X017458Y007778D01*
X017467Y007816D01*
X017480Y007853D01*
X017497Y007889D01*
X017517Y007922D01*
X017541Y007954D01*
X017567Y007983D01*
X017596Y008009D01*
X017628Y008033D01*
X017661Y008053D01*
X017697Y008070D01*
X017734Y008083D01*
X017772Y008092D01*
X017811Y008098D01*
X017850Y008100D01*
X017889Y008098D01*
X017928Y008092D01*
X017966Y008083D01*
X018003Y008070D01*
X018039Y008053D01*
X018072Y008033D01*
X018104Y008009D01*
X018133Y007983D01*
X018159Y007954D01*
X018183Y007922D01*
X018203Y007889D01*
X018220Y007853D01*
X018233Y007816D01*
X018242Y007778D01*
X018248Y007739D01*
X018250Y007700D01*
X018250Y001800D01*
X018248Y001761D01*
X018242Y001722D01*
X018233Y001684D01*
X018220Y001647D01*
X018203Y001611D01*
X018183Y001578D01*
X018159Y001546D01*
X018133Y001517D01*
X018104Y001491D01*
X018072Y001467D01*
X018039Y001447D01*
X018003Y001430D01*
X017966Y001417D01*
X017928Y001408D01*
X017889Y001402D01*
X017850Y001400D01*
X017811Y001402D01*
X017772Y001408D01*
X017734Y001417D01*
X017697Y001430D01*
X017661Y001447D01*
X017628Y001467D01*
X017596Y001491D01*
X017567Y001517D01*
X017541Y001546D01*
X017517Y001578D01*
X017497Y001611D01*
X017480Y001647D01*
X017467Y001684D01*
X017458Y001722D01*
X017452Y001761D01*
X017450Y001800D01*
D11*
X018339Y020650D03*
X018339Y021150D03*
X018339Y021650D03*
X018339Y022150D03*
X020961Y022150D03*
X020961Y021650D03*
X020961Y021150D03*
X020961Y020650D03*
D12*
X017250Y020824D03*
X017250Y020076D03*
D13*
X018176Y019900D03*
X018924Y019900D03*
X020956Y019900D03*
X021744Y019900D03*
X015824Y022000D03*
X015076Y022000D03*
D14*
X024850Y018650D03*
X024850Y017650D03*
D15*
X023350Y018350D02*
X023350Y018950D01*
X022350Y018950D02*
X022350Y018350D01*
X021350Y018350D02*
X021350Y018950D01*
X020350Y018950D02*
X020350Y018350D01*
X019350Y018350D02*
X019350Y018950D01*
X018350Y018950D02*
X018350Y018350D01*
X018550Y017400D02*
X018550Y016800D01*
X017550Y016800D02*
X017550Y017400D01*
X017350Y018350D02*
X017350Y018950D01*
X016350Y018950D02*
X016350Y018350D01*
X016550Y017400D02*
X016550Y016800D01*
X015350Y016800D02*
X015350Y017400D01*
X015350Y018350D02*
X015350Y018950D01*
X014350Y018950D02*
X014350Y018350D01*
X014350Y017400D02*
X014350Y016800D01*
X013350Y016800D02*
X013350Y017400D01*
X013350Y018350D02*
X013350Y018950D01*
X012350Y018950D02*
X012350Y018350D01*
X011350Y018350D02*
X011350Y018950D01*
X010350Y018950D02*
X010350Y018350D01*
X009350Y018350D02*
X009350Y018950D01*
X008350Y018950D02*
X008350Y018350D01*
X007350Y018350D02*
X007350Y018950D01*
X006350Y018950D02*
X006350Y018350D01*
X005350Y018350D02*
X005350Y018950D01*
X004350Y018950D02*
X004350Y018350D01*
X003350Y018350D02*
X003350Y018950D01*
X002350Y018950D02*
X002350Y018350D01*
X001350Y018350D02*
X001350Y018950D01*
X012350Y017400D02*
X012350Y016800D01*
X019550Y016800D02*
X019550Y017400D01*
D16*
X024509Y000250D02*
X001281Y000250D01*
X001215Y000252D01*
X001149Y000257D01*
X001083Y000267D01*
X001018Y000280D01*
X000954Y000296D01*
X000891Y000316D01*
X000829Y000340D01*
X000769Y000367D01*
X000710Y000397D01*
X000653Y000431D01*
X000598Y000468D01*
X000545Y000508D01*
X000494Y000550D01*
X000446Y000596D01*
X000400Y000644D01*
X000358Y000695D01*
X000318Y000748D01*
X000281Y000803D01*
X000247Y000860D01*
X000217Y000919D01*
X000190Y000979D01*
X000166Y001041D01*
X000146Y001104D01*
X000130Y001168D01*
X000117Y001233D01*
X000107Y001299D01*
X000102Y001365D01*
X000100Y001431D01*
X000100Y007140D01*
X000102Y007194D01*
X000107Y007247D01*
X000116Y007300D01*
X000129Y007352D01*
X000145Y007404D01*
X000165Y007454D01*
X000188Y007502D01*
X000215Y007549D01*
X000244Y007594D01*
X000277Y007637D01*
X000312Y007677D01*
X000350Y007715D01*
X000390Y007750D01*
X000433Y007783D01*
X000478Y007812D01*
X000525Y007839D01*
X000573Y007862D01*
X000623Y007882D01*
X000675Y007898D01*
X000727Y007911D01*
X000780Y007920D01*
X000833Y007925D01*
X000887Y007927D01*
X001281Y007927D01*
X001281Y007928D02*
X001335Y007930D01*
X001388Y007935D01*
X001441Y007944D01*
X001493Y007957D01*
X001545Y007973D01*
X001595Y007993D01*
X001643Y008016D01*
X001690Y008043D01*
X001735Y008072D01*
X001778Y008105D01*
X001818Y008140D01*
X001856Y008178D01*
X001891Y008218D01*
X001924Y008261D01*
X001953Y008306D01*
X001980Y008353D01*
X002003Y008401D01*
X002023Y008451D01*
X002039Y008503D01*
X002052Y008555D01*
X002061Y008608D01*
X002066Y008661D01*
X002068Y008715D01*
X002069Y008715D02*
X002069Y013833D01*
X002068Y013833D02*
X002066Y013887D01*
X002061Y013940D01*
X002052Y013993D01*
X002039Y014045D01*
X002023Y014097D01*
X002003Y014147D01*
X001980Y014195D01*
X001953Y014242D01*
X001924Y014287D01*
X001891Y014330D01*
X001856Y014370D01*
X001818Y014408D01*
X001778Y014443D01*
X001735Y014476D01*
X001690Y014505D01*
X001643Y014532D01*
X001595Y014555D01*
X001545Y014575D01*
X001493Y014591D01*
X001441Y014604D01*
X001388Y014613D01*
X001335Y014618D01*
X001281Y014620D01*
X000887Y014620D01*
X000833Y014622D01*
X000780Y014627D01*
X000727Y014636D01*
X000675Y014649D01*
X000623Y014665D01*
X000573Y014685D01*
X000525Y014708D01*
X000478Y014735D01*
X000433Y014764D01*
X000390Y014797D01*
X000350Y014832D01*
X000312Y014870D01*
X000277Y014910D01*
X000244Y014953D01*
X000215Y014998D01*
X000188Y015045D01*
X000165Y015093D01*
X000145Y015143D01*
X000129Y015195D01*
X000116Y015247D01*
X000107Y015300D01*
X000102Y015353D01*
X000100Y015407D01*
X000100Y021316D01*
X000102Y021382D01*
X000107Y021448D01*
X000117Y021514D01*
X000130Y021579D01*
X000146Y021643D01*
X000166Y021706D01*
X000190Y021768D01*
X000217Y021828D01*
X000247Y021887D01*
X000281Y021944D01*
X000318Y021999D01*
X000358Y022052D01*
X000400Y022103D01*
X000446Y022151D01*
X000494Y022197D01*
X000545Y022239D01*
X000598Y022279D01*
X000653Y022316D01*
X000710Y022350D01*
X000769Y022380D01*
X000829Y022407D01*
X000891Y022431D01*
X000954Y022451D01*
X001018Y022467D01*
X001083Y022480D01*
X001149Y022490D01*
X001215Y022495D01*
X001281Y022497D01*
X024509Y022497D01*
X024575Y022495D01*
X024641Y022490D01*
X024707Y022480D01*
X024772Y022467D01*
X024836Y022451D01*
X024899Y022431D01*
X024961Y022407D01*
X025021Y022380D01*
X025080Y022350D01*
X025137Y022316D01*
X025192Y022279D01*
X025245Y022239D01*
X025296Y022197D01*
X025344Y022151D01*
X025390Y022103D01*
X025432Y022052D01*
X025472Y021999D01*
X025509Y021944D01*
X025543Y021887D01*
X025573Y021828D01*
X025600Y021768D01*
X025624Y021706D01*
X025644Y021643D01*
X025660Y021579D01*
X025673Y021514D01*
X025683Y021448D01*
X025688Y021382D01*
X025690Y021316D01*
X025691Y021316D02*
X025691Y001431D01*
X025690Y001431D02*
X025688Y001365D01*
X025683Y001299D01*
X025673Y001233D01*
X025660Y001168D01*
X025644Y001104D01*
X025624Y001041D01*
X025600Y000979D01*
X025573Y000919D01*
X025543Y000860D01*
X025509Y000803D01*
X025472Y000748D01*
X025432Y000695D01*
X025390Y000644D01*
X025344Y000596D01*
X025296Y000550D01*
X025245Y000508D01*
X025192Y000468D01*
X025137Y000431D01*
X025080Y000397D01*
X025021Y000367D01*
X024961Y000340D01*
X024899Y000316D01*
X024836Y000296D01*
X024772Y000280D01*
X024707Y000267D01*
X024641Y000257D01*
X024575Y000252D01*
X024509Y000250D01*
X023762Y001628D02*
X023764Y001675D01*
X023770Y001721D01*
X023780Y001767D01*
X023793Y001812D01*
X023811Y001855D01*
X023832Y001897D01*
X023856Y001937D01*
X023884Y001974D01*
X023915Y002009D01*
X023949Y002042D01*
X023985Y002071D01*
X024024Y002097D01*
X024065Y002120D01*
X024108Y002139D01*
X024152Y002155D01*
X024197Y002167D01*
X024243Y002175D01*
X024290Y002179D01*
X024336Y002179D01*
X024383Y002175D01*
X024429Y002167D01*
X024474Y002155D01*
X024518Y002139D01*
X024561Y002120D01*
X024602Y002097D01*
X024641Y002071D01*
X024677Y002042D01*
X024711Y002009D01*
X024742Y001974D01*
X024770Y001937D01*
X024794Y001897D01*
X024815Y001855D01*
X024833Y001812D01*
X024846Y001767D01*
X024856Y001721D01*
X024862Y001675D01*
X024864Y001628D01*
X024862Y001581D01*
X024856Y001535D01*
X024846Y001489D01*
X024833Y001444D01*
X024815Y001401D01*
X024794Y001359D01*
X024770Y001319D01*
X024742Y001282D01*
X024711Y001247D01*
X024677Y001214D01*
X024641Y001185D01*
X024602Y001159D01*
X024561Y001136D01*
X024518Y001117D01*
X024474Y001101D01*
X024429Y001089D01*
X024383Y001081D01*
X024336Y001077D01*
X024290Y001077D01*
X024243Y001081D01*
X024197Y001089D01*
X024152Y001101D01*
X024108Y001117D01*
X024065Y001136D01*
X024024Y001159D01*
X023985Y001185D01*
X023949Y001214D01*
X023915Y001247D01*
X023884Y001282D01*
X023856Y001319D01*
X023832Y001359D01*
X023811Y001401D01*
X023793Y001444D01*
X023780Y001489D01*
X023770Y001535D01*
X023764Y001581D01*
X023762Y001628D01*
X018210Y001825D02*
X018210Y007730D01*
X017817Y008124D02*
X017778Y008122D01*
X017740Y008116D01*
X017703Y008107D01*
X017666Y008094D01*
X017631Y008077D01*
X017598Y008058D01*
X017567Y008035D01*
X017538Y008009D01*
X017512Y007980D01*
X017489Y007949D01*
X017470Y007916D01*
X017453Y007881D01*
X017440Y007844D01*
X017431Y007807D01*
X017425Y007769D01*
X017423Y007730D01*
X017423Y001825D01*
X017817Y001431D02*
X017856Y001433D01*
X017894Y001439D01*
X017931Y001448D01*
X017968Y001461D01*
X018003Y001478D01*
X018036Y001497D01*
X018067Y001520D01*
X018096Y001546D01*
X018122Y001575D01*
X018145Y001606D01*
X018164Y001639D01*
X018181Y001674D01*
X018194Y001711D01*
X018203Y001748D01*
X018209Y001786D01*
X018211Y001825D01*
X017817Y001431D02*
X017778Y001433D01*
X017740Y001439D01*
X017703Y001448D01*
X017666Y001461D01*
X017631Y001478D01*
X017598Y001497D01*
X017567Y001520D01*
X017538Y001546D01*
X017512Y001575D01*
X017489Y001606D01*
X017470Y001639D01*
X017453Y001674D01*
X017440Y001711D01*
X017431Y001748D01*
X017425Y001786D01*
X017423Y001825D01*
X018211Y007730D02*
X018209Y007769D01*
X018203Y007807D01*
X018194Y007844D01*
X018181Y007881D01*
X018164Y007916D01*
X018145Y007949D01*
X018122Y007980D01*
X018096Y008009D01*
X018067Y008035D01*
X018036Y008058D01*
X018003Y008077D01*
X017968Y008094D01*
X017931Y008107D01*
X017894Y008116D01*
X017856Y008122D01*
X017817Y008124D01*
X021585Y020928D02*
X021587Y020963D01*
X021593Y020998D01*
X021603Y021032D01*
X021616Y021065D01*
X021633Y021096D01*
X021654Y021124D01*
X021677Y021151D01*
X021704Y021174D01*
X021732Y021195D01*
X021763Y021212D01*
X021796Y021225D01*
X021830Y021235D01*
X021865Y021241D01*
X021900Y021243D01*
X021935Y021241D01*
X021970Y021235D01*
X022004Y021225D01*
X022037Y021212D01*
X022068Y021195D01*
X022096Y021174D01*
X022123Y021151D01*
X022146Y021124D01*
X022167Y021096D01*
X022184Y021065D01*
X022197Y021032D01*
X022207Y020998D01*
X022213Y020963D01*
X022215Y020928D01*
X022213Y020893D01*
X022207Y020858D01*
X022197Y020824D01*
X022184Y020791D01*
X022167Y020760D01*
X022146Y020732D01*
X022123Y020705D01*
X022096Y020682D01*
X022068Y020661D01*
X022037Y020644D01*
X022004Y020631D01*
X021970Y020621D01*
X021935Y020615D01*
X021900Y020613D01*
X021865Y020615D01*
X021830Y020621D01*
X021796Y020631D01*
X021763Y020644D01*
X021732Y020661D01*
X021704Y020682D01*
X021677Y020705D01*
X021654Y020732D01*
X021633Y020760D01*
X021616Y020791D01*
X021603Y020824D01*
X021593Y020858D01*
X021587Y020893D01*
X021585Y020928D01*
X023762Y020919D02*
X023764Y020966D01*
X023770Y021012D01*
X023780Y021058D01*
X023793Y021103D01*
X023811Y021146D01*
X023832Y021188D01*
X023856Y021228D01*
X023884Y021265D01*
X023915Y021300D01*
X023949Y021333D01*
X023985Y021362D01*
X024024Y021388D01*
X024065Y021411D01*
X024108Y021430D01*
X024152Y021446D01*
X024197Y021458D01*
X024243Y021466D01*
X024290Y021470D01*
X024336Y021470D01*
X024383Y021466D01*
X024429Y021458D01*
X024474Y021446D01*
X024518Y021430D01*
X024561Y021411D01*
X024602Y021388D01*
X024641Y021362D01*
X024677Y021333D01*
X024711Y021300D01*
X024742Y021265D01*
X024770Y021228D01*
X024794Y021188D01*
X024815Y021146D01*
X024833Y021103D01*
X024846Y021058D01*
X024856Y021012D01*
X024862Y020966D01*
X024864Y020919D01*
X024862Y020872D01*
X024856Y020826D01*
X024846Y020780D01*
X024833Y020735D01*
X024815Y020692D01*
X024794Y020650D01*
X024770Y020610D01*
X024742Y020573D01*
X024711Y020538D01*
X024677Y020505D01*
X024641Y020476D01*
X024602Y020450D01*
X024561Y020427D01*
X024518Y020408D01*
X024474Y020392D01*
X024429Y020380D01*
X024383Y020372D01*
X024336Y020368D01*
X024290Y020368D01*
X024243Y020372D01*
X024197Y020380D01*
X024152Y020392D01*
X024108Y020408D01*
X024065Y020427D01*
X024024Y020450D01*
X023985Y020476D01*
X023949Y020505D01*
X023915Y020538D01*
X023884Y020573D01*
X023856Y020610D01*
X023832Y020650D01*
X023811Y020692D01*
X023793Y020735D01*
X023780Y020780D01*
X023770Y020826D01*
X023764Y020872D01*
X023762Y020919D01*
X003585Y020928D02*
X003587Y020963D01*
X003593Y020998D01*
X003603Y021032D01*
X003616Y021065D01*
X003633Y021096D01*
X003654Y021124D01*
X003677Y021151D01*
X003704Y021174D01*
X003732Y021195D01*
X003763Y021212D01*
X003796Y021225D01*
X003830Y021235D01*
X003865Y021241D01*
X003900Y021243D01*
X003935Y021241D01*
X003970Y021235D01*
X004004Y021225D01*
X004037Y021212D01*
X004068Y021195D01*
X004096Y021174D01*
X004123Y021151D01*
X004146Y021124D01*
X004167Y021096D01*
X004184Y021065D01*
X004197Y021032D01*
X004207Y020998D01*
X004213Y020963D01*
X004215Y020928D01*
X004213Y020893D01*
X004207Y020858D01*
X004197Y020824D01*
X004184Y020791D01*
X004167Y020760D01*
X004146Y020732D01*
X004123Y020705D01*
X004096Y020682D01*
X004068Y020661D01*
X004037Y020644D01*
X004004Y020631D01*
X003970Y020621D01*
X003935Y020615D01*
X003900Y020613D01*
X003865Y020615D01*
X003830Y020621D01*
X003796Y020631D01*
X003763Y020644D01*
X003732Y020661D01*
X003704Y020682D01*
X003677Y020705D01*
X003654Y020732D01*
X003633Y020760D01*
X003616Y020791D01*
X003603Y020824D01*
X003593Y020858D01*
X003587Y020893D01*
X003585Y020928D01*
X000927Y020919D02*
X000929Y020966D01*
X000935Y021012D01*
X000945Y021058D01*
X000958Y021103D01*
X000976Y021146D01*
X000997Y021188D01*
X001021Y021228D01*
X001049Y021265D01*
X001080Y021300D01*
X001114Y021333D01*
X001150Y021362D01*
X001189Y021388D01*
X001230Y021411D01*
X001273Y021430D01*
X001317Y021446D01*
X001362Y021458D01*
X001408Y021466D01*
X001455Y021470D01*
X001501Y021470D01*
X001548Y021466D01*
X001594Y021458D01*
X001639Y021446D01*
X001683Y021430D01*
X001726Y021411D01*
X001767Y021388D01*
X001806Y021362D01*
X001842Y021333D01*
X001876Y021300D01*
X001907Y021265D01*
X001935Y021228D01*
X001959Y021188D01*
X001980Y021146D01*
X001998Y021103D01*
X002011Y021058D01*
X002021Y021012D01*
X002027Y020966D01*
X002029Y020919D01*
X002027Y020872D01*
X002021Y020826D01*
X002011Y020780D01*
X001998Y020735D01*
X001980Y020692D01*
X001959Y020650D01*
X001935Y020610D01*
X001907Y020573D01*
X001876Y020538D01*
X001842Y020505D01*
X001806Y020476D01*
X001767Y020450D01*
X001726Y020427D01*
X001683Y020408D01*
X001639Y020392D01*
X001594Y020380D01*
X001548Y020372D01*
X001501Y020368D01*
X001455Y020368D01*
X001408Y020372D01*
X001362Y020380D01*
X001317Y020392D01*
X001273Y020408D01*
X001230Y020427D01*
X001189Y020450D01*
X001150Y020476D01*
X001114Y020505D01*
X001080Y020538D01*
X001049Y020573D01*
X001021Y020610D01*
X000997Y020650D01*
X000976Y020692D01*
X000958Y020735D01*
X000945Y020780D01*
X000935Y020826D01*
X000929Y020872D01*
X000927Y020919D01*
X000927Y001628D02*
X000929Y001675D01*
X000935Y001721D01*
X000945Y001767D01*
X000958Y001812D01*
X000976Y001855D01*
X000997Y001897D01*
X001021Y001937D01*
X001049Y001974D01*
X001080Y002009D01*
X001114Y002042D01*
X001150Y002071D01*
X001189Y002097D01*
X001230Y002120D01*
X001273Y002139D01*
X001317Y002155D01*
X001362Y002167D01*
X001408Y002175D01*
X001455Y002179D01*
X001501Y002179D01*
X001548Y002175D01*
X001594Y002167D01*
X001639Y002155D01*
X001683Y002139D01*
X001726Y002120D01*
X001767Y002097D01*
X001806Y002071D01*
X001842Y002042D01*
X001876Y002009D01*
X001907Y001974D01*
X001935Y001937D01*
X001959Y001897D01*
X001980Y001855D01*
X001998Y001812D01*
X002011Y001767D01*
X002021Y001721D01*
X002027Y001675D01*
X002029Y001628D01*
X002027Y001581D01*
X002021Y001535D01*
X002011Y001489D01*
X001998Y001444D01*
X001980Y001401D01*
X001959Y001359D01*
X001935Y001319D01*
X001907Y001282D01*
X001876Y001247D01*
X001842Y001214D01*
X001806Y001185D01*
X001767Y001159D01*
X001726Y001136D01*
X001683Y001117D01*
X001639Y001101D01*
X001594Y001089D01*
X001548Y001081D01*
X001501Y001077D01*
X001455Y001077D01*
X001408Y001081D01*
X001362Y001089D01*
X001317Y001101D01*
X001273Y001117D01*
X001230Y001136D01*
X001189Y001159D01*
X001150Y001185D01*
X001114Y001214D01*
X001080Y001247D01*
X001049Y001282D01*
X001021Y001319D01*
X000997Y001359D01*
X000976Y001401D01*
X000958Y001444D01*
X000945Y001489D01*
X000935Y001535D01*
X000929Y001581D01*
X000927Y001628D01*
D17*
X002950Y003700D03*
X002950Y004700D03*
X003950Y004700D03*
X003950Y003700D03*
X004950Y003700D03*
X004950Y004700D03*
X005950Y004700D03*
X006950Y004700D03*
X006950Y003700D03*
X005950Y003700D03*
X007950Y003700D03*
X007950Y004700D03*
X008950Y004700D03*
X008950Y003700D03*
X009950Y003700D03*
X009950Y004700D03*
X010950Y004700D03*
X010950Y003700D03*
X011950Y003700D03*
X011950Y004700D03*
X012950Y004700D03*
X012950Y003700D03*
X013950Y003700D03*
X014950Y003700D03*
X014950Y004700D03*
X013950Y004700D03*
X013950Y005700D03*
X014950Y005700D03*
X014950Y006700D03*
X013950Y006700D03*
X012950Y006700D03*
X012950Y005700D03*
X011950Y005700D03*
X011950Y006700D03*
X010950Y006700D03*
X010950Y005700D03*
X009950Y005700D03*
X009950Y006700D03*
X008950Y006700D03*
X008950Y005700D03*
X007950Y005700D03*
X007950Y006700D03*
X006950Y006700D03*
X005950Y006700D03*
X005950Y005700D03*
X006950Y005700D03*
X004950Y005700D03*
X004950Y006700D03*
X003950Y006700D03*
X003950Y005700D03*
X002950Y005700D03*
X002950Y006700D03*
X002950Y007700D03*
X003950Y007700D03*
X004950Y007700D03*
X005950Y007700D03*
X006950Y007700D03*
X007950Y007700D03*
X008950Y007700D03*
X009950Y007700D03*
X010950Y007700D03*
X011950Y007700D03*
X012950Y007700D03*
X013950Y007700D03*
X014950Y007700D03*
X015950Y007700D03*
X016950Y007700D03*
X016950Y006700D03*
X016950Y005700D03*
X015950Y005700D03*
X015950Y006700D03*
X015950Y004700D03*
X015950Y003700D03*
X016950Y003700D03*
X016950Y004700D03*
X018950Y004700D03*
X018950Y003700D03*
X019950Y003700D03*
X019950Y004700D03*
X020950Y004700D03*
X020950Y003700D03*
X021950Y003700D03*
X022950Y003700D03*
X022950Y004700D03*
X021950Y004700D03*
X021950Y005700D03*
X022950Y005700D03*
X022950Y006700D03*
X021950Y006700D03*
X020950Y006700D03*
X020950Y005700D03*
X019950Y005700D03*
X019950Y006700D03*
X018950Y006700D03*
X018950Y005700D03*
X018950Y007700D03*
X019950Y007700D03*
X020950Y007700D03*
X021950Y007700D03*
X022950Y007700D03*
X023950Y007700D03*
X024950Y007700D03*
X024950Y006700D03*
X024950Y005700D03*
X023950Y005700D03*
X023950Y006700D03*
X023950Y004700D03*
X023950Y003700D03*
X024950Y003700D03*
X024950Y004700D03*
X021950Y001800D03*
X020950Y001800D03*
X019950Y001800D03*
X019950Y000700D03*
X020950Y000700D03*
X021950Y000700D03*
X016950Y000700D03*
X015950Y000700D03*
X014950Y000700D03*
X013950Y000700D03*
X012950Y000700D03*
X011950Y000700D03*
X010950Y000700D03*
X009950Y000700D03*
X008950Y000700D03*
X007950Y000700D03*
X006950Y000700D03*
X005950Y000700D03*
X004950Y000700D03*
X003950Y000700D03*
X003950Y001800D03*
X004950Y001800D03*
X005950Y001800D03*
X006950Y001800D03*
X007950Y001800D03*
X008950Y001800D03*
X009950Y001800D03*
X010950Y001800D03*
X011950Y001800D03*
X012950Y001800D03*
X013950Y001800D03*
X014950Y001800D03*
X015950Y001800D03*
X016950Y001800D03*
X016950Y009700D03*
X015950Y009700D03*
X014950Y009700D03*
X013950Y009700D03*
X012950Y009700D03*
X011950Y009700D03*
X010950Y009700D03*
X009950Y009700D03*
X008950Y009700D03*
X007950Y009700D03*
X006950Y009700D03*
X005950Y009700D03*
X004950Y009700D03*
X003950Y009700D03*
X002950Y009700D03*
X002950Y010700D03*
X002950Y011700D03*
X003950Y011700D03*
X003950Y010700D03*
X004950Y010700D03*
X004950Y011700D03*
X005950Y011700D03*
X006950Y011700D03*
X006950Y010700D03*
X005950Y010700D03*
X007950Y010700D03*
X007950Y011700D03*
X008950Y011700D03*
X008950Y010700D03*
X009950Y010700D03*
X009950Y011700D03*
X010950Y011700D03*
X010950Y010700D03*
X011950Y010700D03*
X011950Y011700D03*
X012950Y011700D03*
X012950Y010700D03*
X013950Y010700D03*
X014950Y010700D03*
X014950Y010700D03*
X014950Y011700D03*
X013950Y011700D03*
X013950Y012700D03*
X014950Y012700D03*
X014950Y013700D03*
X013950Y013700D03*
X012950Y013700D03*
X012950Y012700D03*
X011950Y012700D03*
X011950Y013700D03*
X010950Y013700D03*
X010950Y012700D03*
X009950Y012700D03*
X009950Y013700D03*
X008950Y013700D03*
X008950Y012700D03*
X007950Y012700D03*
X007950Y013700D03*
X006950Y013700D03*
X005950Y013700D03*
X005950Y012700D03*
X006950Y012700D03*
X004950Y012700D03*
X004950Y013700D03*
X003950Y013700D03*
X003950Y012700D03*
X002950Y012700D03*
X002950Y013700D03*
X003950Y014700D03*
X003950Y015700D03*
X004950Y015700D03*
X004950Y014700D03*
X005950Y014700D03*
X006950Y014700D03*
X006950Y015700D03*
X005950Y015700D03*
X007950Y015700D03*
X007950Y014700D03*
X008950Y014700D03*
X008950Y015700D03*
X009950Y015700D03*
X009950Y014700D03*
X010950Y014700D03*
X010950Y015700D03*
X011950Y015700D03*
X011950Y014700D03*
X012950Y014700D03*
X012950Y015700D03*
X013950Y015700D03*
X014950Y015700D03*
X014950Y014700D03*
X013950Y014700D03*
X015950Y014700D03*
X015950Y015700D03*
X016950Y015700D03*
X016950Y014700D03*
X017950Y014700D03*
X017950Y015700D03*
X018950Y015700D03*
X018950Y014700D03*
X019950Y014700D03*
X019950Y015700D03*
X020950Y015700D03*
X020950Y014700D03*
X021950Y014700D03*
X022950Y014700D03*
X022950Y015700D03*
X021950Y015700D03*
X023950Y015700D03*
X023950Y014700D03*
X023950Y014700D03*
X024950Y014700D03*
X024950Y015700D03*
X024950Y013700D03*
X024950Y012700D03*
X023950Y012700D03*
X023950Y013700D03*
X022950Y013700D03*
X021950Y013700D03*
X021950Y012700D03*
X022950Y012700D03*
X022950Y011700D03*
X021950Y011700D03*
X021950Y010700D03*
X022950Y010700D03*
X023950Y010700D03*
X023950Y011700D03*
X024950Y011700D03*
X024950Y010700D03*
X024950Y009700D03*
X023950Y009700D03*
X022950Y009700D03*
X021950Y009700D03*
X020950Y009700D03*
X019950Y009700D03*
X018950Y009700D03*
X017950Y009700D03*
X017950Y010700D03*
X017950Y011700D03*
X016950Y011700D03*
X016950Y010700D03*
X015950Y010700D03*
X015950Y011700D03*
X015950Y012700D03*
X015950Y013700D03*
X016950Y013700D03*
X016950Y012700D03*
X017950Y012700D03*
X017950Y013700D03*
X018950Y013700D03*
X018950Y012700D03*
X019950Y012700D03*
X019950Y013700D03*
X020950Y013700D03*
X020950Y012700D03*
X020950Y011700D03*
X020950Y010700D03*
X019950Y010700D03*
X019950Y011700D03*
X018950Y011700D03*
X018950Y010700D03*
D18*
X018950Y014700D02*
X017950Y014700D01*
X016950Y014700D01*
X015950Y014700D01*
X014950Y014700D01*
X013950Y014700D01*
X012950Y014700D01*
X011950Y014700D01*
X010950Y014700D01*
X009950Y014700D01*
X008950Y014700D01*
X007950Y014700D01*
X006950Y014700D01*
X005950Y014700D01*
X004950Y014700D01*
X003950Y014700D01*
X002150Y014700D01*
X001950Y014700D01*
X001350Y015300D01*
X001350Y018650D01*
X002350Y018650D02*
X002350Y016100D01*
X002750Y015700D01*
X003950Y015700D01*
X004950Y015700D01*
X005950Y015700D01*
X006950Y015700D01*
X007950Y015700D01*
X008950Y015700D01*
X009950Y015700D01*
X010950Y015700D01*
X011950Y015700D01*
X012950Y015700D01*
X013950Y015700D01*
X014950Y015700D01*
X015950Y015700D01*
X016950Y015700D01*
X017950Y015700D01*
X018950Y015700D01*
X019950Y015700D01*
X020950Y015700D01*
X021950Y015700D01*
X022950Y015700D01*
X023950Y015700D01*
X024950Y015700D01*
X024950Y014700D02*
X023950Y014700D01*
X022950Y014700D01*
X021950Y014700D01*
X020950Y014700D01*
X019950Y014700D01*
X018950Y014700D01*
X019950Y000700D02*
X014950Y000700D01*
X015950Y000700D01*
X016950Y000700D01*
X014950Y000700D02*
X013950Y000700D01*
X012950Y000700D01*
X011950Y000700D01*
X010950Y000700D01*
X009950Y000700D01*
X008950Y000700D01*
X007950Y000700D01*
X006950Y000700D01*
X005950Y000700D01*
X004950Y000700D01*
X003950Y000700D01*
X003750Y000700D01*
X019950Y000700D02*
X020950Y000700D01*
X021950Y000700D01*
D19*
X003750Y000700D02*
X003150Y001200D01*
X003150Y002200D01*
X002050Y003300D01*
X002050Y008100D01*
X002350Y008400D01*
X002350Y014500D01*
X002150Y014700D01*
X001350Y018650D02*
X001350Y018700D01*
X003050Y020400D01*
X003050Y021600D01*
X003650Y022200D01*
X005050Y022200D01*
X005350Y021900D01*
X005350Y021400D01*
X005850Y021500D02*
X005850Y021000D01*
X005750Y020900D01*
X005050Y020900D01*
X004650Y021300D01*
X005850Y021500D02*
X006350Y022000D01*
X015076Y022000D01*
X015050Y021400D02*
X013650Y021400D01*
X011850Y019600D01*
X011850Y017600D01*
X012350Y017100D01*
D20*
X016350Y021000D03*
X016850Y021500D03*
X015050Y021400D03*
X006350Y021000D03*
X005350Y021400D03*
X004650Y021300D03*
D21*
X006350Y021000D02*
X006350Y020400D01*
X005650Y019700D01*
X004000Y019700D01*
X003350Y018650D01*
X014350Y017100D02*
X014350Y016500D01*
X014650Y016200D01*
X018250Y016200D01*
X018550Y016500D01*
X018550Y017100D01*
X018950Y017900D02*
X019550Y017300D01*
X019550Y017100D01*
X020150Y017700D02*
X019850Y018000D01*
X019850Y019900D01*
X019524Y020226D01*
X019250Y020226D01*
X019250Y020700D01*
X018800Y021150D01*
X018339Y021150D01*
X018339Y020650D02*
X018176Y020487D01*
X018176Y019900D01*
X018000Y020076D01*
X017250Y020076D01*
X017226Y020100D01*
X016050Y020100D01*
X015550Y020600D01*
X015550Y021400D01*
X015076Y021874D01*
X015076Y022000D01*
X015824Y022000D02*
X016350Y022000D01*
X016450Y021900D01*
X016750Y022200D01*
X018289Y022200D01*
X018339Y022150D01*
X018339Y021650D02*
X017000Y021650D01*
X016850Y021500D01*
X016850Y021224D01*
X017250Y020824D01*
X016350Y021000D02*
X016350Y021800D01*
X016450Y021900D01*
X018924Y019900D02*
X019250Y020226D01*
X020850Y019400D02*
X020850Y018100D01*
X021150Y017800D01*
X023950Y017800D01*
X024350Y018200D01*
X025350Y018200D01*
X025550Y018000D01*
X025550Y003300D01*
X025350Y003100D01*
X023250Y003100D01*
X021950Y001800D01*
X015350Y017100D02*
X016150Y017900D01*
X018950Y017900D01*
X020150Y017700D02*
X020650Y017700D01*
X021150Y017200D01*
X024400Y017200D01*
X024850Y017650D01*
X024850Y018650D02*
X024000Y019500D01*
X023350Y019500D01*
X022450Y020400D01*
X020961Y020400D01*
X020961Y020650D01*
X020961Y019905D01*
X020956Y019900D01*
X020850Y019400D02*
X021650Y019400D01*
X021750Y019500D01*
X021750Y019894D01*
X021744Y019900D01*
X020961Y020650D02*
X020961Y021150D01*
X020961Y021650D01*
X020961Y022150D01*
M02*
