G75*
%MOIN*%
%OFA0B0*%
%FSLAX24Y24*%
%IPPOS*%
%LPD*%
%AMOC8*
5,1,8,0,0,1.08239X$1,22.5*
%
%ADD10C,0.0050*%
D10*
X000218Y001628D02*
X000220Y001699D01*
X000226Y001769D01*
X000236Y001839D01*
X000250Y001908D01*
X000267Y001977D01*
X000289Y002044D01*
X000314Y002110D01*
X000343Y002175D01*
X000375Y002237D01*
X000411Y002298D01*
X000450Y002357D01*
X000493Y002414D01*
X000538Y002468D01*
X000587Y002519D01*
X000638Y002568D01*
X000692Y002613D01*
X000749Y002656D01*
X000808Y002695D01*
X000869Y002731D01*
X000931Y002763D01*
X000996Y002792D01*
X001062Y002817D01*
X001129Y002839D01*
X001198Y002856D01*
X001267Y002870D01*
X001337Y002880D01*
X001407Y002886D01*
X001478Y002888D01*
X001549Y002886D01*
X001619Y002880D01*
X001689Y002870D01*
X001758Y002856D01*
X001827Y002839D01*
X001894Y002817D01*
X001960Y002792D01*
X002025Y002763D01*
X002087Y002731D01*
X002148Y002695D01*
X002207Y002656D01*
X002264Y002613D01*
X002318Y002568D01*
X002369Y002519D01*
X002418Y002468D01*
X002463Y002414D01*
X002506Y002357D01*
X002545Y002298D01*
X002581Y002237D01*
X002613Y002175D01*
X002642Y002110D01*
X002667Y002044D01*
X002689Y001977D01*
X002706Y001908D01*
X002720Y001839D01*
X002730Y001769D01*
X002736Y001699D01*
X002738Y001628D01*
X002736Y001557D01*
X002730Y001487D01*
X002720Y001417D01*
X002706Y001348D01*
X002689Y001279D01*
X002667Y001212D01*
X002642Y001146D01*
X002613Y001081D01*
X002581Y001019D01*
X002545Y000958D01*
X002506Y000899D01*
X002463Y000842D01*
X002418Y000788D01*
X002369Y000737D01*
X002318Y000688D01*
X002264Y000643D01*
X002207Y000600D01*
X002148Y000561D01*
X002087Y000525D01*
X002025Y000493D01*
X001960Y000464D01*
X001894Y000439D01*
X001827Y000417D01*
X001758Y000400D01*
X001689Y000386D01*
X001619Y000376D01*
X001549Y000370D01*
X001478Y000368D01*
X001407Y000370D01*
X001337Y000376D01*
X001267Y000386D01*
X001198Y000400D01*
X001129Y000417D01*
X001062Y000439D01*
X000996Y000464D01*
X000931Y000493D01*
X000869Y000525D01*
X000808Y000561D01*
X000749Y000600D01*
X000692Y000643D01*
X000638Y000688D01*
X000587Y000737D01*
X000538Y000788D01*
X000493Y000842D01*
X000450Y000899D01*
X000411Y000958D01*
X000375Y001019D01*
X000343Y001081D01*
X000314Y001146D01*
X000289Y001212D01*
X000267Y001279D01*
X000250Y001348D01*
X000236Y001417D01*
X000226Y001487D01*
X000220Y001557D01*
X000218Y001628D01*
X000218Y020919D02*
X000220Y020990D01*
X000226Y021060D01*
X000236Y021130D01*
X000250Y021199D01*
X000267Y021268D01*
X000289Y021335D01*
X000314Y021401D01*
X000343Y021466D01*
X000375Y021528D01*
X000411Y021589D01*
X000450Y021648D01*
X000493Y021705D01*
X000538Y021759D01*
X000587Y021810D01*
X000638Y021859D01*
X000692Y021904D01*
X000749Y021947D01*
X000808Y021986D01*
X000869Y022022D01*
X000931Y022054D01*
X000996Y022083D01*
X001062Y022108D01*
X001129Y022130D01*
X001198Y022147D01*
X001267Y022161D01*
X001337Y022171D01*
X001407Y022177D01*
X001478Y022179D01*
X001549Y022177D01*
X001619Y022171D01*
X001689Y022161D01*
X001758Y022147D01*
X001827Y022130D01*
X001894Y022108D01*
X001960Y022083D01*
X002025Y022054D01*
X002087Y022022D01*
X002148Y021986D01*
X002207Y021947D01*
X002264Y021904D01*
X002318Y021859D01*
X002369Y021810D01*
X002418Y021759D01*
X002463Y021705D01*
X002506Y021648D01*
X002545Y021589D01*
X002581Y021528D01*
X002613Y021466D01*
X002642Y021401D01*
X002667Y021335D01*
X002689Y021268D01*
X002706Y021199D01*
X002720Y021130D01*
X002730Y021060D01*
X002736Y020990D01*
X002738Y020919D01*
X002736Y020848D01*
X002730Y020778D01*
X002720Y020708D01*
X002706Y020639D01*
X002689Y020570D01*
X002667Y020503D01*
X002642Y020437D01*
X002613Y020372D01*
X002581Y020310D01*
X002545Y020249D01*
X002506Y020190D01*
X002463Y020133D01*
X002418Y020079D01*
X002369Y020028D01*
X002318Y019979D01*
X002264Y019934D01*
X002207Y019891D01*
X002148Y019852D01*
X002087Y019816D01*
X002025Y019784D01*
X001960Y019755D01*
X001894Y019730D01*
X001827Y019708D01*
X001758Y019691D01*
X001689Y019677D01*
X001619Y019667D01*
X001549Y019661D01*
X001478Y019659D01*
X001407Y019661D01*
X001337Y019667D01*
X001267Y019677D01*
X001198Y019691D01*
X001129Y019708D01*
X001062Y019730D01*
X000996Y019755D01*
X000931Y019784D01*
X000869Y019816D01*
X000808Y019852D01*
X000749Y019891D01*
X000692Y019934D01*
X000638Y019979D01*
X000587Y020028D01*
X000538Y020079D01*
X000493Y020133D01*
X000450Y020190D01*
X000411Y020249D01*
X000375Y020310D01*
X000343Y020372D01*
X000314Y020437D01*
X000289Y020503D01*
X000267Y020570D01*
X000250Y020639D01*
X000236Y020708D01*
X000226Y020778D01*
X000220Y020848D01*
X000218Y020919D01*
X023053Y020919D02*
X023055Y020990D01*
X023061Y021060D01*
X023071Y021130D01*
X023085Y021199D01*
X023102Y021268D01*
X023124Y021335D01*
X023149Y021401D01*
X023178Y021466D01*
X023210Y021528D01*
X023246Y021589D01*
X023285Y021648D01*
X023328Y021705D01*
X023373Y021759D01*
X023422Y021810D01*
X023473Y021859D01*
X023527Y021904D01*
X023584Y021947D01*
X023643Y021986D01*
X023704Y022022D01*
X023766Y022054D01*
X023831Y022083D01*
X023897Y022108D01*
X023964Y022130D01*
X024033Y022147D01*
X024102Y022161D01*
X024172Y022171D01*
X024242Y022177D01*
X024313Y022179D01*
X024384Y022177D01*
X024454Y022171D01*
X024524Y022161D01*
X024593Y022147D01*
X024662Y022130D01*
X024729Y022108D01*
X024795Y022083D01*
X024860Y022054D01*
X024922Y022022D01*
X024983Y021986D01*
X025042Y021947D01*
X025099Y021904D01*
X025153Y021859D01*
X025204Y021810D01*
X025253Y021759D01*
X025298Y021705D01*
X025341Y021648D01*
X025380Y021589D01*
X025416Y021528D01*
X025448Y021466D01*
X025477Y021401D01*
X025502Y021335D01*
X025524Y021268D01*
X025541Y021199D01*
X025555Y021130D01*
X025565Y021060D01*
X025571Y020990D01*
X025573Y020919D01*
X025571Y020848D01*
X025565Y020778D01*
X025555Y020708D01*
X025541Y020639D01*
X025524Y020570D01*
X025502Y020503D01*
X025477Y020437D01*
X025448Y020372D01*
X025416Y020310D01*
X025380Y020249D01*
X025341Y020190D01*
X025298Y020133D01*
X025253Y020079D01*
X025204Y020028D01*
X025153Y019979D01*
X025099Y019934D01*
X025042Y019891D01*
X024983Y019852D01*
X024922Y019816D01*
X024860Y019784D01*
X024795Y019755D01*
X024729Y019730D01*
X024662Y019708D01*
X024593Y019691D01*
X024524Y019677D01*
X024454Y019667D01*
X024384Y019661D01*
X024313Y019659D01*
X024242Y019661D01*
X024172Y019667D01*
X024102Y019677D01*
X024033Y019691D01*
X023964Y019708D01*
X023897Y019730D01*
X023831Y019755D01*
X023766Y019784D01*
X023704Y019816D01*
X023643Y019852D01*
X023584Y019891D01*
X023527Y019934D01*
X023473Y019979D01*
X023422Y020028D01*
X023373Y020079D01*
X023328Y020133D01*
X023285Y020190D01*
X023246Y020249D01*
X023210Y020310D01*
X023178Y020372D01*
X023149Y020437D01*
X023124Y020503D01*
X023102Y020570D01*
X023085Y020639D01*
X023071Y020708D01*
X023061Y020778D01*
X023055Y020848D01*
X023053Y020919D01*
X023053Y001628D02*
X023055Y001699D01*
X023061Y001769D01*
X023071Y001839D01*
X023085Y001908D01*
X023102Y001977D01*
X023124Y002044D01*
X023149Y002110D01*
X023178Y002175D01*
X023210Y002237D01*
X023246Y002298D01*
X023285Y002357D01*
X023328Y002414D01*
X023373Y002468D01*
X023422Y002519D01*
X023473Y002568D01*
X023527Y002613D01*
X023584Y002656D01*
X023643Y002695D01*
X023704Y002731D01*
X023766Y002763D01*
X023831Y002792D01*
X023897Y002817D01*
X023964Y002839D01*
X024033Y002856D01*
X024102Y002870D01*
X024172Y002880D01*
X024242Y002886D01*
X024313Y002888D01*
X024384Y002886D01*
X024454Y002880D01*
X024524Y002870D01*
X024593Y002856D01*
X024662Y002839D01*
X024729Y002817D01*
X024795Y002792D01*
X024860Y002763D01*
X024922Y002731D01*
X024983Y002695D01*
X025042Y002656D01*
X025099Y002613D01*
X025153Y002568D01*
X025204Y002519D01*
X025253Y002468D01*
X025298Y002414D01*
X025341Y002357D01*
X025380Y002298D01*
X025416Y002237D01*
X025448Y002175D01*
X025477Y002110D01*
X025502Y002044D01*
X025524Y001977D01*
X025541Y001908D01*
X025555Y001839D01*
X025565Y001769D01*
X025571Y001699D01*
X025573Y001628D01*
X025571Y001557D01*
X025565Y001487D01*
X025555Y001417D01*
X025541Y001348D01*
X025524Y001279D01*
X025502Y001212D01*
X025477Y001146D01*
X025448Y001081D01*
X025416Y001019D01*
X025380Y000958D01*
X025341Y000899D01*
X025298Y000842D01*
X025253Y000788D01*
X025204Y000737D01*
X025153Y000688D01*
X025099Y000643D01*
X025042Y000600D01*
X024983Y000561D01*
X024922Y000525D01*
X024860Y000493D01*
X024795Y000464D01*
X024729Y000439D01*
X024662Y000417D01*
X024593Y000400D01*
X024524Y000386D01*
X024454Y000376D01*
X024384Y000370D01*
X024313Y000368D01*
X024242Y000370D01*
X024172Y000376D01*
X024102Y000386D01*
X024033Y000400D01*
X023964Y000417D01*
X023897Y000439D01*
X023831Y000464D01*
X023766Y000493D01*
X023704Y000525D01*
X023643Y000561D01*
X023584Y000600D01*
X023527Y000643D01*
X023473Y000688D01*
X023422Y000737D01*
X023373Y000788D01*
X023328Y000842D01*
X023285Y000899D01*
X023246Y000958D01*
X023210Y001019D01*
X023178Y001081D01*
X023149Y001146D01*
X023124Y001212D01*
X023102Y001279D01*
X023085Y001348D01*
X023071Y001417D01*
X023061Y001487D01*
X023055Y001557D01*
X023053Y001628D01*
M02*
