G75*
%MOIN*%
%OFA0B0*%
%FSLAX24Y24*%
%IPPOS*%
%LPD*%
%AMOC8*
5,1,8,0,0,1.08239X$1,22.5*
%
%ADD10OC8,0.0600*%
%ADD11C,0.0600*%
%ADD12R,0.0402X0.0736*%
%ADD13C,0.0660*%
%ADD14C,0.0100*%
%ADD15C,0.0396*%
%ADD16C,0.0160*%
%ADD17C,0.0120*%
%ADD18C,0.0240*%
D10*
X024850Y017650D03*
X024850Y018650D03*
D11*
X023350Y018350D02*
X023350Y018950D01*
X022350Y018950D02*
X022350Y018350D01*
X021350Y018350D02*
X021350Y018950D01*
X020350Y018950D02*
X020350Y018350D01*
X019350Y018350D02*
X019350Y018950D01*
X018350Y018950D02*
X018350Y018350D01*
X018550Y017400D02*
X018550Y016800D01*
X017550Y016800D02*
X017550Y017400D01*
X017350Y018350D02*
X017350Y018950D01*
X016350Y018950D02*
X016350Y018350D01*
X016550Y017400D02*
X016550Y016800D01*
X015350Y016800D02*
X015350Y017400D01*
X015350Y018350D02*
X015350Y018950D01*
X014350Y018950D02*
X014350Y018350D01*
X014350Y017400D02*
X014350Y016800D01*
X013350Y016800D02*
X013350Y017400D01*
X013350Y018350D02*
X013350Y018950D01*
X012350Y018950D02*
X012350Y018350D01*
X011350Y018350D02*
X011350Y018950D01*
X010350Y018950D02*
X010350Y018350D01*
X009350Y018350D02*
X009350Y018950D01*
X008350Y018950D02*
X008350Y018350D01*
X007350Y018350D02*
X007350Y018950D01*
X006350Y018950D02*
X006350Y018350D01*
X005350Y018350D02*
X005350Y018950D01*
X004350Y018950D02*
X004350Y018350D01*
X003350Y018350D02*
X003350Y018950D01*
X002350Y018950D02*
X002350Y018350D01*
X001350Y018350D02*
X001350Y018950D01*
X012350Y017400D02*
X012350Y016800D01*
X019550Y016800D02*
X019550Y017400D01*
D12*
X019400Y019800D03*
X018400Y019800D03*
X017400Y019800D03*
X016400Y019800D03*
X015400Y019800D03*
X014400Y019800D03*
X013400Y019800D03*
X012400Y019800D03*
X011400Y019800D03*
X010400Y019800D03*
X009400Y019800D03*
X008400Y019800D03*
X007400Y019800D03*
X006400Y019800D03*
X005400Y019800D03*
X004400Y019800D03*
X003400Y019800D03*
X003400Y022056D03*
X004400Y022056D03*
X005400Y022056D03*
X006400Y022056D03*
X007400Y022056D03*
X008400Y022056D03*
X009400Y022056D03*
X010400Y022056D03*
X011400Y022056D03*
X012400Y022056D03*
X013400Y022056D03*
X014400Y022056D03*
X015400Y022056D03*
X016400Y022056D03*
X017400Y022056D03*
X018400Y022056D03*
X019400Y022056D03*
X020400Y022056D03*
X021400Y022056D03*
X022400Y022056D03*
X022400Y019800D03*
X021400Y019800D03*
X020400Y019800D03*
D13*
X019950Y015700D03*
X019950Y014700D03*
X018950Y014700D03*
X018950Y015700D03*
X017950Y015700D03*
X017950Y014700D03*
X016950Y014700D03*
X016950Y015700D03*
X015950Y015700D03*
X015950Y014700D03*
X014950Y014700D03*
X013950Y014700D03*
X013950Y015700D03*
X014950Y015700D03*
X012950Y015700D03*
X012950Y014700D03*
X011950Y014700D03*
X011950Y015700D03*
X010950Y015700D03*
X010950Y014700D03*
X009950Y014700D03*
X009950Y015700D03*
X008950Y015700D03*
X008950Y014700D03*
X007950Y014700D03*
X007950Y015700D03*
X006950Y015700D03*
X005950Y015700D03*
X005950Y014700D03*
X006950Y014700D03*
X006950Y013700D03*
X005950Y013700D03*
X005950Y012700D03*
X006950Y012700D03*
X007950Y012700D03*
X007950Y013700D03*
X008950Y013700D03*
X008950Y012700D03*
X009950Y012700D03*
X009950Y013700D03*
X010950Y013700D03*
X010950Y012700D03*
X011950Y012700D03*
X011950Y013700D03*
X012950Y013700D03*
X012950Y012700D03*
X013950Y012700D03*
X014950Y012700D03*
X014950Y013700D03*
X013950Y013700D03*
X015950Y013700D03*
X015950Y012700D03*
X016950Y012700D03*
X016950Y013700D03*
X017950Y013700D03*
X017950Y012700D03*
X018950Y012700D03*
X018950Y013700D03*
X019950Y013700D03*
X019950Y012700D03*
X020950Y012700D03*
X020950Y013700D03*
X021950Y013700D03*
X022950Y013700D03*
X022950Y012700D03*
X021950Y012700D03*
X021950Y011700D03*
X022950Y011700D03*
X022950Y010700D03*
X021950Y010700D03*
X020950Y010700D03*
X020950Y011700D03*
X019950Y011700D03*
X019950Y010700D03*
X018950Y010700D03*
X018950Y011700D03*
X017950Y011700D03*
X017950Y010700D03*
X016950Y010700D03*
X016950Y011700D03*
X015950Y011700D03*
X015950Y010700D03*
X014950Y010700D03*
X014950Y010700D03*
X013950Y010700D03*
X013950Y011700D03*
X014950Y011700D03*
X012950Y011700D03*
X012950Y010700D03*
X011950Y010700D03*
X011950Y011700D03*
X010950Y011700D03*
X010950Y010700D03*
X009950Y010700D03*
X009950Y011700D03*
X008950Y011700D03*
X008950Y010700D03*
X007950Y010700D03*
X007950Y011700D03*
X006950Y011700D03*
X005950Y011700D03*
X005950Y010700D03*
X006950Y010700D03*
X006950Y009700D03*
X005950Y009700D03*
X004950Y009700D03*
X003950Y009700D03*
X002950Y009700D03*
X002950Y010700D03*
X002950Y011700D03*
X003950Y011700D03*
X003950Y010700D03*
X004950Y010700D03*
X004950Y011700D03*
X004950Y012700D03*
X004950Y013700D03*
X003950Y013700D03*
X003950Y012700D03*
X002950Y012700D03*
X002950Y013700D03*
X003950Y014700D03*
X003950Y015700D03*
X004950Y015700D03*
X004950Y014700D03*
X007950Y009700D03*
X008950Y009700D03*
X009950Y009700D03*
X010950Y009700D03*
X011950Y009700D03*
X012950Y009700D03*
X013950Y009700D03*
X014950Y009700D03*
X015950Y009700D03*
X016950Y009700D03*
X017950Y009700D03*
X018950Y009700D03*
X019950Y009700D03*
X020950Y009700D03*
X021950Y009700D03*
X022950Y009700D03*
X023950Y009700D03*
X024950Y009700D03*
X024950Y010700D03*
X024950Y011700D03*
X023950Y011700D03*
X023950Y010700D03*
X023950Y012700D03*
X023950Y013700D03*
X024950Y013700D03*
X024950Y012700D03*
X024950Y014700D03*
X024950Y015700D03*
X023950Y015700D03*
X023950Y014700D03*
X023950Y014700D03*
X022950Y014700D03*
X021950Y014700D03*
X021950Y015700D03*
X022950Y015700D03*
X020950Y015700D03*
X020950Y014700D03*
X020950Y007700D03*
X019950Y007700D03*
X018950Y007700D03*
X018950Y006700D03*
X018950Y005700D03*
X019950Y005700D03*
X019950Y006700D03*
X020950Y006700D03*
X020950Y005700D03*
X021950Y005700D03*
X022950Y005700D03*
X022950Y006700D03*
X021950Y006700D03*
X021950Y007700D03*
X022950Y007700D03*
X023950Y007700D03*
X024950Y007700D03*
X024950Y006700D03*
X024950Y005700D03*
X023950Y005700D03*
X023950Y006700D03*
X023950Y004700D03*
X023950Y003700D03*
X022950Y003700D03*
X021950Y003700D03*
X021950Y004700D03*
X022950Y004700D03*
X020950Y004700D03*
X020950Y003700D03*
X019950Y003700D03*
X019950Y004700D03*
X018950Y004700D03*
X018950Y003700D03*
X016950Y003700D03*
X016950Y004700D03*
X015950Y004700D03*
X015950Y003700D03*
X014950Y003700D03*
X013950Y003700D03*
X013950Y004700D03*
X014950Y004700D03*
X014950Y005700D03*
X013950Y005700D03*
X013950Y006700D03*
X014950Y006700D03*
X015950Y006700D03*
X015950Y005700D03*
X016950Y005700D03*
X016950Y006700D03*
X016950Y007700D03*
X015950Y007700D03*
X014950Y007700D03*
X013950Y007700D03*
X012950Y007700D03*
X011950Y007700D03*
X010950Y007700D03*
X009950Y007700D03*
X008950Y007700D03*
X007950Y007700D03*
X006950Y007700D03*
X005950Y007700D03*
X004950Y007700D03*
X003950Y007700D03*
X002950Y007700D03*
X002950Y006700D03*
X002950Y005700D03*
X003950Y005700D03*
X003950Y006700D03*
X004950Y006700D03*
X004950Y005700D03*
X005950Y005700D03*
X006950Y005700D03*
X006950Y006700D03*
X005950Y006700D03*
X007950Y006700D03*
X007950Y005700D03*
X008950Y005700D03*
X008950Y006700D03*
X009950Y006700D03*
X009950Y005700D03*
X010950Y005700D03*
X010950Y006700D03*
X011950Y006700D03*
X011950Y005700D03*
X012950Y005700D03*
X012950Y006700D03*
X012950Y004700D03*
X012950Y003700D03*
X011950Y003700D03*
X011950Y004700D03*
X010950Y004700D03*
X010950Y003700D03*
X009950Y003700D03*
X009950Y004700D03*
X008950Y004700D03*
X008950Y003700D03*
X007950Y003700D03*
X007950Y004700D03*
X006950Y004700D03*
X005950Y004700D03*
X005950Y003700D03*
X006950Y003700D03*
X004950Y003700D03*
X004950Y004700D03*
X003950Y004700D03*
X003950Y003700D03*
X002950Y003700D03*
X002950Y004700D03*
X003950Y001800D03*
X004950Y001800D03*
X005950Y001800D03*
X006950Y001800D03*
X007950Y001800D03*
X008950Y001800D03*
X009950Y001800D03*
X010950Y001800D03*
X011950Y001800D03*
X012950Y001800D03*
X013950Y001800D03*
X014950Y001800D03*
X015950Y001800D03*
X016950Y001800D03*
X016950Y000700D03*
X015950Y000700D03*
X014950Y000700D03*
X013950Y000700D03*
X012950Y000700D03*
X011950Y000700D03*
X010950Y000700D03*
X009950Y000700D03*
X008950Y000700D03*
X007950Y000700D03*
X006950Y000700D03*
X005950Y000700D03*
X004950Y000700D03*
X003950Y000700D03*
X019950Y000700D03*
X020950Y000700D03*
X021950Y000700D03*
X021950Y001800D03*
X020950Y001800D03*
X019950Y001800D03*
X024950Y003700D03*
X024950Y004700D03*
D14*
X021950Y001850D02*
X021950Y001800D01*
X024950Y014700D02*
X025250Y014700D01*
X025450Y014900D01*
X025450Y018050D01*
X024850Y018650D01*
D15*
X016850Y021500D03*
X016350Y021000D03*
X015050Y021400D03*
X006350Y021000D03*
X005350Y021400D03*
X004650Y021300D03*
D16*
X004550Y021400D01*
X003650Y021400D01*
X003400Y021150D01*
X003400Y019800D01*
X005350Y021400D02*
X005350Y022006D01*
X005400Y022056D01*
X004950Y013700D02*
X004950Y012700D01*
X004950Y011700D01*
X004950Y010700D01*
X003950Y010700D02*
X003950Y011700D01*
X003950Y012700D01*
X003950Y013700D01*
X002950Y013700D02*
X002950Y012700D01*
X002950Y011700D01*
X002950Y010700D01*
X005950Y010700D02*
X005950Y011700D01*
X005950Y012700D01*
X005950Y013700D01*
X006950Y013700D02*
X006950Y012700D01*
X006950Y011700D01*
X006950Y010700D01*
X007950Y010700D02*
X007950Y011700D01*
X007950Y012700D01*
X007950Y013700D01*
X008950Y013700D02*
X008950Y012700D01*
X008950Y011700D01*
X008950Y010700D01*
X009950Y010700D02*
X009950Y011700D01*
X009950Y012700D01*
X009950Y013700D01*
X010950Y013700D02*
X010950Y012700D01*
X010950Y011700D01*
X010950Y010700D01*
X011950Y010700D02*
X011950Y011700D01*
X011950Y012700D01*
X011950Y013700D01*
X012950Y013700D02*
X012950Y012700D01*
X012950Y011700D01*
X012950Y010700D01*
X013950Y010700D02*
X013950Y011700D01*
X013950Y012700D01*
X013950Y013700D01*
X014950Y013700D02*
X014950Y012700D01*
X014950Y011700D01*
X014950Y010700D01*
X015950Y010700D02*
X015950Y011700D01*
X015950Y012700D01*
X015950Y013700D01*
X016950Y013700D02*
X016950Y012700D01*
X016950Y011700D01*
X016950Y010700D01*
X017950Y010700D02*
X017950Y011700D01*
X017950Y012700D01*
X017950Y013700D01*
X018950Y013700D02*
X018950Y012700D01*
X018950Y011700D01*
X018950Y010700D01*
X019950Y010700D02*
X019950Y011700D01*
X019950Y012700D01*
X019950Y013700D01*
X020950Y013700D02*
X020950Y012700D01*
X020950Y011700D01*
X020950Y010700D01*
X021950Y010700D02*
X021950Y011700D01*
X021950Y012700D01*
X021950Y013700D01*
X022950Y013700D02*
X022950Y012700D01*
X022950Y011700D01*
X022950Y010700D01*
X023950Y010700D02*
X023950Y011700D01*
X023950Y012700D01*
X023950Y013700D01*
X024950Y013700D02*
X024950Y012700D01*
X024950Y011700D01*
X024950Y010700D01*
X024950Y007700D02*
X024950Y006700D01*
X024950Y005700D01*
X024950Y004700D01*
X024950Y003700D01*
X023950Y003700D02*
X023950Y004700D01*
X023950Y005700D01*
X023950Y006700D01*
X023950Y007700D01*
X022950Y007700D02*
X022950Y006700D01*
X022950Y005700D01*
X022950Y004700D01*
X022950Y003700D01*
X021950Y003700D02*
X021950Y004700D01*
X021950Y005700D01*
X021950Y006700D01*
X021950Y007700D01*
X020950Y007700D02*
X020950Y006700D01*
X020950Y005700D01*
X020950Y004700D01*
X020950Y003700D01*
X019950Y003700D02*
X019950Y004700D01*
X019950Y005700D01*
X019950Y006700D01*
X019950Y007700D01*
X018950Y007700D02*
X018950Y006700D01*
X018950Y005700D01*
X018950Y004700D01*
X018950Y003700D01*
X016950Y003700D02*
X016950Y004700D01*
X016950Y005700D01*
X016950Y006700D01*
X016950Y007700D01*
X015950Y007700D02*
X015950Y006700D01*
X015950Y005700D01*
X015950Y004700D01*
X015950Y003700D01*
X014950Y003700D02*
X014950Y004700D01*
X014950Y005700D01*
X014950Y006700D01*
X014950Y007700D01*
X013950Y007700D02*
X013950Y006700D01*
X013950Y005700D01*
X013950Y004700D01*
X013950Y003700D01*
X012950Y003700D02*
X012950Y004700D01*
X012950Y005700D01*
X012950Y006700D01*
X012950Y007700D01*
X011950Y007700D02*
X011950Y006700D01*
X011950Y005700D01*
X011950Y004700D01*
X011950Y003700D01*
X010950Y003700D02*
X010950Y004700D01*
X010950Y005700D01*
X010950Y006700D01*
X010950Y007700D01*
X009950Y007700D02*
X009950Y006700D01*
X009950Y005700D01*
X009950Y004700D01*
X009950Y003700D01*
X008950Y003700D02*
X008950Y004700D01*
X008950Y005700D01*
X008950Y006700D01*
X008950Y007700D01*
X007950Y007700D02*
X007950Y006700D01*
X007950Y005700D01*
X007950Y004700D01*
X007950Y003700D01*
X006950Y003700D02*
X006950Y004700D01*
X006950Y005700D01*
X006950Y006700D01*
X006950Y007700D01*
X005950Y007700D02*
X005950Y006700D01*
X005950Y005700D01*
X005950Y004700D01*
X005950Y003700D01*
X004950Y003700D02*
X004950Y004700D01*
X004950Y005700D01*
X004950Y006700D01*
X004950Y007700D01*
X003950Y007700D02*
X003950Y006700D01*
X003950Y005700D01*
X003950Y004700D01*
X003950Y003700D01*
X002950Y003700D02*
X002950Y004700D01*
X002950Y005700D01*
X002950Y006700D01*
X002950Y007700D01*
X015050Y021400D02*
X015400Y021850D01*
X015400Y022056D01*
D17*
X002050Y003300D02*
X003150Y002200D01*
X003550Y002200D01*
X003950Y001800D01*
X004950Y001800D01*
X005950Y001800D01*
X006950Y001800D01*
X007950Y001800D01*
X008950Y001800D01*
X009950Y001800D01*
X010950Y001800D01*
X011950Y001800D01*
X012950Y001800D01*
X013950Y001800D01*
X014950Y001800D01*
X015950Y001800D01*
X016950Y001800D01*
X017550Y001200D01*
X018550Y001200D01*
X019150Y001800D01*
X019950Y001800D01*
X020950Y001800D01*
X021950Y001800D01*
X017250Y016200D02*
X013850Y016200D01*
X013350Y016700D01*
X013350Y017100D01*
X012850Y017600D01*
X012850Y019200D01*
X012400Y019650D01*
X012400Y019800D01*
X012950Y019600D02*
X012950Y021300D01*
X011550Y021300D01*
X011400Y021450D01*
X011400Y022056D01*
X010400Y022056D02*
X010400Y021150D01*
X010750Y020800D01*
X011650Y020800D01*
X011850Y020600D01*
X011850Y019150D01*
X012350Y018650D01*
X011350Y018650D02*
X011200Y018650D01*
X010850Y019000D01*
X010850Y019350D01*
X010400Y019800D01*
X009850Y019350D02*
X009850Y018700D01*
X009900Y018650D01*
X010350Y018650D01*
X009850Y019350D02*
X009400Y019800D01*
X009400Y019600D01*
X008950Y019050D02*
X009350Y018650D01*
X008950Y019050D02*
X008950Y020900D01*
X008400Y021450D01*
X008400Y022056D01*
X007400Y022056D02*
X007400Y020950D01*
X006950Y020500D01*
X004250Y020500D01*
X003950Y020200D01*
X003950Y019050D01*
X004350Y018650D01*
X005350Y018650D02*
X005350Y018850D01*
X004400Y019800D01*
X005400Y019800D02*
X005850Y019350D01*
X005850Y018900D01*
X006100Y018650D01*
X006350Y018650D01*
X007350Y018650D02*
X007350Y018850D01*
X006400Y019800D01*
X006350Y021000D02*
X006400Y021050D01*
X006400Y022056D01*
X008400Y019800D02*
X008350Y019750D01*
X008350Y018650D01*
X012950Y019600D02*
X013350Y018650D01*
X013850Y019150D02*
X013850Y017700D01*
X014350Y017200D01*
X014350Y017100D01*
X014850Y017800D02*
X015350Y017300D01*
X015350Y017100D01*
X014850Y017800D02*
X014850Y019350D01*
X014400Y019800D01*
X014450Y019800D01*
X013850Y019600D02*
X013850Y020400D01*
X013400Y020850D01*
X013400Y022056D01*
X014400Y022056D02*
X014400Y021250D01*
X014750Y020900D01*
X015550Y020900D01*
X015850Y020600D01*
X015850Y017800D01*
X016550Y017100D01*
X017550Y017100D02*
X017550Y016500D01*
X017250Y016200D01*
X017350Y018650D02*
X017350Y018750D01*
X018400Y019800D01*
X018900Y019200D02*
X018900Y021250D01*
X018850Y021300D01*
X018400Y021750D01*
X018400Y022056D01*
X019850Y021300D02*
X019850Y019400D01*
X020350Y018900D01*
X020350Y018650D01*
X019400Y018800D02*
X019350Y018750D01*
X019350Y018650D01*
X019400Y018800D02*
X019400Y019800D01*
X018900Y019200D02*
X018350Y018650D01*
X017400Y019800D02*
X016950Y019800D01*
X016950Y019250D01*
X016350Y018650D01*
X016400Y019800D02*
X016350Y020050D01*
X016350Y021000D01*
X016650Y021500D02*
X016450Y021700D01*
X016450Y022206D01*
X016400Y022056D01*
X016650Y021500D02*
X016850Y021500D01*
X019850Y021300D02*
X020400Y021850D01*
X020400Y022056D01*
X021400Y022056D02*
X021400Y020650D01*
X021550Y020500D01*
X021650Y020500D01*
X021850Y020300D01*
X021850Y019350D01*
X022350Y018850D01*
X022350Y018650D01*
X022850Y019350D02*
X023350Y018850D01*
X023350Y018650D01*
X022850Y019350D02*
X022850Y021500D01*
X022400Y021950D01*
X022400Y022056D01*
X020400Y019800D02*
X020400Y019600D01*
X021350Y018650D01*
X014350Y018650D02*
X014350Y019000D01*
X013850Y019600D01*
X013850Y019150D02*
X013400Y019800D01*
X013400Y019550D01*
X003400Y019800D02*
X002850Y019800D01*
X002850Y017800D01*
X002350Y017300D01*
X002350Y008400D01*
X002050Y008100D01*
X002050Y003300D01*
D18*
X002950Y009700D02*
X002950Y010700D01*
X003950Y010700D02*
X003950Y009700D01*
X004950Y009700D02*
X004950Y010700D01*
X005950Y010700D02*
X005950Y009700D01*
X006950Y009700D02*
X006950Y010700D01*
X007950Y010700D02*
X007950Y009700D01*
X008950Y009700D02*
X008950Y010700D01*
X009950Y010700D02*
X009950Y009700D01*
X010950Y009700D02*
X010950Y010700D01*
X011950Y010700D02*
X011950Y009700D01*
X012950Y009700D02*
X012950Y010700D01*
X013950Y010700D02*
X013950Y009700D01*
X014950Y009700D02*
X014950Y010700D01*
X015950Y010700D02*
X015950Y009700D01*
X016950Y009700D02*
X016950Y010700D01*
X017950Y010700D02*
X017950Y009700D01*
X018950Y009700D02*
X018950Y010700D01*
X019950Y010700D02*
X019950Y009700D01*
X020950Y009700D02*
X020950Y010700D01*
X021950Y010700D02*
X021950Y009700D01*
X022950Y009700D02*
X022950Y010700D01*
X023950Y010700D02*
X023950Y009700D01*
X024950Y009700D02*
X024950Y010700D01*
X003400Y022056D02*
X002950Y021606D01*
X002950Y020400D01*
X002350Y019800D01*
X002350Y018650D01*
M02*
