%
M48
M72
T01C0.0236
T02C0.0300
T03C0.0400
T04C0.0630
T05C0.1102
%
T01
X6350Y21000
X5350Y21400
X4650Y21300
X15050Y21400
X16350Y21000
X16850Y21500
T02
X16950Y15700
X16950Y14700
X15950Y14700
X15950Y15700
X14950Y15700
X13950Y15700
X13950Y14700
X14950Y14700
X14950Y13700
X13950Y13700
X13950Y12700
X14950Y12700
X15950Y12700
X15950Y13700
X16950Y13700
X16950Y12700
X17950Y12700
X17950Y13700
X18950Y13700
X18950Y12700
X19950Y12700
X19950Y13700
X20950Y13700
X20950Y12700
X21950Y12700
X22950Y12700
X22950Y13700
X21950Y13700
X21950Y14700
X22950Y14700
X22950Y15700
X21950Y15700
X20950Y15700
X20950Y14700
X19950Y14700
X19950Y15700
X18950Y15700
X18950Y14700
X17950Y14700
X17950Y15700
X17950Y11700
X17950Y10700
X16950Y10700
X16950Y11700
X15950Y11700
X15950Y10700
X14950Y10700
X14950Y10700
X13950Y10700
X13950Y11700
X14950Y11700
X12950Y11700
X12950Y10700
X11950Y10700
X11950Y11700
X10950Y11700
X10950Y10700
X9950Y10700
X9950Y11700
X8950Y11700
X8950Y10700
X7950Y10700
X7950Y11700
X6950Y11700
X5950Y11700
X5950Y10700
X6950Y10700
X6950Y9700
X5950Y9700
X4950Y9700
X3950Y9700
X2950Y9700
X2950Y10700
X2950Y11700
X3950Y11700
X3950Y10700
X4950Y10700
X4950Y11700
X4950Y12700
X4950Y13700
X3950Y13700
X3950Y12700
X2950Y12700
X2950Y13700
X3950Y14700
X3950Y15700
X4950Y15700
X4950Y14700
X5950Y14700
X6950Y14700
X6950Y15700
X5950Y15700
X7950Y15700
X7950Y14700
X8950Y14700
X8950Y15700
X9950Y15700
X9950Y14700
X10950Y14700
X10950Y15700
X11950Y15700
X11950Y14700
X12950Y14700
X12950Y15700
X12950Y13700
X12950Y12700
X11950Y12700
X11950Y13700
X10950Y13700
X10950Y12700
X9950Y12700
X9950Y13700
X8950Y13700
X8950Y12700
X7950Y12700
X7950Y13700
X6950Y13700
X5950Y13700
X5950Y12700
X6950Y12700
X7950Y9700
X8950Y9700
X9950Y9700
X10950Y9700
X11950Y9700
X12950Y9700
X13950Y9700
X14950Y9700
X15950Y9700
X16950Y9700
X17950Y9700
X18950Y9700
X19950Y9700
X20950Y9700
X21950Y9700
X22950Y9700
X23950Y9700
X24950Y9700
X24950Y10700
X24950Y11700
X23950Y11700
X23950Y10700
X22950Y10700
X21950Y10700
X21950Y11700
X22950Y11700
X23950Y12700
X23950Y13700
X24950Y13700
X24950Y12700
X24950Y14700
X24950Y15700
X23950Y15700
X23950Y14700
X23950Y14700
X20950Y11700
X20950Y10700
X19950Y10700
X19950Y11700
X18950Y11700
X18950Y10700
X18950Y7700
X19950Y7700
X20950Y7700
X21950Y7700
X22950Y7700
X23950Y7700
X24950Y7700
X24950Y6700
X24950Y5700
X23950Y5700
X23950Y6700
X22950Y6700
X21950Y6700
X21950Y5700
X22950Y5700
X22950Y4700
X21950Y4700
X21950Y3700
X22950Y3700
X23950Y3700
X23950Y4700
X24950Y4700
X24950Y3700
X21950Y1800
X20950Y1800
X19950Y1800
X19950Y700
X20950Y700
X21950Y700
X20950Y3700
X20950Y4700
X19950Y4700
X19950Y3700
X18950Y3700
X18950Y4700
X18950Y5700
X18950Y6700
X19950Y6700
X19950Y5700
X20950Y5700
X20950Y6700
X16950Y6700
X16950Y5700
X15950Y5700
X15950Y6700
X14950Y6700
X13950Y6700
X13950Y5700
X14950Y5700
X14950Y4700
X13950Y4700
X13950Y3700
X14950Y3700
X15950Y3700
X15950Y4700
X16950Y4700
X16950Y3700
X16950Y1800
X15950Y1800
X14950Y1800
X13950Y1800
X12950Y1800
X11950Y1800
X10950Y1800
X9950Y1800
X8950Y1800
X7950Y1800
X6950Y1800
X5950Y1800
X4950Y1800
X3950Y1800
X3950Y700
X4950Y700
X5950Y700
X6950Y700
X7950Y700
X8950Y700
X9950Y700
X10950Y700
X11950Y700
X12950Y700
X13950Y700
X14950Y700
X15950Y700
X16950Y700
X12950Y3700
X12950Y4700
X11950Y4700
X11950Y3700
X10950Y3700
X10950Y4700
X9950Y4700
X9950Y3700
X8950Y3700
X8950Y4700
X7950Y4700
X7950Y3700
X6950Y3700
X5950Y3700
X5950Y4700
X6950Y4700
X6950Y5700
X5950Y5700
X5950Y6700
X6950Y6700
X7950Y6700
X7950Y5700
X8950Y5700
X8950Y6700
X9950Y6700
X9950Y5700
X10950Y5700
X10950Y6700
X11950Y6700
X11950Y5700
X12950Y5700
X12950Y6700
X12950Y7700
X11950Y7700
X10950Y7700
X9950Y7700
X8950Y7700
X7950Y7700
X6950Y7700
X5950Y7700
X4950Y7700
X3950Y7700
X2950Y7700
X2950Y6700
X2950Y5700
X3950Y5700
X3950Y6700
X4950Y6700
X4950Y5700
X4950Y4700
X4950Y3700
X3950Y3700
X3950Y4700
X2950Y4700
X2950Y3700
X13950Y7700
X14950Y7700
X15950Y7700
X16950Y7700
T03
X16550Y17100
X17550Y17100
X18550Y17100
X19550Y17100
X19350Y18650
X20350Y18650
X21350Y18650
X22350Y18650
X23350Y18650
X24850Y18650
X24850Y17650
X18350Y18650
X17350Y18650
X16350Y18650
X15350Y18650
X14350Y18650
X13350Y18650
X12350Y18650
X11350Y18650
X10350Y18650
X9350Y18650
X8350Y18650
X7350Y18650
X6350Y18650
X5350Y18650
X4350Y18650
X3350Y18650
X2350Y18650
X1350Y18650
X12350Y17100
X13350Y17100
X14350Y17100
X15350Y17100
T04
X21900Y20928
X3900Y20928
T05
X1478Y1628
X1478Y20919
X24313Y20919
X24313Y1628
M30
