<?xml version="1.0" encoding="utf-8"?>
<!-- Generator: Adobe Illustrator 15.1.0, SVG Export Plug-In . SVG Version: 6.00 Build 0)  -->
<!DOCTYPE svg PUBLIC "-//W3C//DTD SVG 1.1//EN" "http://www.w3.org/Graphics/SVG/1.1/DTD/svg11.dtd">
<svg version="1.1" id="Layer_1" xmlns="http://www.w3.org/2000/svg" xmlns:xlink="http://www.w3.org/1999/xlink" x="0px" y="0px"
	 width="923.331px" height="294px" viewBox="0 0 923.331 294" enable-background="new 0 0 923.331 294" xml:space="preserve">
<g>
	<defs>
		<rect id="SVGID_1_" x="-179.669" y="-252" width="1280" height="800"/>
	</defs>
	<clipPath id="SVGID_2_">
		<use xlink:href="#SVGID_1_"  overflow="visible"/>
	</clipPath>
	<path clip-path="url(#SVGID_2_)" fill="#29CACD" d="M334.854,89.768h50.399c29.735,0,48.888,15.288,48.888,41.328v0.336
		c0,27.721-21.336,42.336-50.568,42.336h-16.127v33.6h-32.592V89.768z M382.901,148.231c11.592,0,18.648-6.048,18.648-15.288v-0.336
		c0-10.08-7.057-15.455-18.816-15.455h-15.287v31.079H382.901z"/>
	<path clip-path="url(#SVGID_2_)" fill="#29CACD" d="M442.708,84.729h33.264v23.52h-33.264V84.729z M443.379,116.48h31.92v90.887
		h-31.92V116.48z"/>
	<path clip-path="url(#SVGID_2_)" fill="#8D8D8D" d="M487.561,148.904v-0.337c0-34.271,26.377-61.151,61.992-61.151
		c24.023,0,39.48,10.08,49.896,24.529l-24.528,18.982c-6.72-8.4-14.448-13.775-25.704-13.775c-16.464,0-28.056,13.943-28.056,31.079
		v0.336c0,17.641,11.592,31.417,28.056,31.417c12.264,0,19.488-5.713,26.544-14.28l24.528,17.472
		c-11.088,15.288-26.04,26.544-52.08,26.544C514.61,209.72,487.561,184.016,487.561,148.904"/>
	<path clip-path="url(#SVGID_2_)" fill="#8D8D8D" d="M609.025,116.48h31.92v18.312c5.208-12.433,13.608-20.496,28.727-19.824v33.601
		h-2.687c-16.632,0-26.04,9.576-26.04,30.575v28.224h-31.92V116.48z"/>
	<path clip-path="url(#SVGID_2_)" fill="#8D8D8D" d="M676.895,175.951V116.48h31.92v49.224c0,9.911,5.209,15.288,12.938,15.288
		c7.559,0,13.271-5.377,13.271-15.288V116.48h31.92v90.887h-31.92v-12.432c-5.881,7.561-14.279,14.448-27.217,14.448
		C688.489,209.384,676.895,196.615,676.895,175.951"/>
	<path clip-path="url(#SVGID_2_)" fill="#8D8D8D" d="M773.829,195.943l11.93-19.319c10.414,6.888,21.84,10.415,31.246,10.415
		c5.545,0,8.064-1.68,8.064-4.871v-0.336c0-3.528-5.039-5.04-14.615-7.729c-17.978-4.703-32.256-10.752-32.256-29.062v-0.336
		c0-19.322,15.455-30.074,36.455-30.074c13.271,0,27.049,3.865,37.465,10.584l-10.92,20.162c-9.408-5.209-19.656-8.4-26.881-8.4
		c-4.871,0-7.393,1.848-7.393,4.367v0.336c0,3.529,5.209,5.207,14.785,8.064c17.977,5.039,32.256,11.256,32.256,28.896v0.336
		c0,19.992-14.953,30.408-37.129,30.408C801.549,209.384,786.43,205.016,773.829,195.943"/>
	<path clip-path="url(#SVGID_2_)" fill="#8D8D8D" d="M867.573,179.144v-36.959h-10.752v-25.705h10.752V93.465h31.92v23.015h21.168
		v25.705h-21.168v30.743c0,6.385,2.855,9.072,8.736,9.072c4.199,0,8.232-1.176,12.096-3.024v25.032
		c-5.713,3.191-13.271,5.208-22.176,5.208C878.997,209.216,867.573,200.816,867.573,179.144"/>
	<path clip-path="url(#SVGID_2_)" fill="#8D8D8D" d="M211.938,226.872c-18.234,15.707-41.951,25.217-67.849,25.217
		C86.694,252.089,40,205.395,40,148S86.694,43.911,144.089,43.911c25.898,0,49.615,9.51,67.849,25.217l28.325-28.323
		C214.738,17.88,181.016,3.911,144.089,3.911C64.638,3.911,0,68.549,0,148s64.638,144.089,144.089,144.089
		c36.927,0,70.649-13.969,96.174-36.893L211.938,226.872z"/>
	<path clip-path="url(#SVGID_2_)" fill="#29CACD" d="M97.776,81.244h57.707c34.047,0,55.975,17.504,55.975,47.318v0.386
		c0,31.737-24.429,48.473-57.898,48.473h-18.466v38.47H97.776V81.244z M152.79,148.184c13.272,0,21.351-6.926,21.351-17.504v-0.386
		c0-11.542-8.079-17.696-21.543-17.696h-17.504v35.586H152.79z"/>
	<path clip-path="url(#SVGID_2_)" fill="#29CACD" d="M244.945,122.263c2.103,8.235,3.233,16.856,3.233,25.737
		c0,24.309-8.379,46.696-22.396,64.432l28.406,28.406c21.193-25.094,33.99-57.497,33.99-92.838c0-13.418-1.849-26.41-5.297-38.741
		L244.945,122.263z"/>
	<path clip-path="url(#SVGID_2_)" fill="#29CACD" d="M276.393,90.965c-5.645-13.039-13.156-25.088-22.205-35.802l-28.406,28.405
		c5.865,7.42,10.726,15.666,14.416,24.515L276.393,90.965z"/>
</g>
</svg>
