%
M48
M72
T01C0.0130
T02C0.0394
T03C0.0400
T04C0.0472
%
T01
X5590Y5295
X5830Y5615
X5110Y6735
X7110Y6095
X5110Y11295
X4790Y11775
X6070Y12255
T02
X662Y1040
X662Y2040
X662Y3040
X662Y4040
X662Y5040
X662Y6040
X662Y7040
X662Y8040
X662Y9040
X662Y10040
X662Y11040
X662Y12040
X662Y13040
X4024Y13040
X4024Y12040
X4024Y11040
X4024Y10040
X4024Y9040
X4024Y8040
X4024Y7040
X4024Y6040
X4024Y5040
X4024Y4040
X4024Y3040
X4024Y2040
X4024Y1040
T03
X6350Y1175
X7350Y1175
X8350Y1175
X9350Y1175
X9350Y3175
X8350Y3175
X7350Y3175
X6350Y3175
X9350Y6675
X10350Y6675
X11350Y6675
X12350Y6675
X13350Y6675
X14350Y6675
X15350Y6675
X16350Y6675
X13350Y8675
X12350Y8675
X11350Y8675
X10350Y8675
X9350Y8675
X8350Y8675
X8350Y10675
X9350Y10675
X10350Y10675
X11350Y10675
X12350Y10675
X13350Y10675
X7350Y15175
X6350Y15175
X5350Y15175
X4350Y15175
X2350Y15175
X1350Y15175
X14350Y3175
X15350Y3175
X16350Y3175
X16350Y1175
X15350Y1175
X14350Y1175
X13350Y1175
X12350Y1175
T04
X2844Y1041
X2844Y2041
X2844Y3041
X2844Y4041
X1844Y4041
X1844Y3041
X1844Y2041
X1844Y1041
X1844Y5041
X2844Y5041
X2844Y6041
X2844Y7041
X2844Y8041
X2844Y9041
X2844Y10041
X1844Y10041
X1844Y9041
X1844Y8041
X1844Y7041
X1844Y6041
X1844Y11041
X2844Y11041
X2844Y12041
X2844Y13041
X1844Y13041
X1844Y12041
M30
