G75*
G70*
%OFA0B0*%
%FSLAX24Y24*%
%IPPOS*%
%LPD*%
%AMOC8*
5,1,8,0,0,1.08239X$1,22.5*
%
%ADD10C,0.0100*%
%ADD11C,0.0000*%
%ADD12C,0.0050*%
%ADD13C,0.0030*%
%ADD14C,0.0020*%
%ADD15C,0.0040*%
%ADD16C,0.0060*%
D10*
X000854Y000179D02*
X016648Y000179D01*
X016699Y000181D01*
X016749Y000186D01*
X016799Y000195D01*
X016848Y000208D01*
X016896Y000224D01*
X016943Y000243D01*
X016988Y000266D01*
X017032Y000292D01*
X017073Y000321D01*
X017113Y000352D01*
X017150Y000387D01*
X017185Y000424D01*
X017216Y000464D01*
X017245Y000505D01*
X017271Y000549D01*
X017294Y000594D01*
X017313Y000641D01*
X017329Y000689D01*
X017342Y000738D01*
X017351Y000788D01*
X017356Y000838D01*
X017358Y000889D01*
X017358Y011798D01*
X017356Y011842D01*
X017351Y011885D01*
X017342Y011928D01*
X017329Y011970D01*
X017313Y012011D01*
X017294Y012051D01*
X017272Y012088D01*
X017246Y012124D01*
X017218Y012158D01*
X017187Y012189D01*
X017153Y012217D01*
X017117Y012243D01*
X017080Y012265D01*
X017040Y012284D01*
X016999Y012300D01*
X016957Y012313D01*
X016914Y012322D01*
X016871Y012327D01*
X016827Y012329D01*
X008542Y012329D01*
X008542Y012328D02*
X008504Y012330D01*
X008467Y012335D01*
X008430Y012344D01*
X008394Y012356D01*
X008360Y012371D01*
X008327Y012389D01*
X008296Y012411D01*
X008266Y012435D01*
X008240Y012461D01*
X008216Y012491D01*
X008194Y012522D01*
X008176Y012555D01*
X008161Y012589D01*
X008149Y012625D01*
X008140Y012662D01*
X008135Y012699D01*
X008133Y012737D01*
X008133Y015584D01*
X008131Y015627D01*
X008126Y015669D01*
X008116Y015710D01*
X008104Y015751D01*
X008087Y015790D01*
X008068Y015828D01*
X008045Y015864D01*
X008019Y015898D01*
X007990Y015929D01*
X007959Y015958D01*
X007925Y015984D01*
X007889Y016007D01*
X007851Y016026D01*
X007812Y016043D01*
X007771Y016055D01*
X007730Y016065D01*
X007688Y016070D01*
X007645Y016072D01*
X007645Y016073D02*
X000548Y016073D01*
X000509Y016071D01*
X000470Y016065D01*
X000432Y016056D01*
X000396Y016043D01*
X000360Y016026D01*
X000327Y016006D01*
X000296Y015983D01*
X000267Y015956D01*
X000240Y015927D01*
X000217Y015896D01*
X000197Y015863D01*
X000180Y015827D01*
X000167Y015791D01*
X000158Y015753D01*
X000152Y015714D01*
X000150Y015675D01*
X000150Y000883D01*
X000152Y000833D01*
X000157Y000783D01*
X000166Y000733D01*
X000179Y000685D01*
X000194Y000637D01*
X000214Y000591D01*
X000236Y000546D01*
X000262Y000502D01*
X000290Y000461D01*
X000322Y000422D01*
X000356Y000385D01*
X000393Y000351D01*
X000432Y000319D01*
X000473Y000291D01*
X000517Y000265D01*
X000562Y000243D01*
X000608Y000223D01*
X000656Y000208D01*
X000704Y000195D01*
X000754Y000186D01*
X000804Y000181D01*
X000854Y000179D01*
X004809Y004583D02*
X004809Y004933D01*
X004925Y005050D01*
X005159Y005050D01*
X005276Y004933D01*
X005276Y004583D01*
X005509Y004583D02*
X004809Y004583D01*
X005042Y005319D02*
X005042Y005436D01*
X005509Y005436D01*
X005509Y005319D02*
X005509Y005553D01*
X004809Y005436D02*
X004692Y005436D01*
X004925Y006547D02*
X005392Y006547D01*
X005509Y006664D01*
X005509Y006897D01*
X005392Y007014D01*
X005276Y007284D02*
X005042Y007517D01*
X005042Y007634D01*
X005042Y007898D02*
X005392Y007898D01*
X005509Y008014D01*
X005509Y008365D01*
X005042Y008365D01*
X005159Y008634D02*
X005042Y008751D01*
X005042Y009101D01*
X005042Y009371D02*
X005042Y009604D01*
X004925Y009488D02*
X005392Y009488D01*
X005509Y009604D01*
X005392Y009101D02*
X005276Y008985D01*
X005276Y008751D01*
X005159Y008634D01*
X005509Y008634D02*
X005509Y008985D01*
X005392Y009101D01*
X005042Y010599D02*
X005509Y010832D01*
X005042Y011066D01*
X005159Y011335D02*
X004809Y011335D01*
X004809Y011802D01*
X005042Y011685D02*
X005042Y011569D01*
X005159Y011335D01*
X005392Y011335D02*
X005509Y011452D01*
X005509Y011685D01*
X005392Y011802D01*
X005159Y011802D01*
X005042Y011685D01*
X005042Y007284D02*
X005509Y007284D01*
X004925Y007014D02*
X004809Y006897D01*
X004809Y006664D01*
X004925Y006547D01*
X007134Y005557D02*
X007134Y004246D01*
X007134Y004242D01*
X009003Y004242D01*
X009397Y003848D01*
X014230Y003848D01*
X014623Y004242D01*
X016493Y004242D01*
X016493Y005557D01*
X007134Y005557D01*
D11*
X007134Y005561D02*
X007134Y004246D01*
D12*
X006680Y004564D02*
X006079Y004564D01*
X006079Y004864D01*
X006179Y004964D01*
X006379Y004964D01*
X006480Y004864D01*
X006480Y004564D01*
X006480Y005162D02*
X006480Y005362D01*
X006480Y005262D02*
X006079Y005262D01*
X006079Y005162D01*
X005879Y005262D02*
X005779Y005262D01*
X006179Y005561D02*
X006179Y005961D01*
X006179Y006160D02*
X006079Y006260D01*
X006079Y006560D01*
X006079Y006758D02*
X006379Y006758D01*
X006480Y006858D01*
X006480Y007158D01*
X006079Y007158D01*
X006079Y007357D02*
X006079Y007657D01*
X006179Y007757D01*
X006379Y007757D01*
X006480Y007657D01*
X006480Y007357D01*
X006680Y007357D02*
X006079Y007357D01*
X006079Y007955D02*
X006079Y008255D01*
X006179Y008356D01*
X006379Y008356D01*
X006480Y008255D01*
X006480Y007955D01*
X006680Y007955D02*
X006079Y007955D01*
X005879Y008554D02*
X005879Y008654D01*
X006480Y008654D01*
X006480Y008554D02*
X006480Y008754D01*
X006379Y008953D02*
X006480Y009053D01*
X006480Y009353D01*
X006580Y009353D02*
X006680Y009253D01*
X006680Y009153D01*
X006580Y009353D02*
X006079Y009353D01*
X006379Y009551D02*
X006379Y009651D01*
X006480Y009651D01*
X006480Y009551D01*
X006379Y009551D01*
X006379Y009850D02*
X006179Y009850D01*
X006079Y009951D01*
X006079Y010251D01*
X006179Y010449D02*
X006379Y010449D01*
X006480Y010549D01*
X006480Y010749D01*
X006379Y010849D01*
X006179Y010849D01*
X006079Y010749D01*
X006079Y010549D01*
X006179Y010449D01*
X006480Y010251D02*
X006480Y009951D01*
X006379Y009850D01*
X006379Y008953D02*
X006079Y008953D01*
X006925Y007800D02*
X006925Y012300D01*
X016975Y012300D01*
X017350Y007800D02*
X006925Y007800D01*
X006925Y005550D01*
X017350Y005550D01*
X017350Y004175D02*
X011600Y004175D01*
X005225Y004175D01*
X005225Y000175D01*
X003264Y000551D02*
X003266Y000565D01*
X003271Y000578D01*
X003280Y000590D01*
X003291Y000599D01*
X003305Y000604D01*
X003319Y000606D01*
X003333Y000604D01*
X003346Y000599D01*
X003358Y000590D01*
X003367Y000579D01*
X003372Y000565D01*
X003374Y000551D01*
X003372Y000537D01*
X003367Y000524D01*
X003358Y000512D01*
X003347Y000503D01*
X003333Y000498D01*
X003319Y000496D01*
X003305Y000498D01*
X003292Y000503D01*
X003280Y000512D01*
X003271Y000523D01*
X003266Y000537D01*
X003264Y000551D01*
X006179Y006160D02*
X006279Y006260D01*
X006279Y006460D01*
X006379Y006560D01*
X006480Y006460D01*
X006480Y006160D01*
X011600Y004175D02*
X011600Y002550D01*
X013600Y002550D01*
X013600Y001925D01*
X017350Y001925D01*
X011600Y002550D02*
X011600Y000175D01*
X006480Y011047D02*
X006079Y011047D01*
X006079Y011148D01*
X006179Y011248D01*
X006079Y011348D01*
X006179Y011448D01*
X006480Y011448D01*
X006480Y011248D02*
X006179Y011248D01*
D13*
X007990Y011488D02*
X008038Y011440D01*
X008135Y011440D01*
X008183Y011488D01*
X008183Y011585D01*
X008087Y011585D01*
X008183Y011682D02*
X008135Y011730D01*
X008038Y011730D01*
X007990Y011682D01*
X007990Y011488D01*
X008285Y011440D02*
X008285Y011730D01*
X008478Y011440D01*
X008478Y011730D01*
X008579Y011730D02*
X008724Y011730D01*
X008773Y011682D01*
X008773Y011488D01*
X008724Y011440D01*
X008579Y011440D01*
X008579Y011730D01*
X009115Y011730D02*
X009115Y011585D01*
X009212Y011633D01*
X009260Y011633D01*
X009308Y011585D01*
X009308Y011488D01*
X009260Y011440D01*
X009163Y011440D01*
X009115Y011488D01*
X009410Y011537D02*
X009506Y011440D01*
X009603Y011537D01*
X009603Y011730D01*
X009410Y011730D02*
X009410Y011537D01*
X009308Y011730D02*
X009115Y011730D01*
X009985Y011530D02*
X010081Y011362D01*
X010147Y011345D01*
X010231Y011393D01*
X010249Y011459D01*
X010361Y011468D02*
X010528Y011565D01*
X010592Y011657D02*
X010662Y011921D01*
X010759Y011754D01*
X010742Y011688D01*
X010658Y011639D01*
X010592Y011657D01*
X010495Y011825D01*
X010513Y011891D01*
X010596Y011939D01*
X010662Y011921D01*
X010383Y011816D02*
X010216Y011719D01*
X010361Y011468D01*
X010288Y011593D02*
X010372Y011642D01*
X010152Y011627D02*
X010086Y011644D01*
X010002Y011596D01*
X009985Y011530D01*
X010835Y011572D02*
X010968Y011536D01*
X011003Y011669D01*
X011148Y011417D01*
X011211Y011510D02*
X011115Y011677D01*
X011132Y011743D01*
X011216Y011792D01*
X011282Y011774D01*
X011379Y011606D01*
X011361Y011540D01*
X011278Y011492D01*
X011211Y011510D01*
X011467Y011657D02*
X011533Y011639D01*
X011617Y011688D01*
X011634Y011754D01*
X011610Y011796D01*
X011544Y011813D01*
X011460Y011765D01*
X011394Y011783D01*
X011370Y011825D01*
X011388Y011891D01*
X011471Y011939D01*
X011537Y011921D01*
X011601Y012014D02*
X011685Y012062D01*
X011643Y012038D02*
X011788Y011787D01*
X011746Y011762D02*
X011830Y011811D01*
X012003Y011669D02*
X012148Y011417D01*
X012236Y011468D02*
X012319Y011516D01*
X012278Y011492D02*
X012132Y011743D01*
X012091Y011719D02*
X012174Y011768D01*
X012285Y011775D02*
X012309Y011734D01*
X012375Y011716D01*
X012459Y011764D01*
X012525Y011747D01*
X012549Y011705D01*
X012531Y011639D01*
X012448Y011590D01*
X012382Y011608D01*
X012285Y011775D02*
X012303Y011842D01*
X012386Y011890D01*
X012452Y011872D01*
X012540Y011923D02*
X012637Y011755D01*
X012703Y011738D01*
X012787Y011786D01*
X012804Y011852D01*
X012708Y012020D01*
X012642Y012037D01*
X012558Y011989D01*
X012540Y011923D01*
X013002Y011596D02*
X012985Y011530D01*
X013009Y011488D01*
X013075Y011470D01*
X013159Y011519D01*
X013225Y011501D01*
X013249Y011459D01*
X013231Y011393D01*
X013147Y011345D01*
X013081Y011362D01*
X013002Y011596D02*
X013086Y011644D01*
X013152Y011627D01*
X013240Y011677D02*
X013336Y011510D01*
X013403Y011492D01*
X013486Y011540D01*
X013504Y011606D01*
X013616Y011615D02*
X013783Y011712D01*
X013871Y011762D02*
X013726Y012014D01*
X013840Y011912D02*
X014039Y011859D01*
X013823Y011846D02*
X013893Y012111D01*
X013471Y011867D02*
X013616Y011615D01*
X013407Y011774D02*
X013341Y011792D01*
X013257Y011743D01*
X013240Y011677D01*
X012003Y011669D02*
X011968Y011536D01*
X011835Y011572D01*
X011980Y011320D01*
X010980Y011320D02*
X010835Y011572D01*
X011685Y010062D02*
X011601Y010014D01*
X011643Y010038D02*
X011788Y009787D01*
X011746Y009762D02*
X011830Y009811D01*
X011634Y009754D02*
X011617Y009688D01*
X011533Y009639D01*
X011467Y009657D01*
X011379Y009606D02*
X011361Y009540D01*
X011278Y009492D01*
X011211Y009510D01*
X011115Y009677D01*
X011132Y009743D01*
X011216Y009792D01*
X011282Y009774D01*
X011379Y009606D01*
X011394Y009783D02*
X011370Y009825D01*
X011388Y009891D01*
X011471Y009939D01*
X011537Y009921D01*
X011544Y009813D02*
X011610Y009796D01*
X011634Y009754D01*
X011544Y009813D02*
X011460Y009765D01*
X011394Y009783D01*
X011003Y009669D02*
X011148Y009417D01*
X010980Y009320D02*
X010835Y009572D01*
X010968Y009536D01*
X011003Y009669D01*
X010783Y009712D02*
X010616Y009615D01*
X010700Y009664D02*
X010555Y009915D01*
X010519Y009783D01*
X010383Y009816D02*
X010216Y009719D01*
X010361Y009468D01*
X010528Y009565D01*
X010372Y009642D02*
X010288Y009593D01*
X010249Y009459D02*
X010231Y009393D01*
X010147Y009345D01*
X010081Y009362D01*
X009985Y009530D01*
X010002Y009596D01*
X010086Y009644D01*
X010152Y009627D01*
X009603Y009662D02*
X009506Y009565D01*
X009410Y009662D01*
X009410Y009855D01*
X009308Y009855D02*
X009115Y009855D01*
X009115Y009710D01*
X009212Y009758D01*
X009260Y009758D01*
X009308Y009710D01*
X009308Y009613D01*
X009260Y009565D01*
X009163Y009565D01*
X009115Y009613D01*
X008773Y009613D02*
X008773Y009807D01*
X008724Y009855D01*
X008579Y009855D01*
X008579Y009565D01*
X008724Y009565D01*
X008773Y009613D01*
X008478Y009565D02*
X008478Y009855D01*
X008285Y009855D02*
X008478Y009565D01*
X008285Y009565D02*
X008285Y009855D01*
X008183Y009807D02*
X008135Y009855D01*
X008038Y009855D01*
X007990Y009807D01*
X007990Y009613D01*
X008038Y009565D01*
X008135Y009565D01*
X008183Y009613D01*
X008183Y009710D01*
X008087Y009710D01*
X009603Y009662D02*
X009603Y009855D01*
X009510Y007730D02*
X009365Y007585D01*
X009558Y007585D01*
X009510Y007440D02*
X009510Y007730D01*
X010115Y007633D02*
X010212Y007730D01*
X010212Y007440D01*
X010308Y007440D02*
X010115Y007440D01*
X010410Y007440D02*
X010410Y007488D01*
X010603Y007682D01*
X010603Y007730D01*
X010410Y007730D01*
X011115Y007633D02*
X011212Y007730D01*
X011212Y007440D01*
X011308Y007440D02*
X011115Y007440D01*
X011410Y007488D02*
X011458Y007440D01*
X011555Y007440D01*
X011603Y007488D01*
X011603Y007537D01*
X011555Y007585D01*
X011458Y007585D01*
X011410Y007633D01*
X011410Y007682D01*
X011458Y007730D01*
X011555Y007730D01*
X011603Y007682D01*
X011603Y007633D01*
X011555Y007585D01*
X011458Y007585D02*
X011410Y007537D01*
X011410Y007488D01*
X012115Y007440D02*
X012308Y007633D01*
X012308Y007682D01*
X012260Y007730D01*
X012163Y007730D01*
X012115Y007682D01*
X012410Y007633D02*
X012506Y007730D01*
X012506Y007440D01*
X012410Y007440D02*
X012603Y007440D01*
X012308Y007440D02*
X012115Y007440D01*
X013115Y007440D02*
X013308Y007633D01*
X013308Y007682D01*
X013260Y007730D01*
X013163Y007730D01*
X013115Y007682D01*
X013115Y007440D02*
X013308Y007440D01*
X013410Y007440D02*
X013603Y007633D01*
X013603Y007682D01*
X013555Y007730D01*
X013458Y007730D01*
X013410Y007682D01*
X013410Y007440D02*
X013603Y007440D01*
X014115Y007440D02*
X014308Y007633D01*
X014308Y007682D01*
X014260Y007730D01*
X014163Y007730D01*
X014115Y007682D01*
X014115Y007440D02*
X014308Y007440D01*
X014410Y007488D02*
X014458Y007440D01*
X014555Y007440D01*
X014603Y007488D01*
X014603Y007537D01*
X014555Y007585D01*
X014506Y007585D01*
X014555Y007585D02*
X014603Y007633D01*
X014603Y007682D01*
X014555Y007730D01*
X014458Y007730D01*
X014410Y007682D01*
X015115Y007682D02*
X015163Y007730D01*
X015260Y007730D01*
X015308Y007682D01*
X015308Y007633D01*
X015115Y007440D01*
X015308Y007440D01*
X015410Y007585D02*
X015603Y007585D01*
X015555Y007440D02*
X015555Y007730D01*
X015410Y007585D01*
X016115Y007682D02*
X016163Y007730D01*
X016260Y007730D01*
X016308Y007682D01*
X016308Y007633D01*
X016115Y007440D01*
X016308Y007440D01*
X016410Y007488D02*
X016458Y007440D01*
X016555Y007440D01*
X016603Y007488D01*
X016603Y007585D01*
X016555Y007633D01*
X016506Y007633D01*
X016410Y007585D01*
X016410Y007730D01*
X016603Y007730D01*
X016603Y005980D02*
X016410Y005980D01*
X016410Y005835D01*
X016506Y005883D01*
X016555Y005883D01*
X016603Y005835D01*
X016603Y005738D01*
X016555Y005690D01*
X016458Y005690D01*
X016410Y005738D01*
X016308Y005690D02*
X016115Y005690D01*
X016308Y005883D01*
X016308Y005932D01*
X016260Y005980D01*
X016163Y005980D01*
X016115Y005932D01*
X015603Y005835D02*
X015410Y005835D01*
X015555Y005980D01*
X015555Y005690D01*
X015308Y005690D02*
X015115Y005690D01*
X015308Y005883D01*
X015308Y005932D01*
X015260Y005980D01*
X015163Y005980D01*
X015115Y005932D01*
X014603Y005932D02*
X014603Y005883D01*
X014555Y005835D01*
X014603Y005787D01*
X014603Y005738D01*
X014555Y005690D01*
X014458Y005690D01*
X014410Y005738D01*
X014308Y005690D02*
X014115Y005690D01*
X014308Y005883D01*
X014308Y005932D01*
X014260Y005980D01*
X014163Y005980D01*
X014115Y005932D01*
X014410Y005932D02*
X014458Y005980D01*
X014555Y005980D01*
X014603Y005932D01*
X014555Y005835D02*
X014506Y005835D01*
X013603Y005883D02*
X013603Y005932D01*
X013555Y005980D01*
X013458Y005980D01*
X013410Y005932D01*
X013308Y005932D02*
X013260Y005980D01*
X013163Y005980D01*
X013115Y005932D01*
X013308Y005883D02*
X013115Y005690D01*
X013308Y005690D01*
X013410Y005690D02*
X013603Y005883D01*
X013603Y005690D02*
X013410Y005690D01*
X013308Y005883D02*
X013308Y005932D01*
X012603Y005690D02*
X012410Y005690D01*
X012506Y005690D02*
X012506Y005980D01*
X012410Y005883D01*
X012308Y005883D02*
X012308Y005932D01*
X012260Y005980D01*
X012163Y005980D01*
X012115Y005932D01*
X012308Y005883D02*
X012115Y005690D01*
X012308Y005690D01*
X011603Y005738D02*
X011555Y005690D01*
X011458Y005690D01*
X011410Y005738D01*
X011410Y005787D01*
X011458Y005835D01*
X011555Y005835D01*
X011603Y005787D01*
X011603Y005738D01*
X011555Y005835D02*
X011603Y005883D01*
X011603Y005932D01*
X011555Y005980D01*
X011458Y005980D01*
X011410Y005932D01*
X011410Y005883D01*
X011458Y005835D01*
X011308Y005690D02*
X011115Y005690D01*
X011212Y005690D02*
X011212Y005980D01*
X011115Y005883D01*
X010603Y005932D02*
X010410Y005738D01*
X010410Y005690D01*
X010308Y005690D02*
X010115Y005690D01*
X010212Y005690D02*
X010212Y005980D01*
X010115Y005883D01*
X010410Y005980D02*
X010603Y005980D01*
X010603Y005932D01*
X009558Y005835D02*
X009365Y005835D01*
X009510Y005980D01*
X009510Y005690D01*
X008676Y004105D02*
X008773Y004008D01*
X008773Y003815D01*
X008773Y003960D02*
X008579Y003960D01*
X008579Y004008D02*
X008676Y004105D01*
X008579Y004008D02*
X008579Y003815D01*
X008478Y003863D02*
X008478Y004057D01*
X008430Y004105D01*
X008285Y004105D01*
X008285Y003815D01*
X008430Y003815D01*
X008478Y003863D01*
X008183Y003863D02*
X008135Y003815D01*
X008038Y003815D01*
X007990Y003863D01*
X008038Y003960D02*
X008135Y003960D01*
X008183Y003912D01*
X008183Y003863D01*
X008038Y003960D02*
X007990Y004008D01*
X007990Y004057D01*
X008038Y004105D01*
X008135Y004105D01*
X008183Y004057D01*
X007603Y004105D02*
X007603Y003912D01*
X007506Y003815D01*
X007410Y003912D01*
X007410Y004105D01*
X007308Y004105D02*
X007115Y004105D01*
X007115Y003960D01*
X007212Y004008D01*
X007260Y004008D01*
X007308Y003960D01*
X007308Y003863D01*
X007260Y003815D01*
X007163Y003815D01*
X007115Y003863D01*
X006648Y003863D02*
X006648Y004057D01*
X006599Y004105D01*
X006454Y004105D01*
X006454Y003815D01*
X006599Y003815D01*
X006648Y003863D01*
X006353Y003815D02*
X006353Y004105D01*
X006160Y004105D02*
X006353Y003815D01*
X006160Y003815D02*
X006160Y004105D01*
X006058Y004057D02*
X006010Y004105D01*
X005913Y004105D01*
X005865Y004057D01*
X005865Y003863D01*
X005913Y003815D01*
X006010Y003815D01*
X006058Y003863D01*
X006058Y003960D01*
X005962Y003960D01*
X006010Y002355D02*
X005913Y002355D01*
X005865Y002307D01*
X005865Y002113D01*
X005913Y002065D01*
X006010Y002065D01*
X006058Y002113D01*
X006058Y002210D01*
X005962Y002210D01*
X006058Y002307D02*
X006010Y002355D01*
X006160Y002355D02*
X006353Y002065D01*
X006353Y002355D01*
X006454Y002355D02*
X006599Y002355D01*
X006648Y002307D01*
X006648Y002113D01*
X006599Y002065D01*
X006454Y002065D01*
X006454Y002355D01*
X006160Y002355D02*
X006160Y002065D01*
X007115Y002113D02*
X007163Y002065D01*
X007260Y002065D01*
X007308Y002113D01*
X007308Y002210D01*
X007260Y002258D01*
X007212Y002258D01*
X007115Y002210D01*
X007115Y002355D01*
X007308Y002355D01*
X007410Y002355D02*
X007410Y002162D01*
X007506Y002065D01*
X007603Y002162D01*
X007603Y002355D01*
X007990Y002307D02*
X007990Y002258D01*
X008038Y002210D01*
X008135Y002210D01*
X008183Y002162D01*
X008183Y002113D01*
X008135Y002065D01*
X008038Y002065D01*
X007990Y002113D01*
X007990Y002307D02*
X008038Y002355D01*
X008135Y002355D01*
X008183Y002307D01*
X008285Y002355D02*
X008430Y002355D01*
X008478Y002307D01*
X008478Y002113D01*
X008430Y002065D01*
X008285Y002065D01*
X008285Y002355D01*
X008579Y002258D02*
X008579Y002065D01*
X008579Y002210D02*
X008773Y002210D01*
X008773Y002258D02*
X008773Y002065D01*
X008773Y002258D02*
X008676Y002355D01*
X008579Y002258D01*
X008990Y002258D02*
X009038Y002210D01*
X009135Y002210D01*
X009183Y002162D01*
X009183Y002113D01*
X009135Y002065D01*
X009038Y002065D01*
X008990Y002113D01*
X008990Y002258D02*
X008990Y002307D01*
X009038Y002355D01*
X009135Y002355D01*
X009183Y002307D01*
X009285Y002307D02*
X009285Y002113D01*
X009333Y002065D01*
X009430Y002065D01*
X009478Y002113D01*
X009579Y002065D02*
X009773Y002065D01*
X009579Y002065D02*
X009579Y002355D01*
X009478Y002307D02*
X009430Y002355D01*
X009333Y002355D01*
X009285Y002307D01*
X014115Y002335D02*
X014212Y002383D01*
X014260Y002383D01*
X014308Y002335D01*
X014308Y002238D01*
X014260Y002190D01*
X014163Y002190D01*
X014115Y002238D01*
X014115Y002335D02*
X014115Y002480D01*
X014308Y002480D01*
X014410Y002480D02*
X014410Y002287D01*
X014506Y002190D01*
X014603Y002287D01*
X014603Y002480D01*
X015115Y002480D02*
X015115Y002335D01*
X015212Y002383D01*
X015260Y002383D01*
X015308Y002335D01*
X015308Y002238D01*
X015260Y002190D01*
X015163Y002190D01*
X015115Y002238D01*
X015115Y002480D02*
X015308Y002480D01*
X015410Y002480D02*
X015410Y002287D01*
X015506Y002190D01*
X015603Y002287D01*
X015603Y002480D01*
X016115Y002480D02*
X016115Y002335D01*
X016212Y002383D01*
X016260Y002383D01*
X016308Y002335D01*
X016308Y002238D01*
X016260Y002190D01*
X016163Y002190D01*
X016115Y002238D01*
X016410Y002287D02*
X016506Y002190D01*
X016603Y002287D01*
X016603Y002480D01*
X016410Y002480D02*
X016410Y002287D01*
X016308Y002480D02*
X016115Y002480D01*
X016163Y003815D02*
X016115Y003863D01*
X016163Y003815D02*
X016260Y003815D01*
X016308Y003863D01*
X016308Y003960D01*
X016260Y004008D01*
X016212Y004008D01*
X016115Y003960D01*
X016115Y004105D01*
X016308Y004105D01*
X016410Y004105D02*
X016410Y003912D01*
X016506Y003815D01*
X016603Y003912D01*
X016603Y004105D01*
X015603Y004105D02*
X015603Y003912D01*
X015506Y003815D01*
X015410Y003912D01*
X015410Y004105D01*
X015308Y004105D02*
X015115Y004105D01*
X015115Y003960D01*
X015212Y004008D01*
X015260Y004008D01*
X015308Y003960D01*
X015308Y003863D01*
X015260Y003815D01*
X015163Y003815D01*
X015115Y003863D01*
X011980Y009320D02*
X011835Y009572D01*
X011968Y009536D01*
X012003Y009669D01*
X012148Y009417D01*
X012236Y009468D02*
X012319Y009516D01*
X012278Y009492D02*
X012132Y009743D01*
X012091Y009719D02*
X012174Y009768D01*
X012285Y009775D02*
X012309Y009734D01*
X012375Y009716D01*
X012459Y009764D01*
X012525Y009747D01*
X012549Y009705D01*
X012531Y009639D01*
X012448Y009590D01*
X012382Y009608D01*
X012285Y009775D02*
X012303Y009842D01*
X012386Y009890D01*
X012452Y009872D01*
X012540Y009923D02*
X012637Y009755D01*
X012703Y009738D01*
X012787Y009786D01*
X012804Y009852D01*
X012708Y010020D01*
X012642Y010037D01*
X012558Y009989D01*
X012540Y009923D01*
X012877Y009696D02*
X012860Y009630D01*
X012884Y009588D01*
X012950Y009570D01*
X013034Y009619D01*
X013100Y009601D01*
X013124Y009559D01*
X013106Y009493D01*
X013022Y009445D01*
X012956Y009462D01*
X012877Y009696D02*
X012961Y009744D01*
X013027Y009727D01*
X013115Y009777D02*
X013211Y009610D01*
X013278Y009592D01*
X013361Y009640D01*
X013379Y009706D01*
X013491Y009715D02*
X013658Y009812D01*
X013746Y009862D02*
X013601Y010114D01*
X013715Y010012D02*
X013914Y009959D01*
X013698Y009946D02*
X013768Y010211D01*
X013346Y009967D02*
X013491Y009715D01*
X013282Y009874D02*
X013216Y009892D01*
X013132Y009843D01*
X013115Y009777D01*
X007603Y014190D02*
X007410Y014480D01*
X007308Y014432D02*
X007308Y014335D01*
X007260Y014287D01*
X007115Y014287D01*
X007212Y014287D02*
X007308Y014190D01*
X007410Y014190D02*
X007603Y014480D01*
X007308Y014432D02*
X007260Y014480D01*
X007115Y014480D01*
X007115Y014190D01*
X006603Y014190D02*
X006410Y014480D01*
X006308Y014480D02*
X006115Y014480D01*
X006212Y014480D02*
X006212Y014190D01*
X006410Y014190D02*
X006603Y014480D01*
X005603Y014480D02*
X005603Y014287D01*
X005506Y014190D01*
X005410Y014287D01*
X005410Y014480D01*
X005308Y014480D02*
X005115Y014480D01*
X005115Y014335D01*
X005212Y014383D01*
X005260Y014383D01*
X005308Y014335D01*
X005308Y014238D01*
X005260Y014190D01*
X005163Y014190D01*
X005115Y014238D01*
X004648Y014238D02*
X004648Y014432D01*
X004599Y014480D01*
X004454Y014480D01*
X004454Y014190D01*
X004599Y014190D01*
X004648Y014238D01*
X004353Y014190D02*
X004353Y014480D01*
X004160Y014480D02*
X004353Y014190D01*
X004160Y014190D02*
X004160Y014480D01*
X004058Y014432D02*
X004010Y014480D01*
X003913Y014480D01*
X003865Y014432D01*
X003865Y014238D01*
X003913Y014190D01*
X004010Y014190D01*
X004058Y014238D01*
X004058Y014335D01*
X003962Y014335D01*
X002248Y014287D02*
X002248Y014238D01*
X002199Y014190D01*
X002103Y014190D01*
X002054Y014238D01*
X001953Y014287D02*
X001953Y014480D01*
X002054Y014432D02*
X002103Y014480D01*
X002199Y014480D01*
X002248Y014432D01*
X002248Y014383D01*
X002199Y014335D01*
X002248Y014287D01*
X002199Y014335D02*
X002151Y014335D01*
X001953Y014287D02*
X001856Y014190D01*
X001760Y014287D01*
X001760Y014480D01*
X001658Y014432D02*
X001658Y014383D01*
X001610Y014335D01*
X001658Y014287D01*
X001658Y014238D01*
X001610Y014190D01*
X001513Y014190D01*
X001465Y014238D01*
X001562Y014335D02*
X001610Y014335D01*
X001658Y014432D02*
X001610Y014480D01*
X001513Y014480D01*
X001465Y014432D01*
D14*
X006022Y000530D02*
X005985Y000493D01*
X005985Y000347D01*
X006022Y000310D01*
X006095Y000310D01*
X006132Y000347D01*
X006132Y000420D01*
X006058Y000420D01*
X006132Y000493D02*
X006095Y000530D01*
X006022Y000530D01*
X006206Y000530D02*
X006353Y000310D01*
X006353Y000530D01*
X006427Y000530D02*
X006537Y000530D01*
X006574Y000493D01*
X006574Y000347D01*
X006537Y000310D01*
X006427Y000310D01*
X006427Y000530D01*
X006206Y000530D02*
X006206Y000310D01*
X007110Y000347D02*
X007147Y000310D01*
X007220Y000310D01*
X007257Y000347D01*
X007257Y000420D01*
X007220Y000457D01*
X007183Y000457D01*
X007110Y000420D01*
X007110Y000530D01*
X007257Y000530D01*
X007331Y000530D02*
X007331Y000383D01*
X007404Y000310D01*
X007478Y000383D01*
X007478Y000530D01*
X008110Y000493D02*
X008110Y000457D01*
X008147Y000420D01*
X008220Y000420D01*
X008257Y000383D01*
X008257Y000347D01*
X008220Y000310D01*
X008147Y000310D01*
X008110Y000347D01*
X008110Y000493D02*
X008147Y000530D01*
X008220Y000530D01*
X008257Y000493D01*
X008331Y000530D02*
X008441Y000530D01*
X008478Y000493D01*
X008478Y000347D01*
X008441Y000310D01*
X008331Y000310D01*
X008331Y000530D01*
X008552Y000457D02*
X008625Y000530D01*
X008699Y000457D01*
X008699Y000310D01*
X008699Y000420D02*
X008552Y000420D01*
X008552Y000457D02*
X008552Y000310D01*
X009110Y000347D02*
X009147Y000310D01*
X009220Y000310D01*
X009257Y000347D01*
X009257Y000383D01*
X009220Y000420D01*
X009147Y000420D01*
X009110Y000457D01*
X009110Y000493D01*
X009147Y000530D01*
X009220Y000530D01*
X009257Y000493D01*
X009331Y000493D02*
X009331Y000347D01*
X009368Y000310D01*
X009441Y000310D01*
X009478Y000347D01*
X009552Y000310D02*
X009699Y000310D01*
X009552Y000310D02*
X009552Y000530D01*
X009478Y000493D02*
X009441Y000530D01*
X009368Y000530D01*
X009331Y000493D01*
X011985Y000493D02*
X011985Y000347D01*
X012022Y000310D01*
X012095Y000310D01*
X012132Y000347D01*
X012132Y000420D01*
X012058Y000420D01*
X011985Y000493D02*
X012022Y000530D01*
X012095Y000530D01*
X012132Y000493D01*
X012206Y000530D02*
X012353Y000310D01*
X012353Y000530D01*
X012427Y000530D02*
X012537Y000530D01*
X012574Y000493D01*
X012574Y000347D01*
X012537Y000310D01*
X012427Y000310D01*
X012427Y000530D01*
X012206Y000530D02*
X012206Y000310D01*
X012985Y000347D02*
X013022Y000310D01*
X013095Y000310D01*
X013132Y000347D01*
X013132Y000420D01*
X013058Y000420D01*
X012985Y000493D02*
X012985Y000347D01*
X012985Y000493D02*
X013022Y000530D01*
X013095Y000530D01*
X013132Y000493D01*
X013206Y000530D02*
X013353Y000310D01*
X013353Y000530D01*
X013427Y000530D02*
X013537Y000530D01*
X013574Y000493D01*
X013574Y000347D01*
X013537Y000310D01*
X013427Y000310D01*
X013427Y000530D01*
X013206Y000530D02*
X013206Y000310D01*
X013985Y000347D02*
X014022Y000310D01*
X014095Y000310D01*
X014132Y000347D01*
X014132Y000420D01*
X014058Y000420D01*
X013985Y000493D02*
X013985Y000347D01*
X013985Y000493D02*
X014022Y000530D01*
X014095Y000530D01*
X014132Y000493D01*
X014206Y000530D02*
X014353Y000310D01*
X014353Y000530D01*
X014427Y000530D02*
X014537Y000530D01*
X014574Y000493D01*
X014574Y000347D01*
X014537Y000310D01*
X014427Y000310D01*
X014427Y000530D01*
X014206Y000530D02*
X014206Y000310D01*
X014985Y000347D02*
X015022Y000310D01*
X015095Y000310D01*
X015132Y000347D01*
X015132Y000420D01*
X015058Y000420D01*
X014985Y000493D02*
X014985Y000347D01*
X014985Y000493D02*
X015022Y000530D01*
X015095Y000530D01*
X015132Y000493D01*
X015206Y000530D02*
X015353Y000310D01*
X015353Y000530D01*
X015427Y000530D02*
X015537Y000530D01*
X015574Y000493D01*
X015574Y000347D01*
X015537Y000310D01*
X015427Y000310D01*
X015427Y000530D01*
X015206Y000530D02*
X015206Y000310D01*
X015985Y000347D02*
X016022Y000310D01*
X016095Y000310D01*
X016132Y000347D01*
X016132Y000420D01*
X016058Y000420D01*
X015985Y000493D02*
X015985Y000347D01*
X015985Y000493D02*
X016022Y000530D01*
X016095Y000530D01*
X016132Y000493D01*
X016206Y000530D02*
X016353Y000310D01*
X016353Y000530D01*
X016427Y000530D02*
X016537Y000530D01*
X016574Y000493D01*
X016574Y000347D01*
X016537Y000310D01*
X016427Y000310D01*
X016427Y000530D01*
X016206Y000530D02*
X016206Y000310D01*
D15*
X013512Y003098D02*
X013359Y002945D01*
X013205Y003098D01*
X013205Y003405D01*
X013052Y003405D02*
X012745Y003405D01*
X012745Y003175D01*
X012898Y003252D01*
X012975Y003252D01*
X013052Y003175D01*
X013052Y003022D01*
X012975Y002945D01*
X012822Y002945D01*
X012745Y003022D01*
X012791Y002405D02*
X013021Y002405D01*
X013098Y002329D01*
X013098Y002022D01*
X013021Y001945D01*
X012791Y001945D01*
X012791Y002405D01*
X012637Y002405D02*
X012637Y001945D01*
X012330Y002405D01*
X012330Y001945D01*
X012177Y002022D02*
X012177Y002175D01*
X012023Y002175D01*
X011870Y002022D02*
X011947Y001945D01*
X012100Y001945D01*
X012177Y002022D01*
X012177Y002329D02*
X012100Y002405D01*
X011947Y002405D01*
X011870Y002329D01*
X011870Y002022D01*
X011194Y001329D02*
X011118Y001405D01*
X010964Y001405D01*
X010887Y001329D01*
X010887Y001022D01*
X010964Y000945D01*
X011118Y000945D01*
X011194Y001022D01*
X010734Y000945D02*
X010427Y000945D01*
X010734Y001252D01*
X010734Y001329D01*
X010657Y001405D01*
X010504Y001405D01*
X010427Y001329D01*
X010273Y001405D02*
X010120Y001405D01*
X010197Y001405D02*
X010197Y000945D01*
X010273Y000945D02*
X010120Y000945D01*
X010120Y002945D02*
X010273Y002945D01*
X010197Y002945D02*
X010197Y003405D01*
X010273Y003405D02*
X010120Y003405D01*
X010427Y003329D02*
X010504Y003405D01*
X010657Y003405D01*
X010734Y003329D01*
X010734Y003252D01*
X010427Y002945D01*
X010734Y002945D01*
X010887Y003022D02*
X010964Y002945D01*
X011118Y002945D01*
X011194Y003022D01*
X010887Y003022D02*
X010887Y003329D01*
X010964Y003405D01*
X011118Y003405D01*
X011194Y003329D01*
X013512Y003405D02*
X013512Y003098D01*
X008505Y006522D02*
X008428Y006445D01*
X008274Y006445D01*
X008198Y006522D01*
X008198Y006829D01*
X008274Y006905D01*
X008428Y006905D01*
X008505Y006829D01*
X008505Y006522D01*
X008044Y006445D02*
X007891Y006445D01*
X007968Y006445D02*
X007968Y006905D01*
X008044Y006905D02*
X007891Y006905D01*
X007737Y006829D02*
X007737Y006675D01*
X007661Y006598D01*
X007430Y006598D01*
X007430Y006445D02*
X007430Y006905D01*
X007661Y006905D01*
X007737Y006829D01*
X007277Y006829D02*
X007200Y006905D01*
X007047Y006905D01*
X006970Y006829D01*
X006970Y006522D01*
X007047Y006445D01*
X007200Y006445D01*
X007277Y006522D01*
X007277Y006675D01*
X007123Y006675D01*
X014245Y008647D02*
X014322Y008570D01*
X014475Y008570D01*
X014552Y008647D01*
X014552Y008723D01*
X014475Y008800D01*
X014322Y008800D01*
X014245Y008877D01*
X014245Y008954D01*
X014322Y009030D01*
X014475Y009030D01*
X014552Y008954D01*
X014705Y009030D02*
X014936Y009030D01*
X015012Y008954D01*
X015012Y008800D01*
X014936Y008723D01*
X014705Y008723D01*
X014705Y008570D02*
X014705Y009030D01*
X015166Y009030D02*
X015319Y009030D01*
X015243Y009030D02*
X015243Y008570D01*
X015319Y008570D02*
X015166Y008570D01*
X015933Y008570D02*
X016240Y008570D01*
X016087Y008570D02*
X016087Y009030D01*
X015933Y008877D01*
X016010Y010445D02*
X015933Y010522D01*
X016240Y010829D01*
X016240Y010522D01*
X016163Y010445D01*
X016010Y010445D01*
X015933Y010522D02*
X015933Y010829D01*
X016010Y010905D01*
X016163Y010905D01*
X016240Y010829D01*
X015319Y010905D02*
X015166Y010905D01*
X015243Y010905D02*
X015243Y010445D01*
X015319Y010445D02*
X015166Y010445D01*
X015012Y010675D02*
X014936Y010598D01*
X014705Y010598D01*
X014705Y010445D02*
X014705Y010905D01*
X014936Y010905D01*
X015012Y010829D01*
X015012Y010675D01*
X014552Y010598D02*
X014552Y010522D01*
X014475Y010445D01*
X014322Y010445D01*
X014245Y010522D01*
X014322Y010675D02*
X014475Y010675D01*
X014552Y010598D01*
X014552Y010829D02*
X014475Y010905D01*
X014322Y010905D01*
X014245Y010829D01*
X014245Y010752D01*
X014322Y010675D01*
X006683Y014030D02*
X006376Y014030D01*
X006530Y014030D02*
X006530Y013570D01*
X006223Y013570D02*
X006069Y013723D01*
X006146Y013723D02*
X006223Y013800D01*
X006223Y013954D01*
X006146Y014030D01*
X005916Y014030D01*
X005916Y013570D01*
X005916Y013723D02*
X006146Y013723D01*
X005762Y013800D02*
X005455Y013800D01*
X005455Y013877D02*
X005609Y014030D01*
X005762Y013877D01*
X005762Y013570D01*
X005455Y013570D02*
X005455Y013877D01*
X005302Y014030D02*
X005302Y013647D01*
X005225Y013570D01*
X005072Y013570D01*
X004995Y013647D01*
X004995Y014030D01*
D16*
X005100Y014675D02*
X004850Y014925D01*
X004600Y014675D01*
X004100Y014675D01*
X003850Y014925D01*
X003850Y015425D01*
X004100Y015675D01*
X004600Y015675D01*
X004850Y015425D01*
X005100Y015675D01*
X005600Y015675D01*
X005850Y015425D01*
X005850Y014925D01*
X005600Y014675D01*
X005100Y014675D01*
X004850Y014925D02*
X004850Y015425D01*
X005850Y015425D02*
X006100Y015675D01*
X006600Y015675D01*
X006850Y015425D01*
X007100Y015675D01*
X007600Y015675D01*
X007850Y015425D01*
X007850Y014925D01*
X007600Y014675D01*
X007100Y014675D01*
X006850Y014925D01*
X006600Y014675D01*
X006100Y014675D01*
X005850Y014925D01*
X006850Y014925D02*
X006850Y015425D01*
X003344Y013291D02*
X003344Y012791D01*
X003094Y012541D01*
X003344Y012291D01*
X003344Y011791D01*
X003094Y011541D01*
X003344Y011291D01*
X003344Y010791D01*
X003094Y010541D01*
X003344Y010291D01*
X003344Y009791D01*
X003094Y009541D01*
X003344Y009291D01*
X003344Y008791D01*
X003094Y008541D01*
X003344Y008291D01*
X003344Y007791D01*
X003094Y007541D01*
X003344Y007291D01*
X003344Y006791D01*
X003094Y006541D01*
X003344Y006291D01*
X003344Y005791D01*
X003094Y005541D01*
X003344Y005291D01*
X003344Y004791D01*
X003094Y004541D01*
X003344Y004291D01*
X003344Y003791D01*
X003094Y003541D01*
X003344Y003291D01*
X003344Y002791D01*
X003094Y002541D01*
X003344Y002291D01*
X003344Y001791D01*
X003094Y001541D01*
X003344Y001291D01*
X003344Y000791D01*
X003094Y000541D01*
X001594Y000541D01*
X001344Y000791D01*
X001344Y001291D01*
X001594Y001541D01*
X001344Y001791D01*
X001344Y002291D01*
X001594Y002541D01*
X001344Y002791D01*
X001344Y003291D01*
X001594Y003541D01*
X001344Y003791D01*
X001344Y004291D01*
X001594Y004541D01*
X001344Y004791D01*
X001344Y005291D01*
X001594Y005541D01*
X001344Y005791D01*
X001344Y006291D01*
X001594Y006541D01*
X001344Y006791D01*
X001344Y007291D01*
X001594Y007541D01*
X001344Y007791D01*
X001344Y008291D01*
X001594Y008541D01*
X001344Y008791D01*
X001344Y009291D01*
X001594Y009541D01*
X001344Y009791D01*
X001344Y010291D01*
X001594Y010541D01*
X001344Y010791D01*
X001344Y011291D01*
X001594Y011541D01*
X001344Y011791D01*
X001344Y012291D01*
X001594Y012541D01*
X001344Y012791D01*
X001344Y013291D01*
X001594Y013541D01*
X003094Y013541D01*
X003344Y013291D01*
X002600Y014675D02*
X002100Y014675D01*
X001850Y014925D01*
X001600Y014675D01*
X001100Y014675D01*
X000850Y014925D01*
X000850Y015425D01*
X001100Y015675D01*
X001600Y015675D01*
X001850Y015425D01*
X002100Y015675D01*
X002600Y015675D01*
X002850Y015425D01*
X002850Y014925D01*
X002600Y014675D01*
X001850Y014925D02*
X001850Y015425D01*
X007850Y010925D02*
X007850Y010425D01*
X008100Y010175D01*
X008600Y010175D01*
X008850Y010425D01*
X009100Y010175D01*
X009600Y010175D01*
X009850Y010425D01*
X009850Y010925D01*
X009600Y011175D01*
X009100Y011175D01*
X008850Y010925D01*
X008850Y010425D01*
X008850Y010925D02*
X008600Y011175D01*
X008100Y011175D01*
X007850Y010925D01*
X008100Y009175D02*
X007850Y008925D01*
X007850Y008425D01*
X008100Y008175D01*
X008600Y008175D01*
X008850Y008425D01*
X009100Y008175D01*
X009600Y008175D01*
X009850Y008425D01*
X009850Y008925D01*
X009600Y009175D01*
X009100Y009175D01*
X008850Y008925D01*
X008850Y008425D01*
X008850Y008925D02*
X008600Y009175D01*
X008100Y009175D01*
X009850Y008925D02*
X010100Y009175D01*
X010600Y009175D01*
X010850Y008925D01*
X011100Y009175D01*
X011600Y009175D01*
X011850Y008925D01*
X012100Y009175D01*
X012600Y009175D01*
X012850Y008925D01*
X013100Y009175D01*
X013600Y009175D01*
X013850Y008925D01*
X013850Y008425D01*
X013600Y008175D01*
X013100Y008175D01*
X012850Y008425D01*
X012600Y008175D01*
X012100Y008175D01*
X011850Y008425D01*
X011600Y008175D01*
X011100Y008175D01*
X010850Y008425D01*
X010600Y008175D01*
X010100Y008175D01*
X009850Y008425D01*
X010850Y008425D02*
X010850Y008925D01*
X011850Y008925D02*
X011850Y008425D01*
X012850Y008425D02*
X012850Y008925D01*
X012600Y010175D02*
X012100Y010175D01*
X011850Y010425D01*
X011600Y010175D01*
X011100Y010175D01*
X010850Y010425D01*
X010600Y010175D01*
X010100Y010175D01*
X009850Y010425D01*
X009850Y010925D02*
X010100Y011175D01*
X010600Y011175D01*
X010850Y010925D01*
X011100Y011175D01*
X011600Y011175D01*
X011850Y010925D01*
X012100Y011175D01*
X012600Y011175D01*
X012850Y010925D01*
X013100Y011175D01*
X013600Y011175D01*
X013850Y010925D01*
X013850Y010425D01*
X013600Y010175D01*
X013100Y010175D01*
X012850Y010425D01*
X012600Y010175D01*
X012850Y010425D02*
X012850Y010925D01*
X011850Y010925D02*
X011850Y010425D01*
X010850Y010425D02*
X010850Y010925D01*
X010600Y007175D02*
X010100Y007175D01*
X009850Y006925D01*
X009850Y006425D01*
X010100Y006175D01*
X010600Y006175D01*
X010850Y006425D01*
X010850Y006925D01*
X010600Y007175D01*
X010850Y006925D02*
X011100Y007175D01*
X011600Y007175D01*
X011850Y006925D01*
X012100Y007175D01*
X012600Y007175D01*
X012850Y006925D01*
X013100Y007175D01*
X013600Y007175D01*
X013850Y006925D01*
X013850Y006425D01*
X013600Y006175D01*
X013100Y006175D01*
X012850Y006425D01*
X012600Y006175D01*
X012100Y006175D01*
X011850Y006425D01*
X011600Y006175D01*
X011100Y006175D01*
X010850Y006425D01*
X009850Y006425D02*
X009600Y006175D01*
X009100Y006175D01*
X008850Y006425D01*
X008850Y006925D01*
X009100Y007175D01*
X009600Y007175D01*
X009850Y006925D01*
X011850Y006925D02*
X011850Y006425D01*
X012850Y006425D02*
X012850Y006925D01*
X013850Y006925D02*
X014100Y007175D01*
X014600Y007175D01*
X014850Y006925D01*
X015100Y007175D01*
X015600Y007175D01*
X015850Y006925D01*
X016100Y007175D01*
X016600Y007175D01*
X016850Y006925D01*
X016850Y006425D01*
X016600Y006175D01*
X016100Y006175D01*
X015850Y006425D01*
X015600Y006175D01*
X015100Y006175D01*
X014850Y006425D01*
X014600Y006175D01*
X014100Y006175D01*
X013850Y006425D01*
X014850Y006425D02*
X014850Y006925D01*
X015850Y006925D02*
X015850Y006425D01*
X015600Y003675D02*
X015100Y003675D01*
X014850Y003425D01*
X014850Y002925D01*
X015100Y002675D01*
X015600Y002675D01*
X015850Y002925D01*
X016100Y002675D01*
X016600Y002675D01*
X016850Y002925D01*
X016850Y003425D01*
X016600Y003675D01*
X016100Y003675D01*
X015850Y003425D01*
X015850Y002925D01*
X015850Y003425D02*
X015600Y003675D01*
X014850Y003425D02*
X014600Y003675D01*
X014100Y003675D01*
X013850Y003425D01*
X013850Y002925D01*
X014100Y002675D01*
X014600Y002675D01*
X014850Y002925D01*
X014600Y001675D02*
X014100Y001675D01*
X013850Y001425D01*
X013850Y000925D01*
X013600Y000675D01*
X013100Y000675D01*
X012850Y000925D01*
X012600Y000675D01*
X012100Y000675D01*
X011850Y000925D01*
X011850Y001425D01*
X012100Y001675D01*
X012600Y001675D01*
X012850Y001425D01*
X013100Y001675D01*
X013600Y001675D01*
X013850Y001425D01*
X013850Y000925D02*
X014100Y000675D01*
X014600Y000675D01*
X014850Y000925D01*
X015100Y000675D01*
X015600Y000675D01*
X015850Y000925D01*
X016100Y000675D01*
X016600Y000675D01*
X016850Y000925D01*
X016850Y001425D01*
X016600Y001675D01*
X016100Y001675D01*
X015850Y001425D01*
X015850Y000925D01*
X015850Y001425D02*
X015600Y001675D01*
X015100Y001675D01*
X014850Y001425D01*
X014850Y000925D01*
X014850Y001425D02*
X014600Y001675D01*
X012850Y001425D02*
X012850Y000925D01*
X009850Y000925D02*
X009600Y000675D01*
X009100Y000675D01*
X008850Y000925D01*
X008600Y000675D01*
X008100Y000675D01*
X007850Y000925D01*
X007600Y000675D01*
X007100Y000675D01*
X006850Y000925D01*
X006600Y000675D01*
X006100Y000675D01*
X005850Y000925D01*
X005850Y001425D01*
X006100Y001675D01*
X006600Y001675D01*
X006850Y001425D01*
X007100Y001675D01*
X007600Y001675D01*
X007850Y001425D01*
X007850Y000925D01*
X007850Y001425D02*
X008100Y001675D01*
X008600Y001675D01*
X008850Y001425D01*
X009100Y001675D01*
X009600Y001675D01*
X009850Y001425D01*
X009850Y000925D01*
X008850Y000925D02*
X008850Y001425D01*
X008600Y002675D02*
X008100Y002675D01*
X007850Y002925D01*
X007600Y002675D01*
X007100Y002675D01*
X006850Y002925D01*
X006600Y002675D01*
X006100Y002675D01*
X005850Y002925D01*
X005850Y003425D01*
X006100Y003675D01*
X006600Y003675D01*
X006850Y003425D01*
X007100Y003675D01*
X007600Y003675D01*
X007850Y003425D01*
X007850Y002925D01*
X007850Y003425D02*
X008100Y003675D01*
X008600Y003675D01*
X008850Y003425D01*
X009100Y003675D01*
X009600Y003675D01*
X009850Y003425D01*
X009850Y002925D01*
X009600Y002675D01*
X009100Y002675D01*
X008850Y002925D01*
X008600Y002675D01*
X008850Y002925D02*
X008850Y003425D01*
X006850Y003425D02*
X006850Y002925D01*
X006850Y001425D02*
X006850Y000925D01*
M02*
