G75*
G70*
%OFA0B0*%
%FSLAX24Y24*%
%IPPOS*%
%LPD*%
%AMOC8*
5,1,8,0,0,1.08239X$1,22.5*
%
%ADD10C,0.0100*%
%ADD11C,0.0000*%
%ADD12R,0.0820X0.0820*%
%ADD13C,0.0680*%
%ADD14C,0.0671*%
D10*
X000854Y000179D02*
X016648Y000179D01*
X016699Y000181D01*
X016749Y000186D01*
X016799Y000195D01*
X016848Y000208D01*
X016896Y000224D01*
X016943Y000243D01*
X016988Y000266D01*
X017032Y000292D01*
X017073Y000321D01*
X017113Y000352D01*
X017150Y000387D01*
X017185Y000424D01*
X017216Y000464D01*
X017245Y000505D01*
X017271Y000549D01*
X017294Y000594D01*
X017313Y000641D01*
X017329Y000689D01*
X017342Y000738D01*
X017351Y000788D01*
X017356Y000838D01*
X017358Y000889D01*
X017358Y011798D01*
X017356Y011842D01*
X017351Y011885D01*
X017342Y011928D01*
X017329Y011970D01*
X017313Y012011D01*
X017294Y012051D01*
X017272Y012088D01*
X017246Y012124D01*
X017218Y012158D01*
X017187Y012189D01*
X017153Y012217D01*
X017117Y012243D01*
X017080Y012265D01*
X017040Y012284D01*
X016999Y012300D01*
X016957Y012313D01*
X016914Y012322D01*
X016871Y012327D01*
X016827Y012329D01*
X008542Y012329D01*
X008542Y012328D02*
X008504Y012330D01*
X008467Y012335D01*
X008430Y012344D01*
X008394Y012356D01*
X008360Y012371D01*
X008327Y012389D01*
X008296Y012411D01*
X008266Y012435D01*
X008240Y012461D01*
X008216Y012491D01*
X008194Y012522D01*
X008176Y012555D01*
X008161Y012589D01*
X008149Y012625D01*
X008140Y012662D01*
X008135Y012699D01*
X008133Y012737D01*
X008133Y015584D01*
X008131Y015627D01*
X008126Y015669D01*
X008116Y015710D01*
X008104Y015751D01*
X008087Y015790D01*
X008068Y015828D01*
X008045Y015864D01*
X008019Y015898D01*
X007990Y015929D01*
X007959Y015958D01*
X007925Y015984D01*
X007889Y016007D01*
X007851Y016026D01*
X007812Y016043D01*
X007771Y016055D01*
X007730Y016065D01*
X007688Y016070D01*
X007645Y016072D01*
X007645Y016073D02*
X000548Y016073D01*
X000509Y016071D01*
X000470Y016065D01*
X000432Y016056D01*
X000396Y016043D01*
X000360Y016026D01*
X000327Y016006D01*
X000296Y015983D01*
X000267Y015956D01*
X000240Y015927D01*
X000217Y015896D01*
X000197Y015863D01*
X000180Y015827D01*
X000167Y015791D01*
X000158Y015753D01*
X000152Y015714D01*
X000150Y015675D01*
X000150Y000883D01*
X000152Y000833D01*
X000157Y000783D01*
X000166Y000733D01*
X000179Y000685D01*
X000194Y000637D01*
X000214Y000591D01*
X000236Y000546D01*
X000262Y000502D01*
X000290Y000461D01*
X000322Y000422D01*
X000356Y000385D01*
X000393Y000351D01*
X000432Y000319D01*
X000473Y000291D01*
X000517Y000265D01*
X000562Y000243D01*
X000608Y000223D01*
X000656Y000208D01*
X000704Y000195D01*
X000754Y000186D01*
X000804Y000181D01*
X000854Y000179D01*
X007134Y004242D02*
X009003Y004242D01*
X009397Y003848D01*
X014230Y003848D01*
X014623Y004242D01*
X016493Y004242D01*
X016493Y005557D01*
X007134Y005557D01*
X007134Y004246D01*
X007134Y004242D01*
D11*
X007134Y004246D02*
X007134Y005561D01*
D12*
X002844Y006041D03*
X002844Y005041D03*
X001844Y005041D03*
X001844Y006041D03*
X001844Y007041D03*
X002844Y007041D03*
X002844Y008041D03*
X002844Y009041D03*
X002844Y010041D03*
X001844Y010041D03*
X001844Y009041D03*
X001844Y008041D03*
X001844Y011041D03*
X002844Y011041D03*
X002844Y012041D03*
X002844Y013041D03*
X001844Y013041D03*
X001844Y012041D03*
X001844Y004041D03*
X002844Y004041D03*
X002844Y003041D03*
X002844Y002041D03*
X002844Y001041D03*
X001844Y001041D03*
X001844Y002041D03*
X001844Y003041D03*
D13*
X006350Y002875D02*
X006350Y003475D01*
X007350Y003475D02*
X007350Y002875D01*
X008350Y002875D02*
X008350Y003475D01*
X009350Y003475D02*
X009350Y002875D01*
X009350Y001475D02*
X009350Y000875D01*
X008350Y000875D02*
X008350Y001475D01*
X007350Y001475D02*
X007350Y000875D01*
X006350Y000875D02*
X006350Y001475D01*
X009350Y006375D02*
X009350Y006975D01*
X010350Y006975D02*
X010350Y006375D01*
X011350Y006375D02*
X011350Y006975D01*
X012350Y006975D02*
X012350Y006375D01*
X013350Y006375D02*
X013350Y006975D01*
X014350Y006975D02*
X014350Y006375D01*
X015350Y006375D02*
X015350Y006975D01*
X016350Y006975D02*
X016350Y006375D01*
X013350Y008375D02*
X013350Y008975D01*
X012350Y008975D02*
X012350Y008375D01*
X011350Y008375D02*
X011350Y008975D01*
X010350Y008975D02*
X010350Y008375D01*
X009350Y008375D02*
X009350Y008975D01*
X008350Y008975D02*
X008350Y008375D01*
X008350Y010375D02*
X008350Y010975D01*
X009350Y010975D02*
X009350Y010375D01*
X010350Y010375D02*
X010350Y010975D01*
X011350Y010975D02*
X011350Y010375D01*
X012350Y010375D02*
X012350Y010975D01*
X013350Y010975D02*
X013350Y010375D01*
X007350Y014875D02*
X007350Y015475D01*
X006350Y015475D02*
X006350Y014875D01*
X005350Y014875D02*
X005350Y015475D01*
X004350Y015475D02*
X004350Y014875D01*
X002350Y014875D02*
X002350Y015475D01*
X001350Y015475D02*
X001350Y014875D01*
X014350Y003475D02*
X014350Y002875D01*
X015350Y002875D02*
X015350Y003475D01*
X016350Y003475D02*
X016350Y002875D01*
X016350Y001475D02*
X016350Y000875D01*
X015350Y000875D02*
X015350Y001475D01*
X014350Y001475D02*
X014350Y000875D01*
X013350Y000875D02*
X013350Y001475D01*
X012350Y001475D02*
X012350Y000875D01*
D14*
X004024Y001040D03*
X004024Y002040D03*
X004024Y003040D03*
X004024Y004040D03*
X004024Y005040D03*
X004024Y006040D03*
X004024Y007040D03*
X004024Y008040D03*
X004024Y009040D03*
X004024Y010040D03*
X004024Y011040D03*
X004024Y012040D03*
X004024Y013040D03*
X000662Y013040D03*
X000662Y012040D03*
X000662Y011040D03*
X000662Y010040D03*
X000662Y009040D03*
X000662Y008040D03*
X000662Y007040D03*
X000662Y006040D03*
X000662Y005040D03*
X000662Y004040D03*
X000662Y003040D03*
X000662Y002040D03*
X000662Y001040D03*
M02*
